<svg width="764" height="371" viewBox="0 0 764 371" fill="none" xmlns="http://www.w3.org/2000/svg">
<path d="M245.326 284.676H210.5V345.799H126.062V284.676H0.226562V222.24L131.647 30H210.5V220.925H245.326V284.676ZM126.062 220.925V184.12C126.062 177.219 126.39 168.018 126.719 156.188C127.376 144.358 127.705 138.443 128.033 137.786H125.733C120.805 148.959 115.22 159.146 108.977 169.004L74.1507 220.925H126.062Z" fill="#E3FCD8"/>
<path d="M763.779 284.676H728.953V345.799H644.515V284.676H518.68V222.24L650.1 30H728.953V220.925H763.779V284.676ZM644.844 220.925V184.12C644.844 177.219 645.172 168.018 645.501 156.188C646.158 144.358 646.486 138.443 646.815 137.786H644.515C639.587 148.959 634.001 159.146 627.759 169.004L592.604 221.254H644.844V220.925Z" fill="#E3FCD8"/>
<g clip-path="url(#clip0_6720_16318)">
<path d="M382 5C314.745 5 260 59.7451 260 127C260 234.614 371.545 362.958 376.281 368.379C377.741 370.047 379.796 371 382 371C384.353 370.851 386.259 370.047 387.719 368.379C392.455 362.869 504 232.32 504 127C504 59.7451 449.255 5 382 5ZM382 88.875C407.258 88.875 427.75 109.367 427.75 134.625C427.75 159.883 407.258 180.375 382 180.375C356.742 180.375 336.25 159.883 336.25 134.625C336.25 109.367 356.742 88.875 382 88.875Z" fill="#E3FCD8"/>
<path d="M471.027 192.875C499.073 192.875 521.808 170.124 521.808 142.059C521.808 113.994 499.073 91.2422 471.027 91.2422C442.982 91.2422 420.246 113.994 420.246 142.059C420.246 170.124 442.982 192.875 471.027 192.875Z" fill="white"/>
<path d="M303.957 192.875C332.002 192.875 354.738 170.124 354.738 142.059C354.738 113.994 332.002 91.2422 303.957 91.2422C275.911 91.2422 253.176 113.994 253.176 142.059C253.176 170.124 275.911 192.875 303.957 192.875Z" fill="white"/>
<path d="M333.811 101.045C339.009 109.048 342.008 118.517 342.008 128.787C342.008 156.863 319.283 179.604 291.227 179.604C280.031 179.604 269.702 175.936 261.305 169.801C270.368 183.672 286.029 192.875 303.889 192.875C331.945 192.875 354.67 170.134 354.67 142.058C354.67 125.186 346.473 110.248 333.811 101.045Z" fill="#E3FCD8"/>
<path d="M500.881 101.045C506.079 109.048 509.078 118.517 509.078 128.787C509.078 156.863 486.353 179.604 458.297 179.604C447.101 179.604 436.772 175.936 428.375 169.801C437.438 183.739 453.099 192.875 470.959 192.875C499.015 192.875 521.74 170.134 521.74 142.058C521.74 125.186 513.476 110.248 500.881 101.045Z" fill="#E3FCD8"/>
<path d="M303.957 195.21C274.701 195.21 250.844 171.335 250.844 142.059C250.844 112.783 274.635 88.9082 303.957 88.9082C333.213 88.9082 357.071 112.783 357.071 142.059C357.071 171.335 333.213 195.21 303.957 195.21ZM303.957 93.5764C277.234 93.5764 255.509 115.317 255.509 142.059C255.509 168.801 277.234 190.541 303.957 190.541C330.681 190.541 352.406 168.801 352.406 142.059C352.406 115.317 330.681 93.5764 303.957 93.5764Z" fill="#53A42A"/>
<path d="M303.958 173.937C317.539 173.937 328.549 162.919 328.549 149.329C328.549 135.738 317.539 124.721 303.958 124.721C290.377 124.721 279.367 135.738 279.367 149.329C279.367 162.919 290.377 173.937 303.958 173.937Z" fill="#53A42A"/>
<path d="M297.891 154.929C303.449 154.929 307.954 150.421 307.954 144.859C307.954 139.298 303.449 134.789 297.891 134.789C292.333 134.789 287.828 139.298 287.828 144.859C287.828 150.421 292.333 154.929 297.891 154.929Z" fill="white"/>
<path d="M471.028 195.21C441.772 195.21 417.914 171.335 417.914 142.059C417.914 112.783 441.772 88.9082 471.028 88.9082C500.283 88.9082 524.141 112.783 524.141 142.059C524.141 171.335 500.283 195.21 471.028 195.21ZM471.028 93.5764C444.304 93.5764 422.579 115.317 422.579 142.059C422.579 168.801 444.304 190.541 471.028 190.541C497.751 190.541 519.476 168.801 519.476 142.059C519.476 115.317 497.751 93.5764 471.028 93.5764Z" fill="#53A42A"/>
<path d="M471.028 173.937C484.609 173.937 495.619 162.919 495.619 149.329C495.619 135.738 484.609 124.721 471.028 124.721C457.447 124.721 446.438 135.738 446.438 149.329C446.438 162.919 457.447 173.937 471.028 173.937Z" fill="#53A42A"/>
<path d="M464.961 154.929C470.519 154.929 475.024 150.421 475.024 144.859C475.024 139.298 470.519 134.789 464.961 134.789C459.404 134.789 454.898 139.298 454.898 144.859C454.898 150.421 459.404 154.929 464.961 154.929Z" fill="white"/>
<path d="M243.512 35.0236C253.909 45.2936 264.171 27.7546 297.626 23.3531C325.548 19.6853 342.475 31.3557 347.607 23.1531C352.672 14.8837 331.013 2.41293 289.962 6.14749C259.506 8.94841 231.45 23.1531 243.512 35.0236Z" fill="#53A42A"/>
<path d="M516.543 30.4225C503.547 23.0868 497.55 42.6932 464.895 55.4974C437.705 66.1676 417.713 59.0986 414.647 68.3683C411.515 77.638 436.439 84.2402 476.824 70.2356C506.879 59.7655 531.604 38.892 516.543 30.4225Z" fill="#53A42A"/>
<path d="M289.762 307.847C289.762 307.847 327.014 232.889 393.056 234.557C459.098 236.291 481.49 282.172 481.49 282.172C481.49 282.172 453.234 255.23 398.854 259.365C328.547 264.7 289.762 307.847 289.762 307.847Z" fill="#53A42A"/>
<path d="M478.225 262.233C481.823 266.434 484.289 271.569 485.489 276.971C486.555 281.839 487.021 288.308 483.289 292.242C481.557 294.11 478.958 295.243 476.425 294.643C474.293 294.11 473.36 297.377 475.492 297.911C478.425 298.644 481.557 297.911 484.022 296.11C486.621 294.176 488.288 291.309 489.021 288.108C490.487 281.839 488.954 274.903 486.422 269.035C484.955 265.634 482.956 262.566 480.624 259.765C480.024 259.032 478.824 259.165 478.225 259.765C477.492 260.499 477.625 261.499 478.225 262.233Z" fill="#53A42A"/>
<path d="M294.027 316.048C289.295 316.715 284.097 314.448 281.232 310.58C278.166 306.379 277.833 300.51 280.299 295.908C281.365 293.974 278.433 292.241 277.367 294.175C274.967 298.576 274.568 304.044 276.434 308.713C278.233 313.381 282.031 316.849 286.763 318.583C289.429 319.516 292.161 319.716 294.96 319.316C295.893 319.183 296.359 318.049 296.16 317.182C295.893 316.248 294.96 315.915 294.027 316.048Z" fill="#53A42A"/>
</g>
<defs>
<clipPath id="clip0_6720_16318">
<rect width="283" height="366" fill="white" transform="translate(241 5)"/>
</clipPath>
</defs>
</svg>
