<svg width="733" height="433" viewBox="0 0 733 433" fill="none" xmlns="http://www.w3.org/2000/svg">
<rect width="733" height="433" rx="8" fill="url(#paint0_linear_6785_26513)"/>
<g clip-path="url(#clip0_6785_26513)">
<path d="M352.042 134.129C351.662 131.947 351.865 129.704 352.632 127.627C353.398 125.549 354.702 123.712 356.408 122.301C358.874 119.944 362.166 118.647 365.578 118.689C368.989 118.732 372.248 120.111 374.654 122.529C376.381 124.099 377.654 126.103 378.342 128.332C379.03 130.561 379.106 132.935 378.564 135.204C376.12 145.63 370.321 154.753 365.303 164.136C360.351 154.492 354.356 144.946 352.042 134.129ZM362.632 124.615C356.115 126.602 355.105 138.103 362.632 139.733C368.236 142.046 375.664 136.474 373.449 130.545C372.471 125.169 367.454 123.572 362.632 124.615Z" fill="white"/>
<path d="M346.373 146.217L351.977 153.776C299.847 157.881 248.921 178.342 211.159 214.834L202.297 212.097C238.951 175.703 294.862 150.843 346.373 146.217Z" fill="white"/>
<path d="M377.793 154.167L383.527 146.217C436.57 151.593 488.278 173.814 526.105 211.804L518.025 215.062C479.739 179.144 430.176 157.621 377.793 154.167Z" fill="white"/>
<path d="M270.464 223.631H286.136C286.136 247.22 285.81 270.809 286.136 294.366L270.301 294.594C270.594 270.972 270.366 247.318 270.464 223.631Z" fill="white"/>
<path d="M134.37 226.628H184.024V239.661H151.443C151.443 244.711 151.443 249.794 151.443 254.844H184.024V268.137H151.443C151.443 276.934 151.443 285.764 151.443 294.561H134.207C134.207 271.786 134.207 249.24 134.37 226.628Z" fill="white"/>
<path d="M328.394 223.662H343.935L343.153 291.791C337.744 296.156 327.123 295.374 321.584 295.049C310.05 293.745 297.962 293.68 295.095 281.592C293.531 273.752 293.531 265.68 295.095 257.84C296.063 253.899 298.256 250.365 301.359 247.748C304.462 245.131 308.315 243.566 312.363 243.276C317.81 243.228 323.253 243.554 328.654 244.254L328.394 223.662ZM311.321 261.294V276.021C311.323 277.511 311.866 278.95 312.849 280.07C313.831 281.191 315.187 281.917 316.664 282.114C317.967 282.114 319.303 282.44 320.639 282.537C321.634 282.626 322.637 282.515 323.588 282.211C324.54 281.907 325.421 281.416 326.18 280.766C326.939 280.117 327.56 279.322 328.008 278.429C328.455 277.535 328.719 276.562 328.785 275.565C329.453 270.031 329.387 264.432 328.589 258.916C327.253 255.332 322.073 254.615 317.642 254.68C315.93 254.731 314.308 255.454 313.125 256.691C311.942 257.929 311.294 259.582 311.321 261.294Z" fill="white"/>
<path d="M354.031 226.691H370.094C370.094 244.839 370.094 262.987 370.094 281.168C380.879 281.168 402.676 281.168 402.676 281.168V294.592C402.676 294.592 369.377 294.592 354.129 294.592C353.999 271.98 354.096 249.336 354.031 226.691Z" fill="white"/>
<path d="M191.979 244.446H207.456C207.456 261.161 207.456 277.875 207.456 294.59H191.914C192.044 277.843 191.947 261.128 191.979 244.446Z" fill="white"/>
<path d="M215.659 258.294C218.038 242.786 239.77 241.124 251.955 244.903C262.479 247.673 264.01 259.142 262.056 268.786C261.774 270.168 261.066 271.426 260.031 272.385C258.997 273.343 257.688 273.953 256.289 274.129C247.263 275.302 238.075 274.65 229.05 275.335C228.333 283.871 248.045 282.568 259.84 282.829L259.677 294.591C259.677 294.591 239.02 295.861 230.354 293.809C227.196 293.131 224.279 291.615 221.91 289.418C219.542 287.222 217.81 284.428 216.897 281.33C215.22 273.772 214.802 265.989 215.659 258.294ZM229.344 263.964H248.534L248.241 258.294C248.179 257.183 247.727 256.129 246.964 255.318C246.201 254.507 245.176 253.992 244.07 253.863C240.6 253.505 237.099 253.571 233.644 254.059C232.45 254.259 231.366 254.877 230.585 255.802C229.803 256.726 229.375 257.898 229.376 259.109L229.344 263.964Z" fill="white"/>
<path d="M418.064 245.13C428.083 241.86 438.932 242.206 448.723 246.107C457.455 250.831 457.39 262.137 457.488 270.771C457.488 277.777 457.032 286.052 451.46 291.428C449.161 293.52 446.313 294.91 443.249 295.436C434.454 297.154 425.371 296.695 416.793 294.1C405.52 288.985 406.53 274.551 407.214 264.125C407.605 257.087 410.407 248.029 418.064 245.13ZM422.853 265.558C422.5 269.012 422.621 272.498 423.212 275.919C423.643 278.361 425.005 280.54 427.01 281.998C429.015 283.456 431.508 284.08 433.964 283.739C438.232 283.152 442.728 280.481 442.858 276.115C443.126 270.829 442.918 265.529 442.239 260.28C441.816 257.641 438.46 255.588 435.723 255.132L434.811 254.969C433.32 254.831 431.817 254.999 430.394 255.464C428.971 255.929 427.659 256.681 426.539 257.674C425.418 258.666 424.513 259.878 423.879 261.234C423.245 262.59 422.896 264.062 422.853 265.558Z" fill="white"/>
<path d="M467.232 282.799C462.605 269.766 462.149 247.708 479.255 244.189C491.408 241.322 511.511 242.202 513.563 258.004C514.052 270.613 516.463 284.363 514.345 297.102C513.921 299.837 512.798 302.416 511.086 304.591C509.374 306.765 507.13 308.462 504.571 309.516C490.919 314.957 469.676 312.546 469.676 312.546V299.285C479.45 299.285 493.591 301.37 501.247 293.225V291.824C489.974 291.531 473.064 295.766 467.232 282.799ZM480.59 262.37C480.199 265.078 480.134 267.824 480.395 270.548C480.559 272.88 481.553 275.075 483.196 276.737C484.84 278.399 487.025 279.417 489.355 279.606H490.235C492.193 279.747 494.131 279.134 495.651 277.892C497.172 276.65 498.16 274.873 498.413 272.926C498.953 269.477 499.041 265.972 498.673 262.5C498.406 260.64 497.522 258.922 496.163 257.623C494.805 256.324 493.05 255.517 491.18 255.332C490.235 255.284 489.289 255.284 488.345 255.332C486.433 255.413 484.61 256.161 483.194 257.447C481.777 258.733 480.856 260.475 480.59 262.37Z" fill="white"/>
<path d="M523.552 244.318L538.963 244.416L538.996 294.527H523.52L523.552 244.318Z" fill="white"/>
<path d="M546.111 244.318H562.988L571.329 258.003L580.713 244.318H596.156L579.67 268.266L598.209 294.527L580.875 294.494L570.84 278.888L560.968 294.527H544.547L562.63 268.559L546.111 244.318Z" fill="white"/>
<circle cx="199.372" cy="226.17" r="9.77452" fill="white"/>
<circle cx="528.446" cy="226.17" r="9.77452" fill="white"/>
</g>
<defs>
<linearGradient id="paint0_linear_6785_26513" x1="17.5788" y1="185.888" x2="723.489" y2="185.888" gradientUnits="userSpaceOnUse">
<stop stop-color="#92D65E"/>
<stop offset="1" stop-color="#5DB14C"/>
</linearGradient>
<clipPath id="clip0_6785_26513">
<rect width="463.996" height="194.35" fill="white" transform="translate(134.207 118.65)"/>
</clipPath>
</defs>
</svg>
