<svg width="1420" height="368" viewBox="0 0 1420 368" fill="none" xmlns="http://www.w3.org/2000/svg">
<path d="M1390 68V317C1390 343.51 1368.51 365 1342 365H1112.53C1086.02 365 1064.53 343.51 1064.53 317V150.001C1064.53 123.492 1043.04 102.001 1016.53 102.001H828.15C801.64 102.001 780.15 123.492 780.15 150.001V209.006V274.509V307C780.15 333.51 758.66 355 732.15 355H662.83H403.742C377.232 355 355.742 333.51 355.742 307V185.503C355.742 158.993 334.252 137.503 307.742 137.503H160.568H118.28C91.7705 137.503 70.2802 158.993 70.2802 185.503V207.508C70.2802 234.018 48.7898 255.508 22.2802 255.508H20" stroke="#E6E6E7" stroke-width="5" stroke-dasharray="8 24"/>
<path d="M355.742 248.5V307C355.742 333.51 377.232 355 403.742 355H662.83H732.15C758.66 355 780.15 333.51 780.15 307V274.509V209.006V150.001C780.15 123.492 801.64 102.001 828.15 102.001H1016.53C1043.04 102.001 1064.53 123.492 1064.53 150.001V317C1064.53 343.51 1086.02 365 1112.53 365H1241" stroke="url(#paint0_linear_2_793)" stroke-width="5" stroke-linecap="round" stroke-dasharray="8 24"/>
<path d="M1370.28 23.1017C1369.71 19.838 1370.01 16.4815 1371.15 13.3734C1372.28 10.2653 1374.21 7.51627 1376.73 5.40567C1380.37 1.87798 1385.24 -0.0622779 1390.28 0.00152515C1395.32 0.0653282 1400.14 2.1281 1403.69 5.74691C1406.25 8.09483 1408.13 11.0931 1409.14 14.4288C1410.16 17.7645 1410.27 21.3153 1409.47 24.7105C1405.86 40.3103 1397.29 53.9602 1389.87 68C1382.56 53.5702 1373.7 39.2866 1370.28 23.1017ZM1385.93 8.86688C1376.3 11.8406 1374.8 29.0492 1385.93 31.4866C1394.21 34.9479 1405.19 26.6117 1401.91 17.7393C1400.47 9.69562 1393.05 7.3069 1385.93 8.86688Z" fill="url(#paint1_linear_2_793)"/>
<path d="M0.276375 213.102C-0.286588 209.838 0.013827 206.482 1.14712 203.373C2.28041 200.265 4.20618 197.516 6.72875 195.406C10.3731 191.878 15.2385 189.938 20.2802 190.002C25.3219 190.065 30.1379 192.128 33.694 195.747C36.2456 198.095 38.1278 201.093 39.1442 204.429C40.1606 207.765 40.2739 211.315 39.4722 214.71C35.8608 230.31 27.2897 243.96 19.8743 258C12.5552 243.57 3.69518 229.287 0.276375 213.102ZM15.9258 198.867C6.29539 201.841 4.80268 219.049 15.9258 221.487C24.208 224.948 35.1867 216.612 31.9123 207.739C30.4678 199.696 23.0523 197.307 15.9258 198.867Z" fill="url(#paint2_linear_2_793)"/>
<circle cx="1390" cy="186" r="30" fill="url(#paint3_linear_2_793)"/>
<path d="M1398.77 178.446C1398.74 178.666 1398.68 178.883 1398.58 179.092L1391.83 193.707C1391.47 194.493 1390.67 195 1389.78 195C1388.9 195 1388.09 194.493 1387.73 193.707L1380.98 179.092C1380.59 178.257 1380.78 177.277 1381.45 176.634C1382.12 175.991 1383.12 175.818 1383.98 176.203L1389.78 178.823L1395.59 176.203C1395.89 176.065 1396.21 176 1396.53 176C1397.11 176 1397.68 176.219 1398.11 176.634C1398.61 177.116 1398.84 177.788 1398.77 178.446Z" fill="url(#paint4_linear_2_793)"/>
<circle cx="179.391" cy="137" r="30" transform="rotate(90 179.391 137)" fill="url(#paint5_linear_2_793)"/>
<path d="M186.944 145.766C186.725 145.74 186.508 145.678 186.299 145.582L171.684 138.833C170.897 138.468 170.391 137.667 170.391 136.782C170.391 135.897 170.897 135.095 171.684 134.729L186.299 127.98C187.134 127.594 188.114 127.781 188.757 128.448C189.4 129.116 189.572 130.124 189.188 130.979L186.567 136.782L189.188 142.585C189.325 142.888 189.391 143.212 189.391 143.531C189.391 144.112 189.172 144.683 188.757 145.113C188.275 145.614 187.602 145.845 186.944 145.766Z" fill="url(#paint6_linear_2_793)"/>
<defs>
<linearGradient id="paint0_linear_2_793" x1="1219.77" y1="214.907" x2="367.228" y2="214.907" gradientUnits="userSpaceOnUse">
<stop stop-color="#92D65E"/>
<stop offset="1" stop-color="#5DB14C"/>
</linearGradient>
<linearGradient id="paint1_linear_2_793" x1="1370.96" y1="29.1926" x2="1409.48" y2="29.1926" gradientUnits="userSpaceOnUse">
<stop stop-color="#92D65E"/>
<stop offset="1" stop-color="#5DB14C"/>
</linearGradient>
<linearGradient id="paint2_linear_2_793" x1="0.959282" y1="219.193" x2="39.481" y2="219.193" gradientUnits="userSpaceOnUse">
<stop stop-color="#92D65E"/>
<stop offset="1" stop-color="#5DB14C"/>
</linearGradient>
<linearGradient id="paint3_linear_2_793" x1="1368.5" y1="167.5" x2="1406" y2="211" gradientUnits="userSpaceOnUse">
<stop stop-color="#ECFFE4"/>
<stop offset="1" stop-color="#CDF5BB"/>
</linearGradient>
<linearGradient id="paint4_linear_2_793" x1="1391.05" y1="194.544" x2="1391.05" y2="176.247" gradientUnits="userSpaceOnUse">
<stop stop-color="#92D65E"/>
<stop offset="1" stop-color="#5DB14C"/>
</linearGradient>
<linearGradient id="paint5_linear_2_793" x1="157.891" y1="118.5" x2="195.391" y2="162" gradientUnits="userSpaceOnUse">
<stop stop-color="#ECFFE4"/>
<stop offset="1" stop-color="#CDF5BB"/>
</linearGradient>
<linearGradient id="paint6_linear_2_793" x1="170.846" y1="138.054" x2="189.144" y2="138.054" gradientUnits="userSpaceOnUse">
<stop stop-color="#92D65E"/>
<stop offset="1" stop-color="#5DB14C"/>
</linearGradient>
</defs>
</svg>
