<svg width="352" height="2357" viewBox="0 0 352 2357" fill="none" xmlns="http://www.w3.org/2000/svg">
<path d="M196.333 23.1017C196.896 19.838 196.596 16.4815 195.462 13.3734C194.329 10.2653 192.403 7.51627 189.881 5.40567C186.236 1.87798 181.371 -0.0622779 176.329 0.00152515C171.287 0.0653282 166.471 2.1281 162.915 5.74691C160.364 8.09483 158.482 11.0931 157.465 14.4288C156.449 17.7645 156.336 21.3153 157.137 24.7105C160.749 40.3103 169.32 53.9602 176.735 68C184.054 53.5702 192.914 39.2866 196.333 23.1017ZM180.684 8.86688C190.314 11.8406 191.807 29.0492 180.684 31.4866C172.401 34.9479 161.423 26.6117 164.697 17.7393C166.142 9.69562 173.557 7.3069 180.684 8.86688Z" fill="url(#paint0_linear_5_387)"/>
<path fill-rule="evenodd" clip-rule="evenodd" d="M175.559 350.698C175.414 350.665 175.264 350.648 175.109 350.648C172.744 350.648 170.382 350.591 168.024 350.478C166.921 350.426 165.984 351.277 165.931 352.381C165.878 353.484 166.73 354.421 167.833 354.474C170.105 354.583 172.381 354.64 174.66 354.647C174.804 354.68 174.955 354.698 175.109 354.698C177.475 354.698 179.837 354.754 182.195 354.867C183.298 354.92 184.235 354.068 184.288 352.965C184.341 351.862 183.489 350.925 182.386 350.872C180.114 350.763 177.838 350.705 175.559 350.698ZM175.109 65.0361C176.214 65.0361 177.109 65.9315 177.109 67.0361C177.109 68.1407 176.214 69.0361 175.109 69.0361C172.744 69.0361 170.382 69.0927 168.024 69.2055C166.921 69.2583 165.984 68.4066 165.931 67.3033C165.878 66.2 166.73 65.2628 167.833 65.2101C170.254 65.0942 172.68 65.0361 175.109 65.0361ZM153.919 349.125C155.012 349.283 155.77 350.298 155.612 351.391C155.454 352.484 154.44 353.242 153.347 353.084C148.541 352.39 143.773 351.466 139.059 350.316C137.986 350.054 137.329 348.972 137.591 347.899C137.852 346.826 138.935 346.168 140.008 346.43C144.597 347.55 149.239 348.449 153.919 349.125ZM153.347 66.5995C154.44 66.4416 155.454 67.1998 155.612 68.293C155.77 69.3863 155.012 70.4005 153.919 70.5584C149.239 71.2345 144.596 72.134 140.008 73.2538C138.935 73.5156 137.852 72.858 137.591 71.7849C137.329 70.7119 137.986 69.6297 139.059 69.3678C143.773 68.2177 148.541 67.2938 153.347 66.5995ZM126.42 342.414C127.463 342.777 128.013 343.918 127.65 344.961C127.286 346.004 126.146 346.554 125.103 346.191C122.813 345.392 120.541 344.538 118.289 343.628C116.051 342.724 113.837 341.768 111.651 340.761C110.648 340.298 110.21 339.11 110.672 338.107C111.134 337.104 112.322 336.665 113.326 337.128C115.453 338.109 117.608 339.039 119.787 339.919C121.979 340.805 124.191 341.636 126.42 342.414ZM125.103 73.4934C126.146 73.1297 127.286 73.6803 127.65 74.7233C128.013 75.7662 127.463 76.9066 126.42 77.2703C124.191 78.0477 121.979 78.8792 119.787 79.7644C117.608 80.6445 115.453 81.5754 113.326 82.5561C112.322 83.0184 111.134 82.58 110.672 81.5769C110.21 80.5737 110.648 79.3857 111.651 78.9234C113.837 77.9158 116.051 76.9595 118.289 76.0555C120.541 75.1461 122.813 74.292 125.103 73.4934ZM100.844 330.628C101.798 331.185 102.12 332.41 101.563 333.364C101.006 334.318 99.7815 334.64 98.8276 334.083C94.6582 331.648 90.6137 329.016 86.7089 326.195C85.8136 325.548 85.6121 324.298 86.2589 323.403C86.9058 322.507 88.156 322.306 89.0513 322.953C92.8508 325.698 96.7866 328.259 100.844 330.628ZM98.8276 85.6013C99.7815 85.0444 101.006 85.3662 101.563 86.3201C102.12 87.274 101.798 88.4987 100.844 89.0557C96.7866 91.4247 92.8508 93.9862 89.0513 96.7311C88.1559 97.378 86.9057 97.1765 86.2589 96.2811C85.6121 95.3858 85.8135 94.1356 86.7089 93.4887C90.6137 90.6678 94.6582 88.0355 98.8276 85.6013ZM78.0629 314.166C78.8907 314.898 78.9691 316.161 78.2378 316.989C77.5066 317.817 76.2427 317.896 75.4148 317.164C73.6083 315.569 71.8404 313.928 70.1131 312.244C68.4001 310.574 66.7311 308.865 65.1073 307.119C64.3551 306.31 64.4009 305.045 65.2098 304.293C66.0186 303.54 67.2841 303.586 68.0363 304.395C69.6157 306.093 71.2391 307.755 72.9054 309.38C74.5857 311.018 76.3054 312.614 78.0629 314.166ZM75.4148 102.52C76.2427 101.788 77.5066 101.867 78.2378 102.695C78.969 103.522 78.8907 104.786 78.0629 105.518C76.3054 107.07 74.5857 108.666 72.9054 110.304C71.2391 111.928 69.6157 113.591 68.0363 115.289C67.2841 116.098 66.0186 116.144 65.2098 115.391C64.4009 114.639 64.355 113.374 65.1073 112.565C66.7311 110.819 68.4001 109.11 70.113 107.44C71.8404 105.756 73.6083 104.115 75.4148 102.52ZM59.0614 293.74C59.7306 294.619 59.5606 295.874 58.6818 296.543C57.8029 297.212 56.5481 297.042 55.8789 296.163C52.981 292.357 50.2764 288.414 47.775 284.349C47.1961 283.409 47.4894 282.177 48.4301 281.598C49.3709 281.019 50.6028 281.312 51.1817 282.253C53.6136 286.205 56.2434 290.039 59.0614 293.74ZM55.8789 123.521C56.548 122.642 57.8029 122.472 58.6817 123.141C59.5606 123.81 59.7306 125.065 59.0614 125.944C56.2434 129.645 53.6136 133.479 51.1817 137.431C50.6028 138.372 49.3709 138.665 48.4301 138.086C47.4894 137.507 47.1961 136.275 47.775 135.334C50.2764 131.27 52.981 127.327 55.8789 123.521ZM44.482 270.042C44.9643 271.036 44.5497 272.232 43.556 272.714C42.5623 273.197 41.3658 272.782 40.8835 271.789C39.8409 269.64 38.8516 267.465 37.9168 265.265C36.9876 263.078 36.1145 260.871 35.298 258.647C34.9174 257.61 35.4493 256.461 36.4862 256.081C37.5232 255.7 38.6723 256.232 39.053 257.269C39.8466 259.43 40.6951 261.575 41.5983 263.701C42.5069 265.84 43.4685 267.954 44.482 270.042ZM40.8835 147.895C41.3658 146.902 42.5623 146.487 43.556 146.969C44.5497 147.452 44.9643 148.648 44.482 149.642C43.4685 151.73 42.5069 153.844 41.5983 155.983C40.6951 158.109 39.8466 160.253 39.053 162.415C38.6723 163.452 37.5232 163.984 36.4862 163.603C35.4493 163.223 34.9174 162.073 35.298 161.037C36.1145 158.812 36.9876 156.606 37.9167 154.419C38.8516 152.219 39.8409 150.043 40.8835 147.895ZM34.9422 244.064C35.2173 245.134 34.5731 246.224 33.5033 246.499C32.4335 246.774 31.3433 246.13 31.0683 245.06C29.8856 240.461 28.9353 235.807 28.2209 231.117C28.0545 230.025 28.8049 229.005 29.8969 228.839C30.9889 228.672 32.0089 229.423 32.1752 230.515C32.8695 235.072 33.7929 239.594 34.9422 244.064ZM31.0683 174.624C31.3433 173.554 32.4335 172.91 33.5033 173.185C34.5731 173.46 35.2173 174.55 34.9422 175.62C33.7929 180.09 32.8695 184.612 32.1752 189.169C32.0089 190.261 30.9888 191.012 29.8969 190.845C28.8049 190.679 28.0545 189.659 28.2209 188.567C28.9353 183.877 29.8856 179.223 31.0683 174.624ZM30.7837 216.756C30.8394 217.859 29.9902 218.799 28.887 218.854C27.7838 218.91 26.8444 218.061 26.7888 216.958C26.6693 214.59 26.6094 212.217 26.6094 209.842C26.6094 207.466 26.6693 205.094 26.7888 202.726C26.8444 201.623 27.7838 200.774 28.887 200.829C29.9902 200.885 30.8394 201.825 30.7837 202.928C30.6676 205.228 30.6094 207.534 30.6094 209.842C30.6094 212.15 30.6676 214.456 30.7837 216.756ZM175.109 636.309C174.945 636.309 174.785 636.329 174.632 636.367C172.697 636.385 170.763 636.441 168.833 636.533C167.73 636.586 166.878 637.523 166.931 638.627C166.984 639.73 167.921 640.582 169.024 640.529C171.382 640.416 173.744 640.359 176.109 640.359C176.274 640.359 176.433 640.34 176.586 640.302C178.522 640.284 180.455 640.228 182.386 640.135C183.489 640.083 184.341 639.146 184.288 638.042C184.235 636.939 183.298 636.087 182.195 636.14C179.837 636.253 177.475 636.309 175.109 636.309ZM196.3 634.787C195.207 634.945 194.449 635.959 194.607 637.053C194.764 638.146 195.779 638.904 196.872 638.746C201.678 638.052 206.446 637.128 211.159 635.978C212.232 635.716 212.89 634.634 212.628 633.561C212.366 632.488 211.284 631.83 210.211 632.092C205.622 633.212 200.98 634.111 196.3 634.787ZM196.872 352.261C195.779 352.103 194.764 352.861 194.607 353.955C194.449 355.048 195.207 356.062 196.3 356.22C200.98 356.896 205.622 357.796 210.211 358.915C211.284 359.177 212.366 358.52 212.628 357.447C212.89 356.374 212.232 355.291 211.159 355.029C206.446 353.879 201.678 352.956 196.872 352.261ZM223.799 628.075C222.756 628.439 222.205 629.579 222.569 630.622C222.933 631.665 224.073 632.216 225.116 631.852C227.406 631.054 229.678 630.199 231.93 629.29C234.168 628.386 236.381 627.43 238.567 626.422C239.571 625.96 240.009 624.772 239.547 623.769C239.084 622.766 237.896 622.327 236.893 622.789C234.765 623.77 232.611 624.701 230.432 625.581C228.24 626.466 226.028 627.298 223.799 628.075ZM225.116 359.155C224.073 358.791 222.933 359.342 222.569 360.385C222.205 361.428 222.756 362.568 223.799 362.932C226.028 363.709 228.24 364.541 230.432 365.426C232.611 366.306 234.765 367.237 236.893 368.218C237.896 368.68 239.084 368.242 239.547 367.239C240.009 366.235 239.571 365.047 238.567 364.585C236.381 363.578 234.168 362.621 231.93 361.717C229.678 360.808 227.406 359.954 225.116 359.155ZM249.374 616.29C248.42 616.847 248.099 618.072 248.656 619.026C249.212 619.979 250.437 620.301 251.391 619.744C255.561 617.31 259.605 614.678 263.51 611.857C264.405 611.21 264.607 609.96 263.96 609.064C263.313 608.169 262.063 607.968 261.167 608.614C257.368 611.359 253.432 613.921 249.374 616.29ZM251.391 371.263C250.437 370.706 249.212 371.028 248.656 371.982C248.099 372.936 248.42 374.16 249.374 374.717C253.432 377.086 257.368 379.648 261.167 382.393C262.063 383.04 263.313 382.838 263.96 381.943C264.607 381.047 264.405 379.797 263.51 379.15C259.605 376.329 255.561 373.697 251.391 371.263ZM272.156 599.828C271.328 600.559 271.25 601.823 271.981 602.651C272.712 603.479 273.976 603.557 274.804 602.826C276.61 601.23 278.378 599.59 280.106 597.906C281.819 596.236 283.488 594.527 285.111 592.781C285.864 591.972 285.818 590.706 285.009 589.954C284.2 589.202 282.935 589.248 282.182 590.057C280.603 591.755 278.98 593.417 277.313 595.042C275.633 596.68 273.913 598.276 272.156 599.828ZM274.804 388.181C273.976 387.45 272.712 387.528 271.981 388.356C271.25 389.184 271.328 390.448 272.156 391.179C273.913 392.732 275.633 394.327 277.313 395.966C278.98 397.59 280.603 399.252 282.182 400.951C282.935 401.759 284.2 401.805 285.009 401.053C285.818 400.301 285.864 399.035 285.111 398.227C283.488 396.48 281.819 394.772 280.106 393.102C278.378 391.417 276.61 389.777 274.804 388.181ZM291.157 579.402C290.488 580.28 290.658 581.535 291.537 582.204C292.416 582.874 293.671 582.704 294.34 581.825C297.238 578.019 299.942 574.076 302.444 570.011C303.023 569.07 302.729 567.839 301.789 567.26C300.848 566.681 299.616 566.974 299.037 567.915C296.605 571.867 293.975 575.7 291.157 579.402ZM294.34 409.183C293.671 408.304 292.416 408.134 291.537 408.803C290.658 409.472 290.488 410.727 291.157 411.606C293.975 415.307 296.605 419.14 299.037 423.092C299.616 424.033 300.848 424.327 301.789 423.748C302.729 423.169 303.023 421.937 302.444 420.996C299.942 416.931 297.238 412.989 294.34 409.183ZM305.737 555.704C305.254 556.697 305.669 557.894 306.663 558.376C307.656 558.858 308.853 558.444 309.335 557.45C310.378 555.302 311.367 553.127 312.302 550.927C313.231 548.74 314.104 546.533 314.921 544.309C315.301 543.272 314.769 542.123 313.733 541.742C312.696 541.362 311.546 541.894 311.166 542.93C310.372 545.092 309.524 547.237 308.62 549.363C307.712 551.501 306.75 553.616 305.737 555.704ZM309.335 433.557C308.853 432.563 307.656 432.149 306.663 432.631C305.669 433.113 305.254 434.31 305.737 435.304C306.75 437.392 307.712 439.506 308.62 441.645C309.524 443.77 310.372 445.915 311.166 448.077C311.546 449.114 312.696 449.646 313.733 449.265C314.769 448.884 315.301 447.735 314.921 446.698C314.104 444.474 313.231 442.268 312.302 440.081C311.367 437.88 310.378 435.705 309.335 433.557ZM315.277 529.726C315.001 530.795 315.646 531.886 316.715 532.161C317.785 532.436 318.875 531.792 319.15 530.722C320.333 526.122 321.283 521.469 321.998 516.779C322.164 515.687 321.414 514.667 320.322 514.5C319.23 514.334 318.21 515.084 318.044 516.176C317.349 520.734 316.426 525.256 315.277 529.726ZM319.15 460.285C318.875 459.216 317.785 458.571 316.715 458.846C315.646 459.122 315.001 460.212 315.277 461.282C316.426 465.751 317.349 470.273 318.044 474.831C318.21 475.923 319.23 476.673 320.322 476.507C321.414 476.341 322.164 475.321 321.998 474.229C321.283 469.538 320.333 464.885 319.15 460.285ZM319.435 502.418C319.379 503.521 320.229 504.46 321.332 504.516C322.435 504.572 323.374 503.723 323.43 502.619C323.549 500.252 323.609 497.879 323.609 495.504C323.609 493.128 323.549 490.755 323.43 488.388C323.374 487.285 322.435 486.436 321.332 486.491C320.229 486.547 319.379 487.486 319.435 488.589C319.551 490.89 319.609 493.195 319.609 495.504C319.609 497.812 319.551 500.117 319.435 502.418ZM176.586 922.028C176.433 921.991 176.274 921.971 176.109 921.971C173.744 921.971 171.382 921.915 169.024 921.802C167.921 921.749 166.984 922.601 166.931 923.704C166.878 924.807 167.73 925.744 168.833 925.797C170.763 925.89 172.697 925.945 174.632 925.964C174.785 926.001 174.945 926.021 175.109 926.021C177.475 926.021 179.837 926.078 182.195 926.191C183.298 926.243 184.235 925.392 184.288 924.288C184.341 923.185 183.489 922.248 182.386 922.195C180.455 922.103 178.522 922.047 176.586 922.028ZM156.612 922.714C156.77 921.621 156.012 920.607 154.919 920.449C150.239 919.773 145.597 918.873 141.008 917.753C139.935 917.492 138.852 918.149 138.591 919.222C138.329 920.295 138.986 921.378 140.059 921.639C144.773 922.79 149.541 923.713 154.347 924.408C155.44 924.566 156.454 923.807 156.612 922.714ZM156.612 639.616C156.454 638.523 155.44 637.765 154.347 637.923C149.541 638.617 144.773 639.541 140.059 640.691C138.986 640.953 138.329 642.035 138.591 643.108C138.852 644.181 139.935 644.839 141.008 644.577C145.596 643.457 150.239 642.558 154.919 641.882C156.012 641.724 156.77 640.71 156.612 639.616ZM128.65 916.284C129.013 915.241 128.463 914.101 127.42 913.737C125.191 912.96 122.979 912.128 120.787 911.243C118.608 910.363 116.453 909.432 114.326 908.451C113.322 907.989 112.134 908.427 111.672 909.43C111.21 910.434 111.648 911.622 112.651 912.084C114.837 913.091 117.051 914.048 119.289 914.952C121.541 915.861 123.813 916.715 126.103 917.514C127.146 917.878 128.286 917.327 128.65 916.284ZM128.65 646.047C128.286 645.004 127.146 644.453 126.103 644.817C123.813 645.615 121.541 646.469 119.289 647.379C117.051 648.283 114.837 649.239 112.651 650.247C111.648 650.709 111.21 651.897 111.672 652.9C112.134 653.903 113.322 654.342 114.326 653.879C116.453 652.899 118.608 651.968 120.787 651.088C122.979 650.203 125.191 649.371 127.42 648.594C128.463 648.23 129.013 647.09 128.65 646.047ZM102.563 904.687C103.12 903.733 102.798 902.509 101.844 901.952C97.7866 899.583 93.8508 897.021 90.0513 894.276C89.156 893.629 87.9058 893.831 87.2589 894.726C86.6121 895.622 86.8136 896.872 87.7089 897.519C91.6137 900.339 95.6582 902.972 99.8276 905.406C100.782 905.963 102.006 905.641 102.563 904.687ZM102.563 657.643C102.006 656.69 100.782 656.368 99.8276 656.925C95.6582 659.359 91.6137 661.991 87.7089 664.812C86.8135 665.459 86.6121 666.709 87.2589 667.604C87.9057 668.5 89.1559 668.701 90.0513 668.055C93.8508 665.31 97.7866 662.748 101.844 660.379C102.798 659.822 103.12 658.597 102.563 657.643ZM79.2378 888.313C79.9691 887.485 79.8907 886.221 79.0629 885.49C77.3054 883.937 75.5857 882.342 73.9054 880.703C72.2391 879.079 70.6157 877.417 69.0363 875.718C68.2841 874.91 67.0186 874.864 66.2098 875.616C65.4009 876.368 65.3551 877.634 66.1073 878.442C67.7311 880.188 69.4001 881.897 71.1131 883.567C72.8404 885.252 74.6083 886.892 76.4148 888.488C77.2427 889.219 78.5066 889.141 79.2378 888.313ZM79.2378 674.018C78.5066 673.19 77.2427 673.112 76.4148 673.843C74.6083 675.439 72.8404 677.079 71.113 678.763C69.4001 680.433 67.7311 682.142 66.1073 683.888C65.355 684.697 65.4009 685.963 66.2098 686.715C67.0186 687.467 68.2841 687.421 69.0363 686.612C70.6157 684.914 72.2391 683.252 73.9054 681.627C75.5857 679.989 77.3054 678.393 79.0629 676.841C79.8907 676.11 79.969 674.846 79.2378 674.018ZM59.6818 867.866C60.5606 867.197 60.7306 865.942 60.0614 865.063C57.2434 861.362 54.6136 857.529 52.1817 853.576C51.6028 852.636 50.3709 852.342 49.4301 852.921C48.4894 853.5 48.1961 854.732 48.775 855.673C51.2764 859.738 53.981 863.68 56.8789 867.486C57.5481 868.365 58.8029 868.535 59.6818 867.866ZM59.6817 694.465C58.8029 693.795 57.548 693.965 56.8789 694.844C53.981 698.65 51.2764 702.593 48.775 706.658C48.1961 707.599 48.4894 708.83 49.4301 709.409C50.3709 709.988 51.6028 709.695 52.1817 708.754C54.6136 704.802 57.2434 700.969 60.0614 697.267C60.7306 696.389 60.5606 695.134 59.6817 694.465ZM44.556 844.038C45.5497 843.556 45.9643 842.359 45.482 841.365C44.4685 839.277 43.5069 837.163 42.5983 835.024C41.6951 832.899 40.8466 830.754 40.053 828.592C39.6723 827.555 38.5232 827.023 37.4862 827.404C36.4493 827.785 35.9174 828.934 36.298 829.971C37.1145 832.195 37.9876 834.401 38.9168 836.588C39.8516 838.789 40.8409 840.964 41.8835 843.112C42.3658 844.106 43.5623 844.52 44.556 844.038ZM44.556 718.293C43.5623 717.81 42.3658 718.225 41.8835 719.219C40.8409 721.367 39.8516 723.542 38.9167 725.742C37.9876 727.929 37.1145 730.136 36.298 732.36C35.9174 733.397 36.4493 734.546 37.4862 734.927C38.5232 735.307 39.6723 734.775 40.053 733.738C40.8466 731.577 41.6951 729.432 42.5983 727.306C43.5069 725.168 44.4685 723.053 45.482 720.965C45.9643 719.972 45.5497 718.775 44.556 718.293ZM34.5033 817.822C35.5731 817.547 36.2173 816.457 35.9422 815.387C34.7929 810.918 33.8695 806.396 33.1752 801.838C33.0089 800.746 31.9889 799.996 30.8969 800.162C29.8049 800.328 29.0545 801.348 29.2209 802.44C29.9353 807.131 30.8856 811.784 32.0683 816.384C32.3433 817.453 33.4335 818.098 34.5033 817.822ZM34.5033 744.508C33.4335 744.233 32.3433 744.877 32.0683 745.947C30.8856 750.547 29.9353 755.2 29.2209 759.89C29.0545 760.982 29.8049 762.002 30.8969 762.169C31.9888 762.335 33.0089 761.585 33.1752 760.493C33.8695 755.935 34.7929 751.413 35.9422 746.943C36.2173 745.873 35.5731 744.783 34.5033 744.508ZM29.887 790.178C30.9902 790.122 31.8394 789.183 31.7837 788.08C31.6676 785.779 31.6094 783.474 31.6094 781.165C31.6094 778.857 31.6676 776.552 31.7837 774.251C31.8394 773.148 30.9902 772.208 29.887 772.153C28.7838 772.097 27.8444 772.946 27.7888 774.05C27.6693 776.417 27.6094 778.79 27.6094 781.165C27.6094 783.541 27.6693 785.913 27.7888 788.281C27.8444 789.384 28.7838 790.233 29.887 790.178ZM175.559 1211.63C175.414 1211.67 175.264 1211.68 175.109 1211.68C172.744 1211.68 170.382 1211.74 168.024 1211.85C166.921 1211.91 165.984 1211.05 165.931 1209.95C165.878 1208.85 166.73 1207.91 167.833 1207.86C170.105 1207.75 172.381 1207.69 174.66 1207.68C174.804 1207.65 174.955 1207.63 175.109 1207.63C177.475 1207.63 179.837 1207.58 182.195 1207.46C183.298 1207.41 184.235 1208.26 184.288 1209.37C184.341 1210.47 183.489 1211.41 182.386 1211.46C180.114 1211.57 177.838 1211.63 175.559 1211.63ZM196.3 1206.11C195.207 1206.27 194.449 1207.28 194.607 1208.38C194.764 1209.47 195.779 1210.23 196.872 1210.07C201.678 1209.38 206.446 1208.45 211.159 1207.3C212.232 1207.04 212.89 1205.96 212.628 1204.88C212.366 1203.81 211.284 1203.15 210.211 1203.42C205.622 1204.53 200.98 1205.43 196.3 1206.11ZM196.872 923.585C195.779 923.427 194.764 924.185 194.607 925.278C194.449 926.371 195.207 927.386 196.3 927.543C200.98 928.219 205.622 929.119 210.211 930.239C211.284 930.501 212.366 929.843 212.628 928.77C212.89 927.697 212.232 926.615 211.159 926.353C206.446 925.203 201.678 924.279 196.872 923.585ZM223.799 1199.4C222.756 1199.76 222.205 1200.9 222.569 1201.95C222.933 1202.99 224.073 1203.54 225.116 1203.18C227.406 1202.38 229.678 1201.52 231.93 1200.61C234.168 1199.71 236.381 1198.75 238.567 1197.75C239.571 1197.28 240.009 1196.1 239.547 1195.09C239.084 1194.09 237.896 1193.65 236.893 1194.11C234.765 1195.09 232.611 1196.02 230.432 1196.9C228.24 1197.79 226.028 1198.62 223.799 1199.4ZM225.116 930.478C224.073 930.115 222.933 930.665 222.569 931.708C222.205 932.751 222.756 933.892 223.799 934.255C226.028 935.033 228.24 935.864 230.432 936.75C232.611 937.63 234.765 938.56 236.893 939.541C237.896 940.003 239.084 939.565 239.547 938.562C240.009 937.559 239.571 936.371 238.567 935.908C236.381 934.901 234.168 933.945 231.93 933.041C229.678 932.131 227.406 931.277 225.116 930.478ZM249.374 1187.61C248.42 1188.17 248.099 1189.39 248.656 1190.35C249.212 1191.3 250.437 1191.62 251.391 1191.07C255.561 1188.63 259.605 1186 263.51 1183.18C264.405 1182.53 264.607 1181.28 263.96 1180.39C263.313 1179.49 262.063 1179.29 261.167 1179.94C257.368 1182.68 253.432 1185.24 249.374 1187.61ZM251.391 942.586C250.437 942.029 249.212 942.351 248.656 943.305C248.099 944.259 248.42 945.484 249.374 946.041C253.432 948.41 257.368 950.971 261.167 953.716C262.063 954.363 263.313 954.161 263.96 953.266C264.607 952.371 264.405 951.121 263.51 950.474C259.605 947.653 255.561 945.021 251.391 942.586ZM272.156 1171.15C271.328 1171.88 271.25 1173.15 271.981 1173.97C272.712 1174.8 273.976 1174.88 274.804 1174.15C276.61 1172.55 278.378 1170.91 280.106 1169.23C281.819 1167.56 283.488 1165.85 285.111 1164.1C285.864 1163.3 285.818 1162.03 285.009 1161.28C284.2 1160.53 282.935 1160.57 282.182 1161.38C280.603 1163.08 278.98 1164.74 277.313 1166.36C275.633 1168 273.913 1169.6 272.156 1171.15ZM274.804 959.505C273.976 958.773 272.712 958.852 271.981 959.68C271.25 960.507 271.328 961.771 272.156 962.503C273.913 964.055 275.633 965.651 277.313 967.289C278.98 968.914 280.603 970.576 282.182 972.274C282.935 973.083 284.2 973.129 285.009 972.376C285.818 971.624 285.864 970.359 285.111 969.55C283.488 967.804 281.819 966.095 280.106 964.425C278.378 962.741 276.61 961.1 274.804 959.505ZM291.157 1150.72C290.488 1151.6 290.658 1152.86 291.537 1153.53C292.416 1154.2 293.671 1154.03 294.34 1153.15C297.238 1149.34 299.942 1145.4 302.444 1141.33C303.023 1140.39 302.729 1139.16 301.789 1138.58C300.848 1138 299.616 1138.3 299.037 1139.24C296.605 1143.19 293.975 1147.02 291.157 1150.72ZM294.34 980.506C293.671 979.627 292.416 979.457 291.537 980.126C290.658 980.795 290.488 982.05 291.157 982.929C293.975 986.63 296.605 990.464 299.037 994.416C299.616 995.357 300.848 995.65 301.789 995.071C302.729 994.492 303.023 993.26 302.444 992.319C299.942 988.255 297.238 984.312 294.34 980.506ZM305.737 1127.03C305.254 1128.02 305.669 1129.22 306.663 1129.7C307.656 1130.18 308.853 1129.77 309.335 1128.77C310.378 1126.63 311.367 1124.45 312.302 1122.25C313.231 1120.06 314.104 1117.86 314.921 1115.63C315.301 1114.6 314.769 1113.45 313.733 1113.07C312.696 1112.68 311.546 1113.22 311.166 1114.25C310.372 1116.42 309.524 1118.56 308.62 1120.69C307.712 1122.82 306.75 1124.94 305.737 1127.03ZM309.335 1004.88C308.853 1003.89 307.656 1003.47 306.663 1003.95C305.669 1004.44 305.254 1005.63 305.737 1006.63C306.75 1008.72 307.712 1010.83 308.62 1012.97C309.524 1015.09 310.372 1017.24 311.166 1019.4C311.546 1020.44 312.696 1020.97 313.733 1020.59C314.769 1020.21 315.301 1019.06 314.921 1018.02C314.104 1015.8 313.231 1013.59 312.302 1011.4C311.367 1009.2 310.378 1007.03 309.335 1004.88ZM315.277 1101.05C315.001 1102.12 315.646 1103.21 316.715 1103.48C317.785 1103.76 318.875 1103.11 319.15 1102.05C320.333 1097.45 321.283 1092.79 321.998 1088.1C322.164 1087.01 321.414 1085.99 320.322 1085.82C319.23 1085.66 318.21 1086.41 318.044 1087.5C317.349 1092.06 316.426 1096.58 315.277 1101.05ZM319.15 1031.61C318.875 1030.54 317.785 1029.89 316.715 1030.17C315.646 1030.44 315.001 1031.54 315.277 1032.6C316.426 1037.07 317.349 1041.6 318.044 1046.15C318.21 1047.25 319.23 1048 320.322 1047.83C321.414 1047.66 322.164 1046.64 321.998 1045.55C321.283 1040.86 320.333 1036.21 319.15 1031.61ZM319.435 1073.74C319.379 1074.84 320.229 1075.78 321.332 1075.84C322.435 1075.9 323.374 1075.05 323.43 1073.94C323.549 1071.58 323.609 1069.2 323.609 1066.83C323.609 1064.45 323.549 1062.08 323.43 1059.71C323.374 1058.61 322.435 1057.76 321.332 1057.81C320.229 1057.87 319.379 1058.81 319.435 1059.91C319.551 1062.21 319.609 1064.52 319.609 1066.83C319.609 1069.14 319.551 1071.44 319.435 1073.74ZM175.109 1783.01C175.264 1783.01 175.415 1782.99 175.559 1782.96C177.838 1782.95 180.114 1782.89 182.386 1782.78C183.489 1782.73 184.341 1781.79 184.288 1780.69C184.235 1779.59 183.298 1778.73 182.195 1778.79C179.837 1778.9 177.475 1778.96 175.109 1778.96C174.955 1778.96 174.804 1778.97 174.659 1779.01C172.381 1779.01 170.105 1779.07 167.833 1779.18C166.73 1779.23 165.878 1780.17 165.931 1781.27C165.984 1782.38 166.921 1783.23 168.024 1783.18C170.382 1783.06 172.744 1783.01 175.109 1783.01ZM175.558 1493.35C175.414 1493.31 175.264 1493.29 175.109 1493.29C172.744 1493.29 170.382 1493.24 168.024 1493.13C166.921 1493.07 165.984 1493.92 165.931 1495.03C165.878 1496.13 166.73 1497.07 167.833 1497.12C170.105 1497.23 172.381 1497.29 174.66 1497.29C174.805 1497.33 174.955 1497.34 175.109 1497.34C177.475 1497.34 179.837 1497.4 182.195 1497.51C183.298 1497.57 184.235 1496.72 184.288 1495.61C184.341 1494.51 183.489 1493.57 182.386 1493.52C180.114 1493.41 177.837 1493.35 175.558 1493.35ZM194.607 1779.7C194.449 1778.61 195.207 1777.59 196.3 1777.43C200.98 1776.76 205.622 1775.86 210.211 1774.74C211.284 1774.48 212.366 1775.13 212.628 1776.21C212.89 1777.28 212.232 1778.36 211.159 1778.62C206.446 1779.77 201.678 1780.7 196.872 1781.39C195.779 1781.55 194.764 1780.79 194.607 1779.7ZM194.607 1496.6C194.764 1495.51 195.779 1494.75 196.872 1494.91C201.678 1495.6 206.446 1496.53 211.159 1497.68C212.232 1497.94 212.89 1499.02 212.628 1500.09C212.366 1501.17 211.284 1501.82 210.211 1501.56C205.622 1500.44 200.98 1499.54 196.3 1498.87C195.207 1498.71 194.449 1497.69 194.607 1496.6ZM222.569 1773.27C222.205 1772.23 222.756 1771.09 223.799 1770.72C226.028 1769.94 228.24 1769.11 230.432 1768.23C232.611 1767.35 234.765 1766.42 236.893 1765.44C237.896 1764.97 239.084 1765.41 239.547 1766.42C240.009 1767.42 239.571 1768.61 238.567 1769.07C236.381 1770.08 234.168 1771.03 231.93 1771.94C229.678 1772.85 227.406 1773.7 225.116 1774.5C224.073 1774.86 222.933 1774.31 222.569 1773.27ZM222.569 1503.03C222.933 1501.99 224.073 1501.44 225.116 1501.8C227.406 1502.6 229.678 1503.45 231.93 1504.36C234.168 1505.27 236.381 1506.22 238.567 1507.23C239.571 1507.69 240.009 1508.88 239.547 1509.89C239.084 1510.89 237.896 1511.33 236.893 1510.86C234.765 1509.88 232.611 1508.95 230.432 1508.07C228.24 1507.19 226.028 1506.36 223.799 1505.58C222.756 1505.21 222.205 1504.07 222.569 1503.03ZM248.656 1761.67C248.099 1760.72 248.42 1759.49 249.374 1758.94C253.432 1756.57 257.368 1754.01 261.167 1751.26C262.063 1750.61 263.313 1750.82 263.96 1751.71C264.607 1752.61 264.405 1753.86 263.51 1754.5C259.605 1757.32 255.561 1759.96 251.391 1762.39C250.437 1762.95 249.212 1762.63 248.656 1761.67ZM248.656 1514.63C249.212 1513.67 250.437 1513.35 251.391 1513.91C255.561 1516.34 259.605 1518.98 263.51 1521.8C264.405 1522.44 264.607 1523.69 263.96 1524.59C263.313 1525.48 262.063 1525.69 261.167 1525.04C257.368 1522.29 253.432 1519.73 249.374 1517.36C248.42 1516.81 248.099 1515.58 248.656 1514.63ZM271.981 1745.3C271.25 1744.47 271.328 1743.21 272.156 1742.47C273.913 1740.92 275.633 1739.33 277.313 1737.69C278.98 1736.06 280.603 1734.4 282.182 1732.7C282.935 1731.89 284.2 1731.85 285.009 1732.6C285.818 1733.35 285.864 1734.62 285.111 1735.43C283.488 1737.17 281.819 1738.88 280.106 1740.55C278.378 1742.24 276.61 1743.88 274.804 1745.47C273.976 1746.2 272.712 1746.13 271.981 1745.3ZM271.981 1531C272.712 1530.18 273.976 1530.1 274.804 1530.83C276.61 1532.42 278.378 1534.06 280.106 1535.75C281.819 1537.42 283.488 1539.13 285.111 1540.87C285.864 1541.68 285.818 1542.95 285.009 1543.7C284.2 1544.45 282.935 1544.41 282.182 1543.6C280.603 1541.9 278.98 1540.24 277.313 1538.61C275.633 1536.97 273.913 1535.38 272.156 1533.83C271.328 1533.09 271.25 1531.83 271.981 1531ZM291.537 1724.85C290.658 1724.18 290.488 1722.93 291.157 1722.05C293.975 1718.35 296.605 1714.51 299.037 1710.56C299.616 1709.62 300.848 1709.33 301.789 1709.91C302.729 1710.49 303.023 1711.72 302.444 1712.66C299.942 1716.72 297.238 1720.67 294.34 1724.47C293.671 1725.35 292.416 1725.52 291.537 1724.85ZM291.537 1551.45C292.416 1550.78 293.671 1550.95 294.34 1551.83C297.238 1555.64 299.942 1559.58 302.444 1563.64C303.023 1564.58 302.729 1565.82 301.789 1566.39C300.848 1566.97 299.616 1566.68 299.037 1565.74C296.605 1561.79 293.975 1557.95 291.157 1554.25C290.488 1553.37 290.658 1552.12 291.537 1551.45ZM306.663 1701.02C305.669 1700.54 305.254 1699.34 305.737 1698.35C306.75 1696.26 307.712 1694.15 308.62 1692.01C309.524 1689.88 310.372 1687.74 311.166 1685.58C311.546 1684.54 312.696 1684.01 313.733 1684.39C314.769 1684.77 315.301 1685.92 314.921 1686.96C314.104 1689.18 313.231 1691.39 312.302 1693.57C311.367 1695.77 310.378 1697.95 309.335 1700.1C308.853 1701.09 307.656 1701.51 306.663 1701.02ZM306.663 1575.28C307.656 1574.8 308.853 1575.21 309.335 1576.2C310.378 1578.35 311.367 1580.53 312.302 1582.73C313.231 1584.91 314.104 1587.12 314.921 1589.34C315.301 1590.38 314.769 1591.53 313.733 1591.91C312.696 1592.29 311.546 1591.76 311.166 1590.72C310.372 1588.56 309.524 1586.42 308.62 1584.29C307.712 1582.15 306.75 1580.04 305.737 1577.95C305.254 1576.96 305.669 1575.76 306.663 1575.28ZM316.715 1674.81C315.646 1674.53 315.001 1673.44 315.277 1672.37C316.426 1667.9 317.349 1663.38 318.044 1658.82C318.21 1657.73 319.23 1656.98 320.322 1657.15C321.414 1657.31 322.164 1658.33 321.998 1659.43C321.283 1664.12 320.333 1668.77 319.15 1673.37C318.875 1674.44 317.785 1675.08 316.715 1674.81ZM316.715 1601.49C317.785 1601.22 318.875 1601.86 319.15 1602.93C320.333 1607.53 321.283 1612.18 321.998 1616.88C322.164 1617.97 321.414 1618.99 320.322 1619.15C319.23 1619.32 318.21 1618.57 318.044 1617.48C317.349 1612.92 316.426 1608.4 315.277 1603.93C315.001 1602.86 315.646 1601.77 316.715 1601.49ZM321.332 1647.16C320.229 1647.11 319.379 1646.17 319.435 1645.06C319.551 1642.76 319.609 1640.46 319.609 1638.15C319.609 1635.84 319.551 1633.54 319.435 1631.24C319.379 1630.13 320.229 1629.19 321.332 1629.14C322.435 1629.08 323.374 1629.93 323.43 1631.03C323.549 1633.4 323.609 1635.77 323.609 1638.15C323.609 1640.53 323.549 1642.9 323.43 1645.27C323.374 1646.37 322.435 1647.22 321.332 1647.16ZM153.919 1491.77C155.012 1491.93 155.77 1492.94 155.612 1494.04C155.454 1495.13 154.44 1495.89 153.347 1495.73C148.541 1495.04 143.773 1494.11 139.059 1492.96C137.986 1492.7 137.329 1491.62 137.591 1490.55C137.852 1489.47 138.935 1488.82 140.008 1489.08C144.597 1490.2 149.239 1491.1 153.919 1491.77ZM153.347 1209.25C154.44 1209.09 155.454 1209.85 155.612 1210.94C155.77 1212.03 155.012 1213.05 153.919 1213.21C149.239 1213.88 144.596 1214.78 140.008 1215.9C138.935 1216.16 137.852 1215.5 137.591 1214.43C137.329 1213.36 137.986 1212.28 139.059 1212.01C143.773 1210.86 148.541 1209.94 153.347 1209.25ZM126.42 1485.06C127.463 1485.42 128.013 1486.56 127.65 1487.61C127.286 1488.65 126.146 1489.2 125.103 1488.84C122.813 1488.04 120.541 1487.18 118.289 1486.28C116.051 1485.37 113.837 1484.41 111.651 1483.41C110.648 1482.94 110.21 1481.76 110.672 1480.75C111.134 1479.75 112.322 1479.31 113.326 1479.77C115.453 1480.76 117.608 1481.69 119.787 1482.57C121.979 1483.45 124.191 1484.28 126.42 1485.06ZM125.103 1216.14C126.146 1215.78 127.286 1216.33 127.65 1217.37C128.013 1218.41 127.463 1219.55 126.42 1219.92C124.191 1220.69 121.979 1221.53 119.787 1222.41C117.608 1223.29 115.453 1224.22 113.326 1225.2C112.322 1225.67 111.134 1225.23 110.672 1224.22C110.21 1223.22 110.648 1222.03 111.651 1221.57C113.837 1220.56 116.051 1219.61 118.289 1218.7C120.541 1217.79 122.813 1216.94 125.103 1216.14ZM100.844 1473.28C101.798 1473.83 102.12 1475.06 101.563 1476.01C101.006 1476.96 99.7815 1477.29 98.8276 1476.73C94.6582 1474.3 90.6137 1471.66 86.7089 1468.84C85.8136 1468.2 85.6121 1466.94 86.2589 1466.05C86.9058 1465.15 88.156 1464.95 89.0513 1465.6C92.8508 1468.34 96.7866 1470.91 100.844 1473.28ZM98.8276 1228.25C99.7815 1227.69 101.006 1228.01 101.563 1228.97C102.12 1229.92 101.798 1231.15 100.844 1231.7C96.7866 1234.07 92.8508 1236.63 89.0513 1239.38C88.1559 1240.02 86.9057 1239.82 86.2589 1238.93C85.6121 1238.03 85.8135 1236.78 86.7089 1236.14C90.6137 1233.31 94.6582 1230.68 98.8276 1228.25ZM78.0629 1456.81C78.8907 1457.54 78.9691 1458.81 78.2378 1459.64C77.5066 1460.46 76.2427 1460.54 75.4148 1459.81C73.6083 1458.22 71.8404 1456.57 70.1131 1454.89C68.4001 1453.22 66.7311 1451.51 65.1073 1449.77C64.3551 1448.96 64.4009 1447.69 65.2098 1446.94C66.0186 1446.19 67.2841 1446.23 68.0363 1447.04C69.6157 1448.74 71.2391 1450.4 72.9054 1452.03C74.5857 1453.66 76.3054 1455.26 78.0629 1456.81ZM75.4148 1245.17C76.2427 1244.44 77.5066 1244.51 78.2378 1245.34C78.969 1246.17 78.8907 1247.43 78.0629 1248.16C76.3054 1249.72 74.5857 1251.31 72.9054 1252.95C71.2391 1254.58 69.6157 1256.24 68.0363 1257.94C67.2841 1258.74 66.0186 1258.79 65.2098 1258.04C64.4009 1257.29 64.355 1256.02 65.1073 1255.21C66.7311 1253.47 68.4001 1251.76 70.113 1250.09C71.8404 1248.4 73.6083 1246.76 75.4148 1245.17ZM59.0614 1436.39C59.7306 1437.27 59.5606 1438.52 58.6818 1439.19C57.8029 1439.86 56.5481 1439.69 55.8789 1438.81C52.981 1435 50.2764 1431.06 47.775 1427C47.1961 1426.06 47.4894 1424.82 48.4301 1424.24C49.3709 1423.67 50.6028 1423.96 51.1817 1424.9C53.6136 1428.85 56.2434 1432.69 59.0614 1436.39ZM55.8789 1266.17C56.548 1265.29 57.8029 1265.12 58.6817 1265.79C59.5606 1266.46 59.7306 1267.71 59.0614 1268.59C56.2434 1272.29 53.6136 1276.13 51.1817 1280.08C50.6028 1281.02 49.3709 1281.31 48.4301 1280.73C47.4894 1280.15 47.1961 1278.92 47.775 1277.98C50.2764 1273.92 52.981 1269.97 55.8789 1266.17ZM44.482 1412.69C44.9643 1413.68 44.5497 1414.88 43.556 1415.36C42.5623 1415.84 41.3658 1415.43 40.8835 1414.44C39.8409 1412.29 38.8516 1410.11 37.9168 1407.91C36.9876 1405.72 36.1145 1403.52 35.298 1401.29C34.9174 1400.26 35.4493 1399.11 36.4862 1398.73C37.5232 1398.35 38.6723 1398.88 39.053 1399.92C39.8466 1402.08 40.6951 1404.22 41.5983 1406.35C42.5069 1408.49 43.4685 1410.6 44.482 1412.69ZM40.8835 1290.54C41.3658 1289.55 42.5623 1289.13 43.556 1289.62C44.5497 1290.1 44.9643 1291.3 44.482 1292.29C43.4685 1294.38 42.5069 1296.49 41.5983 1298.63C40.6951 1300.76 39.8466 1302.9 39.053 1305.06C38.6723 1306.1 37.5232 1306.63 36.4862 1306.25C35.4493 1305.87 34.9174 1304.72 35.298 1303.68C36.1145 1301.46 36.9876 1299.25 37.9167 1297.07C38.8516 1294.87 39.8409 1292.69 40.8835 1290.54ZM34.9422 1386.71C35.2173 1387.78 34.5731 1388.87 33.5033 1389.15C32.4335 1389.42 31.3433 1388.78 31.0683 1387.71C29.8856 1383.11 28.9353 1378.45 28.2209 1373.76C28.0545 1372.67 28.8049 1371.65 29.8969 1371.49C30.9889 1371.32 32.0089 1372.07 32.1752 1373.16C32.8695 1377.72 33.7929 1382.24 34.9422 1386.71ZM31.0683 1317.27C31.3433 1316.2 32.4335 1315.56 33.5033 1315.83C34.5731 1316.11 35.2173 1317.2 34.9422 1318.27C33.7929 1322.74 32.8695 1327.26 32.1752 1331.82C32.0089 1332.91 30.9888 1333.66 29.8969 1333.49C28.8049 1333.33 28.0545 1332.31 28.2209 1331.21C28.9353 1326.52 29.8856 1321.87 31.0683 1317.27ZM30.7837 1359.4C30.8394 1360.51 29.9902 1361.45 28.887 1361.5C27.7838 1361.56 26.8444 1360.71 26.7888 1359.6C26.6693 1357.24 26.6094 1354.86 26.6094 1352.49C26.6094 1350.11 26.6693 1347.74 26.7888 1345.37C26.8444 1344.27 27.7838 1343.42 28.887 1343.48C29.9902 1343.53 30.8394 1344.47 30.7837 1345.57C30.6676 1347.88 30.6094 1350.18 30.6094 1352.49C30.6094 1354.8 30.6676 1357.1 30.7837 1359.4ZM177.109 2066.62C177.109 2065.51 176.214 2064.62 175.109 2064.62C172.744 2064.62 170.382 2064.56 168.024 2064.45C166.921 2064.4 165.984 2065.25 165.931 2066.35C165.878 2067.45 166.73 2068.39 167.833 2068.44C170.254 2068.56 172.68 2068.62 175.109 2068.62C175.482 2068.62 175.83 2068.52 176.129 2068.34C176.116 2068.43 176.109 2068.52 176.109 2068.62C176.109 2069.72 177.005 2070.62 178.109 2070.62C180.475 2070.62 182.837 2070.67 185.195 2070.79C186.298 2070.84 187.235 2069.99 187.288 2068.89C187.341 2067.78 186.489 2066.84 185.386 2066.79C182.965 2066.68 180.538 2066.62 178.109 2066.62C177.737 2066.62 177.389 2066.72 177.09 2066.9C177.103 2066.81 177.109 2066.71 177.109 2066.62ZM155.612 2065.36C155.77 2064.27 155.012 2063.25 153.919 2063.1C149.239 2062.42 144.597 2061.52 140.008 2060.4C138.935 2060.14 137.852 2060.8 137.591 2061.87C137.329 2062.94 137.986 2064.02 139.059 2064.29C143.773 2065.44 148.541 2066.36 153.347 2067.05C154.44 2067.21 155.454 2066.45 155.612 2065.36ZM155.612 1782.26C155.454 1781.17 154.44 1780.41 153.347 1780.57C148.541 1781.26 143.773 1782.19 139.059 1783.34C137.986 1783.6 137.329 1784.68 137.591 1785.76C137.852 1786.83 138.935 1787.49 140.008 1787.22C144.596 1786.1 149.239 1785.2 153.919 1784.53C155.012 1784.37 155.77 1783.36 155.612 1782.26ZM127.65 2058.93C128.013 2057.89 127.463 2056.75 126.42 2056.38C124.191 2055.61 121.979 2054.77 119.787 2053.89C117.608 2053.01 115.453 2052.08 113.326 2051.1C112.322 2050.64 111.134 2051.07 110.672 2052.08C110.21 2053.08 110.648 2054.27 111.651 2054.73C113.837 2055.74 116.051 2056.69 118.289 2057.6C120.541 2058.51 122.813 2059.36 125.103 2060.16C126.146 2060.52 127.286 2059.97 127.65 2058.93ZM127.65 1788.69C127.286 1787.65 126.146 1787.1 125.103 1787.46C122.813 1788.26 120.541 1789.12 118.289 1790.03C116.051 1790.93 113.837 1791.89 111.651 1792.89C110.648 1793.36 110.21 1794.54 110.672 1795.55C111.134 1796.55 112.322 1796.99 113.326 1796.53C115.453 1795.55 117.608 1794.61 119.787 1793.73C121.979 1792.85 124.191 1792.02 126.42 1791.24C127.463 1790.88 128.013 1789.74 127.65 1788.69ZM101.563 2047.33C102.12 2046.38 101.798 2045.16 100.844 2044.6C96.7866 2042.23 92.8508 2039.67 89.0513 2036.92C88.156 2036.28 86.9058 2036.48 86.2589 2037.37C85.6121 2038.27 85.8136 2039.52 86.7089 2040.17C90.6137 2042.99 94.6582 2045.62 98.8276 2048.05C99.7815 2048.61 101.006 2048.29 101.563 2047.33ZM101.563 1800.29C101.006 1799.34 99.7815 1799.01 98.8276 1799.57C94.6582 1802.01 90.6137 1804.64 86.7089 1807.46C85.8135 1808.11 85.6121 1809.36 86.2589 1810.25C86.9057 1811.15 88.1559 1811.35 89.0513 1810.7C92.8508 1807.96 96.7866 1805.39 100.844 1803.03C101.798 1802.47 102.12 1801.24 101.563 1800.29ZM78.2378 2030.96C78.9691 2030.13 78.8907 2028.87 78.0629 2028.14C76.3054 2026.58 74.5857 2024.99 72.9054 2023.35C71.2391 2021.73 69.6157 2020.06 68.0363 2018.37C67.2841 2017.56 66.0186 2017.51 65.2098 2018.26C64.4009 2019.01 64.3551 2020.28 65.1073 2021.09C66.7311 2022.84 68.4001 2024.54 70.1131 2026.21C71.8404 2027.9 73.6083 2029.54 75.4148 2031.13C76.2427 2031.87 77.5066 2031.79 78.2378 2030.96ZM78.2378 1816.66C77.5066 1815.84 76.2427 1815.76 75.4148 1816.49C73.6083 1818.09 71.8404 1819.73 70.113 1821.41C68.4001 1823.08 66.7311 1824.79 65.1073 1826.53C64.355 1827.34 64.4009 1828.61 65.2098 1829.36C66.0186 1830.11 67.2841 1830.07 68.0363 1829.26C69.6157 1827.56 71.2391 1825.9 72.9054 1824.27C74.5857 1822.64 76.3054 1821.04 78.0629 1819.49C78.8907 1818.76 78.969 1817.49 78.2378 1816.66ZM58.6818 2010.51C59.5606 2009.84 59.7306 2008.59 59.0614 2007.71C56.2434 2004.01 53.6136 2000.18 51.1817 1996.22C50.6028 1995.28 49.3709 1994.99 48.4301 1995.57C47.4894 1996.15 47.1961 1997.38 47.775 1998.32C50.2764 2002.38 52.981 2006.33 55.8789 2010.13C56.5481 2011.01 57.8029 2011.18 58.6818 2010.51ZM58.6817 1837.11C57.8029 1836.44 56.548 1836.61 55.8789 1837.49C52.981 1841.3 50.2764 1845.24 47.775 1849.3C47.1961 1850.25 47.4894 1851.48 48.4301 1852.06C49.3709 1852.64 50.6028 1852.34 51.1817 1851.4C53.6136 1847.45 56.2434 1843.62 59.0614 1839.91C59.7306 1839.04 59.5606 1837.78 58.6817 1837.11ZM43.556 1986.68C44.5497 1986.2 44.9643 1985.01 44.482 1984.01C43.4685 1981.92 42.5069 1979.81 41.5983 1977.67C40.6951 1975.55 39.8466 1973.4 39.053 1971.24C38.6723 1970.2 37.5232 1969.67 36.4862 1970.05C35.4493 1970.43 34.9174 1971.58 35.298 1972.62C36.1145 1974.84 36.9876 1977.05 37.9168 1979.24C38.8516 1981.44 39.8409 1983.61 40.8835 1985.76C41.3658 1986.75 42.5623 1987.17 43.556 1986.68ZM43.556 1860.94C42.5623 1860.46 41.3658 1860.87 40.8835 1861.87C39.8409 1864.01 38.8516 1866.19 37.9167 1868.39C36.9876 1870.58 36.1145 1872.78 35.298 1875.01C34.9174 1876.04 35.4493 1877.19 36.4862 1877.57C37.5232 1877.95 38.6723 1877.42 39.053 1876.39C39.8466 1874.22 40.6951 1872.08 41.5983 1869.95C42.5069 1867.81 43.4685 1865.7 44.482 1863.61C44.9643 1862.62 44.5497 1861.42 43.556 1860.94ZM33.5033 1960.47C34.5731 1960.19 35.2173 1959.1 34.9422 1958.03C33.7929 1953.56 32.8695 1949.04 32.1752 1944.48C32.0089 1943.39 30.9889 1942.64 29.8969 1942.81C28.8049 1942.98 28.0545 1944 28.2209 1945.09C28.9353 1949.78 29.8856 1954.43 31.0683 1959.03C31.3433 1960.1 32.4335 1960.74 33.5033 1960.47ZM33.5033 1887.16C32.4335 1886.88 31.3433 1887.52 31.0683 1888.59C29.8856 1893.19 28.9353 1897.85 28.2209 1902.54C28.0545 1903.63 28.8049 1904.65 29.8969 1904.82C30.9888 1904.98 32.0089 1904.23 32.1752 1903.14C32.8695 1898.58 33.7929 1894.06 34.9422 1889.59C35.2173 1888.52 34.5731 1887.43 33.5033 1887.16ZM28.887 1932.82C29.9902 1932.77 30.8394 1931.83 30.7837 1930.73C30.6676 1928.43 30.6094 1926.12 30.6094 1923.81C30.6094 1921.5 30.6676 1919.2 30.7837 1916.9C30.8394 1915.79 29.9902 1914.86 28.887 1914.8C27.7838 1914.74 26.8444 1915.59 26.7888 1916.7C26.6693 1919.06 26.6094 1921.44 26.6094 1923.81C26.6094 1926.19 26.6693 1928.56 26.7888 1930.93C26.8444 1932.03 27.7838 1932.88 28.887 1932.82ZM178.109 2352.23C177.005 2352.23 176.109 2353.12 176.109 2354.23C176.109 2355.33 177.005 2356.23 178.109 2356.23C180.538 2356.23 182.965 2356.17 185.386 2356.06C186.489 2356 187.341 2355.07 187.288 2353.96C187.235 2352.86 186.298 2352.01 185.195 2352.06C182.837 2352.17 180.475 2352.23 178.109 2352.23ZM199.3 2350.71C198.207 2350.87 197.449 2351.88 197.607 2352.97C197.764 2354.07 198.779 2354.82 199.872 2354.67C204.678 2353.97 209.446 2353.05 214.159 2351.9C215.232 2351.64 215.89 2350.55 215.628 2349.48C215.366 2348.41 214.284 2347.75 213.211 2348.01C208.622 2349.13 203.98 2350.03 199.3 2350.71ZM199.872 2068.18C198.779 2068.02 197.764 2068.78 197.607 2069.87C197.449 2070.97 198.207 2071.98 199.3 2072.14C203.98 2072.82 208.622 2073.72 213.211 2074.84C214.284 2075.1 215.366 2074.44 215.628 2073.37C215.89 2072.29 215.232 2071.21 214.159 2070.95C209.446 2069.8 204.678 2068.88 199.872 2068.18ZM226.799 2344C225.756 2344.36 225.205 2345.5 225.569 2346.54C225.933 2347.59 227.073 2348.14 228.116 2347.77C230.406 2346.97 232.678 2346.12 234.93 2345.21C237.168 2344.31 239.381 2343.35 241.567 2342.34C242.571 2341.88 243.009 2340.69 242.547 2339.69C242.084 2338.69 240.896 2338.25 239.893 2338.71C237.765 2339.69 235.611 2340.62 233.432 2341.5C231.24 2342.39 229.028 2343.22 226.799 2344ZM228.116 2075.08C227.073 2074.71 225.933 2075.26 225.569 2076.3C225.205 2077.35 225.756 2078.49 226.799 2078.85C229.028 2079.63 231.24 2080.46 233.432 2081.35C235.611 2082.23 237.765 2083.16 239.893 2084.14C240.896 2084.6 242.084 2084.16 242.547 2083.16C243.009 2082.16 242.571 2080.97 241.567 2080.51C239.381 2079.5 237.168 2078.54 234.93 2077.64C232.678 2076.73 230.406 2075.87 228.116 2075.08ZM252.374 2332.21C251.42 2332.77 251.099 2333.99 251.656 2334.95C252.212 2335.9 253.437 2336.22 254.391 2335.66C258.561 2333.23 262.605 2330.6 266.51 2327.78C267.405 2327.13 267.607 2325.88 266.96 2324.98C266.313 2324.09 265.063 2323.89 264.167 2324.53C260.368 2327.28 256.432 2329.84 252.374 2332.21ZM254.391 2087.18C253.437 2086.63 252.212 2086.95 251.656 2087.9C251.099 2088.86 251.42 2090.08 252.374 2090.64C256.432 2093.01 260.368 2095.57 264.167 2098.31C265.063 2098.96 266.313 2098.76 266.96 2097.86C267.607 2096.97 267.405 2095.72 266.51 2095.07C262.605 2092.25 258.561 2089.62 254.391 2087.18ZM275.156 2315.75C274.328 2316.48 274.25 2317.74 274.981 2318.57C275.712 2319.4 276.976 2319.48 277.804 2318.75C279.61 2317.15 281.378 2315.51 283.106 2313.83C284.819 2312.16 286.488 2310.45 288.111 2308.7C288.864 2307.89 288.818 2306.63 288.009 2305.87C287.2 2305.12 285.935 2305.17 285.182 2305.98C283.603 2307.68 281.98 2309.34 280.313 2310.96C278.633 2312.6 276.913 2314.2 275.156 2315.75ZM277.804 2104.1C276.976 2103.37 275.712 2103.45 274.981 2104.28C274.25 2105.1 274.328 2106.37 275.156 2107.1C276.913 2108.65 278.633 2110.25 280.313 2111.89C281.98 2113.51 283.603 2115.17 285.182 2116.87C285.935 2117.68 287.2 2117.73 288.009 2116.97C288.818 2116.22 288.864 2114.96 288.111 2114.15C286.488 2112.4 284.819 2110.69 283.106 2109.02C281.378 2107.34 279.61 2105.7 277.804 2104.1ZM294.157 2295.32C293.488 2296.2 293.658 2297.46 294.537 2298.12C295.416 2298.79 296.671 2298.62 297.34 2297.74C300.238 2293.94 302.942 2290 305.444 2285.93C306.023 2284.99 305.729 2283.76 304.789 2283.18C303.848 2282.6 302.616 2282.89 302.037 2283.83C299.605 2287.79 296.975 2291.62 294.157 2295.32ZM297.34 2125.1C296.671 2124.22 295.416 2124.05 294.537 2124.72C293.658 2125.39 293.488 2126.65 294.157 2127.53C296.975 2131.23 299.605 2135.06 302.037 2139.01C302.616 2139.95 303.848 2140.25 304.789 2139.67C305.729 2139.09 306.023 2137.86 305.444 2136.92C302.942 2132.85 300.238 2128.91 297.34 2125.1ZM308.737 2271.62C308.254 2272.62 308.669 2273.81 309.663 2274.3C310.656 2274.78 311.853 2274.36 312.335 2273.37C313.378 2271.22 314.367 2269.05 315.302 2266.85C316.231 2264.66 317.104 2262.45 317.921 2260.23C318.301 2259.19 317.769 2258.04 316.733 2257.66C315.696 2257.28 314.546 2257.81 314.166 2258.85C313.372 2261.01 312.524 2263.16 311.62 2265.28C310.712 2267.42 309.75 2269.54 308.737 2271.62ZM312.335 2149.48C311.853 2148.48 310.656 2148.07 309.663 2148.55C308.669 2149.03 308.254 2150.23 308.737 2151.22C309.75 2153.31 310.712 2155.43 311.62 2157.56C312.524 2159.69 313.372 2161.84 314.166 2164C314.546 2165.03 315.696 2165.57 316.733 2165.19C317.769 2164.8 318.301 2163.66 317.921 2162.62C317.104 2160.39 316.231 2158.19 315.302 2156C314.367 2153.8 313.378 2151.63 312.335 2149.48ZM318.277 2245.65C318.001 2246.72 318.646 2247.81 319.715 2248.08C320.785 2248.36 321.875 2247.71 322.15 2246.64C323.333 2242.04 324.283 2237.39 324.998 2232.7C325.164 2231.61 324.414 2230.59 323.322 2230.42C322.23 2230.25 321.21 2231 321.044 2232.1C320.349 2236.65 319.426 2241.18 318.277 2245.65ZM322.15 2176.21C321.875 2175.14 320.785 2174.49 319.715 2174.77C318.646 2175.04 318.001 2176.13 318.277 2177.2C319.426 2181.67 320.349 2186.19 321.044 2190.75C321.21 2191.84 322.23 2192.59 323.322 2192.43C324.414 2192.26 325.164 2191.24 324.998 2190.15C324.283 2185.46 323.333 2180.8 322.15 2176.21ZM322.435 2218.34C322.379 2219.44 323.229 2220.38 324.332 2220.44C325.435 2220.49 326.374 2219.64 326.43 2218.54C326.549 2216.17 326.609 2213.8 326.609 2211.42C326.609 2209.05 326.549 2206.68 326.43 2204.31C326.374 2203.2 325.435 2202.36 324.332 2202.41C323.229 2202.47 322.379 2203.41 322.435 2204.51C322.551 2206.81 322.609 2209.12 322.609 2211.42C322.609 2213.73 322.551 2216.04 322.435 2218.34Z" fill="#53A42A"/>
<circle cx="30" cy="30" r="30" transform="matrix(0 1 1 0 0.609375 158)" fill="url(#paint1_linear_5_387)"/>
<path d="M39.5943 181.446C39.5681 181.666 39.5062 181.883 39.4098 182.092L32.6607 196.707C32.2963 197.493 31.4951 198 30.6102 198C29.7254 198 28.9228 197.493 28.5568 196.707L21.8078 182.092C21.4223 181.257 21.609 180.277 22.2764 179.634C22.9439 178.991 23.9525 178.818 24.8073 179.203L30.6102 181.823L36.4131 179.203C36.7161 179.065 37.0398 179 37.3593 179C37.9397 179 38.5107 179.219 38.9411 179.634C39.4417 180.116 39.6729 180.788 39.5943 181.446Z" fill="url(#paint2_linear_5_387)"/>
<circle cx="30" cy="30" r="30" transform="matrix(1 0 0 -1 95 370)" fill="url(#paint3_linear_5_387)"/>
<path d="M118.446 331.015C118.666 331.041 118.883 331.103 119.092 331.2L133.707 337.949C134.493 338.313 135 339.114 135 339.999C135 340.884 134.493 341.687 133.707 342.053L119.092 348.802C118.257 349.187 117.277 349 116.634 348.333C115.991 347.666 115.818 346.657 116.203 345.802L118.823 339.999L116.203 334.196C116.065 333.893 116 333.57 116 333.25C116 332.67 116.219 332.099 116.634 331.668C117.116 331.168 117.788 330.936 118.446 331.015Z" fill="url(#paint4_linear_5_387)"/>
<circle cx="30" cy="30" r="30" transform="matrix(0 1 1 0 291.609 462)" fill="url(#paint5_linear_5_387)"/>
<path d="M330.594 485.446C330.568 485.666 330.506 485.883 330.41 486.092L323.661 500.707C323.296 501.493 322.495 502 321.61 502C320.725 502 319.923 501.493 319.557 500.707L312.808 486.092C312.422 485.257 312.609 484.277 313.276 483.634C313.944 482.991 314.952 482.818 315.807 483.203L321.61 485.823L327.413 483.203C327.716 483.065 328.04 483 328.359 483C328.94 483 329.511 483.219 329.941 483.634C330.442 484.116 330.673 484.788 330.594 485.446Z" fill="url(#paint6_linear_5_387)"/>
<circle cx="30" cy="30" r="30" transform="matrix(-1 0 0 1 165 614)" fill="url(#paint7_linear_5_387)"/>
<path d="M141.554 652.985C141.334 652.959 141.117 652.897 140.908 652.8L126.293 646.051C125.507 645.687 125 644.886 125 644.001C125 643.116 125.507 642.313 126.293 641.947L140.908 635.198C141.743 634.813 142.723 635 143.366 635.667C144.009 636.334 144.182 637.343 143.797 638.198L141.177 644.001L143.797 649.804C143.935 650.107 144 650.43 144 650.75C144 651.33 143.781 651.901 143.366 652.332C142.884 652.832 142.212 653.064 141.554 652.985Z" fill="url(#paint8_linear_5_387)"/>
<circle cx="30" cy="30" r="30" transform="matrix(1 0 0 -1 215.609 978)" fill="url(#paint9_linear_5_387)"/>
<path d="M239.056 939.015C239.275 939.041 239.492 939.103 239.701 939.2L254.316 945.949C255.103 946.313 255.609 947.114 255.609 947.999C255.609 948.884 255.103 949.687 254.316 950.053L239.701 956.802C238.866 957.187 237.886 957 237.243 956.333C236.6 955.666 236.428 954.657 236.812 953.802L239.433 947.999L236.812 942.196C236.675 941.893 236.609 941.57 236.609 941.25C236.609 940.67 236.828 940.099 237.243 939.668C237.725 939.168 238.398 938.936 239.056 939.015Z" fill="url(#paint10_linear_5_387)"/>
<circle cx="30" cy="30" r="30" transform="matrix(-1 0 0 1 96.6094 1222)" fill="url(#paint11_linear_5_387)"/>
<path d="M73.163 1260.98C72.9436 1260.96 72.7265 1260.9 72.5178 1260.8L57.9025 1254.05C57.1162 1253.69 56.6094 1252.89 56.6094 1252C56.6094 1251.12 57.1162 1250.31 57.9025 1249.95L72.5178 1243.2C73.3524 1242.81 74.3325 1243 74.9756 1243.67C75.6187 1244.33 75.791 1245.34 75.4066 1246.2L72.7862 1252L75.4066 1257.8C75.544 1258.11 75.6093 1258.43 75.6093 1258.75C75.6093 1259.33 75.3907 1259.9 74.9756 1260.33C74.4933 1260.83 73.821 1261.06 73.163 1260.98Z" fill="url(#paint12_linear_5_387)"/>
<circle cx="30" cy="30" r="30" transform="matrix(-1 0 0 1 77.6094 1830)" fill="url(#paint13_linear_5_387)"/>
<path d="M54.163 1868.98C53.9436 1868.96 53.7265 1868.9 53.5178 1868.8L38.9025 1862.05C38.1162 1861.69 37.6094 1860.89 37.6094 1860C37.6094 1859.12 38.1162 1858.31 38.9025 1857.95L53.5178 1851.2C54.3524 1850.81 55.3325 1851 55.9756 1851.67C56.6187 1852.33 56.791 1853.34 56.4066 1854.2L53.7862 1860L56.4066 1865.8C56.544 1866.11 56.6093 1866.43 56.6093 1866.75C56.6093 1867.33 56.3907 1867.9 55.9756 1868.33C55.4933 1868.83 54.821 1869.06 54.163 1868.98Z" fill="url(#paint14_linear_5_387)"/>
<circle cx="30" cy="30" r="30" transform="matrix(1 0 0 -1 263.609 1586)" fill="url(#paint15_linear_5_387)"/>
<path d="M287.056 1547.02C287.275 1547.04 287.492 1547.1 287.701 1547.2L302.316 1553.95C303.103 1554.31 303.609 1555.11 303.609 1556C303.609 1556.88 303.103 1557.69 302.316 1558.05L287.701 1564.8C286.866 1565.19 285.886 1565 285.243 1564.33C284.6 1563.67 284.428 1562.66 284.812 1561.8L287.433 1556L284.812 1550.2C284.675 1549.89 284.609 1549.57 284.609 1549.25C284.609 1548.67 284.828 1548.1 285.243 1547.67C285.725 1547.17 286.398 1546.94 287.056 1547.02Z" fill="url(#paint16_linear_5_387)"/>
<circle cx="30" cy="30" r="30" transform="matrix(1 0 0 -1 284 2194)" fill="url(#paint17_linear_5_387)"/>
<path d="M307.446 2155.02C307.666 2155.04 307.883 2155.1 308.092 2155.2L322.707 2161.95C323.493 2162.31 324 2163.11 324 2164C324 2164.88 323.493 2165.69 322.707 2166.05L308.092 2172.8C307.257 2173.19 306.277 2173 305.634 2172.33C304.991 2171.67 304.818 2170.66 305.203 2169.8L307.823 2164L305.203 2158.2C305.065 2157.89 305 2157.57 305 2157.25C305 2156.67 305.219 2156.1 305.634 2155.67C306.116 2155.17 306.788 2154.94 307.446 2155.02Z" fill="url(#paint18_linear_5_387)"/>
<circle cx="30" cy="30" r="30" transform="matrix(0 1 1 0 0.609375 766)" fill="url(#paint19_linear_5_387)"/>
<path d="M39.5943 789.446C39.5681 789.666 39.5062 789.883 39.4098 790.092L32.6607 804.707C32.2963 805.493 31.4951 806 30.6102 806C29.7254 806 28.9228 805.493 28.5568 804.707L21.8078 790.092C21.4223 789.257 21.609 788.277 22.2764 787.634C22.9439 786.991 23.9525 786.818 24.8073 787.203L30.6102 789.823L36.4131 787.203C36.7161 787.065 37.0398 787 37.3593 787C37.9397 787 38.5107 787.219 38.9411 787.634C39.4417 788.116 39.6729 788.788 39.5943 789.446Z" fill="url(#paint20_linear_5_387)"/>
<circle cx="30" cy="30" r="30" transform="matrix(0 1 1 0 288.609 1070)" fill="url(#paint21_linear_5_387)"/>
<path d="M327.594 1093.45C327.568 1093.67 327.506 1093.88 327.41 1094.09L320.661 1108.71C320.296 1109.49 319.495 1110 318.61 1110C317.725 1110 316.923 1109.49 316.557 1108.71L309.808 1094.09C309.422 1093.26 309.609 1092.28 310.276 1091.63C310.944 1090.99 311.952 1090.82 312.807 1091.2L318.61 1093.82L324.413 1091.2C324.716 1091.07 325.04 1091 325.359 1091C325.94 1091 326.511 1091.22 326.941 1091.63C327.442 1092.12 327.673 1092.79 327.594 1093.45Z" fill="url(#paint22_linear_5_387)"/>
<circle cx="30" cy="30" r="30" transform="matrix(0 1 1 0 6.60937 1374)" fill="url(#paint23_linear_5_387)"/>
<path d="M45.5943 1397.45C45.5681 1397.67 45.5062 1397.88 45.4098 1398.09L38.6607 1412.71C38.2963 1413.49 37.4951 1414 36.6102 1414C35.7254 1414 34.9228 1413.49 34.5568 1412.71L27.8078 1398.09C27.4223 1397.26 27.609 1396.28 28.2764 1395.63C28.9439 1394.99 29.9525 1394.82 30.8073 1395.2L36.6102 1397.82L42.4131 1395.2C42.7161 1395.07 43.0398 1395 43.3593 1395C43.9397 1395 44.5107 1395.22 44.9411 1395.63C45.4417 1396.12 45.6729 1396.79 45.5943 1397.45Z" fill="url(#paint24_linear_5_387)"/>
<circle cx="30" cy="30" r="30" transform="matrix(0 1 1 0 30 1982)" fill="url(#paint25_linear_5_387)"/>
<path d="M68.985 2005.45C68.9588 2005.67 68.8968 2005.88 68.8004 2006.09L62.0514 2020.71C61.6869 2021.49 60.8857 2022 60.0009 2022C59.116 2022 58.3134 2021.49 57.9474 2020.71L51.1984 2006.09C50.8129 2005.26 50.9997 2004.28 51.6671 2003.63C52.3345 2002.99 53.3431 2002.82 54.198 2003.2L60.0009 2005.82L65.8038 2003.2C66.1067 2003.07 66.4305 2003 66.7499 2003C67.3303 2003 67.9013 2003.22 68.3317 2003.63C68.8323 2004.12 69.0636 2004.79 68.985 2005.45Z" fill="url(#paint26_linear_5_387)"/>
<circle cx="30" cy="30" r="30" transform="matrix(0 1 1 0 269.609 1678)" fill="url(#paint27_linear_5_387)"/>
<path d="M308.594 1701.45C308.568 1701.67 308.506 1701.88 308.41 1702.09L301.661 1716.71C301.296 1717.49 300.495 1718 299.61 1718C298.725 1718 297.923 1717.49 297.557 1716.71L290.808 1702.09C290.422 1701.26 290.609 1700.28 291.276 1699.63C291.944 1698.99 292.952 1698.82 293.807 1699.2L299.61 1701.82L305.413 1699.2C305.716 1699.07 306.04 1699 306.359 1699C306.94 1699 307.511 1699.22 307.941 1699.63C308.442 1700.12 308.673 1700.79 308.594 1701.45Z" fill="url(#paint28_linear_5_387)"/>
<path d="M196.333 2310.1C196.896 2306.84 196.596 2303.48 195.462 2300.37C194.329 2297.27 192.403 2294.52 189.881 2292.41C186.236 2288.88 181.371 2286.94 176.329 2287C171.287 2287.07 166.471 2289.13 162.915 2292.75C160.364 2295.09 158.482 2298.09 157.465 2301.43C156.449 2304.76 156.336 2308.32 157.137 2311.71C160.749 2327.31 169.32 2340.96 176.735 2355C184.054 2340.57 192.914 2326.29 196.333 2310.1ZM180.684 2295.87C190.314 2298.84 191.807 2316.05 180.684 2318.49C172.401 2321.95 161.423 2313.61 164.697 2304.74C166.142 2296.7 173.557 2294.31 180.684 2295.87Z" fill="url(#paint29_linear_5_387)"/>
<defs>
<linearGradient id="paint0_linear_5_387" x1="195.65" y1="29.1926" x2="157.128" y2="29.1926" gradientUnits="userSpaceOnUse">
<stop stop-color="#92D65E"/>
<stop offset="1" stop-color="#5DB14C"/>
</linearGradient>
<linearGradient id="paint1_linear_5_387" x1="8.5" y1="11.5" x2="46" y2="55" gradientUnits="userSpaceOnUse">
<stop stop-color="#ECFFE4"/>
<stop offset="1" stop-color="#CDF5BB"/>
</linearGradient>
<linearGradient id="paint2_linear_5_387" x1="31.8819" y1="197.544" x2="31.8819" y2="179.247" gradientUnits="userSpaceOnUse">
<stop stop-color="#92D65E"/>
<stop offset="1" stop-color="#5DB14C"/>
</linearGradient>
<linearGradient id="paint3_linear_5_387" x1="8.5" y1="11.5" x2="46" y2="55" gradientUnits="userSpaceOnUse">
<stop stop-color="#ECFFE4"/>
<stop offset="1" stop-color="#CDF5BB"/>
</linearGradient>
<linearGradient id="paint4_linear_5_387" x1="134.544" y1="338.727" x2="116.247" y2="338.727" gradientUnits="userSpaceOnUse">
<stop stop-color="#92D65E"/>
<stop offset="1" stop-color="#5DB14C"/>
</linearGradient>
<linearGradient id="paint5_linear_5_387" x1="8.5" y1="11.5" x2="46" y2="55" gradientUnits="userSpaceOnUse">
<stop stop-color="#ECFFE4"/>
<stop offset="1" stop-color="#CDF5BB"/>
</linearGradient>
<linearGradient id="paint6_linear_5_387" x1="322.882" y1="501.544" x2="322.882" y2="483.247" gradientUnits="userSpaceOnUse">
<stop stop-color="#92D65E"/>
<stop offset="1" stop-color="#5DB14C"/>
</linearGradient>
<linearGradient id="paint7_linear_5_387" x1="8.5" y1="11.5" x2="46" y2="55" gradientUnits="userSpaceOnUse">
<stop stop-color="#ECFFE4"/>
<stop offset="1" stop-color="#CDF5BB"/>
</linearGradient>
<linearGradient id="paint8_linear_5_387" x1="125.456" y1="645.273" x2="143.753" y2="645.273" gradientUnits="userSpaceOnUse">
<stop stop-color="#92D65E"/>
<stop offset="1" stop-color="#5DB14C"/>
</linearGradient>
<linearGradient id="paint9_linear_5_387" x1="8.5" y1="11.5" x2="46" y2="55" gradientUnits="userSpaceOnUse">
<stop stop-color="#ECFFE4"/>
<stop offset="1" stop-color="#CDF5BB"/>
</linearGradient>
<linearGradient id="paint10_linear_5_387" x1="255.154" y1="946.727" x2="236.856" y2="946.727" gradientUnits="userSpaceOnUse">
<stop stop-color="#92D65E"/>
<stop offset="1" stop-color="#5DB14C"/>
</linearGradient>
<linearGradient id="paint11_linear_5_387" x1="8.5" y1="11.5" x2="46" y2="55" gradientUnits="userSpaceOnUse">
<stop stop-color="#ECFFE4"/>
<stop offset="1" stop-color="#CDF5BB"/>
</linearGradient>
<linearGradient id="paint12_linear_5_387" x1="57.065" y1="1253.27" x2="75.3628" y2="1253.27" gradientUnits="userSpaceOnUse">
<stop stop-color="#92D65E"/>
<stop offset="1" stop-color="#5DB14C"/>
</linearGradient>
<linearGradient id="paint13_linear_5_387" x1="8.5" y1="11.5" x2="46" y2="55" gradientUnits="userSpaceOnUse">
<stop stop-color="#ECFFE4"/>
<stop offset="1" stop-color="#CDF5BB"/>
</linearGradient>
<linearGradient id="paint14_linear_5_387" x1="38.065" y1="1861.27" x2="56.3628" y2="1861.27" gradientUnits="userSpaceOnUse">
<stop stop-color="#92D65E"/>
<stop offset="1" stop-color="#5DB14C"/>
</linearGradient>
<linearGradient id="paint15_linear_5_387" x1="8.5" y1="11.5" x2="46" y2="55" gradientUnits="userSpaceOnUse">
<stop stop-color="#ECFFE4"/>
<stop offset="1" stop-color="#CDF5BB"/>
</linearGradient>
<linearGradient id="paint16_linear_5_387" x1="303.154" y1="1554.73" x2="284.856" y2="1554.73" gradientUnits="userSpaceOnUse">
<stop stop-color="#92D65E"/>
<stop offset="1" stop-color="#5DB14C"/>
</linearGradient>
<linearGradient id="paint17_linear_5_387" x1="8.5" y1="11.5" x2="46" y2="55" gradientUnits="userSpaceOnUse">
<stop stop-color="#ECFFE4"/>
<stop offset="1" stop-color="#CDF5BB"/>
</linearGradient>
<linearGradient id="paint18_linear_5_387" x1="323.544" y1="2162.73" x2="305.247" y2="2162.73" gradientUnits="userSpaceOnUse">
<stop stop-color="#92D65E"/>
<stop offset="1" stop-color="#5DB14C"/>
</linearGradient>
<linearGradient id="paint19_linear_5_387" x1="8.5" y1="11.5" x2="46" y2="55" gradientUnits="userSpaceOnUse">
<stop stop-color="#ECFFE4"/>
<stop offset="1" stop-color="#CDF5BB"/>
</linearGradient>
<linearGradient id="paint20_linear_5_387" x1="31.8819" y1="805.544" x2="31.8819" y2="787.247" gradientUnits="userSpaceOnUse">
<stop stop-color="#92D65E"/>
<stop offset="1" stop-color="#5DB14C"/>
</linearGradient>
<linearGradient id="paint21_linear_5_387" x1="8.5" y1="11.5" x2="46" y2="55" gradientUnits="userSpaceOnUse">
<stop stop-color="#ECFFE4"/>
<stop offset="1" stop-color="#CDF5BB"/>
</linearGradient>
<linearGradient id="paint22_linear_5_387" x1="319.882" y1="1109.54" x2="319.882" y2="1091.25" gradientUnits="userSpaceOnUse">
<stop stop-color="#92D65E"/>
<stop offset="1" stop-color="#5DB14C"/>
</linearGradient>
<linearGradient id="paint23_linear_5_387" x1="8.5" y1="11.5" x2="46" y2="55" gradientUnits="userSpaceOnUse">
<stop stop-color="#ECFFE4"/>
<stop offset="1" stop-color="#CDF5BB"/>
</linearGradient>
<linearGradient id="paint24_linear_5_387" x1="37.8819" y1="1413.54" x2="37.8819" y2="1395.25" gradientUnits="userSpaceOnUse">
<stop stop-color="#92D65E"/>
<stop offset="1" stop-color="#5DB14C"/>
</linearGradient>
<linearGradient id="paint25_linear_5_387" x1="8.5" y1="11.5" x2="46" y2="55" gradientUnits="userSpaceOnUse">
<stop stop-color="#ECFFE4"/>
<stop offset="1" stop-color="#CDF5BB"/>
</linearGradient>
<linearGradient id="paint26_linear_5_387" x1="61.2726" y1="2021.54" x2="61.2726" y2="2003.25" gradientUnits="userSpaceOnUse">
<stop stop-color="#92D65E"/>
<stop offset="1" stop-color="#5DB14C"/>
</linearGradient>
<linearGradient id="paint27_linear_5_387" x1="8.5" y1="11.5" x2="46" y2="55" gradientUnits="userSpaceOnUse">
<stop stop-color="#ECFFE4"/>
<stop offset="1" stop-color="#CDF5BB"/>
</linearGradient>
<linearGradient id="paint28_linear_5_387" x1="300.882" y1="1717.54" x2="300.882" y2="1699.25" gradientUnits="userSpaceOnUse">
<stop stop-color="#92D65E"/>
<stop offset="1" stop-color="#5DB14C"/>
</linearGradient>
<linearGradient id="paint29_linear_5_387" x1="195.65" y1="2316.19" x2="157.128" y2="2316.19" gradientUnits="userSpaceOnUse">
<stop stop-color="#92D65E"/>
<stop offset="1" stop-color="#5DB14C"/>
</linearGradient>
</defs>
</svg>
