<svg width="81" height="80" viewBox="0 0 81 80" fill="none" xmlns="http://www.w3.org/2000/svg">
<rect x="0.5" width="80" height="80" rx="6" fill="#FFF2E2"/>
<path d="M54.2136 16.8573L51.3716 20.5533C55.8003 23.9647 58.668 29.308 58.668 35.3327H63.3346C63.3346 27.8007 59.7506 21.1227 54.2136 16.8573ZM25.789 16.8573L28.631 20.5533C24.2023 23.9647 21.3346 29.308 21.3346 35.3327H16.668C16.668 27.8007 20.252 21.1227 25.789 16.8573ZM43.5013 23.666H36.5013V20.166C36.5013 18.234 38.0693 16.666 40.0013 16.666C41.9333 16.666 43.5013 18.234 43.5013 20.166V23.666Z" fill="#FDA743"/>
<path d="M39.9987 54C38.761 54 37.574 54.4917 36.6989 55.3668C35.8237 56.242 35.332 57.429 35.332 58.6667C35.332 59.9043 35.8237 61.0913 36.6989 61.9665C37.574 62.8417 38.761 63.3333 39.9987 63.3333C41.2364 63.3333 42.4234 62.8417 43.2985 61.9665C44.1737 61.0913 44.6654 59.9043 44.6654 58.6667C44.6654 57.429 44.1737 56.242 43.2985 55.3668C42.4234 54.4917 41.2364 54 39.9987 54Z" fill="#FDA743"/>
<path fill-rule="evenodd" clip-rule="evenodd" d="M25.9987 35.334C25.9987 27.6013 32.266 21.334 39.9987 21.334C47.7314 21.334 53.9987 27.6013 53.9987 35.334V49.334L58.6654 54.0006V56.334H21.332V54.0006L25.9987 49.334V35.334ZM29 35.7692C29 29.8225 33.9258 25 40 25C46.0742 25 51 29.8225 51 35.7692V53H29V35.7692Z" fill="#FDA743"/>
<path opacity="0.3" d="M39.9987 23.666C33.5564 23.666 28.332 28.8903 28.332 35.3327V53.9994H51.6654V35.3327C51.6654 28.8903 46.441 23.666 39.9987 23.666Z" fill="#FDA743"/>
</svg>
