<svg width="80" height="80" viewBox="0 0 80 80" fill="none" xmlns="http://www.w3.org/2000/svg">
<rect width="80" height="80" rx="6" fill="#E8F4FF"/>
<g clip-path="url(#clip0_6576_3217)">
<path fill-rule="evenodd" clip-rule="evenodd" d="M31.3253 63.2333L16.7656 48.6737L19.5754 25.6847L36.9448 17H62.999V43.3096L61.5338 45.5073L60.1343 43.0075L60.4435 42.5436V19.5547H37.4545L22.1285 27.2177L19.5742 47.6523L32.3459 60.4239L38.6167 59.5281L37.0206 62.379L31.3253 63.2333Z" fill="#003366"/>
<path opacity="0.3" fill-rule="evenodd" clip-rule="evenodd" d="M22.1285 27.2177L37.4545 19.5547H60.4435V42.5436L60.1343 43.0075L56.4839 36.4873C55.374 34.5042 52.626 34.5042 51.5161 36.4873L38.6167 59.5281L32.3459 60.4239L19.5742 47.6523L22.1285 27.2177Z" fill="#003366"/>
<path d="M52.0683 43.4907L40.3083 64.4954C39.438 66.0494 40.5137 68.0001 42.2403 68.0001H65.7603C67.487 68.0001 68.5627 66.0494 67.6923 64.4954L55.9323 43.4907C55.069 41.9484 52.9317 41.9484 52.0683 43.4907ZM56.3453 65.6691H51.6553L51.667 61.0001H56.3337L56.3453 65.6691ZM51.667 58.6807V49.3334H56.3337V58.6784L51.667 58.6807Z" fill="#003366"/>
<circle cx="21" cy="27" r="6" fill="#E8F4FF" stroke="#003366" stroke-width="2"/>
<circle cx="61" cy="19" r="6" fill="#E8F4FF" stroke="#003366" stroke-width="2"/>
</g>
<defs>
<clipPath id="clip0_6576_3217">
<rect width="56" height="56" fill="white" transform="translate(12 12)"/>
</clipPath>
</defs>
</svg>
