<svg width="18" height="18" viewBox="0 0 18 18" fill="none" xmlns="http://www.w3.org/2000/svg">
<path d="M12.9264 1.12035C12.7803 1.12461 12.6416 1.18555 12.5397 1.29027L5.22719 8.60277C5.12174 8.70827 5.0625 8.85132 5.0625 9.00048C5.0625 9.14964 5.12174 9.29269 5.22719 9.39818L12.5397 16.7107C12.5915 16.7647 12.6536 16.8078 12.7223 16.8375C12.791 16.8671 12.8649 16.8828 12.9398 16.8836C13.0146 16.8844 13.0888 16.8702 13.1581 16.8419C13.2274 16.8136 13.2903 16.7718 13.3433 16.7189C13.3962 16.6659 13.438 16.603 13.4663 16.5337C13.4946 16.4644 13.5088 16.3902 13.508 16.3153C13.5072 16.2405 13.4916 16.1666 13.4619 16.0979C13.4322 16.0292 13.3891 15.9671 13.3351 15.9153L6.4203 9.00048L13.3351 2.08568C13.4162 2.00665 13.4716 1.90496 13.494 1.79392C13.5164 1.68288 13.5048 1.56766 13.4606 1.46335C13.4165 1.35904 13.3419 1.27049 13.2465 1.20929C13.1512 1.14809 13.0396 1.11709 12.9264 1.12035Z" fill="white" stroke="white" stroke-width="1.5" alt="back-arrow"/>
</svg>
