<svg width="73" height="79" viewBox="0 0 73 79" fill="none" xmlns="http://www.w3.org/2000/svg">
<path d="M68.7855 77.7945C68.5788 78.3166 68.0024 78.5771 67.498 78.3763C66.9936 78.1756 66.7523 77.5895 66.959 77.0674L68.7855 77.7945ZM40.9181 42.81L40.0084 42.4376L40.9181 42.81ZM0.587308 9.39018C0.173266 9.03573 0.125024 8.39757 0.479547 7.9648L6.25684 0.91249C6.61136 0.479724 7.2344 0.416244 7.64844 0.770695C8.06248 1.12515 8.11072 1.76331 7.7562 2.19608L2.62083 8.4648L8.6183 13.5992C9.03233 13.9536 9.08058 14.5918 8.72606 15.0245C8.37153 15.4573 7.74849 15.5208 7.33445 15.1663L0.587308 9.39018ZM66.0473 43.5534L66.774 42.8519L66.0473 43.5534ZM41.8278 43.1824C41.4919 44.0087 41.482 44.6364 41.6115 45.1021C41.7418 45.5706 42.042 45.9783 42.5042 46.3067C43.459 46.9849 45.0037 47.2385 46.452 46.8807L46.8741 48.8496C44.9849 49.3164 42.8459 49.0382 41.357 47.9805C40.5974 47.4409 39.9858 46.6798 39.7125 45.6973C39.4384 44.7121 39.5331 43.607 40.0084 42.4376L41.8278 43.1824ZM46.452 46.8807C47.6514 46.5843 48.75 45.7194 49.6933 44.3619C50.6362 43.005 51.377 41.2182 51.8602 39.2329C52.8333 35.2343 52.7007 30.6976 51.358 27.675L53.1571 26.8016C54.7347 30.3528 54.8209 35.3843 53.7747 39.6831C53.2482 41.8465 52.4199 43.8907 51.292 45.5139C50.1645 47.1365 48.6907 48.4008 46.8741 48.8496L46.452 46.8807ZM51.358 27.675C46.512 16.7664 34.2174 12.1744 22.775 10.374C17.0963 9.48052 11.7226 9.29034 7.76485 9.3245C5.78744 9.34157 4.16716 9.4146 3.0435 9.48313C2.48176 9.5174 2.04438 9.55053 1.74883 9.57496C1.60106 9.58717 1.48876 9.59719 1.41413 9.6041C1.37682 9.60756 1.34892 9.61023 1.33071 9.612C1.3216 9.61288 1.31492 9.61354 1.3107 9.61396C1.30858 9.61418 1.30709 9.61433 1.30621 9.61441C1.30577 9.61446 1.30557 9.61448 1.30535 9.6145C1.30531 9.6145 1.30542 9.61449 1.22923 8.60659C1.15303 7.59869 1.15345 7.59865 1.15404 7.59859C1.15444 7.59855 1.15518 7.59848 1.15599 7.59839C1.15759 7.59823 1.15982 7.59801 1.16267 7.59773C1.16836 7.59716 1.17652 7.59635 1.18712 7.59533C1.2083 7.59326 1.23922 7.59031 1.2796 7.58657C1.36036 7.5791 1.47897 7.56851 1.63323 7.55576C1.94175 7.53026 2.39298 7.49613 2.96937 7.46096C4.12201 7.39066 5.77617 7.31622 7.79141 7.29882C11.8189 7.26406 17.3033 7.45696 23.1157 8.3715C34.6554 10.1872 47.875 14.911 53.1571 26.8016L51.358 27.675ZM67.8723 77.4309C66.959 77.0674 66.959 77.0676 66.9589 77.0677C66.959 77.0677 66.9589 77.0677 66.959 77.0675C66.9591 77.0672 66.9594 77.0666 66.9597 77.0656C66.9605 77.0637 66.9618 77.0604 66.9636 77.0558C66.9672 77.0467 66.9728 77.0322 66.9803 77.0126C66.9955 76.9733 67.0183 76.9134 67.048 76.8339C67.1074 76.6749 67.1942 76.4375 67.3015 76.1297C67.5163 75.5138 67.813 74.617 68.137 73.5032C68.7858 71.273 69.5401 68.1852 69.9678 64.7476C70.8299 57.8176 70.3329 49.7387 65.3205 44.2549L66.774 42.8519C72.3936 49.0001 72.8091 57.86 71.9258 64.9608C71.4807 68.5385 70.6978 71.7391 70.0275 74.0435C69.692 75.1969 69.3837 76.1289 69.1584 76.7751C69.0457 77.0982 68.9536 77.3501 68.8892 77.5226C68.857 77.6089 68.8317 77.6753 68.8141 77.721C68.8053 77.7438 68.7985 77.7614 68.7937 77.7737C68.7913 77.7798 68.7894 77.7847 68.788 77.7881C68.7873 77.7899 68.7868 77.7913 68.7864 77.7923C68.7862 77.7928 68.7859 77.7934 68.7858 77.7936C68.7857 77.7941 68.7855 77.7945 67.8723 77.4309ZM65.3205 44.2549C61.7706 40.3711 56.5151 38.3856 51.7783 38.2869C46.9777 38.187 43.1221 39.998 41.8278 43.1824L40.0084 42.4376C41.7814 38.0756 46.7397 36.155 51.8615 36.2616C57.0472 36.3696 62.8226 38.5289 66.774 42.8519L65.3205 44.2549Z" fill="#53A42A"/>
</svg>
