<svg width="263" height="190" viewBox="0 0 263 190" fill="none" xmlns="http://www.w3.org/2000/svg">
<g filter="url(#filter0_d_6511_2052)">
<rect x="19" y="17" width="224.569" height="152" rx="9.8762" fill="white"/>
</g>
<path d="M49.5657 63.7389C50.2867 63.7389 50.8906 63.9177 51.3772 64.2753C51.8696 64.6329 52.2008 65.1195 52.3709 65.7351H51.5267C51.3801 65.3599 51.1339 65.0579 50.788 64.8293C50.448 64.6007 50.0435 64.4864 49.5745 64.4864C49.1524 64.4864 48.7742 64.586 48.4401 64.7853C48.1059 64.9788 47.8421 65.2573 47.6486 65.6207C47.461 65.9842 47.3672 66.4122 47.3672 66.9046C47.3672 67.4088 47.464 67.8455 47.6574 68.2149C47.8509 68.5784 48.1176 68.8598 48.4577 69.0591C48.8035 69.2525 49.1993 69.3493 49.6448 69.3493C50.0259 69.3493 50.3747 69.2672 50.6913 69.103C51.0078 68.9389 51.2658 68.7015 51.4651 68.3908C51.6703 68.0742 51.7934 67.7048 51.8344 67.2827H49.3986V66.6848H52.5115V67.4234C52.4588 67.9159 52.3064 68.3614 52.0543 68.7601C51.8022 69.1587 51.4622 69.4753 51.0342 69.7098C50.6062 69.9443 50.1197 70.0616 49.5745 70.0616C48.9765 70.0616 48.4489 69.9297 47.9916 69.6658C47.5343 69.3962 47.1767 69.0239 46.9188 68.549C46.6667 68.0683 46.5406 67.5202 46.5406 66.9046C46.5406 66.2891 46.6667 65.7439 46.9188 65.269C47.1767 64.7883 47.5343 64.4131 47.9916 64.1434C48.4489 63.8737 48.9736 63.7389 49.5657 63.7389ZM55.5746 65.1107C56.0436 65.1107 56.4393 65.228 56.7617 65.4625C57.09 65.697 57.3187 66.0106 57.4476 66.4034V65.1723H58.2479V70H57.4476V68.7689C57.3187 69.1617 57.09 69.4753 56.7617 69.7098C56.4393 69.9443 56.0436 70.0616 55.5746 70.0616C55.1466 70.0616 54.7656 69.9619 54.4314 69.7626C54.0972 69.5632 53.8334 69.2789 53.64 68.9096C53.4524 68.5344 53.3586 68.0947 53.3586 67.5905C53.3586 67.0864 53.4524 66.6467 53.64 66.2715C53.8334 65.8963 54.0972 65.609 54.4314 65.4097C54.7656 65.2104 55.1466 65.1107 55.5746 65.1107ZM55.8032 65.823C55.3108 65.823 54.915 65.9813 54.6161 66.2979C54.3229 66.6086 54.1764 67.0395 54.1764 67.5905C54.1764 68.1416 54.3229 68.5754 54.6161 68.892C54.915 69.2027 55.3108 69.3581 55.8032 69.3581C56.1198 69.3581 56.4012 69.2848 56.6474 69.1382C56.8995 68.9917 57.0959 68.7865 57.2366 68.5227C57.3773 68.253 57.4476 67.9423 57.4476 67.5905C57.4476 67.2388 57.3773 66.9281 57.2366 66.6584C57.0959 66.3887 56.8995 66.1835 56.6474 66.0428C56.4012 65.8963 56.1198 65.823 55.8032 65.823ZM60.3217 63.4927V70H59.5214V63.4927H60.3217ZM62.4084 63.4927V70H61.6082V63.4927H62.4084ZM65.8846 65.1107C66.3478 65.1107 66.7611 65.2104 67.1245 65.4097C67.4939 65.609 67.7811 65.8963 67.9863 66.2715C68.1974 66.6467 68.3029 67.0864 68.3029 67.5905C68.3029 68.0947 68.1974 68.5344 67.9863 68.9096C67.7811 69.2789 67.4939 69.5632 67.1245 69.7626C66.7611 69.9619 66.3478 70.0616 65.8846 70.0616C65.4215 70.0616 65.0053 69.9619 64.6359 69.7626C64.2725 69.5632 63.9852 69.2789 63.7741 68.9096C63.5631 68.5344 63.4576 68.0947 63.4576 67.5905C63.4576 67.0864 63.5631 66.6467 63.7741 66.2715C63.9852 65.8963 64.2725 65.609 64.6359 65.4097C65.0053 65.2104 65.4215 65.1107 65.8846 65.1107ZM65.8846 65.8142C65.5974 65.8142 65.3306 65.8787 65.0844 66.0077C64.844 66.1366 64.6477 66.336 64.4952 66.6056C64.3487 66.8694 64.2754 67.1977 64.2754 67.5905C64.2754 67.9774 64.3487 68.3057 64.4952 68.5754C64.6477 68.8392 64.844 69.0356 65.0844 69.1646C65.3306 69.2936 65.5974 69.3581 65.8846 69.3581C66.1719 69.3581 66.4357 69.2936 66.6761 69.1646C66.9223 69.0356 67.1187 68.8392 67.2652 68.5754C67.4177 68.3057 67.4939 67.9774 67.4939 67.5905C67.4939 67.1977 67.4177 66.8694 67.2652 66.6056C67.1187 66.336 66.9223 66.1366 66.6761 66.0077C66.4357 65.8787 66.1719 65.8142 65.8846 65.8142ZM71.887 65.0931C72.4498 65.0931 72.9042 65.2749 73.25 65.6383C73.5959 65.9959 73.7689 66.5148 73.7689 67.1948V70H72.9686V67.2652C72.9686 66.7844 72.8455 66.4151 72.5993 66.1572C72.3531 65.8992 72.0189 65.7702 71.5968 65.7702C71.1571 65.7702 70.8054 65.9139 70.5416 66.2011C70.2778 66.4825 70.1459 66.8958 70.1459 67.441V70H69.3456V65.1723H70.1459V66.3154C70.269 65.9227 70.4859 65.6207 70.7966 65.4097C71.1132 65.1986 71.4766 65.0931 71.887 65.0931ZM76.5088 65.1107C77.054 65.1107 77.4908 65.2543 77.8191 65.5416C78.1532 65.823 78.3555 66.2041 78.4258 66.6848H77.6608C77.6256 66.3975 77.5054 66.163 77.3002 65.9813C77.1009 65.7937 76.8312 65.6999 76.4912 65.6999C76.2039 65.6999 75.9782 65.7702 75.8141 65.9109C75.6558 66.0458 75.5767 66.2304 75.5767 66.4649C75.5767 66.6408 75.6294 66.7844 75.735 66.8958C75.8463 67.0013 75.9812 67.0834 76.1395 67.142C76.3036 67.1948 76.5264 67.2534 76.8078 67.3179C77.1654 67.4 77.4527 67.485 77.6696 67.5729C77.8923 67.655 78.0799 67.7899 78.2324 67.9774C78.3906 68.165 78.4698 68.4171 78.4698 68.7337C78.4698 69.1265 78.3203 69.446 78.0213 69.6922C77.7282 69.9384 77.3354 70.0616 76.843 70.0616C76.2684 70.0616 75.7994 69.9238 75.436 69.6483C75.0725 69.3727 74.8585 68.9887 74.794 68.4963H75.5679C75.5972 68.7894 75.7232 69.0268 75.946 69.2086C76.1746 69.3903 76.4736 69.4812 76.843 69.4812C77.1185 69.4812 77.3325 69.4108 77.4849 69.2701C77.6432 69.1294 77.7223 68.9448 77.7223 68.7161C77.7223 68.5285 77.6666 68.379 77.5552 68.2676C77.4439 68.1563 77.3061 68.0712 77.1419 68.0126C76.9778 67.954 76.7521 67.8924 76.4648 67.828C76.1072 67.7459 75.82 67.6638 75.603 67.5817C75.392 67.4997 75.2103 67.3707 75.0578 67.1948C74.9113 67.0131 74.838 66.7698 74.838 66.4649C74.838 66.0604 74.9875 65.7351 75.2865 65.4888C75.5855 65.2367 75.9929 65.1107 76.5088 65.1107ZM85.6338 68.3908C85.6338 68.6839 85.5634 68.9565 85.4227 69.2086C85.282 69.4607 85.068 69.6658 84.7808 69.8241C84.4935 69.9824 84.1388 70.0616 83.7167 70.0616C83.3064 70.0616 82.94 69.9883 82.6175 69.8417C82.301 69.6893 82.0459 69.4841 81.8525 69.2262C81.6649 68.9623 81.5564 68.6634 81.5271 68.3292H82.3801C82.3977 68.5051 82.4563 68.678 82.556 68.848C82.6615 69.0122 82.8081 69.1499 82.9957 69.2613C83.1891 69.3669 83.4207 69.4196 83.6904 69.4196C84.0421 69.4196 84.3118 69.3258 84.4994 69.1382C84.687 68.9506 84.7808 68.7103 84.7808 68.4171C84.7808 68.165 84.7134 67.9599 84.5785 67.8016C84.4495 67.6433 84.2883 67.5202 84.0949 67.4322C83.9014 67.3384 83.6376 67.2388 83.3034 67.1333C82.9106 67.0043 82.5941 66.8841 82.3537 66.7727C82.1192 66.6555 81.917 66.4825 81.747 66.2539C81.5828 66.0252 81.5007 65.7233 81.5007 65.3481C81.5007 65.0257 81.5769 64.7414 81.7294 64.4951C81.8876 64.2489 82.1104 64.0584 82.3977 63.9236C82.6908 63.7887 83.0338 63.7213 83.4265 63.7213C84.0362 63.7213 84.5199 63.8708 84.8775 64.1698C85.2351 64.4629 85.4432 64.8381 85.5019 65.2954H84.6401C84.5932 65.0491 84.4671 64.8322 84.2619 64.6446C84.0568 64.457 83.7783 64.3632 83.4265 64.3632C83.1041 64.3632 82.8462 64.4482 82.6527 64.6183C82.4592 64.7824 82.3625 65.0169 82.3625 65.3218C82.3625 65.5621 82.4241 65.7585 82.5472 65.9109C82.6762 66.0575 82.8344 66.1747 83.022 66.2627C83.2096 66.3448 83.4676 66.4386 83.7959 66.5441C84.1945 66.6731 84.514 66.7962 84.7544 66.9134C85.0006 67.0307 85.2087 67.2095 85.3787 67.4498C85.5488 67.6843 85.6338 67.998 85.6338 68.3908ZM89.3742 65.1107C89.8022 65.1107 90.1833 65.2104 90.5174 65.4097C90.8516 65.609 91.1125 65.8963 91.3001 66.2715C91.4935 66.6467 91.5903 67.0864 91.5903 67.5905C91.5903 68.0947 91.4935 68.5344 91.3001 68.9096C91.1125 69.2789 90.8516 69.5632 90.5174 69.7626C90.1833 69.9619 89.8022 70.0616 89.3742 70.0616C88.9053 70.0616 88.5066 69.9443 88.1783 69.7098C87.8559 69.4694 87.6331 69.1558 87.51 68.7689V72.2864H86.7098V65.1723H87.51V66.4034C87.6331 66.0165 87.8559 65.7057 88.1783 65.4712C88.5066 65.2309 88.9053 65.1107 89.3742 65.1107ZM89.1456 65.823C88.8349 65.823 88.5535 65.8963 88.3014 66.0428C88.0493 66.1835 87.8529 66.3887 87.7122 66.6584C87.5715 66.9281 87.5012 67.2388 87.5012 67.5905C87.5012 67.9423 87.5715 68.253 87.7122 68.5227C87.8529 68.7865 88.0493 68.9917 88.3014 69.1382C88.5535 69.2848 88.8349 69.3581 89.1456 69.3581C89.6439 69.3581 90.0396 69.2027 90.3328 68.892C90.6317 68.5754 90.7812 68.1416 90.7812 67.5905C90.7812 67.0395 90.6317 66.6086 90.3328 66.2979C90.0396 65.9813 89.6439 65.823 89.1456 65.823ZM97.076 67.3179C97.076 67.4879 97.0643 67.6345 97.0408 67.7576H93.1804C93.198 68.3087 93.3534 68.722 93.6465 68.9975C93.9455 69.2731 94.3089 69.4108 94.7369 69.4108C95.1238 69.4108 95.4463 69.3141 95.7042 69.1206C95.968 68.9213 96.1292 68.6575 96.1879 68.3292H97.0408C96.9822 68.6634 96.8503 68.9623 96.6451 69.2262C96.4458 69.49 96.1849 69.6952 95.8625 69.8417C95.5401 69.9883 95.1766 70.0616 94.7721 70.0616C94.3089 70.0616 93.8986 69.9619 93.541 69.7626C93.1833 69.5632 92.9019 69.2789 92.6968 68.9096C92.4974 68.5344 92.3978 68.0947 92.3978 67.5905C92.3978 67.0864 92.4974 66.6467 92.6968 66.2715C92.9019 65.8963 93.1833 65.609 93.541 65.4097C93.8986 65.2104 94.3089 65.1107 94.7721 65.1107C95.2411 65.1107 95.6485 65.2104 95.9944 65.4097C96.3461 65.609 96.6129 65.8758 96.7946 66.2099C96.9822 66.5441 97.076 66.9134 97.076 67.3179ZM96.267 67.3707C96.2846 67.0131 96.226 66.7141 96.0911 66.4737C95.9563 66.2334 95.7716 66.0546 95.5371 65.9373C95.3026 65.8201 95.0476 65.7614 94.7721 65.7614C94.3324 65.7614 93.963 65.8992 93.6641 66.1747C93.3651 66.4444 93.2039 66.8431 93.1804 67.3707H96.267ZM100.664 65.0931C101.227 65.0931 101.681 65.2749 102.027 65.6383C102.373 65.9959 102.546 66.5148 102.546 67.1948V70H101.746V67.2652C101.746 66.7844 101.623 66.4151 101.376 66.1572C101.13 65.8992 100.796 65.7702 100.374 65.7702C99.9342 65.7702 99.5824 65.9139 99.3186 66.2011C99.0548 66.4825 98.9229 66.8958 98.9229 67.441V70H98.1227V65.1723H98.9229V66.3154C99.046 65.9227 99.2629 65.6207 99.5736 65.4097C99.8902 65.1986 100.254 65.0931 100.664 65.0931ZM106.077 69.2965V70H105.479C104.987 70 104.618 69.8828 104.371 69.6483C104.131 69.4138 104.011 69.021 104.011 68.4699V65.867H103.29V65.1723H104.011V63.9675H104.82V65.1723H106.068V65.867H104.82V68.4875C104.82 68.7982 104.875 69.0122 104.987 69.1294C105.104 69.2408 105.303 69.2965 105.585 69.2965H106.077Z" fill="#5B5B5F"/>
<path d="M58.1351 95.0352H47.9578V92.7953L53.1551 87.4457C54.315 86.2134 54.8949 85.1985 54.8949 84.4012C54.8949 83.8068 54.7064 83.3283 54.3295 82.9659C53.967 82.6035 53.4958 82.4222 52.9159 82.4222C51.7561 82.4222 50.908 83.0166 50.3716 84.2055L47.849 82.7267C48.313 81.6974 48.9871 80.9073 49.8714 80.3563C50.7703 79.7909 51.7706 79.5082 52.8724 79.5082C54.2497 79.5082 55.4313 79.9432 56.4171 80.813C57.4029 81.6684 57.8959 82.8282 57.8959 84.2924C57.8959 85.8727 57.0622 87.4964 55.395 89.1636L52.4158 92.1429H58.1351V95.0352ZM58.844 81.2262L62.8454 79.8127H65.4549V95.0352H62.4539V82.9877L59.5834 83.7923L58.844 81.2262ZM78.5402 84.7926C78.5402 85.9669 78.2357 86.9962 77.6268 87.8806H77.6486L72.9078 95.0352H69.4719L72.8643 90.077C71.2841 90.0625 69.9938 89.5623 68.9935 88.5765C68.0076 87.5906 67.5147 86.3294 67.5147 84.7926C67.5147 83.2269 68.0221 81.9583 69.037 80.987C70.0663 80.0012 71.3928 79.5082 73.0166 79.5082C74.6403 79.5082 75.9668 80.0012 76.9962 80.987C78.0255 81.9728 78.5402 83.2414 78.5402 84.7926ZM70.494 84.7926C70.494 85.532 70.7332 86.1336 71.2116 86.5976C71.69 87.047 72.2917 87.2717 73.0166 87.2717C73.7704 87.2717 74.3793 87.047 74.8433 86.5976C75.3217 86.1336 75.5609 85.532 75.5609 84.7926C75.5609 84.0532 75.3217 83.4588 74.8433 83.0094C74.3793 82.56 73.7704 82.3353 73.0166 82.3353C72.2917 82.3353 71.69 82.5672 71.2116 83.0311C70.7332 83.4806 70.494 84.0677 70.494 84.7926Z" fill="#003366"/>
<path d="M88.8622 91.2259H92.7045V91.6869C92.7045 92.6896 92.3605 93.5239 91.6726 94.1899C90.9846 94.8485 90.0735 95.1779 88.9391 95.1779C87.7681 95.1779 86.7984 94.7936 86.03 94.0252C85.2689 93.2421 84.8883 92.298 84.8883 91.1929C84.8883 90.0878 85.2689 89.1474 86.03 88.3716C86.7984 87.5959 87.7608 87.208 88.9171 87.208C89.6197 87.208 90.2711 87.38 90.8712 87.724C91.4786 88.0679 91.936 88.5144 92.2434 89.0632L91.3652 89.5792C91.1456 89.162 90.8126 88.8291 90.3662 88.5802C89.9198 88.3241 89.4331 88.196 88.9062 88.196C88.0206 88.196 87.2997 88.4851 86.7435 89.0632C86.18 89.6414 85.8982 90.3513 85.8982 91.1929C85.8982 92.0346 86.18 92.7445 86.7435 93.3226C87.3144 93.8935 88.0499 94.1789 88.9501 94.1789C89.7039 94.1789 90.3186 93.9959 90.7943 93.63C91.2774 93.2568 91.5738 92.7628 91.6835 92.148H88.8622V91.2259ZM98.3919 90.4904V89.5463H99.347V95.0352H98.3919V94.0911C97.9235 94.8156 97.2319 95.1779 96.3171 95.1779C95.5413 95.1779 94.8863 94.8998 94.3521 94.3436C93.8105 93.78 93.5397 93.0957 93.5397 92.2907C93.5397 91.493 93.8105 90.8124 94.3521 90.2488C94.8937 89.6853 95.5487 89.4036 96.3171 89.4036C97.2319 89.4036 97.9235 89.7658 98.3919 90.4904ZM96.4379 94.2557C96.9941 94.2557 97.4588 94.0691 97.832 93.6959C98.2053 93.308 98.3919 92.8396 98.3919 92.2907C98.3919 91.7345 98.2053 91.2698 97.832 90.8965C97.4588 90.516 96.9941 90.3257 96.4379 90.3257C95.889 90.3257 95.4279 90.516 95.0547 90.8965C94.6814 91.2698 94.4948 91.7345 94.4948 92.2907C94.4948 92.8396 94.6814 93.308 95.0547 93.6959C95.4279 94.0691 95.889 94.2557 96.4379 94.2557ZM101.749 95.0352H100.794V87.0214H101.749V95.0352ZM103.81 95.1559C103.612 95.1559 103.444 95.0864 103.305 94.9473C103.166 94.8083 103.096 94.64 103.096 94.4424C103.096 94.2448 103.166 94.0764 103.305 93.9374C103.444 93.7983 103.612 93.7288 103.81 93.7288C104.015 93.7288 104.183 93.7983 104.315 93.9374C104.454 94.0764 104.523 94.2448 104.523 94.4424C104.523 94.64 104.454 94.8083 104.315 94.9473C104.183 95.0864 104.015 95.1559 103.81 95.1559Z" fill="#5B5B5F"/>
<path d="M155.266 64.4512V66.5705H157.623V67.186H155.266V69.3493H157.886V70H154.466V63.8004H157.886V64.4512H155.266ZM160.426 65.1107C160.972 65.1107 161.408 65.2543 161.737 65.5416C162.071 65.823 162.273 66.2041 162.343 66.6848H161.578C161.543 66.3975 161.423 66.163 161.218 65.9813C161.019 65.7937 160.749 65.6999 160.409 65.6999C160.122 65.6999 159.896 65.7702 159.732 65.9109C159.573 66.0458 159.494 66.2304 159.494 66.4649C159.494 66.6408 159.547 66.7844 159.653 66.8958C159.764 67.0013 159.899 67.0834 160.057 67.142C160.221 67.1948 160.444 67.2534 160.725 67.3179C161.083 67.4 161.37 67.485 161.587 67.5729C161.81 67.655 161.998 67.7899 162.15 67.9774C162.308 68.165 162.387 68.4171 162.387 68.7337C162.387 69.1265 162.238 69.446 161.939 69.6922C161.646 69.9384 161.253 70.0616 160.761 70.0616C160.186 70.0616 159.717 69.9238 159.354 69.6483C158.99 69.3727 158.776 68.9887 158.712 68.4963H159.486C159.515 68.7894 159.641 69.0268 159.864 69.2086C160.092 69.3903 160.391 69.4812 160.761 69.4812C161.036 69.4812 161.25 69.4108 161.403 69.2701C161.561 69.1294 161.64 68.9448 161.64 68.7161C161.64 68.5285 161.584 68.379 161.473 68.2676C161.362 68.1563 161.224 68.0712 161.06 68.0126C160.895 67.954 160.67 67.8924 160.382 67.828C160.025 67.7459 159.738 67.6638 159.521 67.5817C159.31 67.4997 159.128 67.3707 158.976 67.1948C158.829 67.0131 158.756 66.7698 158.756 66.4649C158.756 66.0604 158.905 65.7351 159.204 65.4888C159.503 65.2367 159.911 65.1107 160.426 65.1107ZM165.761 69.2965V70H165.163C164.67 70 164.301 69.8828 164.055 69.6483C163.814 69.4138 163.694 69.021 163.694 68.4699V65.867H162.973V65.1723H163.694V63.9675H164.503V65.1723H165.752V65.867H164.503V68.4875C164.503 68.7982 164.559 69.0122 164.67 69.1294C164.788 69.2408 164.987 69.2965 165.268 69.2965H165.761ZM166.597 63.7565C166.597 63.6099 166.646 63.4927 166.746 63.4047C166.846 63.3109 166.978 63.264 167.142 63.264C167.306 63.264 167.438 63.3109 167.537 63.4047C167.637 63.4927 167.687 63.6099 167.687 63.7565C167.687 63.903 167.637 64.0232 167.537 64.117C167.438 64.205 167.306 64.2489 167.142 64.2489C166.978 64.2489 166.846 64.205 166.746 64.117C166.646 64.0232 166.597 63.903 166.597 63.7565ZM167.537 65.1723V70H166.737V65.1723H167.537ZM174.76 65.0931C175.323 65.0931 175.774 65.2749 176.114 65.6383C176.46 65.9959 176.633 66.5148 176.633 67.1948V70H175.833V67.2652C175.833 66.7903 175.715 66.4268 175.481 66.1747C175.252 65.9227 174.936 65.7966 174.531 65.7966C174.109 65.7966 173.769 65.9373 173.511 66.2187C173.259 66.4942 173.133 66.9017 173.133 67.441V70H172.333V67.2652C172.333 66.7903 172.215 66.4268 171.981 66.1747C171.746 65.9227 171.43 65.7966 171.031 65.7966C170.603 65.7966 170.26 65.9373 170.002 66.2187C169.75 66.4942 169.624 66.9017 169.624 67.441V70H168.824V65.1723H169.624V66.2715C169.742 65.8904 169.95 65.6002 170.249 65.4009C170.553 65.1957 170.902 65.0931 171.295 65.0931C171.705 65.0931 172.06 65.1986 172.359 65.4097C172.664 65.6149 172.881 65.9197 173.01 66.3242C173.145 65.9314 173.37 65.6295 173.687 65.4185C174.004 65.2016 174.361 65.0931 174.76 65.0931ZM179.854 65.1107C180.323 65.1107 180.719 65.228 181.041 65.4625C181.369 65.697 181.598 66.0106 181.727 66.4034V65.1723H182.527V70H181.727V68.7689C181.598 69.1617 181.369 69.4753 181.041 69.7098C180.719 69.9443 180.323 70.0616 179.854 70.0616C179.426 70.0616 179.045 69.9619 178.711 69.7626C178.377 69.5632 178.113 69.2789 177.919 68.9096C177.732 68.5344 177.638 68.0947 177.638 67.5905C177.638 67.0864 177.732 66.6467 177.919 66.2715C178.113 65.8963 178.377 65.609 178.711 65.4097C179.045 65.2104 179.426 65.1107 179.854 65.1107ZM180.083 65.823C179.59 65.823 179.194 65.9813 178.895 66.2979C178.602 66.6086 178.456 67.0395 178.456 67.5905C178.456 68.1416 178.602 68.5754 178.895 68.892C179.194 69.2027 179.59 69.3581 180.083 69.3581C180.399 69.3581 180.681 69.2848 180.927 69.1382C181.179 68.9917 181.375 68.7865 181.516 68.5227C181.657 68.253 181.727 67.9423 181.727 67.5905C181.727 67.2388 181.657 66.9281 181.516 66.6584C181.375 66.3887 181.179 66.1835 180.927 66.0428C180.681 65.8963 180.399 65.823 180.083 65.823ZM186.105 69.2965V70H185.507C185.014 70 184.645 69.8828 184.399 69.6483C184.158 69.4138 184.038 69.021 184.038 68.4699V65.867H183.317V65.1723H184.038V63.9675H184.847V65.1723H186.096V65.867H184.847V68.4875C184.847 68.7982 184.903 69.0122 185.014 69.1294C185.132 69.2408 185.331 69.2965 185.612 69.2965H186.105ZM191.522 67.3179C191.522 67.4879 191.51 67.6345 191.487 67.7576H187.626C187.644 68.3087 187.799 68.722 188.093 68.9975C188.392 69.2731 188.755 69.4108 189.183 69.4108C189.57 69.4108 189.892 69.3141 190.15 69.1206C190.414 68.9213 190.575 68.6575 190.634 68.3292H191.487C191.428 68.6634 191.296 68.9623 191.091 69.2262C190.892 69.49 190.631 69.6952 190.309 69.8417C189.986 69.9883 189.623 70.0616 189.218 70.0616C188.755 70.0616 188.345 69.9619 187.987 69.7626C187.629 69.5632 187.348 69.2789 187.143 68.9096C186.943 68.5344 186.844 68.0947 186.844 67.5905C186.844 67.0864 186.943 66.6467 187.143 66.2715C187.348 65.8963 187.629 65.609 187.987 65.4097C188.345 65.2104 188.755 65.1107 189.218 65.1107C189.687 65.1107 190.095 65.2104 190.44 65.4097C190.792 65.609 191.059 65.8758 191.241 66.2099C191.428 66.5441 191.522 66.9134 191.522 67.3179ZM190.713 67.3707C190.731 67.0131 190.672 66.7141 190.537 66.4737C190.402 66.2334 190.218 66.0546 189.983 65.9373C189.749 65.8201 189.494 65.7614 189.218 65.7614C188.778 65.7614 188.409 65.8992 188.11 66.1747C187.811 66.4444 187.65 66.8431 187.626 67.3707H190.713ZM194.547 65.1107C195.016 65.1107 195.412 65.228 195.734 65.4625C196.063 65.697 196.291 66.0106 196.42 66.4034V63.4927H197.221V70H196.42V68.7689C196.291 69.1617 196.063 69.4753 195.734 69.7098C195.412 69.9443 195.016 70.0616 194.547 70.0616C194.119 70.0616 193.738 69.9619 193.404 69.7626C193.07 69.5632 192.806 69.2789 192.613 68.9096C192.425 68.5344 192.331 68.0947 192.331 67.5905C192.331 67.0864 192.425 66.6467 192.613 66.2715C192.806 65.8963 193.07 65.609 193.404 65.4097C193.738 65.2104 194.119 65.1107 194.547 65.1107ZM194.776 65.823C194.284 65.823 193.888 65.9813 193.589 66.2979C193.296 66.6086 193.149 67.0395 193.149 67.5905C193.149 68.1416 193.296 68.5754 193.589 68.892C193.888 69.2027 194.284 69.3581 194.776 69.3581C195.093 69.3581 195.374 69.2848 195.62 69.1382C195.872 68.9917 196.069 68.7865 196.209 68.5227C196.35 68.253 196.42 67.9423 196.42 67.5905C196.42 67.2388 196.35 66.9281 196.209 66.6584C196.069 66.3887 195.872 66.1835 195.62 66.0428C195.374 65.8963 195.093 65.823 194.776 65.823ZM203.41 63.7389C204.167 63.7389 204.791 63.9265 205.284 64.3017C205.776 64.671 206.116 65.1781 206.304 65.823H205.459C205.301 65.4126 205.046 65.0873 204.694 64.8469C204.343 64.6007 203.912 64.4776 203.402 64.4776C202.997 64.4776 202.634 64.5772 202.311 64.7765C201.995 64.97 201.743 65.2514 201.555 65.6207C201.373 65.9842 201.282 66.4122 201.282 66.9046C201.282 67.3912 201.373 67.8162 201.555 68.1797C201.743 68.5432 201.995 68.8246 202.311 69.0239C202.634 69.2174 202.997 69.3141 203.402 69.3141C203.912 69.3141 204.343 69.1939 204.694 68.9535C205.046 68.7073 205.301 68.379 205.459 67.9687H206.304C206.116 68.6135 205.776 69.1236 205.284 69.4988C204.791 69.8681 204.167 70.0528 203.41 70.0528C202.83 70.0528 202.317 69.9209 201.872 69.657C201.426 69.3874 201.077 69.0151 200.825 68.5402C200.579 68.0595 200.456 67.5143 200.456 66.9046C200.456 66.2891 200.579 65.7409 200.825 65.2602C201.077 64.7795 201.426 64.4072 201.872 64.1434C202.317 63.8737 202.83 63.7389 203.41 63.7389ZM209.563 65.1107C210.027 65.1107 210.44 65.2104 210.803 65.4097C211.173 65.609 211.46 65.8963 211.665 66.2715C211.876 66.6467 211.982 67.0864 211.982 67.5905C211.982 68.0947 211.876 68.5344 211.665 68.9096C211.46 69.2789 211.173 69.5632 210.803 69.7626C210.44 69.9619 210.027 70.0616 209.563 70.0616C209.1 70.0616 208.684 69.9619 208.315 69.7626C207.951 69.5632 207.664 69.2789 207.453 68.9096C207.242 68.5344 207.136 68.0947 207.136 67.5905C207.136 67.0864 207.242 66.6467 207.453 66.2715C207.664 65.8963 207.951 65.609 208.315 65.4097C208.684 65.2104 209.1 65.1107 209.563 65.1107ZM209.563 65.8142C209.276 65.8142 209.009 65.8787 208.763 66.0077C208.523 66.1366 208.326 66.336 208.174 66.6056C208.027 66.8694 207.954 67.1977 207.954 67.5905C207.954 67.9774 208.027 68.3057 208.174 68.5754C208.326 68.8392 208.523 69.0356 208.763 69.1646C209.009 69.2936 209.276 69.3581 209.563 69.3581C209.851 69.3581 210.114 69.2936 210.355 69.1646C210.601 69.0356 210.797 68.8392 210.944 68.5754C211.096 68.3057 211.173 67.9774 211.173 67.5905C211.173 67.1977 211.096 66.8694 210.944 66.6056C210.797 66.336 210.601 66.1366 210.355 66.0077C210.114 65.8787 209.851 65.8142 209.563 65.8142ZM214.537 65.1107C215.082 65.1107 215.519 65.2543 215.847 65.5416C216.181 65.823 216.384 66.2041 216.454 66.6848H215.689C215.654 66.3975 215.534 66.163 215.328 65.9813C215.129 65.7937 214.859 65.6999 214.519 65.6999C214.232 65.6999 214.006 65.7702 213.842 65.9109C213.684 66.0458 213.605 66.2304 213.605 66.4649C213.605 66.6408 213.658 66.7844 213.763 66.8958C213.874 67.0013 214.009 67.0834 214.168 67.142C214.332 67.1948 214.554 67.2534 214.836 67.3179C215.193 67.4 215.481 67.485 215.698 67.5729C215.92 67.655 216.108 67.7899 216.26 67.9774C216.419 68.165 216.498 68.4171 216.498 68.7337C216.498 69.1265 216.348 69.446 216.049 69.6922C215.756 69.9384 215.364 70.0616 214.871 70.0616C214.297 70.0616 213.828 69.9238 213.464 69.6483C213.101 69.3727 212.887 68.9887 212.822 68.4963H213.596C213.625 68.7894 213.751 69.0268 213.974 69.2086C214.203 69.3903 214.502 69.4812 214.871 69.4812C215.147 69.4812 215.361 69.4108 215.513 69.2701C215.671 69.1294 215.75 68.9448 215.75 68.7161C215.75 68.5285 215.695 68.379 215.583 68.2676C215.472 68.1563 215.334 68.0712 215.17 68.0126C215.006 67.954 214.78 67.8924 214.493 67.828C214.135 67.7459 213.848 67.6638 213.631 67.5817C213.42 67.4997 213.238 67.3707 213.086 67.1948C212.939 67.0131 212.866 66.7698 212.866 66.4649C212.866 66.0604 213.016 65.7351 213.315 65.4888C213.614 65.2367 214.021 65.1107 214.537 65.1107ZM219.871 69.2965V70H219.273C218.781 70 218.411 69.8828 218.165 69.6483C217.925 69.4138 217.805 69.021 217.805 68.4699V65.867H217.084V65.1723H217.805V63.9675H218.614V65.1723H219.862V65.867H218.614V68.4875C218.614 68.7982 218.669 69.0122 218.781 69.1294C218.898 69.2408 219.097 69.2965 219.379 69.2965H219.871Z" fill="#5B5B5F"/>
<path d="M161.437 90.7729C161.437 92.0197 161.038 93.049 160.241 93.8609C159.443 94.6582 158.378 95.1366 157.044 95.2961V97.2098H155.587V95.3179C154.369 95.2309 153.325 94.8902 152.455 94.2958C151.586 93.7014 150.962 92.8968 150.585 91.8819L153.173 90.3814C153.637 91.5557 154.442 92.2154 155.587 92.3604V88.5982H155.565L155.522 88.5765C154.637 88.2575 153.847 87.8806 153.151 87.4457C151.977 86.7063 151.346 85.532 151.259 83.9227C151.259 82.6325 151.673 81.6104 152.499 80.8565C153.369 80.0736 154.398 79.6315 155.587 79.53V77.638H157.044V79.5735C159.016 79.8199 160.407 80.842 161.219 82.6397L158.697 84.1185C158.349 83.2486 157.798 82.7194 157.044 82.531V86.1626C158.45 86.728 159.356 87.1557 159.762 87.4457C160.879 88.2575 161.437 89.3666 161.437 90.7729ZM154.239 83.9445C154.239 84.2634 154.34 84.5461 154.543 84.7926C154.746 85.0246 155.094 85.2638 155.587 85.5102V82.4657C154.688 82.6397 154.239 83.1326 154.239 83.9445ZM157.044 89.1854V92.3169C157.972 92.1284 158.436 91.621 158.436 90.7946C158.436 90.1422 157.972 89.6058 157.044 89.1854ZM166.5 85.358H168.066C169.544 85.358 170.777 85.8002 171.762 86.6845C172.763 87.5544 173.263 88.7722 173.263 90.3379C173.263 91.9037 172.734 93.1287 171.675 94.0131C170.646 94.8974 169.363 95.3396 167.826 95.3396C166.58 95.3396 165.485 95.0642 164.543 94.5132C163.615 93.9478 162.941 93.136 162.52 92.0776L165.086 90.5771C165.449 91.7949 166.362 92.4038 167.826 92.4038C168.595 92.4038 169.189 92.2226 169.61 91.8602C170.045 91.4832 170.262 90.9758 170.262 90.3379C170.262 89.7145 170.052 89.2144 169.631 88.8374C169.211 88.4605 168.638 88.272 167.913 88.272H163.303L163.912 79.8127H172.545V82.618H166.696L166.5 85.358ZM184.103 95.0352H173.925V92.7953L179.123 87.4457C180.283 86.2134 180.862 85.1985 180.862 84.4012C180.862 83.8068 180.674 83.3283 180.297 82.9659C179.935 82.6035 179.463 82.4222 178.884 82.4222C177.724 82.4222 176.876 83.0166 176.339 84.2055L173.817 82.7267C174.281 81.6974 174.955 80.9073 175.839 80.3563C176.738 79.7909 177.738 79.5082 178.84 79.5082C180.217 79.5082 181.399 79.9432 182.385 80.813C183.371 81.6684 183.864 82.8282 183.864 84.2924C183.864 85.8727 183.03 87.4964 181.363 89.1636L178.383 92.1429H184.103V95.0352ZM195.292 89.6638H196.923V92.4473H195.292V95.0352H192.27V92.4473H185.072V89.6638L190.139 79.8127H193.357L188.312 89.6638H192.27V86.0539H195.292V89.6638ZM201.992 93.4694C201.992 93.9768 201.811 94.4118 201.448 94.7742C201.086 95.1366 200.651 95.3179 200.144 95.3179C199.636 95.3179 199.201 95.1366 198.839 94.7742C198.476 94.4118 198.295 93.9768 198.295 93.4694C198.295 92.962 198.476 92.5271 198.839 92.1646C199.201 91.8022 199.636 91.621 200.144 91.621C200.651 91.621 201.086 91.8022 201.448 92.1646C201.811 92.5271 201.992 92.962 201.992 93.4694ZM203.331 82.6832V79.8127H213.16V82.357L208.007 95.0352H204.832L209.833 82.6832H203.331ZM221.536 79.8127L218.166 84.7491C219.746 84.7926 221.029 85.3073 222.015 86.2931C223 87.2789 223.493 88.5257 223.493 90.0335C223.493 91.5847 222.979 92.8605 221.949 93.8609C220.92 94.8467 219.594 95.3396 217.97 95.3396C216.346 95.3396 215.02 94.8467 213.99 93.8609C212.975 92.8895 212.468 91.6137 212.468 90.0335C212.468 88.8882 212.765 87.8661 213.36 86.9672L218.1 79.8127H221.536ZM220.514 90.0335C220.514 89.3086 220.275 88.7215 219.797 88.272C219.318 87.8081 218.709 87.5761 217.97 87.5761C217.23 87.5761 216.622 87.8009 216.143 88.2503C215.679 88.6997 215.447 89.2941 215.447 90.0335C215.447 90.7729 215.679 91.3745 216.143 91.8384C216.622 92.2879 217.23 92.5126 217.97 92.5126C218.709 92.5126 219.318 92.2879 219.797 91.8384C220.275 91.3745 220.514 90.7729 220.514 90.0335Z" fill="#53A42A"/>
<path d="M72.0783 121.578C70.047 121.578 68.3787 123.246 68.3787 125.278V129.314V145.175C68.1516 145.252 67.9596 145.408 67.837 145.615C67.7144 145.821 67.6693 146.064 67.7098 146.3C67.7503 146.537 67.8737 146.751 68.0579 146.905C68.2422 147.059 68.4751 147.142 68.715 147.139H69.2221C69.3305 147.157 69.441 147.157 69.5493 147.139H82.0026C82.111 147.157 82.2215 147.157 82.3298 147.139H82.8408C83.0807 147.142 83.3137 147.059 83.4979 146.905C83.6821 146.751 83.8056 146.537 83.8461 146.3C83.8866 146.064 83.8415 145.821 83.7189 145.615C83.5963 145.408 83.4042 145.252 83.1772 145.175V139.067H86.2041C86.4026 139.067 86.5405 139.205 86.5405 139.404V141.758C86.5405 143.603 88.0582 145.121 89.9037 145.121C91.7493 145.121 93.267 143.603 93.267 141.758V132.991C93.267 132.058 92.8351 131.174 92.0978 130.601L86.8229 126.5C86.6374 126.351 86.4052 126.272 86.1673 126.278C85.9581 126.283 85.7556 126.353 85.5881 126.479C85.4205 126.604 85.2961 126.779 85.2322 126.978C85.1682 127.177 85.1679 127.392 85.2311 127.591C85.2944 127.791 85.4182 127.966 85.5853 128.092L87.8858 129.881V133.013C87.8858 134.499 89.0905 135.704 90.5764 135.704H91.2491V141.758C91.2491 142.513 90.6587 143.103 89.9037 143.103C89.1488 143.103 88.5584 142.513 88.5584 141.758V139.404C88.5584 138.115 87.4922 137.049 86.2041 137.049H83.1772V129.314V125.278C83.1772 123.246 81.5088 121.578 79.4776 121.578H72.0783ZM72.0783 123.596H79.4776C80.4181 123.596 81.1592 124.337 81.1592 125.278V129.314C81.1592 130.254 80.4181 130.995 79.4776 130.995H72.0783C71.1378 130.995 70.3967 130.254 70.3967 129.314V125.278C70.3967 124.337 71.1378 123.596 72.0783 123.596Z" fill="#53A42A"/>
<path d="M109.919 121.606L107.378 126.424V129.361H106.366V126.424L103.814 121.606H104.98L106.883 125.357L108.775 121.606H109.919ZM113.668 123.245C114.247 123.245 114.764 123.37 115.219 123.619C115.681 123.869 116.04 124.228 116.297 124.697C116.561 125.167 116.693 125.717 116.693 126.347C116.693 126.978 116.561 127.528 116.297 127.997C116.04 128.459 115.681 128.815 115.219 129.064C114.764 129.314 114.247 129.438 113.668 129.438C113.089 129.438 112.568 129.314 112.106 129.064C111.651 128.815 111.292 128.459 111.028 127.997C110.764 127.528 110.632 126.978 110.632 126.347C110.632 125.717 110.764 125.167 111.028 124.697C111.292 124.228 111.651 123.869 112.106 123.619C112.568 123.37 113.089 123.245 113.668 123.245ZM113.668 124.125C113.309 124.125 112.975 124.206 112.667 124.367C112.366 124.529 112.121 124.778 111.93 125.115C111.747 125.445 111.655 125.856 111.655 126.347C111.655 126.831 111.747 127.242 111.93 127.579C112.121 127.909 112.366 128.155 112.667 128.316C112.975 128.478 113.309 128.558 113.668 128.558C114.027 128.558 114.357 128.478 114.658 128.316C114.966 128.155 115.212 127.909 115.395 127.579C115.586 127.242 115.681 126.831 115.681 126.347C115.681 125.856 115.586 125.445 115.395 125.115C115.212 124.778 114.966 124.529 114.658 124.367C114.357 124.206 114.027 124.125 113.668 124.125ZM123.365 123.322V129.361H122.364V127.942C122.21 128.434 121.935 128.811 121.539 129.075C121.151 129.332 120.696 129.46 120.175 129.46C119.479 129.46 118.914 129.237 118.481 128.789C118.049 128.335 117.832 127.686 117.832 126.842V123.322H118.833V126.743C118.833 127.345 118.987 127.81 119.295 128.14C119.603 128.463 120.021 128.624 120.549 128.624C121.099 128.624 121.539 128.448 121.869 128.096C122.199 127.737 122.364 127.216 122.364 126.534V123.322H123.365ZM125.97 124.543C126.168 124.125 126.458 123.803 126.839 123.575C127.22 123.341 127.675 123.223 128.203 123.223V124.312H127.895C127.33 124.312 126.868 124.459 126.509 124.752C126.15 125.038 125.97 125.515 125.97 126.182V129.361H124.969V123.322H125.97V124.543ZM134.79 128.481V129.361H134.042C133.426 129.361 132.964 129.215 132.656 128.921C132.356 128.628 132.205 128.137 132.205 127.447V124.191H131.303V123.322H132.205V121.815H133.217V123.322H134.779V124.191H133.217V127.469C133.217 127.858 133.287 128.126 133.426 128.272C133.573 128.412 133.822 128.481 134.174 128.481H134.79ZM138.751 123.245C139.33 123.245 139.847 123.37 140.302 123.619C140.764 123.869 141.123 124.228 141.38 124.697C141.644 125.167 141.776 125.717 141.776 126.347C141.776 126.978 141.644 127.528 141.38 127.997C141.123 128.459 140.764 128.815 140.302 129.064C139.847 129.314 139.33 129.438 138.751 129.438C138.172 129.438 137.651 129.314 137.189 129.064C136.734 128.815 136.375 128.459 136.111 127.997C135.847 127.528 135.715 126.978 135.715 126.347C135.715 125.717 135.847 125.167 136.111 124.697C136.375 124.228 136.734 123.869 137.189 123.619C137.651 123.37 138.172 123.245 138.751 123.245ZM138.751 124.125C138.392 124.125 138.058 124.206 137.75 124.367C137.449 124.529 137.204 124.778 137.013 125.115C136.83 125.445 136.738 125.856 136.738 126.347C136.738 126.831 136.83 127.242 137.013 127.579C137.204 127.909 137.449 128.155 137.75 128.316C138.058 128.478 138.392 128.558 138.751 128.558C139.11 128.558 139.44 128.478 139.741 128.316C140.049 128.155 140.295 127.909 140.478 127.579C140.669 127.242 140.764 126.831 140.764 126.347C140.764 125.856 140.669 125.445 140.478 125.115C140.295 124.778 140.049 124.529 139.741 124.367C139.44 124.206 139.11 124.125 138.751 124.125ZM145.962 128.481V129.361H145.214C144.598 129.361 144.136 129.215 143.828 128.921C143.528 128.628 143.377 128.137 143.377 127.447V124.191H142.475V123.322H143.377V121.815H144.389V123.322H145.951V124.191H144.389V127.469C144.389 127.858 144.459 128.126 144.598 128.272C144.745 128.412 144.994 128.481 145.346 128.481H145.962ZM149.659 123.245C150.246 123.245 150.741 123.392 151.144 123.685C151.555 123.979 151.841 124.371 152.002 124.862V123.322H153.003V129.361H152.002V127.821C151.841 128.313 151.555 128.705 151.144 128.998C150.741 129.292 150.246 129.438 149.659 129.438C149.124 129.438 148.647 129.314 148.229 129.064C147.811 128.815 147.481 128.459 147.239 127.997C147.004 127.528 146.887 126.978 146.887 126.347C146.887 125.717 147.004 125.167 147.239 124.697C147.481 124.228 147.811 123.869 148.229 123.619C148.647 123.37 149.124 123.245 149.659 123.245ZM149.945 124.136C149.329 124.136 148.834 124.334 148.46 124.73C148.093 125.119 147.91 125.658 147.91 126.347C147.91 127.037 148.093 127.579 148.46 127.975C148.834 128.364 149.329 128.558 149.945 128.558C150.341 128.558 150.693 128.467 151.001 128.283C151.316 128.1 151.562 127.843 151.738 127.513C151.914 127.176 152.002 126.787 152.002 126.347C152.002 125.907 151.914 125.519 151.738 125.181C151.562 124.844 151.316 124.587 151.001 124.411C150.693 124.228 150.341 124.136 149.945 124.136ZM155.597 121.221V129.361H154.596V121.221H155.597ZM162.399 123.245C162.986 123.245 163.481 123.392 163.884 123.685C164.295 123.979 164.581 124.371 164.742 124.862V123.322H165.743V129.46C165.743 130.018 165.626 130.513 165.391 130.945C165.156 131.378 164.826 131.715 164.401 131.957C163.976 132.199 163.481 132.32 162.916 132.32C162.102 132.32 161.438 132.122 160.925 131.726C160.412 131.338 160.085 130.81 159.946 130.142H160.936C161.053 130.546 161.273 130.861 161.596 131.088C161.926 131.323 162.348 131.44 162.861 131.44C163.404 131.44 163.851 131.264 164.203 130.912C164.562 130.568 164.742 130.084 164.742 129.46V127.821C164.581 128.313 164.295 128.705 163.884 128.998C163.481 129.292 162.986 129.438 162.399 129.438C161.864 129.438 161.387 129.314 160.969 129.064C160.551 128.815 160.221 128.459 159.979 127.997C159.744 127.528 159.627 126.978 159.627 126.347C159.627 125.717 159.744 125.167 159.979 124.697C160.221 124.228 160.551 123.869 160.969 123.619C161.387 123.37 161.864 123.245 162.399 123.245ZM162.685 124.136C162.069 124.136 161.574 124.334 161.2 124.73C160.833 125.119 160.65 125.658 160.65 126.347C160.65 127.037 160.833 127.579 161.2 127.975C161.574 128.364 162.069 128.558 162.685 128.558C163.081 128.558 163.433 128.467 163.741 128.283C164.056 128.1 164.302 127.843 164.478 127.513C164.654 127.176 164.742 126.787 164.742 126.347C164.742 125.907 164.654 125.519 164.478 125.181C164.302 124.844 164.056 124.587 163.741 124.411C163.433 124.228 163.081 124.136 162.685 124.136ZM168.337 124.543C168.535 124.125 168.825 123.803 169.206 123.575C169.588 123.341 170.042 123.223 170.57 123.223V124.312H170.262C169.698 124.312 169.236 124.459 168.876 124.752C168.517 125.038 168.337 125.515 168.337 126.182V129.361H167.336V123.322H168.337V124.543ZM177.113 126.006C177.113 126.219 177.098 126.402 177.069 126.556H172.24C172.262 127.246 172.456 127.763 172.823 128.107C173.197 128.452 173.652 128.624 174.187 128.624C174.671 128.624 175.074 128.503 175.397 128.261C175.727 128.012 175.929 127.682 176.002 127.271H177.069C176.996 127.689 176.831 128.063 176.574 128.393C176.325 128.723 175.998 128.98 175.595 129.163C175.192 129.347 174.737 129.438 174.231 129.438C173.652 129.438 173.138 129.314 172.691 129.064C172.244 128.815 171.892 128.459 171.635 127.997C171.386 127.528 171.261 126.978 171.261 126.347C171.261 125.717 171.386 125.167 171.635 124.697C171.892 124.228 172.244 123.869 172.691 123.619C173.138 123.37 173.652 123.245 174.231 123.245C174.818 123.245 175.327 123.37 175.76 123.619C176.2 123.869 176.534 124.202 176.761 124.62C176.996 125.038 177.113 125.5 177.113 126.006ZM176.101 126.072C176.123 125.625 176.05 125.251 175.881 124.95C175.712 124.65 175.481 124.426 175.188 124.279C174.895 124.133 174.576 124.059 174.231 124.059C173.681 124.059 173.219 124.232 172.845 124.576C172.471 124.914 172.269 125.412 172.24 126.072H176.101ZM183.977 126.006C183.977 126.219 183.962 126.402 183.933 126.556H179.104C179.126 127.246 179.32 127.763 179.687 128.107C180.061 128.452 180.516 128.624 181.051 128.624C181.535 128.624 181.938 128.503 182.261 128.261C182.591 128.012 182.793 127.682 182.866 127.271H183.933C183.86 127.689 183.695 128.063 183.438 128.393C183.189 128.723 182.862 128.98 182.459 129.163C182.056 129.347 181.601 129.438 181.095 129.438C180.516 129.438 180.002 129.314 179.555 129.064C179.108 128.815 178.756 128.459 178.499 127.997C178.25 127.528 178.125 126.978 178.125 126.347C178.125 125.717 178.25 125.167 178.499 124.697C178.756 124.228 179.108 123.869 179.555 123.619C180.002 123.37 180.516 123.245 181.095 123.245C181.682 123.245 182.191 123.37 182.624 123.619C183.064 123.869 183.398 124.202 183.625 124.62C183.86 125.038 183.977 125.5 183.977 126.006ZM182.965 126.072C182.987 125.625 182.914 125.251 182.745 124.95C182.576 124.65 182.345 124.426 182.052 124.279C181.759 124.133 181.44 124.059 181.095 124.059C180.545 124.059 180.083 124.232 179.709 124.576C179.335 124.914 179.133 125.412 179.104 126.072H182.965ZM188.465 123.223C189.169 123.223 189.738 123.451 190.17 123.905C190.603 124.353 190.819 125.002 190.819 125.852V129.361H189.818V125.94C189.818 125.339 189.664 124.877 189.356 124.554C189.048 124.232 188.63 124.07 188.102 124.07C187.552 124.07 187.112 124.25 186.782 124.609C186.452 124.961 186.287 125.478 186.287 126.16V129.361H185.286V123.322H186.287V124.752C186.441 124.261 186.713 123.883 187.101 123.619C187.497 123.355 187.952 123.223 188.465 123.223ZM106.3 139.245C106.982 139.245 107.529 139.425 107.939 139.784C108.357 140.136 108.61 140.613 108.698 141.214H107.741C107.697 140.855 107.547 140.562 107.29 140.334C107.041 140.1 106.704 139.982 106.278 139.982C105.919 139.982 105.637 140.07 105.431 140.246C105.233 140.415 105.134 140.646 105.134 140.939C105.134 141.159 105.2 141.339 105.332 141.478C105.472 141.61 105.64 141.713 105.838 141.786C106.044 141.852 106.322 141.926 106.674 142.006C107.122 142.109 107.481 142.215 107.752 142.325C108.031 142.428 108.266 142.597 108.456 142.831C108.654 143.066 108.753 143.381 108.753 143.777C108.753 144.269 108.566 144.668 108.192 144.976C107.826 145.284 107.334 145.438 106.718 145.438C106 145.438 105.413 145.266 104.958 144.921C104.504 144.577 104.236 144.096 104.155 143.48H105.123C105.16 143.847 105.318 144.144 105.596 144.371C105.882 144.599 106.256 144.712 106.718 144.712C107.063 144.712 107.331 144.624 107.521 144.448C107.719 144.272 107.818 144.041 107.818 143.755C107.818 143.521 107.749 143.334 107.609 143.194C107.47 143.055 107.298 142.949 107.092 142.875C106.887 142.802 106.605 142.725 106.245 142.644C105.798 142.542 105.439 142.439 105.167 142.336C104.903 142.234 104.676 142.072 104.485 141.852C104.302 141.625 104.21 141.321 104.21 140.939C104.21 140.433 104.397 140.026 104.771 139.718C105.145 139.403 105.655 139.245 106.3 139.245ZM112.764 139.245C113.534 139.245 114.172 139.451 114.678 139.861C115.184 140.272 115.496 140.822 115.613 141.511H114.557C114.484 141.079 114.282 140.741 113.952 140.499C113.629 140.25 113.226 140.125 112.742 140.125C112.39 140.125 112.067 140.206 111.774 140.367C111.488 140.529 111.257 140.778 111.081 141.115C110.905 141.445 110.817 141.856 110.817 142.347C110.817 142.839 110.905 143.253 111.081 143.59C111.257 143.92 111.488 144.166 111.774 144.327C112.067 144.489 112.39 144.569 112.742 144.569C113.226 144.569 113.629 144.445 113.952 144.195C114.282 143.946 114.484 143.605 114.557 143.172H115.613C115.496 143.869 115.184 144.423 114.678 144.833C114.172 145.237 113.534 145.438 112.764 145.438C112.185 145.438 111.671 145.314 111.224 145.064C110.777 144.815 110.425 144.459 110.168 143.997C109.919 143.528 109.794 142.978 109.794 142.347C109.794 141.717 109.919 141.167 110.168 140.697C110.425 140.228 110.777 139.869 111.224 139.619C111.671 139.37 112.185 139.245 112.764 139.245ZM119.662 139.245C120.241 139.245 120.758 139.37 121.213 139.619C121.675 139.869 122.034 140.228 122.291 140.697C122.555 141.167 122.687 141.717 122.687 142.347C122.687 142.978 122.555 143.528 122.291 143.997C122.034 144.459 121.675 144.815 121.213 145.064C120.758 145.314 120.241 145.438 119.662 145.438C119.083 145.438 118.562 145.314 118.1 145.064C117.645 144.815 117.286 144.459 117.022 143.997C116.758 143.528 116.626 142.978 116.626 142.347C116.626 141.717 116.758 141.167 117.022 140.697C117.286 140.228 117.645 139.869 118.1 139.619C118.562 139.37 119.083 139.245 119.662 139.245ZM119.662 140.125C119.303 140.125 118.969 140.206 118.661 140.367C118.36 140.529 118.115 140.778 117.924 141.115C117.741 141.445 117.649 141.856 117.649 142.347C117.649 142.831 117.741 143.242 117.924 143.579C118.115 143.909 118.36 144.155 118.661 144.316C118.969 144.478 119.303 144.558 119.662 144.558C120.021 144.558 120.351 144.478 120.652 144.316C120.96 144.155 121.206 143.909 121.389 143.579C121.58 143.242 121.675 142.831 121.675 142.347C121.675 141.856 121.58 141.445 121.389 141.115C121.206 140.778 120.96 140.529 120.652 140.367C120.351 140.206 120.021 140.125 119.662 140.125ZM124.992 140.543C125.19 140.125 125.48 139.803 125.861 139.575C126.243 139.341 126.697 139.223 127.225 139.223V140.312H126.917C126.353 140.312 125.891 140.459 125.531 140.752C125.172 141.038 124.992 141.515 124.992 142.182V145.361H123.991V139.322H124.992V140.543ZM133.768 142.006C133.768 142.219 133.753 142.402 133.724 142.556H128.895C128.917 143.246 129.111 143.763 129.478 144.107C129.852 144.452 130.307 144.624 130.842 144.624C131.326 144.624 131.729 144.503 132.052 144.261C132.382 144.012 132.584 143.682 132.657 143.271H133.724C133.651 143.689 133.486 144.063 133.229 144.393C132.98 144.723 132.653 144.98 132.25 145.163C131.847 145.347 131.392 145.438 130.886 145.438C130.307 145.438 129.793 145.314 129.346 145.064C128.899 144.815 128.547 144.459 128.29 143.997C128.041 143.528 127.916 142.978 127.916 142.347C127.916 141.717 128.041 141.167 128.29 140.697C128.547 140.228 128.899 139.869 129.346 139.619C129.793 139.37 130.307 139.245 130.886 139.245C131.473 139.245 131.982 139.37 132.415 139.619C132.855 139.869 133.189 140.202 133.416 140.62C133.651 141.038 133.768 141.5 133.768 142.006ZM132.756 142.072C132.778 141.625 132.705 141.251 132.536 140.95C132.367 140.65 132.136 140.426 131.843 140.279C131.55 140.133 131.231 140.059 130.886 140.059C130.336 140.059 129.874 140.232 129.5 140.576C129.126 140.914 128.924 141.412 128.895 142.072H132.756ZM137.619 137.551C137.619 137.368 137.682 137.221 137.806 137.111C137.931 136.994 138.096 136.935 138.301 136.935C138.507 136.935 138.672 136.994 138.796 137.111C138.921 137.221 138.983 137.368 138.983 137.551C138.983 137.735 138.921 137.885 138.796 138.002C138.672 138.112 138.507 138.167 138.301 138.167C138.096 138.167 137.931 138.112 137.806 138.002C137.682 137.885 137.619 137.735 137.619 137.551ZM138.796 139.322V145.361H137.795V139.322H138.796ZM142.298 139.245C142.98 139.245 143.526 139.425 143.937 139.784C144.355 140.136 144.608 140.613 144.696 141.214H143.739C143.695 140.855 143.544 140.562 143.288 140.334C143.038 140.1 142.701 139.982 142.276 139.982C141.916 139.982 141.634 140.07 141.429 140.246C141.231 140.415 141.132 140.646 141.132 140.939C141.132 141.159 141.198 141.339 141.33 141.478C141.469 141.61 141.638 141.713 141.836 141.786C142.041 141.852 142.32 141.926 142.672 142.006C143.119 142.109 143.478 142.215 143.75 142.325C144.028 142.428 144.263 142.597 144.454 142.831C144.652 143.066 144.751 143.381 144.751 143.777C144.751 144.269 144.564 144.668 144.19 144.976C143.823 145.284 143.332 145.438 142.716 145.438C141.997 145.438 141.41 145.266 140.956 144.921C140.501 144.577 140.233 144.096 140.153 143.48H141.121C141.157 143.847 141.315 144.144 141.594 144.371C141.88 144.599 142.254 144.712 142.716 144.712C143.06 144.712 143.328 144.624 143.519 144.448C143.717 144.272 143.816 144.041 143.816 143.755C143.816 143.521 143.746 143.334 143.607 143.194C143.467 143.055 143.295 142.949 143.09 142.875C142.884 142.802 142.602 142.725 142.243 142.644C141.795 142.542 141.436 142.439 141.165 142.336C140.901 142.234 140.673 142.072 140.483 141.852C140.299 141.625 140.208 141.321 140.208 140.939C140.208 140.433 140.395 140.026 140.769 139.718C141.143 139.403 141.652 139.245 142.298 139.245Z" fill="#5B5B5F"/>
<path d="M148.159 137.899V136.183H151.461V145.361H149.537V137.899H148.159ZM157.767 138.679C157.628 137.778 157.169 137.327 156.389 137.327C155.782 137.327 155.34 137.596 155.063 138.133C154.786 138.662 154.664 139.494 154.699 140.629C154.838 140.213 155.106 139.884 155.505 139.641C155.912 139.39 156.385 139.264 156.922 139.264C157.806 139.264 158.499 139.533 159.002 140.07C159.513 140.599 159.769 141.353 159.769 142.332C159.769 142.939 159.648 143.476 159.405 143.944C159.162 144.412 158.798 144.781 158.313 145.049C157.836 145.318 157.256 145.452 156.571 145.452C155.236 145.452 154.318 145.041 153.815 144.217C153.312 143.385 153.061 142.241 153.061 140.785C153.061 139.113 153.33 137.873 153.867 137.067C154.413 136.261 155.293 135.858 156.506 135.858C157.433 135.858 158.144 136.123 158.638 136.651C159.132 137.18 159.414 137.856 159.483 138.679H157.767ZM154.855 142.202C154.855 142.688 154.994 143.091 155.271 143.411C155.557 143.723 155.973 143.879 156.519 143.879C156.987 143.879 157.36 143.741 157.637 143.463C157.914 143.186 158.053 142.8 158.053 142.306C158.053 141.786 157.91 141.388 157.624 141.11C157.347 140.833 156.97 140.694 156.493 140.694C156.042 140.694 155.657 140.824 155.336 141.084C155.015 141.344 154.855 141.717 154.855 142.202Z" fill="#53A42A"/>
<path d="M19 26.8762C19 21.4217 23.4217 17 28.8762 17H233.693C239.147 17 243.569 21.4217 243.569 26.8762V43.9063H19V26.8762Z" fill="#003366"/>
<path d="M30.2276 26.999C30.9761 26.999 31.597 27.1847 32.0903 27.5561C32.5835 27.9216 32.8997 28.4178 33.039 29.0445H31.7508C31.6289 28.7659 31.4345 28.5454 31.1676 28.383C30.9065 28.2147 30.596 28.1305 30.2363 28.1305C29.8823 28.1305 29.5689 28.2118 29.2962 28.3743C29.0235 28.5367 28.8117 28.7688 28.6608 29.0706C28.5099 29.3723 28.4345 29.7263 28.4345 30.1325C28.4345 30.7766 28.6057 31.2785 28.948 31.6383C29.2962 31.9981 29.7691 32.178 30.3668 32.178C30.8078 32.178 31.185 32.0474 31.4984 31.7863C31.8175 31.5252 32.0235 31.1625 32.1164 30.6983H30.0361V29.8191H33.1435V31.0029C33.0564 31.4091 32.8852 31.7834 32.6299 32.1258C32.3804 32.4681 32.0496 32.7438 31.6376 32.9527C31.2314 33.1558 30.7643 33.2573 30.2363 33.2573C29.6328 33.2573 29.0989 33.1267 28.6347 32.8656C28.1763 32.5987 27.8194 32.2302 27.5641 31.7602C27.3146 31.2844 27.1898 30.7418 27.1898 30.1325C27.1898 29.5232 27.3146 28.9835 27.5641 28.5135C27.8194 28.0377 28.1763 27.6663 28.6347 27.3994C29.0931 27.1325 29.6241 26.999 30.2276 26.999ZM35.2897 29.3056C35.4696 28.9981 35.7075 28.7572 36.0035 28.5832C36.2994 28.4033 36.6302 28.3133 36.9957 28.3133V29.6277H36.6389C35.7394 29.6277 35.2897 30.0455 35.2897 30.8811V33.2051H34.0624V28.383H35.2897V29.3056ZM42.2099 30.6112C42.2099 30.7331 42.1954 30.8724 42.1664 31.029H38.6325C38.6499 31.4584 38.7659 31.7747 38.9806 31.9778C39.1953 32.1809 39.4623 32.2824 39.7814 32.2824C40.0658 32.2824 40.3008 32.2128 40.4865 32.0735C40.678 31.9343 40.7998 31.7457 40.852 31.5078H42.149C42.0851 31.8443 41.9488 32.1461 41.7399 32.413C41.531 32.6799 41.2611 32.8888 40.9304 33.0397C40.6054 33.1906 40.2428 33.266 39.8424 33.266C39.3723 33.266 38.9545 33.1674 38.589 32.9701C38.2234 32.767 37.939 32.4797 37.7359 32.1083C37.5328 31.737 37.4313 31.2989 37.4313 30.794C37.4313 30.2892 37.5328 29.8511 37.7359 29.4797C37.939 29.1025 38.2234 28.8153 38.589 28.618C38.9545 28.4207 39.3723 28.322 39.8424 28.322C40.3182 28.322 40.7331 28.4207 41.0871 28.618C41.4468 28.8153 41.7225 29.088 41.914 29.4362C42.1113 29.7785 42.2099 30.1702 42.2099 30.6112ZM40.9739 30.4894C40.9913 30.0948 40.8869 29.7959 40.6606 29.5928C40.44 29.3897 40.1673 29.2882 39.8424 29.2882C39.5116 29.2882 39.2331 29.3897 39.0068 29.5928C38.7804 29.7959 38.6557 30.0948 38.6325 30.4894H40.9739ZM47.616 30.6112C47.616 30.7331 47.6015 30.8724 47.5725 31.029H44.0386C44.056 31.4584 44.1721 31.7747 44.3868 31.9778C44.6015 32.1809 44.8684 32.2824 45.1876 32.2824C45.4719 32.2824 45.7069 32.2128 45.8926 32.0735C46.0841 31.9343 46.2059 31.7457 46.2582 31.5078H47.5551C47.4913 31.8443 47.3549 32.1461 47.146 32.413C46.9371 32.6799 46.6673 32.8888 46.3365 33.0397C46.0115 33.1906 45.6489 33.266 45.2485 33.266C44.7785 33.266 44.3607 33.1674 43.9951 32.9701C43.6295 32.767 43.3452 32.4797 43.1421 32.1083C42.939 31.737 42.8374 31.2989 42.8374 30.794C42.8374 30.2892 42.939 29.8511 43.1421 29.4797C43.3452 29.1025 43.6295 28.8153 43.9951 28.618C44.3607 28.4207 44.7785 28.322 45.2485 28.322C45.7243 28.322 46.1392 28.4207 46.4932 28.618C46.853 28.8153 47.1286 29.088 47.3201 29.4362C47.5174 29.7785 47.616 30.1702 47.616 30.6112ZM46.38 30.4894C46.3974 30.0948 46.293 29.7959 46.0667 29.5928C45.8462 29.3897 45.5734 29.2882 45.2485 29.2882C44.9177 29.2882 44.6392 29.3897 44.4129 29.5928C44.1866 29.7959 44.0618 30.0948 44.0386 30.4894H46.38ZM51.3596 28.3133C51.9167 28.3133 52.3606 28.4961 52.6914 28.8617C53.0221 29.2273 53.1875 29.7408 53.1875 30.4023V33.2051H51.9689V30.5416C51.9689 30.1586 51.8703 29.8627 51.673 29.6538C51.4757 29.4391 51.2059 29.3317 50.8635 29.3317C50.5153 29.3317 50.2368 29.4449 50.0279 29.6712C49.819 29.8975 49.7145 30.2224 49.7145 30.646V33.2051H48.4873V28.383H49.7145V29.3491C49.8422 29.0242 50.0511 28.7717 50.3413 28.5919C50.6372 28.4062 50.9767 28.3133 51.3596 28.3133ZM60.3845 31.5252C60.3845 31.8385 60.3061 32.1287 60.1494 32.3956C59.9928 32.6567 59.7607 32.8685 59.4531 33.031C59.1456 33.1877 58.7713 33.266 58.3303 33.266C57.8951 33.266 57.5063 33.1935 57.1639 33.0484C56.8215 32.8975 56.5459 32.6828 56.337 32.4043C56.1339 32.1258 56.0179 31.8008 55.9888 31.4294H57.2945C57.3235 31.6789 57.4221 31.8878 57.5904 32.0561C57.7645 32.2186 57.9937 32.2998 58.278 32.2998C58.5334 32.2998 58.7278 32.2331 58.8612 32.0996C59.0005 31.9604 59.0701 31.7834 59.0701 31.5687C59.0701 31.3772 59.015 31.2205 58.9047 31.0987C58.7945 30.971 58.6552 30.8695 58.4869 30.794C58.3187 30.7186 58.0866 30.6315 57.7906 30.5329C57.4076 30.4052 57.0943 30.2805 56.8506 30.1586C56.6068 30.0309 56.3979 29.8482 56.2239 29.6102C56.0556 29.3723 55.9714 29.0619 55.9714 28.6789C55.9714 28.1508 56.16 27.7359 56.5372 27.4342C56.9202 27.1266 57.425 26.9729 58.0517 26.9729C58.7017 26.9729 59.2181 27.1296 59.6011 27.4429C59.9899 27.7563 60.2104 28.1741 60.2626 28.6963H58.9396C58.9047 28.4758 58.8119 28.2959 58.661 28.1566C58.5102 28.0116 58.3042 27.939 58.043 27.939C57.8167 27.939 57.6339 28 57.4947 28.1218C57.3554 28.2379 57.2858 28.4091 57.2858 28.6354C57.2858 28.8153 57.338 28.9661 57.4424 29.088C57.5527 29.2041 57.6891 29.2998 57.8515 29.3752C58.0198 29.4507 58.2461 29.5348 58.5305 29.6277C58.9251 29.7669 59.2442 29.8975 59.4879 30.0193C59.7375 30.1412 59.9493 30.324 60.1233 30.5677C60.2974 30.8114 60.3845 31.1306 60.3845 31.5252ZM63.4559 28.322C64.0768 28.322 64.5932 28.4903 65.0052 28.8269C65.423 29.1634 65.6842 29.6219 65.7886 30.2021H64.4917C64.4395 29.9468 64.3205 29.7466 64.1348 29.6015C63.9491 29.4507 63.7141 29.3752 63.4298 29.3752C63.1048 29.3752 62.8321 29.4971 62.6116 29.7408C62.3969 29.9787 62.2895 30.3298 62.2895 30.794C62.2895 31.2582 62.3969 31.6122 62.6116 31.8559C62.8321 32.0938 63.1048 32.2128 63.4298 32.2128C63.7141 32.2128 63.9491 32.1403 64.1348 31.9952C64.3205 31.8443 64.4395 31.6412 64.4917 31.3859H65.7886C65.6842 31.9662 65.423 32.4246 65.0052 32.7612C64.5932 33.0977 64.0768 33.266 63.4559 33.266C62.9859 33.266 62.5681 33.1674 62.2025 32.9701C61.8369 32.767 61.5526 32.4797 61.3495 32.1083C61.1464 31.737 61.0448 31.2989 61.0448 30.794C61.0448 30.2892 61.1464 29.8511 61.3495 29.4797C61.5526 29.1025 61.8369 28.8153 62.2025 28.618C62.5681 28.4207 62.9859 28.322 63.4559 28.322ZM68.8889 28.322C69.359 28.322 69.7797 28.4207 70.151 28.618C70.5282 28.8153 70.8242 29.1025 71.0389 29.4797C71.2536 29.8511 71.3609 30.2892 71.3609 30.794C71.3609 31.2989 71.2536 31.737 71.0389 32.1083C70.8242 32.4797 70.5282 32.767 70.151 32.9701C69.7797 33.1674 69.359 33.266 68.8889 33.266C68.4189 33.266 67.9953 33.1674 67.6181 32.9701C67.2467 32.767 66.9537 32.4797 66.739 32.1083C66.5243 31.737 66.4169 31.2989 66.4169 30.794C66.4169 30.2892 66.5243 29.8511 66.739 29.4797C66.9537 29.1025 67.2467 28.8153 67.6181 28.618C67.9953 28.4207 68.4189 28.322 68.8889 28.322ZM68.8889 29.3839C68.5466 29.3839 68.2564 29.5058 68.0185 29.7495C67.7806 29.9874 67.6616 30.3356 67.6616 30.794C67.6616 31.2524 67.7806 31.6035 68.0185 31.8472C68.2564 32.0851 68.5466 32.2041 68.8889 32.2041C69.2313 32.2041 69.5214 32.0851 69.7594 31.8472C69.9973 31.6035 70.1162 31.2524 70.1162 30.794C70.1162 30.3356 69.9973 29.9874 69.7594 29.7495C69.5214 29.5058 69.2313 29.3839 68.8889 29.3839ZM73.4556 29.3056C73.6355 28.9981 73.8734 28.7572 74.1693 28.5832C74.4653 28.4033 74.796 28.3133 75.1616 28.3133V29.6277H74.8047C73.9053 29.6277 73.4556 30.0455 73.4556 30.8811V33.2051H72.2283V28.383H73.4556V29.3056ZM80.3758 30.6112C80.3758 30.7331 80.3612 30.8724 80.3322 31.029H76.7983C76.8157 31.4584 76.9318 31.7747 77.1465 31.9778C77.3612 32.1809 77.6281 32.2824 77.9473 32.2824C78.2316 32.2824 78.4666 32.2128 78.6523 32.0735C78.8438 31.9343 78.9657 31.7457 79.0179 31.5078H80.3148C80.251 31.8443 80.1146 32.1461 79.9057 32.413C79.6968 32.6799 79.427 32.8888 79.0962 33.0397C78.7713 33.1906 78.4086 33.266 78.0082 33.266C77.5382 33.266 77.1204 33.1674 76.7548 32.9701C76.3892 32.767 76.1049 32.4797 75.9018 32.1083C75.6987 31.737 75.5971 31.2989 75.5971 30.794C75.5971 30.2892 75.6987 29.8511 75.9018 29.4797C76.1049 29.1025 76.3892 28.8153 76.7548 28.618C77.1204 28.4207 77.5382 28.322 78.0082 28.322C78.484 28.322 78.8989 28.4207 79.2529 28.618C79.6127 28.8153 79.8883 29.088 80.0798 29.4362C80.2771 29.7785 80.3758 30.1702 80.3758 30.6112ZM79.1398 30.4894C79.1572 30.0948 79.0527 29.7959 78.8264 29.5928C78.6059 29.3897 78.3332 29.2882 78.0082 29.2882C77.6775 29.2882 77.3989 29.3897 77.1726 29.5928C76.9463 29.7959 76.8215 30.0948 76.7983 30.4894H79.1398ZM82.864 29.706C82.864 28.5977 83.0787 27.6025 83.5081 26.7205C83.9375 25.8384 84.5033 25.1247 85.2054 24.5792H86.3979V24.7011C84.8311 25.9951 84.0478 27.6634 84.0478 29.706C84.0478 31.7486 84.8311 33.4169 86.3979 34.7109V34.8241H85.2054C84.5033 34.2786 83.9375 33.5678 83.5081 32.6915C83.0787 31.8095 82.864 30.8143 82.864 29.706ZM90.44 27.0599V28.0348H87.8549V29.6799H89.9265V30.6199H87.8549V33.2051H86.6276V27.0599H90.44ZM95.8819 28.383V33.2051H94.6546V32.2302C94.527 32.5552 94.3152 32.8105 94.0192 32.9962C93.7291 33.1761 93.3925 33.266 93.0096 33.266C92.4525 33.266 92.0086 33.0832 91.6778 32.7176C91.347 32.3521 91.1817 31.8414 91.1817 31.1857V28.383H92.4003V31.0464C92.4003 31.4294 92.4989 31.7283 92.6962 31.943C92.8935 32.1519 93.1604 32.2563 93.497 32.2563C93.851 32.2563 94.1324 32.1432 94.3413 31.9169C94.5502 31.6905 94.6546 31.3656 94.6546 30.942V28.383H95.8819ZM101.533 30.6112C101.533 30.7331 101.518 30.8724 101.489 31.029H97.9553C97.9727 31.4584 98.0888 31.7747 98.3035 31.9778C98.5182 32.1809 98.7851 32.2824 99.1043 32.2824C99.3886 32.2824 99.6236 32.2128 99.8093 32.0735C100.001 31.9343 100.123 31.7457 100.175 31.5078H101.472C101.408 31.8443 101.272 32.1461 101.063 32.413C100.854 32.6799 100.584 32.8888 100.253 33.0397C99.9283 33.1906 99.5656 33.266 99.1652 33.266C98.6952 33.266 98.2774 33.1674 97.9118 32.9701C97.5462 32.767 97.2619 32.4797 97.0588 32.1083C96.8557 31.737 96.7541 31.2989 96.7541 30.794C96.7541 30.2892 96.8557 29.8511 97.0588 29.4797C97.2619 29.1025 97.5462 28.8153 97.9118 28.618C98.2774 28.4207 98.6952 28.322 99.1652 28.322C99.641 28.322 100.056 28.4207 100.41 28.618C100.77 28.8153 101.045 29.088 101.237 29.4362C101.434 29.7785 101.533 30.1702 101.533 30.6112ZM100.297 30.4894C100.314 30.0948 100.21 29.7959 99.9834 29.5928C99.7629 29.3897 99.4901 29.2882 99.1652 29.2882C98.8344 29.2882 98.5559 29.3897 98.3296 29.5928C98.1033 29.7959 97.9785 30.0948 97.9553 30.4894H100.297ZM103.631 26.764V33.2051H102.404V26.764H103.631ZM109.414 26.999C110.18 26.999 110.815 27.1963 111.32 27.5909C111.825 27.9855 112.158 28.5222 112.321 29.2011H111.033C110.899 28.8704 110.69 28.6093 110.406 28.4178C110.127 28.2263 109.791 28.1305 109.396 28.1305C109.071 28.1305 108.778 28.2118 108.517 28.3743C108.256 28.5367 108.053 28.7688 107.908 29.0706C107.763 29.3723 107.69 29.7263 107.69 30.1325C107.69 30.5329 107.763 30.884 107.908 31.1857C108.053 31.4875 108.256 31.7196 108.517 31.882C108.778 32.0445 109.071 32.1258 109.396 32.1258C109.791 32.1258 110.127 32.03 110.406 31.8385C110.69 31.647 110.899 31.3859 111.033 31.0551H112.321C112.158 31.7341 111.825 32.2708 111.32 32.6654C110.815 33.06 110.18 33.2573 109.414 33.2573C108.828 33.2573 108.308 33.1267 107.856 32.8656C107.409 32.5987 107.061 32.2273 106.811 31.7515C106.567 31.2756 106.446 30.736 106.446 30.1325C106.446 29.5232 106.567 28.9806 106.811 28.5048C107.061 28.029 107.409 27.6605 107.856 27.3994C108.302 27.1325 108.822 26.999 109.414 26.999ZM115.47 28.322C115.94 28.322 116.361 28.4207 116.732 28.618C117.109 28.8153 117.405 29.1025 117.62 29.4797C117.835 29.8511 117.942 30.2892 117.942 30.794C117.942 31.2989 117.835 31.737 117.62 32.1083C117.405 32.4797 117.109 32.767 116.732 32.9701C116.361 33.1674 115.94 33.266 115.47 33.266C115 33.266 114.576 33.1674 114.199 32.9701C113.828 32.767 113.535 32.4797 113.32 32.1083C113.105 31.737 112.998 31.2989 112.998 30.794C112.998 30.2892 113.105 29.8511 113.32 29.4797C113.535 29.1025 113.828 28.8153 114.199 28.618C114.576 28.4207 115 28.322 115.47 28.322ZM115.47 29.3839C115.128 29.3839 114.837 29.5058 114.6 29.7495C114.362 29.9874 114.243 30.3356 114.243 30.794C114.243 31.2524 114.362 31.6035 114.6 31.8472C114.837 32.0851 115.128 32.2041 115.47 32.2041C115.812 32.2041 116.102 32.0851 116.34 31.8472C116.578 31.6035 116.697 31.2524 116.697 30.794C116.697 30.3356 116.578 29.9874 116.34 29.7495C116.102 29.5058 115.812 29.3839 115.47 29.3839ZM121.682 28.3133C122.239 28.3133 122.683 28.4961 123.013 28.8617C123.344 29.2273 123.51 29.7408 123.51 30.4023V33.2051H122.291V30.5416C122.291 30.1586 122.192 29.8627 121.995 29.6538C121.798 29.4391 121.528 29.3317 121.186 29.3317C120.837 29.3317 120.559 29.4449 120.35 29.6712C120.141 29.8975 120.037 30.2224 120.037 30.646V33.2051H118.809V28.383H120.037V29.3491C120.164 29.0242 120.373 28.7717 120.663 28.5919C120.959 28.4062 121.299 28.3133 121.682 28.3133ZM126.252 28.322C126.838 28.322 127.308 28.47 127.662 28.7659C128.016 29.0619 128.237 29.4565 128.324 29.9497H127.175C127.128 29.7176 127.024 29.5319 126.861 29.3926C126.699 29.2534 126.487 29.1837 126.226 29.1837C126.017 29.1837 125.854 29.2331 125.738 29.3317C125.622 29.4304 125.564 29.5638 125.564 29.7321C125.564 29.8656 125.611 29.9729 125.704 30.0542C125.796 30.1354 125.912 30.1992 126.052 30.2457C126.191 30.2921 126.391 30.3472 126.652 30.411C127.018 30.4923 127.314 30.5793 127.54 30.6722C127.772 30.7592 127.97 30.9014 128.132 31.0987C128.3 31.2902 128.384 31.5513 128.384 31.882C128.384 32.294 128.222 32.6277 127.897 32.883C127.578 33.1383 127.146 33.266 126.6 33.266C125.973 33.266 125.471 33.1267 125.094 32.8482C124.717 32.5639 124.488 32.1606 124.407 31.6383H125.582C125.611 31.8762 125.715 32.0648 125.895 32.2041C126.075 32.3376 126.31 32.4043 126.6 32.4043C126.809 32.4043 126.969 32.355 127.079 32.2563C127.189 32.1519 127.244 32.0184 127.244 31.8559C127.244 31.7167 127.195 31.6035 127.096 31.5165C127.003 31.4294 126.884 31.3627 126.739 31.3163C126.6 31.2698 126.4 31.2147 126.139 31.1509C125.779 31.0696 125.486 30.9884 125.26 30.9072C125.039 30.8201 124.848 30.6838 124.685 30.4981C124.529 30.3124 124.45 30.0571 124.45 29.7321C124.45 29.3143 124.61 28.9748 124.929 28.7137C125.248 28.4526 125.689 28.322 126.252 28.322ZM133.912 28.383V33.2051H132.684V32.2302C132.557 32.5552 132.345 32.8105 132.049 32.9962C131.759 33.1761 131.422 33.266 131.039 33.266C130.482 33.266 130.038 33.0832 129.708 32.7176C129.377 32.3521 129.212 31.8414 129.212 31.1857V28.383H130.43V31.0464C130.43 31.4294 130.529 31.7283 130.726 31.943C130.923 32.1519 131.19 32.2563 131.527 32.2563C131.881 32.2563 132.162 32.1432 132.371 31.9169C132.58 31.6905 132.684 31.3656 132.684 30.942V28.383H133.912ZM141.164 28.3133C141.75 28.3133 142.212 28.4961 142.548 28.8617C142.89 29.2215 143.062 29.735 143.062 30.4023V33.2051H141.843V30.5416C141.843 30.1702 141.747 29.8859 141.556 29.6886C141.37 29.4855 141.112 29.3839 140.781 29.3839C140.439 29.3839 140.166 29.4913 139.963 29.706C139.76 29.9207 139.658 30.234 139.658 30.646V33.2051H138.44V30.5416C138.44 30.1702 138.344 29.8859 138.152 29.6886C137.967 29.4855 137.709 29.3839 137.378 29.3839C137.035 29.3839 136.763 29.4913 136.56 29.706C136.357 29.9207 136.255 30.234 136.255 30.646V33.2051H135.028V28.383H136.255V29.2969C136.383 28.9835 136.583 28.7427 136.856 28.5744C137.134 28.4004 137.456 28.3133 137.822 28.3133C138.211 28.3133 138.547 28.4062 138.831 28.5919C139.122 28.7775 139.339 29.0445 139.484 29.3926C139.635 29.0619 139.859 28.8008 140.154 28.6093C140.456 28.412 140.793 28.3133 141.164 28.3133ZM147.021 28.322C147.427 28.322 147.793 28.4207 148.118 28.618C148.443 28.8153 148.695 29.1025 148.875 29.4797C149.061 29.8511 149.154 30.2892 149.154 30.794C149.154 31.2989 149.061 31.7399 148.875 32.1171C148.695 32.4884 148.443 32.7728 148.118 32.9701C147.793 33.1674 147.427 33.266 147.021 33.266C146.615 33.266 146.267 33.1703 145.976 32.9788C145.692 32.7815 145.489 32.5203 145.367 32.1954V35.503H144.14V28.383H145.367V29.3839C145.489 29.059 145.692 28.8008 145.976 28.6093C146.267 28.4178 146.615 28.322 147.021 28.322ZM146.638 29.3926C146.267 29.3926 145.959 29.5203 145.715 29.7756C145.477 30.0251 145.358 30.3646 145.358 30.794C145.358 31.2176 145.477 31.5571 145.715 31.8124C145.959 32.0619 146.267 32.1867 146.638 32.1867C147.021 32.1867 147.329 32.0648 147.561 31.8211C147.793 31.5716 147.909 31.2292 147.909 30.794C147.909 30.3588 147.793 30.0164 147.561 29.7669C147.329 29.5174 147.021 29.3926 146.638 29.3926ZM152.598 32.1519V33.2051H151.954C151.415 33.2051 151 33.0745 150.71 32.8134C150.425 32.5523 150.283 32.1171 150.283 31.5078V29.4188H149.613V28.383H150.283V27.1905H151.51V28.383H152.59V29.4188H151.51V31.5252C151.51 31.7573 151.557 31.9198 151.65 32.0126C151.743 32.1054 151.899 32.1519 152.12 32.1519H152.598ZM153.342 26.999C153.342 26.8017 153.412 26.6421 153.551 26.5203C153.69 26.3926 153.873 26.3288 154.1 26.3288C154.326 26.3288 154.509 26.3926 154.648 26.5203C154.787 26.6421 154.857 26.8017 154.857 26.999C154.857 27.1905 154.787 27.3501 154.648 27.4777C154.509 27.5996 154.326 27.6605 154.1 27.6605C153.873 27.6605 153.69 27.5996 153.551 27.4777C153.412 27.3501 153.342 27.1905 153.342 26.999ZM154.709 28.383V33.2051H153.482V28.383H154.709ZM158.047 28.322C158.517 28.322 158.938 28.4207 159.31 28.618C159.687 28.8153 159.983 29.1025 160.197 29.4797C160.412 29.8511 160.519 30.2892 160.519 30.794C160.519 31.2989 160.412 31.737 160.197 32.1083C159.983 32.4797 159.687 32.767 159.31 32.9701C158.938 33.1674 158.517 33.266 158.047 33.266C157.577 33.266 157.154 33.1674 156.777 32.9701C156.405 32.767 156.112 32.4797 155.897 32.1083C155.683 31.737 155.575 31.2989 155.575 30.794C155.575 30.2892 155.683 29.8511 155.897 29.4797C156.112 29.1025 156.405 28.8153 156.777 28.618C157.154 28.4207 157.577 28.322 158.047 28.322ZM158.047 29.3839C157.705 29.3839 157.415 29.5058 157.177 29.7495C156.939 29.9874 156.82 30.3356 156.82 30.794C156.82 31.2524 156.939 31.6035 157.177 31.8472C157.415 32.0851 157.705 32.2041 158.047 32.2041C158.39 32.2041 158.68 32.0851 158.918 31.8472C159.156 31.6035 159.275 31.2524 159.275 30.794C159.275 30.3356 159.156 29.9874 158.918 29.7495C158.68 29.5058 158.39 29.3839 158.047 29.3839ZM164.259 28.3133C164.816 28.3133 165.26 28.4961 165.591 28.8617C165.922 29.2273 166.087 29.7408 166.087 30.4023V33.2051H164.868V30.5416C164.868 30.1586 164.77 29.8627 164.573 29.6538C164.375 29.4391 164.105 29.3317 163.763 29.3317C163.415 29.3317 163.136 29.4449 162.927 29.6712C162.719 29.8975 162.614 30.2224 162.614 30.646V33.2051H161.387V28.383H162.614V29.3491C162.742 29.0242 162.951 28.7717 163.241 28.5919C163.537 28.4062 163.876 28.3133 164.259 28.3133ZM169.83 29.6973C169.83 30.8114 169.616 31.8095 169.186 32.6915C168.757 33.5736 168.191 34.2844 167.489 34.8241H166.296V34.7109C167.863 33.4169 168.647 31.7486 168.647 29.706C168.647 27.6634 167.863 25.9951 166.296 24.7011V24.5792H167.489C168.191 25.1247 168.757 25.8384 169.186 26.7205C169.616 27.5967 169.83 28.589 169.83 29.6973Z" fill="white"/>
<path d="M231.962 27.8894C231.962 28.3159 231.617 28.6616 231.19 28.6616C230.764 28.6616 230.418 28.3159 230.418 27.8894C230.418 27.4629 230.764 27.1172 231.19 27.1172C231.617 27.1172 231.962 27.4629 231.962 27.8894Z" fill="white"/>
<path d="M231.962 30.2061C231.962 30.6325 231.617 30.9783 231.19 30.9783C230.764 30.9783 230.418 30.6325 230.418 30.2061C230.418 29.7796 230.764 29.4338 231.19 29.4338C231.617 29.4338 231.962 29.7796 231.962 30.2061Z" fill="white"/>
<path d="M231.19 33.2949C231.617 33.2949 231.962 32.9492 231.962 32.5227C231.962 32.0962 231.617 31.7505 231.19 31.7505C230.764 31.7505 230.418 32.0962 230.418 32.5227C230.418 32.9492 230.764 33.2949 231.19 33.2949Z" fill="white"/>
<defs>
<filter id="filter0_d_6511_2052" x="0.482121" y="0.951171" width="261.606" height="189.036" filterUnits="userSpaceOnUse" color-interpolation-filters="sRGB">
<feFlood flood-opacity="0" result="BackgroundImageFix"/>
<feColorMatrix in="SourceAlpha" type="matrix" values="0 0 0 0 0 0 0 0 0 0 0 0 0 0 0 0 0 0 127 0" result="hardAlpha"/>
<feOffset dy="2.46905"/>
<feGaussianBlur stdDeviation="9.25894"/>
<feComposite in2="hardAlpha" operator="out"/>
<feColorMatrix type="matrix" values="0 0 0 0 0.101961 0 0 0 0 0.109804 0 0 0 0 0.129412 0 0 0 0.07 0"/>
<feBlend mode="normal" in2="BackgroundImageFix" result="effect1_dropShadow_6511_2052"/>
<feBlend mode="normal" in="SourceGraphic" in2="effect1_dropShadow_6511_2052" result="shape"/>
</filter>
</defs>
</svg>
