<svg width="271" height="172" viewBox="0 0 271 172" fill="none" xmlns="http://www.w3.org/2000/svg">
<g filter="url(#filter0_d_6511_2072)">
<rect x="17" y="15" width="237" height="138" rx="8.8366" fill="white"/>
</g>
<path d="M26 104.177C26 96.574 27.7993 89.0792 31.2509 82.3051C34.7025 75.531 39.7083 69.67 45.8591 65.2012L57.186 80.7914C53.4956 83.4727 50.4921 86.9893 48.4211 91.0538C46.3502 95.1182 45.2706 99.6151 45.2706 104.177H26Z" fill="#F03C27"/>
<path d="M122.354 104.177C122.354 96.574 120.555 89.0792 117.103 82.3051C113.651 75.531 108.646 69.67 102.495 65.2012L91.168 80.7914C94.8584 83.4727 97.8619 86.9893 99.9328 91.0538C102.004 95.1182 103.083 99.6151 103.083 104.177H122.354Z" fill="#2ABA00"/>
<path d="M48.6445 63.3205C56.3974 58.476 65.3687 55.9374 74.5105 56.0012C83.6523 56.065 92.5873 58.7286 100.272 63.6809L89.8327 79.8792C85.222 76.9078 79.8611 75.3096 74.376 75.2713C68.8909 75.233 63.5081 76.7562 58.8564 79.6629L48.6445 63.3205Z" fill="#A45BF1"/>
<circle cx="75.0949" cy="99.132" r="3.21176" fill="white" stroke="#003366" stroke-width="1.83529"/>
<path d="M98.7256 84.9082L76.4727 96.1494L78.5374 99.5906L98.7256 84.9082Z" fill="#003366"/>
<path d="M61.4591 112.989V113.464H59.4807V115.032H61.1572V115.488H59.4807V117.518H58.8962V112.989H61.4591ZM62.7043 112.989V115.706C62.7043 116.152 62.8028 116.481 62.9997 116.695C63.1967 116.905 63.4687 117.01 63.8155 117.01C64.1581 117.01 64.4258 116.903 64.6185 116.689C64.8112 116.475 64.9075 116.147 64.9075 115.706V112.989H65.4921V115.706C65.4921 116.323 65.3379 116.787 65.0296 117.1C64.7255 117.408 64.3166 117.563 63.8027 117.563C63.2931 117.563 62.8841 117.408 62.5758 117.1C62.2717 116.787 62.1197 116.323 62.1197 115.706V112.989H62.7043ZM66.9832 113.464V115.012H68.7047V115.462H66.9832V117.042H68.8974V117.518H66.3986V112.989H68.8974V113.464H66.9832ZM70.2326 117.062H71.8385V117.518H69.648V112.989H70.2326V117.062ZM74.6049 117.062H76.2107V117.518H74.0203V112.989H74.6049V117.062ZM77.3901 113.464V115.012H79.1116V115.462H77.3901V117.042H79.3043V117.518H76.8055V112.989H79.3043V113.464H77.3901ZM80.3504 112.989L81.7315 116.869L83.1318 112.989H83.7677L82.104 117.518H81.3653L79.708 112.989H80.3504ZM84.9427 113.464V115.012H86.6642V115.462H84.9427V117.042H86.8569V117.518H84.3582V112.989H86.8569V113.464H84.9427ZM88.1921 117.062H89.798V117.518H87.6076V112.989H88.1921V117.062Z" fill="#1D1D1F"/>
<path d="M62.0794 125.016C62.0794 124.548 62.2079 124.112 62.4649 123.708C62.731 123.304 63.121 122.979 63.6349 122.731C64.1579 122.483 64.7865 122.359 65.5206 122.359C66.2547 122.359 66.8787 122.483 67.3926 122.731C67.9157 122.979 68.3057 123.304 68.5626 123.708C68.8287 124.112 68.9618 124.548 68.9618 125.016C68.9618 125.548 68.8333 126.002 68.5764 126.379C68.3194 126.746 67.934 127.021 67.4201 127.204C67.9983 127.425 68.4387 127.746 68.7416 128.168C69.0536 128.581 69.2096 129.086 69.2096 129.682C69.2096 130.324 69.049 130.88 68.7278 131.348C68.4066 131.806 67.9661 132.155 67.4064 132.394C66.8558 132.632 66.2272 132.752 65.5206 132.752C64.814 132.752 64.1809 132.632 63.6211 132.394C63.0705 132.155 62.6346 131.806 62.3134 131.348C62.0014 130.88 61.8454 130.324 61.8454 129.682C61.8454 129.086 61.9969 128.581 62.2997 128.168C62.6117 127.746 63.0567 127.425 63.6349 127.204C63.121 127.021 62.731 126.741 62.4649 126.365C62.2079 125.989 62.0794 125.539 62.0794 125.016ZM63.9927 125.332C63.9927 125.773 64.1304 126.112 64.4057 126.351C64.681 126.59 65.0526 126.709 65.5206 126.709C65.9978 126.709 66.374 126.59 66.6493 126.351C66.9246 126.112 67.0623 125.773 67.0623 125.332C67.0623 124.892 66.92 124.552 66.6356 124.314C66.3603 124.066 65.9886 123.942 65.5206 123.942C65.0618 123.942 64.6901 124.066 64.4057 124.314C64.1304 124.552 63.9927 124.892 63.9927 125.332ZM63.7312 129.572C63.7312 130.058 63.8918 130.444 64.213 130.728C64.5341 131.013 64.97 131.155 65.5206 131.155C66.0712 131.155 66.5071 131.013 66.8283 130.728C67.1586 130.444 67.3238 130.058 67.3238 129.572C67.3238 129.076 67.154 128.7 66.8145 128.443C66.4841 128.177 66.0529 128.044 65.5206 128.044C64.9976 128.044 64.5663 128.177 64.2267 128.443C63.8964 128.7 63.7312 129.076 63.7312 129.572ZM76.5973 124.162L73.046 132.518H71.0364L74.629 124.383H70.1279V122.717H76.5973V124.162ZM79.4716 122.648C80.1139 122.648 80.637 122.846 81.0408 123.24C81.4537 123.626 81.6602 124.162 81.6602 124.851C81.6602 125.539 81.4537 126.08 81.0408 126.475C80.637 126.86 80.1139 127.053 79.4716 127.053C78.8292 127.053 78.3016 126.86 77.8886 126.475C77.4849 126.08 77.283 125.539 77.283 124.851C77.283 124.162 77.4849 123.626 77.8886 123.24C78.3016 122.846 78.8292 122.648 79.4716 122.648ZM85.6932 122.772L80.2837 132.518H78.4117L83.8212 122.772H85.6932ZM78.5906 124.851C78.5906 125.163 78.6686 125.415 78.8246 125.608C78.9806 125.791 79.1917 125.883 79.4578 125.883C79.7239 125.883 79.9396 125.791 80.1048 125.608C80.2699 125.415 80.3525 125.163 80.3525 124.851C80.3525 124.539 80.2699 124.291 80.1048 124.107C79.9396 123.915 79.7239 123.818 79.4578 123.818C79.1917 123.818 78.9806 123.915 78.8246 124.107C78.6686 124.291 78.5906 124.539 78.5906 124.851ZM84.6471 128.237C85.2895 128.237 85.8125 128.434 86.2163 128.829C86.62 129.214 86.8219 129.751 86.8219 130.439C86.8219 131.127 86.62 131.669 86.2163 132.063C85.8125 132.449 85.2895 132.641 84.6471 132.641C84.0048 132.641 83.4771 132.449 83.0642 132.063C82.6604 131.669 82.4585 131.127 82.4585 130.439C82.4585 129.751 82.6604 129.214 83.0642 128.829C83.4771 128.434 84.0048 128.237 84.6471 128.237ZM83.7662 130.439C83.7662 130.76 83.8442 131.017 84.0002 131.21C84.1562 131.393 84.3672 131.485 84.6333 131.485C84.8995 131.485 85.1151 131.393 85.2803 131.21C85.4455 131.017 85.528 130.76 85.528 130.439C85.528 130.127 85.4455 129.875 85.2803 129.682C85.1151 129.489 84.8995 129.393 84.6333 129.393C84.3672 129.393 84.1562 129.489 84.0002 129.682C83.8442 129.866 83.7662 130.118 83.7662 130.439Z" fill="#53A42A"/>
<path d="M136.775 63.8685C136.775 64.0912 136.722 64.2989 136.615 64.4916C136.508 64.6801 136.345 64.8321 136.127 64.9477C135.908 65.0633 135.64 65.1211 135.324 65.1211C135.015 65.1211 134.739 65.0676 134.495 64.9605C134.251 64.8492 134.056 64.695 133.91 64.4981C133.765 64.3011 133.681 64.0741 133.66 63.8172H134.444C134.465 64.0141 134.548 64.1833 134.694 64.3246C134.844 64.4659 135.043 64.5366 135.291 64.5366C135.514 64.5366 135.685 64.4766 135.805 64.3567C135.93 64.2368 135.992 64.0827 135.992 63.8942C135.992 63.7315 135.947 63.5988 135.857 63.496C135.767 63.3889 135.655 63.3054 135.523 63.2455C135.39 63.1855 135.208 63.117 134.977 63.0399C134.694 62.95 134.463 62.8601 134.283 62.7701C134.107 62.6802 133.958 62.5496 133.833 62.3783C133.709 62.207 133.647 61.9822 133.647 61.7038C133.647 61.4597 133.707 61.2456 133.827 61.0615C133.947 60.8773 134.118 60.736 134.341 60.6375C134.563 60.5347 134.82 60.4833 135.112 60.4833C135.574 60.4833 135.94 60.5947 136.21 60.8174C136.484 61.0401 136.64 61.3313 136.679 61.691H135.889C135.859 61.5197 135.778 61.3741 135.645 61.2542C135.516 61.13 135.339 61.0679 135.112 61.0679C134.906 61.0679 134.741 61.1214 134.617 61.2285C134.493 61.3313 134.431 61.4811 134.431 61.6781C134.431 61.8323 134.474 61.9608 134.559 62.0635C134.645 62.162 134.752 62.2413 134.88 62.3012C135.013 62.3569 135.193 62.4233 135.42 62.5003C135.707 62.5903 135.94 62.6823 136.12 62.7765C136.304 62.8665 136.458 62.9992 136.583 63.1748C136.711 63.3504 136.775 63.5816 136.775 63.8685ZM138.369 61.1321V62.5068H140.039V63.072H138.369V64.4788H140.232V65.0762H137.637V60.5412H140.232V61.1321H138.369ZM143.454 65.0762L142.324 63.2647H141.803V65.0762H141.071V60.5412H142.671C143.189 60.5412 143.581 60.6675 143.846 60.9201C144.116 61.1728 144.251 61.5068 144.251 61.9222C144.251 62.2777 144.15 62.5689 143.949 62.7958C143.752 63.0228 143.465 63.1684 143.088 63.2326L144.277 65.0762H143.454ZM141.803 62.7444H142.613C143.204 62.7444 143.499 62.4832 143.499 61.9608C143.499 61.7124 143.426 61.5197 143.281 61.3826C143.14 61.2413 142.917 61.1707 142.613 61.1707H141.803V62.7444ZM145.495 60.5412L146.799 64.2925L148.109 60.5412H148.906L147.268 65.0762H146.33L144.698 60.5412H145.495ZM150.309 60.5412V65.0762H149.577V60.5412H150.309ZM153.347 60.4962C153.904 60.4962 154.367 60.6375 154.735 60.9201C155.103 61.2028 155.352 61.5861 155.48 62.07H154.703C154.596 61.7959 154.424 61.5796 154.189 61.4212C153.958 61.2585 153.673 61.1771 153.335 61.1771C153.065 61.1771 152.823 61.2435 152.609 61.3762C152.399 61.509 152.232 61.6995 152.108 61.9479C151.988 62.192 151.928 62.4789 151.928 62.8087C151.928 63.1341 151.988 63.421 152.108 63.6694C152.232 63.9135 152.399 64.1019 152.609 64.2347C152.823 64.3674 153.065 64.4338 153.335 64.4338C153.673 64.4338 153.958 64.3546 154.189 64.1961C154.424 64.0334 154.596 63.8172 154.703 63.5474H155.48C155.352 64.0313 155.103 64.4145 154.735 64.6972C154.367 64.9755 153.904 65.1147 153.347 65.1147C152.919 65.1147 152.54 65.0184 152.21 64.8257C151.881 64.6287 151.626 64.3567 151.446 64.0099C151.266 63.6587 151.176 63.2583 151.176 62.8087C151.176 62.359 151.266 61.9608 151.446 61.6139C151.626 61.2627 151.881 60.9887 152.21 60.7917C152.54 60.5947 152.919 60.4962 153.347 60.4962ZM157.071 61.1321V62.5068H158.742V63.072H157.071V64.4788H158.934V65.0762H156.339V60.5412H158.934V61.1321H157.071ZM162.891 60.3998C163.191 60.3998 163.448 60.4534 163.662 60.5604C163.876 60.6632 164.037 60.8067 164.144 60.9908C164.255 61.1749 164.311 61.3805 164.311 61.6075C164.311 61.8944 164.23 62.1342 164.067 62.3269C163.908 62.5153 163.684 62.6288 163.392 62.6673V62.6995C163.705 62.7894 163.949 62.9243 164.125 63.1041C164.304 63.2797 164.394 63.5238 164.394 63.8364C164.394 64.2176 164.268 64.528 164.015 64.7678C163.763 65.0034 163.401 65.1211 162.93 65.1211C162.446 65.1211 162.056 64.9991 161.761 64.755C161.465 64.5066 161.296 64.1405 161.253 63.6566H161.979C162.005 63.9135 162.097 64.1191 162.255 64.2732C162.414 64.4231 162.628 64.4981 162.898 64.4981C163.15 64.4981 163.343 64.4317 163.476 64.2989C163.613 64.1662 163.681 63.9949 163.681 63.785C163.681 63.5324 163.583 63.3397 163.386 63.2069C163.193 63.0742 162.913 63.0078 162.544 63.0078H162.371V62.404H162.544C163.242 62.4125 163.591 62.1749 163.591 61.691C163.591 61.4811 163.527 61.3163 163.399 61.1964C163.27 61.0765 163.095 61.0165 162.872 61.0165C162.649 61.0165 162.463 61.085 162.313 61.2221C162.163 61.3548 162.073 61.5497 162.043 61.8066H161.324C161.354 61.3612 161.504 61.0165 161.774 60.7724C162.043 60.524 162.416 60.3998 162.891 60.3998ZM165.131 64.0998V63.4831L167.386 60.5026H168.17V63.4574H168.806V64.0998H168.17V65.0762H167.431V64.0998H165.131ZM167.482 61.3762L165.889 63.4574H167.482V61.3762Z" fill="#1D1D1F"/>
<path d="M140.895 73.178C140.895 73.9488 140.733 74.6279 140.41 75.2152C140.087 75.8025 139.617 76.2613 139.001 76.5917C138.391 76.9147 137.665 77.0762 136.82 77.0762H134.056V69.3019H136.82C137.665 69.3019 138.391 69.4634 139.001 69.7864C139.617 70.1021 140.087 70.5535 140.41 71.1408C140.733 71.7208 140.895 72.3998 140.895 73.178ZM136.688 75.6887C137.525 75.6887 138.171 75.4685 138.626 75.028C139.089 74.5875 139.32 73.9709 139.32 73.178C139.32 72.3778 139.089 71.7575 138.626 71.317C138.171 70.8765 137.525 70.6563 136.688 70.6563H135.609V75.6887H136.688ZM144.447 70.8986C144.96 70.8986 145.401 71.0197 145.768 71.262C146.135 71.5042 146.396 71.8309 146.55 72.242V70.9757H148.091V77.0762H146.55V75.7988C146.396 76.2099 146.135 76.5403 145.768 76.7899C145.401 77.0321 144.96 77.1533 144.447 77.1533C143.933 77.1533 143.47 77.0285 143.059 76.7789C142.648 76.5293 142.325 76.1695 142.09 75.6997C141.863 75.2225 141.749 74.6646 141.749 74.0259C141.749 73.3872 141.863 72.833 142.09 72.3631C142.325 71.886 142.648 71.5226 143.059 71.273C143.47 71.0234 143.933 70.8986 144.447 70.8986ZM144.931 72.253C144.447 72.253 144.058 72.4109 143.764 72.7265C143.47 73.0422 143.323 73.4753 143.323 74.0259C143.323 74.5765 143.47 75.0096 143.764 75.3253C144.058 75.6336 144.447 75.7878 144.931 75.7878C145.401 75.7878 145.786 75.63 146.087 75.3143C146.396 74.9913 146.55 74.5618 146.55 74.0259C146.55 73.4827 146.396 73.0532 146.087 72.7375C145.786 72.4145 145.401 72.253 144.931 72.253ZM152.152 75.5235L153.694 70.9757H155.346L153.088 77.0762H151.194L148.937 70.9757H150.6L152.152 75.5235ZM156.033 69.2248C156.033 68.9752 156.121 68.7733 156.297 68.6191C156.473 68.4576 156.704 68.3769 156.991 68.3769C157.277 68.3769 157.508 68.4576 157.684 68.6191C157.861 68.7733 157.949 68.9752 157.949 69.2248C157.949 69.467 157.861 69.6689 157.684 69.8304C157.508 69.9846 157.277 70.0617 156.991 70.0617C156.704 70.0617 156.473 69.9846 156.297 69.8304C156.121 69.6689 156.033 69.467 156.033 69.2248ZM157.762 70.9757V77.0762H156.209V70.9757H157.762ZM161.556 70.8986C162.07 70.8986 162.506 71.0197 162.866 71.262C163.233 71.5042 163.497 71.8309 163.659 72.242V68.9275H165.201V77.0762H163.659V75.7988C163.497 76.2099 163.233 76.5403 162.866 76.7899C162.506 77.0321 162.07 77.1533 161.556 77.1533C161.042 77.1533 160.579 77.0285 160.168 76.7789C159.757 76.5293 159.434 76.1695 159.199 75.6997C158.972 75.2225 158.858 74.6646 158.858 74.0259C158.858 73.3872 158.972 72.833 159.199 72.3631C159.434 71.886 159.757 71.5226 160.168 71.273C160.579 71.0234 161.042 70.8986 161.556 70.8986ZM162.04 72.253C161.556 72.253 161.167 72.4109 160.873 72.7265C160.579 73.0422 160.433 73.4753 160.433 74.0259C160.433 74.5765 160.579 75.0096 160.873 75.3253C161.167 75.6336 161.556 75.7878 162.04 75.7878C162.51 75.7878 162.895 75.63 163.196 75.3143C163.505 74.9913 163.659 74.5618 163.659 74.0259C163.659 73.4827 163.505 73.0532 163.196 72.7375C162.895 72.4145 162.51 72.253 162.04 72.253ZM170.558 74.1911V77.0762H169.006V69.3019H171.836C172.753 69.3019 173.444 69.5221 173.906 69.9626C174.376 70.403 174.611 71.0013 174.611 71.7575C174.611 72.4989 174.368 73.0899 173.884 73.5304C173.407 73.9709 172.724 74.1911 171.836 74.1911H170.558ZM171.671 72.9468C172.581 72.9468 173.036 72.5503 173.036 71.7575C173.036 71.3684 172.93 71.0711 172.717 70.8655C172.504 70.66 172.155 70.5572 171.671 70.5572H170.558V72.9468H171.671ZM178.009 70.8986C178.523 70.8986 178.963 71.0197 179.33 71.262C179.697 71.5042 179.958 71.8309 180.112 72.242V70.9757H181.654V77.0762H180.112V75.7988C179.958 76.2099 179.697 76.5403 179.33 76.7899C178.963 77.0321 178.523 77.1533 178.009 77.1533C177.495 77.1533 177.032 77.0285 176.621 76.7789C176.21 76.5293 175.887 76.1695 175.652 75.6997C175.425 75.2225 175.311 74.6646 175.311 74.0259C175.311 73.3872 175.425 72.833 175.652 72.3631C175.887 71.886 176.21 71.5226 176.621 71.273C177.032 71.0234 177.495 70.8986 178.009 70.8986ZM178.493 72.253C178.009 72.253 177.62 72.4109 177.326 72.7265C177.032 73.0422 176.886 73.4753 176.886 74.0259C176.886 74.5765 177.032 75.0096 177.326 75.3253C177.62 75.6336 178.009 75.7878 178.493 75.7878C178.963 75.7878 179.349 75.63 179.65 75.3143C179.958 74.9913 180.112 74.5618 180.112 74.0259C180.112 73.4827 179.958 73.0532 179.65 72.7375C179.349 72.4145 178.963 72.253 178.493 72.253ZM184.613 72.1429C184.841 71.7538 185.142 71.4492 185.516 71.2289C185.891 71.0013 186.309 70.8876 186.772 70.8876V72.5503H186.32C185.182 72.5503 184.613 73.0789 184.613 74.136V77.0762H183.061V70.9757H184.613V72.1429ZM191.199 77.0762L189.184 74.4113V77.0762H187.631V68.9275H189.184V73.5084L191.188 70.9757H193.027L190.461 74.0149L193.093 77.0762H191.199ZM199.584 73.7947C199.584 73.9488 199.566 74.125 199.529 74.3232H195.058C195.08 74.8665 195.227 75.2666 195.499 75.5235C195.77 75.7805 196.108 75.9089 196.512 75.9089C196.871 75.9089 197.169 75.8208 197.404 75.6446C197.646 75.4685 197.8 75.2299 197.866 74.9289H199.507C199.426 75.3547 199.254 75.7364 198.989 76.0741C198.725 76.4118 198.384 76.6761 197.965 76.8669C197.554 77.0578 197.095 77.1533 196.589 77.1533C195.994 77.1533 195.465 77.0285 195.003 76.7789C194.54 76.5219 194.181 76.1585 193.924 75.6887C193.667 75.2189 193.538 74.6646 193.538 74.0259C193.538 73.3872 193.667 72.833 193.924 72.3631C194.181 71.886 194.54 71.5226 195.003 71.273C195.465 71.0234 195.994 70.8986 196.589 70.8986C197.191 70.8986 197.716 71.0234 198.163 71.273C198.619 71.5226 198.967 71.8676 199.209 72.3081C199.459 72.7412 199.584 73.2367 199.584 73.7947ZM198.02 73.6405C198.042 73.1413 197.91 72.7632 197.624 72.5063C197.345 72.2493 197 72.1209 196.589 72.1209C196.17 72.1209 195.818 72.2493 195.532 72.5063C195.245 72.7632 195.087 73.1413 195.058 73.6405H198.02ZM202.239 72.1429C202.466 71.7538 202.767 71.4492 203.142 71.2289C203.516 71.0013 203.935 70.8876 204.397 70.8876V72.5503H203.946C202.808 72.5503 202.239 73.0789 202.239 74.136V77.0762H200.686V70.9757H202.239V72.1429Z" fill="#003366"/>
<path d="M136.866 95.851V96.3661H135.481V100.758H134.848V96.3661H133.463V95.851H136.866ZM139.09 96.8881C139.456 96.8881 139.783 96.9669 140.071 97.1247C140.363 97.2825 140.591 97.5098 140.753 97.8068C140.92 98.1037 141.004 98.4517 141.004 98.8508C141.004 99.2498 140.92 99.5978 140.753 99.8948C140.591 100.187 140.363 100.412 140.071 100.57C139.783 100.728 139.456 100.807 139.09 100.807C138.723 100.807 138.394 100.728 138.101 100.57C137.814 100.412 137.586 100.187 137.419 99.8948C137.252 99.5978 137.169 99.2498 137.169 98.8508C137.169 98.4517 137.252 98.1037 137.419 97.8068C137.586 97.5098 137.814 97.2825 138.101 97.1247C138.394 96.9669 138.723 96.8881 139.09 96.8881ZM139.09 97.4449C138.862 97.4449 138.651 97.4959 138.456 97.598C138.266 97.7001 138.111 97.8578 137.99 98.0713C137.874 98.2801 137.816 98.5399 137.816 98.8508C137.816 99.157 137.874 99.4169 137.99 99.6303C138.111 99.8391 138.266 99.9945 138.456 100.097C138.651 100.199 138.862 100.25 139.09 100.25C139.317 100.25 139.526 100.199 139.716 100.097C139.911 99.9945 140.067 99.8391 140.183 99.6303C140.303 99.4169 140.363 99.157 140.363 98.8508C140.363 98.5399 140.303 98.2801 140.183 98.0713C140.067 97.8578 139.911 97.7001 139.716 97.598C139.526 97.4959 139.317 97.4449 139.09 97.4449ZM143.513 100.201V100.758H143.04C142.65 100.758 142.358 100.665 142.163 100.479C141.973 100.294 141.878 99.9829 141.878 99.5468V97.4866H141.307V96.9368H141.878V95.9833H142.518V96.9368H143.506V97.4866H142.518V99.5607C142.518 99.8066 142.562 99.976 142.65 100.069C142.743 100.157 142.901 100.201 143.124 100.201H143.513ZM145.713 96.8881C146.084 96.8881 146.398 96.9809 146.653 97.1665C146.913 97.3521 147.094 97.6003 147.196 97.9112V96.9368H147.829V100.758H147.196V99.7834C147.094 100.094 146.913 100.343 146.653 100.528C146.398 100.714 146.084 100.807 145.713 100.807C145.374 100.807 145.073 100.728 144.808 100.57C144.544 100.412 144.335 100.187 144.182 99.8948C144.033 99.5978 143.959 99.2498 143.959 98.8508C143.959 98.4517 144.033 98.1037 144.182 97.8068C144.335 97.5098 144.544 97.2825 144.808 97.1247C145.073 96.9669 145.374 96.8881 145.713 96.8881ZM145.894 97.4518C145.504 97.4518 145.191 97.5771 144.954 97.8277C144.722 98.0736 144.606 98.4146 144.606 98.8508C144.606 99.2869 144.722 99.6303 144.954 99.8809C145.191 100.127 145.504 100.25 145.894 100.25C146.145 100.25 146.367 100.192 146.562 100.076C146.762 99.9597 146.917 99.7973 147.029 99.5885C147.14 99.3751 147.196 99.1292 147.196 98.8508C147.196 98.5724 147.14 98.3265 147.029 98.113C146.917 97.8996 146.762 97.7372 146.562 97.6258C146.367 97.5098 146.145 97.4518 145.894 97.4518ZM149.331 95.6074V100.758H148.698V95.6074H149.331ZM156.704 95.9345V100.758H156.071V96.9089L154.533 100.758H153.969L152.424 96.9229V100.758H151.791V95.9345H152.549L154.261 99.9853L155.946 95.9345H156.704ZM157.467 95.8162C157.467 95.7002 157.506 95.6074 157.585 95.5378C157.664 95.4636 157.769 95.4265 157.898 95.4265C158.028 95.4265 158.133 95.4636 158.212 95.5378C158.291 95.6074 158.33 95.7002 158.33 95.8162C158.33 95.9322 158.291 96.0273 158.212 96.1016C158.133 96.1712 158.028 96.206 157.898 96.206C157.769 96.206 157.664 96.1712 157.585 96.1016C157.506 96.0273 157.467 95.9322 157.467 95.8162ZM158.212 96.9368V100.758H157.578V96.9368H158.212ZM159.724 95.6074V100.758H159.091V95.6074H159.724ZM164.118 98.635C164.118 98.7696 164.109 98.8856 164.09 98.983H161.035C161.049 99.4192 161.172 99.7463 161.404 99.9644C161.64 100.182 161.928 100.291 162.267 100.291C162.573 100.291 162.828 100.215 163.032 100.062C163.241 99.9041 163.369 99.6953 163.415 99.4354H164.09C164.044 99.6999 163.939 99.9365 163.777 100.145C163.619 100.354 163.413 100.517 163.157 100.633C162.902 100.749 162.615 100.807 162.294 100.807C161.928 100.807 161.603 100.728 161.32 100.57C161.037 100.412 160.814 100.187 160.652 99.8948C160.494 99.5978 160.415 99.2498 160.415 98.8508C160.415 98.4517 160.494 98.1037 160.652 97.8068C160.814 97.5098 161.037 97.2825 161.32 97.1247C161.603 96.9669 161.928 96.8881 162.294 96.8881C162.666 96.8881 162.988 96.9669 163.262 97.1247C163.54 97.2825 163.751 97.4936 163.895 97.7581C164.044 98.0225 164.118 98.3149 164.118 98.635ZM163.478 98.6768C163.492 98.3937 163.445 98.1571 163.338 97.9669C163.232 97.7766 163.086 97.6351 162.9 97.5423C162.714 97.4495 162.513 97.4031 162.294 97.4031C161.946 97.4031 161.654 97.5121 161.417 97.7302C161.181 97.9437 161.053 98.2592 161.035 98.6768H163.478ZM166.373 96.8881C166.744 96.8881 167.058 96.9809 167.313 97.1665C167.573 97.3521 167.754 97.6003 167.856 97.9112V96.9368H168.489V100.758H167.856V99.7834C167.754 100.094 167.573 100.343 167.313 100.528C167.058 100.714 166.744 100.807 166.373 100.807C166.034 100.807 165.733 100.728 165.468 100.57C165.204 100.412 164.995 100.187 164.842 99.8948C164.693 99.5978 164.619 99.2498 164.619 98.8508C164.619 98.4517 164.693 98.1037 164.842 97.8068C164.995 97.5098 165.204 97.2825 165.468 97.1247C165.733 96.9669 166.034 96.8881 166.373 96.8881ZM166.554 97.4518C166.164 97.4518 165.851 97.5771 165.615 97.8277C165.383 98.0736 165.267 98.4146 165.267 98.8508C165.267 99.2869 165.383 99.6303 165.615 99.8809C165.851 100.127 166.164 100.25 166.554 100.25C166.805 100.25 167.027 100.192 167.222 100.076C167.422 99.9597 167.577 99.7973 167.689 99.5885C167.8 99.3751 167.856 99.1292 167.856 98.8508C167.856 98.5724 167.8 98.3265 167.689 98.113C167.577 97.8996 167.422 97.7372 167.222 97.6258C167.027 97.5098 166.805 97.4518 166.554 97.4518ZM170.924 96.8881C171.295 96.8881 171.608 96.9809 171.863 97.1665C172.123 97.3521 172.304 97.6003 172.406 97.9112V96.9368H173.04V100.82C173.04 101.173 172.965 101.486 172.817 101.76C172.668 102.034 172.46 102.247 172.191 102.4C171.921 102.553 171.608 102.63 171.251 102.63C170.736 102.63 170.316 102.505 169.991 102.254C169.666 102.008 169.46 101.674 169.372 101.252H169.998C170.072 101.507 170.212 101.707 170.416 101.851C170.625 101.999 170.891 102.073 171.216 102.073C171.559 102.073 171.843 101.962 172.065 101.739C172.293 101.521 172.406 101.215 172.406 100.82V99.7834C172.304 100.094 172.123 100.343 171.863 100.528C171.608 100.714 171.295 100.807 170.924 100.807C170.585 100.807 170.283 100.728 170.019 100.57C169.755 100.412 169.546 100.187 169.393 99.8948C169.244 99.5978 169.17 99.2498 169.17 98.8508C169.17 98.4517 169.244 98.1037 169.393 97.8068C169.546 97.5098 169.755 97.2825 170.019 97.1247C170.283 96.9669 170.585 96.8881 170.924 96.8881ZM171.105 97.4518C170.715 97.4518 170.402 97.5771 170.165 97.8277C169.933 98.0736 169.817 98.4146 169.817 98.8508C169.817 99.2869 169.933 99.6303 170.165 99.8809C170.402 100.127 170.715 100.25 171.105 100.25C171.355 100.25 171.578 100.192 171.773 100.076C171.972 99.9597 172.128 99.7973 172.239 99.5885C172.351 99.3751 172.406 99.1292 172.406 98.8508C172.406 98.5724 172.351 98.3265 172.239 98.113C172.128 97.8996 171.972 97.7372 171.773 97.6258C171.578 97.5098 171.355 97.4518 171.105 97.4518ZM177.423 98.635C177.423 98.7696 177.414 98.8856 177.395 98.983H174.34C174.354 99.4192 174.477 99.7463 174.709 99.9644C174.946 100.182 175.233 100.291 175.572 100.291C175.878 100.291 176.133 100.215 176.338 100.062C176.546 99.9041 176.674 99.6953 176.72 99.4354H177.395C177.349 99.6999 177.245 99.9365 177.082 100.145C176.924 100.354 176.718 100.517 176.463 100.633C176.208 100.749 175.92 100.807 175.6 100.807C175.233 100.807 174.908 100.728 174.625 100.57C174.342 100.412 174.12 100.187 173.957 99.8948C173.799 99.5978 173.721 99.2498 173.721 98.8508C173.721 98.4517 173.799 98.1037 173.957 97.8068C174.12 97.5098 174.342 97.2825 174.625 97.1247C174.908 96.9669 175.233 96.8881 175.6 96.8881C175.971 96.8881 176.293 96.9669 176.567 97.1247C176.846 97.2825 177.057 97.4936 177.201 97.7581C177.349 98.0225 177.423 98.3149 177.423 98.635ZM176.783 98.6768C176.797 98.3937 176.75 98.1571 176.644 97.9669C176.537 97.7766 176.391 97.6351 176.205 97.5423C176.02 97.4495 175.818 97.4031 175.6 97.4031C175.252 97.4031 174.959 97.5121 174.723 97.7302C174.486 97.9437 174.359 98.2592 174.34 98.6768H176.783ZM178.662 97.0064V97.7511H177.897V97.0064H178.662ZM178.662 100.013V100.758H177.897V100.013H178.662Z" fill="#1D1D1F"/>
<path d="M198.786 100.117C198.527 99.6767 198.397 99.0619 198.397 98.2731C198.397 97.4889 198.527 96.8788 198.786 96.4426C199.046 96.0018 199.496 95.7814 200.137 95.7814C200.777 95.7814 201.227 96.0018 201.487 96.4426C201.751 96.8834 201.884 97.4936 201.884 98.2731C201.884 99.0619 201.751 99.6767 201.487 100.117C201.227 100.558 200.777 100.779 200.137 100.779C199.496 100.779 199.046 100.558 198.786 100.117ZM201.167 99.2893C201.227 99.0155 201.257 98.6768 201.257 98.2731C201.257 97.8741 201.227 97.54 201.167 97.2709C201.111 97.0017 201.002 96.7883 200.84 96.6305C200.677 96.4681 200.443 96.3869 200.137 96.3869C199.835 96.3869 199.603 96.4681 199.441 96.6305C199.278 96.7883 199.167 97.0017 199.107 97.2709C199.051 97.54 199.023 97.8741 199.023 98.2731C199.023 98.6768 199.051 99.0155 199.107 99.2893C199.167 99.5584 199.278 99.7741 199.441 99.9365C199.603 100.099 199.835 100.18 200.137 100.18C200.443 100.18 200.677 100.099 200.84 99.9365C201.002 99.7741 201.111 99.5584 201.167 99.2893ZM204.217 95.7188C204.533 95.7188 204.804 95.7745 205.031 95.8858C205.259 95.9972 205.43 96.1503 205.546 96.3452C205.662 96.5401 205.72 96.7605 205.72 97.0064C205.72 97.3126 205.63 97.5701 205.449 97.7789C205.273 97.9877 205.013 98.113 204.669 98.1548V98.1965C205.027 98.2893 205.305 98.4332 205.505 98.6281C205.709 98.8229 205.811 99.0921 205.811 99.4354C205.811 99.8391 205.676 100.169 205.407 100.424C205.138 100.679 204.751 100.807 204.245 100.807C203.739 100.807 203.329 100.677 203.013 100.417C202.702 100.152 202.519 99.7672 202.463 99.2614H203.09C203.131 99.5677 203.247 99.8113 203.438 99.9922C203.632 100.173 203.895 100.264 204.224 100.264C204.535 100.264 204.774 100.185 204.941 100.027C205.108 99.8646 205.191 99.6558 205.191 99.4006C205.191 99.0944 205.071 98.8624 204.83 98.7046C204.593 98.5422 204.254 98.461 203.813 98.461H203.646V97.9321H203.813C204.667 97.9321 205.094 97.6467 205.094 97.076C205.094 96.8254 205.015 96.6259 204.857 96.4774C204.7 96.3289 204.482 96.2547 204.203 96.2547C203.925 96.2547 203.69 96.3359 203.5 96.4983C203.31 96.6561 203.199 96.8904 203.166 97.2013H202.547C202.579 96.7373 202.739 96.3753 203.027 96.1155C203.319 95.851 203.716 95.7188 204.217 95.7188ZM209.798 96.3521H207.279V97.9947C207.395 97.8369 207.562 97.7117 207.78 97.6189C207.998 97.5261 208.237 97.4797 208.497 97.4797C208.845 97.4797 209.132 97.5539 209.36 97.7024C209.592 97.8462 209.761 98.0388 209.868 98.2801C209.979 98.5167 210.035 98.7812 210.035 99.0735C210.035 99.5793 209.893 99.9922 209.61 100.312C209.327 100.633 208.912 100.793 208.364 100.793C207.872 100.793 207.471 100.66 207.16 100.396C206.849 100.127 206.675 99.7672 206.638 99.3171H207.265C207.316 99.6048 207.434 99.8298 207.62 99.9922C207.81 100.15 208.049 100.229 208.336 100.229C208.694 100.229 208.963 100.122 209.144 99.9087C209.325 99.6953 209.415 99.4145 209.415 99.0665C209.415 98.7278 209.322 98.4633 209.137 98.2731C208.951 98.0829 208.689 97.9877 208.35 97.9877C208.109 97.9877 207.898 98.0411 207.717 98.1478C207.536 98.2499 207.399 98.3891 207.306 98.5654H206.694V95.7884H209.798V96.3521ZM213.412 97.1595C213.375 96.8672 213.275 96.6421 213.112 96.4844C212.955 96.322 212.734 96.2408 212.451 96.2408C212.057 96.2408 211.758 96.3939 211.553 96.7001C211.354 97.0064 211.254 97.4913 211.254 98.1548L211.261 98.4123C211.331 98.1339 211.491 97.9135 211.741 97.7511C211.992 97.5841 212.287 97.5005 212.625 97.5005C213.112 97.5005 213.493 97.6467 213.767 97.939C214.045 98.2313 214.184 98.6397 214.184 99.164C214.184 99.4702 214.124 99.7486 214.003 99.9992C213.883 100.245 213.697 100.442 213.447 100.591C213.201 100.735 212.894 100.807 212.528 100.807C211.827 100.807 211.345 100.586 211.08 100.145C210.82 99.7045 210.69 99.106 210.69 98.3497C210.69 97.4773 210.83 96.8231 211.108 96.3869C211.391 95.9461 211.85 95.7257 212.486 95.7257C212.955 95.7257 213.314 95.858 213.565 96.1225C213.82 96.3869 213.971 96.7326 214.017 97.1595H213.412ZM211.331 99.0596C211.331 99.3983 211.428 99.6837 211.623 99.9157C211.823 100.143 212.12 100.257 212.514 100.257C212.839 100.257 213.099 100.162 213.293 99.9713C213.488 99.7765 213.586 99.505 213.586 99.157C213.586 98.7812 213.488 98.4958 213.293 98.3009C213.099 98.1014 212.829 98.0017 212.486 98.0017C212.291 98.0017 212.106 98.0411 211.929 98.12C211.753 98.1989 211.609 98.3195 211.498 98.4819C211.386 98.6397 211.331 98.8322 211.331 99.0596ZM217.595 97.1595C217.558 96.8672 217.459 96.6421 217.296 96.4844C217.138 96.322 216.918 96.2408 216.635 96.2408C216.241 96.2408 215.941 96.3939 215.737 96.7001C215.538 97.0064 215.438 97.4913 215.438 98.1548L215.445 98.4123C215.514 98.1339 215.674 97.9135 215.925 97.7511C216.176 97.5841 216.47 97.5005 216.809 97.5005C217.296 97.5005 217.677 97.6467 217.95 97.939C218.229 98.2313 218.368 98.6397 218.368 99.164C218.368 99.4702 218.308 99.7486 218.187 99.9992C218.066 100.245 217.881 100.442 217.63 100.591C217.384 100.735 217.078 100.807 216.711 100.807C216.011 100.807 215.528 100.586 215.264 100.145C215.004 99.7045 214.874 99.106 214.874 98.3497C214.874 97.4773 215.013 96.8231 215.292 96.3869C215.575 95.9461 216.034 95.7257 216.67 95.7257C217.138 95.7257 217.498 95.858 217.749 96.1225C218.004 96.3869 218.155 96.7326 218.201 97.1595H217.595ZM215.514 99.0596C215.514 99.3983 215.612 99.6837 215.807 99.9157C216.006 100.143 216.303 100.257 216.698 100.257C217.022 100.257 217.282 100.162 217.477 99.9713C217.672 99.7765 217.769 99.505 217.769 99.157C217.769 98.7812 217.672 98.4958 217.477 98.3009C217.282 98.1014 217.013 98.0017 216.67 98.0017C216.475 98.0017 216.289 98.0411 216.113 98.12C215.937 98.1989 215.793 98.3195 215.681 98.4819C215.57 98.6397 215.514 98.8322 215.514 99.0596ZM222.315 96.3521H219.795V97.9947C219.911 97.8369 220.078 97.7117 220.297 97.6189C220.515 97.5261 220.754 97.4797 221.013 97.4797C221.361 97.4797 221.649 97.5539 221.876 97.7024C222.108 97.8462 222.278 98.0388 222.385 98.2801C222.496 98.5167 222.552 98.7812 222.552 99.0735C222.552 99.5793 222.41 99.9922 222.127 100.312C221.844 100.633 221.429 100.793 220.881 100.793C220.389 100.793 219.988 100.66 219.677 100.396C219.366 100.127 219.192 99.7672 219.155 99.3171H219.781C219.833 99.6048 219.951 99.8298 220.136 99.9922C220.327 100.15 220.566 100.229 220.853 100.229C221.211 100.229 221.48 100.122 221.661 99.9087C221.842 99.6953 221.932 99.4145 221.932 99.0665C221.932 98.7278 221.839 98.4633 221.654 98.2731C221.468 98.0829 221.206 97.9877 220.867 97.9877C220.626 97.9877 220.415 98.0411 220.234 98.1478C220.053 98.2499 219.916 98.3891 219.823 98.5654H219.211V95.7884H222.315V96.3521ZM225.929 97.1595C225.892 96.8672 225.792 96.6421 225.629 96.4844C225.472 96.322 225.251 96.2408 224.968 96.2408C224.574 96.2408 224.274 96.3939 224.07 96.7001C223.871 97.0064 223.771 97.4913 223.771 98.1548L223.778 98.4123C223.848 98.1339 224.008 97.9135 224.258 97.7511C224.509 97.5841 224.803 97.5005 225.142 97.5005C225.629 97.5005 226.01 97.6467 226.284 97.939C226.562 98.2313 226.701 98.6397 226.701 99.164C226.701 99.4702 226.641 99.7486 226.52 99.9992C226.4 100.245 226.214 100.442 225.963 100.591C225.718 100.735 225.411 100.807 225.045 100.807C224.344 100.807 223.862 100.586 223.597 100.145C223.337 99.7045 223.207 99.106 223.207 98.3497C223.207 97.4773 223.346 96.8231 223.625 96.3869C223.908 95.9461 224.367 95.7257 225.003 95.7257C225.472 95.7257 225.831 95.858 226.082 96.1225C226.337 96.3869 226.488 96.7326 226.534 97.1595H225.929ZM223.848 99.0596C223.848 99.3983 223.945 99.6837 224.14 99.9157C224.339 100.143 224.636 100.257 225.031 100.257C225.356 100.257 225.615 100.162 225.81 99.9713C226.005 99.7765 226.103 99.505 226.103 99.157C226.103 98.7812 226.005 98.4958 225.81 98.3009C225.615 98.1014 225.346 98.0017 225.003 98.0017C224.808 98.0017 224.622 98.0411 224.446 98.12C224.27 98.1989 224.126 98.3195 224.015 98.4819C223.903 98.6397 223.848 98.8322 223.848 99.0596Z" fill="#1D1D1F"/>
<path d="M134.493 111.708V113.385H136.358V113.872H134.493V115.585H136.567V116.1H133.86V111.193H136.567V111.708H134.493ZM139.253 112.216C139.698 112.216 140.058 112.36 140.331 112.647C140.605 112.93 140.742 113.341 140.742 113.879V116.1H140.109V113.935C140.109 113.555 140.011 113.262 139.816 113.058C139.622 112.854 139.357 112.752 139.023 112.752C138.675 112.752 138.397 112.866 138.188 113.093C137.979 113.316 137.875 113.643 137.875 114.074V116.1H137.241V112.279H137.875V113.183C137.972 112.872 138.144 112.634 138.39 112.466C138.64 112.299 138.928 112.216 139.253 112.216ZM143.14 112.23C143.512 112.23 143.825 112.323 144.08 112.508C144.34 112.694 144.521 112.942 144.623 113.253V112.279H145.256V116.162C145.256 116.515 145.182 116.828 145.033 117.102C144.885 117.376 144.676 117.589 144.407 117.742C144.138 117.895 143.825 117.972 143.467 117.972C142.952 117.972 142.533 117.847 142.208 117.596C141.883 117.35 141.676 117.016 141.588 116.594H142.215C142.289 116.849 142.428 117.048 142.632 117.192C142.841 117.341 143.108 117.415 143.433 117.415C143.776 117.415 144.059 117.304 144.282 117.081C144.509 116.863 144.623 116.557 144.623 116.162V115.125C144.521 115.436 144.34 115.684 144.08 115.87C143.825 116.056 143.512 116.148 143.14 116.148C142.802 116.148 142.5 116.069 142.236 115.912C141.971 115.754 141.762 115.529 141.609 115.237C141.461 114.94 141.386 114.592 141.386 114.193C141.386 113.794 141.461 113.446 141.609 113.149C141.762 112.852 141.971 112.624 142.236 112.466C142.5 112.309 142.802 112.23 143.14 112.23ZM143.321 112.794C142.932 112.794 142.618 112.919 142.382 113.169C142.15 113.415 142.034 113.756 142.034 114.193C142.034 114.629 142.15 114.972 142.382 115.223C142.618 115.469 142.932 115.592 143.321 115.592C143.572 115.592 143.795 115.534 143.989 115.418C144.189 115.302 144.344 115.139 144.456 114.93C144.567 114.717 144.623 114.471 144.623 114.193C144.623 113.914 144.567 113.668 144.456 113.455C144.344 113.241 144.189 113.079 143.989 112.968C143.795 112.852 143.572 112.794 143.321 112.794ZM146.014 111.158C146.014 111.042 146.053 110.949 146.132 110.88C146.211 110.805 146.315 110.768 146.445 110.768C146.575 110.768 146.679 110.805 146.758 110.88C146.837 110.949 146.877 111.042 146.877 111.158C146.877 111.274 146.837 111.369 146.758 111.443C146.679 111.513 146.575 111.548 146.445 111.548C146.315 111.548 146.211 111.513 146.132 111.443C146.053 111.369 146.014 111.274 146.014 111.158ZM146.758 112.279V116.1H146.125V112.279H146.758ZM149.649 112.216C150.094 112.216 150.454 112.36 150.728 112.647C151.001 112.93 151.138 113.341 151.138 113.879V116.1H150.505V113.935C150.505 113.555 150.408 113.262 150.213 113.058C150.018 112.854 149.753 112.752 149.419 112.752C149.071 112.752 148.793 112.866 148.584 113.093C148.375 113.316 148.271 113.643 148.271 114.074V116.1H147.637V112.279H148.271V113.183C148.368 112.872 148.54 112.634 148.786 112.466C149.036 112.299 149.324 112.216 149.649 112.216ZM155.485 113.977C155.485 114.111 155.476 114.227 155.458 114.325H152.402C152.416 114.761 152.539 115.088 152.771 115.306C153.008 115.524 153.295 115.633 153.634 115.633C153.94 115.633 154.195 115.557 154.4 115.404C154.608 115.246 154.736 115.037 154.782 114.777H155.458C155.411 115.042 155.307 115.278 155.144 115.487C154.987 115.696 154.78 115.858 154.525 115.974C154.27 116.09 153.982 116.148 153.662 116.148C153.295 116.148 152.971 116.069 152.687 115.912C152.404 115.754 152.182 115.529 152.019 115.237C151.862 114.94 151.783 114.592 151.783 114.193C151.783 113.794 151.862 113.446 152.019 113.149C152.182 112.852 152.404 112.624 152.687 112.466C152.971 112.309 153.295 112.23 153.662 112.23C154.033 112.23 154.356 112.309 154.629 112.466C154.908 112.624 155.119 112.835 155.263 113.1C155.411 113.364 155.485 113.657 155.485 113.977ZM154.845 114.019C154.859 113.736 154.813 113.499 154.706 113.309C154.599 113.118 154.453 112.977 154.267 112.884C154.082 112.791 153.88 112.745 153.662 112.745C153.314 112.745 153.022 112.854 152.785 113.072C152.548 113.285 152.421 113.601 152.402 114.019H154.845ZM160.762 111.193V111.708H159.377V116.1H158.743V111.708H157.358V111.193H160.762ZM161.141 111.158C161.141 111.042 161.18 110.949 161.259 110.88C161.338 110.805 161.442 110.768 161.572 110.768C161.702 110.768 161.807 110.805 161.885 110.88C161.964 110.949 162.004 111.042 162.004 111.158C162.004 111.274 161.964 111.369 161.885 111.443C161.807 111.513 161.702 111.548 161.572 111.548C161.442 111.548 161.338 111.513 161.259 111.443C161.18 111.369 161.141 111.274 161.141 111.158ZM161.885 112.279V116.1H161.252V112.279H161.885ZM167.463 112.216C167.908 112.216 168.265 112.36 168.534 112.647C168.808 112.93 168.945 113.341 168.945 113.879V116.1H168.312V113.935C168.312 113.559 168.219 113.272 168.033 113.072C167.852 112.872 167.602 112.773 167.282 112.773C166.948 112.773 166.678 112.884 166.474 113.107C166.275 113.325 166.175 113.647 166.175 114.074V116.1H165.542V113.935C165.542 113.559 165.449 113.272 165.263 113.072C165.078 112.872 164.827 112.773 164.512 112.773C164.173 112.773 163.901 112.884 163.697 113.107C163.498 113.325 163.398 113.647 163.398 114.074V116.1H162.765V112.279H163.398V113.149C163.491 112.847 163.655 112.617 163.892 112.46C164.133 112.297 164.409 112.216 164.72 112.216C165.045 112.216 165.326 112.299 165.562 112.466C165.804 112.629 165.975 112.87 166.078 113.19C166.184 112.879 166.363 112.64 166.613 112.473C166.864 112.302 167.147 112.216 167.463 112.216ZM173.304 113.977C173.304 114.111 173.295 114.227 173.276 114.325H170.221C170.235 114.761 170.358 115.088 170.59 115.306C170.826 115.524 171.114 115.633 171.453 115.633C171.759 115.633 172.014 115.557 172.218 115.404C172.427 115.246 172.555 115.037 172.601 114.777H173.276C173.23 115.042 173.125 115.278 172.963 115.487C172.805 115.696 172.599 115.858 172.344 115.974C172.088 116.09 171.801 116.148 171.481 116.148C171.114 116.148 170.789 116.069 170.506 115.912C170.223 115.754 170 115.529 169.838 115.237C169.68 114.94 169.601 114.592 169.601 114.193C169.601 113.794 169.68 113.446 169.838 113.149C170 112.852 170.223 112.624 170.506 112.466C170.789 112.309 171.114 112.23 171.481 112.23C171.852 112.23 172.174 112.309 172.448 112.466C172.726 112.624 172.938 112.835 173.081 113.1C173.23 113.364 173.304 113.657 173.304 113.977ZM172.664 114.019C172.678 113.736 172.631 113.499 172.525 113.309C172.418 113.118 172.272 112.977 172.086 112.884C171.9 112.791 171.699 112.745 171.481 112.745C171.133 112.745 170.84 112.854 170.604 113.072C170.367 113.285 170.239 113.601 170.221 114.019H172.664ZM174.543 112.348V113.093H173.778V112.348H174.543ZM174.543 115.355V116.1H173.778V115.355H174.543Z" fill="#1D1D1F"/>
<path d="M198.09 111.784V111.193H199.496V116.1H198.828V111.784H198.09ZM200.736 115.633C200.801 115.837 200.833 116.028 200.833 116.204C200.833 116.445 200.773 116.638 200.653 116.782C200.532 116.93 200.351 117.004 200.11 117.004V116.733C200.226 116.733 200.309 116.7 200.36 116.636C200.416 116.575 200.444 116.478 200.444 116.343V116.281H200.089V115.633H200.736ZM204.639 111.694H202.12V113.336C202.236 113.179 202.403 113.053 202.621 112.961C202.839 112.868 203.078 112.821 203.338 112.821C203.686 112.821 203.973 112.896 204.201 113.044C204.433 113.188 204.602 113.381 204.709 113.622C204.82 113.858 204.876 114.123 204.876 114.415C204.876 114.921 204.734 115.334 204.451 115.654C204.168 115.974 203.753 116.134 203.205 116.134C202.714 116.134 202.312 116.002 202.001 115.738C201.691 115.469 201.517 115.109 201.479 114.659H202.106C202.157 114.947 202.275 115.172 202.461 115.334C202.651 115.492 202.89 115.571 203.178 115.571C203.535 115.571 203.804 115.464 203.985 115.25C204.166 115.037 204.256 114.756 204.256 114.408C204.256 114.07 204.164 113.805 203.978 113.615C203.792 113.425 203.53 113.33 203.192 113.33C202.95 113.33 202.739 113.383 202.558 113.49C202.377 113.592 202.24 113.731 202.148 113.907H201.535V111.13H204.639V111.694ZM208.253 112.501C208.216 112.209 208.116 111.984 207.954 111.826C207.796 111.664 207.576 111.583 207.292 111.583C206.898 111.583 206.599 111.736 206.395 112.042C206.195 112.348 206.095 112.833 206.095 113.497L206.102 113.754C206.172 113.476 206.332 113.255 206.583 113.093C206.833 112.926 207.128 112.842 207.466 112.842C207.954 112.842 208.334 112.988 208.608 113.281C208.886 113.573 209.026 113.981 209.026 114.506C209.026 114.812 208.965 115.09 208.845 115.341C208.724 115.587 208.538 115.784 208.288 115.933C208.042 116.076 207.736 116.148 207.369 116.148C206.668 116.148 206.186 115.928 205.921 115.487C205.662 115.046 205.532 114.448 205.532 113.691C205.532 112.819 205.671 112.165 205.949 111.729C206.232 111.288 206.692 111.068 207.327 111.068C207.796 111.068 208.156 111.2 208.406 111.464C208.661 111.729 208.812 112.074 208.858 112.501H208.253ZM206.172 114.401C206.172 114.74 206.269 115.025 206.464 115.257C206.664 115.485 206.961 115.598 207.355 115.598C207.68 115.598 207.94 115.503 208.135 115.313C208.33 115.118 208.427 114.847 208.427 114.499C208.427 114.123 208.33 113.838 208.135 113.643C207.94 113.443 207.671 113.343 207.327 113.343C207.132 113.343 206.947 113.383 206.77 113.462C206.594 113.541 206.45 113.661 206.339 113.824C206.228 113.981 206.172 114.174 206.172 114.401ZM209.486 114.972V114.443L212.005 111.158H212.687V114.422H213.411V114.972H212.687V116.1H212.047V114.972H209.486ZM212.089 111.931L210.154 114.422H212.089V111.931ZM217.547 112.216C217.992 112.216 218.352 112.36 218.625 112.647C218.899 112.93 219.036 113.341 219.036 113.879V116.1H218.403V113.935C218.403 113.555 218.305 113.262 218.11 113.058C217.915 112.854 217.651 112.752 217.317 112.752C216.969 112.752 216.69 112.866 216.482 113.093C216.273 113.316 216.168 113.643 216.168 114.074V116.1H215.535V110.949H216.168V113.183C216.266 112.872 216.438 112.634 216.683 112.466C216.934 112.299 217.222 112.216 217.547 112.216ZM220.502 113.051C220.627 112.787 220.81 112.582 221.051 112.439C221.293 112.29 221.58 112.216 221.914 112.216V112.905H221.72C221.362 112.905 221.07 112.998 220.843 113.183C220.615 113.364 220.502 113.666 220.502 114.088V116.1H219.868V112.279H220.502V113.051ZM223.597 112.23C224.029 112.23 224.375 112.344 224.634 112.571C224.899 112.794 225.059 113.095 225.115 113.476H224.509C224.481 113.248 224.386 113.063 224.224 112.919C224.066 112.77 223.853 112.696 223.583 112.696C223.356 112.696 223.177 112.752 223.047 112.863C222.922 112.97 222.86 113.116 222.86 113.302C222.86 113.441 222.901 113.555 222.985 113.643C223.073 113.726 223.18 113.791 223.305 113.838C223.435 113.879 223.611 113.926 223.834 113.977C224.117 114.042 224.344 114.109 224.516 114.179C224.692 114.244 224.841 114.35 224.961 114.499C225.087 114.647 225.149 114.847 225.149 115.097C225.149 115.408 225.031 115.661 224.794 115.856C224.562 116.051 224.252 116.148 223.862 116.148C223.407 116.148 223.036 116.039 222.748 115.821C222.461 115.603 222.291 115.299 222.24 114.909H222.853C222.876 115.141 222.976 115.329 223.152 115.473C223.333 115.617 223.569 115.689 223.862 115.689C224.08 115.689 224.249 115.633 224.37 115.522C224.495 115.411 224.558 115.264 224.558 115.083C224.558 114.935 224.514 114.817 224.426 114.728C224.337 114.64 224.228 114.573 224.098 114.527C223.969 114.48 223.79 114.432 223.563 114.38C223.279 114.316 223.052 114.251 222.88 114.186C222.713 114.121 222.57 114.019 222.449 113.879C222.333 113.736 222.275 113.543 222.275 113.302C222.275 112.982 222.393 112.724 222.63 112.529C222.867 112.33 223.189 112.23 223.597 112.23Z" fill="#1D1D1F"/>
<path d="M136.087 126.484C136.658 126.484 137.135 126.625 137.521 126.908C137.91 127.192 138.173 127.577 138.307 128.064H137.639C137.523 127.767 137.328 127.528 137.054 127.347C136.785 127.166 136.465 127.076 136.094 127.076C135.76 127.076 135.46 127.154 135.196 127.312C134.931 127.465 134.723 127.686 134.57 127.973C134.421 128.261 134.347 128.6 134.347 128.99C134.347 129.389 134.423 129.734 134.577 130.027C134.73 130.314 134.941 130.537 135.21 130.695C135.484 130.848 135.797 130.924 136.149 130.924C136.451 130.924 136.727 130.859 136.978 130.73C137.228 130.6 137.432 130.412 137.59 130.166C137.753 129.915 137.85 129.623 137.883 129.289H135.955V128.816H138.418V129.4C138.377 129.79 138.256 130.143 138.057 130.458C137.857 130.774 137.588 131.024 137.249 131.21C136.91 131.395 136.525 131.488 136.094 131.488C135.621 131.488 135.203 131.384 134.841 131.175C134.479 130.962 134.196 130.667 133.992 130.291C133.792 129.911 133.693 129.477 133.693 128.99C133.693 128.502 133.792 128.071 133.992 127.695C134.196 127.314 134.479 127.018 134.841 126.804C135.203 126.591 135.618 126.484 136.087 126.484ZM140.704 127.57C141.075 127.57 141.388 127.662 141.643 127.848C141.903 128.034 142.084 128.282 142.186 128.593V127.618H142.819V131.439H142.186V130.465C142.084 130.776 141.903 131.024 141.643 131.21C141.388 131.395 141.075 131.488 140.704 131.488C140.365 131.488 140.063 131.409 139.799 131.252C139.534 131.094 139.325 130.869 139.172 130.576C139.024 130.279 138.95 129.931 138.95 129.532C138.95 129.133 139.024 128.785 139.172 128.488C139.325 128.191 139.534 127.964 139.799 127.806C140.063 127.649 140.365 127.57 140.704 127.57ZM140.885 128.133C140.495 128.133 140.182 128.259 139.945 128.509C139.713 128.755 139.597 129.096 139.597 129.532C139.597 129.969 139.713 130.312 139.945 130.562C140.182 130.808 140.495 130.931 140.885 130.931C141.135 130.931 141.358 130.873 141.553 130.757C141.752 130.641 141.908 130.479 142.019 130.27C142.13 130.057 142.186 129.811 142.186 129.532C142.186 129.254 142.13 129.008 142.019 128.795C141.908 128.581 141.752 128.419 141.553 128.307C141.358 128.191 141.135 128.133 140.885 128.133ZM144.322 126.289V131.439H143.688V126.289H144.322ZM145.834 126.289V131.439H145.201V126.289H145.834ZM148.446 127.57C148.813 127.57 149.14 127.649 149.427 127.806C149.72 127.964 149.947 128.191 150.11 128.488C150.277 128.785 150.36 129.133 150.36 129.532C150.36 129.931 150.277 130.279 150.11 130.576C149.947 130.869 149.72 131.094 149.427 131.252C149.14 131.409 148.813 131.488 148.446 131.488C148.08 131.488 147.75 131.409 147.458 131.252C147.17 131.094 146.943 130.869 146.776 130.576C146.609 130.279 146.525 129.931 146.525 129.532C146.525 129.133 146.609 128.785 146.776 128.488C146.943 128.191 147.17 127.964 147.458 127.806C147.75 127.649 148.08 127.57 148.446 127.57ZM148.446 128.126C148.219 128.126 148.008 128.178 147.813 128.28C147.623 128.382 147.467 128.539 147.346 128.753C147.23 128.962 147.172 129.222 147.172 129.532C147.172 129.839 147.23 130.098 147.346 130.312C147.467 130.521 147.623 130.676 147.813 130.778C148.008 130.88 148.219 130.931 148.446 130.931C148.673 130.931 148.882 130.88 149.073 130.778C149.267 130.676 149.423 130.521 149.539 130.312C149.659 130.098 149.72 129.839 149.72 129.532C149.72 129.222 149.659 128.962 149.539 128.753C149.423 128.539 149.267 128.382 149.073 128.28C148.882 128.178 148.673 128.126 148.446 128.126ZM153.058 127.556C153.503 127.556 153.863 127.7 154.136 127.987C154.41 128.27 154.547 128.681 154.547 129.219V131.439H153.914V129.275C153.914 128.894 153.816 128.602 153.621 128.398C153.427 128.194 153.162 128.092 152.828 128.092C152.48 128.092 152.202 128.205 151.993 128.433C151.784 128.655 151.68 128.983 151.68 129.414V131.439H151.046V127.618H151.68V128.523C151.777 128.212 151.949 127.973 152.195 127.806C152.445 127.639 152.733 127.556 153.058 127.556ZM156.576 127.57C157.008 127.57 157.354 127.683 157.614 127.911C157.878 128.133 158.038 128.435 158.094 128.816H157.488C157.46 128.588 157.365 128.403 157.203 128.259C157.045 128.11 156.832 128.036 156.563 128.036C156.335 128.036 156.157 128.092 156.027 128.203C155.901 128.31 155.839 128.456 155.839 128.642C155.839 128.781 155.88 128.894 155.964 128.983C156.052 129.066 156.159 129.131 156.284 129.177C156.414 129.219 156.59 129.266 156.813 129.317C157.096 129.382 157.324 129.449 157.495 129.518C157.672 129.583 157.82 129.69 157.941 129.839C158.066 129.987 158.129 130.187 158.129 130.437C158.129 130.748 158.01 131.001 157.774 131.196C157.542 131.391 157.231 131.488 156.841 131.488C156.386 131.488 156.015 131.379 155.727 131.161C155.44 130.943 155.27 130.639 155.219 130.249H155.832C155.855 130.481 155.955 130.669 156.131 130.813C156.312 130.957 156.549 131.029 156.841 131.029C157.059 131.029 157.228 130.973 157.349 130.862C157.474 130.75 157.537 130.604 157.537 130.423C157.537 130.275 157.493 130.156 157.405 130.068C157.317 129.98 157.208 129.913 157.078 129.866C156.948 129.82 156.769 129.771 156.542 129.72C156.259 129.655 156.031 129.59 155.86 129.525C155.693 129.46 155.549 129.358 155.428 129.219C155.312 129.075 155.254 128.883 155.254 128.642C155.254 128.321 155.372 128.064 155.609 127.869C155.846 127.669 156.168 127.57 156.576 127.57ZM163.52 130.166C163.52 130.398 163.465 130.614 163.353 130.813C163.242 131.013 163.073 131.175 162.845 131.3C162.618 131.426 162.337 131.488 162.003 131.488C161.678 131.488 161.388 131.43 161.133 131.314C160.882 131.194 160.681 131.031 160.527 130.827C160.379 130.618 160.293 130.382 160.27 130.117H160.945C160.959 130.256 161.005 130.393 161.084 130.528C161.168 130.658 161.284 130.767 161.432 130.855C161.585 130.938 161.769 130.98 161.982 130.98C162.261 130.98 162.474 130.906 162.622 130.757C162.771 130.609 162.845 130.419 162.845 130.187C162.845 129.987 162.792 129.825 162.685 129.699C162.583 129.574 162.455 129.477 162.302 129.407C162.149 129.333 161.94 129.254 161.676 129.17C161.365 129.068 161.114 128.973 160.924 128.885C160.739 128.792 160.579 128.655 160.444 128.474C160.314 128.294 160.249 128.055 160.249 127.758C160.249 127.502 160.309 127.277 160.43 127.082C160.555 126.888 160.732 126.737 160.959 126.63C161.191 126.523 161.462 126.47 161.773 126.47C162.256 126.47 162.639 126.588 162.922 126.825C163.205 127.057 163.369 127.354 163.416 127.716H162.734C162.697 127.521 162.597 127.349 162.435 127.201C162.272 127.052 162.052 126.978 161.773 126.978C161.518 126.978 161.314 127.045 161.161 127.18C161.008 127.31 160.931 127.495 160.931 127.737C160.931 127.927 160.98 128.082 161.077 128.203C161.179 128.319 161.305 128.412 161.453 128.481C161.602 128.546 161.806 128.621 162.066 128.704C162.381 128.806 162.634 128.904 162.824 128.996C163.019 129.089 163.184 129.231 163.318 129.421C163.453 129.607 163.52 129.855 163.52 130.166ZM166.342 127.57C166.68 127.57 166.982 127.649 167.246 127.806C167.511 127.964 167.717 128.191 167.866 128.488C168.019 128.785 168.096 129.133 168.096 129.532C168.096 129.931 168.019 130.279 167.866 130.576C167.717 130.869 167.511 131.094 167.246 131.252C166.982 131.409 166.68 131.488 166.342 131.488C165.97 131.488 165.655 131.395 165.395 131.21C165.14 131.02 164.964 130.771 164.866 130.465V133.249H164.233V127.618H164.866V128.593C164.964 128.287 165.14 128.041 165.395 127.855C165.655 127.665 165.97 127.57 166.342 127.57ZM166.161 128.133C165.915 128.133 165.692 128.191 165.492 128.307C165.293 128.419 165.138 128.581 165.026 128.795C164.915 129.008 164.859 129.254 164.859 129.532C164.859 129.811 164.915 130.057 165.026 130.27C165.138 130.479 165.293 130.641 165.492 130.757C165.692 130.873 165.915 130.931 166.161 130.931C166.555 130.931 166.868 130.808 167.1 130.562C167.337 130.312 167.455 129.969 167.455 129.532C167.455 129.096 167.337 128.755 167.1 128.509C166.868 128.259 166.555 128.133 166.161 128.133ZM172.298 129.317C172.298 129.451 172.289 129.567 172.27 129.665H169.215C169.229 130.101 169.352 130.428 169.584 130.646C169.82 130.864 170.108 130.973 170.447 130.973C170.753 130.973 171.008 130.897 171.212 130.743C171.421 130.586 171.549 130.377 171.595 130.117H172.27C172.224 130.382 172.12 130.618 171.957 130.827C171.799 131.036 171.593 131.198 171.338 131.314C171.082 131.43 170.795 131.488 170.475 131.488C170.108 131.488 169.783 131.409 169.5 131.252C169.217 131.094 168.994 130.869 168.832 130.576C168.674 130.279 168.595 129.931 168.595 129.532C168.595 129.133 168.674 128.785 168.832 128.488C168.994 128.191 169.217 127.964 169.5 127.806C169.783 127.649 170.108 127.57 170.475 127.57C170.846 127.57 171.168 127.649 171.442 127.806C171.72 127.964 171.932 128.175 172.075 128.44C172.224 128.704 172.298 128.996 172.298 129.317ZM171.658 129.358C171.672 129.075 171.625 128.839 171.519 128.648C171.412 128.458 171.266 128.317 171.08 128.224C170.895 128.131 170.693 128.085 170.475 128.085C170.127 128.085 169.834 128.194 169.598 128.412C169.361 128.625 169.233 128.941 169.215 129.358H171.658ZM174.999 127.556C175.444 127.556 175.804 127.7 176.078 127.987C176.351 128.27 176.488 128.681 176.488 129.219V131.439H175.855V129.275C175.855 128.894 175.757 128.602 175.563 128.398C175.368 128.194 175.103 128.092 174.769 128.092C174.421 128.092 174.143 128.205 173.934 128.433C173.725 128.655 173.621 128.983 173.621 129.414V131.439H172.987V127.618H173.621V128.523C173.718 128.212 173.89 127.973 174.136 127.806C174.386 127.639 174.674 127.556 174.999 127.556ZM179.144 130.883V131.439H178.671C178.281 131.439 177.989 131.347 177.794 131.161C177.604 130.975 177.508 130.665 177.508 130.228V128.168H176.938V127.618H177.508V126.665H178.149V127.618H179.137V128.168H178.149V130.242C178.149 130.488 178.193 130.658 178.281 130.75C178.374 130.839 178.532 130.883 178.754 130.883H179.144ZM180.328 127.688V128.433H179.562V127.688H180.328ZM180.328 130.695V131.439H179.562V130.695H180.328Z" fill="#1D1D1F"/>
<path d="M198.292 130.952C199.081 130.423 199.712 129.899 200.185 129.379C200.659 128.855 200.895 128.368 200.895 127.918C200.895 127.639 200.823 127.417 200.68 127.25C200.54 127.078 200.313 126.992 199.998 126.992C199.673 126.992 199.427 127.096 199.26 127.305C199.093 127.509 199 127.792 198.981 128.154H198.355C198.387 127.607 198.557 127.187 198.863 126.895C199.169 126.598 199.564 126.449 200.046 126.449C200.506 126.449 200.87 126.572 201.139 126.818C201.408 127.064 201.543 127.412 201.543 127.862C201.543 128.233 201.422 128.611 201.181 128.996C200.944 129.377 200.645 129.732 200.283 130.061C199.926 130.386 199.557 130.662 199.176 130.89H201.668V131.412H198.292V130.952ZM201.9 127.124V126.533H203.306V131.439H202.638V127.124H201.9ZM204.782 130.061C204.824 130.354 204.926 130.579 205.089 130.736C205.251 130.894 205.474 130.973 205.757 130.973C206.147 130.973 206.441 130.822 206.641 130.521C206.84 130.219 206.94 129.741 206.94 129.087C206.94 128.962 206.938 128.867 206.933 128.802C206.868 129.08 206.71 129.303 206.46 129.47C206.209 129.637 205.915 129.72 205.576 129.72C205.089 129.72 204.706 129.574 204.428 129.282C204.149 128.99 204.01 128.581 204.01 128.057C204.01 127.751 204.07 127.472 204.191 127.222C204.312 126.971 204.495 126.774 204.741 126.63C204.991 126.482 205.3 126.407 205.666 126.407C206.372 126.407 206.854 126.625 207.114 127.062C207.379 127.493 207.511 128.087 207.511 128.843C207.511 129.706 207.376 130.365 207.107 130.82C206.838 131.27 206.388 131.495 205.757 131.495C205.288 131.495 204.919 131.363 204.65 131.098C204.386 130.829 204.23 130.484 204.184 130.061H204.782ZM206.87 128.154C206.87 127.82 206.771 127.537 206.571 127.305C206.376 127.073 206.082 126.957 205.687 126.957C205.362 126.957 205.103 127.055 204.908 127.25C204.713 127.444 204.615 127.716 204.615 128.064C204.615 128.435 204.713 128.72 204.908 128.92C205.103 129.119 205.369 129.219 205.708 129.219C205.903 129.219 206.089 129.18 206.265 129.101C206.446 129.022 206.592 128.901 206.703 128.739C206.815 128.577 206.87 128.382 206.87 128.154ZM212.08 126.484C212.651 126.484 213.128 126.625 213.514 126.908C213.903 127.192 214.165 127.577 214.3 128.064H213.632C213.516 127.767 213.321 127.528 213.047 127.347C212.778 127.166 212.458 127.076 212.087 127.076C211.753 127.076 211.453 127.154 211.189 127.312C210.924 127.465 210.716 127.686 210.563 127.973C210.414 128.261 210.34 128.6 210.34 128.99C210.34 129.389 210.416 129.734 210.569 130.027C210.723 130.314 210.934 130.537 211.203 130.695C211.477 130.848 211.79 130.924 212.142 130.924C212.444 130.924 212.72 130.859 212.971 130.73C213.221 130.6 213.425 130.412 213.583 130.166C213.746 129.915 213.843 129.623 213.875 129.289H211.948V128.816H214.411V129.4C214.37 129.79 214.249 130.143 214.049 130.458C213.85 130.774 213.581 131.024 213.242 131.21C212.903 131.395 212.518 131.488 212.087 131.488C211.613 131.488 211.196 131.384 210.834 131.175C210.472 130.962 210.189 130.667 209.985 130.291C209.785 129.911 209.686 129.477 209.686 128.99C209.686 128.502 209.785 128.071 209.985 127.695C210.189 127.314 210.472 127.018 210.834 126.804C211.196 126.591 211.611 126.484 212.08 126.484ZM216.697 127.57C217.068 127.57 217.381 127.662 217.636 127.848C217.896 128.034 218.077 128.282 218.179 128.593V127.618H218.812V131.439H218.179V130.465C218.077 130.776 217.896 131.024 217.636 131.21C217.381 131.395 217.068 131.488 216.697 131.488C216.358 131.488 216.056 131.409 215.792 131.252C215.527 131.094 215.318 130.869 215.165 130.576C215.017 130.279 214.943 129.931 214.943 129.532C214.943 129.133 215.017 128.785 215.165 128.488C215.318 128.191 215.527 127.964 215.792 127.806C216.056 127.649 216.358 127.57 216.697 127.57ZM216.877 128.133C216.488 128.133 216.175 128.259 215.938 128.509C215.706 128.755 215.59 129.096 215.59 129.532C215.59 129.969 215.706 130.312 215.938 130.562C216.175 130.808 216.488 130.931 216.877 130.931C217.128 130.931 217.351 130.873 217.546 130.757C217.745 130.641 217.901 130.479 218.012 130.27C218.123 130.057 218.179 129.811 218.179 129.532C218.179 129.254 218.123 129.008 218.012 128.795C217.901 128.581 217.745 128.419 217.546 128.307C217.351 128.191 217.128 128.133 216.877 128.133ZM220.315 126.289V131.439H219.681V126.289H220.315ZM221.66 130.695V131.439H220.894V130.695H221.66Z" fill="#1D1D1F"/>
<path d="M17 23.8366C17 18.9563 20.9563 15 25.8366 15H245.163C250.044 15 254 18.9563 254 23.8366V39H17V23.8366Z" fill="#003366"/>
<path d="M25.2694 24.0017L26.7414 28.3552L28.2211 24.0017H29.3971L27.4501 29.5H26.0404L24.0935 24.0017H25.2694ZM34.0471 27.1792C34.0471 27.2882 34.0341 27.4128 34.0081 27.553H30.8462C30.8618 27.9372 30.9656 28.2202 31.1577 28.4019C31.3498 28.5836 31.5887 28.6745 31.8742 28.6745C32.1286 28.6745 32.3389 28.6122 32.5051 28.4876C32.6764 28.363 32.7854 28.1942 32.8322 27.9813H33.9926C33.9355 28.2825 33.8134 28.5525 33.6265 28.7913C33.4396 29.0301 33.1982 29.217 32.9023 29.352C32.6115 29.487 32.287 29.5545 31.9288 29.5545C31.5082 29.5545 31.1344 29.4663 30.8073 29.2897C30.4802 29.108 30.2258 28.851 30.0441 28.5187C29.8623 28.1864 29.7715 27.7944 29.7715 27.3427C29.7715 26.891 29.8623 26.499 30.0441 26.1668C30.2258 25.8293 30.4802 25.5723 30.8073 25.3957C31.1344 25.2192 31.5082 25.131 31.9288 25.131C32.3545 25.131 32.7257 25.2192 33.0424 25.3957C33.3643 25.5723 33.611 25.8163 33.7823 26.1278C33.9588 26.4341 34.0471 26.7846 34.0471 27.1792ZM32.9412 27.0702C32.9568 26.7171 32.8633 26.4497 32.6608 26.268C32.4635 26.0863 32.2195 25.9954 31.9288 25.9954C31.6328 25.9954 31.3836 26.0863 31.1811 26.268C30.9786 26.4497 30.867 26.7171 30.8462 27.0702H32.9412ZM37.3966 25.1232C37.8951 25.1232 38.2923 25.2867 38.5882 25.6138C38.8841 25.9409 39.0321 26.4004 39.0321 26.9923V29.5H37.9418V27.1169C37.9418 26.7742 37.8535 26.5094 37.677 26.3225C37.5005 26.1304 37.259 26.0344 36.9527 26.0344C36.6412 26.0344 36.392 26.1356 36.2051 26.3381C36.0182 26.5406 35.9247 26.8313 35.9247 27.2103V29.5H34.8266V23.7369H35.9247V26.0499C36.0389 25.7592 36.2258 25.5333 36.4854 25.3724C36.7502 25.2062 37.054 25.1232 37.3966 25.1232ZM39.8737 23.9472C39.8737 23.7707 39.936 23.6279 40.0606 23.5188C40.1852 23.4046 40.3488 23.3475 40.5512 23.3475C40.7537 23.3475 40.9173 23.4046 41.0419 23.5188C41.1665 23.6279 41.2288 23.7707 41.2288 23.9472C41.2288 24.1185 41.1665 24.2613 41.0419 24.3755C40.9173 24.4846 40.7537 24.5391 40.5512 24.5391C40.3488 24.5391 40.1852 24.4846 40.0606 24.3755C39.936 24.2613 39.8737 24.1185 39.8737 23.9472ZM41.0964 25.1855V29.5H39.9983V25.1855H41.0964ZM44.029 25.131C44.5845 25.131 45.0466 25.2815 45.4153 25.5827C45.7891 25.8838 46.0227 26.294 46.1162 26.8132H44.9558C44.909 26.5847 44.8026 26.4056 44.6365 26.2758C44.4703 26.1408 44.26 26.0733 44.0056 26.0733C43.7149 26.0733 43.4709 26.1823 43.2736 26.4004C43.0815 26.6133 42.9854 26.9274 42.9854 27.3427C42.9854 27.7581 43.0815 28.0748 43.2736 28.2929C43.4709 28.5057 43.7149 28.6122 44.0056 28.6122C44.26 28.6122 44.4703 28.5473 44.6365 28.4175C44.8026 28.2825 44.909 28.1008 44.9558 27.8723H46.1162C46.0227 28.3915 45.7891 28.8017 45.4153 29.1028C45.0466 29.4039 44.5845 29.5545 44.029 29.5545C43.6084 29.5545 43.2346 29.4663 42.9075 29.2897C42.5804 29.108 42.326 28.851 42.1443 28.5187C41.9626 28.1864 41.8717 27.7944 41.8717 27.3427C41.8717 26.891 41.9626 26.499 42.1443 26.1668C42.326 25.8293 42.5804 25.5723 42.9075 25.3957C43.2346 25.2192 43.6084 25.131 44.029 25.131ZM47.9945 23.7369V29.5H46.8964V23.7369H47.9945ZM53.0455 27.1792C53.0455 27.2882 53.0325 27.4128 53.0065 27.553H49.8446C49.8602 27.9372 49.964 28.2202 50.1561 28.4019C50.3482 28.5836 50.5871 28.6745 50.8726 28.6745C51.127 28.6745 51.3373 28.6122 51.5034 28.4876C51.6748 28.363 51.7838 28.1942 51.8305 27.9813H52.9909C52.9338 28.2825 52.8118 28.5525 52.6249 28.7913C52.438 29.0301 52.1966 29.217 51.9006 29.352C51.6099 29.487 51.2854 29.5545 50.9271 29.5545C50.5066 29.5545 50.1328 29.4663 49.8057 29.2897C49.4786 29.108 49.2242 28.851 49.0424 28.5187C48.8607 28.1864 48.7699 27.7944 48.7699 27.3427C48.7699 26.891 48.8607 26.499 49.0424 26.1668C49.2242 25.8293 49.4786 25.5723 49.8057 25.3957C50.1328 25.2192 50.5066 25.131 50.9271 25.131C51.3529 25.131 51.7241 25.2192 52.0408 25.3957C52.3627 25.5723 52.6093 25.8163 52.7807 26.1278C52.9572 26.4341 53.0455 26.7846 53.0455 27.1792ZM51.9396 27.0702C51.9551 26.7171 51.8617 26.4497 51.6592 26.268C51.4619 26.0863 51.2179 25.9954 50.9271 25.9954C50.6312 25.9954 50.382 26.0863 50.1795 26.268C49.977 26.4497 49.8654 26.7171 49.8446 27.0702H51.9396ZM60.0769 24.0017V29.5H58.9711V27.1091H56.6191V29.5H55.521V24.0017H56.6191V26.2291H58.9711V24.0017H60.0769ZM65.1305 27.1792C65.1305 27.2882 65.1175 27.4128 65.0915 27.553H61.9296C61.9452 27.9372 62.049 28.2202 62.2411 28.4019C62.4333 28.5836 62.6721 28.6745 62.9576 28.6745C63.212 28.6745 63.4223 28.6122 63.5885 28.4876C63.7598 28.363 63.8688 28.1942 63.9156 27.9813H65.076C65.0189 28.2825 64.8968 28.5525 64.7099 28.7913C64.523 29.0301 64.2816 29.217 63.9857 29.352C63.6949 29.487 63.3704 29.5545 63.0122 29.5545C62.5916 29.5545 62.2178 29.4663 61.8907 29.2897C61.5636 29.108 61.3092 28.851 61.1275 28.5187C60.9458 28.1864 60.8549 27.7944 60.8549 27.3427C60.8549 26.891 60.9458 26.499 61.1275 26.1668C61.3092 25.8293 61.5636 25.5723 61.8907 25.3957C62.2178 25.2192 62.5916 25.131 63.0122 25.131C63.4379 25.131 63.8091 25.2192 64.1258 25.3957C64.4477 25.5723 64.6944 25.8163 64.8657 26.1278C65.0422 26.4341 65.1305 26.7846 65.1305 27.1792ZM64.0246 27.0702C64.0402 26.7171 63.9467 26.4497 63.7442 26.268C63.5469 26.0863 63.3029 25.9954 63.0122 25.9954C62.7162 25.9954 62.467 26.0863 62.2645 26.268C62.062 26.4497 61.9504 26.7171 61.9296 27.0702H64.0246ZM67.6 25.131C67.9634 25.131 68.275 25.2166 68.5346 25.388C68.7942 25.5593 68.9785 25.7903 69.0875 26.0811V25.1855H70.1778V29.5H69.0875V28.5966C68.9785 28.8873 68.7942 29.121 68.5346 29.2975C68.275 29.4688 67.9634 29.5545 67.6 29.5545C67.2366 29.5545 66.9095 29.4663 66.6187 29.2897C66.328 29.1132 66.0995 28.8588 65.9334 28.5265C65.7724 28.189 65.6919 27.7944 65.6919 27.3427C65.6919 26.891 65.7724 26.499 65.9334 26.1668C66.0995 25.8293 66.328 25.5723 66.6187 25.3957C66.9095 25.2192 67.2366 25.131 67.6 25.131ZM67.9427 26.0889C67.6 26.0889 67.3248 26.2005 67.1171 26.4238C66.9095 26.647 66.8056 26.9533 66.8056 27.3427C66.8056 27.7321 66.9095 28.0385 67.1171 28.2617C67.3248 28.4798 67.6 28.5888 67.9427 28.5888C68.275 28.5888 68.5475 28.4772 68.7604 28.2539C68.9785 28.0255 69.0875 27.7217 69.0875 27.3427C69.0875 26.9585 68.9785 26.6548 68.7604 26.4315C68.5475 26.2031 68.275 26.0889 67.9427 26.0889ZM72.2711 23.7369V29.5H71.173V23.7369H72.2711ZM75.5697 28.5577V29.5H74.9934C74.5105 29.5 74.1393 29.3832 73.8797 29.1495C73.6253 28.9159 73.4981 28.5265 73.4981 27.9813V26.1122H72.8984V25.1855H73.4981V24.1185H74.5962V25.1855H75.5619V26.1122H74.5962V27.9969C74.5962 28.2046 74.6377 28.35 74.7208 28.433C74.8039 28.5161 74.9441 28.5577 75.1414 28.5577H75.5697ZM78.9299 25.1232C79.4283 25.1232 79.8255 25.2867 80.1215 25.6138C80.4174 25.9409 80.5654 26.4004 80.5654 26.9923V29.5H79.4751V27.1169C79.4751 26.7742 79.3868 26.5094 79.2103 26.3225C79.0337 26.1304 78.7923 26.0344 78.486 26.0344C78.1745 26.0344 77.9253 26.1356 77.7383 26.3381C77.5514 26.5406 77.458 26.8313 77.458 27.2103V29.5H76.3599V23.7369H77.458V26.0499C77.5722 25.7592 77.7591 25.5333 78.0187 25.3724C78.2835 25.2062 78.5872 25.1232 78.9299 25.1232ZM86.0935 29.5L84.8085 27.3583H84.3257V29.5H83.2276V24.0017H85.3225C85.9612 24.0017 86.4466 24.1575 86.7789 24.469C87.1164 24.7805 87.2851 25.1907 87.2851 25.6995C87.2851 26.1148 87.1683 26.4627 86.9346 26.7431C86.7062 27.0234 86.3739 27.2103 85.9378 27.3038L87.3085 29.5H86.0935ZM84.3257 26.6029H85.2291C85.8573 26.6029 86.1714 26.3251 86.1714 25.7696C86.1714 25.5048 86.0935 25.2997 85.9378 25.1543C85.7872 25.0037 85.551 24.9285 85.2291 24.9285H84.3257V26.6029ZM92.0841 27.1792C92.0841 27.2882 92.0712 27.4128 92.0452 27.553H88.8833C88.8989 27.9372 89.0027 28.2202 89.1948 28.4019C89.3869 28.5836 89.6257 28.6745 89.9113 28.6745C90.1657 28.6745 90.376 28.6122 90.5421 28.4876C90.7135 28.363 90.8225 28.1942 90.8692 27.9813H92.0296C91.9725 28.2825 91.8505 28.5525 91.6636 28.7913C91.4767 29.0301 91.2352 29.217 90.9393 29.352C90.6486 29.487 90.3241 29.5545 89.9658 29.5545C89.5453 29.5545 89.1714 29.4663 88.8443 29.2897C88.5173 29.108 88.2628 28.851 88.0811 28.5187C87.8994 28.1864 87.8085 27.7944 87.8085 27.3427C87.8085 26.891 87.8994 26.499 88.0811 26.1668C88.2628 25.8293 88.5173 25.5723 88.8443 25.3957C89.1714 25.2192 89.5453 25.131 89.9658 25.131C90.3916 25.131 90.7628 25.2192 91.0795 25.3957C91.4014 25.5723 91.648 25.8163 91.8193 26.1278C91.9959 26.4341 92.0841 26.7846 92.0841 27.1792ZM90.9782 27.0702C90.9938 26.7171 90.9004 26.4497 90.6979 26.268C90.5006 26.0863 90.2566 25.9954 89.9658 25.9954C89.6699 25.9954 89.4207 26.0863 89.2182 26.268C89.0157 26.4497 88.9041 26.7171 88.8833 27.0702H90.9782ZM95.4415 25.131C95.8049 25.131 96.132 25.2192 96.4228 25.3957C96.7135 25.5723 96.9394 25.8293 97.1003 26.1668C97.2665 26.499 97.3495 26.891 97.3495 27.3427C97.3495 27.7944 97.2665 28.189 97.1003 28.5265C96.9394 28.8588 96.7135 29.1132 96.4228 29.2897C96.132 29.4663 95.8049 29.5545 95.4415 29.5545C95.078 29.5545 94.7665 29.4688 94.5069 29.2975C94.2525 29.121 94.0708 28.8873 93.9618 28.5966V31.556H92.8637V25.1855H93.9618V26.0811C94.0708 25.7903 94.2525 25.5593 94.5069 25.388C94.7665 25.2166 95.078 25.131 95.4415 25.131ZM95.0988 26.0889C94.7665 26.0889 94.4913 26.2031 94.2733 26.4315C94.0604 26.6548 93.954 26.9585 93.954 27.3427C93.954 27.7217 94.0604 28.0255 94.2733 28.2539C94.4913 28.4772 94.7665 28.5888 95.0988 28.5888C95.4415 28.5888 95.7167 28.4798 95.9243 28.2617C96.132 28.0385 96.2359 27.7321 96.2359 27.3427C96.2359 26.9533 96.132 26.647 95.9243 26.4238C95.7167 26.2005 95.4415 26.0889 95.0988 26.0889ZM100.12 25.131C100.541 25.131 100.917 25.2192 101.25 25.3957C101.587 25.5723 101.852 25.8293 102.044 26.1668C102.236 26.499 102.332 26.891 102.332 27.3427C102.332 27.7944 102.236 28.1864 102.044 28.5187C101.852 28.851 101.587 29.108 101.25 29.2897C100.917 29.4663 100.541 29.5545 100.12 29.5545C99.6998 29.5545 99.3208 29.4663 98.9833 29.2897C98.651 29.108 98.3888 28.851 98.1967 28.5187C98.0046 28.1864 97.9086 27.7944 97.9086 27.3427C97.9086 26.891 98.0046 26.499 98.1967 26.1668C98.3888 25.8293 98.651 25.5723 98.9833 25.3957C99.3208 25.2192 99.6998 25.131 100.12 25.131ZM100.12 26.0811C99.814 26.0811 99.5544 26.1901 99.3415 26.4082C99.1287 26.621 99.0222 26.9326 99.0222 27.3427C99.0222 27.7529 99.1287 28.067 99.3415 28.2851C99.5544 28.4979 99.814 28.6044 100.12 28.6044C100.427 28.6044 100.686 28.4979 100.899 28.2851C101.112 28.067 101.218 27.7529 101.218 27.3427C101.218 26.9326 101.112 26.621 100.899 26.4082C100.686 26.1901 100.427 26.0811 100.12 26.0811ZM104.206 26.011C104.367 25.7358 104.58 25.5204 104.845 25.3646C105.11 25.2036 105.406 25.1232 105.733 25.1232V26.2991H105.413C104.609 26.2991 104.206 26.673 104.206 27.4206V29.5H103.108V25.1855H104.206V26.011ZM108.646 28.5577V29.5H108.069C107.587 29.5 107.215 29.3832 106.956 29.1495C106.701 28.9159 106.574 28.5265 106.574 27.9813V26.1122H105.974V25.1855H106.574V24.1185H107.672V25.1855H108.638V26.1122H107.672V27.9969C107.672 28.2046 107.714 28.35 107.797 28.433C107.88 28.5161 108.02 28.5577 108.217 28.5577H108.646Z" fill="white"/>
<path d="M241.542 24.9273C241.542 25.3089 241.233 25.6182 240.851 25.6182C240.469 25.6182 240.16 25.3089 240.16 24.9273C240.16 24.5457 240.469 24.2363 240.851 24.2363C241.233 24.2363 241.542 24.5457 241.542 24.9273Z" fill="white"/>
<path d="M241.542 27.0001C241.542 27.3816 241.233 27.691 240.851 27.691C240.469 27.691 240.16 27.3816 240.16 27.0001C240.16 26.6185 240.469 26.3091 240.851 26.3091C241.233 26.3091 241.542 26.6185 241.542 27.0001Z" fill="white"/>
<path d="M240.851 29.7638C241.233 29.7638 241.542 29.4544 241.542 29.0729C241.542 28.6913 241.233 28.3819 240.851 28.3819C240.469 28.3819 240.16 28.6913 240.16 29.0729C240.16 29.4544 240.469 29.7638 240.851 29.7638Z" fill="white"/>
<defs>
<filter id="filter0_d_6511_2072" x="0.431372" y="0.640522" width="270.137" height="171.137" filterUnits="userSpaceOnUse" color-interpolation-filters="sRGB">
<feFlood flood-opacity="0" result="BackgroundImageFix"/>
<feColorMatrix in="SourceAlpha" type="matrix" values="0 0 0 0 0 0 0 0 0 0 0 0 0 0 0 0 0 0 127 0" result="hardAlpha"/>
<feOffset dy="2.20915"/>
<feGaussianBlur stdDeviation="8.28431"/>
<feComposite in2="hardAlpha" operator="out"/>
<feColorMatrix type="matrix" values="0 0 0 0 0.101961 0 0 0 0 0.109804 0 0 0 0 0.129412 0 0 0 0.07 0"/>
<feBlend mode="normal" in2="BackgroundImageFix" result="effect1_dropShadow_6511_2072"/>
<feBlend mode="normal" in="SourceGraphic" in2="effect1_dropShadow_6511_2072" result="shape"/>
</filter>
</defs>
</svg>
