<svg width="81" height="80" viewBox="0 0 81 80" fill="none" xmlns="http://www.w3.org/2000/svg">
<rect x="0.5" width="80" height="80" rx="6" fill="#E7FFDB"/>
<path opacity="0.2" d="M40.5 21.334C39.5807 21.334 38.6705 21.515 37.8212 21.8668C36.9719 22.2186 36.2003 22.7342 35.5503 23.3842C34.9002 24.0342 34.3846 24.8059 34.0328 25.6552C33.6811 26.5045 33.5 27.4147 33.5 28.334C33.5 29.2532 33.6811 30.1635 34.0328 31.0128C34.3846 31.862 34.9002 32.6337 35.5503 33.2837C36.2003 33.9337 36.9719 34.4494 37.8212 34.8011C38.6705 35.1529 39.5807 35.334 40.5 35.334C41.4193 35.334 42.3295 35.1529 43.1788 34.8011C44.0281 34.4494 44.7997 33.9337 45.4497 33.2837C46.0998 32.6337 46.6154 31.862 46.9672 31.0128C47.3189 30.1635 47.5 29.2532 47.5 28.334C47.5 27.4147 47.3189 26.5045 46.9672 25.6552C46.6154 24.8059 46.0998 24.0342 45.4497 23.3842C44.7997 22.7342 44.0281 22.2186 43.1788 21.8668C42.3295 21.515 41.4193 21.334 40.5 21.334Z" fill="#53A42A"/>
<path fill-rule="evenodd" clip-rule="evenodd" d="M42.0621 57.8017L42.8333 58.4327L45.6333 60.9993H19.5V55.166C19.5 48.166 33.2667 44.666 40.5 44.666C43.7667 44.666 47.9667 45.366 51.9333 46.766L50.5333 50.0327L49.1113 50.1343L49.5 49.2C46.38 48.6 43.052 48 40.14 48C33.484 48 23.5 51.2 23.5 55V58L42.0621 57.8017Z" fill="#53A42A"/>
<path opacity="0.2" d="M42.22 57.8L38.892 55C37.436 53.8 38.268 51.2 40.14 51L44.508 50.6L49.084 50.2L49.5 49.2C46.38 48.6 43.052 48 40.14 48C33.484 48 23.5 51.2 23.5 55V58L42.22 57.8Z" fill="#53A42A"/>
<path fill-rule="evenodd" clip-rule="evenodd" d="M31.168 28.3333C31.168 33.4667 35.368 37.6667 40.5013 37.6667C45.6346 37.6667 49.8346 33.4667 49.8346 28.3333C49.8346 23.2 45.6346 19 40.5013 19C35.368 19 31.168 23.2 31.168 28.3333ZM56.8346 63.8L63.6013 68L61.7346 60.0667L67.8013 54.9333L59.868 54.2333L56.8346 47L53.8013 54.4667L45.868 55.1667L51.9346 60.3L50.068 68L56.8346 63.8ZM59.168 35.3333C56.6013 32.7667 52.168 33 52.168 33C52.168 33 51.9346 37.4333 54.5013 40C57.068 42.5667 61.5013 42.3333 61.5013 42.3333C61.5013 42.3333 61.7346 37.9 59.168 35.3333ZM37.8212 21.8668C38.6705 21.515 39.5807 21.334 40.5 21.334C41.4193 21.334 42.3295 21.515 43.1788 21.8668C44.0281 22.2186 44.7997 22.7342 45.4497 23.3842C46.0998 24.0342 46.6154 24.8059 46.9672 25.6552C47.3189 26.5045 47.5 27.4147 47.5 28.334C47.5 29.2532 47.3189 30.1635 46.9672 31.0128C46.6154 31.862 46.0998 32.6337 45.4497 33.2837C44.7997 33.9337 44.0281 34.4494 43.1788 34.8011C42.3295 35.1529 41.4193 35.334 40.5 35.334C39.5807 35.334 38.6705 35.1529 37.8212 34.8011C36.9719 34.4494 36.2003 33.9337 35.5503 33.2837C34.9002 32.6337 34.3846 31.862 34.0328 31.0128C33.6811 30.1635 33.5 29.2532 33.5 28.334C33.5 27.4147 33.6811 26.5045 34.0328 25.6552C34.3846 24.8059 34.9002 24.0342 35.5503 23.3842C36.2003 22.7342 36.9719 22.2186 37.8212 21.8668Z" fill="#53A42A"/>
</svg>
