<svg width="81" height="80" viewBox="0 0 81 80" fill="none" xmlns="http://www.w3.org/2000/svg">
<rect x="0.5" width="80" height="80" rx="6" fill="#FFF2E2"/>
<path opacity="0.2" d="M59.1654 52.134V56.334L50.9987 58.434C49.132 54.4673 45.1654 51.6673 40.4987 51.6673C35.832 51.6673 31.8654 54.4673 29.9987 58.434L21.832 56.334V52.134C21.832 46.7673 31.1654 42.334 40.4987 42.334C49.832 42.334 59.1654 46.7673 59.1654 52.134Z" fill="#FDA743"/>
<path fill-rule="evenodd" clip-rule="evenodd" d="M40.5 35.3327C35.3667 35.3327 31.1667 31.1327 31.1667 25.9993C31.1667 20.866 35.3667 16.666 40.5 16.666C45.6333 16.666 49.8333 20.866 49.8333 25.9993C49.8333 31.1327 45.6333 35.3327 40.5 35.3327ZM40.5 21.3327C37.9333 21.3327 35.8333 23.4327 35.8333 25.9993C35.8333 28.566 37.9333 30.666 40.5 30.666C43.0667 30.666 45.1667 28.566 45.1667 25.9993C45.1667 23.4327 43.0667 21.3327 40.5 21.3327ZM54.5 63.334C54.5 62.2031 54.3641 61.1024 54.1078 60.0474L61.5 58.1993V52.1327C61.5 44.8993 50.5333 39.9993 40.5 39.9993C30.4667 39.9993 19.5 44.8993 19.5 52.1327V58.1993L26.8922 60.0474C26.6359 61.1024 26.5 62.2031 26.5 63.334H31.1667C31.1667 58.2006 35.3667 54.0007 40.5 54.0007C45.6333 54.0007 49.8333 58.2006 49.8333 63.334H54.5ZM59.1654 56.334V52.134C59.1654 46.7673 49.832 42.334 40.4987 42.334C31.1654 42.334 21.832 46.7673 21.832 52.134V56.334L29.9987 58.434C31.8654 54.4673 35.832 51.6673 40.4987 51.6673C45.1654 51.6673 49.132 54.4673 50.9987 58.434L59.1654 56.334Z" fill="#FDA743"/>
</svg>
