<svg width="80" height="80" viewBox="0 0 80 80" fill="none" xmlns="http://www.w3.org/2000/svg">
<rect width="80" height="80" rx="6" fill="#E8F4FF"/>
<path opacity="0.2" d="M25.9987 21.334C24.761 21.334 23.574 21.8256 22.6989 22.7008C21.8237 23.576 21.332 24.763 21.332 26.0007C21.332 27.2383 21.8237 28.4253 22.6989 29.3005C23.574 30.1757 24.761 30.6673 25.9987 30.6673C27.2364 30.6673 28.4234 30.1757 29.2985 29.3005C30.1737 28.4253 30.6654 27.2383 30.6654 26.0007C30.6654 24.763 30.1737 23.576 29.2985 22.7008C28.4234 21.8256 27.2364 21.334 25.9987 21.334ZM53.9987 49.334C52.761 49.334 51.574 49.8256 50.6989 50.7008C49.8237 51.576 49.332 52.763 49.332 54.0006C49.332 55.2383 49.8237 56.4253 50.6989 57.3005C51.574 58.1757 52.761 58.6673 53.9987 58.6673C55.2364 58.6673 56.4234 58.1757 57.2985 57.3005C58.1737 56.4253 58.6654 55.2383 58.6654 54.0006C58.6654 52.763 58.1737 51.576 57.2985 50.7008C56.4234 49.8256 55.2364 49.334 53.9987 49.334Z" fill="#003366"/>
<path fill-rule="evenodd" clip-rule="evenodd" d="M26 33C22.0333 33 19 29.9667 19 26C19 22.0333 22.0333 19 26 19C29.142 19 31.6985 20.9032 32.6256 23.666H51.6667C56.8 23.666 61 27.866 61 32.9993C61 38.1327 56.8 42.3327 51.6667 42.3327H28.3333C25.7667 42.3327 23.6667 44.4327 23.6667 46.9994C23.6667 49.566 25.7667 51.666 28.3333 51.666H47.3744C48.3015 48.9032 50.858 47 54 47C57.9667 47 61 50.0333 61 54C61 57.9667 57.9667 61 54 61C50.8575 61 48.3007 59.0962 47.374 56.3327H28.3333C23.2 56.3327 19 52.1327 19 46.9994C19 41.866 23.2 37.666 28.3333 37.666H51.6667C54.2333 37.666 56.3333 35.566 56.3333 32.9993C56.3333 30.4327 54.2333 28.3327 51.6667 28.3327H32.626C31.6993 31.0962 29.1425 33 26 33ZM22.6989 22.7008C23.574 21.8256 24.761 21.334 25.9987 21.334C27.2364 21.334 28.4234 21.8256 29.2985 22.7008C30.1737 23.576 30.6654 24.763 30.6654 26.0007C30.6654 27.2383 30.1737 28.4253 29.2985 29.3005C28.4234 30.1757 27.2364 30.6673 25.9987 30.6673C24.761 30.6673 23.574 30.1757 22.6989 29.3005C21.8237 28.4253 21.332 27.2383 21.332 26.0007C21.332 24.763 21.8237 23.576 22.6989 22.7008ZM50.6989 50.7008C51.574 49.8256 52.761 49.334 53.9987 49.334C55.2364 49.334 56.4234 49.8256 57.2985 50.7008C58.1737 51.576 58.6654 52.763 58.6654 54.0006C58.6654 55.2383 58.1737 56.4253 57.2985 57.3005C56.4234 58.1757 55.2364 58.6673 53.9987 58.6673C52.761 58.6673 51.574 58.1757 50.6989 57.3005C49.8237 56.4253 49.332 55.2383 49.332 54.0006C49.332 52.763 49.8237 51.576 50.6989 50.7008Z" fill="#003366"/>
</svg>
