<svg width="80" height="80" viewBox="0 0 80 80" fill="none" xmlns="http://www.w3.org/2000/svg">
<rect width="80" height="80" rx="6" fill="#F1FFEB"/>
<g clip-path="url(#clip0_6576_3203)">
<path d="M30.668 49.3333L40.0013 40V26" stroke="#53A42A" stroke-width="2" stroke-miterlimit="10"/>
<path d="M52.0683 43.4907L40.3083 64.4954C39.438 66.0494 40.5137 68.0001 42.2403 68.0001H65.7603C67.487 68.0001 68.5627 66.0494 67.6923 64.4954L55.9323 43.4907C55.069 41.9484 52.9317 41.9484 52.0683 43.4907ZM56.3453 65.6691H51.6553L51.667 61.0001H56.3337L56.3453 65.6691ZM51.667 58.6807V49.3334H56.3337V58.6784L51.667 58.6807Z" fill="#53A42A"/>
<path fill-rule="evenodd" clip-rule="evenodd" d="M40.0013 16.666C52.8673 16.666 63.3346 27.1333 63.3346 39.9993C63.3346 42.006 63.0523 43.9427 62.574 45.8L59.6691 40.6719C59.7881 40.8454 59.8998 41.0252 60.0037 41.211L60.8133 42.6577C60.923 41.785 61 40.903 61 40C61 28.401 51.599 19 40 19C28.401 19 19 28.401 19 40C19 50.5925 26.8481 59.3279 37.0435 60.7686L36.2353 62.2127C36.1531 62.3609 36.0986 62.5184 36.0439 62.6764C36.0117 62.7696 35.9794 62.8629 35.9413 62.9547C25.0096 61.025 16.668 51.4793 16.668 39.9993C16.668 27.1333 27.1353 16.666 40.0013 16.666Z" fill="#53A42A"/>
<path opacity="0.2" d="M47.9963 41.211C49.219 39.0247 51.5197 37.6667 54 37.6667C56.478 37.6667 58.781 39.0247 60.0037 41.211L60.8133 42.6577C60.923 41.785 61 40.903 61 40C61 28.401 51.599 19 40 19C28.401 19 19 28.401 19 40C19 50.5933 26.8493 59.3293 37.046 60.769L47.9963 41.211Z" fill="#53A42A"/>
</g>
<defs>
<clipPath id="clip0_6576_3203">
<rect width="56" height="56" fill="white" transform="translate(12 12)"/>
</clipPath>
</defs>
</svg>
