<svg width="32" height="33" viewBox="0 0 32 33" fill="none" xmlns="http://www.w3.org/2000/svg">
<path d="M24.3062 24.1473C24.2563 24.1285 24.2063 24.1035 24.1625 24.066C23.4313 23.4785 22.9 22.6785 22.3625 21.9223C21.8062 21.1348 21.1687 20.416 20.5625 19.666C20.2375 19.266 19.925 18.8598 19.6125 18.4473C19.4125 18.0848 19.2 17.7285 18.9813 17.3723C19.1063 17.1598 19.225 16.9473 19.3375 16.7285C19.3375 16.7348 19.3438 16.7348 19.3438 16.741C19.9625 15.8848 20.5938 15.0348 21.2563 14.2098C22.4313 12.741 23.6375 11.3035 24.7875 9.82227C23.6125 8.29102 22.4938 6.72227 21.5438 5.04727C21.275 5.60352 21.0375 6.17227 20.8125 6.74727C20.425 7.73477 20.0125 8.70977 19.5312 9.65977C18.85 11.0098 18.1187 12.3473 17.3375 13.6473L17.3625 13.691C17.3062 13.766 17.25 13.841 17.1938 13.916C17.075 14.041 16.9563 14.1598 16.8438 14.2785C16.6812 14.0285 16.5188 13.7723 16.35 13.5223C16.325 13.4848 16.3062 13.4535 16.2812 13.416C15.2812 11.741 14.325 10.0348 13.425 8.30352C13.0813 7.64102 12.6875 7.00352 12.3188 6.34727C12.0125 5.80352 11.65 5.21602 11.5 4.60352C10.25 5.27852 9.01875 6.04102 8.03125 7.06602C8.21875 7.16602 8.39375 7.28477 8.55625 7.42227C9.16875 7.93477 9.65 8.59102 10.1375 9.22227C10.6812 9.92852 11.2562 10.6035 11.8062 11.2973C12.9375 12.7348 14.0125 14.2098 15.1313 15.6598C15.1375 15.6535 15.1437 15.641 15.15 15.6348C15.3 15.8598 15.45 16.0848 15.625 16.2848C15.5813 16.366 15.5375 16.4535 15.4937 16.5348C15.3875 16.691 15.2875 16.8473 15.1875 17.0035C15.1813 16.9973 15.175 16.991 15.1687 16.9785C14.2562 18.266 13.2812 19.5035 12.2312 20.6785C11.1625 21.8848 10.0187 23.2723 8.59375 24.0973C8.63125 24.1785 8.6375 24.2723 8.6125 24.3535C9.175 24.9285 9.93125 25.3035 10.4625 25.916C10.9562 26.4785 11.3937 27.091 11.9 27.641C12.4187 26.2473 13.2687 24.9785 14.15 23.7848C15.0312 22.591 15.9438 21.416 16.825 20.2223C16.9813 20.041 17.125 19.8473 17.2687 19.6535C17.4312 19.4723 17.6 19.2973 17.7437 19.1098C18 19.3848 18.2375 19.6723 18.5187 19.9223C19.125 20.7098 19.7062 21.5098 20.2437 22.341C21.3562 24.066 22.1313 25.966 23.1375 27.7535C23.7313 26.7348 24.4062 25.7223 24.725 24.591C24.6125 24.516 24.5063 24.416 24.3875 24.3035C24.3563 24.2535 24.325 24.2035 24.3062 24.1473Z" fill="#EF4823"/>
<path d="M24.3422 23.1645H24.3359C23.8359 22.6707 23.4359 22.0832 23.0297 21.5082C22.4734 20.7145 21.8422 20.002 21.2297 19.252C20.7422 18.652 20.2734 18.0395 19.8234 17.4145C20.4734 16.5145 21.1297 15.6145 21.8234 14.7457C23.0672 13.1895 24.3484 11.6645 25.5672 10.0895C25.6672 9.9582 25.7297 9.7582 25.6172 9.61445C24.2922 7.8957 23.0234 6.12695 21.9859 4.2207C21.9922 4.2082 21.9984 4.1957 22.0047 4.18945C21.9047 4.0207 21.8172 3.83945 21.7359 3.6582C21.6922 3.5832 21.6547 3.51445 21.6109 3.43945C21.6047 3.4457 21.5922 3.4457 21.5859 3.45195C21.4922 3.50195 21.4109 3.55195 21.3297 3.60195C21.3109 3.6082 21.2984 3.61445 21.2797 3.6207C21.2047 3.8832 21.0984 4.1457 20.9609 4.37695C20.9672 4.38945 20.9734 4.3957 20.9797 4.4082C20.2047 5.8957 19.7109 7.5332 18.9672 9.03945C18.3234 10.3395 17.6234 11.6207 16.8797 12.877C15.9547 11.3207 15.0734 9.7457 14.2359 8.1457C14.0609 7.8082 13.8734 7.47695 13.6859 7.13945C13.3797 6.71445 13.1109 6.26445 12.9109 5.7832C12.7359 5.4832 12.5609 5.1707 12.4234 4.85195C12.1922 4.4582 11.9984 4.05195 11.7984 3.6457C11.7234 3.63945 11.6484 3.65195 11.5672 3.68945C10.0672 4.4707 8.57969 5.3582 7.41094 6.5957C7.33594 6.67695 7.30469 6.7707 7.30469 6.8582C7.61094 7.2707 7.90469 7.6957 8.18594 8.1207C8.54219 8.4332 8.84219 8.8207 9.12344 9.17695C9.62344 9.8082 10.1422 10.4332 10.6359 11.0645C11.3422 11.9645 12.0547 12.8645 12.7547 13.7707C13.4047 14.6207 14.0234 15.4957 14.6797 16.3395C13.8047 17.5895 12.8547 18.7957 11.8484 19.9457C11.2422 20.6395 10.6109 21.327 9.96094 21.9832C9.40469 22.5457 8.80469 23.077 8.11719 23.4707C8.10469 23.477 8.08594 23.4832 8.07344 23.4895L7.69219 23.6895C7.43594 23.8207 7.45469 24.0832 7.60469 24.252C7.61094 24.3145 7.62969 24.377 7.66094 24.427C8.21719 25.2207 9.07969 25.677 9.77344 26.327C10.5234 27.0395 11.0484 27.9582 11.8172 28.6645C12.0422 28.8707 12.3859 28.7582 12.4672 28.4707C12.9234 26.8832 13.8922 25.4582 14.8734 24.1457C15.8422 22.8457 16.8297 21.5582 17.7922 20.252C18.2547 20.8457 18.6984 21.452 19.1297 22.0707C19.7859 23.0207 20.3797 24.0145 20.8984 25.0457C21.4109 26.052 21.8797 27.0832 22.4297 28.0707C22.5547 28.302 22.6922 28.5332 22.8297 28.7582C22.9797 29.0082 23.3734 29.002 23.5109 28.7395C24.2422 27.3582 25.2422 26.0332 25.5859 24.4832C25.4109 24.3332 25.2484 24.1832 25.0984 24.0332C24.8422 23.7832 24.5484 23.4895 24.3422 23.1645ZM23.1547 27.752C22.1484 25.9707 21.3734 24.0645 20.2609 22.3395C19.7234 21.5082 19.1422 20.7082 18.5359 19.9207C18.2547 19.6707 18.0172 19.3832 17.7609 19.1082C17.6109 19.2957 17.4484 19.477 17.2859 19.652C17.1484 19.8457 16.9984 20.0395 16.8422 20.2207C15.9547 21.4145 15.0484 22.5832 14.1672 23.7832C13.2859 24.9707 12.4359 26.2395 11.9172 27.6395C11.4109 27.0895 10.9672 26.477 10.4797 25.9145C9.94844 25.302 9.19219 24.927 8.62969 24.352C8.66094 24.2707 8.64844 24.177 8.61094 24.0957C10.0422 23.277 11.1797 21.8832 12.2484 20.677C13.2922 19.502 14.2734 18.2645 15.1859 16.977C15.1922 16.9832 15.1984 16.9895 15.2047 17.002C15.3047 16.8457 15.4047 16.6895 15.5109 16.5332C15.5547 16.452 15.5984 16.3645 15.6422 16.2832C15.4672 16.0832 15.3172 15.8582 15.1672 15.6332C15.1609 15.6395 15.1547 15.652 15.1484 15.6582C14.0297 14.2145 12.9547 12.7332 11.8234 11.2957C11.2734 10.5957 10.6984 9.9207 10.1547 9.2207C9.66719 8.58945 9.18594 7.93945 8.57344 7.4207C8.41094 7.2832 8.23594 7.16445 8.04844 7.06445C9.03594 6.03945 10.2672 5.27695 11.5172 4.60195C11.6672 5.21445 12.0297 5.80195 12.3359 6.3457C12.7047 6.9957 13.0922 7.63945 13.4422 8.30195C14.3422 10.0332 15.2984 11.7395 16.2984 13.4145C16.3234 13.452 16.3484 13.4832 16.3672 13.5207C16.5359 13.7707 16.6984 14.0207 16.8609 14.277C16.9734 14.152 17.0922 14.0332 17.2109 13.9145C17.2672 13.8395 17.3234 13.7645 17.3797 13.6895L17.3547 13.6457C18.1359 12.3395 18.8672 11.0082 19.5484 9.6582C20.0297 8.7082 20.4359 7.7332 20.8297 6.7457C21.0547 6.1707 21.2922 5.60195 21.5609 5.0457C22.5109 6.7207 23.6359 8.28945 24.8047 9.8207C23.6484 11.302 22.4484 12.7457 21.2734 14.2082C20.6109 15.0395 19.9797 15.8832 19.3609 16.7395C19.3609 16.7332 19.3547 16.7332 19.3547 16.727C19.2484 16.9457 19.1297 17.1582 18.9984 17.3707C19.2234 17.7207 19.4297 18.077 19.6297 18.4457C19.9359 18.8582 20.2547 19.2645 20.5797 19.6645C21.1859 20.4145 21.8234 21.127 22.3797 21.9207C22.9172 22.677 23.4484 23.477 24.1797 24.0645C24.2234 24.102 24.2734 24.127 24.3234 24.1457C24.3422 24.202 24.3734 24.252 24.4234 24.302C24.5359 24.4145 24.6422 24.5145 24.7609 24.5895C24.4172 25.7207 23.7422 26.7332 23.1547 27.752Z" fill="#003366"/>
</svg>
