<svg width="24" height="23" viewBox="0 0 24 23" fill="none" xmlns="http://www.w3.org/2000/svg">
<path d="M21.9894 0.146857C21.637 0.155173 21.3023 0.302636 21.0584 0.557013L12.0011 9.6143L2.9438 0.557013C2.81939 0.42913 2.67059 0.327513 2.5062 0.258178C2.34181 0.188844 2.16518 0.153204 1.98677 0.153367C1.72163 0.153696 1.46262 0.233054 1.24281 0.381305C1.02299 0.529555 0.852364 0.739968 0.752717 0.985663C0.653069 1.23136 0.628926 1.50118 0.683372 1.76066C0.737818 2.02015 0.868381 2.25751 1.05838 2.44243L10.1157 11.4997L1.05838 20.557C0.930418 20.6799 0.828254 20.827 0.757873 20.9899C0.687493 21.1527 0.650312 21.328 0.648507 21.5053C0.646702 21.6827 0.680309 21.8587 0.747361 22.0229C0.814413 22.1872 0.913562 22.3364 1.039 22.4618C1.16444 22.5872 1.31365 22.6864 1.47788 22.7535C1.64212 22.8205 1.81808 22.8541 1.99547 22.8523C2.17286 22.8505 2.3481 22.8133 2.51094 22.7429C2.67378 22.6726 2.82094 22.5704 2.9438 22.4424L12.0011 13.3851L21.0584 22.4424C21.1812 22.5704 21.3284 22.6726 21.4912 22.7429C21.6541 22.8133 21.8293 22.8505 22.0067 22.8523C22.1841 22.8541 22.3601 22.8205 22.5243 22.7535C22.6885 22.6864 22.8377 22.5873 22.9632 22.4618C23.0886 22.3364 23.1878 22.1872 23.2548 22.0229C23.3219 21.8587 23.3555 21.6827 23.3537 21.5053C23.3519 21.328 23.3147 21.1527 23.2443 20.9899C23.1739 20.827 23.0718 20.6799 22.9438 20.557L13.8865 11.4997L22.9438 2.44243C23.1378 2.25639 23.2711 2.01605 23.3261 1.75294C23.3811 1.48983 23.3554 1.21623 23.2522 0.968022C23.149 0.719816 22.9732 0.508593 22.7478 0.362054C22.5225 0.215516 22.2581 0.140504 21.9894 0.146857Z" fill="#53A42A"/>
</svg>
