<svg width="65" height="64" viewBox="0 0 65 64" fill="none" xmlns="http://www.w3.org/2000/svg">
<circle opacity="0.12" cx="32.5" cy="32" r="32" fill="#003366"/>
<path d="M32.5013 18.667C26.252 18.667 21.168 23.751 21.168 30.0003C21.168 32.691 22.134 35.3023 23.8966 37.3657C24.098 37.5943 28.848 42.9917 30.4346 44.5043C31.014 45.057 31.7573 45.3337 32.5013 45.3337C33.2453 45.3337 33.9886 45.057 34.5686 44.5043C36.4133 42.745 40.918 37.581 41.1153 37.3543C42.8686 35.3023 43.8346 32.691 43.8346 30.0003C43.8346 23.751 38.7506 18.667 32.5013 18.667ZM32.5013 33.3337C30.6606 33.3337 29.168 31.841 29.168 30.0003C29.168 28.1597 30.6606 26.667 32.5013 26.667C34.342 26.667 35.8346 28.1597 35.8346 30.0003C35.8346 31.841 34.342 33.3337 32.5013 33.3337Z" fill="#003366"/>
</svg>
