<svg width="65" height="64" viewBox="0 0 65 64" fill="none" xmlns="http://www.w3.org/2000/svg">
<circle opacity="0.12" cx="32.5" cy="32" r="32" fill="#003366"/>
<path d="M34.1655 18.6671C34.033 18.6652 33.9014 18.6897 33.7785 18.7391C33.6555 18.7886 33.5436 18.8619 33.4492 18.955C33.3548 19.048 33.2799 19.1589 33.2287 19.2811C33.1776 19.4034 33.1513 19.5346 33.1513 19.6671C33.1513 19.7996 33.1776 19.9308 33.2287 20.0531C33.2799 20.1754 33.3548 20.2862 33.4492 20.3793C33.5436 20.4723 33.6555 20.5457 33.7785 20.5951C33.9014 20.6445 34.033 20.669 34.1655 20.6671C39.1477 20.6671 43.1655 24.6849 43.1655 29.6671C43.1636 29.7996 43.1881 29.9312 43.2375 30.0542C43.2869 30.1771 43.3603 30.2891 43.4533 30.3834C43.5464 30.4778 43.6573 30.5527 43.7795 30.6039C43.9018 30.655 44.033 30.6814 44.1655 30.6814C44.298 30.6814 44.4292 30.655 44.5515 30.6039C44.6737 30.5527 44.7846 30.4778 44.8777 30.3834C44.9707 30.2891 45.0441 30.1771 45.0935 30.0542C45.1429 29.9312 45.1674 29.7996 45.1655 29.6671C45.1655 23.604 40.2286 18.6671 34.1655 18.6671ZM25.4298 18.6749C25.0969 18.649 24.7544 18.6859 24.4181 18.7934L22.9832 19.2531C21.5599 19.7077 20.4693 20.9262 20.1173 22.4575C19.2807 26.0962 20.2844 30.5259 23.1264 35.7465C25.9664 40.9605 29.0783 44.0955 32.4637 45.1515C33.8977 45.5988 35.4487 45.2044 36.534 44.115L37.6238 43.02C38.6412 41.9986 38.7889 40.3366 37.9689 39.132L36.3257 36.7179C35.6203 35.6819 34.3676 35.2421 33.2176 35.6255L30.7202 36.4588C30.3869 36.5701 30.013 36.5116 29.7436 36.2856C28.727 35.4316 27.8644 34.3949 27.1564 33.1775C26.447 31.9575 25.9893 30.7206 25.7827 29.4666C25.7287 29.1386 25.8538 28.8066 26.0952 28.5773L28.2371 26.5447C29.1451 25.6834 29.4213 24.2982 28.922 23.1202L27.7762 20.4171C27.3442 19.3981 26.4284 18.7526 25.4298 18.6749ZM34.1655 22.6671C34.033 22.6652 33.9014 22.6897 33.7785 22.7391C33.6555 22.7886 33.5436 22.8619 33.4492 22.955C33.3548 23.048 33.2799 23.1589 33.2287 23.2811C33.1776 23.4034 33.1513 23.5346 33.1513 23.6671C33.1513 23.7996 33.1776 23.9308 33.2287 24.0531C33.2799 24.1754 33.3548 24.2862 33.4492 24.3793C33.5436 24.4723 33.6555 24.5457 33.7785 24.5951C33.9014 24.6445 34.033 24.669 34.1655 24.6671C36.9392 24.6671 39.1655 26.8935 39.1655 29.6671C39.1636 29.7996 39.1881 29.9312 39.2375 30.0542C39.2869 30.1771 39.3603 30.2891 39.4533 30.3834C39.5464 30.4778 39.6573 30.5527 39.7795 30.6039C39.9018 30.655 40.033 30.6814 40.1655 30.6814C40.298 30.6814 40.4292 30.655 40.5515 30.6039C40.6737 30.5527 40.7846 30.4778 40.8777 30.3834C40.9707 30.2891 41.0441 30.1771 41.0935 30.0542C41.1429 29.9312 41.1674 29.7996 41.1655 29.6671C41.1655 25.8128 38.0198 22.6671 34.1655 22.6671ZM34.1655 26.6671C34.033 26.6652 33.9014 26.6897 33.7785 26.7391C33.6555 26.7886 33.5436 26.8619 33.4492 26.955C33.3548 27.048 33.2799 27.1589 33.2287 27.2811C33.1776 27.4034 33.1513 27.5346 33.1513 27.6671C33.1513 27.7996 33.1776 27.9308 33.2287 28.0531C33.2799 28.1754 33.3548 28.2862 33.4492 28.3793C33.5436 28.4723 33.6555 28.5457 33.7785 28.5951C33.9014 28.6445 34.033 28.669 34.1655 28.6671C34.7298 28.6671 35.1655 29.1028 35.1655 29.6671C35.1636 29.7996 35.1881 29.9312 35.2375 30.0542C35.2869 30.1771 35.3603 30.2891 35.4533 30.3834C35.5464 30.4778 35.6573 30.5527 35.7795 30.6039C35.9018 30.655 36.033 30.6814 36.1655 30.6814C36.298 30.6814 36.4292 30.655 36.5515 30.6039C36.6737 30.5527 36.7846 30.4778 36.8777 30.3834C36.9707 30.2891 37.0441 30.1771 37.0935 30.0542C37.1429 29.9312 37.1674 29.7996 37.1655 29.6671C37.1655 28.0221 35.8105 26.6671 34.1655 26.6671Z" fill="#003366"/>
</svg>
