<svg width="16" height="17" viewBox="0 0 16 17" fill="none" xmlns="http://www.w3.org/2000/svg">
<path d="M14.4967 4.4933C14.3646 4.49642 14.2392 4.55166 14.1477 4.64695L8.00123 10.7934L1.85475 4.64695C1.80814 4.59895 1.75238 4.5608 1.69076 4.53474C1.62914 4.50869 1.56292 4.49526 1.49602 4.49526C1.39651 4.49528 1.29928 4.52499 1.21675 4.58059C1.13422 4.63619 1.07016 4.71514 1.03276 4.80735C0.995359 4.89956 0.986319 5.00084 1.0068 5.09821C1.02728 5.19559 1.07634 5.28465 1.14771 5.35398L7.64771 11.854C7.74149 11.9477 7.86864 12.0004 8.00123 12.0004C8.13382 12.0004 8.26097 11.9477 8.35475 11.854L14.8547 5.35398C14.9275 5.28419 14.9774 5.19407 14.998 5.09541C15.0186 4.99676 15.0089 4.89418 14.9702 4.80114C14.9315 4.70809 14.8655 4.62891 14.781 4.57397C14.6965 4.51904 14.5974 4.49092 14.4967 4.4933Z" fill="#86878A"/>
</svg>
