<svg width="81" height="81" viewBox="0 0 81 81" fill="none" xmlns="http://www.w3.org/2000/svg">
<rect x="0.5" y="0.5" width="80" height="80" rx="6" fill="#FFF2E2"/>
<path fill-rule="evenodd" clip-rule="evenodd" d="M25.9987 63.8327H53.9987C56.5654 63.8327 58.6654 61.7327 58.6654 59.166V21.8327C58.6654 19.266 56.5654 17.166 53.9987 17.166H25.9987C23.432 17.166 21.332 19.266 21.332 21.8327V59.166C21.332 61.7327 23.432 63.8327 25.9987 63.8327ZM25.9974 61.5H53.9974C55.3974 61.5 56.3307 60.5667 56.3307 59.1667V21.8333C56.3307 20.4333 55.3974 19.5 53.9974 19.5H25.9974C24.5974 19.5 23.6641 20.4333 23.6641 21.8333V59.1667C23.6641 60.5667 24.5974 61.5 25.9974 61.5Z" fill="#FDA743"/>
<path opacity="0.2" d="M54.0013 61.5H26.0013C24.6013 61.5 23.668 60.5667 23.668 59.1667V21.8333C23.668 20.4333 24.6013 19.5 26.0013 19.5H54.0013C55.4013 19.5 56.3346 20.4333 56.3346 21.8333V59.1667C56.3346 60.5667 55.4013 61.5 54.0013 61.5Z" fill="#FDA743"/>
<path d="M48.401 35.6003L40.001 31.4003L31.601 35.6003L29.7344 31.4003L39.0677 26.7336C39.7677 26.5003 40.4677 26.5003 41.1677 26.7336L50.501 31.4003L48.401 35.6003ZM45.8344 40.5003H34.1677L30.6677 46.3336V53.3336C30.6677 54.0336 31.1344 54.5003 31.8344 54.5003H33.9344C34.6344 54.5003 35.101 54.0336 35.101 53.3336V52.1669H44.4344V53.3336C44.4344 54.0336 44.901 54.5003 45.601 54.5003H47.701C48.401 54.5003 48.8677 54.0336 48.8677 53.3336V46.1003L45.8344 40.5003ZM34.8677 49.8336C33.701 49.8336 33.001 49.1336 33.001 47.9669C33.001 46.8003 33.701 46.1003 34.8677 46.1003C36.0344 46.1003 36.7344 46.8003 36.7344 47.9669C36.7344 49.1336 35.801 49.8336 34.8677 49.8336ZM45.3677 49.8336C44.4344 49.8336 43.501 49.1336 43.501 47.9669C43.501 46.8003 44.201 46.1003 45.3677 46.1003C46.5344 46.1003 47.2344 46.8003 47.2344 47.9669C47.2344 49.1336 46.301 49.8336 45.3677 49.8336Z" fill="#FDA743"/>
</svg>
