<svg width="80" height="81" viewBox="0 0 80 81" fill="none" xmlns="http://www.w3.org/2000/svg">
<rect y="0.5" width="80" height="80" rx="6" fill="#E8F4FF"/>
<path fill-rule="evenodd" clip-rule="evenodd" d="M39.5333 63.8327H40H40.4667C54.9333 60.7994 61 46.7994 61 41.666V22.2993L59.8333 21.5993C59.6 21.366 52.8333 17.166 40 17.166C27.1667 17.166 20.4 21.366 20.1667 21.5993L19 22.2993V41.4327C19 46.566 25.0667 60.566 39.5333 63.8327ZM58.6654 23.4667C58.6654 23.4667 52.3654 19.5 39.9987 19.5C27.8654 19.5 21.332 23.4667 21.332 23.4667V41.4333C21.332 45.8667 27.1654 58.7 39.9987 61.5C52.832 58.4667 58.6654 45.8667 58.6654 41.4333V23.4667Z" fill="#003366"/>
<path opacity="0.2" d="M39.9987 19.5C52.3654 19.5 58.6654 23.4667 58.6654 23.4667V41.4333C58.6654 45.8667 52.832 58.4667 39.9987 61.5C27.1654 58.7 21.332 45.8667 21.332 41.4333V23.4667C21.332 23.4667 27.8654 19.5 39.9987 19.5Z" fill="#003366"/>
<path d="M28.332 42.8333C29.4987 43.3 30.432 43.7667 31.5987 44.4667C32.7654 45.1667 33.232 45.4 34.1654 45.4C34.632 45.4 34.8654 45.4 35.332 45.4C35.7987 45.4 35.7987 45.1667 36.032 45.1667C36.4987 44.9333 37.1987 44.2333 37.432 43.7667L38.132 42.8333H39.2987C39.7654 42.8333 40.232 42.8333 40.6987 42.8333H41.8654L42.5654 43.7667C42.7987 44.2333 43.4987 44.9333 43.9654 45.1667C44.1987 45.4 44.432 45.4 44.6654 45.4C45.132 45.4 45.3654 45.4 45.832 45.4C46.7654 45.1667 47.232 45.1667 48.3987 44.4667C49.332 44 50.4987 43.3 51.6654 42.8333C51.1987 44 50.732 44.9333 50.032 46.1C49.5654 47.0333 48.3987 48.4333 47.232 48.9C46.532 49.1333 45.832 49.3667 45.132 49.6C44.432 49.6 43.2654 49.6 42.5654 49.3667C40.932 48.9 39.7654 47.9667 38.832 46.5667L40.6987 47.5C40.232 47.5 39.7654 47.5 39.2987 47.5L41.1654 46.5667C40.6987 47.2667 40.232 47.7333 39.532 48.2C38.832 48.6667 38.132 49.1333 37.432 49.3667C36.732 49.6 35.5654 49.8333 34.8654 49.6C34.1654 49.6 33.4654 49.3667 32.7654 48.9C31.3654 48.2 30.432 47.0333 29.9654 46.1C29.2654 44.9333 28.7987 44 28.332 42.8333ZM46.9987 33.5C45.132 33.5 43.4987 34.4333 42.332 35.8333C43.4987 37.2333 45.132 38.1667 46.9987 38.1667C48.8654 38.1667 50.4987 37.2333 51.6654 35.8333C50.4987 34.4333 48.8654 33.5 46.9987 33.5ZM32.9987 33.5C31.132 33.5 29.4987 34.4333 28.332 35.8333C29.4987 37.2333 31.132 38.1667 32.9987 38.1667C34.8654 38.1667 36.4987 37.2333 37.6654 35.8333C36.4987 34.4333 34.8654 33.5 32.9987 33.5ZM37.6654 54.5H42.332V59.8667H37.6654V54.5ZM44.6654 26.5C44.0465 26.5 43.453 26.7458 43.0155 27.1834C42.5779 27.621 42.332 28.2145 42.332 28.8333C42.332 29.4522 42.5779 30.0457 43.0155 30.4832C43.453 30.9208 44.0465 31.1667 44.6654 31.1667C45.2842 31.1667 45.8777 30.9208 46.3153 30.4832C46.7529 30.0457 46.9987 29.4522 46.9987 28.8333C46.9987 28.2145 46.7529 27.621 46.3153 27.1834C45.8777 26.7458 45.2842 26.5 44.6654 26.5Z" fill="#003366"/>
<path d="M43.0333 27.2004C43.9667 26.5004 44.9 26.0337 46.0667 25.8004C47 25.3337 48.1667 25.1004 49.3333 25.3337C50.5 25.5671 51.4333 26.0337 52.1333 26.7337C52.8333 27.4337 53.5333 28.1337 54 28.8337C53.3 28.3671 52.3667 27.9004 51.6667 27.6671C50.9667 27.4337 50.0333 27.4337 49.3333 27.6671C48.6333 27.9004 48.1667 28.3671 47.7 28.8337C47.2333 29.3004 46.5333 30.0004 46.3 30.4671L43.0333 27.2004ZM35.3333 26.5004C34.7145 26.5004 34.121 26.7462 33.6834 27.1838C33.2458 27.6214 33 28.2149 33 28.8337C33 29.4526 33.2458 30.0461 33.6834 30.4836C34.121 30.9212 34.7145 31.1671 35.3333 31.1671C35.9522 31.1671 36.5457 30.9212 36.9832 30.4836C37.4208 30.0461 37.6667 29.4526 37.6667 28.8337C37.6667 28.2149 37.4208 27.6214 36.9832 27.1838C36.5457 26.7462 35.9522 26.5004 35.3333 26.5004Z" fill="#003366"/>
<path d="M33.7 30.4671C33.4667 30.0004 32.7667 29.3004 32.3 28.8337C31.8333 28.3671 31.3667 27.9004 30.6667 27.6671C29.9667 27.4337 29.2667 27.4337 28.3333 27.6671C27.6333 27.9004 26.7 28.3671 26 28.8337C26.4667 28.1337 27.1667 27.4337 27.8667 26.7337C28.5667 26.0337 29.5 25.5671 30.6667 25.3337C31.8333 25.1004 33 25.3337 33.9333 25.8004C34.8667 26.2671 35.8 26.5004 36.9667 27.2004L33.7 30.4671Z" fill="#003366"/>
</svg>
