<svg width="81" height="81" viewBox="0 0 81 81" fill="none" xmlns="http://www.w3.org/2000/svg">
<rect x="0.5" y="0.5" width="80" height="80" rx="6" fill="#E7FFDB"/>
<g clip-path="url(#clip0_6526_12694)">
<path opacity="0.2" fill-rule="evenodd" clip-rule="evenodd" d="M49.0528 44.0187C46.0755 42.8914 42.538 42.2227 39.0004 42.2227C30.1115 42.2227 21.2227 46.4449 21.2227 51.556V55.556L29.0004 57.556C30.7782 53.7782 34.556 51.1115 39.0004 51.1115C40.9239 51.1115 42.7225 51.611 44.2881 52.4838L49.0528 44.0187Z" fill="#53A42A"/>
<path fill-rule="evenodd" clip-rule="evenodd" d="M30.1111 26.6662C30.1111 31.5551 34.1111 35.5551 39 35.5551C43.8889 35.5551 47.8889 31.5551 47.8889 26.6662C47.8889 21.7773 43.8889 17.7773 39 17.7773C34.1111 17.7773 30.1111 21.7773 30.1111 26.6662ZM34.5556 26.6662C34.5556 24.2218 36.5556 22.2218 39 22.2218C41.4444 22.2218 43.4444 24.2218 43.4444 26.6662C43.4444 29.1107 41.4444 31.1107 39 31.1107C36.5556 31.1107 34.5556 29.1107 34.5556 26.6662ZM50.1469 42.0748C46.7702 40.7431 42.8143 39.9996 39 39.9996C29.4444 39.9996 19 44.6662 19 51.5551V57.3329L26.0412 59.0932C25.7973 60.0975 25.668 61.1454 25.668 62.222H30.1124C30.1124 57.3331 34.1124 53.3331 39.0013 53.3331C40.5212 53.3331 41.9552 53.7197 43.2098 54.3995L44.2881 52.4838C42.7225 51.611 40.9239 51.1115 39.0004 51.1115C34.556 51.1115 30.7782 53.7782 29.0004 57.556L21.2227 55.556V51.556C21.2227 46.4449 30.1115 42.2227 39.0004 42.2227C42.538 42.2227 46.0755 42.8914 49.0528 44.0187L50.1469 42.0748Z" fill="#53A42A"/>
<path d="M52.0683 43.9907L40.3083 64.9954C39.438 66.5494 40.5137 68.5001 42.2403 68.5001H65.7603C67.487 68.5001 68.5627 66.5494 67.6923 64.9954L55.9323 43.9907C55.069 42.4484 52.9317 42.4484 52.0683 43.9907ZM56.3453 66.1691H51.6553L51.667 61.5001H56.3337L56.3453 66.1691ZM51.667 59.1807V49.8334H56.3337V59.1784L51.667 59.1807Z" fill="#53A42A"/>
</g>
<defs>
<clipPath id="clip0_6526_12694">
<rect width="56" height="56" fill="white" transform="translate(12 12.5)"/>
</clipPath>
</defs>
</svg>
