<svg width="32" height="33" viewBox="0 0 32 33" fill="none" xmlns="http://www.w3.org/2000/svg">
<path d="M26.5187 12.1148C26.4562 12.0398 26.425 11.9398 26.425 11.8461C25.5 10.2148 25.4437 8.22109 24.5187 6.58984C21.9125 8.05234 20.1312 10.6586 18.4312 13.0336C17.4062 14.4648 16.4875 15.9336 15.6438 17.4773C14.7937 19.0273 13.9688 20.5961 13.0188 22.0898C12.8813 22.3023 12.525 22.4023 12.375 22.1336C11.925 21.3023 11.4187 20.4961 10.8375 19.7461C10.3375 19.1023 9.76875 18.5273 9.25625 17.8961C8.4625 16.9148 7.6125 15.7398 6.5125 15.0586C6.1125 16.3711 5.64375 17.6711 5.4375 19.0336C6.975 20.0273 8.15 21.4648 9.28125 22.8836C10.6062 24.5461 11.975 26.1336 13.4625 27.6523C14.425 26.3961 15.0875 24.9336 15.8875 23.5711C16.8313 21.9648 17.9313 20.4836 19.1 19.0336C20.2688 17.5836 21.6187 16.3023 22.975 15.0398C23.6125 14.4461 24.3625 13.9586 25.0438 13.4148C25.5563 13.0023 26.0562 12.5773 26.525 12.1211C26.525 12.1273 26.525 12.1211 26.5187 12.1148Z" fill="#53A42A"/>
<path d="M27.2637 11.5085H27.0887C26.07 9.77727 26.0762 7.59602 24.9637 5.88977C24.845 5.70227 24.6262 5.69602 24.445 5.78977C21.595 7.23352 19.6825 10.021 17.87 12.546C16.8325 13.996 15.895 15.4835 15.0325 17.046C14.2637 18.4398 13.5262 19.846 12.695 21.2085C12.32 20.5585 11.9075 19.9335 11.4512 19.3398C10.9387 18.6648 10.3387 18.071 9.80748 17.4148C8.85748 16.246 7.84498 14.8585 6.45123 14.196C6.21998 14.0835 5.98873 14.2273 5.91998 14.4585C5.49498 15.9398 4.93248 17.396 4.70123 18.921C4.70123 18.9273 4.70123 18.9335 4.70123 18.946C4.57623 19.1148 4.56373 19.3898 4.80123 19.5335C6.45748 20.5085 7.67623 22.0835 8.85748 23.571C10.2325 25.3023 11.6825 26.9523 13.245 28.5148C13.3887 28.6585 13.645 28.6273 13.77 28.4835C14.845 27.196 15.5637 25.671 16.3825 24.221C17.3012 22.6023 18.3825 21.0773 19.5762 19.646C20.7762 18.2148 22.0762 16.9148 23.445 15.646C24.095 15.0398 24.8575 14.5398 25.5575 13.9835C26.12 13.5335 26.6637 13.0648 27.1762 12.5585C27.32 12.5273 27.4387 12.4273 27.4637 12.2648C27.5012 12.2273 27.5387 12.1835 27.5762 12.146C27.8137 11.871 27.5762 11.5085 27.2637 11.5085ZM25.045 13.4273C24.3637 13.971 23.62 14.4585 22.9762 15.0523C21.6137 16.3148 20.2637 17.596 19.1012 19.046C17.9325 20.496 16.8325 21.971 15.8887 23.5835C15.0887 24.946 14.4262 26.4085 13.4637 27.6648C11.9762 26.1523 10.6012 24.5585 9.28248 22.896C8.15123 21.4773 6.96998 20.0335 5.43873 19.046C5.64498 17.6835 6.11373 16.3835 6.51373 15.071C7.61998 15.7523 8.46373 16.9273 9.25748 17.9085C9.76998 18.5398 10.3387 19.1148 10.8387 19.7585C11.42 20.5085 11.9262 21.3148 12.3762 22.146C12.5262 22.421 12.8825 22.3148 13.02 22.1023C13.9762 20.6085 14.795 19.0398 15.645 17.4898C16.4887 15.946 17.4075 14.4773 18.4325 13.046C20.1325 10.671 21.92 8.05852 24.52 6.60227C25.445 8.23352 25.5012 10.2273 26.4262 11.8585C26.4262 11.9523 26.4575 12.0523 26.52 12.1273C26.52 12.1335 26.5262 12.1398 26.5262 12.1398C26.0575 12.5898 25.5575 13.0148 25.045 13.4273Z" fill="#003366"/>
</svg>
