<svg width="18" height="18" viewBox="0 0 18 18" fill="none" xmlns="http://www.w3.org/2000/svg">
<path d="M8.99127 2.24226C8.84221 2.24458 8.70017 2.30598 8.59635 2.41296C8.49253 2.51994 8.43542 2.66375 8.43756 2.81281V10.8299L7.14776 9.54011C7.09533 9.48611 7.0326 9.44319 6.96328 9.41388C6.89396 9.38456 6.81946 9.36946 6.7442 9.36945C6.63225 9.36948 6.52286 9.40291 6.43002 9.46545C6.33718 9.528 6.26511 9.61683 6.22303 9.72056C6.18095 9.8243 6.17078 9.93823 6.19382 10.0478C6.21686 10.1573 6.27206 10.2575 6.35235 10.3355L8.60235 12.5855C8.70785 12.691 8.8509 12.7502 9.00006 12.7502C9.14922 12.7502 9.29227 12.691 9.39776 12.5855L11.6478 10.3355C11.7017 10.2837 11.7448 10.2216 11.7745 10.1529C11.8042 10.0842 11.8199 10.0103 11.8207 9.93544C11.8214 9.86061 11.8073 9.78638 11.779 9.71709C11.7507 9.6478 11.7089 9.58486 11.6559 9.53194C11.603 9.47902 11.5401 9.43719 11.4708 9.4089C11.4015 9.38062 11.3273 9.36644 11.2524 9.3672C11.1776 9.36796 11.1037 9.38364 11.035 9.41333C10.9663 9.44302 10.9042 9.48612 10.8524 9.54011L9.56256 10.8299V2.81281C9.56364 2.73753 9.54959 2.66279 9.52126 2.59303C9.49292 2.52327 9.45087 2.45991 9.39759 2.4067C9.34432 2.35349 9.2809 2.31152 9.21111 2.28328C9.14131 2.25503 9.06655 2.24108 8.99127 2.24226ZM2.80377 11.6173C2.65471 11.6196 2.51267 11.681 2.40885 11.788C2.30503 11.8949 2.24792 12.0388 2.25006 12.1878V13.6878C2.25006 14.8202 3.18014 15.7503 4.31256 15.7503H13.6876C14.82 15.7503 15.7501 14.8202 15.7501 13.6878V12.1878C15.7511 12.1133 15.7373 12.0393 15.7095 11.9701C15.6818 11.9009 15.6405 11.838 15.5881 11.7849C15.5358 11.7318 15.4734 11.6897 15.4047 11.6609C15.3359 11.6321 15.2621 11.6173 15.1876 11.6173C15.113 11.6173 15.0392 11.6321 14.9704 11.6609C14.9017 11.6897 14.8393 11.7318 14.787 11.7849C14.7346 11.838 14.6934 11.9009 14.6656 11.9701C14.6378 12.0393 14.624 12.1133 14.6251 12.1878V13.6878C14.6251 14.2121 14.2119 14.6253 13.6876 14.6253H4.31256C3.78822 14.6253 3.37506 14.2121 3.37506 13.6878V12.1878C3.37614 12.1125 3.36209 12.0378 3.33376 11.968C3.30542 11.8983 3.26337 11.8349 3.21009 11.7817C3.15682 11.7285 3.0934 11.6865 3.02361 11.6583C2.95381 11.63 2.87905 11.6161 2.80377 11.6173Z" fill="white"/>
</svg>
