<svg width="18" height="19" viewBox="0 0 18 19" fill="none" xmlns="http://www.w3.org/2000/svg">
<path d="M7.6875 2.75C4.69111 2.75 2.25 5.19111 2.25 8.1875C2.25 11.1839 4.69111 13.625 7.6875 13.625C8.98363 13.625 10.1751 13.1671 11.1108 12.4062L14.7898 16.0852C14.8416 16.1392 14.9037 16.1823 14.9724 16.212C15.0411 16.2417 15.115 16.2574 15.1899 16.2581C15.2647 16.2589 15.3389 16.2447 15.4082 16.2164C15.4775 16.1881 15.5405 16.1463 15.5934 16.0934C15.6463 16.0405 15.6881 15.9775 15.7164 15.9082C15.7447 15.8389 15.7589 15.7647 15.7581 15.6899C15.7574 15.615 15.7417 15.5411 15.712 15.4724C15.6823 15.4037 15.6392 15.3416 15.5852 15.2898L11.9062 11.6108C12.6671 10.6751 13.125 9.48363 13.125 8.1875C13.125 5.19111 10.6839 2.75 7.6875 2.75ZM7.6875 3.875C10.0759 3.875 12 5.79911 12 8.1875C12 9.35098 11.5411 10.4021 10.7966 11.1765C10.7507 11.2102 10.7102 11.2507 10.6765 11.2966C9.90214 12.0411 8.85098 12.5 7.6875 12.5C5.29911 12.5 3.375 10.5759 3.375 8.1875C3.375 5.79911 5.29911 3.875 7.6875 3.875Z" fill="#86878A"/>
</svg>
