<svg width="80" height="80" viewBox="0 0 80 80" fill="none" xmlns="http://www.w3.org/2000/svg">
<rect width="80" height="80" rx="6" fill="#F1FFEB"/>
<path opacity="0.3" d="M60.9987 56.3327L28.332 46.9994V32.9993L60.9987 23.666V56.3327Z" fill="#53A42A"/>
<path fill-rule="evenodd" clip-rule="evenodd" d="M16.668 33H21.3346V47H16.668V33ZM58.668 19L56.3346 22.0007L26.0013 33V47L31.7182 49.073L31.0577 50.9414C30.5607 52.3437 31.2957 53.8837 32.7003 54.3807L37.7823 56.1774C39.1847 56.6744 40.7247 55.9394 41.2217 54.5347L41.8535 52.7483L56.3346 57.9993L58.668 61H63.3346V19H58.668ZM28.332 44.5L60.9987 56.3327V23.666L28.332 35V44.5Z" fill="#53A42A"/>
</svg>
