<svg width="80" height="80" viewBox="0 0 80 80" fill="none" xmlns="http://www.w3.org/2000/svg">
<rect width="80" height="80" rx="6" fill="#E8F4FF"/>
<path opacity="0.3" d="M22.7996 47.1207C23.796 47.1207 24.8343 47.3377 25.8353 47.676V56.006H14.1406V51.764C14.794 49.9697 19.1036 47.1207 22.7996 47.1207ZM65.6653 52.0907V56.3327H53.9706V48.0027C54.9716 47.6644 56.01 47.4474 57.0063 47.4474C60.7023 47.4474 65.012 50.2963 65.6653 52.0907ZM53.3033 56.3327H26.694L26.694 50.721C27.6996 48.726 34.3193 45.555 39.9986 45.555C45.678 45.555 52.2976 48.726 53.3033 50.721L53.3033 56.3327ZM39.9986 23.666C38.4515 23.666 36.9678 24.2806 35.8738 25.3746C34.7799 26.4685 34.1653 27.9523 34.1653 29.4993C34.1653 31.0464 34.7799 32.5302 35.8738 33.6241C36.9678 34.7181 38.4515 35.3327 39.9986 35.3327C41.5457 35.3327 43.0295 34.7181 44.1234 33.6241C45.2174 32.5302 45.832 31.0464 45.832 29.4993C45.832 27.9523 45.2174 26.4685 44.1234 25.3746C43.0295 24.2806 41.5457 23.666 39.9986 23.666ZM57.4986 30.666C56.5704 30.666 55.6801 31.0348 55.0238 31.6911C54.3674 32.3475 53.9986 33.2378 53.9986 34.166C53.9986 35.0943 54.3674 35.9845 55.0238 36.6409C55.6801 37.2973 56.5704 37.666 57.4986 37.666C58.4269 37.666 59.3171 37.2973 59.9735 36.6409C60.6299 35.9845 60.9986 35.0943 60.9986 34.166C60.9986 33.2378 60.6299 32.3475 59.9735 31.6911C59.3171 31.0348 58.4269 30.666 57.4986 30.666ZM22.4986 30.666C21.5704 30.666 20.6801 31.0348 20.0238 31.6911C19.3674 32.3475 18.9986 33.2378 18.9986 34.166C18.9986 35.0943 19.3674 35.9845 20.0238 36.6409C20.6801 37.2973 21.5704 37.666 22.4986 37.666C23.4269 37.666 24.3171 37.2973 24.9735 36.6409C25.6299 35.9845 25.9986 35.0943 25.9986 34.166C25.9986 33.2378 25.6299 32.3475 24.9735 31.6911C24.3171 31.0348 23.4269 30.666 22.4986 30.666Z" fill="#003366"/>
<path fill-rule="evenodd" clip-rule="evenodd" d="M57.5013 28.334C54.279 28.334 51.668 30.945 51.668 34.1673C51.668 37.3897 54.279 40.0007 57.5013 40.0007C60.7236 40.0007 63.3346 37.3897 63.3346 34.1673C63.3346 30.945 60.7236 28.334 57.5013 28.334ZM40.0013 21.334C35.491 21.334 31.8346 24.9903 31.8346 29.5007C31.8346 34.011 35.491 37.6673 40.0013 37.6673C44.5116 37.6673 48.168 34.011 48.168 29.5007C48.168 24.9903 44.5116 21.334 40.0013 21.334ZM40.0013 42.334C36.5721 42.334 30.9929 43.4164 27.3262 45.5719C25.8276 45.0021 24.1633 44.6673 22.5 44.6673C17.2803 44.6673 12 47.9293 12 51.5086V58.6673H22.5L23.668 58.6673L26 58.6673H54L56.3346 58.6673L57.5 58.6673H68V51.5086C68 47.9293 62.7197 44.6673 57.5 44.6673C55.8372 44.6673 54.1736 45.0019 52.6754 45.5713C49.0087 43.4162 43.4302 42.334 40.0013 42.334ZM16.6667 34.1673C16.6667 37.3897 19.2777 40.0007 22.5 40.0007C25.7223 40.0007 28.3333 37.3897 28.3333 34.1673C28.3333 30.945 25.7223 28.334 22.5 28.334C19.2777 28.334 16.6667 30.945 16.6667 34.1673ZM25.8353 47.676C24.8343 47.3377 23.796 47.1207 22.7996 47.1207C19.1036 47.1207 14.794 49.9697 14.1406 51.764V56.006H25.8353V47.676ZM65.6653 56.3327V52.0907C65.012 50.2963 60.7023 47.4474 57.0063 47.4474C56.01 47.4474 54.9716 47.6644 53.9706 48.0027V56.3327H65.6653ZM28 56L52 56.006V50.721C50.9943 48.726 45.678 45.555 39.9986 45.555C34.3193 45.555 29.0057 48.726 28 50.721L28 56ZM35.8738 25.3746C36.9678 24.2806 38.4515 23.666 39.9986 23.666C41.5457 23.666 43.0295 24.2806 44.1234 25.3746C45.2174 26.4685 45.832 27.9523 45.832 29.4993C45.832 31.0464 45.2174 32.5302 44.1234 33.6241C43.0295 34.7181 41.5457 35.3327 39.9986 35.3327C38.4515 35.3327 36.9678 34.7181 35.8738 33.6241C34.7799 32.5302 34.1653 31.0464 34.1653 29.4993C34.1653 27.9523 34.7799 26.4685 35.8738 25.3746ZM55.0238 31.6911C55.6801 31.0348 56.5704 30.666 57.4986 30.666C58.4269 30.666 59.3171 31.0348 59.9735 31.6911C60.6299 32.3475 60.9986 33.2378 60.9986 34.166C60.9986 35.0943 60.6299 35.9845 59.9735 36.6409C59.3171 37.2973 58.4269 37.666 57.4986 37.666C56.5704 37.666 55.6801 37.2973 55.0238 36.6409C54.3674 35.9845 53.9986 35.0943 53.9986 34.166C53.9986 33.2378 54.3674 32.3475 55.0238 31.6911ZM20.0238 31.6911C20.6801 31.0348 21.5704 30.666 22.4986 30.666C23.4269 30.666 24.3171 31.0348 24.9735 31.6911C25.6299 32.3475 25.9986 33.2378 25.9986 34.166C25.9986 35.0943 25.6299 35.9845 24.9735 36.6409C24.3171 37.2973 23.4269 37.666 22.4986 37.666C21.5704 37.666 20.6801 37.2973 20.0238 36.6409C19.3674 35.9845 18.9986 35.0943 18.9986 34.166C18.9986 33.2378 19.3674 32.3475 20.0238 31.6911Z" fill="#003366"/>
</svg>
