<svg width="18" height="18" viewBox="0 0 18 18" fill="none" xmlns="http://www.w3.org/2000/svg">
<path d="M7.68785 17.2494C7.1711 17.2494 6.75035 16.829 6.75035 16.3119V9.74942L5.0816 9.75055C4.56898 9.75055 4.14823 9.3343 4.14373 8.82205L4.13285 7.69592C4.1306 7.44355 4.2266 7.20617 4.40435 7.0273C4.58135 6.84805 4.81798 6.74942 5.07035 6.74942H6.75035V5.06192C6.75035 2.53217 8.0411 1.13867 10.3845 1.13867C11.3115 1.13867 12.1207 1.2043 12.1282 1.20505C12.4901 1.2373 12.7624 1.53505 12.7624 1.89767V3.61142C12.7624 3.99467 12.4504 4.30667 12.0671 4.30667H10.9766C10.5202 4.30667 10.1486 4.67792 10.1486 5.13467L10.1276 6.74942H11.7919C12.0592 6.74942 12.3142 6.86417 12.492 7.06367C12.6697 7.26317 12.7541 7.5298 12.723 7.7953L12.5921 8.9203C12.5374 9.39317 12.1369 9.74942 11.6614 9.74942H10.1254V16.3119C10.1254 16.829 9.7046 17.2494 9.18785 17.2494H7.68785Z" fill="white"/>
</svg>
