<svg width="261" height="208" viewBox="0 0 261 208" fill="none" xmlns="http://www.w3.org/2000/svg">
<g filter="url(#filter0_d_6512_2238)">
<rect x="19" y="16.627" width="223" height="169.746" rx="9.80379" fill="white"/>
</g>
<path d="M178.761 102.611C178.761 129.265 157.153 150.872 130.499 150.872C103.846 150.872 82.2383 129.265 82.2383 102.611C82.2383 75.9569 103.846 54.3496 130.499 54.3496C157.153 54.3496 178.761 75.9569 178.761 102.611ZM88.0296 102.611C88.0296 126.066 107.044 145.081 130.499 145.081C153.955 145.081 172.969 126.066 172.969 102.611C172.969 79.1554 153.955 60.141 130.499 60.141C107.044 60.141 88.0296 79.1554 88.0296 102.611Z" fill="#F0F1F3"/>
<path d="M130.499 57.2453C130.499 55.646 131.797 54.3406 133.394 54.4364C141.542 54.9259 149.451 57.476 156.369 61.8685C164.103 66.7795 170.28 73.7907 174.177 82.0824C178.074 90.3742 179.531 99.6039 178.376 108.693C177.343 116.822 174.26 124.538 169.437 131.124C168.492 132.415 166.659 132.581 165.427 131.56C164.196 130.54 164.034 128.72 164.968 127.422C169.096 121.688 171.737 115.001 172.631 107.963C173.647 99.9647 172.365 91.8426 168.936 84.5458C165.506 77.2491 160.071 71.0793 153.264 66.7576C147.275 62.9545 140.441 60.7209 133.393 60.2396C131.797 60.1307 130.499 58.8445 130.499 57.2453Z" fill="#3CA42A"/>
<path d="M168.938 126.705C170.293 127.555 170.709 129.348 169.78 130.649C163.314 139.708 153.893 146.281 143.092 149.2C132.29 152.12 120.841 151.188 110.692 146.62C109.233 145.963 108.69 144.205 109.433 142.788C110.175 141.372 111.922 140.836 113.386 141.48C122.238 145.378 132.188 146.148 141.581 143.61C150.974 141.071 159.18 135.393 164.864 127.567C165.803 126.273 167.582 125.856 168.938 126.705Z" fill="#3CA42A"/>
<path d="M85.134 102.611C83.5347 102.611 82.2292 101.313 82.3251 99.7168C82.768 92.344 84.8985 85.1573 88.5679 78.7176C92.2373 72.2779 97.3339 66.7814 103.451 62.6418C104.775 61.7455 106.557 62.2071 107.373 63.5829C108.188 64.9587 107.727 66.7269 106.41 67.634C101.154 71.2536 96.7712 76.0188 93.5997 81.5848C90.4281 87.1507 88.563 93.3508 88.1283 99.7173C88.0193 101.313 86.7332 102.611 85.134 102.611Z" fill="#F16363"/>
<path d="M118.12 146.255C117.683 147.793 116.079 148.695 114.569 148.167C104.243 144.556 95.4187 137.531 89.5862 128.209C83.7537 118.886 81.2948 107.878 82.564 97.013C82.7495 95.4245 84.2624 94.3757 85.8368 94.6561C87.4113 94.9365 88.4499 96.4399 88.2773 98.0298C87.2519 107.479 89.4249 117.032 94.4958 125.137C99.5667 133.242 107.207 139.374 116.153 142.584C117.659 143.124 118.556 144.716 118.12 146.255Z" fill="#FC9736"/>
<path d="M110.017 102.672C110.017 103.254 109.895 103.767 109.651 104.211C109.406 104.655 109.051 105.001 108.585 105.251C108.125 105.495 107.576 105.617 106.938 105.617H104.849V99.7426H106.938C107.576 99.7426 108.125 99.8647 108.585 100.109C109.051 100.347 109.406 100.688 109.651 101.132C109.895 101.57 110.017 102.084 110.017 102.672ZM106.838 104.569C107.47 104.569 107.959 104.402 108.303 104.07C108.652 103.737 108.827 103.271 108.827 102.672C108.827 102.067 108.652 101.598 108.303 101.265C107.959 100.933 107.47 100.766 106.838 100.766H106.023V104.569H106.838ZM115.23 103.138C115.23 103.254 115.216 103.387 115.189 103.537H111.81C111.827 103.947 111.938 104.25 112.143 104.444C112.348 104.638 112.604 104.735 112.909 104.735C113.181 104.735 113.405 104.669 113.583 104.535C113.766 104.402 113.882 104.222 113.932 103.995H115.172C115.111 104.316 114.981 104.605 114.781 104.86C114.581 105.115 114.323 105.315 114.007 105.459C113.696 105.603 113.35 105.675 112.967 105.675C112.518 105.675 112.118 105.581 111.769 105.393C111.419 105.198 111.147 104.924 110.953 104.569C110.759 104.214 110.662 103.795 110.662 103.312C110.662 102.83 110.759 102.411 110.953 102.056C111.147 101.695 111.419 101.421 111.769 101.232C112.118 101.043 112.518 100.949 112.967 100.949C113.422 100.949 113.818 101.043 114.157 101.232C114.501 101.421 114.764 101.681 114.947 102.014C115.136 102.342 115.23 102.716 115.23 103.138ZM114.049 103.021C114.065 102.644 113.965 102.358 113.749 102.164C113.538 101.97 113.278 101.873 112.967 101.873C112.651 101.873 112.385 101.97 112.168 102.164C111.952 102.358 111.833 102.644 111.81 103.021H114.049ZM117.236 99.4597V105.617H116.063V99.4597H117.236ZM118.165 99.6844C118.165 99.4958 118.231 99.3432 118.364 99.2267C118.497 99.1047 118.672 99.0437 118.889 99.0437C119.105 99.0437 119.28 99.1047 119.413 99.2267C119.546 99.3432 119.612 99.4958 119.612 99.6844C119.612 99.8674 119.546 100.02 119.413 100.142C119.28 100.259 119.105 100.317 118.889 100.317C118.672 100.317 118.497 100.259 118.364 100.142C118.231 100.02 118.165 99.8674 118.165 99.6844ZM119.471 101.007V105.617H118.298V101.007H119.471ZM122.538 104.444L123.703 101.007H124.951L123.245 105.617H121.814L120.108 101.007H121.364L122.538 104.444ZM129.938 103.138C129.938 103.254 129.924 103.387 129.896 103.537H126.518C126.535 103.947 126.646 104.25 126.851 104.444C127.056 104.638 127.311 104.735 127.617 104.735C127.888 104.735 128.113 104.669 128.291 104.535C128.474 104.402 128.59 104.222 128.64 103.995H129.88C129.819 104.316 129.688 104.605 129.489 104.86C129.289 105.115 129.031 105.315 128.715 105.459C128.404 105.603 128.058 105.675 127.675 105.675C127.225 105.675 126.826 105.581 126.477 105.393C126.127 105.198 125.855 104.924 125.661 104.569C125.467 104.214 125.37 103.795 125.37 103.312C125.37 102.83 125.467 102.411 125.661 102.056C125.855 101.695 126.127 101.421 126.477 101.232C126.826 101.043 127.225 100.949 127.675 100.949C128.13 100.949 128.526 101.043 128.865 101.232C129.209 101.421 129.472 101.681 129.655 102.014C129.844 102.342 129.938 102.716 129.938 103.138ZM128.757 103.021C128.773 102.644 128.673 102.358 128.457 102.164C128.246 101.97 127.985 101.873 127.675 101.873C127.359 101.873 127.092 101.97 126.876 102.164C126.66 102.358 126.54 102.644 126.518 103.021H128.757ZM131.944 101.889C132.116 101.595 132.344 101.365 132.627 101.199C132.909 101.027 133.226 100.941 133.575 100.941V102.197H133.234C132.374 102.197 131.944 102.597 131.944 103.396V105.617H130.771V101.007H131.944V101.889ZM135.015 101.007L136.271 104.136L137.436 101.007H138.726L135.905 107.814H134.607L135.647 105.484L133.709 101.007H135.015ZM140.866 104.694C142.747 103.39 143.687 102.308 143.687 101.448C143.687 101.188 143.623 100.982 143.496 100.833C143.374 100.683 143.179 100.608 142.913 100.608C142.364 100.608 142.073 100.982 142.039 101.731H140.899C140.933 101.038 141.144 100.514 141.532 100.159C141.92 99.7981 142.411 99.6178 143.005 99.6178C143.609 99.6178 144.072 99.7759 144.394 100.092C144.721 100.403 144.885 100.819 144.885 101.34C144.885 101.751 144.763 102.164 144.519 102.58C144.28 102.991 143.975 103.371 143.604 103.72C143.232 104.064 142.841 104.361 142.43 104.61H145.002V105.567H140.866V104.694ZM147.776 99.518C148.175 99.518 148.516 99.5873 148.799 99.726C149.088 99.8647 149.304 100.056 149.448 100.3C149.598 100.544 149.673 100.816 149.673 101.116C149.673 101.493 149.57 101.803 149.365 102.048C149.16 102.286 148.888 102.433 148.55 102.489V102.53C149.371 102.774 149.781 103.257 149.781 103.978C149.781 104.483 149.612 104.893 149.274 105.209C148.935 105.52 148.458 105.675 147.842 105.675C147.188 105.675 146.666 105.515 146.278 105.193C145.89 104.866 145.673 104.375 145.629 103.72H146.777C146.805 104.02 146.902 104.258 147.069 104.436C147.241 104.608 147.482 104.694 147.793 104.694C148.059 104.694 148.267 104.621 148.417 104.477C148.566 104.327 148.641 104.133 148.641 103.895C148.641 103.612 148.533 103.396 148.317 103.246C148.1 103.096 147.781 103.021 147.36 103.021H147.119V102.064H147.36C148.136 102.075 148.525 101.806 148.525 101.257C148.525 101.019 148.455 100.833 148.317 100.7C148.178 100.561 147.989 100.492 147.751 100.492C147.501 100.492 147.296 100.572 147.135 100.733C146.974 100.888 146.883 101.107 146.861 101.39H145.712C145.746 100.791 145.94 100.331 146.295 100.009C146.65 99.6816 147.143 99.518 147.776 99.518ZM151.575 98.7774C151.664 99.0714 151.709 99.371 151.709 99.6761C151.709 100.037 151.62 100.32 151.442 100.525C151.27 100.725 151.012 100.824 150.668 100.824V100.358C150.813 100.358 150.918 100.317 150.985 100.234C151.057 100.15 151.093 100.02 151.093 99.8425V99.6844H150.61V98.7774H151.575ZM154.178 100.949C154.738 100.949 155.188 101.091 155.526 101.374C155.865 101.656 156.075 102.034 156.159 102.505H155.06C155.016 102.283 154.916 102.106 154.761 101.973C154.605 101.84 154.403 101.773 154.153 101.773C153.954 101.773 153.798 101.82 153.687 101.914C153.576 102.009 153.521 102.136 153.521 102.297C153.521 102.425 153.565 102.527 153.654 102.605C153.743 102.683 153.854 102.744 153.987 102.788C154.12 102.832 154.311 102.885 154.561 102.946C154.91 103.024 155.193 103.107 155.41 103.196C155.632 103.279 155.82 103.415 155.976 103.604C156.136 103.787 156.217 104.036 156.217 104.352C156.217 104.746 156.062 105.065 155.751 105.309C155.446 105.553 155.032 105.675 154.511 105.675C153.912 105.675 153.432 105.542 153.072 105.276C152.711 105.004 152.492 104.619 152.414 104.119H153.538C153.565 104.347 153.665 104.527 153.837 104.66C154.009 104.788 154.234 104.852 154.511 104.852C154.711 104.852 154.863 104.805 154.969 104.71C155.074 104.61 155.127 104.483 155.127 104.327C155.127 104.194 155.08 104.086 154.985 104.003C154.897 103.92 154.783 103.856 154.644 103.812C154.511 103.767 154.32 103.714 154.07 103.653C153.726 103.576 153.446 103.498 153.23 103.42C153.019 103.337 152.836 103.207 152.68 103.029C152.531 102.852 152.456 102.608 152.456 102.297C152.456 101.898 152.608 101.573 152.913 101.324C153.219 101.074 153.64 100.949 154.178 100.949Z" fill="#003366"/>
<path d="M180.605 88.6359V87.5376H182.718V93.4121H181.487V88.6359H180.605ZM183.559 92.4885C185.44 91.1849 186.38 90.1032 186.38 89.2433C186.38 88.9826 186.316 88.7774 186.189 88.6276C186.067 88.4778 185.873 88.4029 185.606 88.4029C185.057 88.4029 184.766 88.7774 184.733 89.5263H183.593C183.626 88.8328 183.837 88.3086 184.225 87.9536C184.613 87.593 185.104 87.4127 185.698 87.4127C186.303 87.4127 186.766 87.5708 187.088 87.887C187.415 88.1977 187.578 88.6137 187.578 89.1352C187.578 89.5457 187.456 89.9589 187.212 90.375C186.974 90.7855 186.669 91.1655 186.297 91.5149C185.925 91.8589 185.534 92.1557 185.124 92.4053H187.695V93.3622H183.559V92.4885ZM191.243 88.7358C191.776 88.7358 192.2 88.9105 192.516 89.26C192.832 89.6095 192.99 90.1004 192.99 90.7328V93.4121H191.825V90.8659C191.825 90.4998 191.731 90.2169 191.543 90.0172C191.354 89.8119 191.096 89.7093 190.769 89.7093C190.436 89.7093 190.17 89.8175 189.97 90.0338C189.77 90.2502 189.67 90.5608 189.67 90.9658V93.4121H188.497V87.2546H189.67V89.726C189.792 89.4153 189.992 89.174 190.269 89.002C190.552 88.8245 190.877 88.7358 191.243 88.7358ZM199.895 88.4529H197.108V89.934C197.235 89.7842 197.41 89.6649 197.632 89.5762C197.86 89.4819 198.109 89.4347 198.381 89.4347C198.786 89.4347 199.122 89.5235 199.388 89.701C199.66 89.873 199.859 90.1059 199.987 90.3999C200.12 90.6884 200.187 91.0101 200.187 91.3652C200.187 91.992 200.009 92.494 199.654 92.8713C199.305 93.2485 198.803 93.4371 198.148 93.4371C197.721 93.4371 197.349 93.3622 197.033 93.2124C196.717 93.0571 196.47 92.8435 196.292 92.5717C196.115 92.2943 196.018 91.9726 196.001 91.6065H197.141C197.186 91.8561 197.288 92.0558 197.449 92.2056C197.61 92.3498 197.823 92.4219 198.09 92.4219C198.412 92.4219 198.65 92.3248 198.805 92.1307C198.966 91.931 199.047 91.6675 199.047 91.3402C199.047 91.0296 198.963 90.7883 198.797 90.6163C198.631 90.4443 198.395 90.3583 198.09 90.3583C197.868 90.3583 197.679 90.4083 197.524 90.5081C197.369 90.6024 197.255 90.73 197.183 90.8909H196.043V87.4211H199.895V88.4529ZM204.071 89.1352C203.982 88.5583 203.688 88.2698 203.189 88.2698C202.801 88.2698 202.518 88.4418 202.34 88.7857C202.163 89.1241 202.085 89.6566 202.107 90.3833C202.196 90.117 202.368 89.9062 202.623 89.7509C202.884 89.59 203.186 89.5096 203.53 89.5096C204.096 89.5096 204.54 89.6816 204.861 90.0255C205.189 90.3639 205.352 90.8465 205.352 91.4733C205.352 91.8616 205.275 92.2056 205.119 92.5051C204.964 92.8047 204.731 93.0404 204.42 93.2124C204.115 93.3844 203.744 93.4704 203.305 93.4704C202.451 93.4704 201.863 93.2069 201.541 92.6799C201.22 92.1473 201.059 91.4151 201.059 90.4832C201.059 89.4125 201.231 88.6193 201.575 88.1034C201.924 87.5875 202.487 87.3295 203.264 87.3295C203.857 87.3295 204.312 87.4987 204.628 87.8371C204.945 88.1755 205.125 88.6082 205.169 89.1352H204.071ZM202.207 91.3901C202.207 91.7008 202.296 91.9587 202.473 92.164C202.656 92.3637 202.923 92.4635 203.272 92.4635C203.572 92.4635 203.81 92.3748 203.988 92.1973C204.165 92.0197 204.254 91.7729 204.254 91.4567C204.254 91.1239 204.162 90.8687 203.979 90.6912C203.802 90.5137 203.561 90.4249 203.255 90.4249C202.967 90.4249 202.72 90.5081 202.515 90.6745C202.31 90.841 202.207 91.0795 202.207 91.3901ZM212.167 88.7358C212.727 88.7358 213.168 88.9105 213.49 89.26C213.817 89.6039 213.981 90.0948 213.981 90.7328V93.4121H212.816V90.8659C212.816 90.5109 212.725 90.2391 212.542 90.0505C212.364 89.8563 212.117 89.7592 211.801 89.7592C211.474 89.7592 211.213 89.8619 211.019 90.0671C210.825 90.2724 210.728 90.5719 210.728 90.9658V93.4121H209.563V90.8659C209.563 90.5109 209.471 90.2391 209.288 90.0505C209.111 89.8563 208.864 89.7592 208.548 89.7592C208.22 89.7592 207.96 89.8619 207.765 90.0671C207.571 90.2724 207.474 90.5719 207.474 90.9658V93.4121H206.301V88.8023H207.474V89.676C207.596 89.3765 207.788 89.1463 208.048 88.9854C208.315 88.819 208.622 88.7358 208.972 88.7358C209.344 88.7358 209.665 88.8245 209.937 89.002C210.215 89.1795 210.423 89.4347 210.561 89.7676C210.705 89.4514 210.919 89.2017 211.202 89.0187C211.49 88.8301 211.812 88.7358 212.167 88.7358Z" fill="#3CA42A"/>
<path d="M54.4194 123.957H51.6319V125.438C51.7595 125.288 51.9342 125.169 52.1561 125.08C52.3836 124.986 52.6332 124.939 52.905 124.939C53.31 124.939 53.6456 125.027 53.9118 125.205C54.1837 125.377 54.3834 125.61 54.5109 125.904C54.6441 126.192 54.7106 126.514 54.7106 126.869C54.7106 127.496 54.5331 127.998 54.1781 128.375C53.8286 128.752 53.3266 128.941 52.672 128.941C52.2449 128.941 51.8732 128.866 51.557 128.716C51.2408 128.561 50.994 128.347 50.8165 128.076C50.6389 127.798 50.5419 127.477 50.5252 127.11H51.6652C51.7096 127.36 51.8122 127.56 51.9731 127.709C52.1339 127.854 52.3475 127.926 52.6138 127.926C52.9355 127.926 53.174 127.829 53.3294 127.635C53.4902 127.435 53.5707 127.171 53.5707 126.844C53.5707 126.533 53.4875 126.292 53.3211 126.12C53.1546 125.948 52.9189 125.862 52.6138 125.862C52.3919 125.862 52.2033 125.912 52.048 126.012C51.8926 126.106 51.7789 126.234 51.7068 126.395H50.5668V122.925H54.4194V123.957ZM58.3703 124.24C58.9028 124.24 59.3272 124.414 59.6434 124.764C59.9596 125.113 60.1177 125.604 60.1177 126.237V128.916H58.9527V126.37C58.9527 126.004 58.8584 125.721 58.6698 125.521C58.4812 125.316 58.2233 125.213 57.896 125.213C57.5631 125.213 57.2969 125.321 57.0972 125.538C56.8975 125.754 56.7976 126.065 56.7976 126.47V128.916H55.6244V122.759H56.7976V125.23C56.9197 124.919 57.1194 124.678 57.3967 124.506C57.6796 124.328 58.0042 124.24 58.3703 124.24ZM64.9341 122.817C65.3335 122.817 65.6747 122.886 65.9576 123.025C66.246 123.164 66.4624 123.355 66.6066 123.599C66.7564 123.843 66.8313 124.115 66.8313 124.414C66.8313 124.792 66.7286 125.102 66.5234 125.346C66.3181 125.585 66.0463 125.732 65.7079 125.787V125.829C66.5289 126.073 66.9394 126.556 66.9394 127.277C66.9394 127.782 66.7702 128.192 66.4319 128.508C66.0935 128.819 65.6164 128.974 65.0007 128.974C64.3461 128.974 63.8246 128.813 63.4363 128.492C63.048 128.164 62.8317 127.673 62.7873 127.019H63.9356C63.9633 127.318 64.0604 127.557 64.2268 127.734C64.3988 127.906 64.6401 127.992 64.9507 127.992C65.217 127.992 65.425 127.92 65.5748 127.776C65.7246 127.626 65.7995 127.432 65.7995 127.194C65.7995 126.911 65.6913 126.694 65.475 126.545C65.2586 126.395 64.9396 126.32 64.5181 126.32H64.2767V125.363H64.5181C65.2947 125.374 65.683 125.105 65.683 124.556C65.683 124.317 65.6136 124.132 65.475 123.998C65.3363 123.86 65.1477 123.79 64.9091 123.79C64.6595 123.79 64.4543 123.871 64.2934 124.032C64.1325 124.187 64.041 124.406 64.0188 124.689H62.8705C62.9038 124.09 63.098 123.629 63.453 123.308C63.808 122.98 64.3017 122.817 64.9341 122.817ZM70.9138 124.639C70.825 124.062 70.531 123.774 70.0317 123.774C69.6434 123.774 69.3605 123.946 69.183 124.29C69.0055 124.628 68.9278 125.161 68.95 125.887C69.0388 125.621 69.2108 125.41 69.4659 125.255C69.7266 125.094 70.029 125.014 70.3729 125.014C70.9387 125.014 71.3825 125.185 71.7042 125.529C72.0315 125.868 72.1952 126.35 72.1952 126.977C72.1952 127.366 72.1175 127.709 71.9622 128.009C71.8069 128.309 71.5739 128.544 71.2632 128.716C70.9581 128.888 70.5865 128.974 70.1482 128.974C69.294 128.974 68.706 128.711 68.3842 128.184C68.0625 127.651 67.9016 126.919 67.9016 125.987C67.9016 124.916 68.0736 124.123 68.4175 123.607C68.767 123.091 69.33 122.833 70.1066 122.833C70.7002 122.833 71.1551 123.003 71.4713 123.341C71.7875 123.679 71.9677 124.112 72.0121 124.639H70.9138ZM69.0499 126.894C69.0499 127.205 69.1386 127.463 69.3162 127.668C69.4992 127.868 69.7655 127.967 70.115 127.967C70.4145 127.967 70.653 127.879 70.8306 127.701C71.0081 127.524 71.0968 127.277 71.0968 126.961C71.0968 126.628 71.0053 126.373 70.8222 126.195C70.6447 126.018 70.4034 125.929 70.0983 125.929C69.8099 125.929 69.563 126.012 69.3578 126.178C69.1525 126.345 69.0499 126.583 69.0499 126.894ZM79.01 124.24C79.5703 124.24 80.0113 124.414 80.333 124.764C80.6603 125.108 80.8239 125.599 80.8239 126.237V128.916H79.659V126.37C79.659 126.015 79.5675 125.743 79.3844 125.554C79.2069 125.36 78.9601 125.263 78.6439 125.263C78.3166 125.263 78.0559 125.366 77.8617 125.571C77.6676 125.776 77.5705 126.076 77.5705 126.47V128.916H76.4056V126.37C76.4056 126.015 76.314 125.743 76.131 125.554C75.9535 125.36 75.7066 125.263 75.3904 125.263C75.0631 125.263 74.8024 125.366 74.6082 125.571C74.4141 125.776 74.317 126.076 74.317 126.47V128.916H73.1438V124.306H74.317V125.18C74.439 124.88 74.6304 124.65 74.8912 124.489C75.1574 124.323 75.4653 124.24 75.8148 124.24C76.1864 124.24 76.5082 124.328 76.78 124.506C77.0574 124.683 77.2654 124.939 77.4041 125.271C77.5483 124.955 77.7619 124.706 78.0448 124.523C78.3332 124.334 78.655 124.24 79.01 124.24Z" fill="#FC9736"/>
<path d="M56.4435 69.7765V68.6782H58.557V74.5527H57.3255V69.7765H56.4435ZM62.3686 69.8764C62.9011 69.8764 63.3255 70.0511 63.6417 70.4006C63.9579 70.7501 64.116 71.241 64.116 71.8734V74.5527H62.951V72.0065C62.951 71.6404 62.8567 71.3575 62.6681 71.1578C62.4795 70.9526 62.2216 70.8499 61.8943 70.8499C61.5615 70.8499 61.2952 70.9581 61.0955 71.1745C60.8958 71.3908 60.7959 71.7014 60.7959 72.1064V74.5527H59.6227V68.3953H60.7959V70.8666C60.918 70.5559 61.1177 70.3146 61.395 70.1427C61.678 69.9651 62.0025 69.8764 62.3686 69.8764ZM71.021 69.5935H68.2335V71.0746C68.361 70.9248 68.5358 70.8056 68.7577 70.7168C68.9851 70.6225 69.2347 70.5753 69.5065 70.5753C69.9115 70.5753 70.2471 70.6641 70.5134 70.8416C70.7852 71.0136 70.9849 71.2466 71.1125 71.5406C71.2456 71.829 71.3122 72.1508 71.3122 72.5058C71.3122 73.1326 71.1347 73.6347 70.7796 74.0119C70.4302 74.3891 69.9281 74.5777 69.2736 74.5777C68.8464 74.5777 68.4748 74.5028 68.1586 74.353C67.8424 74.1977 67.5955 73.9841 67.418 73.7123C67.2405 73.435 67.1434 73.1132 67.1268 72.7471H68.2667C68.3111 72.9967 68.4137 73.1964 68.5746 73.3462C68.7355 73.4904 68.949 73.5625 69.2153 73.5625C69.5371 73.5625 69.7756 73.4655 69.9309 73.2713C70.0918 73.0716 70.1722 72.8081 70.1722 72.4808C70.1722 72.1702 70.089 71.9289 69.9226 71.7569C69.7562 71.5849 69.5204 71.499 69.2153 71.499C68.9934 71.499 68.8048 71.5489 68.6495 71.6487C68.4942 71.743 68.3805 71.8706 68.3083 72.0315H67.1684V68.5617H71.021V69.5935ZM72.0013 73.6291C73.8818 72.3255 74.822 71.2438 74.822 70.384C74.822 70.1232 74.7582 69.918 74.6307 69.7682C74.5086 69.6184 74.3145 69.5436 74.0482 69.5436C73.499 69.5436 73.2078 69.918 73.1745 70.6669H72.0345C72.0678 69.9735 72.2786 69.4493 72.6669 69.0942C73.0552 68.7337 73.5462 68.5534 74.1397 68.5534C74.7444 68.5534 75.2076 68.7115 75.5293 69.0277C75.8566 69.3383 76.0203 69.7544 76.0203 70.2758C76.0203 70.6863 75.8982 71.0996 75.6541 71.5156C75.4156 71.9261 75.1105 72.3061 74.7388 72.6556C74.3672 72.9995 73.9761 73.2963 73.5656 73.5459H76.1367V74.5028H72.0013V73.6291ZM82.8052 69.8764C83.3654 69.8764 83.8064 70.0511 84.1282 70.4006C84.4555 70.7445 84.6191 71.2355 84.6191 71.8734V74.5527H83.4542V72.0065C83.4542 71.6515 83.3627 71.3797 83.1796 71.1911C83.0021 70.9969 82.7552 70.8999 82.439 70.8999C82.1118 70.8999 81.851 71.0025 81.6569 71.2077C81.4627 71.413 81.3656 71.7125 81.3656 72.1064V74.5527H80.2007V72.0065C80.2007 71.6515 80.1092 71.3797 79.9261 71.1911C79.7486 70.9969 79.5018 70.8999 79.1856 70.8999C78.8583 70.8999 78.5976 71.0025 78.4034 71.2077C78.2093 71.413 78.1122 71.7125 78.1122 72.1064V74.5527H76.9389V69.943H78.1122V70.8167C78.2342 70.5171 78.4256 70.2869 78.6863 70.126C78.9526 69.9596 79.2605 69.8764 79.6099 69.8764C79.9816 69.8764 80.3033 69.9651 80.5752 70.1427C80.8525 70.3202 81.0605 70.5753 81.1992 70.9082C81.3435 70.592 81.557 70.3424 81.8399 70.1593C82.1284 69.9707 82.4501 69.8764 82.8052 69.8764Z" fill="#F16363"/>
<rect x="51.1523" y="165.234" width="5.6804" height="5.6804" rx="2.8402" fill="#3CA42A"/>
<path d="M61.9101 171.074V166.013H62.9672L64.3918 170.038L65.8375 166.013H66.8876V171.074H66.121V167.042L64.7209 171.074H64.0663L62.6732 167.073V171.074H61.9101ZM69.4761 171.144C69.1378 171.144 68.8414 171.072 68.5871 170.927C68.335 170.78 68.139 170.568 67.999 170.29C67.8613 170.012 67.7925 169.676 67.7925 169.282C67.7925 168.902 67.8578 168.569 67.9885 168.284C68.1215 168 68.314 167.779 68.5661 167.623C68.8181 167.464 69.1226 167.385 69.4796 167.385C69.8203 167.385 70.1155 167.46 70.3652 167.609C70.6149 167.756 70.8086 167.972 70.9463 168.256C71.084 168.539 71.1528 168.881 71.1528 169.282C71.1528 169.648 71.0875 169.972 70.9568 170.252C70.8284 170.532 70.6394 170.751 70.3897 170.91C70.1424 171.066 69.8378 171.144 69.4761 171.144ZM69.4796 170.567C69.685 170.567 69.8565 170.513 69.9942 170.406C70.1342 170.296 70.2392 170.143 70.3092 169.947C70.3792 169.749 70.4142 169.52 70.4142 169.261C70.4142 169.021 70.3827 168.803 70.3197 168.606C70.2591 168.408 70.1599 168.251 70.0222 168.134C69.8845 168.017 69.7037 167.959 69.4796 167.959C69.2696 167.959 69.0946 168.013 68.9546 168.12C68.8146 168.225 68.7084 168.375 68.6361 168.571C68.5661 168.765 68.5311 168.995 68.5311 169.261C68.5311 169.497 68.5626 169.714 68.6256 169.912C68.6886 170.11 68.7901 170.269 68.9301 170.388C69.0701 170.507 69.2533 170.567 69.4796 170.567ZM74.7816 167.455L73.4655 171.074H72.8319L71.5123 167.455H72.2054L73.1224 170.126H73.1715L74.0885 167.455H74.7816ZM75.9035 169.44C75.9035 169.657 75.9385 169.851 76.0085 170.024C76.0809 170.194 76.1894 170.33 76.334 170.43C76.4787 170.528 76.6584 170.577 76.8731 170.577C77.0878 170.577 77.2733 170.528 77.4296 170.43C77.5883 170.332 77.6922 170.186 77.7412 169.993H78.4342C78.3922 170.24 78.2931 170.45 78.1367 170.623C77.9827 170.795 77.796 170.926 77.5767 171.015C77.3573 171.101 77.1275 171.144 76.8871 171.144C76.5441 171.144 76.2419 171.071 75.9805 170.924C75.7192 170.774 75.515 170.562 75.368 170.287C75.2233 170.011 75.1509 169.683 75.1509 169.303C75.1509 168.927 75.2174 168.596 75.3505 168.309C75.4835 168.02 75.676 167.793 75.928 167.63C76.18 167.467 76.4834 167.385 76.8381 167.385C77.1881 167.385 77.4822 167.46 77.7202 167.609C77.9605 167.758 78.1425 167.968 78.2662 168.239C78.3899 168.507 78.4517 168.825 78.4517 169.191V169.44H75.9035ZM75.9035 168.953H77.7377C77.7377 168.764 77.705 168.592 77.6397 168.438C77.5743 168.282 77.474 168.16 77.3386 168.071C77.2056 167.98 77.0376 167.934 76.8346 167.934C76.6269 167.934 76.4542 167.985 76.3165 168.085C76.1789 168.185 76.075 168.314 76.005 168.47C75.9373 168.626 75.9035 168.787 75.9035 168.953ZM80.5427 166.695V166.013H84.4316V166.695H82.9019V171.074H82.1458V166.695H80.5427ZM85.92 167.455V171.074H85.1989V167.455H85.92ZM85.934 166.016V166.755H85.1814V166.016H85.934ZM87.0713 171.074V167.455H87.7994V167.976C87.902 167.818 88.042 167.68 88.2194 167.563C88.3967 167.444 88.6254 167.385 88.9055 167.385C89.0361 167.385 89.168 167.407 89.301 167.451C89.4363 167.496 89.56 167.562 89.672 167.651C89.7864 167.737 89.8762 167.845 89.9416 167.973C90.0559 167.8 90.2087 167.659 90.4001 167.549C90.5914 167.44 90.8061 167.385 91.0442 167.385C91.1725 167.385 91.3055 167.406 91.4432 167.448C91.5809 167.488 91.7081 167.556 91.8247 167.654C91.9437 167.75 92.0394 167.883 92.1118 168.053C92.1864 168.224 92.2238 168.44 92.2238 168.701V171.074H91.4712V168.782C91.4712 168.583 91.4374 168.428 91.3697 168.316C91.3043 168.204 91.218 168.126 91.1107 168.081C91.0057 168.035 90.8936 168.011 90.7746 168.011C90.6673 168.011 90.5553 168.032 90.4386 168.074C90.3219 168.116 90.2227 168.186 90.1411 168.284C90.0594 168.382 90.0186 168.515 90.0186 168.683V171.074H89.2695V168.62C89.2695 168.487 89.2333 168.375 89.161 168.284C89.091 168.193 89.0023 168.126 88.895 168.081C88.7899 168.035 88.6849 168.011 88.5799 168.011C88.4633 168.011 88.3466 168.035 88.2299 168.081C88.1132 168.128 88.0152 168.202 87.9359 168.302C87.8589 168.4 87.8204 168.527 87.8204 168.683V171.074H87.0713ZM93.7852 169.44C93.7852 169.657 93.8202 169.851 93.8902 170.024C93.9626 170.194 94.0711 170.33 94.2158 170.43C94.3605 170.528 94.5401 170.577 94.7548 170.577C94.9695 170.577 95.155 170.528 95.3114 170.43C95.4701 170.332 95.5739 170.186 95.6229 169.993H96.316C96.274 170.24 96.1748 170.45 96.0184 170.623C95.8644 170.795 95.6777 170.926 95.4584 171.015C95.239 171.101 95.0092 171.144 94.7688 171.144C94.4258 171.144 94.1236 171.071 93.8622 170.924C93.6009 170.774 93.3967 170.562 93.2497 170.287C93.105 170.011 93.0327 169.683 93.0327 169.303C93.0327 168.927 93.0992 168.596 93.2322 168.309C93.3652 168.02 93.5577 167.793 93.8097 167.63C94.0618 167.467 94.3651 167.385 94.7198 167.385C95.0699 167.385 95.3639 167.46 95.6019 167.609C95.8423 167.758 96.0243 167.968 96.148 168.239C96.2716 168.507 96.3335 168.825 96.3335 169.191V169.44H93.7852ZM93.7852 168.953H95.6194C95.6194 168.764 95.5867 168.592 95.5214 168.438C95.4561 168.282 95.3557 168.16 95.2204 168.071C95.0874 167.98 94.9193 167.934 94.7163 167.934C94.5086 167.934 94.336 167.985 94.1983 168.085C94.0606 168.185 93.9568 168.314 93.8867 168.47C93.8191 168.626 93.7852 168.787 93.7852 168.953Z" fill="#667085"/>
<rect x="110.586" y="165.234" width="5.6804" height="5.6804" rx="2.8402" fill="#FC9736"/>
<path d="M123.111 171.144C122.871 171.144 122.636 171.114 122.408 171.053C122.179 170.993 121.971 170.903 121.785 170.784C121.598 170.662 121.443 170.512 121.319 170.332C121.198 170.152 121.122 169.942 121.092 169.702H121.872C121.912 169.884 121.99 170.037 122.107 170.161C122.226 170.284 122.372 170.378 122.544 170.441C122.717 170.504 122.905 170.535 123.108 170.535C123.332 170.535 123.533 170.505 123.71 170.444C123.89 170.381 124.032 170.292 124.137 170.178C124.242 170.061 124.294 169.921 124.294 169.758C124.294 169.611 124.258 169.486 124.186 169.384C124.116 169.281 124.016 169.196 123.885 169.128C123.757 169.058 123.601 169.003 123.419 168.964L122.46 168.747C122.085 168.667 121.788 168.52 121.571 168.305C121.357 168.088 121.248 167.801 121.246 167.444C121.243 167.146 121.322 166.884 121.48 166.66C121.641 166.436 121.861 166.262 122.138 166.139C122.416 166.013 122.732 165.95 123.087 165.95C123.5 165.95 123.846 166.019 124.126 166.156C124.409 166.294 124.622 166.476 124.767 166.702C124.912 166.926 124.985 167.17 124.988 167.434H124.221C124.202 167.219 124.139 167.049 124.032 166.923C123.925 166.797 123.789 166.707 123.626 166.653C123.465 166.597 123.288 166.569 123.094 166.569C122.954 166.569 122.82 166.587 122.691 166.622C122.563 166.657 122.45 166.708 122.352 166.776C122.254 166.843 122.176 166.928 122.117 167.028C122.061 167.126 122.033 167.239 122.033 167.367C122.033 167.54 122.092 167.68 122.208 167.787C122.325 167.895 122.54 167.987 122.852 168.064L123.79 168.277C124.059 168.333 124.276 168.416 124.441 168.526C124.607 168.633 124.734 168.756 124.823 168.894C124.912 169.031 124.972 169.175 125.005 169.324C125.038 169.471 125.054 169.612 125.054 169.748C125.054 170.009 124.976 170.246 124.82 170.458C124.663 170.668 124.44 170.835 124.151 170.959C123.862 171.082 123.515 171.144 123.111 171.144ZM127.841 167.994H127.029L127.033 170.154C127.033 170.273 127.044 170.36 127.068 170.416C127.093 170.47 127.135 170.505 127.194 170.521C127.254 170.535 127.336 170.542 127.439 170.542H127.862V171.029C127.816 171.047 127.746 171.064 127.652 171.078C127.561 171.092 127.444 171.099 127.299 171.099C127.03 171.099 126.822 171.063 126.672 170.99C126.525 170.918 126.423 170.814 126.364 170.679C126.308 170.541 126.28 170.375 126.28 170.182V167.994H125.692V167.455H126.301L126.487 166.391H127.029V167.451H127.841V167.994ZM130.134 171.144C129.796 171.144 129.5 171.072 129.245 170.927C128.993 170.78 128.797 170.568 128.657 170.29C128.519 170.012 128.451 169.676 128.451 169.282C128.451 168.902 128.516 168.569 128.647 168.284C128.78 168 128.972 167.779 129.224 167.623C129.476 167.464 129.781 167.385 130.138 167.385C130.479 167.385 130.774 167.46 131.023 167.609C131.273 167.756 131.467 167.972 131.604 168.256C131.742 168.539 131.811 168.881 131.811 169.282C131.811 169.648 131.746 169.972 131.615 170.252C131.487 170.532 131.298 170.751 131.048 170.91C130.801 171.066 130.496 171.144 130.134 171.144ZM130.138 170.567C130.343 170.567 130.515 170.513 130.652 170.406C130.792 170.296 130.897 170.143 130.967 169.947C131.037 169.749 131.072 169.52 131.072 169.261C131.072 169.021 131.041 168.803 130.978 168.606C130.917 168.408 130.818 168.251 130.68 168.134C130.543 168.017 130.362 167.959 130.138 167.959C129.928 167.959 129.753 168.013 129.613 168.12C129.473 168.225 129.367 168.375 129.294 168.571C129.224 168.765 129.189 168.995 129.189 169.261C129.189 169.497 129.221 169.714 129.284 169.912C129.347 170.11 129.448 170.269 129.588 170.388C129.728 170.507 129.911 170.567 130.138 170.567ZM132.651 172.201V167.455H133.4L133.407 168.057C133.451 167.978 133.508 167.899 133.578 167.822C133.648 167.743 133.731 167.671 133.827 167.605C133.925 167.538 134.036 167.484 134.159 167.444C134.285 167.405 134.424 167.385 134.576 167.385C134.861 167.385 135.111 167.451 135.328 167.584C135.548 167.715 135.718 167.917 135.84 168.19C135.963 168.461 136.025 168.805 136.025 169.223C136.025 169.643 135.963 169.995 135.84 170.28C135.718 170.564 135.544 170.78 135.318 170.927C135.092 171.072 134.823 171.144 134.513 171.144C134.364 171.144 134.229 171.123 134.11 171.081C133.991 171.039 133.886 170.984 133.795 170.917C133.704 170.847 133.626 170.772 133.561 170.693C133.498 170.611 133.445 170.531 133.403 170.451V172.201H132.651ZM134.355 170.574C134.633 170.574 134.861 170.466 135.038 170.252C135.218 170.035 135.307 169.696 135.307 169.237C135.307 168.842 135.225 168.531 135.059 168.302C134.896 168.071 134.661 167.955 134.355 167.955C134.04 167.955 133.802 168.076 133.641 168.316C133.48 168.554 133.4 168.861 133.4 169.237C133.4 169.482 133.435 169.706 133.505 169.909C133.577 170.109 133.684 170.27 133.827 170.392C133.969 170.513 134.145 170.574 134.355 170.574ZM138.083 166.695V166.013H141.971V166.695H140.442V171.074H139.686V166.695H138.083ZM143.46 167.455V171.074H142.739V167.455H143.46ZM143.474 166.016V166.755H142.721V166.016H143.474ZM144.611 171.074V167.455H145.339V167.976C145.442 167.818 145.582 167.68 145.759 167.563C145.937 167.444 146.165 167.385 146.445 167.385C146.576 167.385 146.708 167.407 146.841 167.451C146.976 167.496 147.1 167.562 147.212 167.651C147.326 167.737 147.416 167.845 147.481 167.973C147.596 167.8 147.749 167.659 147.94 167.549C148.131 167.44 148.346 167.385 148.584 167.385C148.712 167.385 148.845 167.406 148.983 167.448C149.121 167.488 149.248 167.556 149.365 167.654C149.484 167.75 149.579 167.883 149.652 168.053C149.726 168.224 149.764 168.44 149.764 168.701V171.074H149.011V168.782C149.011 168.583 148.977 168.428 148.91 168.316C148.844 168.204 148.758 168.126 148.651 168.081C148.546 168.035 148.434 168.011 148.314 168.011C148.207 168.011 148.095 168.032 147.978 168.074C147.862 168.116 147.763 168.186 147.681 168.284C147.599 168.382 147.558 168.515 147.558 168.683V171.074H146.809V168.62C146.809 168.487 146.773 168.375 146.701 168.284C146.631 168.193 146.542 168.126 146.435 168.081C146.33 168.035 146.225 168.011 146.12 168.011C146.003 168.011 145.886 168.035 145.77 168.081C145.653 168.128 145.555 168.202 145.476 168.302C145.399 168.4 145.36 168.527 145.36 168.683V171.074H144.611ZM151.325 169.44C151.325 169.657 151.36 169.851 151.43 170.024C151.502 170.194 151.611 170.33 151.756 170.43C151.9 170.528 152.08 170.577 152.295 170.577C152.509 170.577 152.695 170.528 152.851 170.43C153.01 170.332 153.114 170.186 153.163 169.993H153.856C153.814 170.24 153.715 170.45 153.558 170.623C153.404 170.795 153.218 170.926 152.998 171.015C152.779 171.101 152.549 171.144 152.309 171.144C151.966 171.144 151.663 171.071 151.402 170.924C151.141 170.774 150.937 170.562 150.79 170.287C150.645 170.011 150.573 169.683 150.573 169.303C150.573 168.927 150.639 168.596 150.772 168.309C150.905 168.02 151.098 167.793 151.35 167.63C151.602 167.467 151.905 167.385 152.26 167.385C152.61 167.385 152.904 167.46 153.142 167.609C153.382 167.758 153.564 167.968 153.688 168.239C153.811 168.507 153.873 168.825 153.873 169.191V169.44H151.325ZM151.325 168.953H153.159C153.159 168.764 153.127 168.592 153.061 168.438C152.996 168.282 152.896 168.16 152.76 168.071C152.627 167.98 152.459 167.934 152.256 167.934C152.049 167.934 151.876 167.985 151.738 168.085C151.6 168.185 151.497 168.314 151.427 168.47C151.359 168.626 151.325 168.787 151.325 168.953Z" fill="#667085"/>
<rect x="168.016" y="165.234" width="5.6804" height="5.6804" rx="2.8402" fill="#F16363"/>
<path d="M178.773 166.013H179.522V171.074H178.773V166.013ZM181.964 171.144C181.488 171.144 181.113 170.982 180.84 170.658C180.567 170.331 180.431 169.861 180.431 169.247C180.431 168.871 180.486 168.545 180.595 168.267C180.705 167.987 180.868 167.77 181.085 167.616C181.305 167.462 181.575 167.385 181.897 167.385C182.061 167.385 182.205 167.405 182.331 167.444C182.46 167.484 182.572 167.535 182.667 167.598C182.765 167.661 182.846 167.729 182.909 167.801C182.974 167.874 183.025 167.941 183.06 168.004V165.873H183.812V171.074H183.252L183.168 170.332C183.142 170.411 183.103 170.498 183.049 170.591C182.995 170.685 182.922 170.773 182.828 170.857C182.737 170.941 182.621 171.01 182.478 171.064C182.336 171.117 182.165 171.144 181.964 171.144ZM182.107 170.581C182.443 170.581 182.686 170.476 182.835 170.266C182.985 170.053 183.06 169.706 183.06 169.223C183.057 168.95 183.023 168.719 182.958 168.529C182.893 168.34 182.791 168.198 182.653 168.102C182.518 168.004 182.34 167.955 182.118 167.955C181.84 167.955 181.614 168.056 181.439 168.256C181.264 168.455 181.176 168.777 181.176 169.223C181.176 169.661 181.256 169.997 181.414 170.231C181.575 170.464 181.806 170.581 182.107 170.581ZM185.884 171.123C185.67 171.123 185.497 171.095 185.366 171.039C185.238 170.983 185.14 170.909 185.072 170.815C185.005 170.72 184.959 170.612 184.936 170.493C184.915 170.372 184.904 170.247 184.904 170.119V165.873H185.643V170.042C185.643 170.21 185.676 170.338 185.741 170.427C185.809 170.515 185.911 170.566 186.049 170.577L186.238 170.584V171.06C186.18 171.079 186.119 171.094 186.056 171.106C185.995 171.117 185.938 171.123 185.884 171.123ZM187.585 169.44C187.585 169.657 187.62 169.851 187.69 170.024C187.762 170.194 187.871 170.33 188.015 170.43C188.16 170.528 188.34 170.577 188.554 170.577C188.769 170.577 188.954 170.528 189.111 170.43C189.269 170.332 189.373 170.186 189.422 169.993H190.115C190.073 170.24 189.974 170.45 189.818 170.623C189.664 170.795 189.477 170.926 189.258 171.015C189.038 171.101 188.809 171.144 188.568 171.144C188.225 171.144 187.923 171.071 187.662 170.924C187.4 170.774 187.196 170.562 187.049 170.287C186.904 170.011 186.832 169.683 186.832 169.303C186.832 168.927 186.899 168.596 187.032 168.309C187.165 168.02 187.357 167.793 187.609 167.63C187.861 167.467 188.165 167.385 188.519 167.385C188.869 167.385 189.163 167.46 189.401 167.609C189.642 167.758 189.824 167.968 189.947 168.239C190.071 168.507 190.133 168.825 190.133 169.191V169.44H187.585ZM187.585 168.953H189.419C189.419 168.764 189.386 168.592 189.321 168.438C189.255 168.282 189.155 168.16 189.02 168.071C188.887 167.98 188.719 167.934 188.516 167.934C188.308 167.934 188.135 167.985 187.998 168.085C187.86 168.185 187.756 168.314 187.686 168.47C187.619 168.626 187.585 168.787 187.585 168.953ZM192.224 166.695V166.013H196.113V166.695H194.583V171.074H193.827V166.695H192.224ZM197.601 167.455V171.074H196.88V167.455H197.601ZM197.615 166.016V166.755H196.863V166.016H197.615ZM198.752 171.074V167.455H199.481V167.976C199.583 167.818 199.723 167.68 199.901 167.563C200.078 167.444 200.307 167.385 200.587 167.385C200.717 167.385 200.849 167.407 200.982 167.451C201.118 167.496 201.241 167.562 201.353 167.651C201.468 167.737 201.557 167.845 201.623 167.973C201.737 167.8 201.89 167.659 202.081 167.549C202.273 167.44 202.487 167.385 202.725 167.385C202.854 167.385 202.987 167.406 203.124 167.448C203.262 167.488 203.389 167.556 203.506 167.654C203.625 167.75 203.721 167.883 203.793 168.053C203.868 168.224 203.905 168.44 203.905 168.701V171.074H203.152V168.782C203.152 168.583 203.119 168.428 203.051 168.316C202.986 168.204 202.899 168.126 202.792 168.081C202.687 168.035 202.575 168.011 202.456 168.011C202.348 168.011 202.236 168.032 202.12 168.074C202.003 168.116 201.904 168.186 201.822 168.284C201.741 168.382 201.7 168.515 201.7 168.683V171.074H200.951V168.62C200.951 168.487 200.914 168.375 200.842 168.284C200.772 168.193 200.683 168.126 200.576 168.081C200.471 168.035 200.366 168.011 200.261 168.011C200.144 168.011 200.028 168.035 199.911 168.081C199.794 168.128 199.696 168.202 199.617 168.302C199.54 168.4 199.502 168.527 199.502 168.683V171.074H198.752ZM205.466 169.44C205.466 169.657 205.501 169.851 205.571 170.024C205.644 170.194 205.752 170.33 205.897 170.43C206.042 170.528 206.221 170.577 206.436 170.577C206.651 170.577 206.836 170.528 206.993 170.43C207.151 170.332 207.255 170.186 207.304 169.993H207.997C207.955 170.24 207.856 170.45 207.7 170.623C207.546 170.795 207.359 170.926 207.14 171.015C206.92 171.101 206.69 171.144 206.45 171.144C206.107 171.144 205.805 171.071 205.543 170.924C205.282 170.774 205.078 170.562 204.931 170.287C204.786 170.011 204.714 169.683 204.714 169.303C204.714 168.927 204.78 168.596 204.913 168.309C205.046 168.02 205.239 167.793 205.491 167.63C205.743 167.467 206.046 167.385 206.401 167.385C206.751 167.385 207.045 167.46 207.283 167.609C207.523 167.758 207.705 167.968 207.829 168.239C207.953 168.507 208.015 168.825 208.015 169.191V169.44H205.466ZM205.466 168.953H207.301C207.301 168.764 207.268 168.592 207.203 168.438C207.137 168.282 207.037 168.16 206.902 168.071C206.769 167.98 206.601 167.934 206.397 167.934C206.19 167.934 206.017 167.985 205.879 168.085C205.742 168.185 205.638 168.314 205.568 168.47C205.5 168.626 205.466 168.787 205.466 168.953Z" fill="#667085"/>
<path d="M19 26.4307C19 21.0163 23.3893 16.627 28.8038 16.627H232.119C237.533 16.627 241.922 21.0163 241.922 26.4307V43.336H19V26.4307Z" fill="#003366"/>
<path d="M30.4983 32.7344L29.0726 30.3583H28.5369V32.7344H27.3186V26.6343H29.6429C30.3514 26.6343 30.89 26.8071 31.2586 27.1527C31.633 27.4983 31.8202 27.9534 31.8202 28.5179C31.8202 28.9787 31.6906 29.3646 31.4314 29.6757C31.178 29.9867 30.8093 30.1941 30.3255 30.2978L31.8462 32.7344H30.4983ZM28.5369 29.5202H29.5392C30.2362 29.5202 30.5847 29.212 30.5847 28.5956C30.5847 28.3019 30.4983 28.0743 30.3255 27.913C30.1584 27.746 29.8963 27.6625 29.5392 27.6625H28.5369V29.5202ZM37.1445 30.1595C37.1445 30.2805 37.1301 30.4188 37.1013 30.5743H33.5933C33.6106 31.0005 33.7258 31.3145 33.939 31.5161C34.1521 31.7177 34.4171 31.8185 34.7339 31.8185C35.0161 31.8185 35.2494 31.7494 35.4337 31.6111C35.6238 31.4729 35.7448 31.2857 35.7966 31.0495H37.0841C37.0207 31.3836 36.8853 31.6831 36.678 31.9481C36.4706 32.2131 36.2027 32.4204 35.8744 32.5702C35.5518 32.72 35.1918 32.7949 34.7944 32.7949C34.3278 32.7949 33.913 32.6969 33.5501 32.5011C33.1872 32.2995 32.905 32.0143 32.7034 31.6457C32.5018 31.277 32.401 30.8421 32.401 30.341C32.401 29.8398 32.5018 29.4049 32.7034 29.0363C32.905 28.6619 33.1872 28.3767 33.5501 28.1809C33.913 27.985 34.3278 27.8871 34.7944 27.8871C35.2667 27.8871 35.6786 27.985 36.0299 28.1809C36.3871 28.3767 36.6607 28.6475 36.8508 28.9931C37.0466 29.3329 37.1445 29.7218 37.1445 30.1595ZM35.9176 30.0386C35.9349 29.6469 35.8312 29.3502 35.6066 29.1486C35.3877 28.947 35.1169 28.8462 34.7944 28.8462C34.466 28.8462 34.1895 28.947 33.9649 29.1486C33.7402 29.3502 33.6164 29.6469 33.5933 30.0386H35.9176ZM40.8694 27.8871C41.2726 27.8871 41.6355 27.985 41.958 28.1809C42.2806 28.3767 42.5312 28.6619 42.7098 29.0363C42.8941 29.4049 42.9862 29.8398 42.9862 30.341C42.9862 30.8421 42.8941 31.2799 42.7098 31.6543C42.5312 32.023 42.2806 32.3052 41.958 32.5011C41.6355 32.6969 41.2726 32.7949 40.8694 32.7949C40.4661 32.7949 40.1205 32.6998 39.8325 32.5097C39.5503 32.3139 39.3486 32.0547 39.2277 31.7321V35.0154H38.0094V27.9476H39.2277V28.9412C39.3486 28.6187 39.5503 28.3623 39.8325 28.1723C40.1205 27.9822 40.4661 27.8871 40.8694 27.8871ZM40.4892 28.9499C40.1205 28.9499 39.8152 29.0766 39.5733 29.3301C39.3371 29.5778 39.219 29.9147 39.219 30.341C39.219 30.7615 39.3371 31.0985 39.5733 31.3519C39.8152 31.5996 40.1205 31.7235 40.4892 31.7235C40.8694 31.7235 41.1746 31.6025 41.4051 31.3606C41.6355 31.1129 41.7507 30.773 41.7507 30.341C41.7507 29.909 41.6355 29.5691 41.4051 29.3214C41.1746 29.0737 40.8694 28.9499 40.4892 28.9499ZM46.0603 27.8871C46.5269 27.8871 46.9445 27.985 47.3132 28.1809C47.6876 28.3767 47.9814 28.6619 48.1945 29.0363C48.4076 29.4049 48.5142 29.8398 48.5142 30.341C48.5142 30.8421 48.4076 31.277 48.1945 31.6457C47.9814 32.0143 47.6876 32.2995 47.3132 32.5011C46.9445 32.6969 46.5269 32.7949 46.0603 32.7949C45.5938 32.7949 45.1733 32.6969 44.7988 32.5011C44.4302 32.2995 44.1393 32.0143 43.9262 31.6457C43.713 31.277 43.6065 30.8421 43.6065 30.341C43.6065 29.8398 43.713 29.4049 43.9262 29.0363C44.1393 28.6619 44.4302 28.3767 44.7988 28.1809C45.1733 27.985 45.5938 27.8871 46.0603 27.8871ZM46.0603 28.9412C45.7205 28.9412 45.4325 29.0622 45.1963 29.3041C44.9601 29.5403 44.842 29.8859 44.842 30.341C44.842 30.7961 44.9601 31.1445 45.1963 31.3865C45.4325 31.6226 45.7205 31.7407 46.0603 31.7407C46.4002 31.7407 46.6882 31.6226 46.9244 31.3865C47.1605 31.1445 47.2786 30.7961 47.2786 30.341C47.2786 29.8859 47.1605 29.5403 46.9244 29.3041C46.6882 29.0622 46.4002 28.9412 46.0603 28.9412ZM50.5935 28.8635C50.7721 28.5582 51.0082 28.3191 51.302 28.1463C51.5958 27.9678 51.9241 27.8785 52.287 27.8785V29.1832H51.9327C51.0399 29.1832 50.5935 29.5979 50.5935 30.4274V32.7344H49.3752V27.9476H50.5935V28.8635ZM55.5188 31.6889V32.7344H54.8795C54.3438 32.7344 53.9319 32.6048 53.6439 32.3456C53.3616 32.0863 53.2205 31.6543 53.2205 31.0495V28.9758H52.5552V27.9476H53.2205V26.7639H54.4388V27.9476H55.5102V28.9758H54.4388V31.0668C54.4388 31.2972 54.4849 31.4585 54.577 31.5506C54.6692 31.6428 54.8247 31.6889 55.0436 31.6889H55.5188Z" fill="white"/>
<path d="M230.4 27.4345C230.4 27.8579 230.057 28.2011 229.634 28.2011C229.21 28.2011 228.867 27.8579 228.867 27.4345C228.867 27.0112 229.21 26.668 229.634 26.668C230.057 26.668 230.4 27.0112 230.4 27.4345Z" fill="white"/>
<path d="M230.4 29.7342C230.4 30.1576 230.057 30.5008 229.634 30.5008C229.21 30.5008 228.867 30.1576 228.867 29.7342C228.867 29.3108 229.21 28.9676 229.634 28.9676C230.057 28.9676 230.4 29.3108 230.4 29.7342Z" fill="white"/>
<path d="M229.634 32.8004C230.057 32.8004 230.4 32.4572 230.4 32.0339C230.4 31.6105 230.057 31.2673 229.634 31.2673C229.21 31.2673 228.867 31.6105 228.867 32.0339C228.867 32.4572 229.21 32.8004 229.634 32.8004Z" fill="white"/>
<defs>
<filter id="filter0_d_6512_2238" x="0.617889" y="0.695791" width="259.764" height="206.51" filterUnits="userSpaceOnUse" color-interpolation-filters="sRGB">
<feFlood flood-opacity="0" result="BackgroundImageFix"/>
<feColorMatrix in="SourceAlpha" type="matrix" values="0 0 0 0 0 0 0 0 0 0 0 0 0 0 0 0 0 0 127 0" result="hardAlpha"/>
<feOffset dy="2.45095"/>
<feGaussianBlur stdDeviation="9.19106"/>
<feComposite in2="hardAlpha" operator="out"/>
<feColorMatrix type="matrix" values="0 0 0 0 0.101961 0 0 0 0 0.109804 0 0 0 0 0.129412 0 0 0 0.07 0"/>
<feBlend mode="normal" in2="BackgroundImageFix" result="effect1_dropShadow_6512_2238"/>
<feBlend mode="normal" in="SourceGraphic" in2="effect1_dropShadow_6512_2238" result="shape"/>
</filter>
</defs>
</svg>
