<svg width="311" height="197" viewBox="0 0 311 197" fill="none" xmlns="http://www.w3.org/2000/svg">
<g filter="url(#filter0_d_6522_2997)">
<rect x="19.8281" y="17" width="271.348" height="158" rx="10.1173" fill="white"/>
</g>
<path d="M30.1328 119.101C30.1328 110.396 32.1929 101.815 36.1447 94.0593C40.0965 86.3035 45.8278 79.593 52.87 74.4766L65.8385 92.3263C61.6132 95.3961 58.1745 99.4224 55.8034 104.076C53.4323 108.729 52.1962 113.878 52.1962 119.101H30.1328Z" fill="#F03C27"/>
<path d="M140.452 119.101C140.452 110.396 138.392 101.815 134.44 94.0593C130.488 86.3035 124.757 79.593 117.715 74.4766L104.746 92.3263C108.971 95.3961 112.41 99.4224 114.781 104.076C117.152 108.729 118.388 113.878 118.388 119.101H140.452Z" fill="#2ABA00"/>
<path d="M56.0586 72.3229C64.9351 66.7762 75.2065 63.8697 85.6733 63.9428C96.14 64.0158 106.37 67.0655 115.168 72.7355L103.216 91.2813C97.9372 87.8793 91.7993 86.0495 85.5192 86.0056C79.2392 85.9618 73.0763 87.7057 67.7504 91.0337L56.0586 72.3229Z" fill="#A45BF1"/>
<circle cx="86.3414" cy="113.324" r="3.67724" fill="white" stroke="#003366" stroke-width="2.10128"/>
<path d="M113.396 97.0391L87.918 109.909L90.2819 113.849L113.396 97.0391Z" fill="#003366"/>
<path d="M70.734 129.321V129.865H68.4688V131.66H70.3883V132.182H68.4688V134.506H67.7995V129.321H70.734ZM72.1595 129.321V132.432C72.1595 132.942 72.2723 133.319 72.4978 133.564C72.7234 133.805 73.0347 133.925 73.4319 133.925C73.8241 133.925 74.1305 133.802 74.3512 133.557C74.5718 133.312 74.6821 132.937 74.6821 132.432V129.321H75.3514V132.432C75.3514 133.138 75.1749 133.67 74.8218 134.028C74.4737 134.381 74.0055 134.557 73.4171 134.557C72.8337 134.557 72.3655 134.381 72.0124 134.028C71.6643 133.67 71.4903 133.138 71.4903 132.432V129.321H72.1595ZM77.0586 129.865V131.638H79.0296V132.152H77.0586V133.962H79.2502V134.506H76.3893V129.321H79.2502V129.865H77.0586ZM80.7789 133.984H82.6175V134.506H80.1097V129.321H80.7789V133.984ZM85.7848 133.984H87.6235V134.506H85.1156V129.321H85.7848V133.984ZM88.9737 129.865V131.638H90.9447V132.152H88.9737V133.962H91.1653V134.506H88.3044V129.321H91.1653V129.865H88.9737ZM92.3631 129.321L93.9443 133.763L95.5476 129.321H96.2757L94.3708 134.506H93.5251L91.6276 129.321H92.3631ZM97.621 129.865V131.638H99.592V132.152H97.621V133.962H99.8126V134.506H96.9517V129.321H99.8126V129.865H97.621ZM101.341 133.984H103.18V134.506H100.672V129.321H101.341V133.984Z" fill="#1D1D1F"/>
<path d="M71.4442 142.917C71.4442 142.381 71.5912 141.882 71.8854 141.42C72.1901 140.957 72.6366 140.584 73.225 140.301C73.8239 140.017 74.5435 139.875 75.3841 139.875C76.2246 139.875 76.939 140.017 77.5274 140.301C78.1262 140.584 78.5727 140.957 78.8669 141.42C79.1716 141.882 79.324 142.381 79.324 142.917C79.324 143.526 79.1769 144.046 78.8827 144.477C78.5885 144.897 78.1472 145.213 77.5589 145.423C78.2208 145.675 78.7251 146.043 79.0718 146.526C79.429 146.999 79.6076 147.576 79.6076 148.259C79.6076 148.995 79.4238 149.63 79.056 150.166C78.6883 150.692 78.184 151.091 77.5431 151.364C76.9127 151.637 76.193 151.774 75.3841 151.774C74.5751 151.774 73.8501 151.637 73.2092 151.364C72.5788 151.091 72.0798 150.692 71.7121 150.166C71.3549 149.63 71.1762 148.995 71.1762 148.259C71.1762 147.576 71.3496 146.999 71.6963 146.526C72.0535 146.043 72.5631 145.675 73.225 145.423C72.6366 145.213 72.1901 144.892 71.8854 144.461C71.5912 144.031 71.4442 143.516 71.4442 142.917ZM73.6347 143.279C73.6347 143.784 73.7923 144.172 74.1075 144.446C74.4227 144.719 74.8482 144.855 75.3841 144.855C75.9304 144.855 76.3612 144.719 76.6763 144.446C76.9915 144.172 77.1491 143.784 77.1491 143.279C77.1491 142.775 76.9863 142.386 76.6606 142.113C76.3454 141.829 75.9199 141.688 75.3841 141.688C74.8587 141.688 74.4332 141.829 74.1075 142.113C73.7923 142.386 73.6347 142.775 73.6347 143.279ZM73.3353 148.133C73.3353 148.69 73.5192 149.131 73.8869 149.457C74.2546 149.783 74.7537 149.946 75.3841 149.946C76.0144 149.946 76.5135 149.783 76.8812 149.457C77.2594 149.131 77.4486 148.69 77.4486 148.133C77.4486 147.566 77.2542 147.135 76.8655 146.841C76.4872 146.536 75.9934 146.384 75.3841 146.384C74.7852 146.384 74.2914 146.536 73.9027 146.841C73.5244 147.135 73.3353 147.566 73.3353 148.133ZM88.0661 141.94L84.0001 151.506H81.6992L85.8125 142.192H80.6591V140.285H88.0661V141.94ZM91.3569 140.206C92.0923 140.206 92.6912 140.432 93.1535 140.884C93.6263 141.325 93.8627 141.94 93.8627 142.728C93.8627 143.516 93.6263 144.136 93.1535 144.587C92.6912 145.029 92.0923 145.249 91.3569 145.249C90.6214 145.249 90.0173 145.029 89.5445 144.587C89.0823 144.136 88.8511 143.516 88.8511 142.728C88.8511 141.94 89.0823 141.325 89.5445 140.884C90.0173 140.432 90.6214 140.206 91.3569 140.206ZM98.4802 140.348L92.2867 151.506H90.1434L96.3369 140.348H98.4802ZM90.3483 142.728C90.3483 143.085 90.4376 143.374 90.6162 143.595C90.7948 143.805 91.0364 143.91 91.3411 143.91C91.6458 143.91 91.8927 143.805 92.0818 143.595C92.271 143.374 92.3655 143.085 92.3655 142.728C92.3655 142.371 92.271 142.087 92.0818 141.877C91.8927 141.656 91.6458 141.546 91.3411 141.546C91.0364 141.546 90.7948 141.656 90.6162 141.877C90.4376 142.087 90.3483 142.371 90.3483 142.728ZM97.2825 146.605C98.0179 146.605 98.6168 146.831 99.0791 147.282C99.5414 147.724 99.7725 148.338 99.7725 149.126C99.7725 149.914 99.5414 150.534 99.0791 150.986C98.6168 151.427 98.0179 151.648 97.2825 151.648C96.5471 151.648 95.9429 151.427 95.4701 150.986C95.0079 150.534 94.7767 149.914 94.7767 149.126C94.7767 148.338 95.0079 147.724 95.4701 147.282C95.9429 146.831 96.5471 146.605 97.2825 146.605ZM96.2739 149.126C96.2739 149.494 96.3632 149.788 96.5418 150.009C96.7204 150.219 96.9621 150.324 97.2667 150.324C97.5714 150.324 97.8183 150.219 98.0074 150.009C98.1966 149.788 98.2911 149.494 98.2911 149.126C98.2911 148.769 98.1966 148.48 98.0074 148.259C97.8183 148.039 97.5714 147.928 97.2667 147.928C96.9621 147.928 96.7204 148.039 96.5418 148.259C96.3632 148.47 96.2739 148.758 96.2739 149.126Z" fill="#53A42A"/>
<path d="M156.967 71.5314C156.967 71.7864 156.906 72.0242 156.783 72.2448C156.66 72.4605 156.474 72.6346 156.224 72.767C155.974 72.8994 155.668 72.9655 155.305 72.9655C154.952 72.9655 154.635 72.9043 154.356 72.7817C154.077 72.6542 153.853 72.4777 153.687 72.2522C153.52 72.0266 153.424 71.7668 153.4 71.4726H154.297C154.322 71.6981 154.417 71.8918 154.584 72.0536C154.756 72.2154 154.984 72.2963 155.268 72.2963C155.523 72.2963 155.719 72.2276 155.856 72.0904C155.998 71.9531 156.07 71.7766 156.07 71.5608C156.07 71.3745 156.018 71.2225 155.915 71.1049C155.812 70.9823 155.685 70.8867 155.533 70.818C155.381 70.7494 155.172 70.6709 154.908 70.5827C154.584 70.4797 154.319 70.3768 154.113 70.2738C153.912 70.1708 153.741 70.0213 153.598 69.8252C153.456 69.6291 153.385 69.3717 153.385 69.053C153.385 68.7735 153.454 68.5283 153.591 68.3175C153.728 68.1067 153.925 67.9449 154.179 67.8321C154.434 67.7144 154.729 67.6556 155.062 67.6556C155.592 67.6556 156.011 67.7831 156.32 68.038C156.633 68.293 156.812 68.6264 156.856 69.0383H155.952C155.918 68.8421 155.824 68.6754 155.672 68.5381C155.525 68.396 155.322 68.3249 155.062 68.3249C154.827 68.3249 154.638 68.3862 154.496 68.5087C154.354 68.6264 154.282 68.798 154.282 69.0235C154.282 69.2001 154.331 69.3471 154.43 69.4648C154.528 69.5776 154.65 69.6683 154.797 69.7369C154.949 69.8007 155.155 69.8767 155.415 69.9649C155.744 70.0679 156.011 70.1733 156.217 70.2812C156.427 70.3841 156.604 70.5361 156.746 70.7371C156.893 70.9382 156.967 71.2029 156.967 71.5314ZM158.792 68.3984V69.9723H160.704V70.6195H158.792V72.2301H160.924V72.9141H157.953V67.7218H160.924V68.3984H158.792ZM164.614 72.9141L163.319 70.8401H162.724V72.9141H161.885V67.7218H163.717C164.31 67.7218 164.758 67.8664 165.062 68.1557C165.371 68.445 165.526 68.8274 165.526 69.303C165.526 69.71 165.411 70.0434 165.18 70.3032C164.955 70.5631 164.626 70.7298 164.195 70.8033L165.555 72.9141H164.614ZM162.724 70.2444H163.65C164.327 70.2444 164.665 69.9453 164.665 69.3471C164.665 69.0628 164.582 68.8421 164.415 68.6852C164.253 68.5234 163.998 68.4425 163.65 68.4425H162.724V70.2444ZM166.95 67.7218L168.443 72.0168L169.943 67.7218H170.855L168.98 72.9141H167.906L166.038 67.7218H166.95ZM172.462 67.7218V72.9141H171.624V67.7218H172.462ZM175.941 67.6703C176.578 67.6703 177.108 67.8321 177.529 68.1557C177.951 68.4793 178.235 68.9181 178.382 69.4722H177.492C177.37 69.1584 177.174 68.9108 176.904 68.7294C176.639 68.5431 176.313 68.4499 175.926 68.4499C175.617 68.4499 175.34 68.5259 175.095 68.6779C174.855 68.8299 174.663 69.0481 174.521 69.3324C174.384 69.6119 174.315 69.9404 174.315 70.3179C174.315 70.6906 174.384 71.0191 174.521 71.3034C174.663 71.5829 174.855 71.7986 175.095 71.9506C175.34 72.1026 175.617 72.1786 175.926 72.1786C176.313 72.1786 176.639 72.0879 176.904 71.9065C177.174 71.7202 177.37 71.4726 177.492 71.1637H178.382C178.235 71.7177 177.951 72.1566 177.529 72.4801C177.108 72.7988 176.578 72.9582 175.941 72.9582C175.45 72.9582 175.016 72.8479 174.639 72.6272C174.261 72.4017 173.97 72.0904 173.764 71.6932C173.558 71.2912 173.455 70.8327 173.455 70.3179C173.455 69.8031 173.558 69.3471 173.764 68.95C173.97 68.548 174.261 68.2342 174.639 68.0086C175.016 67.7831 175.45 67.6703 175.941 67.6703ZM180.204 68.3984V69.9723H182.117V70.6195H180.204V72.2301H182.337V72.9141H179.366V67.7218H182.337V68.3984H180.204ZM186.868 67.56C187.211 67.56 187.505 67.6213 187.75 67.7439C187.995 67.8615 188.179 68.0258 188.302 68.2366C188.429 68.4474 188.493 68.6828 188.493 68.9426C188.493 69.2711 188.4 69.5457 188.214 69.7663C188.032 69.9821 187.775 70.112 187.441 70.1561V70.1929C187.799 70.2959 188.079 70.4503 188.28 70.6562C188.486 70.8573 188.589 71.1367 188.589 71.4946C188.589 71.931 188.444 72.2865 188.155 72.561C187.865 72.8307 187.451 72.9655 186.912 72.9655C186.358 72.9655 185.912 72.8258 185.573 72.5463C185.235 72.262 185.041 71.8428 184.992 71.2887H185.823C185.853 71.5829 185.958 71.8182 186.14 71.9948C186.321 72.1664 186.566 72.2522 186.875 72.2522C187.164 72.2522 187.385 72.1762 187.537 72.0242C187.694 71.8722 187.772 71.6761 187.772 71.4358C187.772 71.1465 187.66 70.9259 187.434 70.7739C187.213 70.6219 186.892 70.5459 186.471 70.5459H186.272V69.8546H186.471C187.27 69.8644 187.669 69.5923 187.669 69.0383C187.669 68.798 187.596 68.6092 187.449 68.472C187.302 68.3347 187.101 68.266 186.846 68.266C186.591 68.266 186.377 68.3445 186.206 68.5014C186.034 68.6534 185.931 68.8765 185.897 69.1706H185.073C185.108 68.6607 185.279 68.266 185.588 67.9866C185.897 67.7022 186.323 67.56 186.868 67.56ZM189.433 71.7962V71.0902L192.014 67.6777H192.911V71.0607H193.639V71.7962H192.911V72.9141H192.065V71.7962H189.433ZM192.124 68.6779L190.3 71.0607H192.124V68.6779Z" fill="#1D1D1F"/>
<path d="M161.683 82.4509C161.683 83.3335 161.498 84.111 161.128 84.7834C160.759 85.4558 160.221 85.9811 159.515 86.3593C158.817 86.7291 157.985 86.9141 157.018 86.9141H153.854V78.013H157.018C157.985 78.013 158.817 78.198 159.515 78.5678C160.221 78.9292 160.759 79.4461 161.128 80.1185C161.498 80.7825 161.683 81.56 161.683 82.4509ZM156.867 85.3255C157.825 85.3255 158.565 85.0733 159.086 84.569C159.615 84.0647 159.88 83.3587 159.88 82.4509C159.88 81.5348 159.615 80.8246 159.086 80.3203C158.565 79.8159 157.825 79.5638 156.867 79.5638H155.631V85.3255H156.867ZM165.75 79.8412C166.338 79.8412 166.843 79.9798 167.263 80.2572C167.683 80.5346 167.981 80.9086 168.158 81.3793V79.9294H169.923V86.9141H168.158V85.4516C167.981 85.9223 167.683 86.3005 167.263 86.5863C166.843 86.8636 166.338 87.0023 165.75 87.0023C165.162 87.0023 164.632 86.8594 164.161 86.5737C163.691 86.2879 163.321 85.876 163.052 85.3381C162.791 84.7918 162.661 84.153 162.661 83.4217C162.661 82.6905 162.791 82.0559 163.052 81.518C163.321 80.9716 163.691 80.5556 164.161 80.2698C164.632 79.984 165.162 79.8412 165.75 79.8412ZM166.305 81.3919C165.75 81.3919 165.304 81.5726 164.968 81.934C164.632 82.2955 164.464 82.7914 164.464 83.4217C164.464 84.0521 164.632 84.548 164.968 84.9094C165.304 85.2625 165.75 85.439 166.305 85.439C166.843 85.439 167.284 85.2583 167.628 84.8968C167.981 84.527 168.158 84.0353 168.158 83.4217C168.158 82.7998 167.981 82.3081 167.628 81.9466C167.284 81.5768 166.843 81.3919 166.305 81.3919ZM174.573 85.1364L176.338 79.9294H178.229L175.644 86.9141H173.476L170.891 79.9294H172.795L174.573 85.1364ZM179.015 77.9248C179.015 77.639 179.116 77.4079 179.318 77.2314C179.519 77.0465 179.784 76.954 180.112 76.954C180.44 76.954 180.705 77.0465 180.906 77.2314C181.108 77.4079 181.209 77.639 181.209 77.9248C181.209 78.2022 181.108 78.4333 180.906 78.6182C180.705 78.7947 180.44 78.883 180.112 78.883C179.784 78.883 179.519 78.7947 179.318 78.6182C179.116 78.4333 179.015 78.2022 179.015 77.9248ZM180.995 79.9294V86.9141H179.217V79.9294H180.995ZM185.339 79.8412C185.927 79.8412 186.427 79.9798 186.839 80.2572C187.259 80.5346 187.562 80.9086 187.747 81.3793V77.5844H189.512V86.9141H187.747V85.4516C187.562 85.9223 187.259 86.3005 186.839 86.5863C186.427 86.8636 185.927 87.0023 185.339 87.0023C184.75 87.0023 184.221 86.8594 183.75 86.5737C183.279 86.2879 182.909 85.876 182.641 85.3381C182.38 84.7918 182.25 84.153 182.25 83.4217C182.25 82.6905 182.38 82.0559 182.641 81.518C182.909 80.9716 183.279 80.5556 183.75 80.2698C184.221 79.984 184.75 79.8412 185.339 79.8412ZM185.893 81.3919C185.339 81.3919 184.893 81.5726 184.557 81.934C184.221 82.2955 184.053 82.7914 184.053 83.4217C184.053 84.0521 184.221 84.548 184.557 84.9094C184.893 85.2625 185.339 85.439 185.893 85.439C186.431 85.439 186.873 85.2583 187.217 84.8968C187.57 84.527 187.747 84.0353 187.747 83.4217C187.747 82.7998 187.57 82.3081 187.217 81.9466C186.873 81.5768 186.431 81.3919 185.893 81.3919ZM195.646 83.6109V86.9141H193.868V78.013H197.109C198.159 78.013 198.949 78.2652 199.479 78.7695C200.017 79.2738 200.286 79.9588 200.286 80.8246C200.286 81.6735 200.008 82.3501 199.454 82.8544C198.907 83.3587 198.126 83.6109 197.109 83.6109H195.646ZM196.919 82.1862C197.962 82.1862 198.483 81.7323 198.483 80.8246C198.483 80.3791 198.361 80.0387 198.117 79.8033C197.873 79.568 197.474 79.4503 196.919 79.4503H195.646V82.1862H196.919ZM204.176 79.8412C204.765 79.8412 205.269 79.9798 205.689 80.2572C206.109 80.5346 206.408 80.9086 206.584 81.3793V79.9294H208.349V86.9141H206.584V85.4516C206.408 85.9223 206.109 86.3005 205.689 86.5863C205.269 86.8636 204.765 87.0023 204.176 87.0023C203.588 87.0023 203.058 86.8594 202.588 86.5737C202.117 86.2879 201.747 85.876 201.478 85.3381C201.218 84.7918 201.087 84.153 201.087 83.4217C201.087 82.6905 201.218 82.0559 201.478 81.518C201.747 80.9716 202.117 80.5556 202.588 80.2698C203.058 79.984 203.588 79.8412 204.176 79.8412ZM204.731 81.3919C204.176 81.3919 203.731 81.5726 203.395 81.934C203.058 82.2955 202.89 82.7914 202.89 83.4217C202.89 84.0521 203.058 84.548 203.395 84.9094C203.731 85.2625 204.176 85.439 204.731 85.439C205.269 85.439 205.71 85.2583 206.055 84.8968C206.408 84.527 206.584 84.0353 206.584 83.4217C206.584 82.7998 206.408 82.3081 206.055 81.9466C205.71 81.5768 205.269 81.3919 204.731 81.3919ZM211.738 81.2658C211.999 80.8204 212.343 80.4715 212.772 80.2194C213.201 79.9588 213.68 79.8286 214.209 79.8286V81.7323H213.692C212.389 81.7323 211.738 82.3375 211.738 83.5478V86.9141H209.96V79.9294H211.738V81.2658ZM219.278 86.9141L216.971 83.863V86.9141H215.193V77.5844H216.971V82.8292L219.265 79.9294H221.371L218.433 83.4091L221.446 86.9141H219.278ZM228.878 83.157C228.878 83.3335 228.857 83.5352 228.815 83.7621H223.696C223.722 84.3841 223.89 84.8422 224.201 85.1364C224.512 85.4306 224.898 85.5776 225.361 85.5776C225.772 85.5776 226.113 85.4768 226.382 85.2751C226.659 85.0733 226.836 84.8002 226.911 84.4556H228.79C228.697 84.9431 228.5 85.3801 228.197 85.7668C227.895 86.1534 227.504 86.456 227.025 86.6745C226.554 86.893 226.029 87.0023 225.449 87.0023C224.768 87.0023 224.163 86.8594 223.633 86.5737C223.104 86.2795 222.692 85.8634 222.398 85.3255C222.104 84.7876 221.956 84.153 221.956 83.4217C221.956 82.6905 222.104 82.0559 222.398 81.518C222.692 80.9716 223.104 80.5556 223.633 80.2698C224.163 79.984 224.768 79.8412 225.449 79.8412C226.138 79.8412 226.739 79.984 227.252 80.2698C227.773 80.5556 228.172 80.9506 228.449 81.4549C228.735 81.9508 228.878 82.5182 228.878 83.157ZM227.088 82.9805C227.113 82.4089 226.962 81.9761 226.634 81.6819C226.315 81.3877 225.919 81.2406 225.449 81.2406C224.97 81.2406 224.566 81.3877 224.238 81.6819C223.911 81.9761 223.73 82.4089 223.696 82.9805H227.088ZM231.918 81.2658C232.178 80.8204 232.523 80.4715 232.952 80.2194C233.38 79.9588 233.859 79.8286 234.389 79.8286V81.7323H233.872C232.569 81.7323 231.918 82.3375 231.918 83.5478V86.9141H230.14V79.9294H231.918V81.2658Z" fill="#003366"/>
<path d="M157.071 109.107V109.696H155.485V114.725H154.76V109.696H153.174V109.107H157.071ZM159.617 110.294C160.036 110.294 160.411 110.384 160.74 110.565C161.075 110.746 161.335 111.006 161.521 111.346C161.713 111.686 161.808 112.084 161.808 112.541C161.808 112.998 161.713 113.396 161.521 113.736C161.335 114.071 161.075 114.329 160.74 114.509C160.411 114.69 160.036 114.78 159.617 114.78C159.197 114.78 158.82 114.69 158.485 114.509C158.156 114.329 157.896 114.071 157.704 113.736C157.513 113.396 157.417 112.998 157.417 112.541C157.417 112.084 157.513 111.686 157.704 111.346C157.896 111.006 158.156 110.746 158.485 110.565C158.82 110.384 159.197 110.294 159.617 110.294ZM159.617 110.932C159.356 110.932 159.115 110.99 158.892 111.107C158.674 111.224 158.496 111.404 158.358 111.649C158.225 111.888 158.158 112.185 158.158 112.541C158.158 112.892 158.225 113.189 158.358 113.434C158.496 113.673 158.674 113.851 158.892 113.968C159.115 114.084 159.356 114.143 159.617 114.143C159.877 114.143 160.116 114.084 160.334 113.968C160.557 113.851 160.735 113.673 160.868 113.434C161.006 113.189 161.075 112.892 161.075 112.541C161.075 112.185 161.006 111.888 160.868 111.649C160.735 111.404 160.557 111.224 160.334 111.107C160.116 110.99 159.877 110.932 159.617 110.932ZM164.681 114.087V114.725H164.14C163.693 114.725 163.359 114.618 163.136 114.406C162.918 114.193 162.809 113.837 162.809 113.338V110.979H162.155V110.35H162.809V109.258H163.542V110.35H164.674V110.979H163.542V113.354C163.542 113.636 163.592 113.829 163.693 113.936C163.8 114.037 163.98 114.087 164.235 114.087H164.681ZM167.2 110.294C167.625 110.294 167.984 110.4 168.276 110.613C168.573 110.825 168.78 111.109 168.897 111.465V110.35H169.622V114.725H168.897V113.609C168.78 113.965 168.573 114.249 168.276 114.462C167.984 114.674 167.625 114.78 167.2 114.78C166.812 114.78 166.467 114.69 166.164 114.509C165.861 114.329 165.622 114.071 165.447 113.736C165.277 113.396 165.192 112.998 165.192 112.541C165.192 112.084 165.277 111.686 165.447 111.346C165.622 111.006 165.861 110.746 166.164 110.565C166.467 110.384 166.812 110.294 167.2 110.294ZM167.407 110.939C166.961 110.939 166.602 111.083 166.331 111.37C166.066 111.651 165.933 112.042 165.933 112.541C165.933 113.041 166.066 113.434 166.331 113.721C166.602 114.002 166.961 114.143 167.407 114.143C167.694 114.143 167.949 114.076 168.172 113.944C168.401 113.811 168.579 113.625 168.706 113.386C168.834 113.141 168.897 112.86 168.897 112.541C168.897 112.222 168.834 111.941 168.706 111.697C168.579 111.452 168.401 111.266 168.172 111.139C167.949 111.006 167.694 110.939 167.407 110.939ZM171.342 108.828V114.725H170.617V108.828H171.342ZM179.784 109.202V114.725H179.059V110.318L177.298 114.725H176.652L174.883 110.334V114.725H174.158V109.202H175.027L176.987 113.84L178.916 109.202H179.784ZM180.657 109.067C180.657 108.934 180.702 108.828 180.793 108.748C180.883 108.663 181.003 108.621 181.151 108.621C181.3 108.621 181.42 108.663 181.51 108.748C181.6 108.828 181.645 108.934 181.645 109.067C181.645 109.2 181.6 109.309 181.51 109.394C181.42 109.473 181.3 109.513 181.151 109.513C181.003 109.513 180.883 109.473 180.793 109.394C180.702 109.309 180.657 109.2 180.657 109.067ZM181.51 110.35V114.725H180.785V110.35H181.51ZM183.242 108.828V114.725H182.516V108.828H183.242ZM188.272 112.294C188.272 112.448 188.262 112.581 188.24 112.693H184.742C184.758 113.192 184.899 113.566 185.164 113.816C185.435 114.066 185.765 114.191 186.153 114.191C186.503 114.191 186.795 114.103 187.029 113.928C187.268 113.747 187.414 113.508 187.467 113.211H188.24C188.187 113.513 188.068 113.784 187.882 114.023C187.701 114.262 187.465 114.448 187.173 114.581C186.88 114.714 186.551 114.78 186.184 114.78C185.765 114.78 185.393 114.69 185.069 114.509C184.745 114.329 184.49 114.071 184.304 113.736C184.123 113.396 184.033 112.998 184.033 112.541C184.033 112.084 184.123 111.686 184.304 111.346C184.49 111.006 184.745 110.746 185.069 110.565C185.393 110.384 185.765 110.294 186.184 110.294C186.609 110.294 186.979 110.384 187.292 110.565C187.611 110.746 187.852 110.987 188.017 111.29C188.187 111.593 188.272 111.928 188.272 112.294ZM187.539 112.342C187.555 112.018 187.502 111.747 187.38 111.529C187.258 111.311 187.09 111.149 186.878 111.043C186.665 110.937 186.434 110.884 186.184 110.884C185.786 110.884 185.451 111.009 185.18 111.258C184.909 111.503 184.763 111.864 184.742 112.342H187.539ZM190.854 110.294C191.279 110.294 191.638 110.4 191.93 110.613C192.228 110.825 192.435 111.109 192.552 111.465V110.35H193.277V114.725H192.552V113.609C192.435 113.965 192.228 114.249 191.93 114.462C191.638 114.674 191.279 114.78 190.854 114.78C190.466 114.78 190.121 114.69 189.818 114.509C189.515 114.329 189.276 114.071 189.101 113.736C188.931 113.396 188.846 112.998 188.846 112.541C188.846 112.084 188.931 111.686 189.101 111.346C189.276 111.006 189.515 110.746 189.818 110.565C190.121 110.384 190.466 110.294 190.854 110.294ZM191.061 110.939C190.615 110.939 190.257 111.083 189.986 111.37C189.72 111.651 189.587 112.042 189.587 112.541C189.587 113.041 189.72 113.434 189.986 113.721C190.257 114.002 190.615 114.143 191.061 114.143C191.348 114.143 191.603 114.076 191.826 113.944C192.055 113.811 192.233 113.625 192.36 113.386C192.488 113.141 192.552 112.86 192.552 112.541C192.552 112.222 192.488 111.941 192.36 111.697C192.233 111.452 192.055 111.266 191.826 111.139C191.603 111.006 191.348 110.939 191.061 110.939ZM196.064 110.294C196.489 110.294 196.848 110.4 197.14 110.613C197.438 110.825 197.645 111.109 197.762 111.465V110.35H198.487V114.796C198.487 115.2 198.402 115.559 198.232 115.872C198.062 116.186 197.823 116.43 197.515 116.605C197.207 116.781 196.848 116.868 196.439 116.868C195.849 116.868 195.368 116.725 194.997 116.438C194.625 116.156 194.388 115.774 194.287 115.29H195.005C195.09 115.583 195.249 115.811 195.483 115.976C195.722 116.146 196.027 116.231 196.399 116.231C196.792 116.231 197.116 116.103 197.371 115.848C197.632 115.599 197.762 115.248 197.762 114.796V113.609C197.645 113.965 197.438 114.249 197.14 114.462C196.848 114.674 196.489 114.78 196.064 114.78C195.677 114.78 195.331 114.69 195.028 114.509C194.726 114.329 194.487 114.071 194.311 113.736C194.141 113.396 194.056 112.998 194.056 112.541C194.056 112.084 194.141 111.686 194.311 111.346C194.487 111.006 194.726 110.746 195.028 110.565C195.331 110.384 195.677 110.294 196.064 110.294ZM196.272 110.939C195.825 110.939 195.467 111.083 195.196 111.37C194.93 111.651 194.797 112.042 194.797 112.541C194.797 113.041 194.93 113.434 195.196 113.721C195.467 114.002 195.825 114.143 196.272 114.143C196.558 114.143 196.813 114.076 197.037 113.944C197.265 113.811 197.443 113.625 197.57 113.386C197.698 113.141 197.762 112.86 197.762 112.541C197.762 112.222 197.698 111.941 197.57 111.697C197.443 111.452 197.265 111.266 197.037 111.139C196.813 111.006 196.558 110.939 196.272 110.939ZM203.506 112.294C203.506 112.448 203.495 112.581 203.474 112.693H199.976C199.992 113.192 200.132 113.566 200.398 113.816C200.669 114.066 200.998 114.191 201.386 114.191C201.737 114.191 202.029 114.103 202.263 113.928C202.502 113.747 202.648 113.508 202.701 113.211H203.474C203.421 113.513 203.301 113.784 203.115 114.023C202.935 114.262 202.698 114.448 202.406 114.581C202.114 114.714 201.785 114.78 201.418 114.78C200.998 114.78 200.626 114.69 200.302 114.509C199.978 114.329 199.723 114.071 199.537 113.736C199.357 113.396 199.266 112.998 199.266 112.541C199.266 112.084 199.357 111.686 199.537 111.346C199.723 111.006 199.978 110.746 200.302 110.565C200.626 110.384 200.998 110.294 201.418 110.294C201.843 110.294 202.212 110.384 202.526 110.565C202.844 110.746 203.086 110.987 203.251 111.29C203.421 111.593 203.506 111.928 203.506 112.294ZM202.773 112.342C202.789 112.018 202.735 111.747 202.613 111.529C202.491 111.311 202.324 111.149 202.111 111.043C201.899 110.937 201.668 110.884 201.418 110.884C201.02 110.884 200.685 111.009 200.414 111.258C200.143 111.503 199.997 111.864 199.976 112.342H202.773ZM204.924 110.429V111.282H204.048V110.429H204.924ZM204.924 113.872V114.725H204.048V113.872H204.924Z" fill="#1D1D1F"/>
<path d="M227.967 113.991C227.669 113.487 227.521 112.783 227.521 111.88C227.521 110.982 227.669 110.283 227.967 109.784C228.264 109.279 228.78 109.027 229.513 109.027C230.246 109.027 230.761 109.279 231.059 109.784C231.362 110.289 231.513 110.987 231.513 111.88C231.513 112.783 231.362 113.487 231.059 113.991C230.761 114.496 230.246 114.749 229.513 114.749C228.78 114.749 228.264 114.496 227.967 113.991ZM230.692 113.043C230.761 112.73 230.796 112.342 230.796 111.88C230.796 111.423 230.761 111.04 230.692 110.732C230.628 110.424 230.504 110.18 230.318 109.999C230.132 109.813 229.863 109.72 229.513 109.72C229.167 109.72 228.902 109.813 228.716 109.999C228.53 110.18 228.402 110.424 228.333 110.732C228.27 111.04 228.238 111.423 228.238 111.88C228.238 112.342 228.27 112.73 228.333 113.043C228.402 113.351 228.53 113.598 228.716 113.784C228.902 113.97 229.167 114.063 229.513 114.063C229.863 114.063 230.132 113.97 230.318 113.784C230.504 113.598 230.628 113.351 230.692 113.043ZM234.185 108.955C234.546 108.955 234.857 109.019 235.117 109.147C235.377 109.274 235.574 109.449 235.707 109.672C235.839 109.896 235.906 110.148 235.906 110.429C235.906 110.78 235.802 111.075 235.595 111.314C235.393 111.553 235.096 111.697 234.702 111.744V111.792C235.112 111.898 235.43 112.063 235.659 112.286C235.892 112.509 236.009 112.817 236.009 113.211C236.009 113.673 235.855 114.05 235.547 114.342C235.239 114.634 234.795 114.78 234.216 114.78C233.637 114.78 233.167 114.632 232.806 114.334C232.45 114.031 232.24 113.59 232.176 113.011H232.894C232.941 113.362 233.074 113.641 233.292 113.848C233.515 114.055 233.815 114.159 234.192 114.159C234.548 114.159 234.822 114.069 235.013 113.888C235.204 113.702 235.3 113.463 235.3 113.171C235.3 112.82 235.162 112.554 234.886 112.374C234.615 112.188 234.227 112.095 233.722 112.095H233.531V111.489H233.722C234.7 111.489 235.189 111.163 235.189 110.509C235.189 110.222 235.098 109.994 234.918 109.824C234.737 109.654 234.487 109.569 234.169 109.569C233.85 109.569 233.582 109.662 233.364 109.848C233.146 110.028 233.018 110.297 232.981 110.653H232.272C232.309 110.121 232.492 109.707 232.822 109.409C233.157 109.107 233.611 108.955 234.185 108.955ZM240.574 109.68H237.69V111.561C237.822 111.38 238.014 111.237 238.263 111.131C238.513 111.024 238.787 110.971 239.084 110.971C239.483 110.971 239.812 111.056 240.072 111.226C240.338 111.391 240.532 111.612 240.654 111.888C240.782 112.159 240.845 112.461 240.845 112.796C240.845 113.375 240.683 113.848 240.359 114.215C240.035 114.581 239.56 114.764 238.933 114.764C238.37 114.764 237.91 114.613 237.554 114.31C237.198 114.002 236.999 113.59 236.957 113.075H237.674C237.732 113.404 237.868 113.662 238.08 113.848C238.298 114.029 238.572 114.119 238.901 114.119C239.31 114.119 239.618 113.997 239.825 113.752C240.032 113.508 240.136 113.187 240.136 112.788C240.136 112.4 240.03 112.098 239.817 111.88C239.605 111.662 239.305 111.553 238.917 111.553C238.641 111.553 238.399 111.614 238.192 111.736C237.985 111.853 237.828 112.013 237.722 112.214H237.02V109.035H240.574V109.68ZM244.712 110.605C244.669 110.27 244.555 110.012 244.369 109.832C244.188 109.646 243.936 109.553 243.612 109.553C243.161 109.553 242.818 109.728 242.584 110.079C242.356 110.429 242.241 110.985 242.241 111.744L242.249 112.039C242.329 111.72 242.512 111.468 242.799 111.282C243.086 111.091 243.424 110.995 243.811 110.995C244.369 110.995 244.805 111.163 245.118 111.497C245.437 111.832 245.596 112.299 245.596 112.9C245.596 113.25 245.527 113.569 245.389 113.856C245.251 114.138 245.038 114.363 244.752 114.533C244.47 114.698 244.119 114.78 243.7 114.78C242.898 114.78 242.345 114.528 242.042 114.023C241.745 113.519 241.596 112.833 241.596 111.967C241.596 110.969 241.755 110.22 242.074 109.72C242.398 109.216 242.924 108.963 243.652 108.963C244.188 108.963 244.6 109.115 244.887 109.417C245.179 109.72 245.352 110.116 245.405 110.605H244.712ZM242.329 112.78C242.329 113.168 242.441 113.495 242.664 113.76C242.892 114.021 243.232 114.151 243.684 114.151C244.056 114.151 244.353 114.042 244.576 113.824C244.799 113.601 244.911 113.29 244.911 112.892C244.911 112.461 244.799 112.135 244.576 111.912C244.353 111.683 244.045 111.569 243.652 111.569C243.429 111.569 243.216 111.614 243.014 111.704C242.813 111.795 242.648 111.933 242.52 112.119C242.393 112.299 242.329 112.52 242.329 112.78ZM249.502 110.605C249.459 110.27 249.345 110.012 249.159 109.832C248.978 109.646 248.726 109.553 248.402 109.553C247.95 109.553 247.608 109.728 247.374 110.079C247.146 110.429 247.031 110.985 247.031 111.744L247.039 112.039C247.119 111.72 247.302 111.468 247.589 111.282C247.876 111.091 248.213 110.995 248.601 110.995C249.159 110.995 249.595 111.163 249.908 111.497C250.227 111.832 250.386 112.299 250.386 112.9C250.386 113.25 250.317 113.569 250.179 113.856C250.041 114.138 249.828 114.363 249.542 114.533C249.26 114.698 248.909 114.78 248.49 114.78C247.688 114.78 247.135 114.528 246.832 114.023C246.535 113.519 246.386 112.833 246.386 111.967C246.386 110.969 246.545 110.22 246.864 109.72C247.188 109.216 247.714 108.963 248.442 108.963C248.978 108.963 249.39 109.115 249.677 109.417C249.969 109.72 250.142 110.116 250.195 110.605H249.502ZM247.119 112.78C247.119 113.168 247.231 113.495 247.454 113.76C247.682 114.021 248.022 114.151 248.474 114.151C248.846 114.151 249.143 114.042 249.366 113.824C249.589 113.601 249.701 113.29 249.701 112.892C249.701 112.461 249.589 112.135 249.366 111.912C249.143 111.683 248.835 111.569 248.442 111.569C248.219 111.569 248.006 111.614 247.804 111.704C247.603 111.795 247.438 111.933 247.31 112.119C247.183 112.299 247.119 112.52 247.119 112.78ZM254.905 109.68H252.021V111.561C252.153 111.38 252.345 111.237 252.594 111.131C252.844 111.024 253.118 110.971 253.415 110.971C253.814 110.971 254.143 111.056 254.403 111.226C254.669 111.391 254.863 111.612 254.985 111.888C255.112 112.159 255.176 112.461 255.176 112.796C255.176 113.375 255.014 113.848 254.69 114.215C254.366 114.581 253.891 114.764 253.264 114.764C252.701 114.764 252.241 114.613 251.885 114.31C251.529 114.002 251.33 113.59 251.287 113.075H252.005C252.063 113.404 252.199 113.662 252.411 113.848C252.629 114.029 252.902 114.119 253.232 114.119C253.641 114.119 253.949 113.997 254.156 113.752C254.363 113.508 254.467 113.187 254.467 112.788C254.467 112.4 254.361 112.098 254.148 111.88C253.936 111.662 253.636 111.553 253.248 111.553C252.971 111.553 252.73 111.614 252.523 111.736C252.315 111.853 252.159 112.013 252.052 112.214H251.351V109.035H254.905V109.68ZM259.043 110.605C259 110.27 258.886 110.012 258.7 109.832C258.519 109.646 258.267 109.553 257.943 109.553C257.491 109.553 257.149 109.728 256.915 110.079C256.687 110.429 256.572 110.985 256.572 111.744L256.58 112.039C256.66 111.72 256.843 111.468 257.13 111.282C257.417 111.091 257.754 110.995 258.142 110.995C258.7 110.995 259.136 111.163 259.449 111.497C259.768 111.832 259.927 112.299 259.927 112.9C259.927 113.25 259.858 113.569 259.72 113.856C259.582 114.138 259.369 114.363 259.083 114.533C258.801 114.698 258.45 114.78 258.031 114.78C257.228 114.78 256.676 114.528 256.373 114.023C256.076 113.519 255.927 112.833 255.927 111.967C255.927 110.969 256.086 110.22 256.405 109.72C256.729 109.216 257.255 108.963 257.983 108.963C258.519 108.963 258.931 109.115 259.218 109.417C259.51 109.72 259.683 110.116 259.736 110.605H259.043ZM256.66 112.78C256.66 113.168 256.772 113.495 256.995 113.76C257.223 114.021 257.563 114.151 258.015 114.151C258.387 114.151 258.684 114.042 258.907 113.824C259.13 113.601 259.242 113.29 259.242 112.892C259.242 112.461 259.13 112.135 258.907 111.912C258.684 111.683 258.376 111.569 257.983 111.569C257.76 111.569 257.547 111.614 257.345 111.704C257.143 111.795 256.979 111.933 256.851 112.119C256.724 112.299 256.66 112.52 256.66 112.78Z" fill="#1D1D1F"/>
<path d="M154.354 128.101V130.021H156.489V130.579H154.354V132.539H156.728V133.129H153.629V127.511H156.728V128.101H154.354ZM159.803 128.682C160.313 128.682 160.725 128.847 161.038 129.176C161.352 129.5 161.509 129.971 161.509 130.587V133.129H160.783V130.651C160.783 130.215 160.672 129.88 160.449 129.647C160.226 129.413 159.923 129.296 159.54 129.296C159.142 129.296 158.823 129.426 158.584 129.686C158.345 129.941 158.225 130.316 158.225 130.81V133.129H157.5V128.754H158.225V129.79C158.337 129.434 158.534 129.16 158.815 128.969C159.102 128.778 159.431 128.682 159.803 128.682ZM164.254 128.698C164.679 128.698 165.038 128.805 165.33 129.017C165.628 129.23 165.835 129.514 165.952 129.87V128.754H166.677V133.201C166.677 133.604 166.592 133.963 166.422 134.276C166.252 134.59 166.013 134.834 165.705 135.01C165.397 135.185 165.038 135.272 164.629 135.272C164.039 135.272 163.558 135.129 163.187 134.842C162.815 134.561 162.578 134.178 162.477 133.695H163.195C163.28 133.987 163.439 134.215 163.673 134.38C163.912 134.55 164.217 134.635 164.589 134.635C164.982 134.635 165.306 134.507 165.561 134.252C165.822 134.003 165.952 133.652 165.952 133.201V132.013C165.835 132.369 165.628 132.653 165.33 132.866C165.038 133.078 164.679 133.185 164.254 133.185C163.867 133.185 163.521 133.094 163.218 132.914C162.916 132.733 162.677 132.475 162.501 132.141C162.331 131.801 162.246 131.402 162.246 130.945C162.246 130.489 162.331 130.09 162.501 129.75C162.677 129.41 162.916 129.15 163.218 128.969C163.521 128.789 163.867 128.698 164.254 128.698ZM164.462 129.344C164.015 129.344 163.657 129.487 163.386 129.774C163.12 130.056 162.987 130.446 162.987 130.945C162.987 131.445 163.12 131.838 163.386 132.125C163.657 132.406 164.015 132.547 164.462 132.547C164.748 132.547 165.003 132.481 165.227 132.348C165.455 132.215 165.633 132.029 165.76 131.79C165.888 131.546 165.952 131.264 165.952 130.945C165.952 130.627 165.888 130.345 165.76 130.101C165.633 129.856 165.455 129.67 165.227 129.543C165.003 129.41 164.748 129.344 164.462 129.344ZM167.544 127.471C167.544 127.338 167.589 127.232 167.68 127.152C167.77 127.067 167.889 127.025 168.038 127.025C168.187 127.025 168.306 127.067 168.397 127.152C168.487 127.232 168.532 127.338 168.532 127.471C168.532 127.604 168.487 127.713 168.397 127.798C168.306 127.878 168.187 127.917 168.038 127.917C167.889 127.917 167.77 127.878 167.68 127.798C167.589 127.713 167.544 127.604 167.544 127.471ZM168.397 128.754V133.129H167.672V128.754H168.397ZM171.706 128.682C172.216 128.682 172.628 128.847 172.941 129.176C173.255 129.5 173.411 129.971 173.411 130.587V133.129H172.686V130.651C172.686 130.215 172.575 129.88 172.352 129.647C172.128 129.413 171.826 129.296 171.443 129.296C171.045 129.296 170.726 129.426 170.487 129.686C170.248 129.941 170.128 130.316 170.128 130.81V133.129H169.403V128.754H170.128V129.79C170.24 129.434 170.436 129.16 170.718 128.969C171.005 128.778 171.334 128.682 171.706 128.682ZM178.389 130.698C178.389 130.853 178.378 130.985 178.357 131.097H174.858C174.874 131.596 175.015 131.971 175.281 132.22C175.552 132.47 175.881 132.595 176.269 132.595C176.619 132.595 176.912 132.507 177.145 132.332C177.384 132.151 177.531 131.912 177.584 131.615H178.357C178.304 131.918 178.184 132.189 177.998 132.428C177.817 132.667 177.581 132.853 177.289 132.985C176.997 133.118 176.667 133.185 176.301 133.185C175.881 133.185 175.509 133.094 175.185 132.914C174.861 132.733 174.606 132.475 174.42 132.141C174.239 131.801 174.149 131.402 174.149 130.945C174.149 130.489 174.239 130.09 174.42 129.75C174.606 129.41 174.861 129.15 175.185 128.969C175.509 128.789 175.881 128.698 176.301 128.698C176.726 128.698 177.095 128.789 177.408 128.969C177.727 129.15 177.969 129.392 178.134 129.694C178.304 129.997 178.389 130.332 178.389 130.698ZM177.655 130.746C177.671 130.422 177.618 130.151 177.496 129.933C177.374 129.716 177.206 129.554 176.994 129.447C176.781 129.341 176.55 129.288 176.301 129.288C175.902 129.288 175.568 129.413 175.297 129.663C175.026 129.907 174.88 130.268 174.858 130.746H177.655ZM184.43 127.511V128.101H182.844V133.129H182.119V128.101H180.533V127.511H184.43ZM184.864 127.471C184.864 127.338 184.909 127.232 184.999 127.152C185.089 127.067 185.209 127.025 185.358 127.025C185.506 127.025 185.626 127.067 185.716 127.152C185.806 127.232 185.852 127.338 185.852 127.471C185.852 127.604 185.806 127.713 185.716 127.798C185.626 127.878 185.506 127.917 185.358 127.917C185.209 127.917 185.089 127.878 184.999 127.798C184.909 127.713 184.864 127.604 184.864 127.471ZM185.716 128.754V133.129H184.991V128.754H185.716ZM192.102 128.682C192.612 128.682 193.021 128.847 193.329 129.176C193.642 129.5 193.799 129.971 193.799 130.587V133.129H193.074V130.651C193.074 130.22 192.967 129.891 192.755 129.663C192.548 129.434 192.261 129.32 191.894 129.32C191.512 129.32 191.204 129.447 190.97 129.702C190.742 129.952 190.627 130.321 190.627 130.81V133.129H189.902V130.651C189.902 130.22 189.796 129.891 189.583 129.663C189.371 129.434 189.084 129.32 188.723 129.32C188.335 129.32 188.024 129.447 187.79 129.702C187.562 129.952 187.448 130.321 187.448 130.81V133.129H186.723V128.754H187.448V129.75C187.554 129.405 187.743 129.142 188.014 128.961C188.29 128.775 188.606 128.682 188.962 128.682C189.334 128.682 189.655 128.778 189.926 128.969C190.202 129.155 190.399 129.431 190.516 129.798C190.638 129.442 190.842 129.168 191.129 128.977C191.416 128.781 191.74 128.682 192.102 128.682ZM198.79 130.698C198.79 130.853 198.779 130.985 198.758 131.097H195.259C195.275 131.596 195.416 131.971 195.682 132.22C195.953 132.47 196.282 132.595 196.67 132.595C197.021 132.595 197.313 132.507 197.546 132.332C197.786 132.151 197.932 131.912 197.985 131.615H198.758C198.705 131.918 198.585 132.189 198.399 132.428C198.219 132.667 197.982 132.853 197.69 132.985C197.398 133.118 197.068 133.185 196.702 133.185C196.282 133.185 195.91 133.094 195.586 132.914C195.262 132.733 195.007 132.475 194.821 132.141C194.641 131.801 194.55 131.402 194.55 130.945C194.55 130.489 194.641 130.09 194.821 129.75C195.007 129.41 195.262 129.15 195.586 128.969C195.91 128.789 196.282 128.698 196.702 128.698C197.127 128.698 197.496 128.789 197.809 128.969C198.128 129.15 198.37 129.392 198.535 129.694C198.705 129.997 198.79 130.332 198.79 130.698ZM198.056 130.746C198.072 130.422 198.019 130.151 197.897 129.933C197.775 129.716 197.608 129.554 197.395 129.447C197.183 129.341 196.952 129.288 196.702 129.288C196.303 129.288 195.969 129.413 195.698 129.663C195.427 129.907 195.281 130.268 195.259 130.746H198.056ZM200.208 128.834V129.686H199.332V128.834H200.208ZM200.208 132.276V133.129H199.332V132.276H200.208Z" fill="#1D1D1F"/>
<path d="M227.17 128.188V127.511H228.78V133.129H228.015V128.188H227.17ZM230.199 132.595C230.273 132.829 230.311 133.047 230.311 133.248C230.311 133.525 230.241 133.745 230.103 133.91C229.965 134.08 229.758 134.165 229.482 134.165V133.854C229.615 133.854 229.71 133.817 229.769 133.742C229.832 133.673 229.864 133.562 229.864 133.408V133.336H229.458V132.595H230.199ZM234.668 128.085H231.783V129.965C231.916 129.785 232.107 129.641 232.357 129.535C232.607 129.429 232.88 129.376 233.178 129.376C233.576 129.376 233.906 129.461 234.166 129.631C234.431 129.795 234.625 130.016 234.748 130.292C234.875 130.563 234.939 130.866 234.939 131.2C234.939 131.78 234.777 132.252 234.453 132.619C234.129 132.985 233.653 133.169 233.026 133.169C232.463 133.169 232.004 133.017 231.648 132.715C231.292 132.406 231.093 131.995 231.05 131.479H231.767C231.826 131.809 231.961 132.066 232.174 132.252C232.391 132.433 232.665 132.523 232.994 132.523C233.403 132.523 233.712 132.401 233.919 132.157C234.126 131.912 234.23 131.591 234.23 131.193C234.23 130.805 234.123 130.502 233.911 130.284C233.698 130.066 233.398 129.957 233.01 129.957C232.734 129.957 232.492 130.018 232.285 130.141C232.078 130.258 231.921 130.417 231.815 130.619H231.114V127.439H234.668V128.085ZM238.805 129.009C238.763 128.674 238.649 128.417 238.463 128.236C238.282 128.05 238.03 127.957 237.706 127.957C237.254 127.957 236.911 128.133 236.678 128.483C236.449 128.834 236.335 129.389 236.335 130.149L236.343 130.443C236.423 130.125 236.606 129.872 236.893 129.686C237.18 129.495 237.517 129.4 237.905 129.4C238.463 129.4 238.898 129.567 239.212 129.902C239.53 130.236 239.69 130.704 239.69 131.304C239.69 131.655 239.621 131.973 239.483 132.26C239.345 132.542 239.132 132.768 238.845 132.938C238.564 133.102 238.213 133.185 237.793 133.185C236.991 133.185 236.439 132.932 236.136 132.428C235.838 131.923 235.69 131.238 235.69 130.372C235.69 129.373 235.849 128.624 236.168 128.125C236.492 127.62 237.018 127.368 237.745 127.368C238.282 127.368 238.694 127.519 238.981 127.822C239.273 128.125 239.445 128.52 239.499 129.009H238.805ZM236.423 131.185C236.423 131.572 236.534 131.899 236.757 132.165C236.986 132.425 237.326 132.555 237.777 132.555C238.149 132.555 238.447 132.446 238.67 132.228C238.893 132.005 239.005 131.695 239.005 131.296C239.005 130.866 238.893 130.539 238.67 130.316C238.447 130.088 238.139 129.973 237.745 129.973C237.522 129.973 237.31 130.018 237.108 130.109C236.906 130.199 236.741 130.337 236.614 130.523C236.486 130.704 236.423 130.924 236.423 131.185ZM240.216 131.838V131.232L243.101 127.471H243.882V131.208H244.711V131.838H243.882V133.129H243.149V131.838H240.216ZM243.197 128.356L240.981 131.208H243.197V128.356ZM249.446 128.682C249.956 128.682 250.367 128.847 250.681 129.176C250.994 129.5 251.151 129.971 251.151 130.587V133.129H250.426V130.651C250.426 130.215 250.314 129.88 250.091 129.647C249.868 129.413 249.565 129.296 249.183 129.296C248.784 129.296 248.466 129.426 248.227 129.686C247.987 129.941 247.868 130.316 247.868 130.81V133.129H247.143V127.232H247.868V129.79C247.98 129.434 248.176 129.16 248.458 128.969C248.744 128.778 249.074 128.682 249.446 128.682ZM252.829 129.639C252.973 129.336 253.182 129.102 253.459 128.937C253.735 128.767 254.064 128.682 254.447 128.682V129.471H254.224C253.815 129.471 253.48 129.578 253.22 129.79C252.959 129.997 252.829 130.343 252.829 130.826V133.129H252.104V128.754H252.829V129.639ZM256.373 128.698C256.868 128.698 257.263 128.828 257.561 129.089C257.864 129.344 258.047 129.689 258.111 130.125H257.417C257.385 129.864 257.277 129.652 257.091 129.487C256.91 129.317 256.666 129.232 256.358 129.232C256.097 129.232 255.893 129.296 255.744 129.423C255.601 129.546 255.529 129.713 255.529 129.925C255.529 130.085 255.577 130.215 255.672 130.316C255.773 130.412 255.895 130.486 256.039 130.539C256.188 130.587 256.389 130.64 256.644 130.698C256.968 130.773 257.229 130.85 257.425 130.93C257.627 131.004 257.797 131.126 257.935 131.296C258.079 131.466 258.15 131.695 258.15 131.981C258.15 132.337 258.015 132.627 257.744 132.85C257.478 133.073 257.123 133.185 256.676 133.185C256.156 133.185 255.731 133.06 255.401 132.81C255.072 132.56 254.878 132.213 254.82 131.766H255.521C255.547 132.032 255.662 132.247 255.863 132.412C256.071 132.576 256.342 132.659 256.676 132.659C256.926 132.659 257.12 132.595 257.258 132.468C257.401 132.34 257.473 132.173 257.473 131.965C257.473 131.795 257.423 131.66 257.322 131.559C257.221 131.458 257.096 131.381 256.947 131.328C256.798 131.275 256.594 131.219 256.334 131.161C256.01 131.086 255.749 131.012 255.553 130.938C255.361 130.863 255.197 130.746 255.059 130.587C254.926 130.422 254.859 130.202 254.859 129.925C254.859 129.559 254.995 129.264 255.266 129.041C255.537 128.813 255.906 128.698 256.373 128.698Z" fill="#1D1D1F"/>
<path d="M156.179 145.861C156.832 145.861 157.379 146.023 157.82 146.348C158.266 146.672 158.567 147.113 158.721 147.67H157.956C157.823 147.33 157.6 147.057 157.286 146.85C156.978 146.642 156.612 146.539 156.187 146.539C155.804 146.539 155.461 146.629 155.159 146.81C154.856 146.985 154.617 147.237 154.441 147.567C154.271 147.896 154.186 148.284 154.186 148.73C154.186 149.187 154.274 149.583 154.449 149.918C154.625 150.247 154.866 150.502 155.175 150.683C155.488 150.858 155.847 150.945 156.25 150.945C156.596 150.945 156.912 150.871 157.199 150.722C157.485 150.574 157.719 150.358 157.9 150.077C158.086 149.79 158.197 149.455 158.234 149.073H156.027V148.531H158.848V149.2C158.8 149.647 158.662 150.05 158.434 150.412C158.205 150.773 157.897 151.06 157.509 151.272C157.122 151.485 156.681 151.591 156.187 151.591C155.645 151.591 155.167 151.471 154.752 151.232C154.338 150.988 154.014 150.651 153.78 150.22C153.552 149.785 153.437 149.288 153.437 148.73C153.437 148.172 153.552 147.678 153.78 147.248C154.014 146.812 154.338 146.472 154.752 146.228C155.167 145.984 155.642 145.861 156.179 145.861ZM161.464 147.105C161.889 147.105 162.248 147.211 162.54 147.423C162.838 147.636 163.045 147.92 163.162 148.276V147.16H163.887V151.535H163.162V150.42C163.045 150.775 162.838 151.06 162.54 151.272C162.248 151.485 161.889 151.591 161.464 151.591C161.077 151.591 160.731 151.501 160.428 151.32C160.126 151.139 159.887 150.882 159.711 150.547C159.541 150.207 159.456 149.809 159.456 149.352C159.456 148.895 159.541 148.496 159.711 148.156C159.887 147.816 160.126 147.556 160.428 147.375C160.731 147.195 161.077 147.105 161.464 147.105ZM161.672 147.75C161.225 147.75 160.867 147.893 160.596 148.18C160.33 148.462 160.197 148.852 160.197 149.352C160.197 149.851 160.33 150.244 160.596 150.531C160.867 150.813 161.225 150.953 161.672 150.953C161.958 150.953 162.213 150.887 162.437 150.754C162.665 150.621 162.843 150.435 162.97 150.196C163.098 149.952 163.162 149.67 163.162 149.352C163.162 149.033 163.098 148.751 162.97 148.507C162.843 148.263 162.665 148.077 162.437 147.949C162.213 147.816 161.958 147.75 161.672 147.75ZM165.607 145.638V151.535H164.882V145.638H165.607ZM167.338 145.638V151.535H166.613V145.638H167.338ZM170.329 147.105C170.749 147.105 171.123 147.195 171.453 147.375C171.787 147.556 172.048 147.816 172.234 148.156C172.425 148.496 172.52 148.895 172.52 149.352C172.52 149.809 172.425 150.207 172.234 150.547C172.048 150.882 171.787 151.139 171.453 151.32C171.123 151.501 170.749 151.591 170.329 151.591C169.909 151.591 169.532 151.501 169.197 151.32C168.868 151.139 168.608 150.882 168.417 150.547C168.225 150.207 168.13 149.809 168.13 149.352C168.13 148.895 168.225 148.496 168.417 148.156C168.608 147.816 168.868 147.556 169.197 147.375C169.532 147.195 169.909 147.105 170.329 147.105ZM170.329 147.742C170.069 147.742 169.827 147.8 169.604 147.917C169.386 148.034 169.208 148.215 169.07 148.459C168.937 148.698 168.871 148.996 168.871 149.352C168.871 149.702 168.937 150 169.07 150.244C169.208 150.483 169.386 150.661 169.604 150.778C169.827 150.895 170.069 150.953 170.329 150.953C170.589 150.953 170.828 150.895 171.046 150.778C171.269 150.661 171.447 150.483 171.58 150.244C171.718 150 171.787 149.702 171.787 149.352C171.787 148.996 171.718 148.698 171.58 148.459C171.447 148.215 171.269 148.034 171.046 147.917C170.828 147.8 170.589 147.742 170.329 147.742ZM175.609 147.089C176.119 147.089 176.531 147.253 176.844 147.583C177.158 147.907 177.314 148.377 177.314 148.993V151.535H176.589V149.057C176.589 148.621 176.478 148.287 176.254 148.053C176.031 147.819 175.728 147.702 175.346 147.702C174.948 147.702 174.629 147.832 174.39 148.093C174.151 148.348 174.031 148.722 174.031 149.216V151.535H173.306V147.16H174.031V148.196C174.143 147.84 174.339 147.567 174.621 147.375C174.908 147.184 175.237 147.089 175.609 147.089ZM179.638 147.105C180.132 147.105 180.528 147.235 180.825 147.495C181.128 147.75 181.311 148.095 181.375 148.531H180.682C180.65 148.271 180.541 148.058 180.355 147.893C180.174 147.723 179.93 147.638 179.622 147.638C179.361 147.638 179.157 147.702 179.008 147.83C178.865 147.952 178.793 148.119 178.793 148.332C178.793 148.491 178.841 148.621 178.936 148.722C179.037 148.818 179.16 148.892 179.303 148.945C179.452 148.993 179.654 149.046 179.909 149.105C180.233 149.179 180.493 149.256 180.69 149.336C180.891 149.41 181.061 149.532 181.2 149.702C181.343 149.872 181.415 150.101 181.415 150.388C181.415 150.744 181.279 151.033 181.008 151.256C180.743 151.479 180.387 151.591 179.941 151.591C179.42 151.591 178.995 151.466 178.666 151.216C178.336 150.967 178.142 150.619 178.084 150.173H178.785C178.812 150.438 178.926 150.653 179.128 150.818C179.335 150.983 179.606 151.065 179.941 151.065C180.19 151.065 180.384 151.001 180.522 150.874C180.666 150.746 180.737 150.579 180.737 150.372C180.737 150.202 180.687 150.066 180.586 149.965C180.485 149.864 180.36 149.787 180.211 149.734C180.063 149.681 179.858 149.625 179.598 149.567C179.274 149.493 179.014 149.418 178.817 149.344C178.626 149.269 178.461 149.153 178.323 148.993C178.19 148.828 178.124 148.608 178.124 148.332C178.124 147.965 178.259 147.67 178.53 147.447C178.801 147.219 179.17 147.105 179.638 147.105ZM187.588 150.077C187.588 150.343 187.524 150.59 187.397 150.818C187.269 151.046 187.075 151.232 186.815 151.376C186.555 151.519 186.233 151.591 185.851 151.591C185.479 151.591 185.147 151.525 184.855 151.392C184.568 151.254 184.337 151.068 184.161 150.834C183.991 150.595 183.893 150.324 183.866 150.021H184.639C184.655 150.18 184.709 150.337 184.799 150.491C184.894 150.64 185.027 150.765 185.197 150.866C185.373 150.961 185.582 151.009 185.827 151.009C186.146 151.009 186.39 150.924 186.56 150.754C186.73 150.584 186.815 150.366 186.815 150.101C186.815 149.872 186.754 149.686 186.632 149.543C186.515 149.4 186.369 149.288 186.193 149.208C186.018 149.123 185.779 149.033 185.476 148.937C185.12 148.82 184.833 148.712 184.616 148.611C184.403 148.504 184.22 148.348 184.066 148.14C183.917 147.933 183.843 147.66 183.843 147.32C183.843 147.028 183.912 146.77 184.05 146.547C184.193 146.324 184.395 146.151 184.655 146.029C184.921 145.907 185.232 145.846 185.588 145.846C186.14 145.846 186.579 145.981 186.903 146.252C187.227 146.518 187.415 146.858 187.468 147.272H186.687C186.645 147.049 186.531 146.852 186.345 146.682C186.159 146.512 185.906 146.427 185.588 146.427C185.296 146.427 185.062 146.504 184.886 146.658C184.711 146.807 184.624 147.02 184.624 147.296C184.624 147.514 184.679 147.692 184.791 147.83C184.908 147.963 185.051 148.069 185.221 148.148C185.391 148.223 185.625 148.308 185.922 148.403C186.284 148.52 186.573 148.632 186.791 148.738C187.014 148.844 187.203 149.006 187.357 149.224C187.511 149.437 187.588 149.721 187.588 150.077ZM190.818 147.105C191.206 147.105 191.551 147.195 191.854 147.375C192.157 147.556 192.393 147.816 192.563 148.156C192.739 148.496 192.826 148.895 192.826 149.352C192.826 149.809 192.739 150.207 192.563 150.547C192.393 150.882 192.157 151.139 191.854 151.32C191.551 151.501 191.206 151.591 190.818 151.591C190.393 151.591 190.032 151.485 189.734 151.272C189.442 151.054 189.24 150.77 189.129 150.42V153.607H188.404V147.16H189.129V148.276C189.24 147.925 189.442 147.644 189.734 147.431C190.032 147.213 190.393 147.105 190.818 147.105ZM190.611 147.75C190.329 147.75 190.074 147.816 189.846 147.949C189.617 148.077 189.439 148.263 189.312 148.507C189.184 148.751 189.121 149.033 189.121 149.352C189.121 149.67 189.184 149.952 189.312 150.196C189.439 150.435 189.617 150.621 189.846 150.754C190.074 150.887 190.329 150.953 190.611 150.953C191.062 150.953 191.421 150.813 191.687 150.531C191.958 150.244 192.093 149.851 192.093 149.352C192.093 148.852 191.958 148.462 191.687 148.18C191.421 147.893 191.062 147.75 190.611 147.75ZM197.638 149.105C197.638 149.259 197.627 149.392 197.606 149.503H194.108C194.124 150.003 194.264 150.377 194.53 150.627C194.801 150.876 195.13 151.001 195.518 151.001C195.869 151.001 196.161 150.914 196.395 150.738C196.634 150.558 196.78 150.319 196.833 150.021H197.606C197.553 150.324 197.433 150.595 197.247 150.834C197.067 151.073 196.83 151.259 196.538 151.392C196.246 151.525 195.917 151.591 195.55 151.591C195.13 151.591 194.759 151.501 194.434 151.32C194.11 151.139 193.855 150.882 193.669 150.547C193.489 150.207 193.399 149.809 193.399 149.352C193.399 148.895 193.489 148.496 193.669 148.156C193.855 147.816 194.11 147.556 194.434 147.375C194.759 147.195 195.13 147.105 195.55 147.105C195.975 147.105 196.344 147.195 196.658 147.375C196.976 147.556 197.218 147.798 197.383 148.101C197.553 148.403 197.638 148.738 197.638 149.105ZM196.905 149.153C196.921 148.828 196.868 148.558 196.745 148.34C196.623 148.122 196.456 147.96 196.243 147.854C196.031 147.747 195.8 147.694 195.55 147.694C195.152 147.694 194.817 147.819 194.546 148.069C194.275 148.313 194.129 148.674 194.108 149.153H196.905ZM200.73 147.089C201.24 147.089 201.652 147.253 201.965 147.583C202.279 147.907 202.435 148.377 202.435 148.993V151.535H201.71V149.057C201.71 148.621 201.599 148.287 201.375 148.053C201.152 147.819 200.849 147.702 200.467 147.702C200.069 147.702 199.75 147.832 199.511 148.093C199.272 148.348 199.152 148.722 199.152 149.216V151.535H198.427V147.16H199.152V148.196C199.264 147.84 199.46 147.567 199.742 147.375C200.029 147.184 200.358 147.089 200.73 147.089ZM205.476 150.898V151.535H204.934C204.488 151.535 204.153 151.429 203.93 151.216C203.712 151.004 203.603 150.648 203.603 150.149V147.79H202.95V147.16H203.603V146.069H204.336V147.16H205.468V147.79H204.336V150.165C204.336 150.446 204.387 150.64 204.488 150.746C204.594 150.847 204.775 150.898 205.03 150.898H205.476ZM206.831 147.24V148.093H205.954V147.24H206.831ZM206.831 150.683V151.535H205.954V150.683H206.831Z" fill="#1D1D1F"/>
<path d="M227.401 150.977C228.304 150.372 229.027 149.771 229.569 149.176C230.11 148.576 230.381 148.018 230.381 147.503C230.381 147.184 230.299 146.929 230.134 146.738C229.975 146.541 229.715 146.443 229.353 146.443C228.982 146.443 228.7 146.563 228.509 146.802C228.317 147.035 228.211 147.36 228.19 147.774H227.473C227.51 147.147 227.704 146.666 228.055 146.332C228.405 145.992 228.857 145.822 229.409 145.822C229.935 145.822 230.352 145.962 230.66 146.244C230.968 146.526 231.122 146.924 231.122 147.439C231.122 147.864 230.984 148.297 230.708 148.738C230.437 149.174 230.095 149.58 229.68 149.957C229.271 150.329 228.849 150.645 228.413 150.906H231.266V151.503H227.401V150.977ZM231.532 146.595V145.917H233.142V151.535H232.377V146.595H231.532ZM234.832 149.957C234.88 150.292 234.997 150.55 235.182 150.73C235.368 150.911 235.623 151.001 235.947 151.001C236.394 151.001 236.731 150.829 236.959 150.483C237.188 150.138 237.302 149.591 237.302 148.842C237.302 148.698 237.299 148.589 237.294 148.515C237.22 148.834 237.039 149.089 236.752 149.28C236.465 149.471 236.128 149.567 235.74 149.567C235.182 149.567 234.744 149.4 234.425 149.065C234.107 148.73 233.947 148.263 233.947 147.662C233.947 147.312 234.016 146.993 234.154 146.706C234.293 146.419 234.502 146.193 234.784 146.029C235.071 145.859 235.424 145.774 235.844 145.774C236.651 145.774 237.204 146.023 237.501 146.523C237.804 147.017 237.956 147.697 237.956 148.563C237.956 149.551 237.802 150.305 237.493 150.826C237.185 151.341 236.67 151.599 235.947 151.599C235.411 151.599 234.989 151.448 234.68 151.145C234.378 150.837 234.2 150.441 234.147 149.957H234.832ZM237.222 147.774C237.222 147.391 237.108 147.067 236.88 146.802C236.657 146.536 236.319 146.403 235.868 146.403C235.496 146.403 235.198 146.515 234.975 146.738C234.752 146.961 234.641 147.272 234.641 147.67C234.641 148.095 234.752 148.422 234.975 148.65C235.198 148.879 235.504 148.993 235.892 148.993C236.115 148.993 236.327 148.948 236.529 148.858C236.736 148.767 236.904 148.629 237.031 148.443C237.159 148.257 237.222 148.034 237.222 147.774ZM243.187 145.861C243.84 145.861 244.387 146.023 244.828 146.348C245.275 146.672 245.575 147.113 245.729 147.67H244.964C244.831 147.33 244.608 147.057 244.294 146.85C243.986 146.642 243.62 146.539 243.195 146.539C242.812 146.539 242.47 146.629 242.167 146.81C241.864 146.985 241.625 147.237 241.45 147.567C241.28 147.896 241.195 148.284 241.195 148.73C241.195 149.187 241.282 149.583 241.458 149.918C241.633 150.247 241.875 150.502 242.183 150.683C242.496 150.858 242.855 150.945 243.258 150.945C243.604 150.945 243.92 150.871 244.207 150.722C244.494 150.574 244.727 150.358 244.908 150.077C245.094 149.79 245.206 149.455 245.243 149.073H243.035V148.531H245.856V149.2C245.808 149.647 245.67 150.05 245.442 150.412C245.213 150.773 244.905 151.06 244.518 151.272C244.13 151.485 243.689 151.591 243.195 151.591C242.653 151.591 242.175 151.471 241.76 151.232C241.346 150.988 241.022 150.651 240.788 150.22C240.56 149.785 240.446 149.288 240.446 148.73C240.446 148.172 240.56 147.678 240.788 147.248C241.022 146.812 241.346 146.472 241.76 146.228C242.175 145.984 242.65 145.861 243.187 145.861ZM248.473 147.105C248.898 147.105 249.256 147.211 249.548 147.423C249.846 147.636 250.053 147.92 250.17 148.276V147.16H250.895V151.535H250.17V150.42C250.053 150.775 249.846 151.06 249.548 151.272C249.256 151.485 248.898 151.591 248.473 151.591C248.085 151.591 247.739 151.501 247.437 151.32C247.134 151.139 246.895 150.882 246.719 150.547C246.549 150.207 246.464 149.809 246.464 149.352C246.464 148.895 246.549 148.496 246.719 148.156C246.895 147.816 247.134 147.556 247.437 147.375C247.739 147.195 248.085 147.105 248.473 147.105ZM248.68 147.75C248.234 147.75 247.875 147.893 247.604 148.18C247.338 148.462 247.206 148.852 247.206 149.352C247.206 149.851 247.338 150.244 247.604 150.531C247.875 150.813 248.234 150.953 248.68 150.953C248.967 150.953 249.222 150.887 249.445 150.754C249.673 150.621 249.851 150.435 249.979 150.196C250.106 149.952 250.17 149.67 250.17 149.352C250.17 149.033 250.106 148.751 249.979 148.507C249.851 148.263 249.673 148.077 249.445 147.949C249.222 147.816 248.967 147.75 248.68 147.75ZM252.615 145.638V151.535H251.89V145.638H252.615ZM254.155 150.683V151.535H253.279V150.683H254.155Z" fill="#1D1D1F"/>
<path d="M19.8281 27.1173C19.8281 21.5296 24.3578 17 29.9454 17H281.059C286.646 17 291.176 21.5297 291.176 27.1173V44.4783H19.8281V27.1173Z" fill="#003366"/>
<path d="M29.2972 27.9431L30.9824 32.9275L32.6766 27.9431H34.023L31.7938 34.2383H30.1799L27.9507 27.9431H29.2972ZM39.3469 31.5811C39.3469 31.706 39.3321 31.8486 39.3023 32.0091H35.6822C35.7 32.449 35.8189 32.773 36.0389 32.981C36.2588 33.1891 36.5322 33.2931 36.8592 33.2931C37.1505 33.2931 37.3912 33.2218 37.5814 33.0791C37.7776 32.9364 37.9024 32.7433 37.9559 32.4995H39.2845C39.2191 32.8443 39.0794 33.1534 38.8654 33.4269C38.6514 33.7003 38.375 33.9143 38.0362 34.0689C37.7033 34.2234 37.3318 34.3007 36.9216 34.3007C36.4401 34.3007 36.0121 34.1996 35.6376 33.9975C35.2631 33.7895 34.9718 33.4952 34.7638 33.1148C34.5557 32.7343 34.4517 32.2855 34.4517 31.7684C34.4517 31.2512 34.5557 30.8024 34.7638 30.422C34.9718 30.0356 35.2631 29.7413 35.6376 29.5392C36.0121 29.3371 36.4401 29.236 36.9216 29.236C37.409 29.236 37.8341 29.3371 38.1967 29.5392C38.5652 29.7413 38.8476 30.0207 39.0438 30.3774C39.2459 30.7281 39.3469 31.1293 39.3469 31.5811ZM38.0808 31.4563C38.0986 31.0521 37.9916 30.7459 37.7598 30.5379C37.5339 30.3298 37.2545 30.2258 36.9216 30.2258C36.5828 30.2258 36.2974 30.3298 36.0656 30.5379C35.8338 30.7459 35.706 31.0521 35.6822 31.4563H38.0808ZM43.1819 29.2271C43.7526 29.2271 44.2073 29.4144 44.5462 29.7889C44.885 30.1634 45.0544 30.6895 45.0544 31.3671V34.2383H43.8061V31.5098C43.8061 31.1175 43.705 30.8143 43.5029 30.6003C43.3008 30.3803 43.0244 30.2704 42.6737 30.2704C42.317 30.2704 42.0317 30.3863 41.8177 30.6181C41.6037 30.85 41.4967 31.1828 41.4967 31.6168V34.2383H40.2394V27.64H41.4967V30.2882C41.6275 29.9553 41.8415 29.6967 42.1387 29.5125C42.4418 29.3222 42.7896 29.2271 43.1819 29.2271ZM46.018 27.8807C46.018 27.6786 46.0893 27.5151 46.232 27.3903C46.3746 27.2595 46.5619 27.1941 46.7937 27.1941C47.0256 27.1941 47.2128 27.2595 47.3555 27.3903C47.4981 27.5151 47.5695 27.6786 47.5695 27.8807C47.5695 28.0769 47.4981 28.2403 47.3555 28.3711C47.2128 28.496 47.0256 28.5584 46.7937 28.5584C46.5619 28.5584 46.3746 28.496 46.232 28.3711C46.0893 28.2403 46.018 28.0769 46.018 27.8807ZM47.4179 29.2985V34.2383H46.1606V29.2985H47.4179ZM50.7755 29.236C51.4116 29.236 51.9406 29.4084 52.3627 29.7532C52.7907 30.098 53.0582 30.5676 53.1652 31.162H51.8366C51.7831 30.9005 51.6612 30.6954 51.471 30.5468C51.2808 30.3922 51.04 30.315 50.7488 30.315C50.4159 30.315 50.1365 30.4398 49.9106 30.6895C49.6906 30.9332 49.5807 31.2928 49.5807 31.7684C49.5807 32.2439 49.6906 32.6065 49.9106 32.8562C50.1365 33.0999 50.4159 33.2218 50.7488 33.2218C51.04 33.2218 51.2808 33.1475 51.471 32.9989C51.6612 32.8443 51.7831 32.6363 51.8366 32.3747H53.1652C53.0582 32.9691 52.7907 33.4388 52.3627 33.7835C51.9406 34.1283 51.4116 34.3007 50.7755 34.3007C50.294 34.3007 49.866 34.1996 49.4915 33.9975C49.117 33.7895 48.8257 33.4952 48.6177 33.1148C48.4096 32.7343 48.3056 32.2855 48.3056 31.7684C48.3056 31.2512 48.4096 30.8024 48.6177 30.422C48.8257 30.0356 49.117 29.7413 49.4915 29.5392C49.866 29.3371 50.294 29.236 50.7755 29.236ZM55.3157 27.64V34.2383H54.0585V27.64H55.3157ZM61.0987 31.5811C61.0987 31.706 61.0838 31.8486 61.0541 32.0091H57.4339C57.4518 32.449 57.5707 32.773 57.7906 32.981C58.0106 33.1891 58.284 33.2931 58.6109 33.2931C58.9022 33.2931 59.143 33.2218 59.3332 33.0791C59.5294 32.9364 59.6542 32.7433 59.7077 32.4995H61.0363C60.9709 32.8443 60.8312 33.1534 60.6172 33.4269C60.4032 33.7003 60.1268 33.9143 59.7879 34.0689C59.455 34.2234 59.0835 34.3007 58.6734 34.3007C58.1919 34.3007 57.7639 34.1996 57.3894 33.9975C57.0149 33.7895 56.7236 33.4952 56.5155 33.1148C56.3075 32.7343 56.2034 32.2855 56.2034 31.7684C56.2034 31.2512 56.3075 30.8024 56.5155 30.422C56.7236 30.0356 57.0149 29.7413 57.3894 29.5392C57.7639 29.3371 58.1919 29.236 58.6734 29.236C59.1608 29.236 59.5858 29.3371 59.9484 29.5392C60.317 29.7413 60.5994 30.0207 60.7955 30.3774C60.9976 30.7281 61.0987 31.1293 61.0987 31.5811ZM59.8325 31.4563C59.8504 31.0521 59.7434 30.7459 59.5115 30.5379C59.2856 30.3298 59.0062 30.2258 58.6734 30.2258C58.3345 30.2258 58.0492 30.3298 57.8174 30.5379C57.5855 30.7459 57.4577 31.0521 57.4339 31.4563H59.8325ZM69.1492 27.9431V34.2383H67.8831V31.5009H65.1902V34.2383H63.933V27.9431H65.1902V30.4933H67.8831V27.9431H69.1492ZM74.9352 31.5811C74.9352 31.706 74.9203 31.8486 74.8906 32.0091H71.2704C71.2883 32.449 71.4071 32.773 71.6271 32.981C71.847 33.1891 72.1205 33.2931 72.4474 33.2931C72.7387 33.2931 72.9795 33.2218 73.1697 33.0791C73.3658 32.9364 73.4907 32.7433 73.5442 32.4995H74.8728C74.8074 32.8443 74.6677 33.1534 74.4537 33.4269C74.2397 33.7003 73.9633 33.9143 73.6244 34.0689C73.2915 34.2234 72.92 34.3007 72.5098 34.3007C72.0283 34.3007 71.6003 34.1996 71.2258 33.9975C70.8513 33.7895 70.5601 33.4952 70.352 33.1148C70.144 32.7343 70.0399 32.2855 70.0399 31.7684C70.0399 31.2512 70.144 30.8024 70.352 30.422C70.5601 30.0356 70.8513 29.7413 71.2258 29.5392C71.6003 29.3371 72.0283 29.236 72.5098 29.236C72.9973 29.236 73.4223 29.3371 73.7849 29.5392C74.1535 29.7413 74.4358 30.0207 74.632 30.3774C74.8341 30.7281 74.9352 31.1293 74.9352 31.5811ZM73.669 31.4563C73.6868 31.0521 73.5798 30.7459 73.348 30.5379C73.1221 30.3298 72.8427 30.2258 72.5098 30.2258C72.171 30.2258 71.8857 30.3298 71.6538 30.5379C71.422 30.7459 71.2942 31.0521 71.2704 31.4563H73.669ZM77.7626 29.236C78.1787 29.236 78.5354 29.3341 78.8326 29.5303C79.1298 29.7265 79.3408 29.991 79.4657 30.3239V29.2985H80.714V34.2383H79.4657V33.2039C79.3408 33.5368 79.1298 33.8043 78.8326 34.0064C78.5354 34.2026 78.1787 34.3007 77.7626 34.3007C77.3465 34.3007 76.972 34.1996 76.6391 33.9975C76.3062 33.7954 76.0446 33.5041 75.8544 33.1237C75.6701 32.7373 75.578 32.2855 75.578 31.7684C75.578 31.2512 75.6701 30.8024 75.8544 30.422C76.0446 30.0356 76.3062 29.7413 76.6391 29.5392C76.972 29.3371 77.3465 29.236 77.7626 29.236ZM78.1549 30.3328C77.7626 30.3328 77.4475 30.4606 77.2098 30.7162C76.972 30.9718 76.8531 31.3225 76.8531 31.7684C76.8531 32.2142 76.972 32.5649 77.2098 32.8205C77.4475 33.0702 77.7626 33.195 78.1549 33.195C78.5354 33.195 78.8474 33.0672 79.0912 32.8116C79.3408 32.5501 79.4657 32.2023 79.4657 31.7684C79.4657 31.3285 79.3408 30.9807 79.0912 30.7251C78.8474 30.4636 78.5354 30.3328 78.1549 30.3328ZM83.1106 27.64V34.2383H81.8534V27.64H83.1106ZM86.8873 33.1594V34.2383H86.2275C85.6747 34.2383 85.2496 34.1045 84.9524 33.837C84.6611 33.5695 84.5155 33.1237 84.5155 32.4995V30.3595H83.8289V29.2985H84.5155V28.0769H85.7727V29.2985H86.8784V30.3595H85.7727V32.5174C85.7727 32.7551 85.8203 32.9216 85.9154 33.0167C86.0105 33.1118 86.171 33.1594 86.3969 33.1594H86.8873ZM90.7345 29.2271C91.3052 29.2271 91.7599 29.4144 92.0988 29.7889C92.4376 30.1634 92.607 30.6895 92.607 31.3671V34.2383H91.3587V31.5098C91.3587 31.1175 91.2576 30.8143 91.0555 30.6003C90.8534 30.3803 90.577 30.2704 90.2263 30.2704C89.8696 30.2704 89.5843 30.3863 89.3703 30.6181C89.1563 30.85 89.0493 31.1828 89.0493 31.6168V34.2383H87.792V27.64H89.0493V30.2882C89.18 29.9553 89.394 29.6967 89.6913 29.5125C89.9944 29.3222 90.3422 29.2271 90.7345 29.2271ZM98.9364 34.2383L97.4651 31.7862H96.9123V34.2383H95.655V27.9431H98.0536C98.7848 27.9431 99.3406 28.1215 99.721 28.4781C100.107 28.8348 100.301 29.3044 100.301 29.887C100.301 30.3625 100.167 30.7608 99.8994 31.0818C99.6378 31.4028 99.2574 31.6168 98.758 31.7238L100.327 34.2383H98.9364ZM96.9123 30.9213H97.9466C98.6659 30.9213 99.0255 30.6033 99.0255 29.9672C99.0255 29.664 98.9364 29.4292 98.758 29.2628C98.5856 29.0904 98.3152 29.0042 97.9466 29.0042H96.9123V30.9213ZM105.795 31.5811C105.795 31.706 105.78 31.8486 105.751 32.0091H102.13C102.148 32.449 102.267 32.773 102.487 32.981C102.707 33.1891 102.98 33.2931 103.307 33.2931C103.599 33.2931 103.839 33.2218 104.03 33.0791C104.226 32.9364 104.351 32.7433 104.404 32.4995H105.733C105.667 32.8443 105.528 33.1534 105.314 33.4269C105.1 33.7003 104.823 33.9143 104.484 34.0689C104.152 34.2234 103.78 34.3007 103.37 34.3007C102.888 34.3007 102.46 34.1996 102.086 33.9975C101.711 33.7895 101.42 33.4952 101.212 33.1148C101.004 32.7343 100.9 32.2855 100.9 31.7684C100.9 31.2512 101.004 30.8024 101.212 30.422C101.42 30.0356 101.711 29.7413 102.086 29.5392C102.46 29.3371 102.888 29.236 103.37 29.236C103.857 29.236 104.282 29.3371 104.645 29.5392C105.013 29.7413 105.296 30.0207 105.492 30.3774C105.694 30.7281 105.795 31.1293 105.795 31.5811ZM104.529 31.4563C104.547 31.0521 104.44 30.7459 104.208 30.5379C103.982 30.3298 103.703 30.2258 103.37 30.2258C103.031 30.2258 102.746 30.3298 102.514 30.5379C102.282 30.7459 102.154 31.0521 102.13 31.4563H104.529ZM109.639 29.236C110.055 29.236 110.43 29.3371 110.763 29.5392C111.095 29.7413 111.354 30.0356 111.538 30.422C111.729 30.8024 111.824 31.2512 111.824 31.7684C111.824 32.2855 111.729 32.7373 111.538 33.1237C111.354 33.5041 111.095 33.7954 110.763 33.9975C110.43 34.1996 110.055 34.3007 109.639 34.3007C109.223 34.3007 108.866 34.2026 108.569 34.0064C108.278 33.8043 108.07 33.5368 107.945 33.2039V36.5923H106.688V29.2985H107.945V30.3239C108.07 29.991 108.278 29.7265 108.569 29.5303C108.866 29.3341 109.223 29.236 109.639 29.236ZM109.247 30.3328C108.866 30.3328 108.551 30.4636 108.302 30.7251C108.058 30.9807 107.936 31.3285 107.936 31.7684C107.936 32.2023 108.058 32.5501 108.302 32.8116C108.551 33.0672 108.866 33.195 109.247 33.195C109.639 33.195 109.954 33.0702 110.192 32.8205C110.43 32.5649 110.549 32.2142 110.549 31.7684C110.549 31.3225 110.43 30.9718 110.192 30.7162C109.954 30.4606 109.639 30.3328 109.247 30.3328ZM114.996 29.236C115.478 29.236 115.908 29.3371 116.289 29.5392C116.675 29.7413 116.978 30.0356 117.198 30.422C117.418 30.8024 117.528 31.2512 117.528 31.7684C117.528 32.2855 117.418 32.7343 117.198 33.1148C116.978 33.4952 116.675 33.7895 116.289 33.9975C115.908 34.1996 115.478 34.3007 114.996 34.3007C114.515 34.3007 114.081 34.1996 113.694 33.9975C113.314 33.7895 113.014 33.4952 112.794 33.1148C112.574 32.7343 112.464 32.2855 112.464 31.7684C112.464 31.2512 112.574 30.8024 112.794 30.422C113.014 30.0356 113.314 29.7413 113.694 29.5392C114.081 29.3371 114.515 29.236 114.996 29.236ZM114.996 30.3239C114.645 30.3239 114.348 30.4487 114.104 30.6984C113.861 30.9421 113.739 31.2988 113.739 31.7684C113.739 32.238 113.861 32.5976 114.104 32.8473C114.348 33.091 114.645 33.2129 114.996 33.2129C115.347 33.2129 115.644 33.091 115.888 32.8473C116.131 32.5976 116.253 32.238 116.253 31.7684C116.253 31.2988 116.131 30.9421 115.888 30.6984C115.644 30.4487 115.347 30.3239 114.996 30.3239ZM119.674 30.2436C119.858 29.9286 120.102 29.6819 120.405 29.5035C120.708 29.3193 121.047 29.2271 121.422 29.2271V30.5735H121.056C120.135 30.5735 119.674 31.0015 119.674 31.8575V34.2383H118.417V29.2985H119.674V30.2436ZM124.757 33.1594V34.2383H124.097C123.544 34.2383 123.119 34.1045 122.822 33.837C122.531 33.5695 122.385 33.1237 122.385 32.4995V30.3595H121.699V29.2985H122.385V28.0769H123.642V29.2985H124.748V30.3595H123.642V32.5174C123.642 32.7551 123.69 32.9216 123.785 33.0167C123.88 33.1118 124.041 33.1594 124.267 33.1594H124.757Z" fill="white"/>
<path d="M276.918 28.3653C276.918 28.8022 276.564 29.1564 276.127 29.1564C275.69 29.1564 275.336 28.8022 275.336 28.3653C275.336 27.9284 275.69 27.5742 276.127 27.5742C276.564 27.5742 276.918 27.9284 276.918 28.3653Z" fill="white"/>
<path d="M276.918 30.7385C276.918 31.1754 276.564 31.5296 276.127 31.5296C275.69 31.5296 275.336 31.1754 275.336 30.7385C275.336 30.3016 275.69 29.9474 276.127 29.9474C276.564 29.9474 276.918 30.3016 276.918 30.7385Z" fill="white"/>
<path d="M276.127 33.9028C276.564 33.9028 276.918 33.5486 276.918 33.1117C276.918 32.6748 276.564 32.3206 276.127 32.3206C275.69 32.3206 275.336 32.6748 275.336 33.1117C275.336 33.5486 275.69 33.9028 276.127 33.9028Z" fill="white"/>
<defs>
<filter id="filter0_d_6522_2997" x="0.858246" y="0.559438" width="309.287" height="195.94" filterUnits="userSpaceOnUse" color-interpolation-filters="sRGB">
<feFlood flood-opacity="0" result="BackgroundImageFix"/>
<feColorMatrix in="SourceAlpha" type="matrix" values="0 0 0 0 0 0 0 0 0 0 0 0 0 0 0 0 0 0 127 0" result="hardAlpha"/>
<feOffset dy="2.52932"/>
<feGaussianBlur stdDeviation="9.48494"/>
<feComposite in2="hardAlpha" operator="out"/>
<feColorMatrix type="matrix" values="0 0 0 0 0.101961 0 0 0 0 0.109804 0 0 0 0 0.129412 0 0 0 0.07 0"/>
<feBlend mode="normal" in2="BackgroundImageFix" result="effect1_dropShadow_6522_2997"/>
<feBlend mode="normal" in="SourceGraphic" in2="effect1_dropShadow_6522_2997" result="shape"/>
</filter>
</defs>
</svg>
