<svg width="341" height="217" viewBox="0 0 341 217" fill="none" xmlns="http://www.w3.org/2000/svg">
<g filter="url(#filter0_d_6522_8922)">
<rect x="21" y="19" width="298.826" height="174" rx="11.1418" fill="white"/>
</g>
<path d="M92.9565 171.664C92.9565 172.834 92.0077 173.787 90.8388 173.74C80.1201 173.311 69.7654 169.635 61.1604 163.174C51.9898 156.289 45.3021 146.612 42.1027 135.6C38.9033 124.588 39.3651 112.834 43.4187 102.107C47.4722 91.3794 54.8985 82.2577 64.581 76.113C74.2635 69.9683 85.6791 67.1326 97.1115 68.0324C108.544 68.9321 119.375 73.5186 127.977 81.1024C136.579 88.6861 142.487 98.8573 144.813 110.087C146.995 120.624 145.912 131.558 141.736 141.439C141.281 142.517 140.015 142.97 138.956 142.472C137.898 141.973 137.448 140.713 137.9 139.634C141.687 130.584 142.66 120.584 140.664 110.946C138.525 100.615 133.09 91.2573 125.176 84.2803C117.262 77.3032 107.297 73.0836 96.7791 72.2558C86.2613 71.4281 75.759 74.0369 66.851 79.69C57.9431 85.3431 51.111 93.7351 47.3817 103.604C43.6524 113.474 43.2276 124.287 46.171 134.418C49.1145 144.549 55.2671 153.452 63.704 159.786C71.5753 165.696 81.038 169.073 90.8388 169.5C92.0076 169.55 92.9565 170.494 92.9565 171.664Z" fill="#F0F1F3"/>
<path d="M92.9565 171.664C92.9565 172.834 92.0078 173.787 90.8388 173.74C84.0537 173.468 77.3771 171.894 71.1755 169.096C64.3297 166.006 58.2192 161.497 53.2498 155.865C48.2803 150.234 44.5656 143.61 42.3521 136.433C40.1386 129.256 39.4771 121.69 40.4113 114.238C41.3456 106.786 43.8544 99.6176 47.7711 93.2092C51.6877 86.8008 56.9228 81.2989 63.1286 77.0685C69.3344 72.8382 76.3691 69.9763 83.7656 68.6728C90.4661 67.492 97.3247 67.6145 103.967 69.0264C105.111 69.2696 105.795 70.4271 105.507 71.5608C105.218 72.6945 104.065 73.3746 102.92 73.1354C96.8611 71.8695 90.6096 71.7685 84.5009 72.845C77.6961 74.0442 71.2242 76.6772 65.5148 80.5691C59.8055 84.461 54.9892 89.5228 51.3859 95.4185C47.7825 101.314 45.4745 107.909 44.615 114.765C43.7554 121.621 44.364 128.581 46.4004 135.184C48.4368 141.787 51.8544 147.881 56.4263 153.062C60.9982 158.243 66.6198 162.392 72.918 165.234C78.5719 167.785 84.6548 169.231 90.8389 169.5C92.0077 169.55 92.9565 170.494 92.9565 171.664Z" fill="#2ABA00"/>
<path d="M92.9603 162.506C92.9603 163.718 91.9772 164.706 90.7671 164.645C82.0422 164.209 73.6273 161.175 66.6149 155.91C59.0164 150.205 53.4752 142.188 50.8243 133.063C48.1733 123.939 48.556 114.2 51.9146 105.312C55.2733 96.4233 61.4265 88.8653 69.4491 83.774C77.4718 78.6826 86.9304 76.3331 96.4029 77.0786C105.875 77.8241 114.85 81.6244 121.978 87.9081C129.105 94.1917 134 102.619 135.927 111.924C137.705 120.511 136.867 129.416 133.547 137.496C133.086 138.617 131.774 139.086 130.677 138.57C129.581 138.054 129.117 136.749 129.571 135.626C132.49 128.407 133.216 120.47 131.63 112.813C129.896 104.439 125.49 96.8547 119.076 91.1994C112.661 85.5441 104.584 82.1239 96.0587 81.4529C87.5334 80.782 79.0207 82.8965 71.8003 87.4787C64.5799 92.0609 59.042 98.8631 56.0192 106.863C52.9964 114.862 52.652 123.627 55.0379 131.839C57.4237 140.051 62.4108 147.267 69.2494 152.401C75.5019 157.096 82.9933 159.819 90.7674 160.251C91.9771 160.318 92.9603 161.294 92.9603 162.506Z" fill="#F0F1F3"/>
<path d="M92.9603 162.506C92.9603 163.718 91.9772 164.706 90.7671 164.645C80.9586 164.154 71.5735 160.384 64.1369 153.905C56.1477 146.945 50.9471 137.328 49.4956 126.832C48.0442 116.336 50.44 105.669 56.2405 96.8017C61.6397 88.5477 69.6494 82.3719 78.9567 79.2379C80.105 78.8512 81.3193 79.5354 81.6481 80.7016C81.9769 81.8678 81.2954 83.0738 80.1493 83.4669C71.8613 86.3091 64.7315 91.8366 59.9125 99.2037C54.692 107.184 52.5358 116.784 53.8421 126.231C55.1484 135.678 59.8289 144.332 67.0192 150.597C73.6568 156.38 82.019 159.765 90.7673 160.251C91.9771 160.318 92.9603 161.294 92.9603 162.506Z" fill="#FE812D"/>
<path d="M92.9641 153.363C92.9641 154.613 91.9502 155.633 90.7035 155.552C83.9703 155.114 77.4913 152.725 72.0694 148.654C66.0431 144.13 61.6483 137.771 59.5458 130.534C57.4434 123.298 57.7468 115.574 60.4106 108.524C63.0744 101.475 67.9545 95.4807 74.3173 91.4428C80.6801 87.4048 88.1817 85.5414 95.6944 86.1327C103.207 86.7239 110.325 89.7379 115.978 94.7215C121.631 99.7051 125.513 106.389 127.041 113.768C128.416 120.408 127.818 127.287 125.348 133.566C124.891 134.728 123.536 135.211 122.405 134.679C121.275 134.147 120.798 132.802 121.244 131.635C123.304 126.247 123.787 120.365 122.611 114.686C121.281 108.266 117.904 102.451 112.986 98.115C108.068 93.7793 101.876 91.1571 95.3395 90.6427C88.8034 90.1283 82.277 91.7495 76.7414 95.2625C71.2057 98.7755 66.96 103.991 64.6426 110.124C62.3251 116.257 62.0611 122.976 63.8902 129.272C65.7193 135.568 69.5428 141.1 74.7857 145.037C79.424 148.519 84.9514 150.586 90.704 151.017C91.9498 151.11 92.9641 152.114 92.9641 153.363Z" fill="#F0F1F3"/>
<path d="M92.9641 153.363C92.9641 154.613 91.9502 155.633 90.7035 155.552C84.6158 155.156 78.7247 153.165 73.6302 149.761C67.9074 145.937 63.447 140.502 60.8131 134.143C58.1791 127.784 57.49 120.787 58.8327 114.036C60.0281 108.027 62.7858 102.453 66.8103 97.8685C67.6344 96.9296 69.0729 96.9342 69.9562 97.8175C70.8396 98.7009 70.8324 100.128 70.0174 101.075C66.6208 105.021 64.2905 109.787 63.2698 114.919C62.1016 120.792 62.7012 126.879 64.9927 132.412C67.2842 137.944 71.1648 142.672 76.1436 145.999C80.4939 148.906 85.512 150.628 90.7041 151.017C91.9499 151.11 92.9641 152.114 92.9641 153.363Z" fill="#A45BF1"/>
<path d="M102.033 157.463V161.648C102.033 162.22 101.873 162.665 101.554 162.985C101.24 163.298 100.803 163.455 100.243 163.455C99.6377 163.455 99.1587 163.282 98.8057 162.934C98.4528 162.587 98.2763 162.091 98.2763 161.447H99.4444C99.4444 161.749 99.5061 161.982 99.6293 162.144C99.7582 162.307 99.9459 162.388 100.192 162.388C100.416 162.388 100.582 162.324 100.688 162.195C100.795 162.06 100.848 161.878 100.848 161.648V157.463H102.033ZM105.221 158.682C105.675 158.682 106.081 158.777 106.44 158.968C106.804 159.158 107.09 159.435 107.297 159.8C107.505 160.158 107.608 160.581 107.608 161.069C107.608 161.556 107.505 161.979 107.297 162.338C107.09 162.696 106.804 162.973 106.44 163.17C106.081 163.36 105.675 163.455 105.221 163.455C104.768 163.455 104.359 163.36 103.994 163.17C103.636 162.973 103.353 162.696 103.146 162.338C102.938 161.979 102.835 161.556 102.835 161.069C102.835 160.581 102.938 160.158 103.146 159.8C103.353 159.435 103.636 159.158 103.994 158.968C104.359 158.777 104.768 158.682 105.221 158.682ZM105.221 159.707C104.891 159.707 104.611 159.825 104.381 160.06C104.151 160.29 104.037 160.626 104.037 161.069C104.037 161.511 104.151 161.85 104.381 162.085C104.611 162.315 104.891 162.43 105.221 162.43C105.552 162.43 105.832 162.315 106.062 162.085C106.292 161.85 106.406 161.511 106.406 161.069C106.406 160.626 106.292 160.29 106.062 160.06C105.832 159.825 105.552 159.707 105.221 159.707ZM111.219 158.673C111.757 158.673 112.185 158.85 112.505 159.203C112.824 159.556 112.984 160.052 112.984 160.69V163.396H111.807V160.825C111.807 160.455 111.712 160.169 111.522 159.968C111.331 159.76 111.071 159.657 110.74 159.657C110.404 159.657 110.135 159.766 109.933 159.984C109.731 160.203 109.631 160.517 109.631 160.926V163.396H108.446V157.178H109.631V159.674C109.754 159.36 109.956 159.116 110.236 158.942C110.521 158.763 110.849 158.673 111.219 158.673ZM116.8 158.673C117.338 158.673 117.766 158.85 118.086 159.203C118.405 159.556 118.565 160.052 118.565 160.69V163.396H117.388V160.825C117.388 160.455 117.293 160.169 117.102 159.968C116.912 159.76 116.651 159.657 116.321 159.657C115.985 159.657 115.716 159.766 115.514 159.984C115.312 160.203 115.211 160.517 115.211 160.926V163.396H114.026V158.741H115.211V159.674C115.335 159.36 115.536 159.116 115.817 158.942C116.102 158.763 116.43 158.673 116.8 158.673ZM126.656 160.421C126.656 161.01 126.533 161.528 126.287 161.976C126.04 162.424 125.681 162.775 125.211 163.027C124.746 163.273 124.191 163.396 123.547 163.396H121.437V157.463H123.547C124.191 157.463 124.746 157.587 125.211 157.833C125.681 158.074 126.04 158.419 126.287 158.867C126.533 159.309 126.656 159.828 126.656 160.421ZM123.446 162.338C124.085 162.338 124.578 162.169 124.925 161.833C125.278 161.497 125.455 161.027 125.455 160.421C125.455 159.811 125.278 159.337 124.925 159.001C124.578 158.665 124.085 158.497 123.446 158.497H122.622V162.338H123.446ZM131.998 158.741V163.396H130.813V162.455C130.689 162.769 130.485 163.016 130.199 163.195C129.919 163.368 129.594 163.455 129.224 163.455C128.686 163.455 128.258 163.279 127.938 162.926C127.619 162.573 127.459 162.08 127.459 161.447V158.741H128.636V161.312C128.636 161.682 128.731 161.971 128.922 162.178C129.112 162.38 129.37 162.48 129.695 162.48C130.037 162.48 130.308 162.371 130.51 162.153C130.712 161.934 130.813 161.62 130.813 161.211V158.741H131.998ZM135.378 157.934C135.03 157.911 134.787 157.962 134.647 158.085C134.506 158.208 134.436 158.424 134.436 158.732V158.741H135.378V159.741H134.436V163.396H133.251V159.741H132.655V158.741H133.251V158.631C133.251 158.077 133.408 157.651 133.722 157.354C134.041 157.051 134.512 156.9 135.134 156.9C135.24 156.9 135.322 156.903 135.378 156.909V157.934ZM137.272 159.631C137.446 159.335 137.675 159.102 137.961 158.934C138.247 158.76 138.566 158.673 138.919 158.673V159.942H138.575C137.706 159.942 137.272 160.346 137.272 161.153V163.396H136.087V158.741H137.272V159.631ZM143.953 160.892C143.953 161.01 143.939 161.144 143.911 161.295H140.499C140.516 161.71 140.628 162.015 140.836 162.212C141.043 162.408 141.301 162.506 141.609 162.506C141.883 162.506 142.11 162.438 142.289 162.304C142.474 162.169 142.592 161.987 142.642 161.758H143.895C143.833 162.083 143.701 162.374 143.5 162.632C143.298 162.889 143.037 163.091 142.718 163.237C142.404 163.382 142.054 163.455 141.668 163.455C141.214 163.455 140.81 163.36 140.457 163.17C140.104 162.973 139.83 162.696 139.634 162.338C139.438 161.979 139.34 161.556 139.34 161.069C139.34 160.581 139.438 160.158 139.634 159.8C139.83 159.435 140.104 159.158 140.457 158.968C140.81 158.777 141.214 158.682 141.668 158.682C142.127 158.682 142.528 158.777 142.869 158.968C143.217 159.158 143.483 159.421 143.668 159.758C143.858 160.088 143.953 160.466 143.953 160.892ZM142.76 160.774C142.777 160.393 142.676 160.105 142.458 159.909C142.245 159.713 141.981 159.615 141.668 159.615C141.348 159.615 141.079 159.713 140.861 159.909C140.642 160.105 140.522 160.393 140.499 160.774H142.76ZM146.4 158.682C146.966 158.682 147.42 158.825 147.761 159.11C148.103 159.396 148.316 159.777 148.4 160.253H147.291C147.246 160.029 147.145 159.85 146.988 159.716C146.831 159.581 146.627 159.514 146.375 159.514C146.173 159.514 146.016 159.561 145.904 159.657C145.792 159.752 145.736 159.881 145.736 160.043C145.736 160.172 145.781 160.276 145.87 160.354C145.96 160.433 146.072 160.494 146.207 160.539C146.341 160.584 146.534 160.637 146.786 160.699C147.139 160.777 147.425 160.861 147.644 160.951C147.868 161.035 148.058 161.172 148.215 161.363C148.378 161.548 148.459 161.8 148.459 162.119C148.459 162.517 148.302 162.839 147.988 163.086C147.68 163.332 147.263 163.455 146.736 163.455C146.131 163.455 145.646 163.321 145.282 163.052C144.918 162.777 144.697 162.388 144.618 161.884H145.753C145.781 162.113 145.882 162.296 146.055 162.43C146.229 162.559 146.456 162.623 146.736 162.623C146.938 162.623 147.092 162.576 147.198 162.48C147.305 162.38 147.358 162.251 147.358 162.094C147.358 161.959 147.31 161.85 147.215 161.766C147.125 161.682 147.011 161.618 146.87 161.573C146.736 161.528 146.543 161.475 146.291 161.413C145.943 161.335 145.66 161.256 145.442 161.178C145.229 161.094 145.044 160.962 144.887 160.783C144.736 160.604 144.66 160.357 144.66 160.043C144.66 159.64 144.814 159.312 145.122 159.06C145.431 158.808 145.856 158.682 146.4 158.682Z" fill="#003366"/>
<path d="M98.7916 167.805L99.996 171.188L101.217 167.805H101.772L100.321 171.754H99.6767L98.2314 167.805H98.7916ZM103.71 168.639C104.005 168.639 104.268 168.703 104.499 168.83C104.735 168.957 104.918 169.14 105.048 169.379C105.183 169.618 105.25 169.898 105.25 170.219C105.25 170.54 105.183 170.82 105.048 171.059C104.918 171.295 104.735 171.476 104.499 171.603C104.268 171.73 104.005 171.793 103.71 171.793C103.415 171.793 103.149 171.73 102.914 171.603C102.683 171.476 102.5 171.295 102.365 171.059C102.231 170.82 102.163 170.54 102.163 170.219C102.163 169.898 102.231 169.618 102.365 169.379C102.5 169.14 102.683 168.957 102.914 168.83C103.149 168.703 103.415 168.639 103.71 168.639ZM103.71 169.087C103.527 169.087 103.357 169.129 103.2 169.211C103.047 169.293 102.922 169.42 102.824 169.592C102.731 169.76 102.684 169.969 102.684 170.219C102.684 170.465 102.731 170.675 102.824 170.846C102.922 171.014 103.047 171.14 103.2 171.222C103.357 171.304 103.527 171.345 103.71 171.345C103.893 171.345 104.061 171.304 104.214 171.222C104.371 171.14 104.496 171.014 104.589 170.846C104.686 170.675 104.735 170.465 104.735 170.219C104.735 169.969 104.686 169.76 104.589 169.592C104.496 169.42 104.371 169.293 104.214 169.211C104.061 169.129 103.893 169.087 103.71 169.087ZM106.452 167.609V171.754H105.942V167.609H106.452ZM108.493 171.211L109.445 168.679H109.994L108.79 171.754H108.185L106.98 168.679H107.529L108.493 171.211ZM111.917 168.639C112.212 168.639 112.476 168.703 112.707 168.83C112.942 168.957 113.125 169.14 113.256 169.379C113.391 169.618 113.458 169.898 113.458 170.219C113.458 170.54 113.391 170.82 113.256 171.059C113.125 171.295 112.942 171.476 112.707 171.603C112.476 171.73 112.212 171.793 111.917 171.793C111.622 171.793 111.357 171.73 111.122 171.603C110.89 171.476 110.707 171.295 110.573 171.059C110.438 170.82 110.371 170.54 110.371 170.219C110.371 169.898 110.438 169.618 110.573 169.379C110.707 169.14 110.89 168.957 111.122 168.83C111.357 168.703 111.622 168.639 111.917 168.639ZM111.917 169.087C111.734 169.087 111.564 169.129 111.407 169.211C111.254 169.293 111.129 169.42 111.032 169.592C110.939 169.76 110.892 169.969 110.892 170.219C110.892 170.465 110.939 170.675 111.032 170.846C111.129 171.014 111.254 171.14 111.407 171.222C111.564 171.304 111.734 171.345 111.917 171.345C112.1 171.345 112.268 171.304 112.421 171.222C112.578 171.14 112.703 171.014 112.797 170.846C112.894 170.675 112.942 170.465 112.942 170.219C112.942 169.969 112.894 169.76 112.797 169.592C112.703 169.42 112.578 169.293 112.421 169.211C112.268 169.129 112.1 169.087 111.917 169.087ZM115.388 171.362C116.023 170.936 116.531 170.514 116.912 170.096C117.293 169.674 117.483 169.282 117.483 168.919C117.483 168.695 117.426 168.516 117.31 168.382C117.198 168.243 117.015 168.174 116.761 168.174C116.499 168.174 116.301 168.258 116.167 168.426C116.033 168.591 115.958 168.819 115.943 169.11H115.439C115.465 168.669 115.601 168.331 115.848 168.096C116.094 167.857 116.412 167.737 116.8 167.737C117.17 167.737 117.463 167.836 117.68 168.034C117.896 168.232 118.004 168.512 118.004 168.875C118.004 169.173 117.907 169.478 117.713 169.788C117.523 170.094 117.282 170.38 116.99 170.645C116.703 170.906 116.406 171.128 116.1 171.311H118.105V171.731H115.388V171.362ZM118.992 171.239C118.783 170.884 118.679 170.389 118.679 169.754C118.679 169.123 118.783 168.632 118.992 168.281C119.202 167.926 119.564 167.749 120.079 167.749C120.595 167.749 120.957 167.926 121.166 168.281C121.379 168.636 121.485 169.127 121.485 169.754C121.485 170.389 121.379 170.884 121.166 171.239C120.957 171.593 120.595 171.771 120.079 171.771C119.564 171.771 119.202 171.593 118.992 171.239ZM120.908 170.572C120.957 170.352 120.981 170.079 120.981 169.754C120.981 169.433 120.957 169.164 120.908 168.947C120.863 168.731 120.776 168.559 120.645 168.432C120.514 168.301 120.326 168.236 120.079 168.236C119.836 168.236 119.65 168.301 119.519 168.432C119.388 168.559 119.299 168.731 119.25 168.947C119.205 169.164 119.183 169.433 119.183 169.754C119.183 170.079 119.205 170.352 119.25 170.572C119.299 170.789 119.388 170.962 119.519 171.093C119.65 171.224 119.836 171.289 120.079 171.289C120.326 171.289 120.514 171.224 120.645 171.093C120.776 170.962 120.863 170.789 120.908 170.572ZM121.901 168.281V167.805H123.033V171.754H122.495V168.281H121.901ZM124.361 170.645C124.395 170.88 124.477 171.061 124.608 171.188C124.738 171.315 124.917 171.379 125.145 171.379C125.459 171.379 125.696 171.257 125.857 171.014C126.017 170.772 126.098 170.387 126.098 169.861C126.098 169.76 126.096 169.683 126.092 169.631C126.04 169.855 125.913 170.034 125.711 170.169C125.509 170.303 125.272 170.37 125 170.37C124.608 170.37 124.299 170.253 124.075 170.017C123.851 169.782 123.739 169.453 123.739 169.031C123.739 168.785 123.788 168.561 123.885 168.359C123.982 168.158 124.129 167.999 124.327 167.883C124.529 167.764 124.777 167.704 125.072 167.704C125.64 167.704 126.028 167.879 126.238 168.23C126.45 168.578 126.557 169.056 126.557 169.664C126.557 170.359 126.449 170.889 126.232 171.255C126.015 171.618 125.653 171.799 125.145 171.799C124.768 171.799 124.471 171.692 124.255 171.479C124.042 171.263 123.917 170.985 123.879 170.645H124.361ZM126.042 169.11C126.042 168.841 125.961 168.613 125.801 168.426C125.644 168.24 125.407 168.146 125.089 168.146C124.828 168.146 124.619 168.225 124.462 168.382C124.305 168.538 124.227 168.757 124.227 169.037C124.227 169.336 124.305 169.565 124.462 169.726C124.619 169.887 124.833 169.967 125.106 169.967C125.263 169.967 125.412 169.935 125.554 169.872C125.7 169.808 125.817 169.711 125.907 169.58C125.997 169.45 126.042 169.293 126.042 169.11ZM131.22 170.729C131.22 170.916 131.175 171.089 131.086 171.25C130.996 171.41 130.86 171.541 130.677 171.642C130.494 171.743 130.268 171.793 129.999 171.793C129.738 171.793 129.504 171.746 129.299 171.653C129.097 171.556 128.935 171.425 128.811 171.261C128.692 171.093 128.623 170.902 128.604 170.69H129.148C129.159 170.802 129.196 170.912 129.26 171.02C129.327 171.125 129.42 171.212 129.54 171.283C129.663 171.351 129.81 171.384 129.982 171.384C130.206 171.384 130.378 171.324 130.498 171.205C130.617 171.085 130.677 170.932 130.677 170.746C130.677 170.585 130.634 170.454 130.548 170.353C130.466 170.253 130.363 170.174 130.24 170.118C130.117 170.058 129.949 169.995 129.736 169.928C129.486 169.846 129.284 169.769 129.131 169.698C128.981 169.623 128.853 169.513 128.744 169.368C128.64 169.222 128.587 169.03 128.587 168.791C128.587 168.585 128.636 168.404 128.733 168.247C128.834 168.09 128.976 167.969 129.159 167.883C129.346 167.797 129.564 167.754 129.814 167.754C130.203 167.754 130.511 167.849 130.738 168.04C130.966 168.227 131.099 168.466 131.136 168.757H130.587C130.557 168.6 130.477 168.462 130.346 168.342C130.216 168.223 130.038 168.163 129.814 168.163C129.609 168.163 129.444 168.217 129.321 168.326C129.198 168.43 129.136 168.58 129.136 168.774C129.136 168.927 129.176 169.052 129.254 169.149C129.336 169.242 129.437 169.317 129.557 169.373C129.676 169.425 129.84 169.485 130.049 169.552C130.303 169.635 130.507 169.713 130.66 169.788C130.817 169.862 130.949 169.976 131.058 170.129C131.166 170.279 131.22 170.479 131.22 170.729ZM134.074 168.858C134.044 168.623 133.963 168.441 133.833 168.314C133.706 168.184 133.528 168.118 133.301 168.118C132.983 168.118 132.742 168.242 132.578 168.488C132.417 168.735 132.337 169.125 132.337 169.659L132.343 169.866C132.399 169.642 132.527 169.465 132.729 169.334C132.931 169.199 133.168 169.132 133.441 169.132C133.833 169.132 134.139 169.25 134.359 169.485C134.583 169.72 134.695 170.049 134.695 170.471C134.695 170.718 134.647 170.942 134.55 171.143C134.453 171.341 134.303 171.5 134.102 171.619C133.904 171.735 133.657 171.793 133.362 171.793C132.798 171.793 132.41 171.616 132.197 171.261C131.988 170.906 131.883 170.424 131.883 169.816C131.883 169.114 131.995 168.587 132.219 168.236C132.447 167.881 132.817 167.704 133.329 167.704C133.706 167.704 133.995 167.81 134.197 168.023C134.402 168.236 134.524 168.514 134.561 168.858H134.074ZM132.399 170.387C132.399 170.66 132.477 170.889 132.634 171.076C132.794 171.259 133.033 171.351 133.351 171.351C133.612 171.351 133.821 171.274 133.978 171.121C134.135 170.964 134.214 170.746 134.214 170.465C134.214 170.163 134.135 169.933 133.978 169.776C133.821 169.616 133.605 169.536 133.329 169.536C133.172 169.536 133.022 169.567 132.88 169.631C132.738 169.694 132.623 169.791 132.533 169.922C132.443 170.049 132.399 170.204 132.399 170.387ZM135.665 171.239C135.456 170.884 135.351 170.389 135.351 169.754C135.351 169.123 135.456 168.632 135.665 168.281C135.874 167.926 136.236 167.749 136.752 167.749C137.267 167.749 137.629 167.926 137.838 168.281C138.051 168.636 138.158 169.127 138.158 169.754C138.158 170.389 138.051 170.884 137.838 171.239C137.629 171.593 137.267 171.771 136.752 171.771C136.236 171.771 135.874 171.593 135.665 171.239ZM137.581 170.572C137.629 170.352 137.654 170.079 137.654 169.754C137.654 169.433 137.629 169.164 137.581 168.947C137.536 168.731 137.448 168.559 137.318 168.432C137.187 168.301 136.998 168.236 136.752 168.236C136.509 168.236 136.322 168.301 136.192 168.432C136.061 168.559 135.971 168.731 135.923 168.947C135.878 169.164 135.855 169.433 135.855 169.754C135.855 170.079 135.878 170.352 135.923 170.572C135.971 170.789 136.061 170.962 136.192 171.093C136.322 171.224 136.509 171.289 136.752 171.289C136.998 171.289 137.187 171.224 137.318 171.093C137.448 170.962 137.536 170.789 137.581 170.572Z" fill="#86878A"/>
<rect x="164.824" y="79.9414" width="9.31852" height="9.31852" rx="4.65926" fill="#2ABA00"/>
<path d="M186.372 84.7395C186.372 85.417 186.232 86.009 185.954 86.5155C185.681 87.0157 185.279 87.4051 184.748 87.6837C184.222 87.9623 183.592 88.1016 182.858 88.1016H180.616V81.3965H182.858C183.592 81.3965 184.222 81.5358 184.748 81.8144C185.279 82.0866 185.681 82.4728 185.954 82.973C186.232 83.4732 186.372 84.062 186.372 84.7395ZM182.772 87.1233C183.576 87.1233 184.194 86.9144 184.624 86.4965C185.055 86.0786 185.27 85.493 185.27 84.7395C185.27 83.9861 185.055 83.4004 184.624 82.9825C184.194 82.5646 183.576 82.3557 182.772 82.3557H181.699V87.1233H182.772ZM188.544 83.8943C188.721 83.5524 188.974 83.2833 189.303 83.087C189.633 82.8844 190.013 82.7831 190.443 82.7831V83.9607H190.12C189.645 83.9607 189.262 84.0779 188.971 84.3121C188.686 84.5401 188.544 84.92 188.544 85.4518V88.1016H187.461V82.8686H188.544V83.8943ZM191.102 81.349C191.102 81.1654 191.166 81.0134 191.292 80.8931C191.419 80.7728 191.587 80.7127 191.796 80.7127C192.005 80.7127 192.172 80.7728 192.299 80.8931C192.432 81.0134 192.498 81.1654 192.498 81.349C192.498 81.5326 192.432 81.6814 192.299 81.7954C192.172 81.9093 192.005 81.9663 191.796 81.9663C191.587 81.9663 191.419 81.9093 191.292 81.7954C191.166 81.6814 191.102 81.5326 191.102 81.349ZM192.337 82.8686V88.1016H191.254V82.8686H192.337ZM195.794 86.9809L197.275 82.8686H198.434L196.439 88.1016H195.129L193.134 82.8686H194.293L195.794 86.9809ZM204.093 85.2334C204.093 85.4107 204.081 85.5658 204.055 85.6987H200.028C200.047 86.2369 200.196 86.6358 200.475 86.8954C200.753 87.155 201.098 87.2848 201.51 87.2848C201.871 87.2848 202.175 87.193 202.422 87.0094C202.675 86.8258 202.83 86.582 202.887 86.2781H204.046C203.976 86.6453 203.83 86.9714 203.609 87.2563C203.387 87.5412 203.099 87.766 202.745 87.9306C202.39 88.0889 201.994 88.168 201.557 88.168C201.051 88.168 200.601 88.0604 200.209 87.8451C199.823 87.6299 199.519 87.3196 199.297 86.9144C199.075 86.5092 198.965 86.0312 198.965 85.4803C198.965 84.9358 199.075 84.4609 199.297 84.0557C199.519 83.6505 199.823 83.3403 200.209 83.125C200.601 82.9097 201.051 82.8021 201.557 82.8021C202.07 82.8021 202.517 82.9097 202.897 83.125C203.283 83.3339 203.577 83.6252 203.78 83.9987C203.989 84.366 204.093 84.7775 204.093 85.2334ZM203.001 85.2049C203.014 84.863 202.954 84.5781 202.821 84.3501C202.694 84.1159 202.517 83.9449 202.289 83.8373C202.067 83.7233 201.823 83.6663 201.557 83.6663C201.133 83.6663 200.779 83.7961 200.494 84.0557C200.209 84.3153 200.054 84.6984 200.028 85.2049H203.001ZM208.064 82.7831C208.672 82.7831 209.159 82.9794 209.526 83.3719C209.894 83.7645 210.077 84.3248 210.077 85.0529V88.1016H208.994V85.1669C208.994 84.6984 208.874 84.3375 208.634 84.0842C208.393 83.8246 208.064 83.6948 207.646 83.6948C207.215 83.6948 206.87 83.8341 206.611 84.1127C206.351 84.385 206.221 84.787 206.221 85.3189V88.1016H205.139V82.8686H206.221V84.0177C206.361 83.6252 206.595 83.3213 206.924 83.106C207.253 82.8907 207.633 82.7831 208.064 82.7831Z" fill="#2ABA00"/>
<path d="M236.44 87.2183C236.06 86.6105 235.871 85.7716 235.871 84.7015C235.871 83.6378 236.06 82.8052 236.44 82.2037C236.82 81.6022 237.453 81.3015 238.34 81.3015C239.226 81.3015 239.859 81.6054 240.239 82.2132C240.619 82.8147 240.809 83.6442 240.809 84.7015C240.809 85.7652 240.619 86.601 240.239 87.2088C239.859 87.8166 239.226 88.1206 238.34 88.1206C237.453 88.1206 236.82 87.8198 236.44 87.2183ZM239.441 86.4775C239.631 86.066 239.726 85.474 239.726 84.7015C239.726 83.9417 239.631 83.3592 239.441 82.954C239.252 82.5425 238.884 82.3367 238.34 82.3367C237.789 82.3367 237.419 82.5393 237.229 82.9445C237.039 83.3498 236.944 83.9354 236.944 84.7015C236.944 85.474 237.039 86.066 237.229 86.4775C237.419 86.8891 237.789 87.0948 238.34 87.0948C238.884 87.0948 239.252 86.8891 239.441 86.4775ZM241.674 87.2563C242.7 86.5535 243.519 85.8665 244.134 85.1954C244.754 84.5179 245.064 83.8911 245.064 83.3149C245.064 82.973 244.979 82.7008 244.808 82.4982C244.643 82.2956 244.374 82.1942 244.001 82.1942C243.614 82.1942 243.323 82.3209 243.127 82.5741C242.931 82.8211 242.82 83.1756 242.794 83.6378H241.74C241.785 82.8717 242.019 82.2861 242.443 81.8808C242.874 81.4756 243.421 81.273 244.086 81.273C244.738 81.273 245.248 81.4471 245.615 81.7954C245.989 82.1373 246.176 82.6121 246.176 83.22C246.176 83.7075 246.024 84.2013 245.72 84.7015C245.422 85.2017 245.042 85.6639 244.58 86.0881C244.118 86.506 243.64 86.8669 243.146 87.1708H246.327V88.0541H241.674V87.2563ZM254.892 81.3965V88.1016H253.8V85.0909H250.646V88.1016H249.564V81.3965H250.646V84.2077H253.8V81.3965H254.892ZM257.287 83.8943C257.464 83.5524 257.718 83.2833 258.047 83.087C258.376 82.8844 258.756 82.7831 259.187 82.7831V83.9607H258.864C258.389 83.9607 258.006 84.0779 257.715 84.3121C257.43 84.5401 257.287 84.92 257.287 85.4518V88.1016H256.204V82.8686H257.287V83.8943ZM261.717 82.8021C262.331 82.8021 262.822 82.9604 263.189 83.2769C263.562 83.5872 263.79 84.0051 263.873 84.5306H262.847C262.803 84.2457 262.679 84.0177 262.477 83.8468C262.28 83.6695 262.018 83.5809 261.688 83.5809C261.416 83.5809 261.204 83.6473 261.052 83.7803C260.906 83.9069 260.834 84.081 260.834 84.3026C260.834 84.4673 260.887 84.6002 260.995 84.7015C261.103 84.8028 261.236 84.882 261.394 84.939C261.559 84.9959 261.79 85.0593 262.087 85.1289C262.48 85.2176 262.796 85.3094 263.037 85.4043C263.284 85.4993 263.493 85.6513 263.664 85.8602C263.841 86.0628 263.93 86.3414 263.93 86.696C263.93 87.1328 263.762 87.4874 263.426 87.7597C263.097 88.0319 262.651 88.168 262.087 88.168C261.435 88.168 260.906 88.0161 260.501 87.7122C260.102 87.4083 259.862 86.984 259.779 86.4395H260.834C260.865 86.7245 260.992 86.9556 261.213 87.1328C261.435 87.3101 261.726 87.3988 262.087 87.3988C262.347 87.3988 262.549 87.3323 262.695 87.1993C262.847 87.06 262.923 86.8859 262.923 86.677C262.923 86.4934 262.866 86.3477 262.752 86.2401C262.638 86.1325 262.496 86.0501 262.325 85.9932C262.154 85.9298 261.919 85.8665 261.622 85.8032C261.242 85.7146 260.932 85.6259 260.691 85.5373C260.457 85.4487 260.254 85.3062 260.083 85.1099C259.919 84.9073 259.836 84.6351 259.836 84.2931C259.836 83.8499 260.001 83.4922 260.33 83.22C260.666 82.9414 261.128 82.8021 261.717 82.8021ZM269.435 81.1875C269.878 81.1875 270.258 81.2667 270.575 81.425C270.891 81.5769 271.129 81.789 271.287 82.0613C271.452 82.3335 271.534 82.6375 271.534 82.973C271.534 83.3972 271.414 83.7518 271.173 84.0367C270.939 84.3153 270.607 84.4831 270.176 84.5401V84.5876C270.638 84.7205 270.999 84.92 271.259 85.1859C271.525 85.4455 271.658 85.8064 271.658 86.2686C271.658 86.8321 271.471 87.2911 271.097 87.6457C270.724 87.9939 270.189 88.168 269.492 88.168C268.777 88.168 268.201 87.9876 267.764 87.6267C267.327 87.2595 267.077 86.7181 267.013 86.0027H268.087C268.125 86.3826 268.261 86.6865 268.495 86.9144C268.729 87.136 269.046 87.2468 269.445 87.2468C269.818 87.2468 270.103 87.1487 270.299 86.9524C270.502 86.7561 270.603 86.5029 270.603 86.1926C270.603 85.819 270.458 85.5341 270.166 85.3379C269.882 85.1416 269.467 85.0434 268.922 85.0434H268.666V84.1507H268.922C269.954 84.1634 270.47 83.812 270.47 83.0965C270.47 82.7862 270.375 82.5425 270.185 82.3652C269.996 82.1879 269.736 82.0993 269.407 82.0993C269.077 82.0993 268.802 82.2006 268.58 82.4032C268.359 82.5995 268.226 82.8875 268.182 83.2674H267.118C267.162 82.609 267.384 82.0993 267.783 81.7384C268.182 81.3711 268.732 81.1875 269.435 81.1875ZM273.289 87.2183C272.909 86.6105 272.719 85.7716 272.719 84.7015C272.719 83.6378 272.909 82.8052 273.289 82.2037C273.669 81.6022 274.302 81.3015 275.188 81.3015C276.075 81.3015 276.708 81.6054 277.088 82.2132C277.468 82.8147 277.657 83.6442 277.657 84.7015C277.657 85.7652 277.468 86.601 277.088 87.2088C276.708 87.8166 276.075 88.1206 275.188 88.1206C274.302 88.1206 273.669 87.8198 273.289 87.2183ZM276.29 86.4775C276.48 86.066 276.575 85.474 276.575 84.7015C276.575 83.9417 276.48 83.3592 276.29 82.954C276.1 82.5425 275.733 82.3367 275.188 82.3367C274.637 82.3367 274.267 82.5393 274.077 82.9445C273.887 83.3498 273.792 83.9354 273.792 84.7015C273.792 85.474 273.887 86.066 274.077 86.4775C274.267 86.8891 274.637 87.0948 275.188 87.0948C275.733 87.0948 276.1 86.8891 276.29 86.4775ZM287.976 81.5009V88.1016H286.883V83.1535L284.974 88.1016H284.025L282.106 83.1535V88.1016H281.024V81.5009H282.334L284.519 86.7719L286.665 81.5009H287.976ZM289.126 81.349C289.126 81.1654 289.189 81.0134 289.316 80.8931C289.443 80.7728 289.61 80.7127 289.819 80.7127C290.028 80.7127 290.196 80.7728 290.323 80.8931C290.456 81.0134 290.522 81.1654 290.522 81.349C290.522 81.5326 290.456 81.6814 290.323 81.7954C290.196 81.9093 290.028 81.9663 289.819 81.9663C289.61 81.9663 289.443 81.9093 289.316 81.7954C289.189 81.6814 289.126 81.5326 289.126 81.349ZM290.361 82.8686V88.1016H289.278V82.8686H290.361ZM294.596 82.7831C295.204 82.7831 295.691 82.9794 296.059 83.3719C296.426 83.7645 296.609 84.3248 296.609 85.0529V88.1016H295.527V85.1669C295.527 84.6984 295.406 84.3375 295.166 84.0842C294.925 83.8246 294.596 83.6948 294.178 83.6948C293.748 83.6948 293.403 83.8341 293.143 84.1127C292.883 84.385 292.754 84.787 292.754 85.3189V88.1016H291.671V82.8686H292.754V84.0177C292.893 83.6252 293.127 83.3213 293.456 83.106C293.786 82.8907 294.166 82.7831 294.596 82.7831Z" fill="#5B5B5F"/>
<path d="M254.555 95.9672V95.2H256.176V100.262H255.315V95.9672H254.555ZM256.754 95.9672V95.2H258.374V100.262H257.514V95.9672H256.754ZM265.056 95.2V100.262H264.232V97.989H261.852V100.262H261.034V95.2H261.852V97.3222H264.232V95.2H265.056ZM266.865 97.0856C266.998 96.8275 267.19 96.6244 267.438 96.4762C267.687 96.3233 267.974 96.2468 268.299 96.2468V97.1358H268.055C267.696 97.1358 267.407 97.2242 267.187 97.4011C266.972 97.5731 266.865 97.8599 266.865 98.2614V100.262H266.047V96.3113H266.865V97.0856ZM270.209 96.2611C270.672 96.2611 271.043 96.3806 271.32 96.6196C271.602 96.8538 271.774 97.1693 271.836 97.566H271.062C271.028 97.3509 270.935 97.1788 270.782 97.0498C270.634 96.9159 270.436 96.849 270.187 96.849C269.982 96.849 269.821 96.8992 269.707 96.9996C269.597 97.0952 269.542 97.2266 269.542 97.3939C269.542 97.5182 269.582 97.6186 269.664 97.695C269.745 97.7715 269.845 97.8312 269.965 97.8743C270.089 97.9173 270.264 97.9651 270.488 98.0177C270.785 98.0846 271.024 98.1539 271.205 98.2256C271.392 98.2973 271.549 98.412 271.678 98.5697C271.812 98.7227 271.879 98.933 271.879 99.2006C271.879 99.5304 271.752 99.7981 271.499 100.004C271.251 100.209 270.914 100.312 270.488 100.312C269.996 100.312 269.597 100.197 269.291 99.9678C268.99 99.7383 268.808 99.4181 268.746 99.0071H269.542C269.566 99.2221 269.661 99.3966 269.829 99.5304C269.996 99.6643 270.216 99.7312 270.488 99.7312C270.684 99.7312 270.837 99.681 270.947 99.5806C271.062 99.4755 271.119 99.344 271.119 99.1863C271.119 99.0477 271.076 98.9377 270.99 98.8565C270.904 98.7752 270.797 98.7131 270.667 98.6701C270.538 98.6223 270.362 98.5745 270.137 98.5267C269.85 98.4598 269.616 98.3929 269.434 98.3259C269.257 98.259 269.104 98.1515 268.975 98.0033C268.851 97.8504 268.789 97.6448 268.789 97.3867C268.789 97.0522 268.913 96.7821 269.162 96.5766C269.415 96.3663 269.764 96.2611 270.209 96.2611ZM274.687 99.595C274.401 99.1361 274.257 98.5028 274.257 97.695C274.257 96.892 274.401 96.2635 274.687 95.8094C274.974 95.3554 275.452 95.1283 276.121 95.1283C276.79 95.1283 277.268 95.3578 277.555 95.8166C277.842 96.2707 277.985 96.8968 277.985 97.695C277.985 98.498 277.842 99.1289 277.555 99.5878C277.268 100.047 276.79 100.276 276.121 100.276C275.452 100.276 274.974 100.049 274.687 99.595ZM276.953 99.0357C277.096 98.7251 277.168 98.2782 277.168 97.695C277.168 97.1215 277.096 96.6817 276.953 96.3758C276.81 96.0652 276.532 95.9098 276.121 95.9098C275.705 95.9098 275.426 96.0628 275.282 96.3687C275.139 96.6746 275.067 97.1167 275.067 97.695C275.067 98.2782 275.139 98.7251 275.282 99.0357C275.426 99.3464 275.705 99.5017 276.121 99.5017C276.532 99.5017 276.81 99.3464 276.953 99.0357ZM279.154 99.595C278.868 99.1361 278.724 98.5028 278.724 97.695C278.724 96.892 278.868 96.2635 279.154 95.8094C279.441 95.3554 279.919 95.1283 280.588 95.1283C281.257 95.1283 281.735 95.3578 282.022 95.8166C282.309 96.2707 282.452 96.8968 282.452 97.695C282.452 98.498 282.309 99.1289 282.022 99.5878C281.735 100.047 281.257 100.276 280.588 100.276C279.919 100.276 279.441 100.049 279.154 99.595ZM281.42 99.0357C281.563 98.7251 281.635 98.2782 281.635 97.695C281.635 97.1215 281.563 96.6817 281.42 96.3758C281.276 96.0652 280.999 95.9098 280.588 95.9098C280.172 95.9098 279.893 96.0628 279.749 96.3687C279.606 96.6746 279.534 97.1167 279.534 97.695C279.534 98.2782 279.606 98.7251 279.749 99.0357C279.893 99.3464 280.172 99.5017 280.588 99.5017C280.999 99.5017 281.276 99.3464 281.42 99.0357ZM290.241 95.2789V100.262H289.417V96.5264L287.976 100.262H287.259L285.811 96.5264V100.262H284.993V95.2789H285.983L287.632 99.258L289.252 95.2789H290.241ZM291.11 95.1642C291.11 95.0256 291.158 94.9109 291.253 94.82C291.349 94.7292 291.476 94.6838 291.633 94.6838C291.791 94.6838 291.918 94.7292 292.013 94.82C292.114 94.9109 292.164 95.0256 292.164 95.1642C292.164 95.3028 292.114 95.4151 292.013 95.5012C291.918 95.5872 291.791 95.6302 291.633 95.6302C291.476 95.6302 291.349 95.5872 291.253 95.5012C291.158 95.4151 291.11 95.3028 291.11 95.1642ZM292.042 96.3113V100.262H291.225V96.3113H292.042ZM295.239 96.2468C295.698 96.2468 296.066 96.395 296.343 96.6913C296.621 96.9876 296.759 97.4106 296.759 97.9603V100.262H295.942V98.0463C295.942 97.6926 295.851 97.4202 295.669 97.229C295.488 97.033 295.239 96.9351 294.924 96.9351C294.599 96.9351 294.338 97.0402 294.142 97.2505C293.946 97.456 293.848 97.7596 293.848 98.161V100.262H293.031V96.3113H293.848V97.1788C293.954 96.8825 294.13 96.6531 294.379 96.4905C294.627 96.328 294.914 96.2468 295.239 96.2468Z" fill="#86878A"/>
<rect x="164.824" y="110.084" width="9.31852" height="9.31852" rx="4.65926" fill="#FE812D"/>
<path d="M183.722 111.454C184.342 111.454 184.903 111.599 185.403 111.89C185.909 112.182 186.305 112.59 186.59 113.116C186.881 113.635 187.027 114.224 187.027 114.882C187.027 115.541 186.881 116.133 186.59 116.658C186.305 117.177 185.909 117.586 185.403 117.883C184.903 118.174 184.342 118.32 183.722 118.32C183.095 118.32 182.528 118.174 182.022 117.883C181.522 117.586 181.126 117.177 180.835 116.658C180.543 116.133 180.398 115.541 180.398 114.882C180.398 114.224 180.543 113.635 180.835 113.116C181.126 112.59 181.522 112.182 182.022 111.89C182.528 111.599 183.095 111.454 183.722 111.454ZM183.722 112.46C183.291 112.46 182.908 112.558 182.573 112.755C182.237 112.951 181.974 113.233 181.784 113.6C181.601 113.967 181.509 114.395 181.509 114.882C181.509 115.37 181.601 115.797 181.784 116.164C181.974 116.531 182.237 116.813 182.573 117.009C182.908 117.206 183.291 117.304 183.722 117.304C184.146 117.304 184.523 117.206 184.852 117.009C185.188 116.813 185.447 116.531 185.631 116.164C185.821 115.797 185.916 115.37 185.916 114.882C185.916 114.395 185.821 113.967 185.631 113.6C185.447 113.233 185.188 112.951 184.852 112.755C184.523 112.558 184.146 112.46 183.722 112.46ZM191.045 112.926C191.652 112.926 192.14 113.122 192.507 113.514C192.874 113.907 193.058 114.467 193.058 115.196V118.244H191.975V115.309C191.975 114.841 191.855 114.48 191.614 114.227C191.374 113.967 191.045 113.837 190.627 113.837C190.196 113.837 189.851 113.977 189.592 114.255C189.332 114.528 189.202 114.93 189.202 115.461V118.244H188.119V113.011H189.202V114.16C189.341 113.768 189.576 113.464 189.905 113.249C190.234 113.033 190.614 112.926 191.045 112.926ZM200.957 116.459C200.957 116.788 200.878 117.095 200.719 117.38C200.561 117.658 200.321 117.883 199.998 118.054C199.675 118.225 199.279 118.311 198.811 118.311C198.355 118.311 197.946 118.231 197.585 118.073C197.224 117.909 196.936 117.681 196.721 117.389C196.506 117.098 196.382 116.763 196.351 116.383H197.509C197.541 116.674 197.665 116.924 197.88 117.133C198.101 117.342 198.396 117.446 198.763 117.446C199.092 117.446 199.346 117.358 199.523 117.18C199.706 117.003 199.798 116.775 199.798 116.497C199.798 116.256 199.732 116.06 199.599 115.908C199.466 115.75 199.301 115.626 199.105 115.537C198.909 115.449 198.64 115.347 198.298 115.233C197.88 115.101 197.538 114.968 197.272 114.835C197.012 114.702 196.791 114.509 196.607 114.255C196.424 114.002 196.332 113.67 196.332 113.258C196.332 112.897 196.42 112.581 196.598 112.308C196.775 112.036 197.028 111.827 197.357 111.682C197.687 111.53 198.067 111.454 198.497 111.454C199.181 111.454 199.722 111.618 200.121 111.947C200.526 112.277 200.757 112.707 200.814 113.239H199.646C199.602 112.986 199.482 112.771 199.285 112.593C199.095 112.41 198.833 112.318 198.497 112.318C198.193 112.318 197.949 112.397 197.766 112.555C197.582 112.707 197.49 112.929 197.49 113.22C197.49 113.448 197.554 113.638 197.68 113.79C197.807 113.936 197.965 114.053 198.155 114.141C198.352 114.224 198.617 114.322 198.953 114.436C199.377 114.569 199.722 114.705 199.988 114.844C200.26 114.977 200.488 115.173 200.672 115.433C200.862 115.693 200.957 116.034 200.957 116.459ZM204.966 112.926C205.574 112.926 206.061 113.122 206.429 113.514C206.796 113.907 206.979 114.467 206.979 115.196V118.244H205.897V115.309C205.897 114.841 205.776 114.48 205.536 114.227C205.295 113.967 204.966 113.837 204.548 113.837C204.118 113.837 203.772 113.977 203.513 114.255C203.253 114.528 203.123 114.93 203.123 115.461V118.244H202.041V111.216H203.123V114.16C203.263 113.768 203.497 113.464 203.826 113.249C204.156 113.033 204.535 112.926 204.966 112.926ZM208.094 111.492C208.094 111.308 208.157 111.156 208.284 111.036C208.41 110.915 208.578 110.855 208.787 110.855C208.996 110.855 209.164 110.915 209.29 111.036C209.423 111.156 209.49 111.308 209.49 111.492C209.49 111.675 209.423 111.824 209.29 111.938C209.164 112.052 208.996 112.109 208.787 112.109C208.578 112.109 208.41 112.052 208.284 111.938C208.157 111.824 208.094 111.675 208.094 111.492ZM209.328 113.011V118.244H208.246V113.011H209.328ZM213.079 111.928C212.655 111.909 212.357 111.979 212.187 112.137C212.016 112.289 211.93 112.552 211.93 112.926V113.011H213.079V113.942H211.93V118.244H210.838V113.942H210.126V113.011H210.838V112.84C210.838 112.201 211.025 111.723 211.398 111.406C211.772 111.083 212.332 110.941 213.079 110.979V111.928ZM216.58 117.304V118.244H215.915C215.358 118.244 214.934 118.111 214.643 117.845C214.358 117.573 214.215 117.123 214.215 116.497V113.932H213.465V113.011H214.215V111.71H215.308V113.011H216.571V113.932H215.308V116.516C215.308 116.813 215.361 117.019 215.469 117.133C215.583 117.247 215.779 117.304 216.058 117.304H216.58Z" fill="#FE812D"/>
<path d="M236.246 117.361C235.866 116.753 235.676 115.914 235.676 114.844C235.676 113.78 235.866 112.948 236.246 112.346C236.625 111.745 237.259 111.444 238.145 111.444C239.031 111.444 239.665 111.748 240.044 112.356C240.424 112.957 240.614 113.787 240.614 114.844C240.614 115.908 240.424 116.744 240.044 117.351C239.665 117.959 239.031 118.263 238.145 118.263C237.259 118.263 236.625 117.962 236.246 117.361ZM239.247 116.62C239.437 116.209 239.532 115.617 239.532 114.844C239.532 114.084 239.437 113.502 239.247 113.097C239.057 112.685 238.69 112.479 238.145 112.479C237.594 112.479 237.224 112.682 237.034 113.087C236.844 113.492 236.749 114.078 236.749 114.844C236.749 115.617 236.844 116.209 237.034 116.62C237.224 117.032 237.594 117.237 238.145 117.237C238.69 117.237 239.057 117.032 239.247 116.62ZM241.764 113.097C241.764 112.767 241.853 112.467 242.03 112.194C242.207 111.922 242.47 111.704 242.818 111.539C243.173 111.374 243.597 111.292 244.091 111.292C244.585 111.292 245.006 111.374 245.354 111.539C245.708 111.704 245.974 111.922 246.152 112.194C246.335 112.467 246.427 112.767 246.427 113.097C246.427 113.464 246.329 113.78 246.133 114.046C245.943 114.312 245.658 114.505 245.278 114.626C245.702 114.759 246.028 114.974 246.256 115.271C246.484 115.563 246.598 115.92 246.598 116.345C246.598 116.997 246.367 117.507 245.905 117.874C245.443 118.235 244.838 118.415 244.091 118.415C243.344 118.415 242.739 118.235 242.277 117.874C241.821 117.507 241.593 116.997 241.593 116.345C241.593 115.92 241.707 115.563 241.935 115.271C242.163 114.974 242.489 114.759 242.913 114.626C242.533 114.505 242.245 114.312 242.049 114.046C241.859 113.78 241.764 113.464 241.764 113.097ZM242.837 113.268C242.837 113.609 242.948 113.875 243.17 114.065C243.397 114.249 243.705 114.341 244.091 114.341C244.477 114.341 244.784 114.249 245.012 114.065C245.24 113.875 245.354 113.609 245.354 113.268C245.354 112.926 245.237 112.66 245.003 112.47C244.775 112.28 244.471 112.185 244.091 112.185C243.711 112.185 243.407 112.28 243.179 112.47C242.951 112.66 242.837 112.926 242.837 113.268ZM242.647 116.288C242.647 116.674 242.777 116.978 243.037 117.199C243.296 117.415 243.648 117.522 244.091 117.522C244.534 117.522 244.885 117.415 245.145 117.199C245.405 116.978 245.534 116.674 245.534 116.288C245.534 115.895 245.398 115.601 245.126 115.404C244.86 115.202 244.515 115.101 244.091 115.101C243.673 115.101 243.328 115.202 243.056 115.404C242.783 115.607 242.647 115.901 242.647 116.288ZM255.3 111.539V118.244H254.208V115.233H251.055V118.244H249.972V111.539H251.055V114.35H254.208V111.539H255.3ZM257.695 114.037C257.872 113.695 258.126 113.426 258.455 113.23C258.784 113.027 259.164 112.926 259.595 112.926V114.103H259.272C258.797 114.103 258.414 114.22 258.123 114.455C257.838 114.683 257.695 115.063 257.695 115.594V118.244H256.613V113.011H257.695V114.037ZM262.125 112.945C262.739 112.945 263.23 113.103 263.597 113.42C263.971 113.73 264.198 114.148 264.281 114.673H263.255C263.211 114.388 263.087 114.16 262.885 113.989C262.688 113.812 262.426 113.723 262.096 113.723C261.824 113.723 261.612 113.79 261.46 113.923C261.314 114.05 261.242 114.224 261.242 114.445C261.242 114.61 261.295 114.743 261.403 114.844C261.511 114.945 261.644 115.025 261.802 115.082C261.967 115.139 262.198 115.202 262.495 115.271C262.888 115.36 263.204 115.452 263.445 115.547C263.692 115.642 263.901 115.794 264.072 116.003C264.249 116.205 264.338 116.484 264.338 116.839C264.338 117.275 264.17 117.63 263.834 117.902C263.505 118.174 263.059 118.311 262.495 118.311C261.843 118.311 261.314 118.159 260.909 117.855C260.51 117.551 260.27 117.127 260.187 116.582H261.242C261.273 116.867 261.4 117.098 261.622 117.275C261.843 117.453 262.134 117.541 262.495 117.541C262.755 117.541 262.957 117.475 263.103 117.342C263.255 117.203 263.331 117.028 263.331 116.82C263.331 116.636 263.274 116.49 263.16 116.383C263.046 116.275 262.904 116.193 262.733 116.136C262.562 116.072 262.327 116.009 262.03 115.946C261.65 115.857 261.34 115.769 261.099 115.68C260.865 115.591 260.662 115.449 260.491 115.252C260.327 115.05 260.244 114.778 260.244 114.436C260.244 113.993 260.409 113.635 260.738 113.363C261.074 113.084 261.536 112.945 262.125 112.945ZM267.374 117.399C268.4 116.696 269.22 116.009 269.834 115.338C270.454 114.66 270.765 114.034 270.765 113.458C270.765 113.116 270.679 112.843 270.508 112.641C270.343 112.438 270.074 112.337 269.701 112.337C269.315 112.337 269.023 112.463 268.827 112.717C268.631 112.964 268.52 113.318 268.495 113.78H267.44C267.485 113.014 267.719 112.429 268.143 112.023C268.574 111.618 269.121 111.416 269.786 111.416C270.438 111.416 270.948 111.59 271.315 111.938C271.689 112.28 271.876 112.755 271.876 113.363C271.876 113.85 271.724 114.344 271.42 114.844C271.122 115.344 270.742 115.807 270.28 116.231C269.818 116.649 269.34 117.009 268.846 117.313H272.028V118.197H267.374V117.399ZM274.064 116.307C274.114 116.668 274.238 116.946 274.434 117.142C274.637 117.339 274.909 117.437 275.251 117.437C275.732 117.437 276.09 117.247 276.324 116.867C276.565 116.481 276.685 115.876 276.685 115.053L276.675 114.73C276.574 115.072 276.362 115.347 276.039 115.556C275.723 115.759 275.352 115.86 274.928 115.86C274.269 115.86 273.753 115.664 273.38 115.271C273.006 114.873 272.82 114.319 272.82 113.609C272.82 113.179 272.905 112.793 273.076 112.451C273.247 112.109 273.503 111.84 273.845 111.644C274.187 111.441 274.608 111.34 275.108 111.34C276.077 111.34 276.742 111.637 277.103 112.232C277.47 112.821 277.654 113.638 277.654 114.683C277.654 115.867 277.467 116.769 277.093 117.389C276.726 118.01 276.112 118.32 275.251 118.32C274.586 118.32 274.064 118.133 273.684 117.76C273.31 117.38 273.095 116.896 273.038 116.307H274.064ZM276.571 113.723C276.571 113.312 276.451 112.97 276.21 112.698C275.976 112.419 275.621 112.28 275.146 112.28C274.754 112.28 274.437 112.397 274.197 112.631C273.962 112.866 273.845 113.195 273.845 113.619C273.845 114.068 273.962 114.414 274.197 114.654C274.437 114.895 274.763 115.015 275.175 115.015C275.416 115.015 275.64 114.968 275.849 114.873C276.064 114.771 276.239 114.626 276.372 114.436C276.505 114.239 276.571 114.002 276.571 113.723ZM287.976 111.644V118.244H286.883V113.296L284.974 118.244H284.025L282.106 113.296V118.244H281.024V111.644H282.334L284.519 116.915L286.665 111.644H287.976ZM289.126 111.492C289.126 111.308 289.189 111.156 289.316 111.036C289.443 110.915 289.61 110.855 289.819 110.855C290.028 110.855 290.196 110.915 290.323 111.036C290.456 111.156 290.522 111.308 290.522 111.492C290.522 111.675 290.456 111.824 290.323 111.938C290.196 112.052 290.028 112.109 289.819 112.109C289.61 112.109 289.443 112.052 289.316 111.938C289.189 111.824 289.126 111.675 289.126 111.492ZM290.361 113.011V118.244H289.278V113.011H290.361ZM294.596 112.926C295.204 112.926 295.691 113.122 296.059 113.514C296.426 113.907 296.609 114.467 296.609 115.196V118.244H295.527V115.309C295.527 114.841 295.406 114.48 295.166 114.227C294.925 113.967 294.596 113.837 294.178 113.837C293.748 113.837 293.403 113.977 293.143 114.255C292.883 114.528 292.754 114.93 292.754 115.461V118.244H291.671V113.011H292.754V114.16C292.893 113.768 293.127 113.464 293.456 113.249C293.786 113.033 294.165 112.926 294.596 112.926Z" fill="#5B5B5F"/>
<path d="M252.203 126.11V125.343H253.823V130.404H252.963V126.11H252.203ZM254.559 129.315V128.626L257.076 125.3H257.95V128.598H258.66V129.315H257.95V130.404H257.126V129.315H254.559ZM257.183 126.275L255.405 128.598H257.183V126.275ZM265.056 125.343V130.404H264.232V128.132H261.852V130.404H261.034V125.343H261.852V127.465H264.232V125.343H265.056ZM266.865 127.228C266.998 126.97 267.19 126.767 267.438 126.619C267.687 126.466 267.974 126.389 268.299 126.389V127.278H268.055C267.696 127.278 267.407 127.367 267.187 127.544C266.972 127.716 266.865 128.003 266.865 128.404V130.404H266.047V126.454H266.865V127.228ZM270.209 126.404C270.672 126.404 271.043 126.523 271.32 126.762C271.602 126.996 271.774 127.312 271.836 127.709H271.062C271.028 127.493 270.935 127.321 270.782 127.192C270.634 127.059 270.436 126.992 270.187 126.992C269.982 126.992 269.821 127.042 269.707 127.142C269.597 127.238 269.542 127.369 269.542 127.536C269.542 127.661 269.582 127.761 269.664 127.838C269.745 127.914 269.845 127.974 269.965 128.017C270.089 128.06 270.264 128.108 270.488 128.16C270.785 128.227 271.024 128.296 271.205 128.368C271.392 128.44 271.549 128.555 271.678 128.712C271.812 128.865 271.879 129.076 271.879 129.343C271.879 129.673 271.752 129.941 271.499 130.146C271.251 130.352 270.914 130.454 270.488 130.454C269.996 130.454 269.597 130.34 269.291 130.11C268.99 129.881 268.808 129.561 268.746 129.15H269.542C269.566 129.365 269.661 129.539 269.829 129.673C269.996 129.807 270.216 129.874 270.488 129.874C270.684 129.874 270.837 129.824 270.947 129.723C271.062 129.618 271.119 129.487 271.119 129.329C271.119 129.19 271.076 129.08 270.99 128.999C270.904 128.918 270.797 128.856 270.667 128.813C270.538 128.765 270.362 128.717 270.137 128.669C269.85 128.602 269.616 128.535 269.434 128.469C269.257 128.402 269.104 128.294 268.975 128.146C268.851 127.993 268.789 127.787 268.789 127.529C268.789 127.195 268.913 126.925 269.162 126.719C269.415 126.509 269.764 126.404 270.209 126.404ZM274.687 129.738C274.401 129.279 274.257 128.645 274.257 127.838C274.257 127.035 274.401 126.406 274.687 125.952C274.974 125.498 275.452 125.271 276.121 125.271C276.79 125.271 277.268 125.5 277.555 125.959C277.842 126.413 277.985 127.039 277.985 127.838C277.985 128.641 277.842 129.272 277.555 129.73C277.268 130.189 276.79 130.419 276.121 130.419C275.452 130.419 274.974 130.192 274.687 129.738ZM276.953 129.178C277.096 128.868 277.168 128.421 277.168 127.838C277.168 127.264 277.096 126.824 276.953 126.518C276.81 126.208 276.532 126.052 276.121 126.052C275.705 126.052 275.426 126.205 275.282 126.511C275.139 126.817 275.067 127.259 275.067 127.838C275.067 128.421 275.139 128.868 275.282 129.178C275.426 129.489 275.705 129.644 276.121 129.644C276.532 129.644 276.81 129.489 276.953 129.178ZM279.154 129.738C278.868 129.279 278.724 128.645 278.724 127.838C278.724 127.035 278.868 126.406 279.154 125.952C279.441 125.498 279.919 125.271 280.588 125.271C281.257 125.271 281.735 125.5 282.022 125.959C282.309 126.413 282.452 127.039 282.452 127.838C282.452 128.641 282.309 129.272 282.022 129.73C281.735 130.189 281.257 130.419 280.588 130.419C279.919 130.419 279.441 130.192 279.154 129.738ZM281.42 129.178C281.563 128.868 281.635 128.421 281.635 127.838C281.635 127.264 281.563 126.824 281.42 126.518C281.276 126.208 280.999 126.052 280.588 126.052C280.172 126.052 279.893 126.205 279.749 126.511C279.606 126.817 279.534 127.259 279.534 127.838C279.534 128.421 279.606 128.868 279.749 129.178C279.893 129.489 280.172 129.644 280.588 129.644C280.999 129.644 281.276 129.489 281.42 129.178ZM290.241 125.421V130.404H289.417V126.669L287.976 130.404H287.259L285.811 126.669V130.404H284.993V125.421H285.983L287.632 129.401L289.252 125.421H290.241ZM291.11 125.307C291.11 125.168 291.158 125.053 291.253 124.963C291.349 124.872 291.476 124.826 291.633 124.826C291.791 124.826 291.918 124.872 292.013 124.963C292.114 125.053 292.164 125.168 292.164 125.307C292.164 125.445 292.114 125.558 292.013 125.644C291.918 125.73 291.791 125.773 291.633 125.773C291.476 125.773 291.349 125.73 291.253 125.644C291.158 125.558 291.11 125.445 291.11 125.307ZM292.042 126.454V130.404H291.225V126.454H292.042ZM295.239 126.389C295.698 126.389 296.066 126.538 296.343 126.834C296.621 127.13 296.759 127.553 296.759 128.103V130.404H295.942V128.189C295.942 127.835 295.851 127.563 295.669 127.372C295.488 127.176 295.239 127.078 294.924 127.078C294.599 127.078 294.338 127.183 294.142 127.393C293.946 127.599 293.848 127.902 293.848 128.304V130.404H293.031V126.454H293.848V127.321C293.954 127.025 294.13 126.796 294.379 126.633C294.627 126.471 294.914 126.389 295.239 126.389Z" fill="#86878A"/>
<rect x="164.824" y="140.229" width="9.31852" height="9.31852" rx="4.65926" fill="#A45BF1"/>
<path d="M183.722 141.598C184.342 141.598 184.903 141.744 185.403 142.035C185.909 142.326 186.305 142.735 186.59 143.26C186.881 143.779 187.027 144.368 187.027 145.027C187.027 145.685 186.881 146.277 186.59 146.803C186.305 147.322 185.909 147.73 185.403 148.028C184.903 148.319 184.342 148.465 183.722 148.465C183.095 148.465 182.528 148.319 182.022 148.028C181.522 147.73 181.126 147.322 180.835 146.803C180.543 146.277 180.398 145.685 180.398 145.027C180.398 144.368 180.543 143.779 180.835 143.26C181.126 142.735 181.522 142.326 182.022 142.035C182.528 141.744 183.095 141.598 183.722 141.598ZM183.722 142.605C183.291 142.605 182.908 142.703 182.573 142.899C182.237 143.096 181.974 143.377 181.784 143.744C181.601 144.112 181.509 144.539 181.509 145.027C181.509 145.514 181.601 145.942 181.784 146.309C181.974 146.676 182.237 146.958 182.573 147.154C182.908 147.35 183.291 147.448 183.722 147.448C184.146 147.448 184.523 147.35 184.852 147.154C185.188 146.958 185.447 146.676 185.631 146.309C185.821 145.942 185.916 145.514 185.916 145.027C185.916 144.539 185.821 144.112 185.631 143.744C185.447 143.377 185.188 143.096 184.852 142.899C184.523 142.703 184.146 142.605 183.722 142.605ZM191.045 143.07C191.652 143.07 192.14 143.266 192.507 143.659C192.874 144.052 193.058 144.612 193.058 145.34V148.389H191.975V145.454C191.975 144.985 191.855 144.625 191.614 144.371C191.374 144.112 191.045 143.982 190.627 143.982C190.196 143.982 189.851 144.121 189.592 144.4C189.332 144.672 189.202 145.074 189.202 145.606V148.389H188.119V143.156H189.202V144.305C189.341 143.912 189.576 143.608 189.905 143.393C190.234 143.178 190.614 143.07 191.045 143.07ZM199.542 141.617C200.365 141.617 201.049 141.826 201.593 142.244C202.138 142.662 202.505 143.228 202.695 143.944H201.546C201.387 143.539 201.134 143.219 200.786 142.985C200.444 142.744 200.023 142.624 199.523 142.624C199.124 142.624 198.766 142.722 198.45 142.918C198.139 143.115 197.892 143.396 197.709 143.763C197.532 144.124 197.443 144.549 197.443 145.036C197.443 145.517 197.532 145.942 197.709 146.309C197.892 146.67 198.139 146.948 198.45 147.145C198.766 147.341 199.124 147.439 199.523 147.439C200.023 147.439 200.444 147.322 200.786 147.088C201.134 146.847 201.387 146.527 201.546 146.128H202.695C202.505 146.844 202.138 147.41 201.593 147.828C201.049 148.24 200.365 148.446 199.542 148.446C198.909 148.446 198.348 148.303 197.861 148.018C197.373 147.727 196.997 147.325 196.731 146.812C196.465 146.293 196.332 145.701 196.332 145.036C196.332 144.371 196.465 143.782 196.731 143.27C196.997 142.75 197.373 142.345 197.861 142.054C198.348 141.763 198.909 141.617 199.542 141.617ZM204.392 143.156L205.96 147.002L207.413 143.156H208.619L205.456 150.877H204.25L205.38 148.265L203.177 143.156H204.392ZM211.658 143.089C212.335 143.089 212.895 143.27 213.339 143.631C213.782 143.985 214.057 144.469 214.165 145.084H213.016C212.952 144.754 212.797 144.498 212.55 144.314C212.31 144.124 212.006 144.029 211.639 144.029C211.221 144.029 210.872 144.178 210.594 144.476C210.315 144.767 210.176 145.198 210.176 145.767C210.176 146.337 210.315 146.771 210.594 147.069C210.872 147.366 211.221 147.515 211.639 147.515C212.006 147.515 212.31 147.42 212.55 147.23C212.797 147.04 212.952 146.78 213.016 146.451H214.165C214.057 147.065 213.782 147.553 213.339 147.914C212.895 148.275 212.335 148.455 211.658 148.455C211.151 148.455 210.701 148.348 210.309 148.132C209.923 147.917 209.619 147.607 209.397 147.202C209.176 146.796 209.065 146.318 209.065 145.767C209.065 145.223 209.176 144.748 209.397 144.343C209.619 143.938 209.923 143.627 210.309 143.412C210.701 143.197 211.151 143.089 211.658 143.089ZM216.294 141.361V148.389H215.211V141.361H216.294ZM222.466 145.52C222.466 145.698 222.454 145.853 222.428 145.986H218.402C218.421 146.524 218.569 146.923 218.848 147.183C219.126 147.442 219.472 147.572 219.883 147.572C220.244 147.572 220.548 147.48 220.795 147.296C221.048 147.113 221.203 146.869 221.26 146.565H222.419C222.349 146.932 222.204 147.258 221.982 147.543C221.76 147.828 221.472 148.053 221.118 148.218C220.763 148.376 220.367 148.455 219.931 148.455C219.424 148.455 218.975 148.348 218.582 148.132C218.196 147.917 217.892 147.607 217.67 147.202C217.449 146.796 217.338 146.318 217.338 145.767C217.338 145.223 217.449 144.748 217.67 144.343C217.892 143.938 218.196 143.627 218.582 143.412C218.975 143.197 219.424 143.089 219.931 143.089C220.443 143.089 220.89 143.197 221.27 143.412C221.656 143.621 221.95 143.912 222.153 144.286C222.362 144.653 222.466 145.065 222.466 145.52ZM221.374 145.492C221.387 145.15 221.327 144.865 221.194 144.637C221.067 144.403 220.89 144.232 220.662 144.124C220.44 144.01 220.197 143.953 219.931 143.953C219.506 143.953 219.152 144.083 218.867 144.343C218.582 144.602 218.427 144.985 218.402 145.492H221.374Z" fill="#A45BF1"/>
<path d="M239.865 142.538H236.551V144.533C236.703 144.336 236.918 144.181 237.197 144.067C237.475 143.947 237.782 143.887 238.118 143.887C238.586 143.887 238.976 143.988 239.286 144.191C239.596 144.387 239.824 144.65 239.97 144.979C240.122 145.308 240.198 145.672 240.198 146.071C240.198 146.774 240.002 147.344 239.609 147.781C239.216 148.211 238.647 148.427 237.9 148.427C237.197 148.427 236.63 148.24 236.199 147.866C235.769 147.493 235.535 146.996 235.497 146.375H236.56C236.617 146.717 236.757 146.986 236.978 147.183C237.206 147.379 237.494 147.477 237.843 147.477C238.273 147.477 238.596 147.347 238.811 147.088C239.027 146.828 239.134 146.483 239.134 146.052C239.134 145.647 239.023 145.331 238.802 145.103C238.58 144.868 238.264 144.751 237.852 144.751C237.561 144.751 237.304 144.815 237.083 144.941C236.867 145.068 236.709 145.236 236.608 145.445H235.554V141.579H239.865V142.538ZM240.986 146.945V146.033L244.32 141.627H245.479V145.995H246.419V146.945H245.479V148.389H244.386V146.945H240.986ZM244.462 142.918L242.107 145.995H244.462V142.918ZM254.892 141.684V148.389H253.8V145.378H250.646V148.389H249.564V141.684H250.646V144.495H253.8V141.684H254.892ZM257.287 144.181C257.464 143.839 257.718 143.57 258.047 143.374C258.376 143.171 258.756 143.07 259.187 143.07V144.248H258.864C258.389 144.248 258.006 144.365 257.715 144.599C257.43 144.827 257.287 145.207 257.287 145.739V148.389H256.204V143.156H257.287V144.181ZM261.717 143.089C262.331 143.089 262.822 143.247 263.189 143.564C263.562 143.874 263.79 144.292 263.873 144.818H262.847C262.803 144.533 262.679 144.305 262.477 144.134C262.28 143.957 262.018 143.868 261.688 143.868C261.416 143.868 261.204 143.934 261.052 144.067C260.906 144.194 260.834 144.368 260.834 144.59C260.834 144.754 260.887 144.887 260.995 144.989C261.103 145.09 261.236 145.169 261.394 145.226C261.559 145.283 261.79 145.346 262.087 145.416C262.48 145.505 262.796 145.596 263.037 145.691C263.284 145.786 263.493 145.938 263.664 146.147C263.841 146.35 263.93 146.629 263.93 146.983C263.93 147.42 263.762 147.775 263.426 148.047C263.097 148.319 262.651 148.455 262.087 148.455C261.435 148.455 260.906 148.303 260.501 147.999C260.102 147.695 259.862 147.271 259.779 146.727H260.834C260.865 147.012 260.992 147.243 261.213 147.42C261.435 147.597 261.726 147.686 262.087 147.686C262.347 147.686 262.549 147.619 262.695 147.486C262.847 147.347 262.923 147.173 262.923 146.964C262.923 146.78 262.866 146.635 262.752 146.527C262.638 146.42 262.496 146.337 262.325 146.28C262.154 146.217 261.919 146.154 261.622 146.09C261.242 146.002 260.932 145.913 260.691 145.824C260.457 145.736 260.254 145.593 260.083 145.397C259.919 145.194 259.836 144.922 259.836 144.58C259.836 144.137 260.001 143.779 260.33 143.507C260.666 143.228 261.128 143.089 261.717 143.089ZM269.435 141.475C269.878 141.475 270.258 141.554 270.575 141.712C270.891 141.864 271.129 142.076 271.287 142.348C271.452 142.621 271.534 142.925 271.534 143.26C271.534 143.684 271.414 144.039 271.173 144.324C270.939 144.602 270.607 144.77 270.176 144.827V144.875C270.638 145.008 270.999 145.207 271.259 145.473C271.525 145.733 271.658 146.093 271.658 146.556C271.658 147.119 271.471 147.578 271.097 147.933C270.724 148.281 270.189 148.455 269.492 148.455C268.777 148.455 268.201 148.275 267.764 147.914C267.327 147.547 267.077 147.005 267.013 146.29H268.087C268.125 146.67 268.261 146.974 268.495 147.202C268.729 147.423 269.046 147.534 269.445 147.534C269.818 147.534 270.103 147.436 270.299 147.239C270.502 147.043 270.603 146.79 270.603 146.48C270.603 146.106 270.458 145.821 270.166 145.625C269.882 145.429 269.467 145.331 268.922 145.331H268.666V144.438H268.922C269.954 144.45 270.47 144.099 270.47 143.384C270.47 143.073 270.375 142.83 270.185 142.652C269.996 142.475 269.736 142.386 269.407 142.386C269.077 142.386 268.802 142.488 268.58 142.69C268.359 142.887 268.226 143.175 268.182 143.555H267.118C267.162 142.896 267.384 142.386 267.783 142.025C268.182 141.658 268.732 141.475 269.435 141.475ZM273.289 147.505C272.909 146.898 272.719 146.059 272.719 144.989C272.719 143.925 272.909 143.092 273.289 142.491C273.669 141.889 274.302 141.589 275.188 141.589C276.075 141.589 276.708 141.893 277.088 142.5C277.468 143.102 277.657 143.931 277.657 144.989C277.657 146.052 277.468 146.888 277.088 147.496C276.708 148.104 276.075 148.408 275.188 148.408C274.302 148.408 273.669 148.107 273.289 147.505ZM276.29 146.765C276.48 146.353 276.575 145.761 276.575 144.989C276.575 144.229 276.48 143.646 276.29 143.241C276.1 142.83 275.733 142.624 275.188 142.624C274.637 142.624 274.267 142.826 274.077 143.232C273.887 143.637 273.792 144.223 273.792 144.989C273.792 145.761 273.887 146.353 274.077 146.765C274.267 147.176 274.637 147.382 275.188 147.382C275.733 147.382 276.1 147.176 276.29 146.765ZM287.976 141.788V148.389H286.883V143.441L284.974 148.389H284.025L282.106 143.441V148.389H281.024V141.788H282.334L284.519 147.059L286.665 141.788H287.976ZM289.126 141.636C289.126 141.452 289.189 141.301 289.316 141.18C289.443 141.06 289.61 141 289.819 141C290.028 141 290.196 141.06 290.323 141.18C290.456 141.301 290.522 141.452 290.522 141.636C290.522 141.82 290.456 141.969 290.323 142.082C290.196 142.196 290.028 142.253 289.819 142.253C289.61 142.253 289.443 142.196 289.316 142.082C289.189 141.969 289.126 141.82 289.126 141.636ZM290.361 143.156V148.389H289.278V143.156H290.361ZM294.596 143.07C295.204 143.07 295.691 143.266 296.059 143.659C296.426 144.052 296.609 144.612 296.609 145.34V148.389H295.527V145.454C295.527 144.985 295.406 144.625 295.166 144.371C294.925 144.112 294.596 143.982 294.178 143.982C293.748 143.982 293.403 144.121 293.143 144.4C292.883 144.672 292.754 145.074 292.754 145.606V148.389H291.671V143.156H292.754V144.305C292.893 143.912 293.127 143.608 293.456 143.393C293.786 143.178 294.166 143.07 294.596 143.07Z" fill="#5B5B5F"/>
<path d="M253.073 156.849C252.987 156.285 252.693 156.003 252.191 156.003C251.828 156.003 251.555 156.149 251.374 156.441C251.192 156.727 251.101 157.179 251.101 157.796L251.108 158.039C251.18 157.781 251.335 157.576 251.574 157.423C251.813 157.27 252.095 157.193 252.42 157.193C252.917 157.193 253.307 157.342 253.589 157.638C253.871 157.934 254.012 158.353 254.012 158.893C254.012 159.218 253.947 159.509 253.818 159.767C253.689 160.021 253.496 160.224 253.238 160.377C252.98 160.525 252.662 160.599 252.284 160.599C251.553 160.599 251.051 160.372 250.778 159.918C250.506 159.464 250.37 158.84 250.37 158.047C250.37 157.139 250.516 156.46 250.807 156.011C251.099 155.561 251.577 155.337 252.241 155.337C252.738 155.337 253.118 155.478 253.381 155.76C253.649 156.042 253.804 156.405 253.847 156.849H253.073ZM251.18 158.799C251.18 159.11 251.271 159.371 251.452 159.581C251.634 159.786 251.902 159.889 252.255 159.889C252.557 159.889 252.795 159.801 252.972 159.624C253.154 159.447 253.245 159.201 253.245 158.885C253.245 158.546 253.154 158.286 252.972 158.104C252.791 157.922 252.545 157.832 252.234 157.832C251.952 157.832 251.706 157.915 251.495 158.083C251.285 158.25 251.18 158.489 251.18 158.799ZM255.195 159.882C254.908 159.423 254.765 158.79 254.765 157.982C254.765 157.179 254.908 156.551 255.195 156.097C255.482 155.642 255.96 155.415 256.629 155.415C257.298 155.415 257.776 155.645 258.063 156.104C258.35 156.558 258.493 157.184 258.493 157.982C258.493 158.785 258.35 159.416 258.063 159.875C257.776 160.334 257.298 160.563 256.629 160.563C255.96 160.563 255.482 160.336 255.195 159.882ZM257.461 159.323C257.604 159.012 257.676 158.565 257.676 157.982C257.676 157.409 257.604 156.969 257.461 156.663C257.317 156.352 257.04 156.197 256.629 156.197C256.213 156.197 255.934 156.35 255.79 156.656C255.647 156.962 255.575 157.404 255.575 157.982C255.575 158.565 255.647 159.012 255.79 159.323C255.934 159.634 256.213 159.789 256.629 159.789C257.04 159.789 257.317 159.634 257.461 159.323ZM265.056 155.487V160.549H264.232V158.276H261.852V160.549H261.034V155.487H261.852V157.609H264.232V155.487H265.056ZM266.865 157.373C266.998 157.115 267.19 156.911 267.438 156.763C267.687 156.61 267.974 156.534 268.299 156.534V157.423H268.055C267.696 157.423 267.407 157.511 267.187 157.688C266.972 157.86 266.865 158.147 266.865 158.549V160.549H266.047V156.598H266.865V157.373ZM270.209 156.548C270.672 156.548 271.043 156.668 271.32 156.907C271.602 157.141 271.774 157.456 271.836 157.853H271.062C271.028 157.638 270.935 157.466 270.782 157.337C270.634 157.203 270.436 157.136 270.187 157.136C269.982 157.136 269.821 157.186 269.707 157.287C269.597 157.382 269.542 157.514 269.542 157.681C269.542 157.805 269.582 157.906 269.664 157.982C269.745 158.059 269.845 158.118 269.965 158.161C270.089 158.204 270.264 158.252 270.488 158.305C270.785 158.372 271.024 158.441 271.205 158.513C271.392 158.584 271.549 158.699 271.678 158.857C271.812 159.01 271.879 159.22 271.879 159.488C271.879 159.818 271.752 160.085 271.499 160.291C271.251 160.496 270.914 160.599 270.488 160.599C269.996 160.599 269.597 160.484 269.291 160.255C268.99 160.025 268.808 159.705 268.746 159.294H269.542C269.566 159.509 269.661 159.684 269.829 159.818C269.996 159.951 270.216 160.018 270.488 160.018C270.684 160.018 270.837 159.968 270.947 159.868C271.062 159.763 271.119 159.631 271.119 159.473C271.119 159.335 271.076 159.225 270.99 159.144C270.904 159.062 270.797 159 270.667 158.957C270.538 158.909 270.362 158.862 270.137 158.814C269.85 158.747 269.616 158.68 269.434 158.613C269.257 158.546 269.104 158.439 268.975 158.29C268.851 158.137 268.789 157.932 268.789 157.674C268.789 157.339 268.913 157.069 269.162 156.864C269.415 156.653 269.764 156.548 270.209 156.548ZM274.687 159.882C274.401 159.423 274.257 158.79 274.257 157.982C274.257 157.179 274.401 156.551 274.687 156.097C274.974 155.642 275.452 155.415 276.121 155.415C276.79 155.415 277.268 155.645 277.555 156.104C277.842 156.558 277.985 157.184 277.985 157.982C277.985 158.785 277.842 159.416 277.555 159.875C277.268 160.334 276.79 160.563 276.121 160.563C275.452 160.563 274.974 160.336 274.687 159.882ZM276.953 159.323C277.096 159.012 277.168 158.565 277.168 157.982C277.168 157.409 277.096 156.969 276.953 156.663C276.81 156.352 276.532 156.197 276.121 156.197C275.705 156.197 275.426 156.35 275.282 156.656C275.139 156.962 275.067 157.404 275.067 157.982C275.067 158.565 275.139 159.012 275.282 159.323C275.426 159.634 275.705 159.789 276.121 159.789C276.532 159.789 276.81 159.634 276.953 159.323ZM279.154 159.882C278.868 159.423 278.724 158.79 278.724 157.982C278.724 157.179 278.868 156.551 279.154 156.097C279.441 155.642 279.919 155.415 280.588 155.415C281.257 155.415 281.735 155.645 282.022 156.104C282.309 156.558 282.452 157.184 282.452 157.982C282.452 158.785 282.309 159.416 282.022 159.875C281.735 160.334 281.257 160.563 280.588 160.563C279.919 160.563 279.441 160.336 279.154 159.882ZM281.42 159.323C281.563 159.012 281.635 158.565 281.635 157.982C281.635 157.409 281.563 156.969 281.42 156.663C281.276 156.352 280.999 156.197 280.588 156.197C280.172 156.197 279.893 156.35 279.749 156.656C279.606 156.962 279.534 157.404 279.534 157.982C279.534 158.565 279.606 159.012 279.749 159.323C279.893 159.634 280.172 159.789 280.588 159.789C280.999 159.789 281.276 159.634 281.42 159.323ZM290.241 155.566V160.549H289.417V156.814L287.976 160.549H287.259L285.811 156.814V160.549H284.993V155.566H285.983L287.632 159.545L289.252 155.566H290.241ZM291.11 155.451C291.11 155.313 291.158 155.198 291.253 155.107C291.349 155.016 291.476 154.971 291.633 154.971C291.791 154.971 291.918 155.016 292.013 155.107C292.114 155.198 292.164 155.313 292.164 155.451C292.164 155.59 292.114 155.702 292.013 155.788C291.918 155.874 291.791 155.917 291.633 155.917C291.476 155.917 291.349 155.874 291.253 155.788C291.158 155.702 291.11 155.59 291.11 155.451ZM292.042 156.598V160.549H291.225V156.598H292.042ZM295.239 156.534C295.698 156.534 296.066 156.682 296.343 156.978C296.621 157.275 296.759 157.698 296.759 158.247V160.549H295.942V158.333C295.942 157.98 295.851 157.707 295.669 157.516C295.488 157.32 295.239 157.222 294.924 157.222C294.599 157.222 294.338 157.327 294.142 157.538C293.946 157.743 293.848 158.047 293.848 158.448V160.549H293.031V156.598H293.848V157.466C293.954 157.17 294.13 156.94 294.379 156.778C294.627 156.615 294.914 156.534 295.239 156.534Z" fill="#86878A"/>
<path d="M21.0898 30.1418C21.0898 23.9884 26.0782 19 32.2316 19H308.774C314.928 19 319.916 23.9884 319.916 30.1418V49.2609H21.0898V30.1418Z" fill="#003366"/>
<path d="M36.287 30.1982V37.1309H34.8926V34.1162H31.9271V37.1309H30.5425V30.1982H31.9271V33.0066H34.8926V30.1982H36.287ZM40.0566 31.6221C40.5869 31.6221 41.0615 31.7333 41.4805 31.9559C41.906 32.1785 42.2399 32.5026 42.4821 32.9281C42.7243 33.347 42.8454 33.8413 42.8454 34.4108C42.8454 34.9804 42.7243 35.4746 42.4821 35.8936C42.2399 36.3126 41.906 36.6366 41.4805 36.8657C41.0615 37.0883 40.5869 37.1996 40.0566 37.1996C39.5264 37.1996 39.0485 37.0883 38.623 36.8657C38.204 36.6366 37.8734 36.3126 37.6312 35.8936C37.389 35.4746 37.2679 34.9804 37.2679 34.4108C37.2679 33.8413 37.389 33.347 37.6312 32.9281C37.8734 32.5026 38.204 32.1785 38.623 31.9559C39.0485 31.7333 39.5264 31.6221 40.0566 31.6221ZM40.0566 32.8201C39.6704 32.8201 39.3431 32.9575 39.0747 33.2325C38.8063 33.5009 38.6721 33.8937 38.6721 34.4108C38.6721 34.928 38.8063 35.3241 39.0747 35.599C39.3431 35.8674 39.6704 36.0016 40.0566 36.0016C40.4429 36.0016 40.7702 35.8674 41.0386 35.599C41.307 35.3241 41.4412 34.928 41.4412 34.4108C41.4412 33.8937 41.307 33.5009 41.0386 33.2325C40.7702 32.9575 40.4429 32.8201 40.0566 32.8201ZM49.0283 31.6908V37.1309H47.6437V36.0311C47.4997 36.3977 47.2608 36.6857 46.9269 36.8952C46.5996 37.0981 46.2199 37.1996 45.7878 37.1996C45.1594 37.1996 44.6586 36.9934 44.2854 36.581C43.9123 36.1685 43.7257 35.5925 43.7257 34.8527V31.6908H45.1005V34.6956C45.1005 35.1277 45.2118 35.4648 45.4343 35.707C45.6569 35.9427 45.958 36.0605 46.3377 36.0605C46.7371 36.0605 47.0546 35.9329 47.2902 35.6776C47.5259 35.4222 47.6437 35.0556 47.6437 34.5778V31.6908H49.0283ZM51.6718 32.7317C51.8747 32.3847 52.1431 32.113 52.477 31.9166C52.8108 31.7137 53.184 31.6122 53.5964 31.6122V33.095H53.1938C52.1791 33.095 51.6718 33.5663 51.6718 34.509V37.1309H50.2872V31.6908H51.6718V32.7317ZM56.2383 31.6221C56.8995 31.6221 57.4297 31.789 57.8291 32.1229C58.2284 32.4567 58.4771 32.9019 58.5753 33.4583H57.2792C57.2268 33.1965 57.1089 32.987 56.9256 32.8299C56.7423 32.6728 56.5034 32.5942 56.2088 32.5942C55.9731 32.5942 55.7898 32.6498 55.6589 32.7611C55.528 32.8724 55.4625 33.023 55.4625 33.2128C55.4625 33.3634 55.5149 33.4845 55.6196 33.5762C55.7244 33.6678 55.8553 33.7398 56.0124 33.7922C56.1695 33.8446 56.3954 33.9068 56.69 33.9788C57.1024 34.0704 57.4363 34.1686 57.6916 34.2734C57.9534 34.3716 58.176 34.5319 58.3593 34.7545C58.5492 34.9705 58.6441 35.2651 58.6441 35.6383C58.6441 36.1031 58.4608 36.4795 58.0942 36.7675C57.7341 37.0556 57.2464 37.1996 56.6311 37.1996C55.924 37.1996 55.3578 37.0425 54.9323 36.7283C54.5068 36.4075 54.2482 35.9525 54.1565 35.3633H55.4822C55.5149 35.6317 55.6327 35.8445 55.8357 36.0016C56.0386 36.1522 56.3037 36.2275 56.6311 36.2275C56.8667 36.2275 57.0468 36.1718 57.1711 36.0605C57.2955 35.9427 57.3577 35.7921 57.3577 35.6088C57.3577 35.4517 57.3021 35.3241 57.1908 35.2259C57.086 35.1277 56.9518 35.0524 56.7882 35C56.6311 34.9476 56.4052 34.8854 56.1106 34.8134C55.7047 34.7218 55.3741 34.6301 55.1188 34.5385C54.8701 34.4403 54.654 34.2864 54.4707 34.077C54.294 33.8675 54.2056 33.5794 54.2056 33.2128C54.2056 32.7415 54.3856 32.3585 54.7457 32.0639C55.1057 31.7694 55.6033 31.6221 56.2383 31.6221ZM64.3276 31.6221C64.8578 31.6221 65.3324 31.7333 65.7514 31.9559C66.1769 32.1785 66.5108 32.5026 66.753 32.9281C66.9952 33.347 67.1163 33.8413 67.1163 34.4108C67.1163 34.9804 66.9952 35.4746 66.753 35.8936C66.5108 36.3126 66.1769 36.6366 65.7514 36.8657C65.3324 37.0883 64.8578 37.1996 64.3276 37.1996C63.7973 37.1996 63.3194 37.0883 62.8939 36.8657C62.4749 36.6366 62.1443 36.3126 61.9021 35.8936C61.6599 35.4746 61.5388 34.9804 61.5388 34.4108C61.5388 33.8413 61.6599 33.347 61.9021 32.9281C62.1443 32.5026 62.4749 32.1785 62.8939 31.9559C63.3194 31.7333 63.7973 31.6221 64.3276 31.6221ZM64.3276 32.8201C63.9413 32.8201 63.614 32.9575 63.3456 33.2325C63.0772 33.5009 62.943 33.8937 62.943 34.4108C62.943 34.928 63.0772 35.3241 63.3456 35.599C63.614 35.8674 63.9413 36.0016 64.3276 36.0016C64.7138 36.0016 65.0411 35.8674 65.3095 35.599C65.5779 35.3241 65.7121 34.928 65.7121 34.4108C65.7121 33.8937 65.5779 33.5009 65.3095 33.2325C65.0411 32.9575 64.7138 32.8201 64.3276 32.8201ZM70.7854 30.7481C70.3795 30.7219 70.0948 30.7808 69.9311 30.9249C69.7674 31.0689 69.6856 31.3209 69.6856 31.681V31.6908H70.7854V32.8593H69.6856V37.1309H68.301V32.8593H67.6039V31.6908H68.301V31.5631C68.301 30.915 68.4843 30.4175 68.8509 30.0706C69.2241 29.7171 69.774 29.5403 70.5006 29.5403C70.625 29.5403 70.7199 29.5436 70.7854 29.5501V30.7481ZM78.5151 35.2357C78.5151 35.5892 78.4267 35.9165 78.25 36.2176C78.0732 36.5122 77.8114 36.7512 77.4644 36.9345C77.1175 37.1112 76.6952 37.1996 76.1977 37.1996C75.7067 37.1996 75.2681 37.1178 74.8819 36.9541C74.4956 36.7839 74.1847 36.5417 73.949 36.2275C73.7199 35.9132 73.589 35.5466 73.5562 35.1277H75.0292C75.0619 35.4092 75.1732 35.6448 75.363 35.8347C75.5594 36.018 75.818 36.1096 76.1388 36.1096C76.4268 36.1096 76.6461 36.0343 76.7967 35.8838C76.9538 35.7267 77.0324 35.527 77.0324 35.2848C77.0324 35.0687 76.9702 34.892 76.8458 34.7545C76.7214 34.6105 76.5643 34.4959 76.3745 34.4108C76.1846 34.3257 75.9227 34.2275 75.5889 34.1162C75.1568 33.9722 74.8033 33.8315 74.5284 33.694C74.2534 33.55 74.0177 33.3438 73.8214 33.0754C73.6315 32.807 73.5366 32.4567 73.5366 32.0247C73.5366 31.4289 73.7493 30.9609 74.1749 30.6205C74.6069 30.2735 75.1765 30.1 75.8835 30.1C76.6167 30.1 77.1993 30.2768 77.6314 30.6303C78.07 30.9838 78.3187 31.4551 78.3776 32.0443H76.8851C76.8458 31.7955 76.741 31.5926 76.5708 31.4355C76.4006 31.2718 76.1682 31.19 75.8737 31.19C75.6183 31.19 75.4121 31.2587 75.255 31.3962C75.0979 31.5271 75.0193 31.7203 75.0193 31.9756C75.0193 32.1785 75.0783 32.3487 75.1961 32.4862C75.3205 32.6171 75.4743 32.7251 75.6576 32.8102C75.8475 32.8953 76.1028 32.9903 76.4235 33.095C76.8687 33.2521 77.2288 33.3994 77.5037 33.5369C77.7852 33.6744 78.0241 33.8806 78.2205 34.1555C78.4169 34.4305 78.5151 34.7905 78.5151 35.2357ZM84.6511 34.2046C84.6511 34.3421 84.6347 34.4992 84.602 34.676H80.6152C80.6349 35.1604 80.7658 35.5172 81.008 35.7463C81.2502 35.9754 81.5513 36.09 81.9114 36.09C82.2322 36.09 82.4973 36.0114 82.7068 35.8543C82.9228 35.6972 83.0603 35.4844 83.1192 35.216H84.5823C84.5103 35.5957 84.3565 35.9361 84.1208 36.2373C83.8851 36.5384 83.5807 36.7741 83.2076 36.9443C82.841 37.1145 82.4318 37.1996 81.9801 37.1996C81.4499 37.1996 80.9785 37.0883 80.5661 36.8657C80.1537 36.6366 79.8329 36.3126 79.6038 35.8936C79.3747 35.4746 79.2601 34.9804 79.2601 34.4108C79.2601 33.8413 79.3747 33.347 79.6038 32.9281C79.8329 32.5026 80.1537 32.1785 80.5661 31.9559C80.9785 31.7333 81.4499 31.6221 81.9801 31.6221C82.5169 31.6221 82.985 31.7333 83.3843 31.9559C83.7902 32.1785 84.1012 32.4862 84.3172 32.879C84.5398 33.2652 84.6511 33.7071 84.6511 34.2046ZM83.2567 34.0671C83.2763 33.622 83.1585 33.2848 82.9032 33.0557C82.6544 32.8266 82.3467 32.712 81.9801 32.712C81.607 32.712 81.2928 32.8266 81.0375 33.0557C80.7821 33.2848 80.6414 33.622 80.6152 34.0671H83.2567ZM87.0185 32.7317C87.2215 32.3847 87.4899 32.113 87.8237 31.9166C88.1576 31.7137 88.5307 31.6122 88.9432 31.6122V33.095H88.5406C87.5259 33.095 87.0185 33.5663 87.0185 34.509V37.1309H85.634V31.6908H87.0185V32.7317ZM92.076 35.7463L93.4507 31.6908H94.9237L92.9107 37.1309H91.2217L89.2087 31.6908H90.6914L92.076 35.7463ZM95.5362 30.1295C95.5362 29.9069 95.6147 29.7269 95.7719 29.5894C95.929 29.4454 96.1352 29.3734 96.3905 29.3734C96.6458 29.3734 96.852 29.4454 97.0091 29.5894C97.1662 29.7269 97.2448 29.9069 97.2448 30.1295C97.2448 30.3455 97.1662 30.5255 97.0091 30.6696C96.852 30.807 96.6458 30.8758 96.3905 30.8758C96.1352 30.8758 95.929 30.807 95.7719 30.6696C95.6147 30.5255 95.5362 30.3455 95.5362 30.1295ZM97.0779 31.6908V37.1309H95.6933V31.6908H97.0779ZM100.775 31.6221C101.476 31.6221 102.059 31.8119 102.523 32.1916C102.995 32.5713 103.289 33.0885 103.407 33.7431H101.944C101.885 33.4551 101.751 33.2292 101.541 33.0655C101.332 32.8953 101.067 32.8102 100.746 32.8102C100.379 32.8102 100.072 32.9477 99.823 33.2227C99.5808 33.4911 99.4597 33.8871 99.4597 34.4108C99.4597 34.9345 99.5808 35.3339 99.823 35.6088C100.072 35.8772 100.379 36.0114 100.746 36.0114C101.067 36.0114 101.332 35.9296 101.541 35.7659C101.751 35.5957 101.885 35.3666 101.944 35.0786H103.407C103.289 35.7332 102.995 36.2504 102.523 36.6301C102.059 37.0098 101.476 37.1996 100.775 37.1996C100.245 37.1996 99.7739 37.0883 99.3615 36.8657C98.949 36.6366 98.6283 36.3126 98.3991 35.8936C98.17 35.4746 98.0554 34.9804 98.0554 34.4108C98.0554 33.8413 98.17 33.347 98.3991 32.9281C98.6283 32.5026 98.949 32.1785 99.3615 31.9559C99.7739 31.7333 100.245 31.6221 100.775 31.6221ZM109.507 34.2046C109.507 34.3421 109.491 34.4992 109.458 34.676H105.471C105.491 35.1604 105.622 35.5172 105.864 35.7463C106.106 35.9754 106.407 36.09 106.767 36.09C107.088 36.09 107.353 36.0114 107.563 35.8543C107.779 35.6972 107.916 35.4844 107.975 35.216H109.438C109.366 35.5957 109.212 35.9361 108.977 36.2373C108.741 36.5384 108.437 36.7741 108.063 36.9443C107.697 37.1145 107.288 37.1996 106.836 37.1996C106.306 37.1996 105.834 37.0883 105.422 36.8657C105.01 36.6366 104.689 36.3126 104.46 35.8936C104.231 35.4746 104.116 34.9804 104.116 34.4108C104.116 33.8413 104.231 33.347 104.46 32.9281C104.689 32.5026 105.01 32.1785 105.422 31.9559C105.834 31.7333 106.306 31.6221 106.836 31.6221C107.373 31.6221 107.841 31.7333 108.24 31.9559C108.646 32.1785 108.957 32.4862 109.173 32.879C109.396 33.2652 109.507 33.7071 109.507 34.2046ZM108.113 34.0671C108.132 33.622 108.014 33.2848 107.759 33.0557C107.51 32.8266 107.203 32.712 106.836 32.712C106.463 32.712 106.149 32.8266 105.893 33.0557C105.638 33.2848 105.497 33.622 105.471 34.0671H108.113Z" fill="white"/>
<path d="M304.211 31.5177C304.211 31.9988 303.821 32.3888 303.34 32.3888C302.859 32.3888 302.469 31.9988 302.469 31.5177C302.469 31.0365 302.859 30.6465 303.34 30.6465C303.821 30.6465 304.211 31.0365 304.211 31.5177Z" fill="white"/>
<path d="M304.211 34.1312C304.211 34.6123 303.821 35.0024 303.34 35.0024C302.859 35.0024 302.469 34.6123 302.469 34.1312C302.469 33.6501 302.859 33.26 303.34 33.26C303.821 33.26 304.211 33.6501 304.211 34.1312Z" fill="white"/>
<path d="M303.34 37.6159C303.821 37.6159 304.211 37.2259 304.211 36.7447C304.211 36.2636 303.821 35.8735 303.34 35.8735C302.859 35.8735 302.469 36.2636 302.469 36.7447C302.469 37.2259 302.859 37.6159 303.34 37.6159Z" fill="white"/>
<defs>
<filter id="filter0_d_6522_8922" x="0.109121" y="0.894572" width="340.606" height="215.782" filterUnits="userSpaceOnUse" color-interpolation-filters="sRGB">
<feFlood flood-opacity="0" result="BackgroundImageFix"/>
<feColorMatrix in="SourceAlpha" type="matrix" values="0 0 0 0 0 0 0 0 0 0 0 0 0 0 0 0 0 0 127 0" result="hardAlpha"/>
<feOffset dy="2.78545"/>
<feGaussianBlur stdDeviation="10.4454"/>
<feComposite in2="hardAlpha" operator="out"/>
<feColorMatrix type="matrix" values="0 0 0 0 0.101961 0 0 0 0 0.109804 0 0 0 0 0.129412 0 0 0 0.07 0"/>
<feBlend mode="normal" in2="BackgroundImageFix" result="effect1_dropShadow_6522_8922"/>
<feBlend mode="normal" in="SourceGraphic" in2="effect1_dropShadow_6522_8922" result="shape"/>
</filter>
</defs>
</svg>
