<svg width="351" height="223" viewBox="0 0 351 223" fill="none" xmlns="http://www.w3.org/2000/svg">
<g filter="url(#filter0_d_6524_9502)">
<rect x="21.7109" y="19.0059" width="307.403" height="178.994" rx="11.4616" fill="white"/>
</g>
<path d="M21.8047 30.4675C21.8047 24.1374 26.9362 19.0059 33.2663 19.0059H317.746C324.076 19.0059 329.208 24.1374 329.208 30.4675V50.1353H21.8047V30.4675Z" fill="#003366"/>
<path d="M32.9497 35.9237V38.5703H31.5254V31.4387H34.1215C34.9633 31.4387 35.5963 31.6407 36.0205 32.0448C36.4515 32.4488 36.667 32.9977 36.667 33.6913C36.667 34.3715 36.4448 34.9136 36.0003 35.3176C35.5626 35.7217 34.9363 35.9237 34.1215 35.9237H32.9497ZM33.9699 34.7823C34.805 34.7823 35.2225 34.4186 35.2225 33.6913C35.2225 33.3344 35.1249 33.0617 34.9296 32.8731C34.7343 32.6845 34.4144 32.5903 33.9699 32.5903H32.9497V34.7823H33.9699ZM42.855 35.5601C42.855 35.7015 42.8382 35.8631 42.8045 36.045H38.7033C38.7235 36.5433 38.8582 36.9103 39.1074 37.146C39.3566 37.3817 39.6663 37.4996 40.0367 37.4996C40.3667 37.4996 40.6395 37.4187 40.855 37.2571C41.0772 37.0955 41.2186 36.8766 41.2792 36.6005H42.7843C42.7103 36.9911 42.552 37.3413 42.3096 37.6511C42.0671 37.9609 41.754 38.2033 41.3701 38.3784C40.993 38.5535 40.5721 38.641 40.1074 38.641C39.562 38.641 39.0771 38.5265 38.6528 38.2976C38.2286 38.0619 37.8986 37.7285 37.6629 37.2975C37.4272 36.8665 37.3093 36.3581 37.3093 35.7722C37.3093 35.1863 37.4272 34.6779 37.6629 34.2469C37.8986 33.8092 38.2286 33.4758 38.6528 33.2469C39.0771 33.0179 39.562 32.9034 40.1074 32.9034C40.6597 32.9034 41.1412 33.0179 41.552 33.2469C41.9695 33.4758 42.2894 33.7923 42.5116 34.1964C42.7406 34.5937 42.855 35.0483 42.855 35.5601ZM41.4206 35.4187C41.4408 34.9607 41.3196 34.6139 41.057 34.3782C40.8011 34.1425 40.4846 34.0247 40.1074 34.0247C39.7236 34.0247 39.4003 34.1425 39.1377 34.3782C38.8751 34.6139 38.7303 34.9607 38.7033 35.4187H41.4206ZM45.2904 34.0449C45.4992 33.6879 45.7753 33.4085 46.1188 33.2064C46.4622 32.9977 46.8461 32.8933 47.2703 32.8933V34.4186H46.8562C45.8123 34.4186 45.2904 34.9035 45.2904 35.8732V38.5703H43.8661V32.9741H45.2904V34.0449ZM55.1801 32.8933C55.8603 32.8933 56.3957 33.1054 56.7863 33.5297C57.1836 33.9472 57.3823 34.5432 57.3823 35.3176V38.5703H55.9681V35.4793C55.9681 35.0483 55.8569 34.7183 55.6347 34.4893C55.4192 34.2536 55.1195 34.1358 54.7357 34.1358C54.3384 34.1358 54.0218 34.2604 53.7861 34.5095C53.5504 34.7587 53.4326 35.1224 53.4326 35.6005V38.5703H52.0184V35.4793C52.0184 35.0483 51.9073 34.7183 51.685 34.4893C51.4695 34.2536 51.1699 34.1358 50.786 34.1358C50.3887 34.1358 50.0722 34.2604 49.8365 34.5095C49.6008 34.7587 49.4829 35.1224 49.4829 35.6005V38.5703H48.0586V32.9741H49.4829V34.0348C49.6311 33.6711 49.8634 33.3916 50.1799 33.1963C50.5032 32.9943 50.8769 32.8933 51.3012 32.8933C51.7524 32.8933 52.143 33.001 52.473 33.2165C52.8097 33.432 53.0622 33.7418 53.2306 34.1459C53.4057 33.762 53.6649 33.459 54.0084 33.2367C54.3586 33.0078 54.7491 32.8933 55.1801 32.8933ZM58.472 31.368C58.472 31.139 58.5528 30.9538 58.7144 30.8124C58.876 30.6642 59.0881 30.5902 59.3508 30.5902C59.6134 30.5902 59.8255 30.6642 59.9872 30.8124C60.1488 30.9538 60.2296 31.139 60.2296 31.368C60.2296 31.5902 60.1488 31.7754 59.9872 31.9236C59.8255 32.065 59.6134 32.1357 59.3508 32.1357C59.0881 32.1357 58.876 32.065 58.7144 31.9236C58.5528 31.7754 58.472 31.5902 58.472 31.368ZM60.0579 32.9741V38.5703H58.6336V32.9741H60.0579ZM63.2757 32.9034C63.9559 32.9034 64.5014 33.0751 64.9122 33.4186C65.323 33.762 65.5789 34.22 65.6799 34.7924H64.3465C64.2926 34.523 64.1714 34.3075 63.9828 34.1459C63.7943 33.9843 63.5485 33.9034 63.2454 33.9034C63.003 33.9034 62.8144 33.9607 62.6798 34.0752C62.5451 34.1897 62.4777 34.3445 62.4777 34.5398C62.4777 34.6947 62.5316 34.8193 62.6394 34.9136C62.7471 35.0079 62.8818 35.0819 63.0434 35.1358C63.205 35.1897 63.4374 35.2537 63.7404 35.3277C64.1647 35.422 64.5081 35.523 64.7708 35.6308C65.0401 35.7318 65.2691 35.8968 65.4577 36.1258C65.653 36.348 65.7506 36.651 65.7506 37.0349C65.7506 37.513 65.562 37.9002 65.1849 38.1966C64.8145 38.4929 64.3128 38.641 63.6798 38.641C62.9525 38.641 62.37 38.4794 61.9323 38.1562C61.4945 37.8262 61.2285 37.3581 61.1342 36.7521H62.4979C62.5316 37.0282 62.6528 37.247 62.8616 37.4086C63.0703 37.5635 63.3431 37.641 63.6798 37.641C63.9222 37.641 64.1074 37.5837 64.2354 37.4693C64.3633 37.348 64.4273 37.1931 64.4273 37.0046C64.4273 36.843 64.3701 36.7116 64.2556 36.6106C64.1478 36.5096 64.0098 36.4322 63.8414 36.3783C63.6798 36.3244 63.4475 36.2604 63.1444 36.1864C62.7269 36.0921 62.3868 35.9978 62.1242 35.9035C61.8683 35.8025 61.646 35.6443 61.4575 35.4288C61.2757 35.2133 61.1847 34.917 61.1847 34.5398C61.1847 34.055 61.3699 33.661 61.7403 33.358C62.1107 33.0549 62.6225 32.9034 63.2757 32.9034ZM68.7408 32.9034C69.4209 32.9034 69.9664 33.0751 70.3772 33.4186C70.788 33.762 71.0439 34.22 71.1449 34.7924H69.8115C69.7577 34.523 69.6364 34.3075 69.4479 34.1459C69.2593 33.9843 69.0135 33.9034 68.7105 33.9034C68.468 33.9034 68.2795 33.9607 68.1448 34.0752C68.0101 34.1897 67.9428 34.3445 67.9428 34.5398C67.9428 34.6947 67.9966 34.8193 68.1044 34.9136C68.2121 35.0079 68.3468 35.0819 68.5084 35.1358C68.6701 35.1897 68.9024 35.2537 69.2054 35.3277C69.6297 35.422 69.9732 35.523 70.2358 35.6308C70.5052 35.7318 70.7341 35.8968 70.9227 36.1258C71.118 36.348 71.2156 36.651 71.2156 37.0349C71.2156 37.513 71.0271 37.9002 70.65 38.1966C70.2796 38.4929 69.7779 38.641 69.1448 38.641C68.4175 38.641 67.835 38.4794 67.3973 38.1562C66.9596 37.8262 66.6936 37.3581 66.5993 36.7521H67.963C67.9966 37.0282 68.1179 37.247 68.3266 37.4086C68.5354 37.5635 68.8081 37.641 69.1448 37.641C69.3873 37.641 69.5725 37.5837 69.7004 37.4693C69.8284 37.348 69.8923 37.1931 69.8923 37.0046C69.8923 36.843 69.8351 36.7116 69.7206 36.6106C69.6129 36.5096 69.4748 36.4322 69.3065 36.3783C69.1448 36.3244 68.9125 36.2604 68.6095 36.1864C68.1919 36.0921 67.8519 35.9978 67.5892 35.9035C67.3333 35.8025 67.1111 35.6443 66.9225 35.4288C66.7407 35.2133 66.6498 34.917 66.6498 34.5398C66.6498 34.055 66.835 33.661 67.2054 33.358C67.5757 33.0549 68.0876 32.9034 68.7408 32.9034ZM72.1148 31.368C72.1148 31.139 72.1956 30.9538 72.3573 30.8124C72.5189 30.6642 72.731 30.5902 72.9937 30.5902C73.2563 30.5902 73.4684 30.6642 73.63 30.8124C73.7917 30.9538 73.8725 31.139 73.8725 31.368C73.8725 31.5902 73.7917 31.7754 73.63 31.9236C73.4684 32.065 73.2563 32.1357 72.9937 32.1357C72.731 32.1357 72.5189 32.065 72.3573 31.9236C72.1956 31.7754 72.1148 31.5902 72.1148 31.368ZM73.7008 32.9741V38.5703H72.2764V32.9741H73.7008ZM77.5752 32.9034C78.1207 32.9034 78.6089 33.0179 79.0399 33.2469C79.4776 33.4758 79.8211 33.8092 80.0703 34.2469C80.3194 34.6779 80.444 35.1863 80.444 35.7722C80.444 36.3581 80.3194 36.8665 80.0703 37.2975C79.8211 37.7285 79.4776 38.0619 79.0399 38.2976C78.6089 38.5265 78.1207 38.641 77.5752 38.641C77.0297 38.641 76.5381 38.5265 76.1004 38.2976C75.6694 38.0619 75.3293 37.7285 75.0802 37.2975C74.831 36.8665 74.7064 36.3581 74.7064 35.7722C74.7064 35.1863 74.831 34.6779 75.0802 34.2469C75.3293 33.8092 75.6694 33.4758 76.1004 33.2469C76.5381 33.0179 77.0297 32.9034 77.5752 32.9034ZM77.5752 34.1358C77.1779 34.1358 76.8412 34.2772 76.5651 34.56C76.289 34.8361 76.1509 35.2402 76.1509 35.7722C76.1509 36.3042 76.289 36.7116 76.5651 36.9945C76.8412 37.2706 77.1779 37.4086 77.5752 37.4086C77.9725 37.4086 78.3092 37.2706 78.5854 36.9945C78.8615 36.7116 78.9995 36.3042 78.9995 35.7722C78.9995 35.2402 78.8615 34.8361 78.5854 34.56C78.3092 34.2772 77.9725 34.1358 77.5752 34.1358ZM84.7841 32.8933C85.4306 32.8933 85.9458 33.1054 86.3296 33.5297C86.7135 33.954 86.9054 34.5499 86.9054 35.3176V38.5703H85.4912V35.4793C85.4912 35.0348 85.3767 34.6914 85.1477 34.4489C84.9188 34.1998 84.6056 34.0752 84.2083 34.0752C83.8042 34.0752 83.481 34.2065 83.2386 34.4691C82.9961 34.7318 82.8749 35.1089 82.8749 35.6005V38.5703H81.4506V32.9741H82.8749V34.0954C83.0231 33.7183 83.2655 33.4253 83.6022 33.2165C83.9457 33.001 84.3396 32.8933 84.7841 32.8933ZM90.088 32.9034C90.7681 32.9034 91.3136 33.0751 91.7244 33.4186C92.1352 33.762 92.3911 34.22 92.4921 34.7924H91.1587C91.1049 34.523 90.9836 34.3075 90.7951 34.1459C90.6065 33.9843 90.3607 33.9034 90.0577 33.9034C89.8152 33.9034 89.6267 33.9607 89.492 34.0752C89.3573 34.1897 89.29 34.3445 89.29 34.5398C89.29 34.6947 89.3438 34.8193 89.4516 34.9136C89.5593 35.0079 89.694 35.0819 89.8556 35.1358C90.0173 35.1897 90.2496 35.2537 90.5526 35.3277C90.9769 35.422 91.3204 35.523 91.583 35.6308C91.8524 35.7318 92.0813 35.8968 92.2699 36.1258C92.4652 36.348 92.5628 36.651 92.5628 37.0349C92.5628 37.513 92.3743 37.9002 91.9972 38.1966C91.6268 38.4929 91.1251 38.641 90.492 38.641C89.7647 38.641 89.1822 38.4794 88.7445 38.1562C88.3068 37.8262 88.0408 37.3581 87.9465 36.7521H89.3102C89.3438 37.0282 89.4651 37.247 89.6738 37.4086C89.8826 37.5635 90.1553 37.641 90.492 37.641C90.7345 37.641 90.9197 37.5837 91.0476 37.4693C91.1756 37.348 91.2395 37.1931 91.2395 37.0046C91.2395 36.843 91.1823 36.7116 91.0678 36.6106C90.9601 36.5096 90.822 36.4322 90.6537 36.3783C90.492 36.3244 90.2597 36.2604 89.9567 36.1864C89.5391 36.0921 89.1991 35.9978 88.9364 35.9035C88.6805 35.8025 88.4583 35.6443 88.2697 35.4288C88.0879 35.2133 87.997 34.917 87.997 34.5398C87.997 34.055 88.1822 33.661 88.5526 33.358C88.9229 33.0549 89.4348 32.9034 90.088 32.9034Z" fill="white"/>
<path d="M313.046 31.8825C313.046 32.3775 312.645 32.7787 312.15 32.7787C311.655 32.7787 311.254 32.3775 311.254 31.8825C311.254 31.3876 311.655 30.9863 312.15 30.9863C312.645 30.9863 313.046 31.3876 313.046 31.8825Z" fill="white"/>
<path d="M313.046 34.571C313.046 35.066 312.645 35.4672 312.15 35.4672C311.655 35.4672 311.254 35.066 311.254 34.571C311.254 34.0761 311.655 33.6749 312.15 33.6749C312.645 33.6749 313.046 34.0761 313.046 34.571Z" fill="white"/>
<path d="M312.15 38.1558C312.645 38.1558 313.046 37.7545 313.046 37.2596C313.046 36.7646 312.645 36.3634 312.15 36.3634C311.655 36.3634 311.254 36.7646 311.254 37.2596C311.254 37.7545 311.655 38.1558 312.15 38.1558Z" fill="white"/>
<path d="M40.7303 73.7159V78.6133H39.9199V74.942L38.5035 78.6133H37.7989L36.3755 74.942V78.6133H35.5722V73.7159H36.5446L38.1653 77.6268L39.7578 73.7159H40.7303ZM43.2539 74.6813C43.6063 74.6813 43.9069 74.7682 44.1559 74.942C44.4049 75.1158 44.5811 75.346 44.6844 75.6326V74.7306H45.4877V78.6133H44.6844V77.7113C44.5811 77.9979 44.4049 78.2281 44.1559 78.4019C43.9069 78.5757 43.6063 78.6626 43.2539 78.6626C42.9157 78.6626 42.6127 78.5827 42.3449 78.423C42.0819 78.2633 41.8752 78.0331 41.7248 77.7325C41.5745 77.4318 41.4993 77.0771 41.4993 76.6684C41.4993 76.2644 41.5745 75.9121 41.7248 75.6114C41.8752 75.3108 42.0819 75.0806 42.3449 74.9209C42.6127 74.7611 42.9157 74.6813 43.2539 74.6813ZM43.5006 75.3859C43.1436 75.3859 42.857 75.501 42.6409 75.7312C42.4295 75.9567 42.3238 76.2691 42.3238 76.6684C42.3238 77.0677 42.4295 77.3825 42.6409 77.6127C42.857 77.8382 43.1436 77.9509 43.5006 77.9509C43.7261 77.9509 43.9281 77.8992 44.1066 77.7959C44.2851 77.6878 44.426 77.5375 44.5294 77.3449C44.6327 77.1523 44.6844 76.9268 44.6844 76.6684C44.6844 76.4147 44.6327 76.1916 44.5294 75.999C44.426 75.8017 44.2851 75.6514 44.1066 75.548C43.9281 75.44 43.7261 75.3859 43.5006 75.3859ZM48.6785 74.6813C49.0167 74.6813 49.3174 74.7611 49.5804 74.9209C49.8482 75.0806 50.0572 75.3108 50.2076 75.6114C50.3579 75.9121 50.4331 76.2644 50.4331 76.6684C50.4331 77.0771 50.3579 77.4318 50.2076 77.7325C50.0572 78.0331 49.8482 78.2633 49.5804 78.423C49.3174 78.5827 49.0167 78.6626 48.6785 78.6626C48.3261 78.6626 48.0255 78.5757 47.7765 78.4019C47.5275 78.2281 47.3537 77.9979 47.255 77.7113V80.4595H46.4517V74.7306H47.255V75.6326C47.3537 75.346 47.5275 75.1158 47.7765 74.942C48.0255 74.7682 48.3261 74.6813 48.6785 74.6813ZM48.4318 75.3859C48.2063 75.3859 48.0043 75.44 47.8258 75.548C47.6473 75.6514 47.5064 75.8017 47.403 75.999C47.2997 76.1916 47.248 76.4147 47.248 76.6684C47.248 76.9268 47.2997 77.1523 47.403 77.3449C47.5064 77.5375 47.6473 77.6878 47.8258 77.7959C48.0043 77.8992 48.2063 77.9509 48.4318 77.9509C48.7889 77.9509 49.0754 77.8382 49.2915 77.6127C49.5076 77.3825 49.6157 77.0677 49.6157 76.6684C49.6157 76.2738 49.5076 75.9614 49.2915 75.7312C49.0754 75.501 48.7889 75.3859 48.4318 75.3859ZM53.3587 73.6384L54.7891 77.7536L56.2266 73.6384H57.1004L55.3035 78.6133H54.2747L52.4849 73.6384H53.3587ZM57.5833 73.6031C57.5833 73.4669 57.6303 73.3542 57.7242 73.2649C57.8182 73.1756 57.9427 73.131 58.0977 73.131C58.2527 73.131 58.3772 73.1756 58.4712 73.2649C58.5698 73.3542 58.6191 73.4669 58.6191 73.6031C58.6191 73.7394 58.5698 73.8498 58.4712 73.9343C58.3772 74.0189 58.2527 74.0612 58.0977 74.0612C57.9427 74.0612 57.8182 74.0189 57.7242 73.9343C57.6303 73.8498 57.5833 73.7394 57.5833 73.6031ZM58.4993 74.7306V78.6133H57.696V74.7306H58.4993ZM63.0793 76.4852C63.0793 76.6167 63.0699 76.7318 63.0511 76.8305H60.0634C60.0774 77.2298 60.1878 77.5258 60.3945 77.7184C60.6012 77.911 60.8573 78.0073 61.1626 78.0073C61.4304 78.0073 61.6559 77.9392 61.8391 77.8029C62.027 77.6667 62.1421 77.4858 62.1844 77.2603H63.0441C62.9924 77.5328 62.8843 77.7747 62.7199 77.9861C62.5555 78.1975 62.3418 78.3643 62.0787 78.4864C61.8156 78.6039 61.522 78.6626 61.1979 78.6626C60.822 78.6626 60.4885 78.5827 60.1972 78.423C59.9107 78.2633 59.6852 78.0331 59.5208 77.7325C59.3563 77.4318 59.2741 77.0771 59.2741 76.6684C59.2741 76.2644 59.3563 75.9121 59.5208 75.6114C59.6852 75.3108 59.9107 75.0806 60.1972 74.9209C60.4885 74.7611 60.822 74.6813 61.1979 74.6813C61.5784 74.6813 61.9096 74.7611 62.1914 74.9209C62.478 75.0759 62.6964 75.292 62.8468 75.5691C63.0018 75.8416 63.0793 76.147 63.0793 76.4852ZM62.2689 76.4641C62.2783 76.2104 62.2337 75.999 62.1351 75.8299C62.0411 75.6561 61.9096 75.5292 61.7404 75.4494C61.576 75.3648 61.3952 75.3225 61.1979 75.3225C60.8831 75.3225 60.62 75.4188 60.4086 75.6114C60.1972 75.804 60.0821 76.0882 60.0634 76.4641H62.2689ZM69.2949 74.7306L68.2168 78.6133H67.3289L66.3706 75.6114L65.3981 78.6133H64.5173L63.4392 74.7306H64.2495L64.9894 77.8734L65.9619 74.7306H66.8075L67.794 77.8734L68.5339 74.7306H69.2949Z" fill="#1D1D1F"/>
<g clip-path="url(#clip0_6524_9502)">
<path d="M149.787 82.0143C146.809 82.0143 144.387 79.5917 144.387 76.6136C144.387 73.6355 146.809 71.2129 149.787 71.2129H159.046C162.024 71.2129 164.446 73.6355 164.446 76.6136C164.446 79.5917 162.024 82.0143 159.046 82.0143H149.787Z" fill="#53A42A"/>
<path d="M159.045 71.4694C161.881 71.4694 164.189 73.7768 164.189 76.6129C164.189 79.4491 161.881 81.7564 159.045 81.7564H149.787C146.951 81.7564 144.643 79.4491 144.643 76.6129C144.643 73.7768 146.951 71.4694 149.787 71.4694H159.045ZM159.045 70.9551H149.787C146.662 70.9551 144.129 73.4883 144.129 76.6129C144.129 79.7376 146.662 82.2708 149.787 82.2708H159.045C162.17 82.2708 164.703 79.7376 164.703 76.6129C164.703 73.4883 162.17 70.9551 159.045 70.9551Z" fill="#53A42A"/>
<path d="M159.044 72.498C156.772 72.498 154.93 74.3405 154.93 76.6129C154.93 78.8853 156.772 80.7277 159.044 80.7277C161.317 80.7277 163.159 78.8853 163.159 76.6129C163.159 74.3405 161.317 72.498 159.044 72.498Z" fill="white"/>
</g>
<path d="M39.8424 100.293C39.8424 100.795 39.739 101.235 39.5323 101.61C39.3303 101.981 39.032 102.27 38.6374 102.477C38.2475 102.684 37.7801 102.787 37.2352 102.787H35.5722V97.8122H37.2352C37.7801 97.8122 38.2475 97.9156 38.6374 98.1223C39.032 98.3243 39.3303 98.6108 39.5323 98.9819C39.739 99.3531 39.8424 99.79 39.8424 100.293ZM37.1717 102.061C37.7683 102.061 38.2264 101.906 38.5458 101.596C38.8653 101.286 39.025 100.852 39.025 100.293C39.025 99.7336 38.8653 99.299 38.5458 98.989C38.2264 98.6789 37.7683 98.5239 37.1717 98.5239H36.3755V102.061H37.1717ZM42.208 98.8551C42.5603 98.8551 42.861 98.942 43.1099 99.1158C43.3589 99.2896 43.5351 99.5198 43.6384 99.8064V98.9044H44.4417V102.787H43.6384V101.885C43.5351 102.172 43.3589 102.402 43.1099 102.576C42.861 102.75 42.5603 102.836 42.208 102.836C41.8697 102.836 41.5667 102.757 41.299 102.597C41.0359 102.437 40.8292 102.207 40.6789 101.906C40.5285 101.606 40.4534 101.251 40.4534 100.842C40.4534 100.438 40.5285 100.086 40.6789 99.7853C40.8292 99.4846 41.0359 99.2544 41.299 99.0947C41.5667 98.935 41.8697 98.8551 42.208 98.8551ZM42.4546 99.5598C42.0976 99.5598 41.811 99.6749 41.5949 99.905C41.3835 100.131 41.2778 100.443 41.2778 100.842C41.2778 101.242 41.3835 101.556 41.5949 101.786C41.811 102.012 42.0976 102.125 42.4546 102.125C42.6801 102.125 42.8821 102.073 43.0606 101.97C43.2391 101.862 43.3801 101.711 43.4834 101.519C43.5868 101.326 43.6384 101.101 43.6384 100.842C43.6384 100.589 43.5868 100.365 43.4834 100.173C43.3801 99.9755 43.2391 99.8252 43.0606 99.7218C42.8821 99.6138 42.6801 99.5598 42.4546 99.5598ZM47.3577 102.089V102.787H46.8644C46.451 102.787 46.1362 102.688 45.9202 102.491C45.7088 102.289 45.6031 101.956 45.6031 101.491V99.5879H45.0464V98.9044H45.6031V97.939H46.4134V98.9044H47.3506V99.5879H46.4134V101.505C46.4134 101.725 46.4533 101.878 46.5332 101.963C46.6178 102.047 46.7634 102.089 46.9701 102.089H47.3577ZM49.6675 98.8551C50.0198 98.8551 50.3204 98.942 50.5694 99.1158C50.8184 99.2896 50.9946 99.5198 51.0979 99.8064V98.9044H51.9012V102.787H51.0979V101.885C50.9946 102.172 50.8184 102.402 50.5694 102.576C50.3204 102.75 50.0198 102.836 49.6675 102.836C49.3292 102.836 49.0262 102.757 48.7584 102.597C48.4954 102.437 48.2887 102.207 48.1383 101.906C47.988 101.606 47.9129 101.251 47.9129 100.842C47.9129 100.438 47.988 100.086 48.1383 99.7853C48.2887 99.4846 48.4954 99.2544 48.7584 99.0947C49.0262 98.935 49.3292 98.8551 49.6675 98.8551ZM49.9141 99.5598C49.5571 99.5598 49.2705 99.6749 49.0544 99.905C48.843 100.131 48.7373 100.443 48.7373 100.842C48.7373 101.242 48.843 101.556 49.0544 101.786C49.2705 102.012 49.5571 102.125 49.9141 102.125C50.1396 102.125 50.3416 102.073 50.5201 101.97C50.6986 101.862 50.8395 101.711 50.9429 101.519C51.0462 101.326 51.0979 101.101 51.0979 100.842C51.0979 100.589 51.0462 100.365 50.9429 100.173C50.8395 99.9755 50.6986 99.8252 50.5201 99.7218C50.3416 99.6138 50.1396 99.5598 49.9141 99.5598ZM55.0171 97.8122L56.4476 101.927L57.8851 97.8122H58.7589L56.962 102.787H55.9332L54.1433 97.8122H55.0171ZM59.2417 97.777C59.2417 97.6407 59.2887 97.528 59.3826 97.4387C59.4766 97.3495 59.6011 97.3048 59.7561 97.3048C59.9111 97.3048 60.0356 97.3495 60.1296 97.4387C60.2282 97.528 60.2776 97.6407 60.2776 97.777C60.2776 97.9132 60.2282 98.0236 60.1296 98.1082C60.0356 98.1927 59.9111 98.235 59.7561 98.235C59.6011 98.235 59.4766 98.1927 59.3826 98.1082C59.2887 98.0236 59.2417 97.9132 59.2417 97.777ZM60.1578 98.9044V102.787H59.3545V98.9044H60.1578ZM64.7377 100.659C64.7377 100.791 64.7283 100.906 64.7095 101.004H61.7218C61.7359 101.404 61.8463 101.7 62.053 101.892C62.2597 102.085 62.5157 102.181 62.8211 102.181C63.0888 102.181 63.3143 102.113 63.4975 101.977C63.6854 101.841 63.8005 101.66 63.8428 101.434H64.7025C64.6508 101.707 64.5428 101.949 64.3784 102.16C64.2139 102.371 64.0002 102.538 63.7371 102.66C63.474 102.778 63.1804 102.836 62.8563 102.836C62.4805 102.836 62.1469 102.757 61.8557 102.597C61.5691 102.437 61.3436 102.207 61.1792 101.906C61.0148 101.606 60.9326 101.251 60.9326 100.842C60.9326 100.438 61.0148 100.086 61.1792 99.7853C61.3436 99.4846 61.5691 99.2544 61.8557 99.0947C62.1469 98.935 62.4805 98.8551 62.8563 98.8551C63.2368 98.8551 63.568 98.935 63.8499 99.0947C64.1364 99.2497 64.3549 99.4658 64.5052 99.743C64.6602 100.015 64.7377 100.321 64.7377 100.659ZM63.9274 100.638C63.9368 100.384 63.8921 100.173 63.7935 100.004C63.6995 99.8299 63.568 99.703 63.3989 99.6232C63.2345 99.5386 63.0536 99.4963 62.8563 99.4963C62.5415 99.4963 62.2785 99.5926 62.0671 99.7853C61.8557 99.9779 61.7406 100.262 61.7218 100.638H63.9274ZM70.9533 98.9044L69.8752 102.787H68.9873L68.029 99.7853L67.0566 102.787H66.1757L65.0976 98.9044H65.908L66.6479 102.047L67.6203 98.9044H68.4659L69.4524 102.047L70.1923 98.9044H70.9533Z" fill="#1D1D1F"/>
<g clip-path="url(#clip1_6524_9502)">
<path d="M149.787 106.188C146.809 106.188 144.387 103.765 144.387 100.787C144.387 97.8093 146.809 95.3867 149.787 95.3867H159.046C162.024 95.3867 164.446 97.8093 164.446 100.787C164.446 103.765 162.024 106.188 159.046 106.188H149.787Z" fill="#53A42A"/>
<path d="M159.045 95.6433C161.881 95.6433 164.189 97.9506 164.189 100.787C164.189 103.623 161.881 105.93 159.045 105.93H149.787C146.951 105.93 144.643 103.623 144.643 100.787C144.643 97.9506 146.951 95.6433 149.787 95.6433H159.045ZM159.045 95.1289H149.787C146.662 95.1289 144.129 97.6621 144.129 100.787C144.129 103.911 146.662 106.445 149.787 106.445H159.045C162.17 106.445 164.703 103.911 164.703 100.787C164.703 97.6621 162.17 95.1289 159.045 95.1289Z" fill="#53A42A"/>
<path d="M159.044 96.6738C156.772 96.6738 154.93 98.5162 154.93 100.789C154.93 103.061 156.772 104.903 159.044 104.903C161.317 104.903 163.159 103.061 163.159 100.789C163.159 98.5162 161.317 96.6738 159.044 96.6738Z" fill="white"/>
</g>
<path d="M38.8418 125.638C38.8418 125.882 38.7831 126.11 38.6656 126.322C38.5482 126.528 38.3697 126.695 38.1301 126.822C37.8905 126.949 37.5969 127.012 37.2492 127.012C36.911 127.012 36.608 126.953 36.3402 126.836C36.0725 126.714 35.8587 126.545 35.699 126.329C35.5393 126.113 35.4477 125.864 35.4242 125.582H36.2839C36.3073 125.798 36.399 125.983 36.5587 126.138C36.7231 126.293 36.9415 126.371 37.214 126.371C37.4583 126.371 37.6462 126.305 37.7777 126.174C37.914 126.042 37.9821 125.873 37.9821 125.666C37.9821 125.488 37.9328 125.342 37.8341 125.229C37.7355 125.112 37.6133 125.02 37.4677 124.955C37.3221 124.889 37.1224 124.814 36.8687 124.729C36.5587 124.63 36.305 124.532 36.1077 124.433C35.9151 124.335 35.7507 124.191 35.6144 124.003C35.4782 123.815 35.4101 123.569 35.4101 123.263C35.4101 122.996 35.4758 122.761 35.6074 122.559C35.7389 122.357 35.9268 122.202 36.1711 122.094C36.4154 121.981 36.6973 121.925 37.0167 121.925C37.5241 121.925 37.9257 122.047 38.2217 122.291C38.5223 122.535 38.6938 122.855 38.7361 123.249H37.8693C37.8365 123.061 37.7472 122.902 37.6016 122.77C37.4606 122.634 37.2657 122.566 37.0167 122.566C36.7912 122.566 36.6104 122.625 36.4741 122.742C36.3379 122.855 36.2698 123.019 36.2698 123.235C36.2698 123.404 36.3167 123.545 36.4107 123.658C36.5047 123.766 36.6221 123.853 36.763 123.919C36.9087 123.98 37.106 124.053 37.3549 124.137C37.6697 124.236 37.9257 124.337 38.123 124.44C38.325 124.539 38.4941 124.684 38.6304 124.877C38.7713 125.07 38.8418 125.323 38.8418 125.638ZM41.5979 126.265V126.963H41.1046C40.6912 126.963 40.3765 126.864 40.1604 126.667C39.949 126.465 39.8433 126.131 39.8433 125.666V123.764H39.2866V123.08H39.8433V122.115H40.6536V123.08H41.5908V123.764H40.6536V125.68C40.6536 125.901 40.6936 126.054 40.7734 126.138C40.858 126.223 41.0036 126.265 41.2103 126.265H41.5979ZM44.1261 123.031C44.5019 123.031 44.8402 123.111 45.1408 123.27C45.4415 123.43 45.6764 123.66 45.8455 123.961C46.0146 124.262 46.0992 124.614 46.0992 125.018C46.0992 125.427 46.0146 125.781 45.8455 126.082C45.6764 126.383 45.4415 126.613 45.1408 126.773C44.8402 126.932 44.5019 127.012 44.1261 127.012C43.7503 127.012 43.4121 126.932 43.1114 126.773C42.8155 126.613 42.5806 126.383 42.4068 126.082C42.2376 125.777 42.1531 125.422 42.1531 125.018C42.1531 124.614 42.2376 124.262 42.4068 123.961C42.5806 123.66 42.8155 123.43 43.1114 123.27C43.4121 123.111 43.7503 123.031 44.1261 123.031ZM44.1261 123.728C43.9194 123.728 43.7292 123.775 43.5554 123.869C43.3815 123.963 43.2406 124.109 43.1326 124.306C43.0292 124.499 42.9775 124.736 42.9775 125.018C42.9775 125.305 43.0292 125.544 43.1326 125.737C43.2406 125.929 43.3815 126.073 43.5554 126.167C43.7292 126.261 43.9194 126.308 44.1261 126.308C44.3328 126.308 44.5231 126.261 44.6969 126.167C44.8707 126.073 45.0093 125.929 45.1127 125.737C45.2207 125.544 45.2747 125.305 45.2747 125.018C45.2747 124.736 45.2207 124.499 45.1127 124.306C45.0093 124.109 44.8707 123.963 44.6969 123.869C44.5231 123.775 44.3328 123.728 44.1261 123.728ZM49.0982 123.031C49.4365 123.031 49.7371 123.111 50.0002 123.27C50.268 123.43 50.477 123.66 50.6273 123.961C50.7777 124.262 50.8528 124.614 50.8528 125.018C50.8528 125.427 50.7777 125.781 50.6273 126.082C50.477 126.383 50.268 126.613 50.0002 126.773C49.7371 126.932 49.4365 127.012 49.0982 127.012C48.7459 127.012 48.4452 126.925 48.1963 126.751C47.9473 126.578 47.7735 126.347 47.6748 126.061V128.809H46.8715V123.08H47.6748V123.982C47.7735 123.696 47.9473 123.465 48.1963 123.292C48.4452 123.118 48.7459 123.031 49.0982 123.031ZM48.8516 123.736C48.6261 123.736 48.4241 123.79 48.2456 123.898C48.0671 124.001 47.9261 124.151 47.8228 124.349C47.7194 124.541 47.6678 124.764 47.6678 125.018C47.6678 125.276 47.7194 125.502 47.8228 125.695C47.9261 125.887 48.0671 126.037 48.2456 126.145C48.4241 126.249 48.6261 126.301 48.8516 126.301C49.2086 126.301 49.4952 126.188 49.7113 125.962C49.9274 125.732 50.0354 125.417 50.0354 125.018C50.0354 124.623 49.9274 124.311 49.7113 124.081C49.4952 123.851 49.2086 123.736 48.8516 123.736ZM57.5484 124.468C57.5484 124.971 57.445 125.41 57.2383 125.786C57.0363 126.157 56.738 126.446 56.3434 126.653C55.9535 126.86 55.4861 126.963 54.9411 126.963H53.2781V121.988H54.9411C55.4861 121.988 55.9535 122.091 56.3434 122.298C56.738 122.5 57.0363 122.787 57.2383 123.158C57.445 123.529 57.5484 123.966 57.5484 124.468ZM54.8777 126.237C55.4743 126.237 55.9324 126.082 56.2518 125.772C56.5712 125.462 56.731 125.027 56.731 124.468C56.731 123.909 56.5712 123.475 56.2518 123.165C55.9324 122.855 55.4743 122.7 54.8777 122.7H54.0814V126.237H54.8777ZM61.9645 124.835C61.9645 124.966 61.9551 125.081 61.9363 125.18H58.9486C58.9627 125.579 59.073 125.875 59.2797 126.068C59.4865 126.261 59.7425 126.357 60.0478 126.357C60.3156 126.357 60.5411 126.289 60.7243 126.153C60.9122 126.016 61.0273 125.835 61.0696 125.61H61.9293C61.8776 125.882 61.7696 126.124 61.6051 126.336C61.4407 126.547 61.227 126.714 60.9639 126.836C60.7008 126.953 60.4072 127.012 60.0831 127.012C59.7072 127.012 59.3737 126.932 59.0824 126.773C58.7959 126.613 58.5704 126.383 58.406 126.082C58.2415 125.781 58.1593 125.427 58.1593 125.018C58.1593 124.614 58.2415 124.262 58.406 123.961C58.5704 123.66 58.7959 123.43 59.0824 123.27C59.3737 123.111 59.7072 123.031 60.0831 123.031C60.4636 123.031 60.7948 123.111 61.0766 123.27C61.3632 123.425 61.5816 123.642 61.732 123.919C61.887 124.191 61.9645 124.497 61.9645 124.835ZM61.1541 124.814C61.1635 124.56 61.1189 124.349 61.0203 124.179C60.9263 124.006 60.7948 123.879 60.6257 123.799C60.4612 123.714 60.2804 123.672 60.0831 123.672C59.7683 123.672 59.5052 123.768 59.2938 123.961C59.0824 124.154 58.9674 124.438 58.9486 124.814H61.1541ZM64.692 126.265V126.963H64.1988C63.7854 126.963 63.4706 126.864 63.2545 126.667C63.0431 126.465 62.9374 126.131 62.9374 125.666V123.764H62.3808V123.08H62.9374V122.115H63.7478V123.08H64.685V123.764H63.7478V125.68C63.7478 125.901 63.7877 126.054 63.8676 126.138C63.9521 126.223 64.0978 126.265 64.3045 126.265H64.692ZM67.0018 123.031C67.3542 123.031 67.6548 123.118 67.9038 123.292C68.1528 123.465 68.329 123.696 68.4323 123.982V123.08H69.2356V126.963H68.4323V126.061C68.329 126.347 68.1528 126.578 67.9038 126.751C67.6548 126.925 67.3542 127.012 67.0018 127.012C66.6636 127.012 66.3606 126.932 66.0928 126.773C65.8298 126.613 65.6231 126.383 65.4727 126.082C65.3224 125.781 65.2472 125.427 65.2472 125.018C65.2472 124.614 65.3224 124.262 65.4727 123.961C65.6231 123.66 65.8298 123.43 66.0928 123.27C66.3606 123.111 66.6636 123.031 67.0018 123.031ZM67.2485 123.736C66.8914 123.736 66.6049 123.851 66.3888 124.081C66.1774 124.306 66.0717 124.619 66.0717 125.018C66.0717 125.417 66.1774 125.732 66.3888 125.962C66.6049 126.188 66.8914 126.301 67.2485 126.301C67.474 126.301 67.676 126.249 67.8545 126.145C68.033 126.037 68.1739 125.887 68.2773 125.695C68.3806 125.502 68.4323 125.276 68.4323 125.018C68.4323 124.764 68.3806 124.541 68.2773 124.349C68.1739 124.151 68.033 124.001 67.8545 123.898C67.676 123.79 67.474 123.736 67.2485 123.736ZM70.0869 121.953C70.0869 121.817 70.1339 121.704 70.2278 121.615C70.3218 121.525 70.4463 121.481 70.6013 121.481C70.7563 121.481 70.8808 121.525 70.9748 121.615C71.0734 121.704 71.1227 121.817 71.1227 121.953C71.1227 122.089 71.0734 122.199 70.9748 122.284C70.8808 122.369 70.7563 122.411 70.6013 122.411C70.4463 122.411 70.3218 122.369 70.2278 122.284C70.1339 122.199 70.0869 122.089 70.0869 121.953ZM71.0029 123.08V126.963H70.1996V123.08H71.0029ZM72.7784 121.748V126.963H71.975V121.748H72.7784ZM75.0259 123.031C75.4816 123.031 75.8456 123.148 76.1181 123.383C76.3953 123.613 76.5644 123.923 76.6255 124.313H75.8644C75.8316 124.102 75.7399 123.933 75.5896 123.806C75.444 123.674 75.249 123.609 75.0048 123.609C74.8027 123.609 74.6454 123.658 74.5326 123.757C74.4246 123.851 74.3706 123.98 74.3706 124.144C74.3706 124.266 74.4105 124.365 74.4904 124.44C74.5702 124.515 74.6689 124.574 74.7863 124.616C74.9084 124.659 75.0799 124.706 75.3007 124.757C75.592 124.823 75.8269 124.891 76.0054 124.962C76.1886 125.032 76.3436 125.145 76.4704 125.3C76.602 125.45 76.6678 125.657 76.6678 125.92C76.6678 126.244 76.5433 126.507 76.2943 126.709C76.05 126.911 75.7188 127.012 75.3007 127.012C74.8168 127.012 74.4246 126.899 74.1239 126.674C73.828 126.448 73.6495 126.134 73.5884 125.73H74.3706C74.394 125.941 74.488 126.113 74.6524 126.244C74.8168 126.376 75.0329 126.441 75.3007 126.441C75.4933 126.441 75.6436 126.392 75.7517 126.293C75.8644 126.19 75.9208 126.061 75.9208 125.906C75.9208 125.77 75.8785 125.662 75.794 125.582C75.7094 125.502 75.6037 125.441 75.4769 125.399C75.35 125.352 75.1762 125.305 74.9554 125.258C74.6736 125.192 74.4434 125.126 74.2649 125.06C74.091 124.995 73.9407 124.889 73.8139 124.743C73.6917 124.593 73.6307 124.391 73.6307 124.137C73.6307 123.808 73.7528 123.543 73.9971 123.341C74.2461 123.134 74.589 123.031 75.0259 123.031Z" fill="#1D1D1F"/>
<g clip-path="url(#clip2_6524_9502)">
<path d="M149.787 130.362C146.809 130.362 144.387 127.939 144.387 124.961C144.387 121.983 146.809 119.561 149.787 119.561H159.046C162.024 119.561 164.446 121.983 164.446 124.961C164.446 127.939 162.024 130.362 159.046 130.362H149.787Z" fill="#F5F5F6"/>
<path d="M159.045 119.819C161.881 119.819 164.189 122.126 164.189 124.963C164.189 127.799 161.881 130.106 159.045 130.106H149.787C146.951 130.106 144.643 127.799 144.643 124.963C144.643 122.126 146.951 119.819 149.787 119.819H159.045ZM159.045 119.305H149.787C146.662 119.305 144.129 121.838 144.129 124.963C144.129 128.087 146.662 130.62 149.787 130.62H159.045C162.17 130.62 164.703 128.087 164.703 124.963C164.703 121.838 162.17 119.305 159.045 119.305Z" fill="#AEAEB2"/>
<path d="M149.787 120.848C147.514 120.848 145.672 122.69 145.672 124.962C145.672 127.235 147.514 129.077 149.787 129.077C152.059 129.077 153.901 127.235 153.901 124.962C153.901 122.69 152.059 120.848 149.787 120.848Z" fill="#AEAEB2"/>
</g>
<path d="M38.5388 150.059H36.4389L36.0584 151.137H35.1987L37.0308 146.239H37.9539L39.779 151.137H38.9193L38.5388 150.059ZM38.3133 149.438L37.4888 147.113L36.6644 149.438H38.3133ZM41.1787 145.922V151.137H40.3754V145.922H41.1787ZM42.9541 145.922V151.137H42.1508V145.922H42.9541ZM47.8538 146.12C48.4458 146.12 48.939 146.265 49.3336 146.556C49.7282 146.848 49.989 147.245 50.1158 147.747H49.2702C49.1622 147.48 48.9836 147.266 48.7347 147.106C48.4904 146.946 48.1991 146.866 47.8609 146.866C47.5508 146.866 47.2713 146.939 47.0223 147.085C46.7781 147.231 46.5855 147.437 46.4445 147.705C46.3083 147.973 46.2402 148.288 46.2402 148.649C46.2402 149.03 46.3106 149.356 46.4516 149.629C46.5925 149.901 46.7898 150.11 47.0435 150.256C47.3019 150.397 47.6002 150.467 47.9384 150.467C48.3518 150.467 48.7065 150.34 49.0024 150.087C49.2984 149.828 49.4769 149.476 49.538 149.03H47.7129V148.438H50.2145V149.206C50.1581 149.572 50.0265 149.906 49.8198 150.207C49.6178 150.503 49.3477 150.74 49.0095 150.918C48.6759 151.097 48.2931 151.186 47.8609 151.186C47.377 151.186 46.9495 151.078 46.5784 150.862C46.2073 150.646 45.9207 150.347 45.7187 149.967C45.5167 149.582 45.4157 149.143 45.4157 148.649C45.4157 148.156 45.5167 147.719 45.7187 147.339C45.9207 146.953 46.2049 146.655 46.5714 146.444C46.9425 146.228 47.37 146.12 47.8538 146.12ZM51.8312 148.015C51.9627 147.761 52.1507 147.562 52.3949 147.416C52.6392 147.266 52.9211 147.191 53.2405 147.191V148.064H53.0009C52.6486 148.064 52.3644 148.151 52.1483 148.325C51.9369 148.494 51.8312 148.776 51.8312 149.171V151.137H51.0279V147.254H51.8312V148.015ZM57.4503 149.009C57.4503 149.14 57.4409 149.255 57.4221 149.354H54.4343C54.4484 149.753 54.5588 150.049 54.7655 150.242C54.9722 150.434 55.2282 150.531 55.5336 150.531C55.8014 150.531 56.0269 150.463 56.2101 150.326C56.398 150.19 56.5131 150.009 56.5554 149.784H57.415C57.3634 150.056 57.2553 150.298 57.0909 150.51C56.9265 150.721 56.7127 150.888 56.4497 151.01C56.1866 151.127 55.893 151.186 55.5688 151.186C55.193 151.186 54.8595 151.106 54.5682 150.946C54.2817 150.787 54.0562 150.557 53.8917 150.256C53.7273 149.955 53.6451 149.601 53.6451 149.192C53.6451 148.788 53.7273 148.436 53.8917 148.135C54.0562 147.834 54.2817 147.604 54.5682 147.444C54.8595 147.285 55.193 147.205 55.5688 147.205C55.9493 147.205 56.2805 147.285 56.5624 147.444C56.849 147.599 57.0674 147.815 57.2177 148.093C57.3728 148.365 57.4503 148.67 57.4503 149.009ZM56.6399 148.988C56.6493 148.734 56.6047 148.522 56.506 148.353C56.4121 148.179 56.2805 148.053 56.1114 147.973C55.947 147.888 55.7661 147.846 55.5688 147.846C55.2541 147.846 54.991 147.942 54.7796 148.135C54.5682 148.327 54.4531 148.612 54.4343 148.988H56.6399ZM61.8338 149.009C61.8338 149.14 61.8244 149.255 61.8056 149.354H58.8178C58.8319 149.753 58.9423 150.049 59.149 150.242C59.3557 150.434 59.6117 150.531 59.9171 150.531C60.1849 150.531 60.4103 150.463 60.5936 150.326C60.7815 150.19 60.8966 150.009 60.9388 149.784H61.7985C61.7469 150.056 61.6388 150.298 61.4744 150.51C61.31 150.721 61.0962 150.888 60.8331 151.01C60.5701 151.127 60.2765 151.186 59.9523 151.186C59.5765 151.186 59.243 151.106 58.9517 150.946C58.6651 150.787 58.4396 150.557 58.2752 150.256C58.1108 149.955 58.0286 149.601 58.0286 149.192C58.0286 148.788 58.1108 148.436 58.2752 148.135C58.4396 147.834 58.6651 147.604 58.9517 147.444C59.243 147.285 59.5765 147.205 59.9523 147.205C60.3328 147.205 60.664 147.285 60.9459 147.444C61.2325 147.599 61.4509 147.815 61.6012 148.093C61.7562 148.365 61.8338 148.67 61.8338 149.009ZM61.0234 148.988C61.0328 148.734 60.9882 148.522 60.8895 148.353C60.7956 148.179 60.664 148.053 60.4949 147.973C60.3305 147.888 60.1496 147.846 59.9523 147.846C59.6376 147.846 59.3745 147.942 59.1631 148.135C58.9517 148.327 58.8366 148.612 58.8178 148.988H61.0234ZM64.7797 147.191C65.2307 147.191 65.5924 147.336 65.8649 147.628C66.1374 147.919 66.2736 148.335 66.2736 148.875V151.137H65.4703V148.959C65.4703 148.612 65.381 148.344 65.2025 148.156C65.024 147.963 64.7797 147.867 64.4697 147.867C64.1502 147.867 63.8942 147.97 63.7016 148.177C63.509 148.379 63.4127 148.677 63.4127 149.072V151.137H62.6094V147.254H63.4127V148.107C63.516 147.815 63.6899 147.59 63.9341 147.43C64.1784 147.27 64.4603 147.191 64.7797 147.191Z" fill="#1D1D1F"/>
<g clip-path="url(#clip3_6524_9502)">
<path d="M149.787 154.538C146.809 154.538 144.387 152.115 144.387 149.137C144.387 146.159 146.809 143.736 149.787 143.736H159.046C162.024 143.736 164.446 146.159 164.446 149.137C164.446 152.115 162.024 154.538 159.046 154.538H149.787Z" fill="#53A42A"/>
<path d="M159.045 143.993C161.881 143.993 164.189 146.3 164.189 149.136C164.189 151.973 161.881 154.28 159.045 154.28H149.787C146.951 154.28 144.643 151.973 144.643 149.136C144.643 146.3 146.951 143.993 149.787 143.993H159.045ZM159.045 143.479H149.787C146.662 143.479 144.129 146.012 144.129 149.136C144.129 152.261 146.662 154.794 149.787 154.794H159.045C162.17 154.794 164.703 152.261 164.703 149.136C164.703 146.012 162.17 143.479 159.045 143.479Z" fill="#53A42A"/>
<path d="M159.044 145.021C156.772 145.021 154.93 146.864 154.93 149.136C154.93 151.409 156.772 153.251 159.044 153.251C161.317 153.251 163.159 151.409 163.159 149.136C163.159 146.864 161.317 145.021 159.044 145.021Z" fill="white"/>
</g>
<path d="M38.5388 174.232H36.4389L36.0584 175.311H35.1987L37.0308 170.413H37.9539L39.779 175.311H38.9193L38.5388 174.232ZM38.3133 173.612L37.4888 171.287L36.6644 173.612H38.3133ZM41.1787 172.189C41.3103 171.935 41.4982 171.736 41.7424 171.59C41.9867 171.44 42.2686 171.364 42.588 171.364V172.238H42.3485C41.9961 172.238 41.7119 172.325 41.4958 172.499C41.2844 172.668 41.1787 172.95 41.1787 173.345V175.311H40.3754V171.428H41.1787V172.189ZM43.9932 172.189C44.1248 171.935 44.3127 171.736 44.557 171.59C44.8012 171.44 45.0831 171.364 45.4026 171.364V172.238H45.163C44.8106 172.238 44.5264 172.325 44.3103 172.499C44.0989 172.668 43.9932 172.95 43.9932 173.345V175.311H43.1899V171.428H43.9932V172.189ZM45.8917 170.3C45.8917 170.164 45.9387 170.051 46.0326 169.962C46.1266 169.873 46.2511 169.828 46.4061 169.828C46.5611 169.828 46.6856 169.873 46.7796 169.962C46.8782 170.051 46.9275 170.164 46.9275 170.3C46.9275 170.437 46.8782 170.547 46.7796 170.632C46.6856 170.716 46.5611 170.758 46.4061 170.758C46.2511 170.758 46.1266 170.716 46.0326 170.632C45.9387 170.547 45.8917 170.437 45.8917 170.3ZM46.8078 171.428V175.311H46.0044V171.428H46.8078ZM49.3724 174.479L50.4717 171.428H51.3313L49.8516 175.311H48.8791L47.3993 171.428H48.259L49.3724 174.479ZM53.4798 171.379C53.8321 171.379 54.1328 171.465 54.3818 171.639C54.6307 171.813 54.8069 172.043 54.9102 172.33V171.428H55.7136V175.311H54.9102V174.409C54.8069 174.695 54.6307 174.925 54.3818 175.099C54.1328 175.273 53.8321 175.36 53.4798 175.36C53.1415 175.36 52.8385 175.28 52.5708 175.12C52.3077 174.961 52.101 174.73 51.9507 174.43C51.8003 174.129 51.7252 173.774 51.7252 173.366C51.7252 172.962 51.8003 172.609 51.9507 172.309C52.101 172.008 52.3077 171.778 52.5708 171.618C52.8385 171.458 53.1415 171.379 53.4798 171.379ZM53.7264 172.083C53.3694 172.083 53.0828 172.198 52.8667 172.428C52.6553 172.654 52.5496 172.966 52.5496 173.366C52.5496 173.765 52.6553 174.08 52.8667 174.31C53.0828 174.535 53.3694 174.648 53.7264 174.648C53.9519 174.648 54.1539 174.596 54.3324 174.493C54.5109 174.385 54.6519 174.235 54.7552 174.042C54.8586 173.85 54.9102 173.624 54.9102 173.366C54.9102 173.112 54.8586 172.889 54.7552 172.696C54.6519 172.499 54.5109 172.349 54.3324 172.245C54.1539 172.137 53.9519 172.083 53.7264 172.083ZM57.4809 170.096V175.311H56.6776V170.096H57.4809ZM64.3748 172.816C64.3748 173.319 64.2714 173.758 64.0647 174.134C63.8627 174.505 63.5644 174.794 63.1698 175C62.7799 175.207 62.3125 175.311 61.7675 175.311H60.1045V170.336H61.7675C62.3125 170.336 62.7799 170.439 63.1698 170.646C63.5644 170.848 63.8627 171.134 64.0647 171.505C64.2714 171.876 64.3748 172.313 64.3748 172.816ZM61.7041 174.585C62.3007 174.585 62.7588 174.43 63.0782 174.12C63.3976 173.81 63.5574 173.375 63.5574 172.816C63.5574 172.257 63.3976 171.822 63.0782 171.512C62.7588 171.202 62.3007 171.047 61.7041 171.047H60.9078V174.585H61.7041ZM68.7909 173.182C68.7909 173.314 68.7815 173.429 68.7627 173.528H65.775C65.7891 173.927 65.8995 174.223 66.1062 174.416C66.3129 174.608 66.5689 174.705 66.8742 174.705C67.142 174.705 67.3675 174.636 67.5507 174.5C67.7386 174.364 67.8537 174.183 67.896 173.958H68.7557C68.704 174.23 68.596 174.472 68.4315 174.683C68.2671 174.895 68.0534 175.062 67.7903 175.184C67.5272 175.301 67.2336 175.36 66.9095 175.36C66.5336 175.36 66.2001 175.28 65.9088 175.12C65.6223 174.961 65.3968 174.73 65.2324 174.43C65.068 174.129 64.9857 173.774 64.9857 173.366C64.9857 172.962 65.068 172.609 65.2324 172.309C65.3968 172.008 65.6223 171.778 65.9088 171.618C66.2001 171.458 66.5336 171.379 66.9095 171.379C67.29 171.379 67.6212 171.458 67.903 171.618C68.1896 171.773 68.408 171.989 68.5584 172.266C68.7134 172.539 68.7909 172.844 68.7909 173.182ZM67.9806 173.161C67.9899 172.908 67.9453 172.696 67.8467 172.527C67.7527 172.353 67.6212 172.226 67.4521 172.147C67.2876 172.062 67.1068 172.02 66.9095 172.02C66.5947 172.02 66.3316 172.116 66.1202 172.309C65.9088 172.501 65.7938 172.786 65.775 173.161H67.9806ZM71.7933 171.379C72.1315 171.379 72.4322 171.458 72.6952 171.618C72.963 171.778 73.172 172.008 73.3224 172.309C73.4727 172.609 73.5479 172.962 73.5479 173.366C73.5479 173.774 73.4727 174.129 73.3224 174.43C73.172 174.73 72.963 174.961 72.6952 175.12C72.4322 175.28 72.1315 175.36 71.7933 175.36C71.4409 175.36 71.1403 175.273 70.8913 175.099C70.6423 174.925 70.4685 174.695 70.3698 174.409V177.157H69.5665V171.428H70.3698V172.33C70.4685 172.043 70.6423 171.813 70.8913 171.639C71.1403 171.465 71.4409 171.379 71.7933 171.379ZM71.5466 172.083C71.3211 172.083 71.1191 172.137 70.9406 172.245C70.7621 172.349 70.6212 172.499 70.5178 172.696C70.4145 172.889 70.3628 173.112 70.3628 173.366C70.3628 173.624 70.4145 173.85 70.5178 174.042C70.6212 174.235 70.7621 174.385 70.9406 174.493C71.1191 174.596 71.3211 174.648 71.5466 174.648C71.9037 174.648 72.1902 174.535 72.4063 174.31C72.6224 174.08 72.7305 173.765 72.7305 173.366C72.7305 172.971 72.6224 172.659 72.4063 172.428C72.1902 172.198 71.9037 172.083 71.5466 172.083ZM75.8789 171.379C76.2312 171.379 76.5319 171.465 76.7809 171.639C77.0299 171.813 77.206 172.043 77.3094 172.33V171.428H78.1127V175.311H77.3094V174.409C77.206 174.695 77.0299 174.925 76.7809 175.099C76.5319 175.273 76.2312 175.36 75.8789 175.36C75.5407 175.36 75.2377 175.28 74.9699 175.12C74.7068 174.961 74.5001 174.73 74.3498 174.43C74.1995 174.129 74.1243 173.774 74.1243 173.366C74.1243 172.962 74.1995 172.609 74.3498 172.309C74.5001 172.008 74.7068 171.778 74.9699 171.618C75.2377 171.458 75.5407 171.379 75.8789 171.379ZM76.1255 172.083C75.7685 172.083 75.482 172.198 75.2659 172.428C75.0545 172.654 74.9488 172.966 74.9488 173.366C74.9488 173.765 75.0545 174.08 75.2659 174.31C75.482 174.535 75.7685 174.648 76.1255 174.648C76.351 174.648 76.553 174.596 76.7316 174.493C76.9101 174.385 77.051 174.235 77.1544 174.042C77.2577 173.85 77.3094 173.624 77.3094 173.366C77.3094 173.112 77.2577 172.889 77.1544 172.696C77.051 172.499 76.9101 172.349 76.7316 172.245C76.553 172.137 76.351 172.083 76.1255 172.083ZM79.88 172.189C80.0116 171.935 80.1995 171.736 80.4437 171.59C80.688 171.44 80.9699 171.364 81.2893 171.364V172.238H81.0498C80.6974 172.238 80.4132 172.325 80.1971 172.499C79.9857 172.668 79.88 172.95 79.88 173.345V175.311H79.0767V171.428H79.88V172.189ZM83.8431 174.613V175.311H83.3499C82.9365 175.311 82.6217 175.212 82.4056 175.015C82.1942 174.813 82.0885 174.479 82.0885 174.014V172.111H81.5318V171.428H82.0885V170.462H82.8989V171.428H83.8361V172.111H82.8989V174.028C82.8989 174.249 82.9388 174.402 83.0187 174.486C83.1032 174.571 83.2489 174.613 83.4556 174.613H83.8431ZM88.1753 171.428V175.311H87.3649V174.465C87.2663 174.752 87.0948 174.975 86.8505 175.134C86.6063 175.289 86.322 175.367 85.9979 175.367C85.5469 175.367 85.1852 175.221 84.9127 174.93C84.6403 174.639 84.504 174.223 84.504 173.683V171.428H85.3073V173.598C85.3073 173.951 85.3966 174.223 85.5751 174.416C85.7536 174.604 85.9979 174.697 86.308 174.697C86.6274 174.697 86.8834 174.594 87.076 174.387C87.2686 174.181 87.3649 173.88 87.3649 173.485V171.428H88.1753ZM89.9407 172.189C90.0722 171.935 90.2601 171.736 90.5044 171.59C90.7487 171.44 91.0306 171.364 91.35 171.364V172.238H91.1104C90.7581 172.238 90.4739 172.325 90.2578 172.499C90.0464 172.668 89.9407 172.95 89.9407 173.345V175.311H89.1374V171.428H89.9407V172.189ZM95.5598 173.182C95.5598 173.314 95.5504 173.429 95.5316 173.528H92.5438C92.5579 173.927 92.6683 174.223 92.875 174.416C93.0817 174.608 93.3377 174.705 93.6431 174.705C93.9109 174.705 94.1363 174.636 94.3196 174.5C94.5075 174.364 94.6226 174.183 94.6648 173.958H95.5245C95.4729 174.23 95.3648 174.472 95.2004 174.683C95.036 174.895 94.8222 175.062 94.5591 175.184C94.2961 175.301 94.0025 175.36 93.6783 175.36C93.3025 175.36 92.969 175.28 92.6777 175.12C92.3911 174.961 92.1656 174.73 92.0012 174.43C91.8368 174.129 91.7546 173.774 91.7546 173.366C91.7546 172.962 91.8368 172.609 92.0012 172.309C92.1656 172.008 92.3911 171.778 92.6777 171.618C92.969 171.458 93.3025 171.379 93.6783 171.379C94.0588 171.379 94.39 171.458 94.6719 171.618C94.9585 171.773 95.1769 171.989 95.3272 172.266C95.4822 172.539 95.5598 172.844 95.5598 173.182ZM94.7494 173.161C94.7588 172.908 94.7142 172.696 94.6155 172.527C94.5216 172.353 94.39 172.226 94.2209 172.147C94.0565 172.062 93.8756 172.02 93.6783 172.02C93.3636 172.02 93.1005 172.116 92.8891 172.309C92.6777 172.501 92.5626 172.786 92.5438 173.161H94.7494Z" fill="#1D1D1F"/>
<g clip-path="url(#clip4_6524_9502)">
<path d="M149.787 178.712C146.809 178.712 144.387 176.289 144.387 173.311C144.387 170.333 146.809 167.91 149.787 167.91H159.046C162.024 167.91 164.446 170.333 164.446 173.311C164.446 176.289 162.024 178.712 159.046 178.712H149.787Z" fill="#F5F5F6"/>
<path d="M159.045 168.167C161.881 168.167 164.189 170.474 164.189 173.31C164.189 176.146 161.881 178.454 159.045 178.454H149.787C146.951 178.454 144.643 176.146 144.643 173.31C144.643 170.474 146.951 168.167 149.787 168.167H159.045ZM159.045 167.652H149.787C146.662 167.652 144.129 170.186 144.129 173.31C144.129 176.435 146.662 178.968 149.787 178.968H159.045C162.17 178.968 164.703 176.435 164.703 173.31C164.703 170.186 162.17 167.652 159.045 167.652Z" fill="#AEAEB2"/>
<path d="M149.787 169.197C147.514 169.197 145.672 171.04 145.672 173.312C145.672 175.584 147.514 177.427 149.787 177.427C152.059 177.427 153.901 175.584 153.901 173.312C153.901 171.04 152.059 169.197 149.787 169.197Z" fill="#AEAEB2"/>
</g>
<path d="M187.594 77.9861H189.314V78.6133H186.791V73.6384H187.594V77.9861ZM191.5 74.6813C191.852 74.6813 192.153 74.7682 192.402 74.942C192.651 75.1158 192.827 75.346 192.93 75.6326V74.7306H193.734V78.6133H192.93V77.7113C192.827 77.9979 192.651 78.2281 192.402 78.4019C192.153 78.5757 191.852 78.6626 191.5 78.6626C191.162 78.6626 190.859 78.5827 190.591 78.423C190.328 78.2633 190.121 78.0331 189.971 77.7325C189.82 77.4318 189.745 77.0771 189.745 76.6684C189.745 76.2644 189.82 75.9121 189.971 75.6114C190.121 75.3108 190.328 75.0806 190.591 74.9209C190.859 74.7611 191.162 74.6813 191.5 74.6813ZM191.747 75.3859C191.39 75.3859 191.103 75.501 190.887 75.7312C190.675 75.9567 190.57 76.2691 190.57 76.6684C190.57 77.0677 190.675 77.3825 190.887 77.6127C191.103 77.8382 191.39 77.9509 191.747 77.9509C191.972 77.9509 192.174 77.8992 192.353 77.7959C192.531 77.6878 192.672 77.5375 192.775 77.3449C192.879 77.1523 192.93 76.9268 192.93 76.6684C192.93 76.4147 192.879 76.1916 192.775 75.999C192.672 75.8017 192.531 75.6514 192.353 75.548C192.174 75.44 191.972 75.3859 191.747 75.3859ZM196.868 74.6672C197.319 74.6672 197.681 74.8128 197.953 75.1041C198.226 75.3953 198.362 75.8111 198.362 76.3513V78.6133H197.559V76.4359C197.559 76.0882 197.469 75.8205 197.291 75.6326C197.112 75.44 196.868 75.3437 196.558 75.3437C196.239 75.3437 195.983 75.447 195.79 75.6537C195.597 75.8557 195.501 76.154 195.501 76.5486V78.6133H194.698V74.7306H195.501V75.5832C195.604 75.292 195.778 75.0665 196.022 74.9068C196.267 74.747 196.549 74.6672 196.868 74.6672ZM200.859 74.6813C201.211 74.6813 201.512 74.7682 201.761 74.942C202.01 75.1158 202.183 75.346 202.282 75.6326V73.3988H203.092V78.6133H202.282V77.7113C202.183 77.9979 202.01 78.2281 201.761 78.4019C201.512 78.5757 201.211 78.6626 200.859 78.6626C200.52 78.6626 200.217 78.5827 199.95 78.423C199.687 78.2633 199.48 78.0331 199.33 77.7325C199.179 77.4318 199.104 77.0771 199.104 76.6684C199.104 76.2644 199.179 75.9121 199.33 75.6114C199.48 75.3108 199.687 75.0806 199.95 74.9209C200.217 74.7611 200.52 74.6813 200.859 74.6813ZM201.105 75.3859C200.748 75.3859 200.462 75.501 200.246 75.7312C200.034 75.9567 199.929 76.2691 199.929 76.6684C199.929 77.0677 200.034 77.3825 200.246 77.6127C200.462 77.8382 200.748 77.9509 201.105 77.9509C201.331 77.9509 201.533 77.8992 201.711 77.7959C201.89 77.6878 202.031 77.5375 202.134 77.3449C202.237 77.1523 202.289 76.9268 202.289 76.6684C202.289 76.4147 202.237 76.1916 202.134 75.999C202.031 75.8017 201.89 75.6514 201.711 75.548C201.533 75.44 201.331 75.3859 201.105 75.3859ZM208.912 74.6672C209.372 74.6672 209.738 74.8128 210.011 75.1041C210.288 75.3953 210.427 75.8111 210.427 76.3513V78.6133H209.623V76.4359C209.623 76.0976 209.539 75.8369 209.37 75.6537C209.2 75.4658 208.968 75.3718 208.672 75.3718C208.357 75.3718 208.106 75.4728 207.918 75.6748C207.735 75.8722 207.643 76.1634 207.643 76.5486V78.6133H206.84V76.4359C206.84 76.0976 206.755 75.8369 206.586 75.6537C206.417 75.4658 206.185 75.3718 205.889 75.3718C205.574 75.3718 205.323 75.4728 205.135 75.6748C204.951 75.8722 204.86 76.1634 204.86 76.5486V78.6133H204.056V74.7306H204.86V75.541C204.958 75.2591 205.123 75.043 205.353 74.8927C205.583 74.7423 205.853 74.6672 206.163 74.6672C206.488 74.6672 206.767 74.747 207.002 74.9068C207.242 75.0665 207.415 75.2967 207.523 75.5973C207.636 75.3061 207.817 75.0782 208.066 74.9138C208.315 74.7494 208.597 74.6672 208.912 74.6672ZM212.922 74.6813C213.274 74.6813 213.575 74.7682 213.824 74.942C214.073 75.1158 214.249 75.346 214.352 75.6326V74.7306H215.156V78.6133H214.352V77.7113C214.249 77.9979 214.073 78.2281 213.824 78.4019C213.575 78.5757 213.274 78.6626 212.922 78.6626C212.584 78.6626 212.281 78.5827 212.013 78.423C211.75 78.2633 211.543 78.0331 211.393 77.7325C211.242 77.4318 211.167 77.0771 211.167 76.6684C211.167 76.2644 211.242 75.9121 211.393 75.6114C211.543 75.3108 211.75 75.0806 212.013 74.9209C212.281 74.7611 212.584 74.6813 212.922 74.6813ZM213.169 75.3859C212.811 75.3859 212.525 75.501 212.309 75.7312C212.097 75.9567 211.992 76.2691 211.992 76.6684C211.992 77.0677 212.097 77.3825 212.309 77.6127C212.525 77.8382 212.811 77.9509 213.169 77.9509C213.394 77.9509 213.596 77.8992 213.775 77.7959C213.953 77.6878 214.094 77.5375 214.197 77.3449C214.301 77.1523 214.352 76.9268 214.352 76.6684C214.352 76.4147 214.301 76.1916 214.197 75.999C214.094 75.8017 213.953 75.6514 213.775 75.548C213.596 75.44 213.394 75.3859 213.169 75.3859ZM216.923 75.4916C217.055 75.238 217.242 75.0383 217.487 74.8927C217.731 74.7423 218.013 74.6672 218.332 74.6672V75.541H218.093C217.74 75.541 217.456 75.6279 217.24 75.8017C217.029 75.9708 216.923 76.2527 216.923 76.6473V78.6133H216.12V74.7306H216.923V75.4916ZM221.133 78.6133L219.737 76.8869V78.6133H218.934V73.3988H219.737V76.3866L221.119 74.7306H222.084L220.393 76.6614L222.126 78.6133H221.133ZM227.571 77.2885C227.571 77.5328 227.513 77.7606 227.395 77.972C227.278 78.1787 227.099 78.3455 226.86 78.4723C226.62 78.5992 226.326 78.6626 225.979 78.6626C225.641 78.6626 225.338 78.6039 225.07 78.4864C224.802 78.3643 224.588 78.1952 224.429 77.9791C224.269 77.763 224.177 77.514 224.154 77.2321H225.013C225.037 77.4482 225.129 77.6338 225.288 77.7888C225.453 77.9439 225.671 78.0214 225.944 78.0214C226.188 78.0214 226.376 77.9556 226.507 77.8241C226.644 77.6925 226.712 77.5234 226.712 77.3167C226.712 77.1382 226.662 76.9926 226.564 76.8798C226.465 76.7624 226.343 76.6708 226.197 76.605C226.052 76.5392 225.852 76.4641 225.598 76.3795C225.288 76.2809 225.035 76.1822 224.837 76.0835C224.645 75.9849 224.48 75.8416 224.344 75.6537C224.208 75.4658 224.14 75.2192 224.14 74.9138C224.14 74.646 224.205 74.4112 224.337 74.2092C224.468 74.0071 224.656 73.8521 224.901 73.7441C225.145 73.6313 225.427 73.575 225.746 73.575C226.254 73.575 226.655 73.6971 226.951 73.9414C227.252 74.1857 227.423 74.5051 227.466 74.8997H226.599C226.566 74.7118 226.477 74.5521 226.331 74.4205C226.19 74.2843 225.995 74.2162 225.746 74.2162C225.521 74.2162 225.34 74.2749 225.204 74.3924C225.067 74.5051 224.999 74.6695 224.999 74.8856C224.999 75.0547 225.046 75.1957 225.14 75.3084C225.234 75.4165 225.352 75.5034 225.493 75.5691C225.638 75.6302 225.836 75.703 226.084 75.7876C226.399 75.8862 226.655 75.9872 226.853 76.0906C227.055 76.1892 227.224 76.3349 227.36 76.5275C227.501 76.7201 227.571 76.9738 227.571 77.2885ZM230.327 77.9157V78.6133H229.834C229.421 78.6133 229.106 78.5146 228.89 78.3173C228.679 78.1153 228.573 77.7818 228.573 77.3167V75.4141H228.016V74.7306H228.573V73.7652H229.383V74.7306H230.32V75.4141H229.383V77.3308C229.383 77.5516 229.423 77.7043 229.503 77.7888C229.588 77.8734 229.733 77.9157 229.94 77.9157H230.327ZM232.856 74.6813C233.231 74.6813 233.57 74.7611 233.87 74.9209C234.171 75.0806 234.406 75.3108 234.575 75.6114C234.744 75.9121 234.829 76.2644 234.829 76.6684C234.829 77.0771 234.744 77.4318 234.575 77.7325C234.406 78.0331 234.171 78.2633 233.87 78.423C233.57 78.5827 233.231 78.6626 232.856 78.6626C232.48 78.6626 232.142 78.5827 231.841 78.423C231.545 78.2633 231.31 78.0331 231.136 77.7325C230.967 77.4271 230.883 77.0724 230.883 76.6684C230.883 76.2644 230.967 75.9121 231.136 75.6114C231.31 75.3108 231.545 75.0806 231.841 74.9209C232.142 74.7611 232.48 74.6813 232.856 74.6813ZM232.856 75.3789C232.649 75.3789 232.459 75.4259 232.285 75.5198C232.111 75.6138 231.97 75.7594 231.862 75.9567C231.759 76.1493 231.707 76.3866 231.707 76.6684C231.707 76.955 231.759 77.1946 231.862 77.3872C231.97 77.5798 232.111 77.7231 232.285 77.817C232.459 77.911 232.649 77.9579 232.856 77.9579C233.062 77.9579 233.253 77.911 233.426 77.817C233.6 77.7231 233.739 77.5798 233.842 77.3872C233.95 77.1946 234.004 76.955 234.004 76.6684C234.004 76.3866 233.95 76.1493 233.842 75.9567C233.739 75.7594 233.6 75.6138 233.426 75.5198C233.253 75.4259 233.062 75.3789 232.856 75.3789ZM237.828 74.6813C238.166 74.6813 238.467 74.7611 238.73 74.9209C238.998 75.0806 239.207 75.3108 239.357 75.6114C239.507 75.9121 239.582 76.2644 239.582 76.6684C239.582 77.0771 239.507 77.4318 239.357 77.7325C239.207 78.0331 238.998 78.2633 238.73 78.423C238.467 78.5827 238.166 78.6626 237.828 78.6626C237.475 78.6626 237.175 78.5757 236.926 78.4019C236.677 78.2281 236.503 77.9979 236.404 77.7113V80.4595H235.601V74.7306H236.404V75.6326C236.503 75.346 236.677 75.1158 236.926 74.942C237.175 74.7682 237.475 74.6813 237.828 74.6813ZM237.581 75.3859C237.356 75.3859 237.154 75.44 236.975 75.548C236.797 75.6514 236.656 75.8017 236.552 75.999C236.449 76.1916 236.397 76.4147 236.397 76.6684C236.397 76.9268 236.449 77.1523 236.552 77.3449C236.656 77.5375 236.797 77.6878 236.975 77.7959C237.154 77.8992 237.356 77.9509 237.581 77.9509C237.938 77.9509 238.225 77.8382 238.441 77.6127C238.657 77.3825 238.765 77.0677 238.765 76.6684C238.765 76.2738 238.657 75.9614 238.441 75.7312C238.225 75.501 237.938 75.3859 237.581 75.3859ZM241.632 74.6813C242.087 74.6813 242.451 74.7987 242.724 75.0336C243.001 75.2638 243.17 75.5738 243.231 75.9638H242.47C242.437 75.7524 242.346 75.5832 242.195 75.4564C242.05 75.3249 241.855 75.2591 241.61 75.2591C241.408 75.2591 241.251 75.3084 241.138 75.4071C241.03 75.501 240.976 75.6302 240.976 75.7946C240.976 75.9168 241.016 76.0154 241.096 76.0906C241.176 76.1658 241.275 76.2245 241.392 76.2668C241.514 76.309 241.686 76.356 241.906 76.4077C242.198 76.4735 242.433 76.5416 242.611 76.612C242.794 76.6825 242.949 76.7953 243.076 76.9503C243.208 77.1006 243.273 77.3073 243.273 77.5704C243.273 77.8945 243.149 78.1576 242.9 78.3596C242.656 78.5616 242.324 78.6626 241.906 78.6626C241.423 78.6626 241.03 78.5499 240.73 78.3244C240.434 78.0989 240.255 77.7841 240.194 77.3801H240.976C241 77.5915 241.094 77.763 241.258 77.8945C241.423 78.0261 241.639 78.0918 241.906 78.0918C242.099 78.0918 242.249 78.0425 242.357 77.9439C242.47 77.8405 242.526 77.7113 242.526 77.5563C242.526 77.4201 242.484 77.312 242.4 77.2321C242.315 77.1523 242.209 77.0912 242.083 77.0489C241.956 77.002 241.782 76.955 241.561 76.908C241.279 76.8422 241.049 76.7765 240.871 76.7107C240.697 76.6449 240.546 76.5392 240.42 76.3936C240.297 76.2433 240.236 76.0413 240.236 75.7876C240.236 75.4587 240.358 75.1933 240.603 74.9913C240.852 74.7846 241.195 74.6813 241.632 74.6813Z" fill="#1D1D1F"/>
<g clip-path="url(#clip5_6524_9502)">
<path d="M301.006 82.0143C298.028 82.0143 295.605 79.5917 295.605 76.6136C295.605 73.6355 298.028 71.2129 301.006 71.2129H310.264C313.243 71.2129 315.665 73.6355 315.665 76.6136C315.665 79.5917 313.243 82.0143 310.264 82.0143H301.006Z" fill="#F5F5F6"/>
<path d="M310.264 71.4694C313.1 71.4694 315.407 73.7768 315.407 76.6129C315.407 79.4491 313.1 81.7564 310.264 81.7564H301.006C298.169 81.7564 295.862 79.4491 295.862 76.6129C295.862 73.7768 298.169 71.4694 301.006 71.4694H310.264ZM310.264 70.9551H301.006C297.881 70.9551 295.348 73.4883 295.348 76.6129C295.348 79.7376 297.881 82.2708 301.006 82.2708H310.264C313.389 82.2708 315.922 79.7376 315.922 76.6129C315.922 73.4883 313.389 70.9551 310.264 70.9551Z" fill="#D0D0D1"/>
<path d="M301.005 72.498C298.733 72.498 296.891 74.3405 296.891 76.6129C296.891 78.8853 298.733 80.7277 301.005 80.7277C303.278 80.7277 305.12 78.8853 305.12 76.6129C305.12 74.3405 303.278 72.498 301.005 72.498Z" fill="#AEAEB2"/>
</g>
<path d="M190.815 102.787H190.011L187.594 99.1158V102.787H186.791V97.8193H187.594L190.011 101.505V97.8193H190.815V102.787ZM193.563 98.8551C193.938 98.8551 194.277 98.935 194.577 99.0947C194.878 99.2544 195.113 99.4846 195.282 99.7853C195.451 100.086 195.536 100.438 195.536 100.842C195.536 101.251 195.451 101.606 195.282 101.906C195.113 102.207 194.878 102.437 194.577 102.597C194.277 102.757 193.938 102.836 193.563 102.836C193.187 102.836 192.849 102.757 192.548 102.597C192.252 102.437 192.017 102.207 191.843 101.906C191.674 101.601 191.59 101.246 191.59 100.842C191.59 100.438 191.674 100.086 191.843 99.7853C192.017 99.4846 192.252 99.2544 192.548 99.0947C192.849 98.935 193.187 98.8551 193.563 98.8551ZM193.563 99.5527C193.356 99.5527 193.166 99.5997 192.992 99.6936C192.818 99.7876 192.677 99.9332 192.569 100.131C192.466 100.323 192.414 100.56 192.414 100.842C192.414 101.129 192.466 101.368 192.569 101.561C192.677 101.754 192.818 101.897 192.992 101.991C193.166 102.085 193.356 102.132 193.563 102.132C193.769 102.132 193.96 102.085 194.133 101.991C194.307 101.897 194.446 101.754 194.549 101.561C194.657 101.368 194.711 101.129 194.711 100.842C194.711 100.56 194.657 100.323 194.549 100.131C194.446 99.9332 194.307 99.7876 194.133 99.6936C193.96 99.5997 193.769 99.5527 193.563 99.5527ZM198.26 102.089V102.787H197.767C197.353 102.787 197.038 102.688 196.822 102.491C196.611 102.289 196.505 101.956 196.505 101.491V99.5879H195.949V98.9044H196.505V97.939H197.316V98.9044H198.253V99.5879H197.316V101.505C197.316 101.725 197.356 101.878 197.435 101.963C197.52 102.047 197.666 102.089 197.872 102.089H198.26ZM198.9 97.777C198.9 97.6407 198.947 97.528 199.041 97.4387C199.135 97.3495 199.259 97.3048 199.414 97.3048C199.569 97.3048 199.694 97.3495 199.787 97.4387C199.886 97.528 199.935 97.6407 199.935 97.777C199.935 97.9132 199.886 98.0236 199.787 98.1082C199.694 98.1927 199.569 98.235 199.414 98.235C199.259 98.235 199.135 98.1927 199.041 98.1082C198.947 98.0236 198.9 97.9132 198.9 97.777ZM199.816 98.9044V102.787H199.012V98.9044H199.816ZM202.599 98.1011C202.284 98.087 202.063 98.1387 201.936 98.2561C201.81 98.3689 201.746 98.5638 201.746 98.841V98.9044H202.599V99.595H201.746V102.787H200.936V99.595H200.407V98.9044H200.936V98.7776C200.936 98.3031 201.074 97.9484 201.352 97.7136C201.629 97.474 202.044 97.3683 202.599 97.3965V98.1011ZM203.132 97.777C203.132 97.6407 203.179 97.528 203.273 97.4387C203.367 97.3495 203.491 97.3048 203.646 97.3048C203.801 97.3048 203.926 97.3495 204.02 97.4387C204.118 97.528 204.168 97.6407 204.168 97.777C204.168 97.9132 204.118 98.0236 204.02 98.1082C203.926 98.1927 203.801 98.235 203.646 98.235C203.491 98.235 203.367 98.1927 203.273 98.1082C203.179 98.0236 203.132 97.9132 203.132 97.777ZM204.048 98.9044V102.787H203.244V98.9044H204.048ZM206.746 98.8551C207.249 98.8551 207.665 98.989 207.994 99.2568C208.322 99.5198 208.527 99.8792 208.607 100.335H207.754C207.707 100.091 207.592 99.9003 207.409 99.7641C207.23 99.6232 207.005 99.5527 206.732 99.5527C206.422 99.5527 206.164 99.6631 205.957 99.8839C205.75 100.1 205.647 100.419 205.647 100.842C205.647 101.265 205.75 101.587 205.957 101.808C206.164 102.028 206.422 102.139 206.732 102.139C207.005 102.139 207.23 102.068 207.409 101.927C207.592 101.786 207.707 101.594 207.754 101.35H208.607C208.527 101.805 208.322 102.167 207.994 102.435C207.665 102.703 207.249 102.836 206.746 102.836C206.37 102.836 206.037 102.757 205.746 102.597C205.459 102.437 205.234 102.207 205.069 101.906C204.905 101.606 204.823 101.251 204.823 100.842C204.823 100.438 204.905 100.086 205.069 99.7853C205.234 99.4846 205.459 99.2544 205.746 99.0947C206.037 98.935 206.37 98.8551 206.746 98.8551ZM210.94 98.8551C211.292 98.8551 211.593 98.942 211.842 99.1158C212.091 99.2896 212.267 99.5198 212.37 99.8064V98.9044H213.174V102.787H212.37V101.885C212.267 102.172 212.091 102.402 211.842 102.576C211.593 102.75 211.292 102.836 210.94 102.836C210.602 102.836 210.299 102.757 210.031 102.597C209.768 102.437 209.561 102.207 209.411 101.906C209.261 101.606 209.185 101.251 209.185 100.842C209.185 100.438 209.261 100.086 209.411 99.7853C209.561 99.4846 209.768 99.2544 210.031 99.0947C210.299 98.935 210.602 98.8551 210.94 98.8551ZM211.187 99.5598C210.83 99.5598 210.543 99.6749 210.327 99.905C210.116 100.131 210.01 100.443 210.01 100.842C210.01 101.242 210.116 101.556 210.327 101.786C210.543 102.012 210.83 102.125 211.187 102.125C211.412 102.125 211.614 102.073 211.793 101.97C211.971 101.862 212.112 101.711 212.215 101.519C212.319 101.326 212.37 101.101 212.37 100.842C212.37 100.589 212.319 100.365 212.215 100.173C212.112 99.9755 211.971 99.8252 211.793 99.7218C211.614 99.6138 211.412 99.5598 211.187 99.5598ZM216.09 102.089V102.787H215.596C215.183 102.787 214.868 102.688 214.652 102.491C214.441 102.289 214.335 101.956 214.335 101.491V99.5879H213.778V98.9044H214.335V97.939H215.145V98.9044H216.083V99.5879H215.145V101.505C215.145 101.725 215.185 101.878 215.265 101.963C215.35 102.047 215.495 102.089 215.702 102.089H216.09ZM216.729 97.777C216.729 97.6407 216.776 97.528 216.87 97.4387C216.964 97.3495 217.089 97.3048 217.244 97.3048C217.399 97.3048 217.523 97.3495 217.617 97.4387C217.716 97.528 217.765 97.6407 217.765 97.777C217.765 97.9132 217.716 98.0236 217.617 98.1082C217.523 98.1927 217.399 98.235 217.244 98.235C217.089 98.235 216.964 98.1927 216.87 98.1082C216.776 98.0236 216.729 97.9132 216.729 97.777ZM217.646 98.9044V102.787H216.842V98.9044H217.646ZM220.393 98.8551C220.769 98.8551 221.107 98.935 221.408 99.0947C221.709 99.2544 221.944 99.4846 222.113 99.7853C222.282 100.086 222.366 100.438 222.366 100.842C222.366 101.251 222.282 101.606 222.113 101.906C221.944 102.207 221.709 102.437 221.408 102.597C221.107 102.757 220.769 102.836 220.393 102.836C220.018 102.836 219.679 102.757 219.379 102.597C219.083 102.437 218.848 102.207 218.674 101.906C218.505 101.601 218.42 101.246 218.42 100.842C218.42 100.438 218.505 100.086 218.674 99.7853C218.848 99.4846 219.083 99.2544 219.379 99.0947C219.679 98.935 220.018 98.8551 220.393 98.8551ZM220.393 99.5527C220.187 99.5527 219.996 99.5997 219.823 99.6936C219.649 99.7876 219.508 99.9332 219.4 100.131C219.296 100.323 219.245 100.56 219.245 100.842C219.245 101.129 219.296 101.368 219.4 101.561C219.508 101.754 219.649 101.897 219.823 101.991C219.996 102.085 220.187 102.132 220.393 102.132C220.6 102.132 220.79 102.085 220.964 101.991C221.138 101.897 221.277 101.754 221.38 101.561C221.488 101.368 221.542 101.129 221.542 100.842C221.542 100.56 221.488 100.323 221.38 100.131C221.277 99.9332 221.138 99.7876 220.964 99.6936C220.79 99.5997 220.6 99.5527 220.393 99.5527ZM225.309 98.841C225.76 98.841 226.122 98.9866 226.394 99.2779C226.667 99.5692 226.803 99.9849 226.803 100.525V102.787H226V100.61C226 100.262 225.91 99.9943 225.732 99.8064C225.553 99.6138 225.309 99.5175 224.999 99.5175C224.68 99.5175 224.424 99.6208 224.231 99.8275C224.038 100.03 223.942 100.328 223.942 100.722V102.787H223.139V98.9044H223.942V99.7571C224.045 99.4658 224.219 99.2403 224.464 99.0806C224.708 98.9209 224.99 98.841 225.309 98.841ZM229.018 98.8551C229.474 98.8551 229.838 98.9725 230.11 99.2074C230.387 99.4376 230.556 99.7477 230.617 100.138H229.856C229.824 99.9262 229.732 99.7571 229.582 99.6302C229.436 99.4987 229.241 99.4329 228.997 99.4329C228.795 99.4329 228.637 99.4823 228.525 99.5809C228.417 99.6749 228.363 99.804 228.363 99.9685C228.363 100.091 228.402 100.189 228.482 100.264C228.562 100.34 228.661 100.398 228.778 100.441C228.9 100.483 229.072 100.53 229.293 100.582C229.584 100.647 229.819 100.715 229.997 100.786C230.181 100.856 230.336 100.969 230.462 101.124C230.594 101.274 230.66 101.481 230.66 101.744C230.66 102.068 230.535 102.331 230.286 102.533C230.042 102.735 229.711 102.836 229.293 102.836C228.809 102.836 228.417 102.724 228.116 102.498C227.82 102.273 227.641 101.958 227.58 101.554H228.363C228.386 101.765 228.48 101.937 228.644 102.068C228.809 102.2 229.025 102.266 229.293 102.266C229.485 102.266 229.636 102.216 229.744 102.118C229.856 102.014 229.913 101.885 229.913 101.73C229.913 101.594 229.871 101.486 229.786 101.406C229.701 101.326 229.596 101.265 229.469 101.223C229.342 101.176 229.168 101.129 228.947 101.082C228.666 101.016 228.435 100.95 228.257 100.885C228.083 100.819 227.933 100.713 227.806 100.567C227.684 100.417 227.623 100.215 227.623 99.9614C227.623 99.6326 227.745 99.3672 227.989 99.1652C228.238 98.9585 228.581 98.8551 229.018 98.8551Z" fill="#1D1D1F"/>
<g clip-path="url(#clip6_6524_9502)">
<path d="M301.006 106.188C298.028 106.188 295.605 103.765 295.605 100.787C295.605 97.8093 298.028 95.3867 301.006 95.3867H310.264C313.243 95.3867 315.665 97.8093 315.665 100.787C315.665 103.765 313.243 106.188 310.264 106.188H301.006Z" fill="#53A42A"/>
<path d="M310.264 95.6433C313.1 95.6433 315.407 97.9506 315.407 100.787C315.407 103.623 313.1 105.93 310.264 105.93H301.006C298.169 105.93 295.862 103.623 295.862 100.787C295.862 97.9506 298.169 95.6433 301.006 95.6433H310.264ZM310.264 95.1289H301.006C297.881 95.1289 295.348 97.6621 295.348 100.787C295.348 103.911 297.881 106.445 301.006 106.445H310.264C313.389 106.445 315.922 103.911 315.922 100.787C315.922 97.6621 313.389 95.1289 310.264 95.1289Z" fill="#53A42A"/>
<path d="M310.263 96.6738C307.991 96.6738 306.148 98.5162 306.148 100.789C306.148 103.061 307.991 104.903 310.263 104.903C312.536 104.903 314.378 103.061 314.378 100.789C314.378 98.5162 312.536 96.6738 310.263 96.6738Z" fill="white"/>
</g>
<path d="M189.758 125.885H187.658L187.277 126.963H186.417L188.25 122.065H189.173L190.998 126.963H190.138L189.758 125.885ZM189.532 125.265L188.708 122.939L187.883 125.265H189.532ZM192.87 123.031C193.325 123.031 193.689 123.148 193.962 123.383C194.239 123.613 194.408 123.923 194.469 124.313H193.708C193.675 124.102 193.584 123.933 193.433 123.806C193.288 123.674 193.093 123.609 192.848 123.609C192.646 123.609 192.489 123.658 192.376 123.757C192.268 123.851 192.214 123.98 192.214 124.144C192.214 124.266 192.254 124.365 192.334 124.44C192.414 124.515 192.513 124.574 192.63 124.616C192.752 124.659 192.924 124.706 193.144 124.757C193.436 124.823 193.671 124.891 193.849 124.962C194.032 125.032 194.187 125.145 194.314 125.3C194.446 125.45 194.511 125.657 194.511 125.92C194.511 126.244 194.387 126.507 194.138 126.709C193.894 126.911 193.563 127.012 193.144 127.012C192.661 127.012 192.268 126.899 191.968 126.674C191.672 126.448 191.493 126.134 191.432 125.73H192.214C192.238 125.941 192.332 126.113 192.496 126.244C192.661 126.376 192.877 126.441 193.144 126.441C193.337 126.441 193.487 126.392 193.595 126.293C193.708 126.19 193.765 126.061 193.765 125.906C193.765 125.77 193.722 125.662 193.638 125.582C193.553 125.502 193.447 125.441 193.321 125.399C193.194 125.352 193.02 125.305 192.799 125.258C192.517 125.192 192.287 125.126 192.109 125.06C191.935 124.995 191.784 124.889 191.658 124.743C191.535 124.593 191.474 124.391 191.474 124.137C191.474 123.808 191.597 123.543 191.841 123.341C192.09 123.134 192.433 123.031 192.87 123.031ZM196.592 123.031C197.048 123.031 197.412 123.148 197.685 123.383C197.962 123.613 198.131 123.923 198.192 124.313H197.431C197.398 124.102 197.307 123.933 197.156 123.806C197.011 123.674 196.816 123.609 196.571 123.609C196.369 123.609 196.212 123.658 196.099 123.757C195.991 123.851 195.937 123.98 195.937 124.144C195.937 124.266 195.977 124.365 196.057 124.44C196.137 124.515 196.235 124.574 196.353 124.616C196.475 124.659 196.646 124.706 196.867 124.757C197.159 124.823 197.393 124.891 197.572 124.962C197.755 125.032 197.91 125.145 198.037 125.3C198.169 125.45 198.234 125.657 198.234 125.92C198.234 126.244 198.11 126.507 197.861 126.709C197.617 126.911 197.285 127.012 196.867 127.012C196.383 127.012 195.991 126.899 195.69 126.674C195.395 126.448 195.216 126.134 195.155 125.73H195.937C195.961 125.941 196.055 126.113 196.219 126.244C196.383 126.376 196.6 126.441 196.867 126.441C197.06 126.441 197.21 126.392 197.318 126.293C197.431 126.19 197.487 126.061 197.487 125.906C197.487 125.77 197.445 125.662 197.361 125.582C197.276 125.502 197.17 125.441 197.043 125.399C196.917 125.352 196.743 125.305 196.522 125.258C196.24 125.192 196.01 125.126 195.831 125.06C195.658 124.995 195.507 124.889 195.38 124.743C195.258 124.593 195.197 124.391 195.197 124.137C195.197 123.808 195.319 123.543 195.564 123.341C195.813 123.134 196.156 123.031 196.592 123.031ZM202.648 124.835C202.648 124.966 202.638 125.081 202.62 125.18H199.632C199.646 125.579 199.756 125.875 199.963 126.068C200.17 126.261 200.426 126.357 200.731 126.357C200.999 126.357 201.224 126.289 201.408 126.153C201.595 126.016 201.711 125.835 201.753 125.61H202.613C202.561 125.882 202.453 126.124 202.288 126.336C202.124 126.547 201.91 126.714 201.647 126.836C201.384 126.953 201.09 127.012 200.766 127.012C200.39 127.012 200.057 126.932 199.766 126.773C199.479 126.613 199.254 126.383 199.089 126.082C198.925 125.781 198.843 125.427 198.843 125.018C198.843 124.614 198.925 124.262 199.089 123.961C199.254 123.66 199.479 123.43 199.766 123.27C200.057 123.111 200.39 123.031 200.766 123.031C201.147 123.031 201.478 123.111 201.76 123.27C202.046 123.425 202.265 123.642 202.415 123.919C202.57 124.191 202.648 124.497 202.648 124.835ZM201.837 124.814C201.847 124.56 201.802 124.349 201.704 124.179C201.61 124.006 201.478 123.879 201.309 123.799C201.144 123.714 200.964 123.672 200.766 123.672C200.452 123.672 200.188 123.768 199.977 123.961C199.766 124.154 199.651 124.438 199.632 124.814H201.837ZM205.375 126.265V126.963H204.882C204.469 126.963 204.154 126.864 203.938 126.667C203.726 126.465 203.621 126.131 203.621 125.666V123.764H203.064V123.08H203.621V122.115H204.431V123.08H205.368V123.764H204.431V125.68C204.431 125.901 204.471 126.054 204.551 126.138C204.635 126.223 204.781 126.265 204.988 126.265H205.375ZM208.583 126.336H210.302V126.963H207.779V121.988H208.583V126.336ZM212.488 123.031C212.841 123.031 213.141 123.118 213.39 123.292C213.639 123.465 213.815 123.696 213.919 123.982V123.08H214.722V126.963H213.919V126.061C213.815 126.347 213.639 126.578 213.39 126.751C213.141 126.925 212.841 127.012 212.488 127.012C212.15 127.012 211.847 126.932 211.579 126.773C211.316 126.613 211.11 126.383 210.959 126.082C210.809 125.781 210.734 125.427 210.734 125.018C210.734 124.614 210.809 124.262 210.959 123.961C211.11 123.66 211.316 123.43 211.579 123.27C211.847 123.111 212.15 123.031 212.488 123.031ZM212.735 123.736C212.378 123.736 212.091 123.851 211.875 124.081C211.664 124.306 211.558 124.619 211.558 125.018C211.558 125.417 211.664 125.732 211.875 125.962C212.091 126.188 212.378 126.301 212.735 126.301C212.96 126.301 213.162 126.249 213.341 126.145C213.519 126.037 213.66 125.887 213.764 125.695C213.867 125.502 213.919 125.276 213.919 125.018C213.919 124.764 213.867 124.541 213.764 124.349C213.66 124.151 213.519 124.001 213.341 123.898C213.162 123.79 212.96 123.736 212.735 123.736ZM217.856 123.017C218.307 123.017 218.669 123.162 218.942 123.454C219.214 123.745 219.35 124.161 219.35 124.701V126.963H218.547V124.785C218.547 124.438 218.458 124.17 218.279 123.982C218.101 123.79 217.856 123.693 217.546 123.693C217.227 123.693 216.971 123.797 216.778 124.003C216.586 124.205 216.489 124.504 216.489 124.898V126.963H215.686V123.08H216.489V123.933C216.593 123.642 216.767 123.416 217.011 123.256C217.255 123.097 217.537 123.017 217.856 123.017ZM221.847 123.031C222.199 123.031 222.5 123.118 222.749 123.292C222.998 123.465 223.172 123.696 223.271 123.982V121.748H224.081V126.963H223.271V126.061C223.172 126.347 222.998 126.578 222.749 126.751C222.5 126.925 222.199 127.012 221.847 127.012C221.509 127.012 221.206 126.932 220.938 126.773C220.675 126.613 220.468 126.383 220.318 126.082C220.168 125.781 220.093 125.427 220.093 125.018C220.093 124.614 220.168 124.262 220.318 123.961C220.468 123.66 220.675 123.43 220.938 123.27C221.206 123.111 221.509 123.031 221.847 123.031ZM222.094 123.736C221.737 123.736 221.45 123.851 221.234 124.081C221.023 124.306 220.917 124.619 220.917 125.018C220.917 125.417 221.023 125.732 221.234 125.962C221.45 126.188 221.737 126.301 222.094 126.301C222.319 126.301 222.521 126.249 222.7 126.145C222.878 126.037 223.019 125.887 223.123 125.695C223.226 125.502 223.278 125.276 223.278 125.018C223.278 124.764 223.226 124.541 223.123 124.349C223.019 124.151 222.878 124.001 222.7 123.898C222.521 123.79 222.319 123.736 222.094 123.736ZM229.9 123.017C230.36 123.017 230.727 123.162 230.999 123.454C231.276 123.745 231.415 124.161 231.415 124.701V126.963H230.612V124.785C230.612 124.447 230.527 124.187 230.358 124.003C230.189 123.815 229.956 123.721 229.66 123.721C229.346 123.721 229.094 123.822 228.906 124.024C228.723 124.222 228.632 124.513 228.632 124.898V126.963H227.828V124.785C227.828 124.447 227.744 124.187 227.575 124.003C227.406 123.815 227.173 123.721 226.877 123.721C226.562 123.721 226.311 123.822 226.123 124.024C225.94 124.222 225.848 124.513 225.848 124.898V126.963H225.045V123.08H225.848V123.891C225.947 123.609 226.111 123.393 226.341 123.242C226.572 123.092 226.842 123.017 227.152 123.017C227.476 123.017 227.755 123.097 227.99 123.256C228.23 123.416 228.404 123.646 228.512 123.947C228.625 123.656 228.805 123.428 229.054 123.263C229.303 123.099 229.585 123.017 229.9 123.017ZM233.91 123.031C234.263 123.031 234.563 123.118 234.812 123.292C235.061 123.465 235.237 123.696 235.341 123.982V123.08H236.144V126.963H235.341V126.061C235.237 126.347 235.061 126.578 234.812 126.751C234.563 126.925 234.263 127.012 233.91 127.012C233.572 127.012 233.269 126.932 233.001 126.773C232.738 126.613 232.532 126.383 232.381 126.082C232.231 125.781 232.156 125.427 232.156 125.018C232.156 124.614 232.231 124.262 232.381 123.961C232.532 123.66 232.738 123.43 233.001 123.27C233.269 123.111 233.572 123.031 233.91 123.031ZM234.157 123.736C233.8 123.736 233.513 123.851 233.297 124.081C233.086 124.306 232.98 124.619 232.98 125.018C232.98 125.417 233.086 125.732 233.297 125.962C233.513 126.188 233.8 126.301 234.157 126.301C234.382 126.301 234.584 126.249 234.763 126.145C234.941 126.037 235.082 125.887 235.186 125.695C235.289 125.502 235.341 125.276 235.341 125.018C235.341 124.764 235.289 124.541 235.186 124.349C235.082 124.151 234.941 124.001 234.763 123.898C234.584 123.79 234.382 123.736 234.157 123.736ZM237.911 123.841C238.043 123.588 238.231 123.388 238.475 123.242C238.719 123.092 239.001 123.017 239.321 123.017V123.891H239.081C238.729 123.891 238.445 123.977 238.228 124.151C238.017 124.32 237.911 124.602 237.911 124.997V126.963H237.108V123.08H237.911V123.841ZM242.121 126.963L240.726 125.236V126.963H239.923V121.748H240.726V124.736L242.107 123.08H243.072L241.381 125.011L243.115 126.963H242.121Z" fill="#1D1D1F"/>
<g clip-path="url(#clip7_6524_9502)">
<path d="M301.006 130.362C298.028 130.362 295.605 127.939 295.605 124.961C295.605 121.983 298.028 119.561 301.006 119.561H310.264C313.243 119.561 315.665 121.983 315.665 124.961C315.665 127.939 313.243 130.362 310.264 130.362H301.006Z" fill="#F5F5F6"/>
<path d="M310.264 119.819C313.1 119.819 315.407 122.126 315.407 124.963C315.407 127.799 313.1 130.106 310.264 130.106H301.006C298.169 130.106 295.862 127.799 295.862 124.963C295.862 122.126 298.169 119.819 301.006 119.819H310.264ZM310.264 119.305H301.006C297.881 119.305 295.348 121.838 295.348 124.963C295.348 128.087 297.881 130.62 301.006 130.62H310.264C313.389 130.62 315.922 128.087 315.922 124.963C315.922 121.838 313.389 119.305 310.264 119.305Z" fill="#D0D0D1"/>
<path d="M301.005 120.848C298.733 120.848 296.891 122.69 296.891 124.962C296.891 127.235 298.733 129.077 301.005 129.077C303.278 129.077 305.12 127.235 305.12 124.962C305.12 122.69 303.278 120.848 301.005 120.848Z" fill="#AEAEB2"/>
</g>
<path d="M190.061 149.812C190.061 150.056 190.002 150.284 189.884 150.495C189.767 150.702 189.588 150.869 189.349 150.996C189.109 151.123 188.816 151.186 188.468 151.186C188.13 151.186 187.827 151.127 187.559 151.01C187.291 150.888 187.077 150.719 186.918 150.503C186.758 150.286 186.666 150.037 186.643 149.756H187.503C187.526 149.972 187.618 150.157 187.777 150.312C187.942 150.467 188.16 150.545 188.433 150.545C188.677 150.545 188.865 150.479 188.996 150.347C189.133 150.216 189.201 150.047 189.201 149.84C189.201 149.662 189.152 149.516 189.053 149.403C188.954 149.286 188.832 149.194 188.686 149.128C188.541 149.063 188.341 148.988 188.087 148.903C187.777 148.804 187.524 148.706 187.326 148.607C187.134 148.508 186.969 148.365 186.833 148.177C186.697 147.989 186.629 147.743 186.629 147.437C186.629 147.169 186.695 146.935 186.826 146.733C186.958 146.531 187.146 146.376 187.39 146.268C187.634 146.155 187.916 146.098 188.235 146.098C188.743 146.098 189.144 146.221 189.44 146.465C189.741 146.709 189.913 147.029 189.955 147.423H189.088C189.055 147.235 188.966 147.076 188.82 146.944C188.679 146.808 188.484 146.74 188.235 146.74C188.01 146.74 187.829 146.798 187.693 146.916C187.557 147.029 187.489 147.193 187.489 147.409C187.489 147.578 187.535 147.719 187.629 147.832C187.723 147.94 187.841 148.027 187.982 148.093C188.127 148.154 188.325 148.226 188.574 148.311C188.888 148.41 189.144 148.511 189.342 148.614C189.544 148.713 189.713 148.858 189.849 149.051C189.99 149.244 190.061 149.497 190.061 149.812ZM194.473 149.009C194.473 149.14 194.463 149.255 194.444 149.354H191.457C191.471 149.753 191.581 150.049 191.788 150.242C191.995 150.434 192.251 150.531 192.556 150.531C192.824 150.531 193.049 150.463 193.232 150.326C193.42 150.19 193.535 150.009 193.578 149.784H194.437C194.386 150.056 194.278 150.298 194.113 150.51C193.949 150.721 193.735 150.888 193.472 151.01C193.209 151.127 192.915 151.186 192.591 151.186C192.215 151.186 191.882 151.106 191.591 150.946C191.304 150.787 191.078 150.557 190.914 150.256C190.75 149.955 190.667 149.601 190.667 149.192C190.667 148.788 190.75 148.436 190.914 148.135C191.078 147.834 191.304 147.604 191.591 147.444C191.882 147.285 192.215 147.205 192.591 147.205C192.972 147.205 193.303 147.285 193.585 147.444C193.871 147.599 194.09 147.815 194.24 148.093C194.395 148.365 194.473 148.67 194.473 149.009ZM193.662 148.988C193.672 148.734 193.627 148.522 193.528 148.353C193.434 148.179 193.303 148.053 193.134 147.973C192.969 147.888 192.788 147.846 192.591 147.846C192.276 147.846 192.013 147.942 191.802 148.135C191.591 148.327 191.475 148.612 191.457 148.988H193.662ZM196.806 147.205C197.158 147.205 197.458 147.292 197.707 147.465C197.956 147.639 198.133 147.869 198.236 148.156V147.254H199.039V151.137H198.236V150.235C198.133 150.521 197.956 150.752 197.707 150.925C197.458 151.099 197.158 151.186 196.806 151.186C196.467 151.186 196.164 151.106 195.896 150.946C195.633 150.787 195.427 150.557 195.276 150.256C195.126 149.955 195.051 149.601 195.051 149.192C195.051 148.788 195.126 148.436 195.276 148.135C195.427 147.834 195.633 147.604 195.896 147.444C196.164 147.285 196.467 147.205 196.806 147.205ZM197.052 147.909C196.695 147.909 196.409 148.024 196.192 148.255C195.981 148.48 195.875 148.793 195.875 149.192C195.875 149.591 195.981 149.906 196.192 150.136C196.409 150.362 196.695 150.474 197.052 150.474C197.278 150.474 197.48 150.423 197.658 150.319C197.837 150.211 197.978 150.061 198.081 149.868C198.184 149.676 198.236 149.45 198.236 149.192C198.236 148.938 198.184 148.715 198.081 148.522C197.978 148.325 197.837 148.175 197.658 148.071C197.48 147.963 197.278 147.909 197.052 147.909ZM200.807 148.015C200.938 147.761 201.126 147.562 201.37 147.416C201.615 147.266 201.896 147.191 202.216 147.191V148.064H201.976C201.624 148.064 201.34 148.151 201.124 148.325C200.912 148.494 200.807 148.776 200.807 149.171V151.137H200.003V147.254H200.807V148.015ZM204.544 147.205C205.047 147.205 205.463 147.339 205.791 147.606C206.12 147.869 206.325 148.229 206.405 148.684H205.552C205.505 148.44 205.39 148.25 205.207 148.114C205.028 147.973 204.803 147.902 204.53 147.902C204.22 147.902 203.962 148.013 203.755 148.234C203.548 148.45 203.445 148.769 203.445 149.192C203.445 149.615 203.548 149.936 203.755 150.157C203.962 150.378 204.22 150.488 204.53 150.488C204.803 150.488 205.028 150.418 205.207 150.277C205.39 150.136 205.505 149.943 205.552 149.699H206.405C206.325 150.155 206.12 150.517 205.791 150.784C205.463 151.052 205.047 151.186 204.544 151.186C204.168 151.186 203.835 151.106 203.544 150.946C203.257 150.787 203.032 150.557 202.867 150.256C202.703 149.955 202.621 149.601 202.621 149.192C202.621 148.788 202.703 148.436 202.867 148.135C203.032 147.834 203.257 147.604 203.544 147.444C203.835 147.285 204.168 147.205 204.544 147.205ZM209.351 147.191C209.802 147.191 210.164 147.336 210.436 147.628C210.709 147.919 210.845 148.335 210.845 148.875V151.137H210.042V148.959C210.042 148.612 209.952 148.344 209.774 148.156C209.595 147.963 209.351 147.867 209.041 147.867C208.722 147.867 208.465 147.97 208.273 148.177C208.08 148.379 207.984 148.677 207.984 149.072V151.137H207.181V145.922H207.984V148.107C208.087 147.815 208.261 147.59 208.505 147.43C208.75 147.27 209.032 147.191 209.351 147.191ZM214.239 150.51H215.959V151.137H213.436V146.162H214.239V150.51ZM218.363 147.205C218.739 147.205 219.077 147.285 219.378 147.444C219.679 147.604 219.914 147.834 220.083 148.135C220.252 148.436 220.336 148.788 220.336 149.192C220.336 149.601 220.252 149.955 220.083 150.256C219.914 150.557 219.679 150.787 219.378 150.946C219.077 151.106 218.739 151.186 218.363 151.186C217.988 151.186 217.649 151.106 217.349 150.946C217.053 150.787 216.818 150.557 216.644 150.256C216.475 149.951 216.39 149.596 216.39 149.192C216.39 148.788 216.475 148.436 216.644 148.135C216.818 147.834 217.053 147.604 217.349 147.444C217.649 147.285 217.988 147.205 218.363 147.205ZM218.363 147.902C218.157 147.902 217.966 147.949 217.793 148.043C217.619 148.137 217.478 148.283 217.37 148.48C217.266 148.673 217.215 148.91 217.215 149.192C217.215 149.478 217.266 149.718 217.37 149.911C217.478 150.103 217.619 150.246 217.793 150.34C217.966 150.434 218.157 150.481 218.363 150.481C218.57 150.481 218.76 150.434 218.934 150.34C219.108 150.246 219.247 150.103 219.35 149.911C219.458 149.718 219.512 149.478 219.512 149.192C219.512 148.91 219.458 148.673 219.35 148.48C219.247 148.283 219.108 148.137 218.934 148.043C218.76 147.949 218.57 147.902 218.363 147.902ZM222.835 147.205C223.338 147.205 223.754 147.339 224.082 147.606C224.411 147.869 224.616 148.229 224.695 148.684H223.843C223.796 148.44 223.681 148.25 223.498 148.114C223.319 147.973 223.094 147.902 222.821 147.902C222.511 147.902 222.253 148.013 222.046 148.234C221.839 148.45 221.736 148.769 221.736 149.192C221.736 149.615 221.839 149.936 222.046 150.157C222.253 150.378 222.511 150.488 222.821 150.488C223.094 150.488 223.319 150.418 223.498 150.277C223.681 150.136 223.796 149.943 223.843 149.699H224.695C224.616 150.155 224.411 150.517 224.082 150.784C223.754 151.052 223.338 151.186 222.835 151.186C222.459 151.186 222.126 151.106 221.835 150.946C221.548 150.787 221.322 150.557 221.158 150.256C220.994 149.955 220.911 149.601 220.911 149.192C220.911 148.788 220.994 148.436 221.158 148.135C221.322 147.834 221.548 147.604 221.835 147.444C222.126 147.285 222.459 147.205 222.835 147.205ZM227.029 147.205C227.381 147.205 227.682 147.292 227.931 147.465C228.18 147.639 228.356 147.869 228.459 148.156V147.254H229.263V151.137H228.459V150.235C228.356 150.521 228.18 150.752 227.931 150.925C227.682 151.099 227.381 151.186 227.029 151.186C226.691 151.186 226.388 151.106 226.12 150.946C225.857 150.787 225.65 150.557 225.5 150.256C225.349 149.955 225.274 149.601 225.274 149.192C225.274 148.788 225.349 148.436 225.5 148.135C225.65 147.834 225.857 147.604 226.12 147.444C226.388 147.285 226.691 147.205 227.029 147.205ZM227.275 147.909C226.918 147.909 226.632 148.024 226.416 148.255C226.204 148.48 226.099 148.793 226.099 149.192C226.099 149.591 226.204 149.906 226.416 150.136C226.632 150.362 226.918 150.474 227.275 150.474C227.501 150.474 227.703 150.423 227.881 150.319C228.06 150.211 228.201 150.061 228.304 149.868C228.408 149.676 228.459 149.45 228.459 149.192C228.459 148.938 228.408 148.715 228.304 148.522C228.201 148.325 228.06 148.175 227.881 148.071C227.703 147.963 227.501 147.909 227.275 147.909ZM232.179 150.439V151.137H231.685C231.272 151.137 230.957 151.038 230.741 150.841C230.53 150.639 230.424 150.305 230.424 149.84V147.938H229.867V147.254H230.424V146.289H231.234V147.254H232.171V147.938H231.234V149.854C231.234 150.075 231.274 150.228 231.354 150.312C231.439 150.397 231.584 150.439 231.791 150.439H232.179ZM232.818 146.127C232.818 145.99 232.865 145.878 232.959 145.788C233.053 145.699 233.178 145.654 233.333 145.654C233.488 145.654 233.612 145.699 233.706 145.788C233.805 145.878 233.854 145.99 233.854 146.127C233.854 146.263 233.805 146.373 233.706 146.458C233.612 146.542 233.488 146.585 233.333 146.585C233.178 146.585 233.053 146.542 232.959 146.458C232.865 146.373 232.818 146.263 232.818 146.127ZM233.734 147.254V151.137H232.931V147.254H233.734ZM236.482 147.205C236.858 147.205 237.196 147.285 237.497 147.444C237.798 147.604 238.032 147.834 238.202 148.135C238.371 148.436 238.455 148.788 238.455 149.192C238.455 149.601 238.371 149.955 238.202 150.256C238.032 150.557 237.798 150.787 237.497 150.946C237.196 151.106 236.858 151.186 236.482 151.186C236.106 151.186 235.768 151.106 235.467 150.946C235.172 150.787 234.937 150.557 234.763 150.256C234.594 149.951 234.509 149.596 234.509 149.192C234.509 148.788 234.594 148.436 234.763 148.135C234.937 147.834 235.172 147.604 235.467 147.444C235.768 147.285 236.106 147.205 236.482 147.205ZM236.482 147.902C236.276 147.902 236.085 147.949 235.911 148.043C235.738 148.137 235.597 148.283 235.489 148.48C235.385 148.673 235.334 148.91 235.334 149.192C235.334 149.478 235.385 149.718 235.489 149.911C235.597 150.103 235.738 150.246 235.911 150.34C236.085 150.434 236.276 150.481 236.482 150.481C236.689 150.481 236.879 150.434 237.053 150.34C237.227 150.246 237.365 150.103 237.469 149.911C237.577 149.718 237.631 149.478 237.631 149.192C237.631 148.91 237.577 148.673 237.469 148.48C237.365 148.283 237.227 148.137 237.053 148.043C236.879 147.949 236.689 147.902 236.482 147.902ZM241.398 147.191C241.849 147.191 242.211 147.336 242.483 147.628C242.756 147.919 242.892 148.335 242.892 148.875V151.137H242.088V148.959C242.088 148.612 241.999 148.344 241.821 148.156C241.642 147.963 241.398 147.867 241.088 147.867C240.768 147.867 240.512 147.97 240.32 148.177C240.127 148.379 240.031 148.677 240.031 149.072V151.137H239.228V147.254H240.031V148.107C240.134 147.815 240.308 147.59 240.552 147.43C240.797 147.27 241.078 147.191 241.398 147.191ZM245.107 147.205C245.562 147.205 245.926 147.322 246.199 147.557C246.476 147.787 246.645 148.097 246.706 148.487H245.945C245.912 148.276 245.821 148.107 245.67 147.98C245.525 147.848 245.33 147.783 245.086 147.783C244.884 147.783 244.726 147.832 244.613 147.931C244.505 148.024 244.451 148.154 244.451 148.318C244.451 148.44 244.491 148.539 244.571 148.614C244.651 148.689 244.75 148.748 244.867 148.79C244.989 148.832 245.161 148.879 245.382 148.931C245.673 148.997 245.908 149.065 246.086 149.135C246.269 149.206 246.424 149.319 246.551 149.474C246.683 149.624 246.749 149.831 246.749 150.094C246.749 150.418 246.624 150.681 246.375 150.883C246.131 151.085 245.8 151.186 245.382 151.186C244.898 151.186 244.505 151.073 244.205 150.848C243.909 150.622 243.73 150.308 243.669 149.904H244.451C244.475 150.115 244.569 150.286 244.733 150.418C244.898 150.55 245.114 150.615 245.382 150.615C245.574 150.615 245.724 150.566 245.833 150.467C245.945 150.364 246.002 150.235 246.002 150.08C246.002 149.943 245.959 149.835 245.875 149.756C245.79 149.676 245.685 149.615 245.558 149.572C245.431 149.525 245.257 149.478 245.036 149.431C244.754 149.366 244.524 149.3 244.346 149.234C244.172 149.168 244.022 149.063 243.895 148.917C243.773 148.767 243.711 148.565 243.711 148.311C243.711 147.982 243.834 147.717 244.078 147.515C244.327 147.308 244.67 147.205 245.107 147.205Z" fill="#1D1D1F"/>
<g clip-path="url(#clip8_6524_9502)">
<path d="M301.006 154.538C298.028 154.538 295.605 152.115 295.605 149.137C295.605 146.159 298.028 143.736 301.006 143.736H310.264C313.243 143.736 315.665 146.159 315.665 149.137C315.665 152.115 313.243 154.538 310.264 154.538H301.006Z" fill="#53A42A"/>
<path d="M310.264 143.993C313.1 143.993 315.407 146.3 315.407 149.136C315.407 151.973 313.1 154.28 310.264 154.28H301.006C298.169 154.28 295.862 151.973 295.862 149.136C295.862 146.3 298.169 143.993 301.006 143.993H310.264ZM310.264 143.479H301.006C297.881 143.479 295.348 146.012 295.348 149.136C295.348 152.261 297.881 154.794 301.006 154.794H310.264C313.389 154.794 315.922 152.261 315.922 149.136C315.922 146.012 313.389 143.479 310.264 143.479Z" fill="#53A42A"/>
<path d="M310.263 145.021C307.991 145.021 306.148 146.864 306.148 149.136C306.148 151.409 307.991 153.251 310.263 153.251C312.536 153.251 314.378 151.409 314.378 149.136C314.378 146.864 312.536 145.021 310.263 145.021Z" fill="white"/>
</g>
<path d="M189.758 174.232H187.658L187.277 175.311H186.417L188.25 170.413H189.173L190.998 175.311H190.138L189.758 174.232ZM189.532 173.612L188.708 171.287L187.883 173.612H189.532ZM192.87 171.379C193.325 171.379 193.689 171.496 193.962 171.731C194.239 171.961 194.408 172.271 194.469 172.661H193.708C193.675 172.45 193.584 172.281 193.433 172.154C193.288 172.022 193.093 171.956 192.848 171.956C192.646 171.956 192.489 172.006 192.376 172.104C192.268 172.198 192.214 172.327 192.214 172.492C192.214 172.614 192.254 172.713 192.334 172.788C192.414 172.863 192.513 172.922 192.63 172.964C192.752 173.006 192.924 173.053 193.144 173.105C193.436 173.171 193.671 173.239 193.849 173.309C194.032 173.38 194.187 173.493 194.314 173.648C194.446 173.798 194.511 174.005 194.511 174.268C194.511 174.592 194.387 174.855 194.138 175.057C193.894 175.259 193.563 175.36 193.144 175.36C192.661 175.36 192.268 175.247 191.968 175.022C191.672 174.796 191.493 174.481 191.432 174.077H192.214C192.238 174.289 192.332 174.46 192.496 174.592C192.661 174.723 192.877 174.789 193.144 174.789C193.337 174.789 193.487 174.74 193.595 174.641C193.708 174.538 193.765 174.409 193.765 174.254C193.765 174.117 193.722 174.009 193.638 173.929C193.553 173.85 193.447 173.788 193.321 173.746C193.194 173.699 193.02 173.652 192.799 173.605C192.517 173.539 192.287 173.474 192.109 173.408C191.935 173.342 191.784 173.236 191.658 173.091C191.535 172.941 191.474 172.739 191.474 172.485C191.474 172.156 191.597 171.891 191.841 171.689C192.09 171.482 192.433 171.379 192.87 171.379ZM196.592 171.379C197.048 171.379 197.412 171.496 197.685 171.731C197.962 171.961 198.131 172.271 198.192 172.661H197.431C197.398 172.45 197.307 172.281 197.156 172.154C197.011 172.022 196.816 171.956 196.571 171.956C196.369 171.956 196.212 172.006 196.099 172.104C195.991 172.198 195.937 172.327 195.937 172.492C195.937 172.614 195.977 172.713 196.057 172.788C196.137 172.863 196.235 172.922 196.353 172.964C196.475 173.006 196.646 173.053 196.867 173.105C197.159 173.171 197.393 173.239 197.572 173.309C197.755 173.38 197.91 173.493 198.037 173.648C198.169 173.798 198.234 174.005 198.234 174.268C198.234 174.592 198.11 174.855 197.861 175.057C197.617 175.259 197.285 175.36 196.867 175.36C196.383 175.36 195.991 175.247 195.69 175.022C195.395 174.796 195.216 174.481 195.155 174.077H195.937C195.961 174.289 196.055 174.46 196.219 174.592C196.383 174.723 196.6 174.789 196.867 174.789C197.06 174.789 197.21 174.74 197.318 174.641C197.431 174.538 197.487 174.409 197.487 174.254C197.487 174.117 197.445 174.009 197.361 173.929C197.276 173.85 197.17 173.788 197.043 173.746C196.917 173.699 196.743 173.652 196.522 173.605C196.24 173.539 196.01 173.474 195.831 173.408C195.658 173.342 195.507 173.236 195.38 173.091C195.258 172.941 195.197 172.739 195.197 172.485C195.197 172.156 195.319 171.891 195.564 171.689C195.813 171.482 196.156 171.379 196.592 171.379ZM202.648 173.182C202.648 173.314 202.638 173.429 202.62 173.528H199.632C199.646 173.927 199.756 174.223 199.963 174.416C200.17 174.608 200.426 174.705 200.731 174.705C200.999 174.705 201.224 174.636 201.408 174.5C201.595 174.364 201.711 174.183 201.753 173.958H202.613C202.561 174.23 202.453 174.472 202.288 174.683C202.124 174.895 201.91 175.062 201.647 175.184C201.384 175.301 201.09 175.36 200.766 175.36C200.39 175.36 200.057 175.28 199.766 175.12C199.479 174.961 199.254 174.73 199.089 174.43C198.925 174.129 198.843 173.774 198.843 173.366C198.843 172.962 198.925 172.609 199.089 172.309C199.254 172.008 199.479 171.778 199.766 171.618C200.057 171.458 200.39 171.379 200.766 171.379C201.147 171.379 201.478 171.458 201.76 171.618C202.046 171.773 202.265 171.989 202.415 172.266C202.57 172.539 202.648 172.844 202.648 173.182ZM201.837 173.161C201.847 172.908 201.802 172.696 201.704 172.527C201.61 172.353 201.478 172.226 201.309 172.147C201.144 172.062 200.964 172.02 200.766 172.02C200.452 172.02 200.188 172.116 199.977 172.309C199.766 172.501 199.651 172.786 199.632 173.161H201.837ZM205.375 174.613V175.311H204.882C204.469 175.311 204.154 175.212 203.938 175.015C203.726 174.813 203.621 174.479 203.621 174.014V172.111H203.064V171.428H203.621V170.462H204.431V171.428H205.368V172.111H204.431V174.028C204.431 174.249 204.471 174.402 204.551 174.486C204.635 174.571 204.781 174.613 204.988 174.613H205.375ZM210.746 174.232H208.646L208.266 175.311H207.406L209.238 170.413H210.161L211.986 175.311H211.126L210.746 174.232ZM210.52 173.612L209.696 171.287L208.872 173.612H210.52ZM214.309 171.379C214.812 171.379 215.227 171.512 215.556 171.78C215.885 172.043 216.089 172.403 216.169 172.858H215.317C215.27 172.614 215.155 172.424 214.971 172.288C214.793 172.147 214.567 172.076 214.295 172.076C213.985 172.076 213.726 172.187 213.52 172.407C213.313 172.623 213.21 172.943 213.21 173.366C213.21 173.788 213.313 174.11 213.52 174.331C213.726 174.552 213.985 174.662 214.295 174.662C214.567 174.662 214.793 174.592 214.971 174.451C215.155 174.31 215.27 174.117 215.317 173.873H216.169C216.089 174.329 215.885 174.69 215.556 174.958C215.227 175.226 214.812 175.36 214.309 175.36C213.933 175.36 213.6 175.28 213.308 175.12C213.022 174.961 212.796 174.73 212.632 174.43C212.467 174.129 212.385 173.774 212.385 173.366C212.385 172.962 212.467 172.609 212.632 172.309C212.796 172.008 213.022 171.778 213.308 171.618C213.6 171.458 213.933 171.379 214.309 171.379ZM218.897 174.613V175.311H218.404C217.991 175.311 217.676 175.212 217.46 175.015C217.248 174.813 217.143 174.479 217.143 174.014V172.111H216.586V171.428H217.143V170.462H217.953V171.428H218.89V172.111H217.953V174.028C217.953 174.249 217.993 174.402 218.073 174.486C218.157 174.571 218.303 174.613 218.51 174.613H218.897ZM219.537 170.3C219.537 170.164 219.584 170.051 219.678 169.962C219.772 169.873 219.896 169.828 220.051 169.828C220.207 169.828 220.331 169.873 220.425 169.962C220.524 170.051 220.573 170.164 220.573 170.3C220.573 170.437 220.524 170.547 220.425 170.632C220.331 170.716 220.207 170.758 220.051 170.758C219.896 170.758 219.772 170.716 219.678 170.632C219.584 170.547 219.537 170.437 219.537 170.3ZM220.453 171.428V175.311H219.65V171.428H220.453ZM223.018 174.479L224.117 171.428H224.977L223.497 175.311H222.525L221.045 171.428H221.904L223.018 174.479ZM225.455 170.3C225.455 170.164 225.502 170.051 225.596 169.962C225.69 169.873 225.815 169.828 225.97 169.828C226.125 169.828 226.249 169.873 226.343 169.962C226.442 170.051 226.491 170.164 226.491 170.3C226.491 170.437 226.442 170.547 226.343 170.632C226.249 170.716 226.125 170.758 225.97 170.758C225.815 170.758 225.69 170.716 225.596 170.632C225.502 170.547 225.455 170.437 225.455 170.3ZM226.371 171.428V175.311H225.568V171.428H226.371ZM229.295 174.613V175.311H228.802C228.389 175.311 228.074 175.212 227.858 175.015C227.646 174.813 227.541 174.479 227.541 174.014V172.111H226.984V171.428H227.541V170.462H228.351V171.428H229.288V172.111H228.351V174.028C228.351 174.249 228.391 174.402 228.471 174.486C228.555 174.571 228.701 174.613 228.908 174.613H229.295ZM230.506 171.428L231.668 174.282L232.747 171.428H233.641L231.295 177.157H230.4L231.239 175.219L229.604 171.428H230.506Z" fill="#1D1D1F"/>
<g clip-path="url(#clip9_6524_9502)">
<path d="M301.006 178.712C298.028 178.712 295.605 176.289 295.605 173.311C295.605 170.333 298.028 167.91 301.006 167.91H310.264C313.243 167.91 315.665 170.333 315.665 173.311C315.665 176.289 313.243 178.712 310.264 178.712H301.006Z" fill="#53A42A"/>
<path d="M310.264 168.167C313.1 168.167 315.407 170.474 315.407 173.31C315.407 176.146 313.1 178.454 310.264 178.454H301.006C298.169 178.454 295.862 176.146 295.862 173.31C295.862 170.474 298.169 168.167 301.006 168.167H310.264ZM310.264 167.652H301.006C297.881 167.652 295.348 170.186 295.348 173.31C295.348 176.435 297.881 178.968 301.006 178.968H310.264C313.389 178.968 315.922 176.435 315.922 173.31C315.922 170.186 313.389 167.652 310.264 167.652Z" fill="#53A42A"/>
<path d="M310.263 169.197C307.991 169.197 306.148 171.04 306.148 173.312C306.148 175.584 307.991 177.427 310.263 177.427C312.536 177.427 314.378 175.584 314.378 173.312C314.378 171.04 312.536 169.197 310.263 169.197Z" fill="white"/>
</g>
<defs>
<filter id="filter0_d_6524_9502" x="0.220451" y="0.380771" width="350.383" height="221.975" filterUnits="userSpaceOnUse" color-interpolation-filters="sRGB">
<feFlood flood-opacity="0" result="BackgroundImageFix"/>
<feColorMatrix in="SourceAlpha" type="matrix" values="0 0 0 0 0 0 0 0 0 0 0 0 0 0 0 0 0 0 127 0" result="hardAlpha"/>
<feOffset dy="2.8654"/>
<feGaussianBlur stdDeviation="10.7452"/>
<feComposite in2="hardAlpha" operator="out"/>
<feColorMatrix type="matrix" values="0 0 0 0 0.101961 0 0 0 0 0.109804 0 0 0 0 0.129412 0 0 0 0.07 0"/>
<feBlend mode="normal" in2="BackgroundImageFix" result="effect1_dropShadow_6524_9502"/>
<feBlend mode="normal" in="SourceGraphic" in2="effect1_dropShadow_6524_9502" result="shape"/>
</filter>
<clipPath id="clip0_6524_9502">
<rect width="20.574" height="20.574" fill="white" transform="translate(144.129 66.3262)"/>
</clipPath>
<clipPath id="clip1_6524_9502">
<rect width="20.574" height="20.574" fill="white" transform="translate(144.129 90.5)"/>
</clipPath>
<clipPath id="clip2_6524_9502">
<rect width="20.574" height="20.574" fill="white" transform="translate(144.129 114.676)"/>
</clipPath>
<clipPath id="clip3_6524_9502">
<rect width="20.574" height="20.574" fill="white" transform="translate(144.129 138.85)"/>
</clipPath>
<clipPath id="clip4_6524_9502">
<rect width="20.574" height="20.574" fill="white" transform="translate(144.129 163.023)"/>
</clipPath>
<clipPath id="clip5_6524_9502">
<rect width="20.574" height="20.574" fill="white" transform="translate(295.348 66.3262)"/>
</clipPath>
<clipPath id="clip6_6524_9502">
<rect width="20.574" height="20.574" fill="white" transform="translate(295.348 90.5)"/>
</clipPath>
<clipPath id="clip7_6524_9502">
<rect width="20.574" height="20.574" fill="white" transform="translate(295.348 114.676)"/>
</clipPath>
<clipPath id="clip8_6524_9502">
<rect width="20.574" height="20.574" fill="white" transform="translate(295.348 138.85)"/>
</clipPath>
<clipPath id="clip9_6524_9502">
<rect width="20.574" height="20.574" fill="white" transform="translate(295.348 163.023)"/>
</clipPath>
</defs>
</svg>
