<svg width="263" height="190" viewBox="0 0 263 190" fill="none" xmlns="http://www.w3.org/2000/svg">
<g filter="url(#filter0_d_6516_2518)">
<rect x="19" y="16.2324" width="224.569" height="152" rx="9.8762" fill="white"/>
</g>
<path d="M49.5657 62.9713C50.2867 62.9713 50.8906 63.1501 51.3772 63.5077C51.8696 63.8653 52.2008 64.3519 52.3709 64.9675H51.5267C51.3801 64.5923 51.1339 64.2904 50.788 64.0617C50.448 63.8331 50.0435 63.7188 49.5745 63.7188C49.1524 63.7188 48.7742 63.8184 48.4401 64.0178C48.1059 64.2112 47.8421 64.4897 47.6486 64.8532C47.461 65.2166 47.3672 65.6446 47.3672 66.137C47.3672 66.6412 47.464 67.078 47.6574 67.4473C47.8509 67.8108 48.1176 68.0922 48.4577 68.2915C48.8035 68.485 49.1993 68.5817 49.6448 68.5817C50.0259 68.5817 50.3747 68.4996 50.6913 68.3355C51.0078 68.1713 51.2658 67.9339 51.4651 67.6232C51.6703 67.3066 51.7934 66.9373 51.8344 66.5152H49.3986V65.9172H52.5115V66.6559C52.4588 67.1483 52.3064 67.5939 52.0543 67.9925C51.8022 68.3912 51.4622 68.7077 51.0342 68.9422C50.6062 69.1767 50.1197 69.294 49.5745 69.294C48.9765 69.294 48.4489 69.1621 47.9916 68.8983C47.5343 68.6286 47.1767 68.2563 46.9188 67.7815C46.6667 67.3007 46.5406 66.7526 46.5406 66.137C46.5406 65.5215 46.6667 64.9763 46.9188 64.5014C47.1767 64.0207 47.5343 63.6455 47.9916 63.3758C48.4489 63.1061 48.9736 62.9713 49.5657 62.9713ZM55.5746 64.3431C56.0436 64.3431 56.4393 64.4604 56.7617 64.6949C57.09 64.9294 57.3187 65.243 57.4476 65.6358V64.4047H58.2479V69.2324H57.4476V68.0013C57.3187 68.3941 57.09 68.7077 56.7617 68.9422C56.4393 69.1767 56.0436 69.294 55.5746 69.294C55.1466 69.294 54.7656 69.1943 54.4314 68.995C54.0972 68.7957 53.8334 68.5113 53.64 68.142C53.4524 67.7668 53.3586 67.3271 53.3586 66.8229C53.3586 66.3188 53.4524 65.8791 53.64 65.5039C53.8334 65.1287 54.0972 64.8414 54.4314 64.6421C54.7656 64.4428 55.1466 64.3431 55.5746 64.3431ZM55.8032 65.0554C55.3108 65.0554 54.915 65.2137 54.6161 65.5303C54.3229 65.841 54.1764 66.2719 54.1764 66.8229C54.1764 67.374 54.3229 67.8078 54.6161 68.1244C54.915 68.4351 55.3108 68.5905 55.8032 68.5905C56.1198 68.5905 56.4012 68.5172 56.6474 68.3706C56.8995 68.2241 57.0959 68.0189 57.2366 67.7551C57.3773 67.4854 57.4476 67.1747 57.4476 66.8229C57.4476 66.4712 57.3773 66.1605 57.2366 65.8908C57.0959 65.6211 56.8995 65.416 56.6474 65.2753C56.4012 65.1287 56.1198 65.0554 55.8032 65.0554ZM60.3217 62.7251V69.2324H59.5214V62.7251H60.3217ZM62.4084 62.7251V69.2324H61.6082V62.7251H62.4084ZM65.8846 64.3431C66.3478 64.3431 66.7611 64.4428 67.1245 64.6421C67.4939 64.8414 67.7811 65.1287 67.9863 65.5039C68.1974 65.8791 68.3029 66.3188 68.3029 66.8229C68.3029 67.3271 68.1974 67.7668 67.9863 68.142C67.7811 68.5113 67.4939 68.7957 67.1245 68.995C66.7611 69.1943 66.3478 69.294 65.8846 69.294C65.4215 69.294 65.0053 69.1943 64.6359 68.995C64.2725 68.7957 63.9852 68.5113 63.7741 68.142C63.5631 67.7668 63.4576 67.3271 63.4576 66.8229C63.4576 66.3188 63.5631 65.8791 63.7741 65.5039C63.9852 65.1287 64.2725 64.8414 64.6359 64.6421C65.0053 64.4428 65.4215 64.3431 65.8846 64.3431ZM65.8846 65.0466C65.5974 65.0466 65.3306 65.1111 65.0844 65.2401C64.844 65.3691 64.6477 65.5684 64.4952 65.8381C64.3487 66.1019 64.2754 66.4302 64.2754 66.8229C64.2754 67.2099 64.3487 67.5382 64.4952 67.8078C64.6477 68.0717 64.844 68.268 65.0844 68.397C65.3306 68.526 65.5974 68.5905 65.8846 68.5905C66.1719 68.5905 66.4357 68.526 66.6761 68.397C66.9223 68.268 67.1187 68.0717 67.2652 67.8078C67.4177 67.5382 67.4939 67.2099 67.4939 66.8229C67.4939 66.4302 67.4177 66.1019 67.2652 65.8381C67.1187 65.5684 66.9223 65.3691 66.6761 65.2401C66.4357 65.1111 66.1719 65.0466 65.8846 65.0466ZM71.887 64.3255C72.4498 64.3255 72.9042 64.5073 73.25 64.8707C73.5959 65.2284 73.7689 65.7472 73.7689 66.4272V69.2324H72.9686V66.4976C72.9686 66.0169 72.8455 65.6475 72.5993 65.3896C72.3531 65.1316 72.0189 65.0027 71.5968 65.0027C71.1571 65.0027 70.8054 65.1463 70.5416 65.4335C70.2778 65.7149 70.1459 66.1282 70.1459 66.6735V69.2324H69.3456V64.4047H70.1459V65.5479C70.269 65.1551 70.4859 64.8532 70.7966 64.6421C71.1132 64.4311 71.4766 64.3255 71.887 64.3255ZM76.5088 64.3431C77.054 64.3431 77.4908 64.4868 77.8191 64.774C78.1532 65.0554 78.3555 65.4365 78.4258 65.9172H77.6608C77.6256 65.6299 77.5054 65.3954 77.3002 65.2137C77.1009 65.0261 76.8312 64.9323 76.4912 64.9323C76.2039 64.9323 75.9782 65.0027 75.8141 65.1434C75.6558 65.2782 75.5767 65.4629 75.5767 65.6974C75.5767 65.8732 75.6294 66.0169 75.735 66.1282C75.8463 66.2338 75.9812 66.3158 76.1395 66.3745C76.3036 66.4272 76.5264 66.4859 76.8078 66.5503C77.1654 66.6324 77.4527 66.7174 77.6696 66.8054C77.8923 66.8874 78.0799 67.0223 78.2324 67.2099C78.3906 67.3975 78.4698 67.6496 78.4698 67.9661C78.4698 68.3589 78.3203 68.6784 78.0213 68.9246C77.7282 69.1709 77.3354 69.294 76.843 69.294C76.2684 69.294 75.7994 69.1562 75.436 68.8807C75.0725 68.6051 74.8585 68.2211 74.794 67.7287H75.5679C75.5972 68.0218 75.7232 68.2593 75.946 68.441C76.1746 68.6227 76.4736 68.7136 76.843 68.7136C77.1185 68.7136 77.3325 68.6432 77.4849 68.5025C77.6432 68.3618 77.7223 68.1772 77.7223 67.9485C77.7223 67.7609 77.6666 67.6115 77.5552 67.5001C77.4439 67.3887 77.3061 67.3037 77.1419 67.245C76.9778 67.1864 76.7521 67.1249 76.4648 67.0604C76.1072 66.9783 75.82 66.8962 75.603 66.8142C75.392 66.7321 75.2103 66.6031 75.0578 66.4272C74.9113 66.2455 74.838 66.0022 74.838 65.6974C74.838 65.2928 74.9875 64.9675 75.2865 64.7213C75.5855 64.4692 75.9929 64.3431 76.5088 64.3431ZM85.6338 67.6232C85.6338 67.9163 85.5634 68.1889 85.4227 68.441C85.282 68.6931 85.068 68.8983 84.7808 69.0565C84.4935 69.2148 84.1388 69.294 83.7167 69.294C83.3064 69.294 82.94 69.2207 82.6175 69.0741C82.301 68.9217 82.0459 68.7165 81.8525 68.4586C81.6649 68.1948 81.5564 67.8958 81.5271 67.5616H82.3801C82.3977 67.7375 82.4563 67.9104 82.556 68.0804C82.6615 68.2446 82.8081 68.3824 82.9957 68.4938C83.1891 68.5993 83.4207 68.652 83.6904 68.652C84.0421 68.652 84.3118 68.5582 84.4994 68.3706C84.687 68.183 84.7808 67.9427 84.7808 67.6496C84.7808 67.3975 84.7134 67.1923 84.5785 67.034C84.4495 66.8757 84.2883 66.7526 84.0949 66.6647C83.9014 66.5709 83.6376 66.4712 83.3034 66.3657C82.9106 66.2367 82.5941 66.1165 82.3537 66.0051C82.1192 65.8879 81.917 65.7149 81.747 65.4863C81.5828 65.2577 81.5007 64.9558 81.5007 64.5806C81.5007 64.2581 81.5769 63.9738 81.7294 63.7276C81.8876 63.4813 82.1104 63.2908 82.3977 63.156C82.6908 63.0211 83.0338 62.9537 83.4265 62.9537C84.0362 62.9537 84.5199 63.1032 84.8775 63.4022C85.2351 63.6953 85.4432 64.0705 85.5019 64.5278H84.6401C84.5932 64.2816 84.4671 64.0647 84.2619 63.8771C84.0568 63.6895 83.7783 63.5957 83.4265 63.5957C83.1041 63.5957 82.8462 63.6807 82.6527 63.8507C82.4592 64.0148 82.3625 64.2493 82.3625 64.5542C82.3625 64.7945 82.4241 64.9909 82.5472 65.1434C82.6762 65.2899 82.8344 65.4072 83.022 65.4951C83.2096 65.5772 83.4676 65.671 83.7959 65.7765C84.1945 65.9055 84.514 66.0286 84.7544 66.1458C85.0006 66.2631 85.2087 66.4419 85.3787 66.6822C85.5488 66.9167 85.6338 67.2304 85.6338 67.6232ZM89.3742 64.3431C89.8022 64.3431 90.1833 64.4428 90.5174 64.6421C90.8516 64.8414 91.1125 65.1287 91.3001 65.5039C91.4935 65.8791 91.5903 66.3188 91.5903 66.8229C91.5903 67.3271 91.4935 67.7668 91.3001 68.142C91.1125 68.5113 90.8516 68.7957 90.5174 68.995C90.1833 69.1943 89.8022 69.294 89.3742 69.294C88.9053 69.294 88.5066 69.1767 88.1783 68.9422C87.8559 68.7019 87.6331 68.3882 87.51 68.0013V71.5188H86.7098V64.4047H87.51V65.6358C87.6331 65.2489 87.8559 64.9382 88.1783 64.7037C88.5066 64.4633 88.9053 64.3431 89.3742 64.3431ZM89.1456 65.0554C88.8349 65.0554 88.5535 65.1287 88.3014 65.2753C88.0493 65.416 87.8529 65.6211 87.7122 65.8908C87.5715 66.1605 87.5012 66.4712 87.5012 66.8229C87.5012 67.1747 87.5715 67.4854 87.7122 67.7551C87.8529 68.0189 88.0493 68.2241 88.3014 68.3706C88.5535 68.5172 88.8349 68.5905 89.1456 68.5905C89.6439 68.5905 90.0396 68.4351 90.3328 68.1244C90.6317 67.8078 90.7812 67.374 90.7812 66.8229C90.7812 66.2719 90.6317 65.841 90.3328 65.5303C90.0396 65.2137 89.6439 65.0554 89.1456 65.0554ZM97.076 66.5503C97.076 66.7204 97.0643 66.8669 97.0408 66.99H93.1804C93.198 67.5411 93.3534 67.9544 93.6465 68.2299C93.9455 68.5055 94.3089 68.6432 94.7369 68.6432C95.1238 68.6432 95.4463 68.5465 95.7042 68.3531C95.968 68.1537 96.1292 67.8899 96.1879 67.5616H97.0408C96.9822 67.8958 96.8503 68.1948 96.6451 68.4586C96.4458 68.7224 96.1849 68.9276 95.8625 69.0741C95.5401 69.2207 95.1766 69.294 94.7721 69.294C94.3089 69.294 93.8986 69.1943 93.541 68.995C93.1833 68.7957 92.9019 68.5113 92.6968 68.142C92.4974 67.7668 92.3978 67.3271 92.3978 66.8229C92.3978 66.3188 92.4974 65.8791 92.6968 65.5039C92.9019 65.1287 93.1833 64.8414 93.541 64.6421C93.8986 64.4428 94.3089 64.3431 94.7721 64.3431C95.2411 64.3431 95.6485 64.4428 95.9944 64.6421C96.3461 64.8414 96.6129 65.1082 96.7946 65.4423C96.9822 65.7765 97.076 66.1458 97.076 66.5503ZM96.267 66.6031C96.2846 66.2455 96.226 65.9465 96.0911 65.7061C95.9563 65.4658 95.7716 65.287 95.5371 65.1697C95.3026 65.0525 95.0476 64.9939 94.7721 64.9939C94.3324 64.9939 93.963 65.1316 93.6641 65.4072C93.3651 65.6768 93.2039 66.0755 93.1804 66.6031H96.267ZM100.664 64.3255C101.227 64.3255 101.681 64.5073 102.027 64.8707C102.373 65.2284 102.546 65.7472 102.546 66.4272V69.2324H101.746V66.4976C101.746 66.0169 101.623 65.6475 101.376 65.3896C101.13 65.1316 100.796 65.0027 100.374 65.0027C99.9342 65.0027 99.5824 65.1463 99.3186 65.4335C99.0548 65.7149 98.9229 66.1282 98.9229 66.6735V69.2324H98.1227V64.4047H98.9229V65.5479C99.046 65.1551 99.2629 64.8532 99.5736 64.6421C99.8902 64.4311 100.254 64.3255 100.664 64.3255ZM106.077 68.5289V69.2324H105.479C104.987 69.2324 104.618 69.1152 104.371 68.8807C104.131 68.6462 104.011 68.2534 104.011 67.7023V65.0994H103.29V64.4047H104.011V63.1999H104.82V64.4047H106.068V65.0994H104.82V67.7199C104.82 68.0306 104.875 68.2446 104.987 68.3618C105.104 68.4732 105.303 68.5289 105.585 68.5289H106.077Z" fill="#5B5B5F"/>
<path d="M58.1351 94.2676H47.9578V92.0277L53.1551 86.6781C54.315 85.4458 54.8949 84.431 54.8949 83.6336C54.8949 83.0392 54.7064 82.5608 54.3295 82.1983C53.967 81.8359 53.4958 81.6547 52.9159 81.6547C51.7561 81.6547 50.908 82.2491 50.3716 83.4379L47.849 81.9591C48.313 80.9298 48.9871 80.1397 49.8714 79.5888C50.7703 79.0234 51.7706 78.7407 52.8724 78.7407C54.2497 78.7407 55.4313 79.1756 56.4171 80.0454C57.4029 80.9008 57.8959 82.0606 57.8959 83.5249C57.8959 85.1051 57.0622 86.7288 55.395 88.3961L52.4158 91.3753H58.1351V94.2676ZM58.844 80.4586L62.8454 79.0451H65.4549V94.2676H62.4539V82.2201L59.5834 83.0247L58.844 80.4586ZM78.5402 84.025C78.5402 85.1993 78.2357 86.2287 77.6268 87.113H77.6486L72.9078 94.2676H69.4719L72.8643 89.3094C71.2841 89.2949 69.9938 88.7947 68.9935 87.8089C68.0076 86.8231 67.5147 85.5618 67.5147 84.025C67.5147 82.4593 68.0221 81.1907 69.037 80.2194C70.0663 79.2336 71.3928 78.7407 73.0166 78.7407C74.6403 78.7407 75.9668 79.2336 76.9962 80.2194C78.0255 81.2052 78.5402 82.4738 78.5402 84.025ZM70.494 84.025C70.494 84.7644 70.7332 85.3661 71.2116 85.83C71.69 86.2794 72.2917 86.5041 73.0166 86.5041C73.7704 86.5041 74.3793 86.2794 74.8433 85.83C75.3217 85.3661 75.5609 84.7644 75.5609 84.025C75.5609 83.2857 75.3217 82.6912 74.8433 82.2418C74.3793 81.7924 73.7704 81.5677 73.0166 81.5677C72.2917 81.5677 71.69 81.7996 71.2116 82.2636C70.7332 82.713 70.494 83.3001 70.494 84.025Z" fill="#003366"/>
<path d="M88.8622 90.4583H92.7045V90.9194C92.7045 91.922 92.3605 92.7563 91.6726 93.4223C90.9846 94.081 90.0735 94.4103 88.9391 94.4103C87.7681 94.4103 86.7984 94.0261 86.03 93.2576C85.2689 92.4745 84.8883 91.5305 84.8883 90.4254C84.8883 89.3203 85.2689 88.3798 86.03 87.6041C86.7984 86.8283 87.7608 86.4404 88.9171 86.4404C89.6197 86.4404 90.2711 86.6124 90.8712 86.9564C91.4786 87.3003 91.936 87.7468 92.2434 88.2957L91.3652 88.8116C91.1456 88.3945 90.8126 88.0615 90.3662 87.8126C89.9198 87.5565 89.4331 87.4284 88.9062 87.4284C88.0206 87.4284 87.2997 87.7175 86.7435 88.2957C86.18 88.8738 85.8982 89.5837 85.8982 90.4254C85.8982 91.267 86.18 91.9769 86.7435 92.555C87.3144 93.1259 88.0499 93.4113 88.9501 93.4113C89.7039 93.4113 90.3186 93.2283 90.7943 92.8624C91.2774 92.4892 91.5738 91.9952 91.6835 91.3804H88.8622V90.4583ZM98.3919 89.7228V88.7787H99.347V94.2676H98.3919V93.3235C97.9235 94.048 97.2319 94.4103 96.3171 94.4103C95.5413 94.4103 94.8863 94.1322 94.3521 93.576C93.8105 93.0125 93.5397 92.3282 93.5397 91.5231C93.5397 90.7254 93.8105 90.0448 94.3521 89.4813C94.8937 88.9177 95.5487 88.636 96.3171 88.636C97.2319 88.636 97.9235 88.9982 98.3919 89.7228ZM96.4379 93.4882C96.9941 93.4882 97.4588 93.3015 97.832 92.9283C98.2053 92.5404 98.3919 92.072 98.3919 91.5231C98.3919 90.9669 98.2053 90.5022 97.832 90.129C97.4588 89.7484 96.9941 89.5581 96.4379 89.5581C95.889 89.5581 95.4279 89.7484 95.0547 90.129C94.6814 90.5022 94.4948 90.9669 94.4948 91.5231C94.4948 92.072 94.6814 92.5404 95.0547 92.9283C95.4279 93.3015 95.889 93.4882 96.4379 93.4882ZM101.749 94.2676H100.794V86.2538H101.749V94.2676ZM103.81 94.3883C103.612 94.3883 103.444 94.3188 103.305 94.1798C103.166 94.0407 103.096 93.8724 103.096 93.6748C103.096 93.4772 103.166 93.3089 103.305 93.1698C103.444 93.0307 103.612 92.9612 103.81 92.9612C104.015 92.9612 104.183 93.0307 104.315 93.1698C104.454 93.3089 104.523 93.4772 104.523 93.6748C104.523 93.8724 104.454 94.0407 104.315 94.1798C104.183 94.3188 104.015 94.3883 103.81 94.3883Z" fill="#5B5B5F"/>
<path d="M155.266 63.6836V65.8029H157.623V66.4184H155.266V68.5817H157.886V69.2324H154.466V63.0329H157.886V63.6836H155.266ZM160.426 64.3431C160.972 64.3431 161.408 64.4868 161.737 64.774C162.071 65.0554 162.273 65.4365 162.343 65.9172H161.578C161.543 65.6299 161.423 65.3954 161.218 65.2137C161.019 65.0261 160.749 64.9323 160.409 64.9323C160.122 64.9323 159.896 65.0027 159.732 65.1434C159.573 65.2782 159.494 65.4629 159.494 65.6974C159.494 65.8732 159.547 66.0169 159.653 66.1282C159.764 66.2338 159.899 66.3158 160.057 66.3745C160.221 66.4272 160.444 66.4859 160.725 66.5503C161.083 66.6324 161.37 66.7174 161.587 66.8054C161.81 66.8874 161.998 67.0223 162.15 67.2099C162.308 67.3975 162.387 67.6496 162.387 67.9661C162.387 68.3589 162.238 68.6784 161.939 68.9246C161.646 69.1709 161.253 69.294 160.761 69.294C160.186 69.294 159.717 69.1562 159.354 68.8807C158.99 68.6051 158.776 68.2211 158.712 67.7287H159.486C159.515 68.0218 159.641 68.2593 159.864 68.441C160.092 68.6227 160.391 68.7136 160.761 68.7136C161.036 68.7136 161.25 68.6432 161.403 68.5025C161.561 68.3618 161.64 68.1772 161.64 67.9485C161.64 67.7609 161.584 67.6115 161.473 67.5001C161.362 67.3887 161.224 67.3037 161.06 67.245C160.895 67.1864 160.67 67.1249 160.382 67.0604C160.025 66.9783 159.738 66.8962 159.521 66.8142C159.31 66.7321 159.128 66.6031 158.976 66.4272C158.829 66.2455 158.756 66.0022 158.756 65.6974C158.756 65.2928 158.905 64.9675 159.204 64.7213C159.503 64.4692 159.911 64.3431 160.426 64.3431ZM165.761 68.5289V69.2324H165.163C164.67 69.2324 164.301 69.1152 164.055 68.8807C163.814 68.6462 163.694 68.2534 163.694 67.7023V65.0994H162.973V64.4047H163.694V63.1999H164.503V64.4047H165.752V65.0994H164.503V67.7199C164.503 68.0306 164.559 68.2446 164.67 68.3618C164.788 68.4732 164.987 68.5289 165.268 68.5289H165.761ZM166.597 62.9889C166.597 62.8423 166.646 62.7251 166.746 62.6371C166.846 62.5433 166.978 62.4964 167.142 62.4964C167.306 62.4964 167.438 62.5433 167.537 62.6371C167.637 62.7251 167.687 62.8423 167.687 62.9889C167.687 63.1355 167.637 63.2556 167.537 63.3494C167.438 63.4374 167.306 63.4813 167.142 63.4813C166.978 63.4813 166.846 63.4374 166.746 63.3494C166.646 63.2556 166.597 63.1355 166.597 62.9889ZM167.537 64.4047V69.2324H166.737V64.4047H167.537ZM174.76 64.3255C175.323 64.3255 175.774 64.5073 176.114 64.8707C176.46 65.2284 176.633 65.7472 176.633 66.4272V69.2324H175.833V66.4976C175.833 66.0227 175.715 65.6592 175.481 65.4072C175.252 65.1551 174.936 65.029 174.531 65.029C174.109 65.029 173.769 65.1697 173.511 65.4511C173.259 65.7267 173.133 66.1341 173.133 66.6735V69.2324H172.333V66.4976C172.333 66.0227 172.215 65.6592 171.981 65.4072C171.746 65.1551 171.43 65.029 171.031 65.029C170.603 65.029 170.26 65.1697 170.002 65.4511C169.75 65.7267 169.624 66.1341 169.624 66.6735V69.2324H168.824V64.4047H169.624V65.5039C169.742 65.1228 169.95 64.8326 170.249 64.6333C170.553 64.4281 170.902 64.3255 171.295 64.3255C171.705 64.3255 172.06 64.4311 172.359 64.6421C172.664 64.8473 172.881 65.1521 173.01 65.5567C173.145 65.1639 173.37 64.862 173.687 64.6509C174.004 64.434 174.361 64.3255 174.76 64.3255ZM179.854 64.3431C180.323 64.3431 180.719 64.4604 181.041 64.6949C181.369 64.9294 181.598 65.243 181.727 65.6358V64.4047H182.527V69.2324H181.727V68.0013C181.598 68.3941 181.369 68.7077 181.041 68.9422C180.719 69.1767 180.323 69.294 179.854 69.294C179.426 69.294 179.045 69.1943 178.711 68.995C178.377 68.7957 178.113 68.5113 177.919 68.142C177.732 67.7668 177.638 67.3271 177.638 66.8229C177.638 66.3188 177.732 65.8791 177.919 65.5039C178.113 65.1287 178.377 64.8414 178.711 64.6421C179.045 64.4428 179.426 64.3431 179.854 64.3431ZM180.083 65.0554C179.59 65.0554 179.194 65.2137 178.895 65.5303C178.602 65.841 178.456 66.2719 178.456 66.8229C178.456 67.374 178.602 67.8078 178.895 68.1244C179.194 68.4351 179.59 68.5905 180.083 68.5905C180.399 68.5905 180.681 68.5172 180.927 68.3706C181.179 68.2241 181.375 68.0189 181.516 67.7551C181.657 67.4854 181.727 67.1747 181.727 66.8229C181.727 66.4712 181.657 66.1605 181.516 65.8908C181.375 65.6211 181.179 65.416 180.927 65.2753C180.681 65.1287 180.399 65.0554 180.083 65.0554ZM186.105 68.5289V69.2324H185.507C185.014 69.2324 184.645 69.1152 184.399 68.8807C184.158 68.6462 184.038 68.2534 184.038 67.7023V65.0994H183.317V64.4047H184.038V63.1999H184.847V64.4047H186.096V65.0994H184.847V67.7199C184.847 68.0306 184.903 68.2446 185.014 68.3618C185.132 68.4732 185.331 68.5289 185.612 68.5289H186.105ZM191.522 66.5503C191.522 66.7204 191.51 66.8669 191.487 66.99H187.626C187.644 67.5411 187.799 67.9544 188.093 68.2299C188.392 68.5055 188.755 68.6432 189.183 68.6432C189.57 68.6432 189.892 68.5465 190.15 68.3531C190.414 68.1537 190.575 67.8899 190.634 67.5616H191.487C191.428 67.8958 191.296 68.1948 191.091 68.4586C190.892 68.7224 190.631 68.9276 190.309 69.0741C189.986 69.2207 189.623 69.294 189.218 69.294C188.755 69.294 188.345 69.1943 187.987 68.995C187.629 68.7957 187.348 68.5113 187.143 68.142C186.943 67.7668 186.844 67.3271 186.844 66.8229C186.844 66.3188 186.943 65.8791 187.143 65.5039C187.348 65.1287 187.629 64.8414 187.987 64.6421C188.345 64.4428 188.755 64.3431 189.218 64.3431C189.687 64.3431 190.095 64.4428 190.44 64.6421C190.792 64.8414 191.059 65.1082 191.241 65.4423C191.428 65.7765 191.522 66.1458 191.522 66.5503ZM190.713 66.6031C190.731 66.2455 190.672 65.9465 190.537 65.7061C190.402 65.4658 190.218 65.287 189.983 65.1697C189.749 65.0525 189.494 64.9939 189.218 64.9939C188.778 64.9939 188.409 65.1316 188.11 65.4072C187.811 65.6768 187.65 66.0755 187.626 66.6031H190.713ZM194.547 64.3431C195.016 64.3431 195.412 64.4604 195.734 64.6949C196.063 64.9294 196.291 65.243 196.42 65.6358V62.7251H197.221V69.2324H196.42V68.0013C196.291 68.3941 196.063 68.7077 195.734 68.9422C195.412 69.1767 195.016 69.294 194.547 69.294C194.119 69.294 193.738 69.1943 193.404 68.995C193.07 68.7957 192.806 68.5113 192.613 68.142C192.425 67.7668 192.331 67.3271 192.331 66.8229C192.331 66.3188 192.425 65.8791 192.613 65.5039C192.806 65.1287 193.07 64.8414 193.404 64.6421C193.738 64.4428 194.119 64.3431 194.547 64.3431ZM194.776 65.0554C194.284 65.0554 193.888 65.2137 193.589 65.5303C193.296 65.841 193.149 66.2719 193.149 66.8229C193.149 67.374 193.296 67.8078 193.589 68.1244C193.888 68.4351 194.284 68.5905 194.776 68.5905C195.093 68.5905 195.374 68.5172 195.62 68.3706C195.872 68.2241 196.069 68.0189 196.209 67.7551C196.35 67.4854 196.42 67.1747 196.42 66.8229C196.42 66.4712 196.35 66.1605 196.209 65.8908C196.069 65.6211 195.872 65.416 195.62 65.2753C195.374 65.1287 195.093 65.0554 194.776 65.0554ZM203.41 62.9713C204.167 62.9713 204.791 63.1589 205.284 63.5341C205.776 63.9034 206.116 64.4105 206.304 65.0554H205.459C205.301 64.645 205.046 64.3197 204.694 64.0793C204.343 63.8331 203.912 63.71 203.402 63.71C202.997 63.71 202.634 63.8096 202.311 64.009C201.995 64.2024 201.743 64.4838 201.555 64.8532C201.373 65.2166 201.282 65.6446 201.282 66.137C201.282 66.6236 201.373 67.0487 201.555 67.4121C201.743 67.7756 201.995 68.057 202.311 68.2563C202.634 68.4498 202.997 68.5465 203.402 68.5465C203.912 68.5465 204.343 68.4263 204.694 68.186C205.046 67.9397 205.301 67.6115 205.459 67.2011H206.304C206.116 67.8459 205.776 68.356 205.284 68.7312C204.791 69.1005 204.167 69.2852 203.41 69.2852C202.83 69.2852 202.317 69.1533 201.872 68.8895C201.426 68.6198 201.077 68.2475 200.825 67.7727C200.579 67.2919 200.456 66.7467 200.456 66.137C200.456 65.5215 200.579 64.9733 200.825 64.4926C201.077 64.0119 201.426 63.6396 201.872 63.3758C202.317 63.1061 202.83 62.9713 203.41 62.9713ZM209.563 64.3431C210.027 64.3431 210.44 64.4428 210.803 64.6421C211.173 64.8414 211.46 65.1287 211.665 65.5039C211.876 65.8791 211.982 66.3188 211.982 66.8229C211.982 67.3271 211.876 67.7668 211.665 68.142C211.46 68.5113 211.173 68.7957 210.803 68.995C210.44 69.1943 210.027 69.294 209.563 69.294C209.1 69.294 208.684 69.1943 208.315 68.995C207.951 68.7957 207.664 68.5113 207.453 68.142C207.242 67.7668 207.136 67.3271 207.136 66.8229C207.136 66.3188 207.242 65.8791 207.453 65.5039C207.664 65.1287 207.951 64.8414 208.315 64.6421C208.684 64.4428 209.1 64.3431 209.563 64.3431ZM209.563 65.0466C209.276 65.0466 209.009 65.1111 208.763 65.2401C208.523 65.3691 208.326 65.5684 208.174 65.8381C208.027 66.1019 207.954 66.4302 207.954 66.8229C207.954 67.2099 208.027 67.5382 208.174 67.8078C208.326 68.0717 208.523 68.268 208.763 68.397C209.009 68.526 209.276 68.5905 209.563 68.5905C209.851 68.5905 210.114 68.526 210.355 68.397C210.601 68.268 210.797 68.0717 210.944 67.8078C211.096 67.5382 211.173 67.2099 211.173 66.8229C211.173 66.4302 211.096 66.1019 210.944 65.8381C210.797 65.5684 210.601 65.3691 210.355 65.2401C210.114 65.1111 209.851 65.0466 209.563 65.0466ZM214.537 64.3431C215.082 64.3431 215.519 64.4868 215.847 64.774C216.181 65.0554 216.384 65.4365 216.454 65.9172H215.689C215.654 65.6299 215.534 65.3954 215.328 65.2137C215.129 65.0261 214.859 64.9323 214.519 64.9323C214.232 64.9323 214.006 65.0027 213.842 65.1434C213.684 65.2782 213.605 65.4629 213.605 65.6974C213.605 65.8732 213.658 66.0169 213.763 66.1282C213.874 66.2338 214.009 66.3158 214.168 66.3745C214.332 66.4272 214.554 66.4859 214.836 66.5503C215.193 66.6324 215.481 66.7174 215.698 66.8054C215.92 66.8874 216.108 67.0223 216.26 67.2099C216.419 67.3975 216.498 67.6496 216.498 67.9661C216.498 68.3589 216.348 68.6784 216.049 68.9246C215.756 69.1709 215.364 69.294 214.871 69.294C214.297 69.294 213.828 69.1562 213.464 68.8807C213.101 68.6051 212.887 68.2211 212.822 67.7287H213.596C213.625 68.0218 213.751 68.2593 213.974 68.441C214.203 68.6227 214.502 68.7136 214.871 68.7136C215.147 68.7136 215.361 68.6432 215.513 68.5025C215.671 68.3618 215.75 68.1772 215.75 67.9485C215.75 67.7609 215.695 67.6115 215.583 67.5001C215.472 67.3887 215.334 67.3037 215.17 67.245C215.006 67.1864 214.78 67.1249 214.493 67.0604C214.135 66.9783 213.848 66.8962 213.631 66.8142C213.42 66.7321 213.238 66.6031 213.086 66.4272C212.939 66.2455 212.866 66.0022 212.866 65.6974C212.866 65.2928 213.016 64.9675 213.315 64.7213C213.614 64.4692 214.021 64.3431 214.537 64.3431ZM219.871 68.5289V69.2324H219.273C218.781 69.2324 218.411 69.1152 218.165 68.8807C217.925 68.6462 217.805 68.2534 217.805 67.7023V65.0994H217.084V64.4047H217.805V63.1999H218.614V64.4047H219.862V65.0994H218.614V67.7199C218.614 68.0306 218.669 68.2446 218.781 68.3618C218.898 68.4732 219.097 68.5289 219.379 68.5289H219.871Z" fill="#5B5B5F"/>
<path d="M161.437 90.0053C161.437 91.2521 161.038 92.2814 160.241 93.0933C159.443 93.8906 158.378 94.3691 157.044 94.5285V96.4422H155.587V94.5503C154.369 94.4633 153.325 94.1226 152.455 93.5282C151.586 92.9338 150.962 92.1292 150.585 91.1144L153.173 89.6139C153.637 90.7882 154.442 91.4478 155.587 91.5928V87.8306H155.565L155.522 87.8089C154.637 87.49 153.847 87.113 153.151 86.6781C151.977 85.9387 151.346 84.7644 151.259 83.1552C151.259 81.8649 151.673 80.8428 152.499 80.0889C153.369 79.3061 154.398 78.8639 155.587 78.7624V76.8705H157.044V78.8059C159.016 79.0524 160.407 80.0744 161.219 81.8721L158.697 83.3509C158.349 82.481 157.798 81.9519 157.044 81.7634V85.395C158.45 85.9605 159.356 86.3881 159.762 86.6781C160.879 87.49 161.437 88.599 161.437 90.0053ZM154.239 83.1769C154.239 83.4959 154.34 83.7786 154.543 84.025C154.746 84.257 155.094 84.4962 155.587 84.7427V81.6982C154.688 81.8721 154.239 82.3651 154.239 83.1769ZM157.044 88.4178V91.5493C157.972 91.3608 158.436 90.8534 158.436 90.027C158.436 89.3746 157.972 88.8382 157.044 88.4178ZM166.5 84.5904H168.066C169.544 84.5904 170.777 85.0326 171.762 85.917C172.763 86.7868 173.263 88.0046 173.263 89.5704C173.263 91.1361 172.734 92.3611 171.675 93.2455C170.646 94.1299 169.363 94.572 167.826 94.572C166.58 94.572 165.485 94.2966 164.543 93.7457C163.615 93.1803 162.941 92.3684 162.52 91.3101L165.086 89.8096C165.449 91.0274 166.362 91.6363 167.826 91.6363C168.595 91.6363 169.189 91.455 169.61 91.0926C170.045 90.7157 170.262 90.2083 170.262 89.5704C170.262 88.947 170.052 88.4468 169.631 88.0699C169.211 87.6929 168.638 87.5045 167.913 87.5045H163.303L163.912 79.0451H172.545V81.8504H166.696L166.5 84.5904ZM184.103 94.2676H173.925V92.0277L179.123 86.6781C180.283 85.4458 180.862 84.431 180.862 83.6336C180.862 83.0392 180.674 82.5608 180.297 82.1983C179.935 81.8359 179.463 81.6547 178.884 81.6547C177.724 81.6547 176.876 82.2491 176.339 83.4379L173.817 81.9591C174.281 80.9298 174.955 80.1397 175.839 79.5888C176.738 79.0234 177.738 78.7407 178.84 78.7407C180.217 78.7407 181.399 79.1756 182.385 80.0454C183.371 80.9008 183.864 82.0606 183.864 83.5249C183.864 85.1051 183.03 86.7288 181.363 88.3961L178.383 91.3753H184.103V94.2676ZM195.292 88.8962H196.923V91.6798H195.292V94.2676H192.27V91.6798H185.072V88.8962L190.139 79.0451H193.357L188.312 88.8962H192.27V85.2863H195.292V88.8962ZM201.992 92.7018C201.992 93.2093 201.811 93.6442 201.448 94.0066C201.086 94.3691 200.651 94.5503 200.144 94.5503C199.636 94.5503 199.201 94.3691 198.839 94.0066C198.476 93.6442 198.295 93.2093 198.295 92.7018C198.295 92.1944 198.476 91.7595 198.839 91.3971C199.201 91.0346 199.636 90.8534 200.144 90.8534C200.651 90.8534 201.086 91.0346 201.448 91.3971C201.811 91.7595 201.992 92.1944 201.992 92.7018ZM203.331 81.9156V79.0451H213.16V81.5894L208.007 94.2676H204.832L209.833 81.9156H203.331ZM221.536 79.0451L218.166 83.9815C219.746 84.025 221.029 84.5397 222.015 85.5255C223 86.5114 223.493 87.7582 223.493 89.2659C223.493 90.8172 222.979 92.0929 221.949 93.0933C220.92 94.0791 219.594 94.572 217.97 94.572C216.346 94.572 215.02 94.0791 213.99 93.0933C212.975 92.1219 212.468 90.8461 212.468 89.2659C212.468 88.1206 212.765 87.0985 213.36 86.1997L218.1 79.0451H221.536ZM220.514 89.2659C220.514 88.541 220.275 87.9539 219.797 87.5045C219.318 87.0405 218.709 86.8086 217.97 86.8086C217.23 86.8086 216.622 87.0333 216.143 87.4827C215.679 87.9321 215.447 88.5265 215.447 89.2659C215.447 90.0053 215.679 90.6069 216.143 91.0709C216.622 91.5203 217.23 91.745 217.97 91.745C218.709 91.745 219.318 91.5203 219.797 91.0709C220.275 90.6069 220.514 90.0053 220.514 89.2659Z" fill="#53A42A"/>
<path d="M72.0783 120.811C70.047 120.811 68.3787 122.479 68.3787 124.51V128.546V144.407C68.1516 144.485 67.9596 144.641 67.837 144.847C67.7144 145.053 67.6693 145.296 67.7098 145.533C67.7503 145.769 67.8737 145.984 68.0579 146.137C68.2422 146.291 68.4751 146.374 68.715 146.372H69.2221C69.3305 146.389 69.441 146.389 69.5493 146.372H82.0026C82.111 146.389 82.2215 146.389 82.3298 146.372H82.8408C83.0807 146.374 83.3137 146.291 83.4979 146.137C83.6821 145.984 83.8056 145.769 83.8461 145.533C83.8866 145.296 83.8415 145.053 83.7189 144.847C83.5963 144.641 83.4042 144.485 83.1772 144.407V138.3H86.2041C86.4026 138.3 86.5405 138.438 86.5405 138.636V140.99C86.5405 142.836 88.0582 144.354 89.9037 144.354C91.7493 144.354 93.267 142.836 93.267 140.99V132.223C93.267 131.29 92.8351 130.407 92.0978 129.834L86.8229 125.732C86.6374 125.583 86.4052 125.504 86.1673 125.51C85.9581 125.515 85.7556 125.586 85.5881 125.711C85.4205 125.837 85.2961 126.011 85.2322 126.21C85.1682 126.41 85.1679 126.624 85.2311 126.824C85.2944 127.023 85.4182 127.198 85.5853 127.324L87.8858 129.114V132.246C87.8858 133.732 89.0905 134.936 90.5764 134.936H91.2491V140.99C91.2491 141.745 90.6587 142.336 89.9037 142.336C89.1488 142.336 88.5584 141.745 88.5584 140.99V138.636C88.5584 137.348 87.4922 136.282 86.2041 136.282H83.1772V128.546V124.51C83.1772 122.479 81.5088 120.811 79.4776 120.811H72.0783ZM72.0783 122.829H79.4776C80.4181 122.829 81.1592 123.57 81.1592 124.51V128.546C81.1592 129.487 80.4181 130.228 79.4776 130.228H72.0783C71.1378 130.228 70.3967 129.487 70.3967 128.546V124.51C70.3967 123.57 71.1378 122.829 72.0783 122.829Z" fill="#53A42A"/>
<path d="M109.919 120.839L107.378 125.657V128.594H106.366V125.657L103.814 120.839H104.98L106.883 124.59L108.775 120.839H109.919ZM113.668 122.478C114.247 122.478 114.764 122.602 115.219 122.852C115.681 123.101 116.04 123.46 116.297 123.93C116.561 124.399 116.693 124.949 116.693 125.58C116.693 126.21 116.561 126.76 116.297 127.23C116.04 127.692 115.681 128.047 115.219 128.297C114.764 128.546 114.247 128.671 113.668 128.671C113.089 128.671 112.568 128.546 112.106 128.297C111.651 128.047 111.292 127.692 111.028 127.23C110.764 126.76 110.632 126.21 110.632 125.58C110.632 124.949 110.764 124.399 111.028 123.93C111.292 123.46 111.651 123.101 112.106 122.852C112.568 122.602 113.089 122.478 113.668 122.478ZM113.668 123.358C113.309 123.358 112.975 123.438 112.667 123.6C112.366 123.761 112.121 124.01 111.93 124.348C111.747 124.678 111.655 125.088 111.655 125.58C111.655 126.064 111.747 126.474 111.93 126.812C112.121 127.142 112.366 127.387 112.667 127.549C112.975 127.71 113.309 127.791 113.668 127.791C114.027 127.791 114.357 127.71 114.658 127.549C114.966 127.387 115.212 127.142 115.395 126.812C115.586 126.474 115.681 126.064 115.681 125.58C115.681 125.088 115.586 124.678 115.395 124.348C115.212 124.01 114.966 123.761 114.658 123.6C114.357 123.438 114.027 123.358 113.668 123.358ZM123.365 122.555V128.594H122.364V127.175C122.21 127.666 121.935 128.044 121.539 128.308C121.151 128.564 120.696 128.693 120.175 128.693C119.479 128.693 118.914 128.469 118.481 128.022C118.049 127.567 117.832 126.918 117.832 126.075V122.555H118.833V125.976C118.833 126.577 118.987 127.043 119.295 127.373C119.603 127.695 120.021 127.857 120.549 127.857C121.099 127.857 121.539 127.681 121.869 127.329C122.199 126.969 122.364 126.449 122.364 125.767V122.555H123.365ZM125.97 123.776C126.168 123.358 126.458 123.035 126.839 122.808C127.22 122.573 127.675 122.456 128.203 122.456V123.545H127.895C127.33 123.545 126.868 123.691 126.509 123.985C126.15 124.271 125.97 124.747 125.97 125.415V128.594H124.969V122.555H125.97V123.776ZM134.79 127.714V128.594H134.042C133.426 128.594 132.964 128.447 132.656 128.154C132.356 127.86 132.205 127.369 132.205 126.68V123.424H131.303V122.555H132.205V121.048H133.217V122.555H134.779V123.424H133.217V126.702C133.217 127.09 133.287 127.358 133.426 127.505C133.573 127.644 133.822 127.714 134.174 127.714H134.79ZM138.751 122.478C139.33 122.478 139.847 122.602 140.302 122.852C140.764 123.101 141.123 123.46 141.38 123.93C141.644 124.399 141.776 124.949 141.776 125.58C141.776 126.21 141.644 126.76 141.38 127.23C141.123 127.692 140.764 128.047 140.302 128.297C139.847 128.546 139.33 128.671 138.751 128.671C138.172 128.671 137.651 128.546 137.189 128.297C136.734 128.047 136.375 127.692 136.111 127.23C135.847 126.76 135.715 126.21 135.715 125.58C135.715 124.949 135.847 124.399 136.111 123.93C136.375 123.46 136.734 123.101 137.189 122.852C137.651 122.602 138.172 122.478 138.751 122.478ZM138.751 123.358C138.392 123.358 138.058 123.438 137.75 123.6C137.449 123.761 137.204 124.01 137.013 124.348C136.83 124.678 136.738 125.088 136.738 125.58C136.738 126.064 136.83 126.474 137.013 126.812C137.204 127.142 137.449 127.387 137.75 127.549C138.058 127.71 138.392 127.791 138.751 127.791C139.11 127.791 139.44 127.71 139.741 127.549C140.049 127.387 140.295 127.142 140.478 126.812C140.669 126.474 140.764 126.064 140.764 125.58C140.764 125.088 140.669 124.678 140.478 124.348C140.295 124.01 140.049 123.761 139.741 123.6C139.44 123.438 139.11 123.358 138.751 123.358ZM145.962 127.714V128.594H145.214C144.598 128.594 144.136 128.447 143.828 128.154C143.528 127.86 143.377 127.369 143.377 126.68V123.424H142.475V122.555H143.377V121.048H144.389V122.555H145.951V123.424H144.389V126.702C144.389 127.09 144.459 127.358 144.598 127.505C144.745 127.644 144.994 127.714 145.346 127.714H145.962ZM149.659 122.478C150.246 122.478 150.741 122.624 151.144 122.918C151.555 123.211 151.841 123.603 152.002 124.095V122.555H153.003V128.594H152.002V127.054C151.841 127.545 151.555 127.937 151.144 128.231C150.741 128.524 150.246 128.671 149.659 128.671C149.124 128.671 148.647 128.546 148.229 128.297C147.811 128.047 147.481 127.692 147.239 127.23C147.004 126.76 146.887 126.21 146.887 125.58C146.887 124.949 147.004 124.399 147.239 123.93C147.481 123.46 147.811 123.101 148.229 122.852C148.647 122.602 149.124 122.478 149.659 122.478ZM149.945 123.369C149.329 123.369 148.834 123.567 148.46 123.963C148.093 124.351 147.91 124.89 147.91 125.58C147.91 126.269 148.093 126.812 148.46 127.208C148.834 127.596 149.329 127.791 149.945 127.791C150.341 127.791 150.693 127.699 151.001 127.516C151.316 127.332 151.562 127.076 151.738 126.746C151.914 126.408 152.002 126.02 152.002 125.58C152.002 125.14 151.914 124.751 151.738 124.414C151.562 124.076 151.316 123.82 151.001 123.644C150.693 123.46 150.341 123.369 149.945 123.369ZM155.597 120.454V128.594H154.596V120.454H155.597ZM162.399 122.478C162.986 122.478 163.481 122.624 163.884 122.918C164.295 123.211 164.581 123.603 164.742 124.095V122.555H165.743V128.693C165.743 129.25 165.626 129.745 165.391 130.178C165.156 130.61 164.826 130.948 164.401 131.19C163.976 131.432 163.481 131.553 162.916 131.553C162.102 131.553 161.438 131.355 160.925 130.959C160.412 130.57 160.085 130.042 159.946 129.375H160.936C161.053 129.778 161.273 130.093 161.596 130.321C161.926 130.555 162.348 130.673 162.861 130.673C163.404 130.673 163.851 130.497 164.203 130.145C164.562 129.8 164.742 129.316 164.742 128.693V127.054C164.581 127.545 164.295 127.937 163.884 128.231C163.481 128.524 162.986 128.671 162.399 128.671C161.864 128.671 161.387 128.546 160.969 128.297C160.551 128.047 160.221 127.692 159.979 127.23C159.744 126.76 159.627 126.21 159.627 125.58C159.627 124.949 159.744 124.399 159.979 123.93C160.221 123.46 160.551 123.101 160.969 122.852C161.387 122.602 161.864 122.478 162.399 122.478ZM162.685 123.369C162.069 123.369 161.574 123.567 161.2 123.963C160.833 124.351 160.65 124.89 160.65 125.58C160.65 126.269 160.833 126.812 161.2 127.208C161.574 127.596 162.069 127.791 162.685 127.791C163.081 127.791 163.433 127.699 163.741 127.516C164.056 127.332 164.302 127.076 164.478 126.746C164.654 126.408 164.742 126.02 164.742 125.58C164.742 125.14 164.654 124.751 164.478 124.414C164.302 124.076 164.056 123.82 163.741 123.644C163.433 123.46 163.081 123.369 162.685 123.369ZM168.337 123.776C168.535 123.358 168.825 123.035 169.206 122.808C169.588 122.573 170.042 122.456 170.57 122.456V123.545H170.262C169.698 123.545 169.236 123.691 168.876 123.985C168.517 124.271 168.337 124.747 168.337 125.415V128.594H167.336V122.555H168.337V123.776ZM177.113 125.239C177.113 125.451 177.098 125.635 177.069 125.789H172.24C172.262 126.478 172.456 126.995 172.823 127.34C173.197 127.684 173.652 127.857 174.187 127.857C174.671 127.857 175.074 127.736 175.397 127.494C175.727 127.244 175.929 126.914 176.002 126.504H177.069C176.996 126.922 176.831 127.296 176.574 127.626C176.325 127.956 175.998 128.212 175.595 128.396C175.192 128.579 174.737 128.671 174.231 128.671C173.652 128.671 173.138 128.546 172.691 128.297C172.244 128.047 171.892 127.692 171.635 127.23C171.386 126.76 171.261 126.21 171.261 125.58C171.261 124.949 171.386 124.399 171.635 123.93C171.892 123.46 172.244 123.101 172.691 122.852C173.138 122.602 173.652 122.478 174.231 122.478C174.818 122.478 175.327 122.602 175.76 122.852C176.2 123.101 176.534 123.435 176.761 123.853C176.996 124.271 177.113 124.733 177.113 125.239ZM176.101 125.305C176.123 124.857 176.05 124.483 175.881 124.183C175.712 123.882 175.481 123.658 175.188 123.512C174.895 123.365 174.576 123.292 174.231 123.292C173.681 123.292 173.219 123.464 172.845 123.809C172.471 124.146 172.269 124.645 172.24 125.305H176.101ZM183.977 125.239C183.977 125.451 183.962 125.635 183.933 125.789H179.104C179.126 126.478 179.32 126.995 179.687 127.34C180.061 127.684 180.516 127.857 181.051 127.857C181.535 127.857 181.938 127.736 182.261 127.494C182.591 127.244 182.793 126.914 182.866 126.504H183.933C183.86 126.922 183.695 127.296 183.438 127.626C183.189 127.956 182.862 128.212 182.459 128.396C182.056 128.579 181.601 128.671 181.095 128.671C180.516 128.671 180.002 128.546 179.555 128.297C179.108 128.047 178.756 127.692 178.499 127.23C178.25 126.76 178.125 126.21 178.125 125.58C178.125 124.949 178.25 124.399 178.499 123.93C178.756 123.46 179.108 123.101 179.555 122.852C180.002 122.602 180.516 122.478 181.095 122.478C181.682 122.478 182.191 122.602 182.624 122.852C183.064 123.101 183.398 123.435 183.625 123.853C183.86 124.271 183.977 124.733 183.977 125.239ZM182.965 125.305C182.987 124.857 182.914 124.483 182.745 124.183C182.576 123.882 182.345 123.658 182.052 123.512C181.759 123.365 181.44 123.292 181.095 123.292C180.545 123.292 180.083 123.464 179.709 123.809C179.335 124.146 179.133 124.645 179.104 125.305H182.965ZM188.465 122.456C189.169 122.456 189.738 122.683 190.17 123.138C190.603 123.585 190.819 124.234 190.819 125.085V128.594H189.818V125.173C189.818 124.571 189.664 124.109 189.356 123.787C189.048 123.464 188.63 123.303 188.102 123.303C187.552 123.303 187.112 123.482 186.782 123.842C186.452 124.194 186.287 124.711 186.287 125.393V128.594H185.286V122.555H186.287V123.985C186.441 123.493 186.713 123.116 187.101 122.852C187.497 122.588 187.952 122.456 188.465 122.456ZM106.3 138.478C106.982 138.478 107.529 138.657 107.939 139.017C108.357 139.369 108.61 139.845 108.698 140.447H107.741C107.697 140.087 107.547 139.794 107.29 139.567C107.041 139.332 106.704 139.215 106.278 139.215C105.919 139.215 105.637 139.303 105.431 139.479C105.233 139.647 105.134 139.878 105.134 140.172C105.134 140.392 105.2 140.571 105.332 140.711C105.472 140.843 105.64 140.945 105.838 141.019C106.044 141.085 106.322 141.158 106.674 141.239C107.122 141.341 107.481 141.448 107.752 141.558C108.031 141.66 108.266 141.829 108.456 142.064C108.654 142.298 108.753 142.614 108.753 143.01C108.753 143.501 108.566 143.901 108.192 144.209C107.826 144.517 107.334 144.671 106.718 144.671C106 144.671 105.413 144.498 104.958 144.154C104.504 143.809 104.236 143.329 104.155 142.713H105.123C105.16 143.079 105.318 143.376 105.596 143.604C105.882 143.831 106.256 143.945 106.718 143.945C107.063 143.945 107.331 143.857 107.521 143.681C107.719 143.505 107.818 143.274 107.818 142.988C107.818 142.753 107.749 142.566 107.609 142.427C107.47 142.287 107.298 142.181 107.092 142.108C106.887 142.034 106.605 141.957 106.245 141.877C105.798 141.774 105.439 141.671 105.167 141.569C104.903 141.466 104.676 141.305 104.485 141.085C104.302 140.857 104.21 140.553 104.21 140.172C104.21 139.666 104.397 139.259 104.771 138.951C105.145 138.635 105.655 138.478 106.3 138.478ZM112.764 138.478C113.534 138.478 114.172 138.683 114.678 139.094C115.184 139.504 115.496 140.054 115.613 140.744H114.557C114.484 140.311 114.282 139.974 113.952 139.732C113.629 139.482 113.226 139.358 112.742 139.358C112.39 139.358 112.067 139.438 111.774 139.6C111.488 139.761 111.257 140.01 111.081 140.348C110.905 140.678 110.817 141.088 110.817 141.58C110.817 142.071 110.905 142.485 111.081 142.823C111.257 143.153 111.488 143.398 111.774 143.56C112.067 143.721 112.39 143.802 112.742 143.802C113.226 143.802 113.629 143.677 113.952 143.428C114.282 143.178 114.484 142.837 114.557 142.405H115.613C115.496 143.101 115.184 143.655 114.678 144.066C114.172 144.469 113.534 144.671 112.764 144.671C112.185 144.671 111.671 144.546 111.224 144.297C110.777 144.047 110.425 143.692 110.168 143.23C109.919 142.76 109.794 142.21 109.794 141.58C109.794 140.949 109.919 140.399 110.168 139.93C110.425 139.46 110.777 139.101 111.224 138.852C111.671 138.602 112.185 138.478 112.764 138.478ZM119.662 138.478C120.241 138.478 120.758 138.602 121.213 138.852C121.675 139.101 122.034 139.46 122.291 139.93C122.555 140.399 122.687 140.949 122.687 141.58C122.687 142.21 122.555 142.76 122.291 143.23C122.034 143.692 121.675 144.047 121.213 144.297C120.758 144.546 120.241 144.671 119.662 144.671C119.083 144.671 118.562 144.546 118.1 144.297C117.645 144.047 117.286 143.692 117.022 143.23C116.758 142.76 116.626 142.21 116.626 141.58C116.626 140.949 116.758 140.399 117.022 139.93C117.286 139.46 117.645 139.101 118.1 138.852C118.562 138.602 119.083 138.478 119.662 138.478ZM119.662 139.358C119.303 139.358 118.969 139.438 118.661 139.6C118.36 139.761 118.115 140.01 117.924 140.348C117.741 140.678 117.649 141.088 117.649 141.58C117.649 142.064 117.741 142.474 117.924 142.812C118.115 143.142 118.36 143.387 118.661 143.549C118.969 143.71 119.303 143.791 119.662 143.791C120.021 143.791 120.351 143.71 120.652 143.549C120.96 143.387 121.206 143.142 121.389 142.812C121.58 142.474 121.675 142.064 121.675 141.58C121.675 141.088 121.58 140.678 121.389 140.348C121.206 140.01 120.96 139.761 120.652 139.6C120.351 139.438 120.021 139.358 119.662 139.358ZM124.992 139.776C125.19 139.358 125.48 139.035 125.861 138.808C126.243 138.573 126.697 138.456 127.225 138.456V139.545H126.917C126.353 139.545 125.891 139.691 125.531 139.985C125.172 140.271 124.992 140.747 124.992 141.415V144.594H123.991V138.555H124.992V139.776ZM133.768 141.239C133.768 141.451 133.753 141.635 133.724 141.789H128.895C128.917 142.478 129.111 142.995 129.478 143.34C129.852 143.684 130.307 143.857 130.842 143.857C131.326 143.857 131.729 143.736 132.052 143.494C132.382 143.244 132.584 142.914 132.657 142.504H133.724C133.651 142.922 133.486 143.296 133.229 143.626C132.98 143.956 132.653 144.212 132.25 144.396C131.847 144.579 131.392 144.671 130.886 144.671C130.307 144.671 129.793 144.546 129.346 144.297C128.899 144.047 128.547 143.692 128.29 143.23C128.041 142.76 127.916 142.21 127.916 141.58C127.916 140.949 128.041 140.399 128.29 139.93C128.547 139.46 128.899 139.101 129.346 138.852C129.793 138.602 130.307 138.478 130.886 138.478C131.473 138.478 131.982 138.602 132.415 138.852C132.855 139.101 133.189 139.435 133.416 139.853C133.651 140.271 133.768 140.733 133.768 141.239ZM132.756 141.305C132.778 140.857 132.705 140.483 132.536 140.183C132.367 139.882 132.136 139.658 131.843 139.512C131.55 139.365 131.231 139.292 130.886 139.292C130.336 139.292 129.874 139.464 129.5 139.809C129.126 140.146 128.924 140.645 128.895 141.305H132.756ZM137.619 136.784C137.619 136.6 137.682 136.454 137.806 136.344C137.931 136.226 138.096 136.168 138.301 136.168C138.507 136.168 138.672 136.226 138.796 136.344C138.921 136.454 138.983 136.6 138.983 136.784C138.983 136.967 138.921 137.117 138.796 137.235C138.672 137.345 138.507 137.4 138.301 137.4C138.096 137.4 137.931 137.345 137.806 137.235C137.682 137.117 137.619 136.967 137.619 136.784ZM138.796 138.555V144.594H137.795V138.555H138.796ZM142.298 138.478C142.98 138.478 143.526 138.657 143.937 139.017C144.355 139.369 144.608 139.845 144.696 140.447H143.739C143.695 140.087 143.544 139.794 143.288 139.567C143.038 139.332 142.701 139.215 142.276 139.215C141.916 139.215 141.634 139.303 141.429 139.479C141.231 139.647 141.132 139.878 141.132 140.172C141.132 140.392 141.198 140.571 141.33 140.711C141.469 140.843 141.638 140.945 141.836 141.019C142.041 141.085 142.32 141.158 142.672 141.239C143.119 141.341 143.478 141.448 143.75 141.558C144.028 141.66 144.263 141.829 144.454 142.064C144.652 142.298 144.751 142.614 144.751 143.01C144.751 143.501 144.564 143.901 144.19 144.209C143.823 144.517 143.332 144.671 142.716 144.671C141.997 144.671 141.41 144.498 140.956 144.154C140.501 143.809 140.233 143.329 140.153 142.713H141.121C141.157 143.079 141.315 143.376 141.594 143.604C141.88 143.831 142.254 143.945 142.716 143.945C143.06 143.945 143.328 143.857 143.519 143.681C143.717 143.505 143.816 143.274 143.816 142.988C143.816 142.753 143.746 142.566 143.607 142.427C143.467 142.287 143.295 142.181 143.09 142.108C142.884 142.034 142.602 141.957 142.243 141.877C141.795 141.774 141.436 141.671 141.165 141.569C140.901 141.466 140.673 141.305 140.483 141.085C140.299 140.857 140.208 140.553 140.208 140.172C140.208 139.666 140.395 139.259 140.769 138.951C141.143 138.635 141.652 138.478 142.298 138.478Z" fill="#5B5B5F"/>
<path d="M148.159 137.132V135.416H151.461V144.594H149.537V137.132H148.159ZM157.767 137.912C157.628 137.01 157.169 136.56 156.389 136.56C155.782 136.56 155.34 136.828 155.063 137.366C154.786 137.894 154.664 138.726 154.699 139.862C154.838 139.446 155.106 139.116 155.505 138.874C155.912 138.622 156.385 138.497 156.922 138.497C157.806 138.497 158.499 138.765 159.002 139.303C159.513 139.831 159.769 140.585 159.769 141.565C159.769 142.171 159.648 142.709 159.405 143.177C159.162 143.645 158.798 144.013 158.313 144.282C157.836 144.55 157.256 144.685 156.571 144.685C155.236 144.685 154.318 144.273 153.815 143.45C153.312 142.618 153.061 141.474 153.061 140.018C153.061 138.345 153.33 137.106 153.867 136.3C154.413 135.494 155.293 135.091 156.506 135.091C157.433 135.091 158.144 135.355 158.638 135.884C159.132 136.412 159.414 137.088 159.483 137.912H157.767ZM154.855 141.435C154.855 141.92 154.994 142.323 155.271 142.644C155.557 142.956 155.973 143.112 156.519 143.112C156.987 143.112 157.36 142.973 157.637 142.696C157.914 142.418 158.053 142.033 158.053 141.539C158.053 141.019 157.91 140.62 157.624 140.343C157.347 140.065 156.97 139.927 156.493 139.927C156.042 139.927 155.657 140.057 155.336 140.317C155.015 140.577 154.855 140.949 154.855 141.435Z" fill="#53A42A"/>
<path d="M19 26.1086C19 20.6542 23.4217 16.2324 28.8762 16.2324H233.693C239.147 16.2324 243.569 20.6542 243.569 26.1086V43.1387H19V26.1086Z" fill="#003366"/>
<path d="M30.2276 26.2314C30.9761 26.2314 31.597 26.4171 32.0903 26.7885C32.5835 27.1541 32.8997 27.6502 33.039 28.2769H31.7508C31.6289 27.9984 31.4345 27.7779 31.1676 27.6154C30.9065 27.4471 30.596 27.363 30.2363 27.363C29.8823 27.363 29.5689 27.4442 29.2962 27.6067C29.0235 27.7692 28.8117 28.0013 28.6608 28.303C28.5099 28.6048 28.4345 28.9587 28.4345 29.3649C28.4345 30.009 28.6057 30.511 28.948 30.8707C29.2962 31.2305 29.7691 31.4104 30.3668 31.4104C30.8078 31.4104 31.185 31.2798 31.4984 31.0187C31.8175 30.7576 32.0235 30.3949 32.1164 29.9307H30.0361V29.0516H33.1435V30.2353C33.0564 30.6415 32.8852 31.0158 32.6299 31.3582C32.3804 31.7005 32.0496 31.9762 31.6376 32.1851C31.2314 32.3882 30.7643 32.4897 30.2363 32.4897C29.6328 32.4897 29.0989 32.3592 28.6347 32.098C28.1763 31.8311 27.8194 31.4626 27.5641 30.9926C27.3146 30.5168 27.1898 29.9742 27.1898 29.3649C27.1898 28.7556 27.3146 28.216 27.5641 27.7459C27.8194 27.2701 28.1763 26.8987 28.6347 26.6318C29.0931 26.3649 29.6241 26.2314 30.2276 26.2314ZM35.2897 28.538C35.4696 28.2305 35.7075 27.9897 36.0035 27.8156C36.2994 27.6357 36.6302 27.5457 36.9957 27.5457V28.8601H36.6389C35.7394 28.8601 35.2897 29.2779 35.2897 30.1135V32.4375H34.0624V27.6154H35.2897V28.538ZM42.2099 29.8437C42.2099 29.9655 42.1954 30.1048 42.1664 30.2615H38.6325C38.6499 30.6909 38.7659 31.0071 38.9806 31.2102C39.1953 31.4133 39.4623 31.5149 39.7814 31.5149C40.0658 31.5149 40.3008 31.4452 40.4865 31.306C40.678 31.1667 40.7998 30.9781 40.852 30.7402H42.149C42.0851 31.0767 41.9488 31.3785 41.7399 31.6454C41.531 31.9123 41.2611 32.1212 40.9304 32.2721C40.6054 32.423 40.2428 32.4984 39.8424 32.4984C39.3723 32.4984 38.9545 32.3998 38.589 32.2025C38.2234 31.9994 37.939 31.7122 37.7359 31.3408C37.5328 30.9694 37.4313 30.5313 37.4313 30.0264C37.4313 29.5216 37.5328 29.0835 37.7359 28.7121C37.939 28.3349 38.2234 28.0477 38.589 27.8504C38.9545 27.6531 39.3723 27.5544 39.8424 27.5544C40.3182 27.5544 40.7331 27.6531 41.0871 27.8504C41.4468 28.0477 41.7225 28.3204 41.914 28.6686C42.1113 29.0109 42.2099 29.4026 42.2099 29.8437ZM40.9739 29.7218C40.9913 29.3272 40.8869 29.0284 40.6606 28.8253C40.44 28.6222 40.1673 28.5206 39.8424 28.5206C39.5116 28.5206 39.2331 28.6222 39.0068 28.8253C38.7804 29.0284 38.6557 29.3272 38.6325 29.7218H40.9739ZM47.616 29.8437C47.616 29.9655 47.6015 30.1048 47.5725 30.2615H44.0386C44.056 30.6909 44.1721 31.0071 44.3868 31.2102C44.6015 31.4133 44.8684 31.5149 45.1876 31.5149C45.4719 31.5149 45.7069 31.4452 45.8926 31.306C46.0841 31.1667 46.2059 30.9781 46.2582 30.7402H47.5551C47.4913 31.0767 47.3549 31.3785 47.146 31.6454C46.9371 31.9123 46.6673 32.1212 46.3365 32.2721C46.0115 32.423 45.6489 32.4984 45.2485 32.4984C44.7785 32.4984 44.3607 32.3998 43.9951 32.2025C43.6295 31.9994 43.3452 31.7122 43.1421 31.3408C42.939 30.9694 42.8374 30.5313 42.8374 30.0264C42.8374 29.5216 42.939 29.0835 43.1421 28.7121C43.3452 28.3349 43.6295 28.0477 43.9951 27.8504C44.3607 27.6531 44.7785 27.5544 45.2485 27.5544C45.7243 27.5544 46.1392 27.6531 46.4932 27.8504C46.853 28.0477 47.1286 28.3204 47.3201 28.6686C47.5174 29.0109 47.616 29.4026 47.616 29.8437ZM46.38 29.7218C46.3974 29.3272 46.293 29.0284 46.0667 28.8253C45.8462 28.6222 45.5734 28.5206 45.2485 28.5206C44.9177 28.5206 44.6392 28.6222 44.4129 28.8253C44.1866 29.0284 44.0618 29.3272 44.0386 29.7218H46.38ZM51.3596 27.5457C51.9167 27.5457 52.3606 27.7285 52.6914 28.0941C53.0221 28.4597 53.1875 28.9732 53.1875 29.6347V32.4375H51.9689V29.774C51.9689 29.391 51.8703 29.0951 51.673 28.8862C51.4757 28.6715 51.2059 28.5641 50.8635 28.5641C50.5153 28.5641 50.2368 28.6773 50.0279 28.9036C49.819 29.1299 49.7145 29.4549 49.7145 29.8785V32.4375H48.4873V27.6154H49.7145V28.5815C49.8422 28.2566 50.0511 28.0042 50.3413 27.8243C50.6372 27.6386 50.9767 27.5457 51.3596 27.5457ZM60.3845 30.7576C60.3845 31.0709 60.3061 31.3611 60.1494 31.628C59.9928 31.8891 59.7607 32.1009 59.4531 32.2634C59.1456 32.4201 58.7713 32.4984 58.3303 32.4984C57.8951 32.4984 57.5063 32.4259 57.1639 32.2808C56.8215 32.13 56.5459 31.9152 56.337 31.6367C56.1339 31.3582 56.0179 31.0332 55.9888 30.6618H57.2945C57.3235 30.9114 57.4221 31.1203 57.5904 31.2885C57.7645 31.451 57.9937 31.5323 58.278 31.5323C58.5334 31.5323 58.7278 31.4655 58.8612 31.3321C59.0005 31.1928 59.0701 31.0158 59.0701 30.8011C59.0701 30.6096 59.015 30.4529 58.9047 30.3311C58.7945 30.2034 58.6552 30.1019 58.4869 30.0264C58.3187 29.951 58.0866 29.864 57.7906 29.7653C57.4076 29.6377 57.0943 29.5129 56.8506 29.391C56.6068 29.2634 56.3979 29.0806 56.2239 28.8427C56.0556 28.6048 55.9714 28.2943 55.9714 27.9113C55.9714 27.3833 56.16 26.9684 56.5372 26.6666C56.9202 26.3591 57.425 26.2053 58.0517 26.2053C58.7017 26.2053 59.2181 26.362 59.6011 26.6753C59.9899 26.9887 60.2104 27.4065 60.2626 27.9287H58.9396C58.9047 27.7082 58.8119 27.5283 58.661 27.3891C58.5102 27.244 58.3042 27.1715 58.043 27.1715C57.8167 27.1715 57.6339 27.2324 57.4947 27.3543C57.3554 27.4703 57.2858 27.6415 57.2858 27.8678C57.2858 28.0477 57.338 28.1986 57.4424 28.3204C57.5527 28.4365 57.6891 28.5322 57.8515 28.6077C58.0198 28.6831 58.2461 28.7672 58.5305 28.8601C58.9251 28.9993 59.2442 29.1299 59.4879 29.2518C59.7375 29.3736 59.9493 29.5564 60.1233 29.8001C60.2974 30.0438 60.3845 30.363 60.3845 30.7576ZM63.4559 27.5544C64.0768 27.5544 64.5932 27.7227 65.0052 28.0593C65.423 28.3959 65.6842 28.8543 65.7886 29.4346H64.4917C64.4395 29.1792 64.3205 28.979 64.1348 28.834C63.9491 28.6831 63.7141 28.6077 63.4298 28.6077C63.1048 28.6077 62.8321 28.7295 62.6116 28.9732C62.3969 29.2111 62.2895 29.5622 62.2895 30.0264C62.2895 30.4907 62.3969 30.8446 62.6116 31.0883C62.8321 31.3263 63.1048 31.4452 63.4298 31.4452C63.7141 31.4452 63.9491 31.3727 64.1348 31.2276C64.3205 31.0767 64.4395 30.8736 64.4917 30.6183H65.7886C65.6842 31.1986 65.423 31.657 65.0052 31.9936C64.5932 32.3301 64.0768 32.4984 63.4559 32.4984C62.9859 32.4984 62.5681 32.3998 62.2025 32.2025C61.8369 31.9994 61.5526 31.7122 61.3495 31.3408C61.1464 30.9694 61.0448 30.5313 61.0448 30.0264C61.0448 29.5216 61.1464 29.0835 61.3495 28.7121C61.5526 28.3349 61.8369 28.0477 62.2025 27.8504C62.5681 27.6531 62.9859 27.5544 63.4559 27.5544ZM68.8889 27.5544C69.359 27.5544 69.7797 27.6531 70.151 27.8504C70.5282 28.0477 70.8242 28.3349 71.0389 28.7121C71.2536 29.0835 71.3609 29.5216 71.3609 30.0264C71.3609 30.5313 71.2536 30.9694 71.0389 31.3408C70.8242 31.7122 70.5282 31.9994 70.151 32.2025C69.7797 32.3998 69.359 32.4984 68.8889 32.4984C68.4189 32.4984 67.9953 32.3998 67.6181 32.2025C67.2467 31.9994 66.9537 31.7122 66.739 31.3408C66.5243 30.9694 66.4169 30.5313 66.4169 30.0264C66.4169 29.5216 66.5243 29.0835 66.739 28.7121C66.9537 28.3349 67.2467 28.0477 67.6181 27.8504C67.9953 27.6531 68.4189 27.5544 68.8889 27.5544ZM68.8889 28.6164C68.5466 28.6164 68.2564 28.7382 68.0185 28.9819C67.7806 29.2198 67.6616 29.568 67.6616 30.0264C67.6616 30.4849 67.7806 30.8359 68.0185 31.0796C68.2564 31.3176 68.5466 31.4365 68.8889 31.4365C69.2313 31.4365 69.5214 31.3176 69.7594 31.0796C69.9973 30.8359 70.1162 30.4849 70.1162 30.0264C70.1162 29.568 69.9973 29.2198 69.7594 28.9819C69.5214 28.7382 69.2313 28.6164 68.8889 28.6164ZM73.4556 28.538C73.6355 28.2305 73.8734 27.9897 74.1693 27.8156C74.4653 27.6357 74.796 27.5457 75.1616 27.5457V28.8601H74.8047C73.9053 28.8601 73.4556 29.2779 73.4556 30.1135V32.4375H72.2283V27.6154H73.4556V28.538ZM80.3758 29.8437C80.3758 29.9655 80.3612 30.1048 80.3322 30.2615H76.7983C76.8157 30.6909 76.9318 31.0071 77.1465 31.2102C77.3612 31.4133 77.6281 31.5149 77.9473 31.5149C78.2316 31.5149 78.4666 31.4452 78.6523 31.306C78.8438 31.1667 78.9657 30.9781 79.0179 30.7402H80.3148C80.251 31.0767 80.1146 31.3785 79.9057 31.6454C79.6968 31.9123 79.427 32.1212 79.0962 32.2721C78.7713 32.423 78.4086 32.4984 78.0082 32.4984C77.5382 32.4984 77.1204 32.3998 76.7548 32.2025C76.3892 31.9994 76.1049 31.7122 75.9018 31.3408C75.6987 30.9694 75.5971 30.5313 75.5971 30.0264C75.5971 29.5216 75.6987 29.0835 75.9018 28.7121C76.1049 28.3349 76.3892 28.0477 76.7548 27.8504C77.1204 27.6531 77.5382 27.5544 78.0082 27.5544C78.484 27.5544 78.8989 27.6531 79.2529 27.8504C79.6127 28.0477 79.8883 28.3204 80.0798 28.6686C80.2771 29.0109 80.3758 29.4026 80.3758 29.8437ZM79.1398 29.7218C79.1572 29.3272 79.0527 29.0284 78.8264 28.8253C78.6059 28.6222 78.3332 28.5206 78.0082 28.5206C77.6775 28.5206 77.3989 28.6222 77.1726 28.8253C76.9463 29.0284 76.8215 29.3272 76.7983 29.7218H79.1398ZM82.864 28.9384C82.864 27.8301 83.0787 26.8349 83.5081 25.9529C83.9375 25.0709 84.5033 24.3571 85.2054 23.8116H86.3979V23.9335C84.8311 25.2275 84.0478 26.8958 84.0478 28.9384C84.0478 30.981 84.8311 32.6493 86.3979 33.9433V34.0565H85.2054C84.5033 33.511 83.9375 32.8002 83.5081 31.924C83.0787 31.0419 82.864 30.0467 82.864 28.9384ZM90.44 26.2923V27.2672H87.8549V28.9123H89.9265V29.8524H87.8549V32.4375H86.6276V26.2923H90.44ZM95.8819 27.6154V32.4375H94.6546V31.4626C94.527 31.7876 94.3152 32.0429 94.0192 32.2286C93.7291 32.4085 93.3925 32.4984 93.0096 32.4984C92.4525 32.4984 92.0086 32.3156 91.6778 31.9501C91.347 31.5845 91.1817 31.0738 91.1817 30.4181V27.6154H92.4003V30.2789C92.4003 30.6618 92.4989 30.9607 92.6962 31.1754C92.8935 31.3843 93.1604 31.4887 93.497 31.4887C93.851 31.4887 94.1324 31.3756 94.3413 31.1493C94.5502 30.923 94.6546 30.598 94.6546 30.1744V27.6154H95.8819ZM101.533 29.8437C101.533 29.9655 101.518 30.1048 101.489 30.2615H97.9553C97.9727 30.6909 98.0888 31.0071 98.3035 31.2102C98.5182 31.4133 98.7851 31.5149 99.1043 31.5149C99.3886 31.5149 99.6236 31.4452 99.8093 31.306C100.001 31.1667 100.123 30.9781 100.175 30.7402H101.472C101.408 31.0767 101.272 31.3785 101.063 31.6454C100.854 31.9123 100.584 32.1212 100.253 32.2721C99.9283 32.423 99.5656 32.4984 99.1652 32.4984C98.6952 32.4984 98.2774 32.3998 97.9118 32.2025C97.5462 31.9994 97.2619 31.7122 97.0588 31.3408C96.8557 30.9694 96.7541 30.5313 96.7541 30.0264C96.7541 29.5216 96.8557 29.0835 97.0588 28.7121C97.2619 28.3349 97.5462 28.0477 97.9118 27.8504C98.2774 27.6531 98.6952 27.5544 99.1652 27.5544C99.641 27.5544 100.056 27.6531 100.41 27.8504C100.77 28.0477 101.045 28.3204 101.237 28.6686C101.434 29.0109 101.533 29.4026 101.533 29.8437ZM100.297 29.7218C100.314 29.3272 100.21 29.0284 99.9834 28.8253C99.7629 28.6222 99.4901 28.5206 99.1652 28.5206C98.8344 28.5206 98.5559 28.6222 98.3296 28.8253C98.1033 29.0284 97.9785 29.3272 97.9553 29.7218H100.297ZM103.631 25.9964V32.4375H102.404V25.9964H103.631ZM109.414 26.2314C110.18 26.2314 110.815 26.4287 111.32 26.8233C111.825 27.2179 112.158 27.7546 112.321 28.4336H111.033C110.899 28.1028 110.69 27.8417 110.406 27.6502C110.127 27.4587 109.791 27.363 109.396 27.363C109.071 27.363 108.778 27.4442 108.517 27.6067C108.256 27.7692 108.053 28.0013 107.908 28.303C107.763 28.6048 107.69 28.9587 107.69 29.3649C107.69 29.7653 107.763 30.1164 107.908 30.4181C108.053 30.7199 108.256 30.952 108.517 31.1145C108.778 31.2769 109.071 31.3582 109.396 31.3582C109.791 31.3582 110.127 31.2624 110.406 31.0709C110.69 30.8794 110.899 30.6183 111.033 30.2876H112.321C112.158 30.9665 111.825 31.5032 111.32 31.8978C110.815 32.2924 110.18 32.4897 109.414 32.4897C108.828 32.4897 108.308 32.3592 107.856 32.098C107.409 31.8311 107.061 31.4597 106.811 30.9839C106.567 30.5081 106.446 29.9684 106.446 29.3649C106.446 28.7556 106.567 28.2131 106.811 27.7372C107.061 27.2614 107.409 26.8929 107.856 26.6318C108.302 26.3649 108.822 26.2314 109.414 26.2314ZM115.47 27.5544C115.94 27.5544 116.361 27.6531 116.732 27.8504C117.109 28.0477 117.405 28.3349 117.62 28.7121C117.835 29.0835 117.942 29.5216 117.942 30.0264C117.942 30.5313 117.835 30.9694 117.62 31.3408C117.405 31.7122 117.109 31.9994 116.732 32.2025C116.361 32.3998 115.94 32.4984 115.47 32.4984C115 32.4984 114.576 32.3998 114.199 32.2025C113.828 31.9994 113.535 31.7122 113.32 31.3408C113.105 30.9694 112.998 30.5313 112.998 30.0264C112.998 29.5216 113.105 29.0835 113.32 28.7121C113.535 28.3349 113.828 28.0477 114.199 27.8504C114.576 27.6531 115 27.5544 115.47 27.5544ZM115.47 28.6164C115.128 28.6164 114.837 28.7382 114.6 28.9819C114.362 29.2198 114.243 29.568 114.243 30.0264C114.243 30.4849 114.362 30.8359 114.6 31.0796C114.837 31.3176 115.128 31.4365 115.47 31.4365C115.812 31.4365 116.102 31.3176 116.34 31.0796C116.578 30.8359 116.697 30.4849 116.697 30.0264C116.697 29.568 116.578 29.2198 116.34 28.9819C116.102 28.7382 115.812 28.6164 115.47 28.6164ZM121.682 27.5457C122.239 27.5457 122.683 27.7285 123.013 28.0941C123.344 28.4597 123.51 28.9732 123.51 29.6347V32.4375H122.291V29.774C122.291 29.391 122.192 29.0951 121.995 28.8862C121.798 28.6715 121.528 28.5641 121.186 28.5641C120.837 28.5641 120.559 28.6773 120.35 28.9036C120.141 29.1299 120.037 29.4549 120.037 29.8785V32.4375H118.809V27.6154H120.037V28.5815C120.164 28.2566 120.373 28.0042 120.663 27.8243C120.959 27.6386 121.299 27.5457 121.682 27.5457ZM126.252 27.5544C126.838 27.5544 127.308 27.7024 127.662 27.9984C128.016 28.2943 128.237 28.6889 128.324 29.1821H127.175C127.128 28.95 127.024 28.7643 126.861 28.6251C126.699 28.4858 126.487 28.4162 126.226 28.4162C126.017 28.4162 125.854 28.4655 125.738 28.5641C125.622 28.6628 125.564 28.7962 125.564 28.9645C125.564 29.098 125.611 29.2053 125.704 29.2866C125.796 29.3678 125.912 29.4317 126.052 29.4781C126.191 29.5245 126.391 29.5796 126.652 29.6435C127.018 29.7247 127.314 29.8117 127.54 29.9046C127.772 29.9916 127.97 30.1338 128.132 30.3311C128.3 30.5226 128.384 30.7837 128.384 31.1145C128.384 31.5265 128.222 31.8601 127.897 32.1154C127.578 32.3708 127.146 32.4984 126.6 32.4984C125.973 32.4984 125.471 32.3592 125.094 32.0806C124.717 31.7963 124.488 31.393 124.407 30.8707H125.582C125.611 31.1087 125.715 31.2973 125.895 31.4365C126.075 31.57 126.31 31.6367 126.6 31.6367C126.809 31.6367 126.969 31.5874 127.079 31.4887C127.189 31.3843 127.244 31.2508 127.244 31.0883C127.244 30.9491 127.195 30.8359 127.096 30.7489C127.003 30.6618 126.884 30.5951 126.739 30.5487C126.6 30.5023 126.4 30.4471 126.139 30.3833C125.779 30.3021 125.486 30.2208 125.26 30.1396C125.039 30.0526 124.848 29.9162 124.685 29.7305C124.529 29.5448 124.45 29.2895 124.45 28.9645C124.45 28.5467 124.61 28.2073 124.929 27.9461C125.248 27.685 125.689 27.5544 126.252 27.5544ZM133.912 27.6154V32.4375H132.684V31.4626C132.557 31.7876 132.345 32.0429 132.049 32.2286C131.759 32.4085 131.422 32.4984 131.039 32.4984C130.482 32.4984 130.038 32.3156 129.708 31.9501C129.377 31.5845 129.212 31.0738 129.212 30.4181V27.6154H130.43V30.2789C130.43 30.6618 130.529 30.9607 130.726 31.1754C130.923 31.3843 131.19 31.4887 131.527 31.4887C131.881 31.4887 132.162 31.3756 132.371 31.1493C132.58 30.923 132.684 30.598 132.684 30.1744V27.6154H133.912ZM141.164 27.5457C141.75 27.5457 142.212 27.7285 142.548 28.0941C142.89 28.4539 143.062 28.9674 143.062 29.6347V32.4375H141.843V29.774C141.843 29.4026 141.747 29.1183 141.556 28.921C141.37 28.7179 141.112 28.6164 140.781 28.6164C140.439 28.6164 140.166 28.7237 139.963 28.9384C139.76 29.1531 139.658 29.4665 139.658 29.8785V32.4375H138.44V29.774C138.44 29.4026 138.344 29.1183 138.152 28.921C137.967 28.7179 137.709 28.6164 137.378 28.6164C137.035 28.6164 136.763 28.7237 136.56 28.9384C136.357 29.1531 136.255 29.4665 136.255 29.8785V32.4375H135.028V27.6154H136.255V28.5293C136.383 28.216 136.583 27.9751 136.856 27.8069C137.134 27.6328 137.456 27.5457 137.822 27.5457C138.211 27.5457 138.547 27.6386 138.831 27.8243C139.122 28.01 139.339 28.2769 139.484 28.6251C139.635 28.2943 139.859 28.0332 140.154 27.8417C140.456 27.6444 140.793 27.5457 141.164 27.5457ZM147.021 27.5544C147.427 27.5544 147.793 27.6531 148.118 27.8504C148.443 28.0477 148.695 28.3349 148.875 28.7121C149.061 29.0835 149.154 29.5216 149.154 30.0264C149.154 30.5313 149.061 30.9723 148.875 31.3495C148.695 31.7209 148.443 32.0052 148.118 32.2025C147.793 32.3998 147.427 32.4984 147.021 32.4984C146.615 32.4984 146.267 32.4027 145.976 32.2112C145.692 32.0139 145.489 31.7528 145.367 31.4278V34.7354H144.14V27.6154H145.367V28.6164C145.489 28.2914 145.692 28.0332 145.976 27.8417C146.267 27.6502 146.615 27.5544 147.021 27.5544ZM146.638 28.6251C146.267 28.6251 145.959 28.7527 145.715 29.008C145.477 29.2576 145.358 29.597 145.358 30.0264C145.358 30.45 145.477 30.7895 145.715 31.0448C145.959 31.2943 146.267 31.4191 146.638 31.4191C147.021 31.4191 147.329 31.2973 147.561 31.0535C147.793 30.804 147.909 30.4616 147.909 30.0264C147.909 29.5912 147.793 29.2489 147.561 28.9993C147.329 28.7498 147.021 28.6251 146.638 28.6251ZM152.598 31.3843V32.4375H151.954C151.415 32.4375 151 32.3069 150.71 32.0458C150.425 31.7847 150.283 31.3495 150.283 30.7402V28.6512H149.613V27.6154H150.283V26.4229H151.51V27.6154H152.59V28.6512H151.51V30.7576C151.51 30.9897 151.557 31.1522 151.65 31.245C151.743 31.3379 151.899 31.3843 152.12 31.3843H152.598ZM153.342 26.2314C153.342 26.0341 153.412 25.8745 153.551 25.7527C153.69 25.625 153.873 25.5612 154.1 25.5612C154.326 25.5612 154.509 25.625 154.648 25.7527C154.787 25.8745 154.857 26.0341 154.857 26.2314C154.857 26.4229 154.787 26.5825 154.648 26.7101C154.509 26.832 154.326 26.8929 154.1 26.8929C153.873 26.8929 153.69 26.832 153.551 26.7101C153.412 26.5825 153.342 26.4229 153.342 26.2314ZM154.709 27.6154V32.4375H153.482V27.6154H154.709ZM158.047 27.5544C158.517 27.5544 158.938 27.6531 159.31 27.8504C159.687 28.0477 159.983 28.3349 160.197 28.7121C160.412 29.0835 160.519 29.5216 160.519 30.0264C160.519 30.5313 160.412 30.9694 160.197 31.3408C159.983 31.7122 159.687 31.9994 159.31 32.2025C158.938 32.3998 158.517 32.4984 158.047 32.4984C157.577 32.4984 157.154 32.3998 156.777 32.2025C156.405 31.9994 156.112 31.7122 155.897 31.3408C155.683 30.9694 155.575 30.5313 155.575 30.0264C155.575 29.5216 155.683 29.0835 155.897 28.7121C156.112 28.3349 156.405 28.0477 156.777 27.8504C157.154 27.6531 157.577 27.5544 158.047 27.5544ZM158.047 28.6164C157.705 28.6164 157.415 28.7382 157.177 28.9819C156.939 29.2198 156.82 29.568 156.82 30.0264C156.82 30.4849 156.939 30.8359 157.177 31.0796C157.415 31.3176 157.705 31.4365 158.047 31.4365C158.39 31.4365 158.68 31.3176 158.918 31.0796C159.156 30.8359 159.275 30.4849 159.275 30.0264C159.275 29.568 159.156 29.2198 158.918 28.9819C158.68 28.7382 158.39 28.6164 158.047 28.6164ZM164.259 27.5457C164.816 27.5457 165.26 27.7285 165.591 28.0941C165.922 28.4597 166.087 28.9732 166.087 29.6347V32.4375H164.868V29.774C164.868 29.391 164.77 29.0951 164.573 28.8862C164.375 28.6715 164.105 28.5641 163.763 28.5641C163.415 28.5641 163.136 28.6773 162.927 28.9036C162.719 29.1299 162.614 29.4549 162.614 29.8785V32.4375H161.387V27.6154H162.614V28.5815C162.742 28.2566 162.951 28.0042 163.241 27.8243C163.537 27.6386 163.876 27.5457 164.259 27.5457ZM169.83 28.9297C169.83 30.0438 169.616 31.0419 169.186 31.924C168.757 32.806 168.191 33.5168 167.489 34.0565H166.296V33.9433C167.863 32.6493 168.647 30.981 168.647 28.9384C168.647 26.8958 167.863 25.2275 166.296 23.9335V23.8116H167.489C168.191 24.3571 168.757 25.0709 169.186 25.9529C169.616 26.8291 169.83 27.8214 169.83 28.9297Z" fill="white"/>
<path d="M231.962 27.1218C231.962 27.5483 231.617 27.894 231.19 27.894C230.764 27.894 230.418 27.5483 230.418 27.1218C230.418 26.6953 230.764 26.3496 231.19 26.3496C231.617 26.3496 231.962 26.6953 231.962 27.1218Z" fill="white"/>
<path d="M231.962 29.4385C231.962 29.865 231.617 30.2107 231.19 30.2107C230.764 30.2107 230.418 29.865 230.418 29.4385C230.418 29.012 230.764 28.6663 231.19 28.6663C231.617 28.6663 231.962 29.012 231.962 29.4385Z" fill="white"/>
<path d="M231.19 32.5274C231.617 32.5274 231.962 32.1816 231.962 31.7551C231.962 31.3287 231.617 30.9829 231.19 30.9829C230.764 30.9829 230.418 31.3287 230.418 31.7551C230.418 32.1816 230.764 32.5274 231.19 32.5274Z" fill="white"/>
<defs>
<filter id="filter0_d_6516_2518" x="0.482121" y="0.183593" width="261.606" height="189.036" filterUnits="userSpaceOnUse" color-interpolation-filters="sRGB">
<feFlood flood-opacity="0" result="BackgroundImageFix"/>
<feColorMatrix in="SourceAlpha" type="matrix" values="0 0 0 0 0 0 0 0 0 0 0 0 0 0 0 0 0 0 127 0" result="hardAlpha"/>
<feOffset dy="2.46905"/>
<feGaussianBlur stdDeviation="9.25894"/>
<feComposite in2="hardAlpha" operator="out"/>
<feColorMatrix type="matrix" values="0 0 0 0 0.101961 0 0 0 0 0.109804 0 0 0 0 0.129412 0 0 0 0.07 0"/>
<feBlend mode="normal" in2="BackgroundImageFix" result="effect1_dropShadow_6516_2518"/>
<feBlend mode="normal" in="SourceGraphic" in2="effect1_dropShadow_6516_2518" result="shape"/>
</filter>
</defs>
</svg>
