<svg width="372" height="213" viewBox="0 0 372 213" fill="none" xmlns="http://www.w3.org/2000/svg">
<g filter="url(#filter0_d_6516_2560)">
<rect x="19.4883" y="17" width="333.876" height="174.232" rx="9.8762" fill="white" shape-rendering="crispEdges"/>
<path d="M31.0995 29.871H32.2684V36.8262H31.0995V29.871ZM35.5452 36.9224C34.8878 36.9224 34.3716 36.6963 33.9964 36.2442C33.6212 35.792 33.4336 35.1491 33.4336 34.3154C33.4336 33.7959 33.509 33.3454 33.6597 32.9638C33.8136 32.579 34.0381 32.2824 34.3331 32.074C34.6313 31.8623 35.0001 31.7565 35.4394 31.7565C35.6446 31.7565 35.8306 31.7822 35.9973 31.8335C36.1673 31.8816 36.318 31.9457 36.4495 32.0259C36.5809 32.106 36.6916 32.1942 36.7813 32.2904C36.8743 32.3866 36.9465 32.4828 36.9978 32.579V29.6786H38.1714V36.8262H37.3056L37.1758 35.8065C37.1373 35.9251 37.0796 36.0502 37.0026 36.1816C36.9289 36.3099 36.8278 36.4302 36.6996 36.5424C36.5745 36.6546 36.4174 36.746 36.2282 36.8166C36.039 36.8871 35.8113 36.9224 35.5452 36.9224ZM35.7857 36.0614C36.2058 36.0614 36.512 35.9251 36.7044 35.6525C36.9 35.3768 36.9978 34.9214 36.9978 34.2865C36.9946 33.9242 36.9497 33.6196 36.8631 33.3726C36.7797 33.1257 36.6499 32.9398 36.4735 32.8147C36.3004 32.6896 36.0759 32.6271 35.8001 32.6271C35.4474 32.6271 35.1572 32.757 34.9295 33.0167C34.7019 33.2764 34.588 33.6997 34.588 34.2865C34.588 34.8701 34.6922 35.3126 34.9007 35.6141C35.1091 35.9123 35.4041 36.0614 35.7857 36.0614ZM41.0282 36.8983C40.7076 36.8983 40.451 36.8582 40.2586 36.7781C40.0662 36.6979 39.9219 36.5905 39.8257 36.4558C39.7295 36.3211 39.667 36.1704 39.6381 36.0037C39.6093 35.8337 39.5949 35.6606 39.5949 35.4842V29.6786H40.7396V35.3495C40.7396 35.5644 40.7829 35.7311 40.8695 35.8498C40.9593 35.9684 41.1036 36.0373 41.3024 36.0566L41.5525 36.0662V36.8021C41.4659 36.8278 41.3777 36.8502 41.2879 36.8695C41.1982 36.8887 41.1116 36.8983 41.0282 36.8983ZM43.8283 31.8527V36.8262H42.7027V31.8527H43.8283ZM43.8427 29.8758V30.9821H42.6835V29.8758H43.8427ZM45.3371 36.8262V31.8527H46.4818V32.5646C46.5588 32.4363 46.663 32.3129 46.7945 32.1942C46.9292 32.0756 47.0943 31.9794 47.2899 31.9056C47.4855 31.8319 47.7148 31.795 47.9777 31.795C48.2856 31.795 48.571 31.8559 48.8339 31.9778C49.1 32.0996 49.3133 32.2904 49.4736 32.5501C49.6372 32.8099 49.7189 33.145 49.7189 33.5554V36.8262H48.5453V33.6949C48.5453 33.3678 48.4555 33.1257 48.2759 32.9686C48.0964 32.8083 47.8703 32.7281 47.5977 32.7281C47.4118 32.7281 47.2354 32.7602 47.0687 32.8243C46.9019 32.8852 46.7656 32.9798 46.6598 33.1081C46.5572 33.2332 46.5059 33.3903 46.5059 33.5795V36.8262H45.3371ZM53.2296 38.4712C52.3926 38.4712 51.7497 38.3589 51.3008 38.1345C50.8519 37.91 50.6274 37.6022 50.6274 37.211C50.6274 37.0346 50.6707 36.8871 50.7573 36.7685C50.8438 36.6498 50.9465 36.552 51.0651 36.475C51.1837 36.3981 51.2928 36.3388 51.3922 36.2971C51.4916 36.2554 51.5557 36.2249 51.5846 36.2057C51.5301 36.1736 51.4579 36.1319 51.3681 36.0806C51.2783 36.0293 51.1966 35.9588 51.1228 35.869C51.0523 35.7792 51.017 35.6622 51.017 35.5179C51.017 35.3511 51.0956 35.1972 51.2527 35.0561C51.413 34.915 51.6519 34.814 51.9694 34.7531C51.6583 34.6024 51.4194 34.3988 51.2527 34.1422C51.0859 33.8857 51.0026 33.6196 51.0026 33.3438C51.0026 33.0167 51.0972 32.7361 51.2864 32.502C51.4788 32.268 51.7449 32.0884 52.0848 31.9633C52.4279 31.8383 52.8239 31.7757 53.2729 31.7757C53.6063 31.7757 53.8821 31.8126 54.1002 31.8864C54.3182 31.9601 54.5218 32.0595 54.711 32.1846C54.7752 32.1589 54.8649 32.1237 54.9804 32.0788C55.099 32.0307 55.2273 31.9794 55.3652 31.9249C55.5031 31.8671 55.6345 31.8126 55.7596 31.7613C55.8879 31.7068 55.9969 31.6619 56.0867 31.6266L56.077 32.5934L55.2161 32.7474C55.2578 32.8403 55.2898 32.9414 55.3123 33.0504C55.3379 33.1594 55.3507 33.2556 55.3507 33.339C55.3507 33.6276 55.269 33.8953 55.1054 34.1422C54.9451 34.3859 54.703 34.5815 54.3791 34.729C54.0585 34.8765 53.6576 34.9503 53.1767 34.9503C53.1286 34.9503 53.0628 34.9487 52.9794 34.9455C52.8961 34.9423 52.8287 34.9391 52.7774 34.9359C52.5177 34.9455 52.3397 34.976 52.2435 35.0273C52.1473 35.0786 52.0992 35.1347 52.0992 35.1956C52.0992 35.2822 52.1714 35.3399 52.3157 35.3688C52.46 35.3976 52.6909 35.4233 53.0083 35.4457C53.1205 35.4521 53.268 35.4602 53.4508 35.4698C53.6336 35.4794 53.8372 35.4922 54.0617 35.5083C54.6293 35.5435 55.0589 35.6862 55.3507 35.9363C55.6425 36.1832 55.7884 36.5039 55.7884 36.8983C55.7884 37.3569 55.5768 37.7336 55.1535 38.0287C54.7303 38.3237 54.0889 38.4712 53.2296 38.4712ZM53.4268 37.7833C53.8468 37.7833 54.1579 37.7256 54.3599 37.6102C54.5619 37.4948 54.6629 37.3248 54.6629 37.1003C54.6629 36.9272 54.594 36.7861 54.4561 36.6771C54.3182 36.568 54.113 36.5039 53.8404 36.4847L52.585 36.4077C52.4472 36.3981 52.3157 36.4237 52.1906 36.4847C52.0688 36.5424 51.9694 36.6242 51.8924 36.73C51.8154 36.8326 51.777 36.9464 51.777 37.0715C51.777 37.3056 51.9116 37.4819 52.181 37.6006C52.4504 37.7224 52.8656 37.7833 53.4268 37.7833ZM53.2151 34.2625C53.5198 34.2625 53.7667 34.1855 53.9559 34.0316C54.1451 33.8745 54.2396 33.6532 54.2396 33.3678C54.2396 33.0728 54.1451 32.8436 53.9559 32.68C53.7667 32.5133 53.5198 32.4299 53.2151 32.4299C52.9041 32.4299 52.6524 32.5133 52.46 32.68C52.2708 32.8468 52.1762 33.076 52.1762 33.3678C52.1762 33.6436 52.2676 33.8617 52.4504 34.022C52.6331 34.1823 52.8881 34.2625 53.2151 34.2625ZM58.7824 30.9244V29.871H64.208V30.9244H62.1205V36.8262H60.9469V30.9244H58.7824ZM64.9007 36.8262V31.8527H66.0214V32.9301C66.1016 32.6832 66.2154 32.4732 66.3629 32.3C66.5136 32.1237 66.69 31.989 66.892 31.896C67.094 31.803 67.3137 31.7565 67.551 31.7565C67.6087 31.7565 67.6648 31.7597 67.7193 31.7661C67.7738 31.7725 67.8139 31.7838 67.8396 31.7998V32.9205C67.8043 32.9045 67.7578 32.8933 67.7001 32.8868C67.6456 32.8804 67.5975 32.8772 67.5558 32.8772C67.3153 32.858 67.102 32.8676 66.9161 32.9061C66.7333 32.9446 66.5778 33.0103 66.4495 33.1033C66.3244 33.1931 66.2298 33.3085 66.1657 33.4496C66.1016 33.5875 66.0695 33.7494 66.0695 33.9354V36.8262H64.9007ZM69.644 34.6088C69.6408 34.891 69.6857 35.1411 69.7787 35.3591C69.8717 35.5772 70.0096 35.7487 70.1924 35.8738C70.3751 35.9957 70.6012 36.0566 70.8706 36.0566C71.1463 36.0566 71.3852 35.9957 71.5872 35.8738C71.7925 35.7487 71.9288 35.5596 71.9961 35.3062H73.0687C73.011 35.6526 72.8731 35.946 72.6551 36.1865C72.437 36.4269 72.1725 36.6097 71.8614 36.7348C71.5536 36.8598 71.2329 36.9224 70.8994 36.9224C70.4184 36.9224 69.9952 36.8214 69.6296 36.6193C69.2673 36.4141 68.9835 36.1223 68.7783 35.7439C68.5762 35.3656 68.4752 34.915 68.4752 34.3923C68.4752 33.8825 68.5682 33.4304 68.7542 33.036C68.9402 32.6383 69.2079 32.3257 69.5575 32.098C69.9102 31.8703 70.3335 31.7565 70.8273 31.7565C71.3179 31.7565 71.7299 31.8607 72.0634 32.0692C72.4001 32.2776 72.6534 32.5694 72.8234 32.9446C72.9966 33.3165 73.0831 33.7526 73.0831 34.2529V34.6088H69.644ZM69.644 33.8825H71.9769C71.9769 33.642 71.9352 33.4256 71.8518 33.2332C71.7684 33.0376 71.6402 32.8836 71.467 32.7714C71.297 32.656 71.0822 32.5982 70.8225 32.5982C70.5659 32.5982 70.3495 32.6608 70.1731 32.7858C69.9968 32.9109 69.8637 33.0728 69.7739 33.2716C69.6841 33.4672 69.6408 33.6709 69.644 33.8825ZM74.2222 36.8262V31.8527H75.3669V32.5646C75.4439 32.4363 75.5481 32.3129 75.6796 32.1942C75.8143 32.0756 75.9794 31.9794 76.175 31.9056C76.3706 31.8319 76.5999 31.795 76.8628 31.795C77.1707 31.795 77.4561 31.8559 77.719 31.9778C77.9851 32.0996 78.1984 32.2904 78.3587 32.5501C78.5223 32.8099 78.604 33.145 78.604 33.5554V36.8262H77.4304V33.6949C77.4304 33.3678 77.3406 33.1257 77.161 32.9686C76.9815 32.8083 76.7554 32.7281 76.4828 32.7281C76.2969 32.7281 76.1205 32.7602 75.9538 32.8243C75.787 32.8852 75.6507 32.9798 75.5449 33.1081C75.4423 33.2332 75.391 33.3903 75.391 33.5795V36.8262H74.2222ZM81.7299 36.9224C81.0725 36.9224 80.5563 36.6963 80.1811 36.2442C79.8059 35.792 79.6183 35.1491 79.6183 34.3154C79.6183 33.7959 79.6937 33.3454 79.8444 32.9638C79.9983 32.579 80.2228 32.2824 80.5178 32.074C80.816 31.8623 81.1848 31.7565 81.6241 31.7565C81.8293 31.7565 82.0153 31.7822 82.182 31.8335C82.352 31.8816 82.5027 31.9457 82.6341 32.0259C82.7656 32.106 82.8762 32.1942 82.966 32.2904C83.059 32.3866 83.1312 32.4828 83.1825 32.579V29.6786H84.3561V36.8262H83.4903L83.3604 35.8065C83.322 35.9251 83.2642 36.0502 83.1873 36.1816C83.1135 36.3099 83.0125 36.4302 82.8843 36.5424C82.7592 36.6546 82.6021 36.746 82.4129 36.8166C82.2237 36.8871 81.996 36.9224 81.7299 36.9224ZM81.9704 36.0614C82.3904 36.0614 82.6967 35.9251 82.8891 35.6525C83.0847 35.3768 83.1825 34.9214 83.1825 34.2865C83.1793 33.9242 83.1344 33.6196 83.0478 33.3726C82.9644 33.1257 82.8346 32.9398 82.6582 32.8147C82.485 32.6896 82.2606 32.6271 81.9848 32.6271C81.6321 32.6271 81.3419 32.757 81.1142 33.0167C80.8865 33.2764 80.7727 33.6997 80.7727 34.2865C80.7727 34.8701 80.8769 35.3126 81.0853 35.6141C81.2938 35.9123 81.5888 36.0614 81.9704 36.0614ZM87.6036 36.9224C87.2573 36.9224 86.9286 36.8679 86.6176 36.7588C86.3098 36.6466 86.05 36.4718 85.8384 36.2346C85.63 35.9973 85.4985 35.691 85.444 35.3159H86.4733C86.5182 35.4986 86.5967 35.6477 86.709 35.7632C86.8244 35.8786 86.9607 35.9636 87.1178 36.0181C87.2749 36.0694 87.4353 36.0951 87.5988 36.0951C87.897 36.0951 88.1375 36.0438 88.3203 35.9411C88.5063 35.8385 88.5993 35.6798 88.5993 35.465C88.5993 35.3078 88.548 35.1828 88.4454 35.0898C88.3428 34.9968 88.1792 34.9263 87.9547 34.8782L87.0072 34.6617C86.5871 34.5687 86.2488 34.4148 85.9923 34.2C85.739 33.9851 85.6107 33.6821 85.6075 33.2909C85.6043 32.9959 85.6781 32.7329 85.8288 32.502C85.9795 32.2712 86.2039 32.09 86.5022 31.9585C86.8004 31.8238 87.1691 31.7565 87.6084 31.7565C88.1888 31.7565 88.6538 31.8864 89.0033 32.1461C89.3528 32.4026 89.5324 32.7698 89.542 33.2476H88.5464C88.5111 33.0327 88.4101 32.866 88.2433 32.7474C88.0766 32.6255 87.8602 32.5646 87.594 32.5646C87.3182 32.5646 87.0922 32.6175 86.9158 32.7233C86.7394 32.8291 86.6513 32.9911 86.6513 33.2091C86.6513 33.3598 86.7186 33.4785 86.8533 33.565C86.988 33.6516 87.19 33.7254 87.4593 33.7863L88.354 34.0027C88.6105 34.0669 88.8205 34.1535 88.9841 34.2625C89.1476 34.3715 89.2759 34.4918 89.3689 34.6232C89.4619 34.7515 89.526 34.8846 89.5613 35.0224C89.5997 35.1571 89.619 35.2822 89.619 35.3976C89.619 35.7183 89.5356 35.9925 89.3689 36.2201C89.2053 36.4446 88.9729 36.6177 88.6714 36.7396C88.37 36.8614 88.0141 36.9224 87.6036 36.9224Z" fill="#1A1C21"/>
<rect x="294.522" y="27.9826" width="40.2103" height="10.6875" rx="1.49149" stroke="#E6E6E7" stroke-width="0.426139"/>
<path d="M298.418 31.3219V34.3262H298.03V31.3219H298.418ZM300 31.9568C300.227 31.9568 300.419 32.0137 300.575 32.1273C300.734 32.2409 300.845 32.3929 300.908 32.5833V31.1727H301.295V34.3262H300.908V33.7296C300.845 33.9199 300.734 34.0719 300.575 34.1855C300.419 34.2992 300.227 34.356 300 34.356C299.793 34.356 299.608 34.3077 299.446 34.2111C299.284 34.1145 299.156 33.9767 299.062 33.7978C298.971 33.6159 298.926 33.4029 298.926 33.1586C298.926 32.9142 298.971 32.7012 299.062 32.5193C299.156 32.3375 299.284 32.1983 299.446 32.1017C299.608 32.0051 299.793 31.9568 300 31.9568ZM300.111 32.302C299.872 32.302 299.68 32.3787 299.535 32.5321C299.393 32.6827 299.322 32.8915 299.322 33.1586C299.322 33.4256 299.393 33.6358 299.535 33.7892C299.68 33.9398 299.872 34.0151 300.111 34.0151C300.264 34.0151 300.4 33.9796 300.52 33.9086C300.642 33.8375 300.737 33.7381 300.805 33.6103C300.873 33.4796 300.908 33.329 300.908 33.1586C300.908 32.9881 300.873 32.8375 300.805 32.7068C300.737 32.5762 300.642 32.4767 300.52 32.4085C300.4 32.3375 300.264 32.302 300.111 32.302ZM302.3 31.1727V34.3262H301.913V31.1727H302.3ZM302.856 31.3006C302.856 31.2296 302.88 31.1727 302.928 31.1301C302.976 31.0847 303.04 31.0619 303.12 31.0619C303.199 31.0619 303.263 31.0847 303.312 31.1301C303.36 31.1727 303.384 31.2296 303.384 31.3006C303.384 31.3716 303.36 31.4298 303.312 31.4753C303.263 31.5179 303.199 31.5392 303.12 31.5392C303.04 31.5392 302.976 31.5179 302.928 31.4753C302.88 31.4298 302.856 31.3716 302.856 31.3006ZM303.312 31.9867V34.3262H302.924V31.9867H303.312ZM305.167 31.9483C305.439 31.9483 305.659 32.0364 305.827 32.2125C305.995 32.3858 306.078 32.6372 306.078 32.9668V34.3262H305.691V33.0009C305.691 32.7679 305.631 32.5889 305.512 32.4639C305.392 32.3389 305.23 32.2764 305.026 32.2764C304.813 32.2764 304.642 32.346 304.515 32.4853C304.387 32.6216 304.323 32.8219 304.323 33.0861V34.3262H303.935V31.9867H304.323V32.5407C304.382 32.3503 304.488 32.204 304.638 32.1017C304.792 31.9995 304.968 31.9483 305.167 31.9483ZM307.632 31.9568C307.859 31.9568 308.051 32.0137 308.207 32.1273C308.366 32.2409 308.477 32.3929 308.54 32.5833V31.9867H308.928V34.3645C308.928 34.5804 308.882 34.7722 308.791 34.9398C308.7 35.1074 308.572 35.2381 308.408 35.3319C308.243 35.4256 308.051 35.4725 307.832 35.4725C307.517 35.4725 307.26 35.3958 307.061 35.2424C306.862 35.0918 306.736 34.8873 306.682 34.6287H307.065C307.111 34.785 307.196 34.9071 307.321 34.9952C307.449 35.0861 307.612 35.1316 307.811 35.1316C308.021 35.1316 308.195 35.0634 308.331 34.927C308.47 34.7935 308.54 34.606 308.54 34.3645V33.7296C308.477 33.9199 308.366 34.0719 308.207 34.1855C308.051 34.2992 307.859 34.356 307.632 34.356C307.425 34.356 307.24 34.3077 307.078 34.2111C306.916 34.1145 306.788 33.9767 306.695 33.7978C306.604 33.6159 306.558 33.4029 306.558 33.1586C306.558 32.9142 306.604 32.7012 306.695 32.5193C306.788 32.3375 306.916 32.1983 307.078 32.1017C307.24 32.0051 307.425 31.9568 307.632 31.9568ZM307.743 32.302C307.504 32.302 307.312 32.3787 307.168 32.5321C307.026 32.6827 306.955 32.8915 306.955 33.1586C306.955 33.4256 307.026 33.6358 307.168 33.7892C307.312 33.9398 307.504 34.0151 307.743 34.0151C307.896 34.0151 308.033 33.9796 308.152 33.9086C308.274 33.8375 308.369 33.7381 308.438 33.6103C308.506 33.4796 308.54 33.329 308.54 33.1586C308.54 32.9881 308.506 32.8375 308.438 32.7068C308.369 32.5762 308.274 32.4767 308.152 32.4085C308.033 32.3375 307.896 32.302 307.743 32.302ZM312.439 31.3219V31.6372H311.591V34.3262H311.203V31.6372H310.355V31.3219H312.439ZM313.212 32.4597C313.288 32.2978 313.401 32.1728 313.548 32.0847C313.696 31.9938 313.872 31.9483 314.077 31.9483V32.3702H313.958C313.739 32.3702 313.56 32.427 313.421 32.5407C313.281 32.6514 313.212 32.8361 313.212 33.0946V34.3262H312.824V31.9867H313.212V32.4597ZM316.611 33.0264C316.611 33.1088 316.606 33.1799 316.594 33.2395H314.724C314.732 33.5066 314.807 33.7069 314.95 33.8404C315.094 33.9739 315.271 34.0407 315.478 34.0407C315.665 34.0407 315.822 33.9938 315.947 33.9C316.075 33.8034 316.153 33.6756 316.181 33.5165H316.594C316.566 33.6784 316.502 33.8233 316.403 33.9512C316.306 34.079 316.18 34.1784 316.023 34.2495C315.867 34.3205 315.691 34.356 315.495 34.356C315.271 34.356 315.072 34.3077 314.898 34.2111C314.725 34.1145 314.589 33.9767 314.489 33.7978C314.393 33.6159 314.344 33.4029 314.344 33.1586C314.344 32.9142 314.393 32.7012 314.489 32.5193C314.589 32.3375 314.725 32.1983 314.898 32.1017C315.072 32.0051 315.271 31.9568 315.495 31.9568C315.722 31.9568 315.92 32.0051 316.087 32.1017C316.258 32.1983 316.387 32.3276 316.475 32.4895C316.566 32.6514 316.611 32.8304 316.611 33.0264ZM316.219 33.052C316.228 32.8787 316.2 32.7338 316.134 32.6174C316.069 32.5009 315.979 32.4142 315.866 32.3574C315.752 32.3006 315.629 32.2722 315.495 32.2722C315.282 32.2722 315.103 32.3389 314.958 32.4725C314.813 32.6032 314.735 32.7963 314.724 33.052H316.219ZM318.35 31.9483C318.623 31.9483 318.843 32.0364 319.011 32.2125C319.178 32.3858 319.262 32.6372 319.262 32.9668V34.3262H318.874V33.0009C318.874 32.7679 318.815 32.5889 318.695 32.4639C318.576 32.3389 318.414 32.2764 318.21 32.2764C317.997 32.2764 317.826 32.346 317.698 32.4853C317.57 32.6216 317.506 32.8219 317.506 33.0861V34.3262H317.119V31.9867H317.506V32.5407C317.566 32.3503 317.671 32.204 317.822 32.1017C317.975 31.9995 318.151 31.9483 318.35 31.9483ZM320.816 31.9568C321.043 31.9568 321.235 32.0137 321.391 32.1273C321.55 32.2409 321.661 32.3929 321.723 32.5833V31.1727H322.111V34.3262H321.723V33.7296C321.661 33.9199 321.55 34.0719 321.391 34.1855C321.235 34.2992 321.043 34.356 320.816 34.356C320.608 34.356 320.424 34.3077 320.262 34.2111C320.1 34.1145 319.972 33.9767 319.878 33.7978C319.787 33.6159 319.742 33.4029 319.742 33.1586C319.742 32.9142 319.787 32.7012 319.878 32.5193C319.972 32.3375 320.1 32.1983 320.262 32.1017C320.424 32.0051 320.608 31.9568 320.816 31.9568ZM320.927 32.302C320.688 32.302 320.496 32.3787 320.351 32.5321C320.209 32.6827 320.138 32.8915 320.138 33.1586C320.138 33.4256 320.209 33.6358 320.351 33.7892C320.496 33.9398 320.688 34.0151 320.927 34.0151C321.08 34.0151 321.216 33.9796 321.336 33.9086C321.458 33.8375 321.553 33.7381 321.621 33.6103C321.689 33.4796 321.723 33.329 321.723 33.1586C321.723 32.9881 321.689 32.8375 321.621 32.7068C321.553 32.5762 321.458 32.4767 321.336 32.4085C321.216 32.3375 321.08 32.302 320.927 32.302ZM323.461 31.9568C323.726 31.9568 323.937 32.0264 324.096 32.1656C324.258 32.302 324.356 32.4867 324.39 32.7196H324.02C324.003 32.5804 323.944 32.4668 323.845 32.3787C323.748 32.2878 323.618 32.2424 323.453 32.2424C323.314 32.2424 323.204 32.2764 323.125 32.3446C323.048 32.41 323.01 32.4995 323.01 32.6131C323.01 32.6983 323.035 32.7679 323.086 32.8219C323.14 32.873 323.206 32.9128 323.282 32.9412C323.362 32.9668 323.47 32.9952 323.606 33.0264C323.78 33.0662 323.919 33.1074 324.024 33.15C324.132 33.1898 324.223 33.2551 324.297 33.3461C324.373 33.437 324.412 33.5591 324.412 33.7125C324.412 33.9029 324.339 34.0577 324.194 34.177C324.052 34.2963 323.862 34.356 323.623 34.356C323.345 34.356 323.118 34.2892 322.941 34.1557C322.765 34.0222 322.662 33.8361 322.63 33.5975H323.005C323.02 33.7395 323.081 33.8546 323.189 33.9426C323.299 34.0307 323.444 34.0747 323.623 34.0747C323.757 34.0747 323.861 34.0407 323.934 33.9725C324.011 33.9043 324.049 33.8148 324.049 33.704C324.049 33.6131 324.022 33.5407 323.968 33.4867C323.914 33.4327 323.848 33.3915 323.768 33.3631C323.689 33.3347 323.579 33.3049 323.44 33.2736C323.267 33.2338 323.128 33.1941 323.022 33.1543C322.92 33.1145 322.832 33.052 322.758 32.9668C322.687 32.8787 322.652 32.7608 322.652 32.6131C322.652 32.4171 322.724 32.2594 322.869 32.1401C323.014 32.0179 323.211 31.9568 323.461 31.9568Z" fill="#86878A"/>
<g clip-path="url(#clip0_6516_2560)">
<path d="M331.026 32.0957C330.972 32.0973 330.921 32.1197 330.883 32.1589L328.982 34.0597L327.082 32.1589C327.043 32.1193 326.99 32.0969 326.935 32.0969C326.851 32.0969 326.777 32.1477 326.746 32.2248C326.714 32.3019 326.733 32.3902 326.792 32.4481L328.838 34.4936C328.918 34.5735 329.047 34.5735 329.127 34.4936L331.173 32.4481C331.233 32.3898 331.252 32.2999 331.22 32.222C331.187 32.1441 331.111 32.0941 331.026 32.0957Z" fill="#AEAEB2"/>
</g>
<path d="M342.336 31.6194C342.336 31.9335 342.082 32.1881 341.768 32.1881C341.454 32.1881 341.199 31.9335 341.199 31.6194C341.199 31.3054 341.454 31.0508 341.768 31.0508C342.082 31.0508 342.336 31.3054 342.336 31.6194Z" fill="#667085"/>
<path d="M342.336 33.3253C342.336 33.6394 342.082 33.894 341.768 33.894C341.454 33.894 341.199 33.6394 341.199 33.3253C341.199 33.0113 341.454 32.7567 341.768 32.7567C342.082 32.7567 342.336 33.0113 342.336 33.3253Z" fill="#667085"/>
<path d="M341.768 35.5999C342.082 35.5999 342.336 35.3453 342.336 35.0313C342.336 34.7172 342.082 34.4626 341.768 34.4626C341.454 34.4626 341.199 34.7172 341.199 35.0313C341.199 35.3453 341.454 35.5999 341.768 35.5999Z" fill="#667085"/>
<g clip-path="url(#clip1_6516_2560)">
<path d="M37.8905 51.2171L36.4527 54.6582H35.9358L37.3951 51.2656H35.4026V50.8402H37.8905V51.2171ZM38.6868 54.1628C38.4857 53.8217 38.3852 53.346 38.3852 52.7357C38.3852 52.129 38.4857 51.6569 38.6868 51.3194C38.8878 50.9784 39.2361 50.8079 39.7315 50.8079C40.2269 50.8079 40.5752 50.9784 40.7762 51.3194C40.9808 51.6605 41.0832 52.1326 41.0832 52.7357C41.0832 53.346 40.9808 53.8217 40.7762 54.1628C40.5752 54.5038 40.2269 54.6744 39.7315 54.6744C39.2361 54.6744 38.8878 54.5038 38.6868 54.1628ZM40.5285 53.5219C40.5752 53.3101 40.5985 53.0481 40.5985 52.7357C40.5985 52.427 40.5752 52.1685 40.5285 51.9603C40.4854 51.752 40.401 51.5869 40.2754 51.4648C40.1497 51.3392 39.9684 51.2764 39.7315 51.2764C39.4981 51.2764 39.3186 51.3392 39.193 51.4648C39.0673 51.5869 38.9812 51.752 38.9345 51.9603C38.8914 52.1685 38.8699 52.427 38.8699 52.7357C38.8699 53.0481 38.8914 53.3101 38.9345 53.5219C38.9812 53.7302 39.0673 53.8971 39.193 54.0228C39.3186 54.1484 39.4981 54.2112 39.7315 54.2112C39.9684 54.2112 40.1497 54.1484 40.2754 54.0228C40.401 53.8971 40.4854 53.7302 40.5285 53.5219ZM42.0215 54.1628C41.8205 53.8217 41.72 53.346 41.72 52.7357C41.72 52.129 41.8205 51.6569 42.0215 51.3194C42.2226 50.9784 42.5708 50.8079 43.0663 50.8079C43.5617 50.8079 43.9099 50.9784 44.111 51.3194C44.3156 51.6605 44.4179 52.1326 44.4179 52.7357C44.4179 53.346 44.3156 53.8217 44.111 54.1628C43.9099 54.5038 43.5617 54.6744 43.0663 54.6744C42.5708 54.6744 42.2226 54.5038 42.0215 54.1628ZM43.8633 53.5219C43.9099 53.3101 43.9333 53.0481 43.9333 52.7357C43.9333 52.427 43.9099 52.1685 43.8633 51.9603C43.8202 51.752 43.7358 51.5869 43.6102 51.4648C43.4845 51.3392 43.3032 51.2764 43.0663 51.2764C42.8329 51.2764 42.6534 51.3392 42.5277 51.4648C42.4021 51.5869 42.3159 51.752 42.2693 51.9603C42.2262 52.1685 42.2046 52.427 42.2046 52.7357C42.2046 53.0481 42.2262 53.3101 42.2693 53.5219C42.3159 53.7302 42.4021 53.8971 42.5277 54.0228C42.6534 54.1484 42.8329 54.2112 43.0663 54.2112C43.3032 54.2112 43.4845 54.1484 43.6102 54.0228C43.7358 53.8971 43.8202 53.7302 43.8633 53.5219ZM46.6972 51.6533C47.0418 51.6533 47.3201 51.7646 47.5319 51.9872C47.7437 52.2062 47.8496 52.5239 47.8496 52.9404V54.6582H47.3596V52.9834C47.3596 52.6891 47.2842 52.4629 47.1334 52.3049C46.9826 52.147 46.778 52.068 46.5195 52.068C46.2502 52.068 46.0348 52.1559 45.8733 52.3318C45.7117 52.5042 45.631 52.7573 45.631 53.0911V54.6582H45.1409V50.6732H45.631V52.4018C45.7063 52.1613 45.8392 51.9764 46.0294 51.8472C46.2233 51.7179 46.4459 51.6533 46.6972 51.6533Z" fill="#86878A"/>
<path d="M51.7969 53.1582H342.592" stroke="#E0E2E7" stroke-width="0.448758" stroke-dasharray="0.9 1.8"/>
<path d="M37.1569 67.8487C37.1282 67.6225 37.051 67.4484 36.9254 67.3264C36.8033 67.2007 36.6328 67.1379 36.4138 67.1379C36.1086 67.1379 35.8771 67.2564 35.7191 67.4933C35.5647 67.7302 35.4875 68.1054 35.4875 68.6188L35.4929 68.818C35.5468 68.6026 35.6706 68.4321 35.8645 68.3064C36.0583 68.1772 36.2863 68.1126 36.5484 68.1126C36.9253 68.1126 37.2197 68.2257 37.4315 68.4518C37.647 68.678 37.7547 68.9939 37.7547 69.3996C37.7547 69.6366 37.708 69.852 37.6146 70.0458C37.5213 70.2361 37.3777 70.3887 37.1838 70.5036C36.9936 70.6149 36.7566 70.6705 36.473 70.6705C35.9309 70.6705 35.5575 70.5 35.3529 70.1589C35.1519 69.8179 35.0513 69.3547 35.0513 68.7696C35.0513 68.0946 35.159 67.5884 35.3744 67.251C35.5934 66.9099 35.9489 66.7394 36.4407 66.7394C36.8033 66.7394 37.0815 66.8417 37.2754 67.0463C37.4728 67.251 37.5895 67.5184 37.6254 67.8487H37.1569ZM35.5468 69.3188C35.5468 69.5809 35.6222 69.8017 35.7729 69.9812C35.9273 70.1571 36.1571 70.2451 36.4622 70.2451C36.7135 70.2451 36.9146 70.1715 37.0654 70.0243C37.2161 69.8735 37.2915 69.6635 37.2915 69.3942C37.2915 69.1034 37.2161 68.8827 37.0654 68.7319C36.9146 68.5775 36.7064 68.5003 36.4407 68.5003C36.2899 68.5003 36.1463 68.5308 36.0099 68.5919C35.8735 68.6529 35.7622 68.7462 35.676 68.8719C35.5898 68.9939 35.5468 69.1429 35.5468 69.3188ZM38.6868 70.1374C38.4857 69.7963 38.3852 69.3206 38.3852 68.7103C38.3852 68.1036 38.4857 67.6315 38.6868 67.2941C38.8878 66.953 39.2361 66.7825 39.7315 66.7825C40.2269 66.7825 40.5752 66.953 40.7762 67.2941C40.9808 67.6351 41.0832 68.1072 41.0832 68.7103C41.0832 69.3206 40.9808 69.7963 40.7762 70.1374C40.5752 70.4784 40.2269 70.649 39.7315 70.649C39.2361 70.649 38.8878 70.4784 38.6868 70.1374ZM40.5285 69.4966C40.5752 69.2847 40.5985 69.0227 40.5985 68.7103C40.5985 68.4016 40.5752 68.1431 40.5285 67.9349C40.4854 67.7267 40.401 67.5615 40.2754 67.4394C40.1497 67.3138 39.9684 67.251 39.7315 67.251C39.4981 67.251 39.3186 67.3138 39.193 67.4394C39.0673 67.5615 38.9812 67.7267 38.9345 67.9349C38.8914 68.1431 38.8699 68.4016 38.8699 68.7103C38.8699 69.0227 38.8914 69.2847 38.9345 69.4966C38.9812 69.7048 39.0673 69.8717 39.193 69.9974C39.3186 70.123 39.4981 70.1858 39.7315 70.1858C39.9684 70.1858 40.1497 70.123 40.2754 69.9974C40.401 69.8717 40.4854 69.7048 40.5285 69.4966ZM42.0215 70.1374C41.8205 69.7963 41.72 69.3206 41.72 68.7103C41.72 68.1036 41.8205 67.6315 42.0215 67.2941C42.2226 66.953 42.5708 66.7825 43.0663 66.7825C43.5617 66.7825 43.9099 66.953 44.111 67.2941C44.3156 67.6351 44.4179 68.1072 44.4179 68.7103C44.4179 69.3206 44.3156 69.7963 44.111 70.1374C43.9099 70.4784 43.5617 70.649 43.0663 70.649C42.5708 70.649 42.2226 70.4784 42.0215 70.1374ZM43.8633 69.4966C43.9099 69.2847 43.9333 69.0227 43.9333 68.7103C43.9333 68.4016 43.9099 68.1431 43.8633 67.9349C43.8202 67.7267 43.7358 67.5615 43.6102 67.4394C43.4845 67.3138 43.3032 67.251 43.0663 67.251C42.8329 67.251 42.6534 67.3138 42.5277 67.4394C42.4021 67.5615 42.3159 67.7267 42.2693 67.9349C42.2262 68.1431 42.2046 68.4016 42.2046 68.7103C42.2046 69.0227 42.2262 69.2847 42.2693 69.4966C42.3159 69.7048 42.4021 69.8717 42.5277 69.9974C42.6534 70.123 42.8329 70.1858 43.0663 70.1858C43.3032 70.1858 43.4845 70.123 43.6102 69.9974C43.7358 69.8717 43.8202 69.7048 43.8633 69.4966ZM46.6972 67.6279C47.0418 67.6279 47.3201 67.7392 47.5319 67.9618C47.7437 68.1808 47.8496 68.4985 47.8496 68.915V70.6328H47.3596V68.958C47.3596 68.6637 47.2842 68.4375 47.1334 68.2795C46.9826 68.1216 46.778 68.0426 46.5195 68.0426C46.2502 68.0426 46.0348 68.1305 45.8733 68.3064C45.7117 68.4788 45.631 68.7319 45.631 69.0657V70.6328H45.1409V66.6478H45.631V68.3765C45.7063 68.1359 45.8392 67.951 46.0294 67.8218C46.2233 67.6925 46.4459 67.6279 46.6972 67.6279Z" fill="#86878A"/>
<path d="M51.7969 69.1328H342.592" stroke="#E0E2E7" stroke-width="0.448758" stroke-dasharray="0.9 1.8"/>
<path d="M37.5979 83.2006H35.6485V84.4715C35.7382 84.3494 35.8674 84.2525 36.0362 84.1807C36.2049 84.1089 36.3898 84.073 36.5908 84.073C36.8601 84.073 37.0827 84.1304 37.2586 84.2453C37.4381 84.3566 37.5691 84.5056 37.6517 84.6923C37.7379 84.8754 37.781 85.08 37.781 85.3062C37.781 85.6975 37.6715 86.017 37.4525 86.2647C37.2335 86.5124 36.9122 86.6363 36.4885 86.6363C36.108 86.6363 35.7974 86.534 35.5569 86.3293C35.3164 86.1211 35.1817 85.8429 35.153 85.4947H35.6377C35.6772 85.7172 35.7687 85.8914 35.9123 86.017C36.0595 86.1391 36.2444 86.2001 36.467 86.2001C36.7434 86.2001 36.9516 86.1175 37.0917 85.9524C37.2317 85.7872 37.3017 85.5701 37.3017 85.3008C37.3017 85.0387 37.2299 84.8341 37.0863 84.6869C36.9427 84.5397 36.7398 84.4661 36.4778 84.4661C36.2911 84.4661 36.1277 84.5074 35.9877 84.59C35.8477 84.6689 35.7418 84.7766 35.67 84.9131H35.1961V82.7644H37.5979V83.2006ZM38.6868 86.1139C38.4857 85.7729 38.3852 85.2972 38.3852 84.6869C38.3852 84.0802 38.4857 83.6081 38.6868 83.2706C38.8878 82.9296 39.2361 82.759 39.7315 82.759C40.2269 82.759 40.5752 82.9296 40.7762 83.2706C40.9808 83.6117 41.0832 84.0838 41.0832 84.6869C41.0832 85.2972 40.9808 85.7729 40.7762 86.1139C40.5752 86.455 40.2269 86.6255 39.7315 86.6255C39.2361 86.6255 38.8878 86.455 38.6868 86.1139ZM40.5285 85.4731C40.5752 85.2613 40.5985 84.9992 40.5985 84.6869C40.5985 84.3781 40.5752 84.1197 40.5285 83.9114C40.4854 83.7032 40.401 83.5381 40.2754 83.416C40.1497 83.2904 39.9684 83.2275 39.7315 83.2275C39.4981 83.2275 39.3186 83.2904 39.193 83.416C39.0673 83.5381 38.9812 83.7032 38.9345 83.9114C38.8914 84.1197 38.8699 84.3781 38.8699 84.6869C38.8699 84.9992 38.8914 85.2613 38.9345 85.4731C38.9812 85.6813 39.0673 85.8483 39.193 85.9739C39.3186 86.0996 39.4981 86.1624 39.7315 86.1624C39.9684 86.1624 40.1497 86.0996 40.2754 85.9739C40.401 85.8483 40.4854 85.6813 40.5285 85.4731ZM42.0215 86.1139C41.8205 85.7729 41.72 85.2972 41.72 84.6869C41.72 84.0802 41.8205 83.6081 42.0215 83.2706C42.2226 82.9296 42.5708 82.759 43.0663 82.759C43.5617 82.759 43.9099 82.9296 44.111 83.2706C44.3156 83.6117 44.4179 84.0838 44.4179 84.6869C44.4179 85.2972 44.3156 85.7729 44.111 86.1139C43.9099 86.455 43.5617 86.6255 43.0663 86.6255C42.5708 86.6255 42.2226 86.455 42.0215 86.1139ZM43.8633 85.4731C43.9099 85.2613 43.9333 84.9992 43.9333 84.6869C43.9333 84.3781 43.9099 84.1197 43.8633 83.9114C43.8202 83.7032 43.7358 83.5381 43.6102 83.416C43.4845 83.2904 43.3032 83.2275 43.0663 83.2275C42.8329 83.2275 42.6534 83.2904 42.5277 83.416C42.4021 83.5381 42.3159 83.7032 42.2693 83.9114C42.2262 84.1197 42.2046 84.3781 42.2046 84.6869C42.2046 84.9992 42.2262 85.2613 42.2693 85.4731C42.3159 85.6813 42.4021 85.8483 42.5277 85.9739C42.6534 86.0996 42.8329 86.1624 43.0663 86.1624C43.3032 86.1624 43.4845 86.0996 43.6102 85.9739C43.7358 85.8483 43.8202 85.6813 43.8633 85.4731ZM46.6972 83.6045C47.0418 83.6045 47.3201 83.7158 47.5319 83.9384C47.7437 84.1574 47.8496 84.4751 47.8496 84.8915V86.6094H47.3596V84.9346C47.3596 84.6402 47.2842 84.414 47.1334 84.2561C46.9826 84.0981 46.778 84.0191 46.5195 84.0191C46.2502 84.0191 46.0348 84.1071 45.8733 84.283C45.7117 84.4553 45.631 84.7084 45.631 85.0423V86.6094H45.1409V82.6244H45.631V84.353C45.7063 84.1125 45.8392 83.9276 46.0294 83.7984C46.2233 83.6691 46.4459 83.6045 46.6972 83.6045Z" fill="#86878A"/>
<path d="M51.7969 85.1094H342.592" stroke="#E0E2E7" stroke-width="0.448758" stroke-dasharray="0.9 1.8"/>
<path d="M34.8789 101.712V101.302L36.8283 98.7606H37.356V101.286H37.9161V101.712H37.356V102.584H36.8606V101.712H34.8789ZM36.8929 99.3583L35.3959 101.286H36.8929V99.3583ZM38.6868 102.089C38.4857 101.747 38.3852 101.272 38.3852 100.662C38.3852 100.055 38.4857 99.5827 38.6868 99.2452C38.8878 98.9042 39.2361 98.7336 39.7315 98.7336C40.2269 98.7336 40.5752 98.9042 40.7762 99.2452C40.9808 99.5863 41.0832 100.058 41.0832 100.662C41.0832 101.272 40.9808 101.747 40.7762 102.089C40.5752 102.43 40.2269 102.6 39.7315 102.6C39.2361 102.6 38.8878 102.43 38.6868 102.089ZM40.5285 101.448C40.5752 101.236 40.5985 100.974 40.5985 100.662C40.5985 100.353 40.5752 100.094 40.5285 99.886C40.4854 99.6778 40.401 99.5127 40.2754 99.3906C40.1497 99.265 39.9684 99.2021 39.7315 99.2021C39.4981 99.2021 39.3186 99.265 39.193 99.3906C39.0673 99.5127 38.9812 99.6778 38.9345 99.886C38.8914 100.094 38.8699 100.353 38.8699 100.662C38.8699 100.974 38.8914 101.236 38.9345 101.448C38.9812 101.656 39.0673 101.823 39.193 101.949C39.3186 102.074 39.4981 102.137 39.7315 102.137C39.9684 102.137 40.1497 102.074 40.2754 101.949C40.401 101.823 40.4854 101.656 40.5285 101.448ZM42.0215 102.089C41.8205 101.747 41.72 101.272 41.72 100.662C41.72 100.055 41.8205 99.5827 42.0215 99.2452C42.2226 98.9042 42.5708 98.7336 43.0663 98.7336C43.5617 98.7336 43.9099 98.9042 44.111 99.2452C44.3156 99.5863 44.4179 100.058 44.4179 100.662C44.4179 101.272 44.3156 101.747 44.111 102.089C43.9099 102.43 43.5617 102.6 43.0663 102.6C42.5708 102.6 42.2226 102.43 42.0215 102.089ZM43.8633 101.448C43.9099 101.236 43.9333 100.974 43.9333 100.662C43.9333 100.353 43.9099 100.094 43.8633 99.886C43.8202 99.6778 43.7358 99.5127 43.6102 99.3906C43.4845 99.265 43.3032 99.2021 43.0663 99.2021C42.8329 99.2021 42.6534 99.265 42.5277 99.3906C42.4021 99.5127 42.3159 99.6778 42.2693 99.886C42.2262 100.094 42.2046 100.353 42.2046 100.662C42.2046 100.974 42.2262 101.236 42.2693 101.448C42.3159 101.656 42.4021 101.823 42.5277 101.949C42.6534 102.074 42.8329 102.137 43.0663 102.137C43.3032 102.137 43.4845 102.074 43.6102 101.949C43.7358 101.823 43.8202 101.656 43.8633 101.448ZM46.6972 99.5791C47.0418 99.5791 47.3201 99.6904 47.5319 99.913C47.7437 100.132 47.8496 100.45 47.8496 100.866V102.584H47.3596V100.909C47.3596 100.615 47.2842 100.389 47.1334 100.231C46.9826 100.073 46.778 99.9938 46.5195 99.9938C46.2502 99.9938 46.0348 100.082 45.8733 100.258C45.7117 100.43 45.631 100.683 45.631 101.017V102.584H45.1409V98.599H45.631V100.328C45.7063 100.087 45.8392 99.9022 46.0294 99.773C46.2233 99.6437 46.4459 99.5791 46.6972 99.5791Z" fill="#86878A"/>
<path d="M51.7969 101.084H342.592" stroke="#E0E2E7" stroke-width="0.448758" stroke-dasharray="0.9 1.8"/>
<path d="M36.4904 114.66C36.7345 114.66 36.9445 114.703 37.1204 114.789C37.2963 114.875 37.4292 114.994 37.5189 115.144C37.6087 115.295 37.6536 115.466 37.6536 115.656C37.6536 115.893 37.5836 116.092 37.4435 116.254C37.3071 116.415 37.1061 116.512 36.8404 116.545V116.577C37.1168 116.649 37.3322 116.76 37.4866 116.911C37.6446 117.062 37.7236 117.27 37.7236 117.535C37.7236 117.848 37.6195 118.103 37.4112 118.3C37.203 118.498 36.9032 118.596 36.5119 118.596C36.1206 118.596 35.8029 118.496 35.5588 118.295C35.3182 118.09 35.1764 117.792 35.1333 117.401H35.618C35.6503 117.638 35.7401 117.826 35.8872 117.966C36.038 118.106 36.2409 118.176 36.4958 118.176C36.7363 118.176 36.9212 118.115 37.0504 117.993C37.1797 117.868 37.2443 117.706 37.2443 117.508C37.2443 117.272 37.1509 117.092 36.9643 116.97C36.7812 116.844 36.5191 116.782 36.178 116.782H36.0488V116.372H36.178C36.8386 116.372 37.1689 116.151 37.1689 115.71C37.1689 115.516 37.1079 115.362 36.9858 115.247C36.8637 115.132 36.695 115.074 36.4796 115.074C36.2642 115.074 36.0829 115.137 35.9357 115.263C35.7885 115.385 35.7024 115.566 35.6772 115.807H35.198C35.2231 115.448 35.3469 115.168 35.5695 114.967C35.7957 114.762 36.1027 114.66 36.4904 114.66ZM38.6868 118.063C38.4857 117.722 38.3852 117.246 38.3852 116.636C38.3852 116.029 38.4857 115.557 38.6868 115.22C38.8878 114.879 39.2361 114.708 39.7315 114.708C40.2269 114.708 40.5752 114.879 40.7762 115.22C40.9808 115.561 41.0832 116.033 41.0832 116.636C41.0832 117.246 40.9808 117.722 40.7762 118.063C40.5752 118.404 40.2269 118.575 39.7315 118.575C39.2361 118.575 38.8878 118.404 38.6868 118.063ZM40.5285 117.422C40.5752 117.211 40.5985 116.948 40.5985 116.636C40.5985 116.327 40.5752 116.069 40.5285 115.861C40.4854 115.652 40.401 115.487 40.2754 115.365C40.1497 115.24 39.9684 115.177 39.7315 115.177C39.4981 115.177 39.3186 115.24 39.193 115.365C39.0673 115.487 38.9812 115.652 38.9345 115.861C38.8914 116.069 38.8699 116.327 38.8699 116.636C38.8699 116.948 38.8914 117.211 38.9345 117.422C38.9812 117.631 39.0673 117.797 39.193 117.923C39.3186 118.049 39.4981 118.112 39.7315 118.112C39.9684 118.112 40.1497 118.049 40.2754 117.923C40.401 117.797 40.4854 117.631 40.5285 117.422ZM42.0215 118.063C41.8205 117.722 41.72 117.246 41.72 116.636C41.72 116.029 41.8205 115.557 42.0215 115.22C42.2226 114.879 42.5708 114.708 43.0663 114.708C43.5617 114.708 43.9099 114.879 44.111 115.22C44.3156 115.561 44.4179 116.033 44.4179 116.636C44.4179 117.246 44.3156 117.722 44.111 118.063C43.9099 118.404 43.5617 118.575 43.0663 118.575C42.5708 118.575 42.2226 118.404 42.0215 118.063ZM43.8633 117.422C43.9099 117.211 43.9333 116.948 43.9333 116.636C43.9333 116.327 43.9099 116.069 43.8633 115.861C43.8202 115.652 43.7358 115.487 43.6102 115.365C43.4845 115.24 43.3032 115.177 43.0663 115.177C42.8329 115.177 42.6534 115.24 42.5277 115.365C42.4021 115.487 42.3159 115.652 42.2693 115.861C42.2262 116.069 42.2046 116.327 42.2046 116.636C42.2046 116.948 42.2262 117.211 42.2693 117.422C42.3159 117.631 42.4021 117.797 42.5277 117.923C42.6534 118.049 42.8329 118.112 43.0663 118.112C43.3032 118.112 43.4845 118.049 43.6102 117.923C43.7358 117.797 43.8202 117.631 43.8633 117.422ZM46.6972 115.554C47.0418 115.554 47.3201 115.665 47.5319 115.888C47.7437 116.107 47.8496 116.424 47.8496 116.841V118.559H47.3596V116.884C47.3596 116.589 47.2842 116.363 47.1334 116.205C46.9826 116.047 46.778 115.968 46.5195 115.968C46.2502 115.968 46.0348 116.056 45.8733 116.232C45.7117 116.405 45.631 116.658 45.631 116.992V118.559H45.1409V114.574H45.631V116.302C45.7063 116.062 45.8392 115.877 46.0294 115.748C46.2233 115.618 46.4459 115.554 46.6972 115.554Z" fill="#86878A"/>
<path d="M51.7969 117.059H342.592" stroke="#E0E2E7" stroke-width="0.448758" stroke-dasharray="0.9 1.8"/>
<path d="M35.2221 134.156C35.8324 133.747 36.3207 133.341 36.6868 132.939C37.053 132.534 37.2361 132.157 37.2361 131.808C37.2361 131.593 37.1805 131.421 37.0692 131.291C36.9615 131.159 36.7856 131.092 36.5415 131.092C36.2901 131.092 36.0999 131.173 35.9706 131.334C35.8414 131.492 35.7696 131.711 35.7552 131.991H35.2706C35.2957 131.568 35.4267 131.243 35.6637 131.017C35.9006 130.787 36.2058 130.672 36.5791 130.672C36.9346 130.672 37.2164 130.767 37.4246 130.957C37.6328 131.148 37.7369 131.417 37.7369 131.765C37.7369 132.052 37.6436 132.345 37.4569 132.643C37.2738 132.937 37.0423 133.212 36.7622 133.467C36.4858 133.718 36.2004 133.932 35.906 134.108H37.8339V134.512H35.2221V134.156ZM38.6868 134.038C38.4857 133.697 38.3852 133.221 38.3852 132.611C38.3852 132.004 38.4857 131.532 38.6868 131.194C38.8878 130.853 39.2361 130.683 39.7315 130.683C40.2269 130.683 40.5752 130.853 40.7762 131.194C40.9808 131.535 41.0832 132.008 41.0832 132.611C41.0832 133.221 40.9808 133.697 40.7762 134.038C40.5752 134.379 40.2269 134.549 39.7315 134.549C39.2361 134.549 38.8878 134.379 38.6868 134.038ZM40.5285 133.397C40.5752 133.185 40.5985 132.923 40.5985 132.611C40.5985 132.302 40.5752 132.043 40.5285 131.835C40.4854 131.627 40.401 131.462 40.2754 131.34C40.1497 131.214 39.9684 131.151 39.7315 131.151C39.4981 131.151 39.3186 131.214 39.193 131.34C39.0673 131.462 38.9812 131.627 38.9345 131.835C38.8914 132.043 38.8699 132.302 38.8699 132.611C38.8699 132.923 38.8914 133.185 38.9345 133.397C38.9812 133.605 39.0673 133.772 39.193 133.898C39.3186 134.023 39.4981 134.086 39.7315 134.086C39.9684 134.086 40.1497 134.023 40.2754 133.898C40.401 133.772 40.4854 133.605 40.5285 133.397ZM42.0215 134.038C41.8205 133.697 41.72 133.221 41.72 132.611C41.72 132.004 41.8205 131.532 42.0215 131.194C42.2226 130.853 42.5708 130.683 43.0663 130.683C43.5617 130.683 43.9099 130.853 44.111 131.194C44.3156 131.535 44.4179 132.008 44.4179 132.611C44.4179 133.221 44.3156 133.697 44.111 134.038C43.9099 134.379 43.5617 134.549 43.0663 134.549C42.5708 134.549 42.2226 134.379 42.0215 134.038ZM43.8633 133.397C43.9099 133.185 43.9333 132.923 43.9333 132.611C43.9333 132.302 43.9099 132.043 43.8633 131.835C43.8202 131.627 43.7358 131.462 43.6102 131.34C43.4845 131.214 43.3032 131.151 43.0663 131.151C42.8329 131.151 42.6534 131.214 42.5277 131.34C42.4021 131.462 42.3159 131.627 42.2693 131.835C42.2262 132.043 42.2046 132.302 42.2046 132.611C42.2046 132.923 42.2262 133.185 42.2693 133.397C42.3159 133.605 42.4021 133.772 42.5277 133.898C42.6534 134.023 42.8329 134.086 43.0663 134.086C43.3032 134.086 43.4845 134.023 43.6102 133.898C43.7358 133.772 43.8202 133.605 43.8633 133.397ZM46.6972 131.528C47.0418 131.528 47.3201 131.64 47.5319 131.862C47.7437 132.081 47.8496 132.399 47.8496 132.815V134.533H47.3596V132.858C47.3596 132.564 47.2842 132.338 47.1334 132.18C46.9826 132.022 46.778 131.943 46.5195 131.943C46.2502 131.943 46.0348 132.031 45.8733 132.207C45.7117 132.379 45.631 132.632 45.631 132.966V134.533H45.1409V130.548H45.631V132.277C45.7063 132.036 45.8392 131.851 46.0294 131.722C46.2233 131.593 46.4459 131.528 46.6972 131.528Z" fill="#86878A"/>
<path d="M51.7969 133.033H342.592" stroke="#E0E2E7" stroke-width="0.448758" stroke-dasharray="0.9 1.8"/>
<path d="M36.5752 147.171V146.713H37.663V150.51H37.1461V147.171H36.5752ZM38.6868 150.014C38.4857 149.673 38.3852 149.198 38.3852 148.587C38.3852 147.981 38.4857 147.508 38.6868 147.171C38.8878 146.83 39.2361 146.659 39.7315 146.659C40.2269 146.659 40.5752 146.83 40.7762 147.171C40.9808 147.512 41.0832 147.984 41.0832 148.587C41.0832 149.198 40.9808 149.673 40.7762 150.014C40.5752 150.355 40.2269 150.526 39.7315 150.526C39.2361 150.526 38.8878 150.355 38.6868 150.014ZM40.5285 149.374C40.5752 149.162 40.5985 148.9 40.5985 148.587C40.5985 148.279 40.5752 148.02 40.5285 147.812C40.4854 147.604 40.401 147.438 40.2754 147.316C40.1497 147.191 39.9684 147.128 39.7315 147.128C39.4981 147.128 39.3186 147.191 39.193 147.316C39.0673 147.438 38.9812 147.604 38.9345 147.812C38.8914 148.02 38.8699 148.279 38.8699 148.587C38.8699 148.9 38.8914 149.162 38.9345 149.374C38.9812 149.582 39.0673 149.749 39.193 149.874C39.3186 150 39.4981 150.063 39.7315 150.063C39.9684 150.063 40.1497 150 40.2754 149.874C40.401 149.749 40.4854 149.582 40.5285 149.374ZM42.0215 150.014C41.8205 149.673 41.72 149.198 41.72 148.587C41.72 147.981 41.8205 147.508 42.0215 147.171C42.2226 146.83 42.5708 146.659 43.0663 146.659C43.5617 146.659 43.9099 146.83 44.111 147.171C44.3156 147.512 44.4179 147.984 44.4179 148.587C44.4179 149.198 44.3156 149.673 44.111 150.014C43.9099 150.355 43.5617 150.526 43.0663 150.526C42.5708 150.526 42.2226 150.355 42.0215 150.014ZM43.8633 149.374C43.9099 149.162 43.9333 148.9 43.9333 148.587C43.9333 148.279 43.9099 148.02 43.8633 147.812C43.8202 147.604 43.7358 147.438 43.6102 147.316C43.4845 147.191 43.3032 147.128 43.0663 147.128C42.8329 147.128 42.6534 147.191 42.5277 147.316C42.4021 147.438 42.3159 147.604 42.2693 147.812C42.2262 148.02 42.2046 148.279 42.2046 148.587C42.2046 148.9 42.2262 149.162 42.2693 149.374C42.3159 149.582 42.4021 149.749 42.5277 149.874C42.6534 150 42.8329 150.063 43.0663 150.063C43.3032 150.063 43.4845 150 43.6102 149.874C43.7358 149.749 43.8202 149.582 43.8633 149.374ZM46.6972 147.505C47.0418 147.505 47.3201 147.616 47.5319 147.839C47.7437 148.058 47.8496 148.375 47.8496 148.792V150.51H47.3596V148.835C47.3596 148.541 47.2842 148.314 47.1334 148.156C46.9826 147.999 46.778 147.92 46.5195 147.92C46.2502 147.92 46.0348 148.007 45.8733 148.183C45.7117 148.356 45.631 148.609 45.631 148.943V150.51H45.1409V146.525H45.631V148.253C45.7063 148.013 45.8392 147.828 46.0294 147.699C46.2233 147.57 46.4459 147.505 46.6972 147.505Z" fill="#86878A"/>
<path d="M51.7969 149.01H342.592" stroke="#E0E2E7" stroke-width="0.448758" stroke-dasharray="0.9 1.8"/>
<path d="M42.0215 165.989C41.8205 165.648 41.72 165.172 41.72 164.562C41.72 163.955 41.8205 163.483 42.0215 163.146C42.2226 162.805 42.5708 162.634 43.0663 162.634C43.5617 162.634 43.9099 162.805 44.111 163.146C44.3156 163.487 44.4179 163.959 44.4179 164.562C44.4179 165.172 44.3156 165.648 44.111 165.989C43.9099 166.33 43.5617 166.501 43.0663 166.501C42.5708 166.501 42.2226 166.33 42.0215 165.989ZM43.8633 165.348C43.9099 165.136 43.9333 164.874 43.9333 164.562C43.9333 164.253 43.9099 163.995 43.8633 163.786C43.8202 163.578 43.7358 163.413 43.6102 163.291C43.4845 163.165 43.3032 163.103 43.0663 163.103C42.8329 163.103 42.6534 163.165 42.5277 163.291C42.4021 163.413 42.3159 163.578 42.2693 163.786C42.2262 163.995 42.2046 164.253 42.2046 164.562C42.2046 164.874 42.2262 165.136 42.2693 165.348C42.3159 165.556 42.4021 165.723 42.5277 165.849C42.6534 165.975 42.8329 166.037 43.0663 166.037C43.3032 166.037 43.4845 165.975 43.6102 165.849C43.7358 165.723 43.8202 165.556 43.8633 165.348ZM46.6972 163.479C47.0418 163.479 47.3201 163.591 47.5319 163.813C47.7437 164.032 47.8496 164.35 47.8496 164.767V166.484H47.3596V164.81C47.3596 164.515 47.2842 164.289 47.1334 164.131C46.9826 163.973 46.778 163.894 46.5195 163.894C46.2502 163.894 46.0348 163.982 45.8733 164.158C45.7117 164.33 45.631 164.583 45.631 164.917V166.484H45.1409V162.499H45.631V164.228C45.7063 163.987 45.8392 163.803 46.0294 163.673C46.2233 163.544 46.4459 163.479 46.6972 163.479Z" fill="#86878A"/>
<path d="M51.7969 164.984H342.592" stroke="#E0E2E7" stroke-width="0.448758" stroke-dasharray="0.9 1.8"/>
<path d="M62.1773 174.715V177.537C62.1773 177.849 62.0875 178.097 61.908 178.28C61.7321 178.46 61.4844 178.549 61.1649 178.549C60.8202 178.549 60.5492 178.449 60.3517 178.248C60.1579 178.043 60.0609 177.758 60.0609 177.392H60.551C60.551 177.611 60.5995 177.785 60.6964 177.914C60.7933 178.04 60.9423 178.102 61.1434 178.102C61.3336 178.102 61.4718 178.049 61.558 177.941C61.6442 177.833 61.6872 177.699 61.6872 177.537V174.715H62.1773ZM64.1772 175.518C64.4644 175.518 64.7067 175.589 64.9042 175.733C65.1052 175.877 65.2452 176.069 65.3242 176.309V175.555H65.8143V178.512H65.3242V177.758C65.2452 177.998 65.1052 178.19 64.9042 178.334C64.7067 178.478 64.4644 178.549 64.1772 178.549C63.9151 178.549 63.6818 178.488 63.4771 178.366C63.2725 178.244 63.1109 178.07 62.9925 177.844C62.8776 177.614 62.8201 177.345 62.8201 177.036C62.8201 176.727 62.8776 176.458 62.9925 176.228C63.1109 175.999 63.2725 175.823 63.4771 175.701C63.6818 175.579 63.9151 175.518 64.1772 175.518ZM64.3172 175.954C64.0156 175.954 63.7733 176.051 63.5902 176.245C63.4107 176.435 63.321 176.699 63.321 177.036C63.321 177.374 63.4107 177.639 63.5902 177.833C63.7733 178.023 64.0156 178.119 64.3172 178.119C64.5111 178.119 64.6834 178.074 64.8342 177.984C64.9885 177.894 65.1088 177.769 65.195 177.607C65.2811 177.442 65.3242 177.252 65.3242 177.036C65.3242 176.821 65.2811 176.631 65.195 176.465C65.1088 176.3 64.9885 176.175 64.8342 176.088C64.6834 175.999 64.5111 175.954 64.3172 175.954ZM68.1774 175.507C68.522 175.507 68.8003 175.618 69.0121 175.841C69.2239 176.06 69.3298 176.377 69.3298 176.794V178.512H68.8398V176.837C68.8398 176.543 68.7644 176.316 68.6136 176.158C68.4628 176 68.2582 175.921 67.9997 175.921C67.7304 175.921 67.515 176.009 67.3535 176.185C67.1919 176.358 67.1111 176.611 67.1111 176.945V178.512H66.6211V175.555H67.1111V176.255C67.1865 176.015 67.3194 175.83 67.5096 175.701C67.7035 175.571 67.9261 175.507 68.1774 175.507Z" fill="#86878A"/>
<path d="M86.7027 174.715V175.114H85.0441V176.428H86.4496V176.81H85.0441V178.512H84.5541V174.715H86.7027ZM90.0298 176.869C90.0298 176.973 90.0226 177.063 90.0083 177.139H87.6442C87.655 177.476 87.7501 177.729 87.9296 177.898C88.1127 178.067 88.3353 178.151 88.5974 178.151C88.8343 178.151 89.0318 178.092 89.1897 177.973C89.3513 177.851 89.45 177.69 89.4859 177.489H90.0083C89.9724 177.693 89.8916 177.876 89.766 178.038C89.6439 178.199 89.4841 178.325 89.2867 178.415C89.0892 178.505 88.8666 178.549 88.6189 178.549C88.3353 178.549 88.084 178.488 87.865 178.366C87.646 178.244 87.4737 178.07 87.348 177.844C87.226 177.614 87.1649 177.345 87.1649 177.036C87.1649 176.727 87.226 176.458 87.348 176.228C87.4737 175.999 87.646 175.823 87.865 175.701C88.084 175.579 88.3353 175.518 88.6189 175.518C88.9061 175.518 89.1556 175.579 89.3675 175.701C89.5829 175.823 89.7462 175.986 89.8575 176.191C89.9724 176.395 90.0298 176.622 90.0298 176.869ZM89.5344 176.902C89.5452 176.683 89.5093 176.499 89.4267 176.352C89.3441 176.205 89.231 176.096 89.0874 176.024C88.9438 175.952 88.7877 175.916 88.6189 175.916C88.3497 175.916 88.1235 176 87.9404 176.169C87.7573 176.334 87.6586 176.578 87.6442 176.902H89.5344ZM92.3294 175.518C92.5915 175.518 92.8248 175.579 93.0294 175.701C93.2341 175.823 93.3938 175.999 93.5087 176.228C93.6272 176.458 93.6864 176.727 93.6864 177.036C93.6864 177.345 93.6272 177.614 93.5087 177.844C93.3938 178.07 93.2341 178.244 93.0294 178.366C92.8248 178.488 92.5915 178.549 92.3294 178.549C92.0422 178.549 91.7981 178.478 91.597 178.334C91.3996 178.187 91.2631 177.995 91.1877 177.758V178.512H90.6977V174.527H91.1877V176.309C91.2631 176.072 91.3996 175.882 91.597 175.738C91.7981 175.591 92.0422 175.518 92.3294 175.518ZM92.1894 175.954C91.9991 175.954 91.8268 175.999 91.6724 176.088C91.518 176.175 91.3978 176.3 91.3116 176.465C91.2254 176.631 91.1824 176.821 91.1824 177.036C91.1824 177.252 91.2254 177.442 91.3116 177.607C91.3978 177.769 91.518 177.894 91.6724 177.984C91.8268 178.074 91.9991 178.119 92.1894 178.119C92.4945 178.119 92.7369 178.023 92.9164 177.833C93.0995 177.639 93.191 177.374 93.191 177.036C93.191 176.699 93.0995 176.435 92.9164 176.245C92.7369 176.051 92.4945 175.954 92.1894 175.954Z" fill="#86878A"/>
<path d="M112.305 174.78V178.512H111.815V175.534L110.625 178.512H110.189L108.993 175.545V178.512H108.503V174.78H109.09L110.415 177.914L111.718 174.78H112.305ZM114.327 175.518C114.615 175.518 114.857 175.589 115.054 175.733C115.256 175.877 115.396 176.069 115.475 176.309V175.555H115.965V178.512H115.475V177.758C115.396 177.998 115.256 178.19 115.054 178.334C114.857 178.478 114.615 178.549 114.327 178.549C114.065 178.549 113.832 178.488 113.627 178.366C113.423 178.244 113.261 178.07 113.143 177.844C113.028 177.614 112.97 177.345 112.97 177.036C112.97 176.727 113.028 176.458 113.143 176.228C113.261 175.999 113.423 175.823 113.627 175.701C113.832 175.579 114.065 175.518 114.327 175.518ZM114.468 175.954C114.166 175.954 113.924 176.051 113.741 176.245C113.561 176.435 113.471 176.699 113.471 177.036C113.471 177.374 113.561 177.639 113.741 177.833C113.924 178.023 114.166 178.119 114.468 178.119C114.661 178.119 114.834 178.074 114.984 177.984C115.139 177.894 115.259 177.769 115.345 177.607C115.431 177.442 115.475 177.252 115.475 177.036C115.475 176.821 115.431 176.631 115.345 176.465C115.259 176.3 115.139 176.175 114.984 176.088C114.834 175.999 114.661 175.954 114.468 175.954ZM117.261 176.153C117.358 175.948 117.5 175.79 117.687 175.679C117.874 175.564 118.096 175.507 118.355 175.507V176.04H118.204C117.927 176.04 117.701 176.112 117.525 176.255C117.349 176.395 117.261 176.629 117.261 176.955V178.512H116.771V175.555H117.261V176.153Z" fill="#86878A"/>
<path d="M135.472 177.634H133.802L133.485 178.512H132.957L134.362 174.785H134.917L136.317 178.512H135.789L135.472 177.634ZM135.332 177.252L134.637 175.335L133.942 177.252H135.332ZM138.472 175.518C138.734 175.518 138.967 175.579 139.172 175.701C139.376 175.823 139.536 175.999 139.651 176.228C139.77 176.458 139.829 176.727 139.829 177.036C139.829 177.345 139.77 177.614 139.651 177.844C139.536 178.07 139.376 178.244 139.172 178.366C138.967 178.488 138.734 178.549 138.472 178.549C138.185 178.549 137.94 178.478 137.739 178.334C137.542 178.187 137.406 177.995 137.33 177.758V179.912H136.84V175.555H137.33V176.309C137.406 176.072 137.542 175.882 137.739 175.738C137.94 175.591 138.185 175.518 138.472 175.518ZM138.332 175.954C138.142 175.954 137.969 175.999 137.815 176.088C137.66 176.175 137.54 176.3 137.454 176.465C137.368 176.631 137.325 176.821 137.325 177.036C137.325 177.252 137.368 177.442 137.454 177.607C137.54 177.769 137.66 177.894 137.815 177.984C137.969 178.074 138.142 178.119 138.332 178.119C138.637 178.119 138.879 178.023 139.059 177.833C139.242 177.639 139.333 177.374 139.333 177.036C139.333 176.699 139.242 176.435 139.059 176.245C138.879 176.051 138.637 175.954 138.332 175.954ZM140.986 176.153C141.083 175.948 141.224 175.79 141.411 175.679C141.598 175.564 141.82 175.507 142.079 175.507V176.04H141.928C141.652 176.04 141.425 176.112 141.25 176.255C141.074 176.395 140.986 176.629 140.986 176.955V178.512H140.496V175.555H140.986V176.153Z" fill="#86878A"/>
<path d="M160.285 174.78V178.512H159.795V175.534L158.605 178.512H158.168L156.973 175.545V178.512H156.483V174.78H157.07L158.395 177.914L159.698 174.78H160.285ZM162.307 175.518C162.594 175.518 162.837 175.589 163.034 175.733C163.235 175.877 163.375 176.069 163.454 176.309V175.555H163.944V178.512H163.454V177.758C163.375 177.998 163.235 178.19 163.034 178.334C162.837 178.478 162.594 178.549 162.307 178.549C162.045 178.549 161.812 178.488 161.607 178.366C161.402 178.244 161.241 178.07 161.122 177.844C161.008 177.614 160.95 177.345 160.95 177.036C160.95 176.727 161.008 176.458 161.122 176.228C161.241 175.999 161.402 175.823 161.607 175.701C161.812 175.579 162.045 175.518 162.307 175.518ZM162.447 175.954C162.146 175.954 161.903 176.051 161.72 176.245C161.541 176.435 161.451 176.699 161.451 177.036C161.451 177.374 161.541 177.639 161.72 177.833C161.903 178.023 162.146 178.119 162.447 178.119C162.641 178.119 162.813 178.074 162.964 177.984C163.119 177.894 163.239 177.769 163.325 177.607C163.411 177.442 163.454 177.252 163.454 177.036C163.454 176.821 163.411 176.631 163.325 176.465C163.239 176.3 163.119 176.175 162.964 176.088C162.813 175.999 162.641 175.954 162.447 175.954ZM164.956 175.555L165.914 177.882L166.803 175.555H167.347L165.591 179.912H165.036L165.65 178.463L164.406 175.555H164.956Z" fill="#86878A"/>
<path d="M183.482 174.71V177.392C183.482 177.758 183.379 178.043 183.175 178.248C182.974 178.449 182.694 178.549 182.335 178.549C181.947 178.549 181.64 178.438 181.414 178.216C181.188 177.993 181.074 177.675 181.074 177.262H181.823C181.823 177.456 181.863 177.605 181.942 177.709C182.024 177.813 182.144 177.866 182.302 177.866C182.446 177.866 182.552 177.824 182.62 177.742C182.688 177.655 182.722 177.539 182.722 177.392V174.71H183.482ZM187.027 175.528V178.512H186.268V177.909C186.189 178.11 186.058 178.268 185.875 178.382C185.695 178.494 185.487 178.549 185.25 178.549C184.906 178.549 184.631 178.436 184.426 178.21C184.222 177.984 184.119 177.668 184.119 177.262V175.528H184.873V177.176C184.873 177.413 184.934 177.598 185.056 177.731C185.178 177.86 185.344 177.925 185.552 177.925C185.771 177.925 185.945 177.855 186.074 177.715C186.203 177.575 186.268 177.374 186.268 177.112V175.528H187.027ZM189.522 175.485C189.866 175.485 190.141 175.598 190.346 175.825C190.55 176.051 190.653 176.368 190.653 176.778V178.512H189.899V176.864C189.899 176.627 189.838 176.444 189.716 176.315C189.593 176.182 189.427 176.115 189.215 176.115C188.999 176.115 188.827 176.185 188.698 176.325C188.568 176.465 188.504 176.666 188.504 176.928V178.512H187.745V175.528H188.504V176.126C188.583 175.925 188.712 175.769 188.892 175.658C189.075 175.543 189.285 175.485 189.522 175.485Z" fill="#53A42A"/>
<path d="M208.775 174.715V177.537C208.775 177.849 208.685 178.097 208.505 178.28C208.33 178.46 208.082 178.549 207.762 178.549C207.418 178.549 207.147 178.449 206.949 178.248C206.755 178.043 206.658 177.758 206.658 177.392H207.148C207.148 177.611 207.197 177.785 207.294 177.914C207.391 178.04 207.54 178.102 207.741 178.102C207.931 178.102 208.069 178.049 208.155 177.941C208.242 177.833 208.285 177.699 208.285 177.537V174.715H208.775ZM212.191 175.555V178.512H211.701V177.817C211.625 178.058 211.491 178.242 211.297 178.372C211.107 178.497 210.884 178.56 210.629 178.56C210.288 178.56 210.012 178.451 209.8 178.232C209.588 178.009 209.482 177.691 209.482 177.279V175.555H209.972V177.23C209.972 177.524 210.048 177.752 210.198 177.914C210.349 178.072 210.554 178.151 210.812 178.151C211.082 178.151 211.297 178.065 211.459 177.892C211.62 177.717 211.701 177.462 211.701 177.128V175.555H212.191ZM213.493 174.527V178.512H213.003V174.527H213.493Z" fill="#86878A"/>
<path d="M231.728 177.634H230.059L229.741 178.512H229.213L230.619 174.785H231.174L232.574 178.512H232.046L231.728 177.634ZM231.588 177.252L230.894 175.335L230.199 177.252H231.588ZM235.725 175.555V178.512H235.235V177.817C235.159 178.058 235.025 178.242 234.831 178.372C234.64 178.497 234.418 178.56 234.163 178.56C233.822 178.56 233.545 178.451 233.334 178.232C233.122 178.009 233.016 177.691 233.016 177.279V175.555H233.506V177.23C233.506 177.524 233.581 177.752 233.732 177.914C233.883 178.072 234.088 178.151 234.346 178.151C234.615 178.151 234.831 178.065 234.992 177.892C235.154 177.717 235.235 177.462 235.235 177.128V175.555H235.725ZM237.748 175.518C238.035 175.518 238.278 175.589 238.475 175.733C238.676 175.877 238.816 176.069 238.895 176.309V175.555H239.385V178.56C239.385 178.833 239.328 179.075 239.213 179.287C239.098 179.499 238.937 179.664 238.728 179.783C238.52 179.901 238.278 179.96 238.001 179.96C237.603 179.96 237.278 179.863 237.027 179.67C236.775 179.479 236.616 179.221 236.547 178.894H237.032C237.089 179.092 237.197 179.246 237.355 179.357C237.517 179.472 237.723 179.53 237.974 179.53C238.24 179.53 238.459 179.443 238.631 179.271C238.807 179.102 238.895 178.865 238.895 178.56V177.758C238.816 177.998 238.676 178.19 238.475 178.334C238.278 178.478 238.035 178.549 237.748 178.549C237.486 178.549 237.253 178.488 237.048 178.366C236.844 178.244 236.682 178.07 236.564 177.844C236.449 177.614 236.391 177.345 236.391 177.036C236.391 176.727 236.449 176.458 236.564 176.228C236.682 175.999 236.844 175.823 237.048 175.701C237.253 175.579 237.486 175.518 237.748 175.518ZM237.888 175.954C237.587 175.954 237.344 176.051 237.161 176.245C236.982 176.435 236.892 176.699 236.892 177.036C236.892 177.374 236.982 177.639 237.161 177.833C237.344 178.023 237.587 178.119 237.888 178.119C238.082 178.119 238.254 178.074 238.405 177.984C238.56 177.894 238.68 177.769 238.766 177.607C238.852 177.442 238.895 177.252 238.895 177.036C238.895 176.821 238.852 176.631 238.766 176.465C238.68 176.3 238.56 176.175 238.405 176.088C238.254 175.999 238.082 175.954 237.888 175.954Z" fill="#86878A"/>
<path d="M256.419 177.526C256.419 177.706 256.376 177.873 256.29 178.027C256.204 178.181 256.073 178.307 255.897 178.404C255.721 178.501 255.504 178.549 255.245 178.549C254.994 178.549 254.769 178.505 254.572 178.415C254.378 178.321 254.222 178.196 254.103 178.038C253.989 177.876 253.922 177.693 253.904 177.489H254.427C254.437 177.596 254.473 177.702 254.534 177.806C254.599 177.907 254.689 177.991 254.804 178.059C254.922 178.124 255.064 178.156 255.229 178.156C255.444 178.156 255.61 178.099 255.724 177.984C255.839 177.869 255.897 177.722 255.897 177.542C255.897 177.388 255.855 177.262 255.773 177.165C255.694 177.069 255.595 176.993 255.477 176.939C255.358 176.882 255.197 176.821 254.992 176.756C254.751 176.677 254.558 176.604 254.41 176.535C254.267 176.464 254.143 176.358 254.039 176.218C253.938 176.078 253.888 175.893 253.888 175.663C253.888 175.466 253.935 175.291 254.028 175.141C254.125 174.99 254.261 174.873 254.437 174.791C254.617 174.708 254.827 174.667 255.067 174.667C255.441 174.667 255.737 174.758 255.956 174.941C256.175 175.121 256.302 175.351 256.338 175.631H255.811C255.782 175.48 255.705 175.347 255.579 175.232C255.453 175.117 255.283 175.06 255.067 175.06C254.87 175.06 254.712 175.112 254.594 175.216C254.475 175.317 254.416 175.46 254.416 175.647C254.416 175.794 254.454 175.914 254.529 176.008C254.608 176.097 254.705 176.169 254.82 176.223C254.935 176.273 255.093 176.331 255.294 176.395C255.538 176.474 255.733 176.55 255.881 176.622C256.031 176.693 256.159 176.803 256.263 176.95C256.367 177.094 256.419 177.286 256.419 177.526ZM259.824 176.869C259.824 176.973 259.817 177.063 259.803 177.139H257.439C257.45 177.476 257.545 177.729 257.724 177.898C257.907 178.067 258.13 178.151 258.392 178.151C258.629 178.151 258.826 178.092 258.984 177.973C259.146 177.851 259.245 177.69 259.28 177.489H259.803C259.767 177.693 259.686 177.876 259.561 178.038C259.438 178.199 259.279 178.325 259.081 178.415C258.884 178.505 258.661 178.549 258.413 178.549C258.13 178.549 257.879 178.488 257.66 178.366C257.441 178.244 257.268 178.07 257.143 177.844C257.021 177.614 256.96 177.345 256.96 177.036C256.96 176.727 257.021 176.458 257.143 176.228C257.268 175.999 257.441 175.823 257.66 175.701C257.879 175.579 258.13 175.518 258.413 175.518C258.701 175.518 258.95 175.579 259.162 175.701C259.377 175.823 259.541 175.986 259.652 176.191C259.767 176.395 259.824 176.622 259.824 176.869ZM259.329 176.902C259.34 176.683 259.304 176.499 259.221 176.352C259.139 176.205 259.026 176.096 258.882 176.024C258.738 175.952 258.582 175.916 258.413 175.916C258.144 175.916 257.918 176 257.735 176.169C257.552 176.334 257.453 176.578 257.439 176.902H259.329ZM262.124 175.518C262.386 175.518 262.619 175.579 262.824 175.701C263.029 175.823 263.188 175.999 263.303 176.228C263.422 176.458 263.481 176.727 263.481 177.036C263.481 177.345 263.422 177.614 263.303 177.844C263.188 178.07 263.029 178.244 262.824 178.366C262.619 178.488 262.386 178.549 262.124 178.549C261.837 178.549 261.593 178.478 261.392 178.334C261.194 178.187 261.058 177.995 260.982 177.758V179.912H260.492V175.555H260.982V176.309C261.058 176.072 261.194 175.882 261.392 175.738C261.593 175.591 261.837 175.518 262.124 175.518ZM261.984 175.954C261.794 175.954 261.621 175.999 261.467 176.088C261.313 176.175 261.192 176.3 261.106 176.465C261.02 176.631 260.977 176.821 260.977 177.036C260.977 177.252 261.02 177.442 261.106 177.607C261.192 177.769 261.313 177.894 261.467 177.984C261.621 178.074 261.794 178.119 261.984 178.119C262.289 178.119 262.531 178.023 262.711 177.833C262.894 177.639 262.986 177.374 262.986 177.036C262.986 176.699 262.894 176.435 262.711 176.245C262.531 176.051 262.289 175.954 261.984 175.954Z" fill="#86878A"/>
<path d="M280.209 174.667C280.561 174.667 280.877 174.749 281.157 174.914C281.441 175.08 281.663 175.311 281.825 175.609C281.986 175.904 282.067 176.237 282.067 176.611C282.067 176.984 281.986 177.32 281.825 177.618C281.663 177.912 281.441 178.142 281.157 178.307C280.877 178.472 280.561 178.555 280.209 178.555C279.857 178.555 279.538 178.472 279.251 178.307C278.967 178.142 278.745 177.912 278.583 177.618C278.421 177.32 278.341 176.984 278.341 176.611C278.341 176.237 278.421 175.904 278.583 175.609C278.745 175.311 278.967 175.08 279.251 174.914C279.538 174.749 279.857 174.667 280.209 174.667ZM280.209 175.124C279.947 175.124 279.712 175.186 279.504 175.308C279.299 175.426 279.138 175.598 279.019 175.825C278.904 176.047 278.847 176.309 278.847 176.611C278.847 176.909 278.904 177.171 279.019 177.397C279.138 177.623 279.299 177.797 279.504 177.919C279.712 178.038 279.947 178.097 280.209 178.097C280.468 178.097 280.699 178.036 280.904 177.914C281.112 177.792 281.274 177.62 281.389 177.397C281.507 177.171 281.566 176.909 281.566 176.611C281.566 176.309 281.507 176.047 281.389 175.825C281.274 175.598 281.112 175.426 280.904 175.308C280.699 175.186 280.468 175.124 280.209 175.124ZM284.065 175.518C284.442 175.518 284.754 175.618 285.002 175.819C285.25 176.02 285.402 176.289 285.46 176.627H284.943C284.907 176.415 284.808 176.25 284.647 176.132C284.489 176.009 284.291 175.948 284.054 175.948C283.882 175.948 283.724 175.988 283.58 176.067C283.44 176.146 283.327 176.268 283.241 176.433C283.155 176.595 283.112 176.796 283.112 177.036C283.112 177.277 283.155 177.48 283.241 177.645C283.327 177.806 283.44 177.927 283.58 178.006C283.724 178.085 283.882 178.124 284.054 178.124C284.291 178.124 284.489 178.063 284.647 177.941C284.808 177.819 284.907 177.652 284.943 177.44H285.46C285.402 177.781 285.25 178.052 285.002 178.253C284.754 178.451 284.442 178.549 284.065 178.549C283.782 178.549 283.53 178.488 283.311 178.366C283.092 178.244 282.92 178.07 282.794 177.844C282.672 177.614 282.611 177.345 282.611 177.036C282.611 176.727 282.672 176.458 282.794 176.228C282.92 175.999 283.092 175.823 283.311 175.701C283.53 175.579 283.782 175.518 284.065 175.518ZM287.539 178.081V178.512H287.173C286.871 178.512 286.645 178.44 286.494 178.296C286.347 178.153 286.274 177.912 286.274 177.575V175.981H285.832V175.555H286.274V174.818H286.769V175.555H287.534V175.981H286.769V177.585C286.769 177.776 286.803 177.907 286.871 177.979C286.943 178.047 287.065 178.081 287.237 178.081H287.539Z" fill="#86878A"/>
<path d="M305.323 178.512H304.833L302.862 175.512V178.512H302.372V174.715H302.862L304.833 177.72V174.715H305.323V178.512ZM307.479 175.518C307.762 175.518 308.015 175.579 308.238 175.701C308.464 175.823 308.64 175.999 308.766 176.228C308.895 176.458 308.96 176.727 308.96 177.036C308.96 177.345 308.895 177.614 308.766 177.844C308.64 178.07 308.464 178.244 308.238 178.366C308.015 178.488 307.762 178.549 307.479 178.549C307.195 178.549 306.94 178.488 306.714 178.366C306.491 178.244 306.315 178.07 306.186 177.844C306.057 177.614 305.992 177.345 305.992 177.036C305.992 176.727 306.057 176.458 306.186 176.228C306.315 175.999 306.491 175.823 306.714 175.701C306.94 175.579 307.195 175.518 307.479 175.518ZM307.479 175.948C307.303 175.948 307.139 175.988 306.989 176.067C306.841 176.146 306.721 176.268 306.628 176.433C306.538 176.595 306.493 176.796 306.493 177.036C306.493 177.273 306.538 177.474 306.628 177.639C306.721 177.801 306.841 177.921 306.989 178C307.139 178.079 307.303 178.119 307.479 178.119C307.655 178.119 307.816 178.079 307.963 178C308.114 177.921 308.234 177.801 308.324 177.639C308.417 177.474 308.464 177.273 308.464 177.036C308.464 176.796 308.417 176.595 308.324 176.433C308.234 176.268 308.114 176.146 307.963 176.067C307.816 175.988 307.655 175.948 307.479 175.948ZM310.772 177.989L311.687 175.555H312.215L311.057 178.512H310.476L309.318 175.555H309.846L310.772 177.989Z" fill="#86878A"/>
<path d="M329.658 176.611C329.658 176.995 329.58 177.331 329.426 177.618C329.272 177.901 329.044 178.122 328.742 178.28C328.444 178.435 328.085 178.512 327.665 178.512H326.459V174.715H327.665C328.085 174.715 328.444 174.792 328.742 174.947C329.044 175.098 329.272 175.317 329.426 175.604C329.58 175.887 329.658 176.223 329.658 176.611ZM327.627 178.07C328.123 178.07 328.502 177.943 328.764 177.688C329.026 177.433 329.157 177.074 329.157 176.611C329.157 176.148 329.026 175.789 328.764 175.534C328.505 175.275 328.126 175.146 327.627 175.146H326.949V178.07H327.627ZM333.065 176.869C333.065 176.973 333.058 177.063 333.044 177.139H330.68C330.69 177.476 330.786 177.729 330.965 177.898C331.148 178.067 331.371 178.151 331.633 178.151C331.87 178.151 332.067 178.092 332.225 177.973C332.387 177.851 332.485 177.69 332.521 177.489H333.044C333.008 177.693 332.927 177.876 332.801 178.038C332.679 178.199 332.52 178.325 332.322 178.415C332.125 178.505 331.902 178.549 331.654 178.549C331.371 178.549 331.119 178.488 330.9 178.366C330.681 178.244 330.509 178.07 330.383 177.844C330.261 177.614 330.2 177.345 330.2 177.036C330.2 176.727 330.261 176.458 330.383 176.228C330.509 175.999 330.681 175.823 330.9 175.701C331.119 175.579 331.371 175.518 331.654 175.518C331.942 175.518 332.191 175.579 332.403 175.701C332.618 175.823 332.782 175.986 332.893 176.191C333.008 176.395 333.065 176.622 333.065 176.869ZM332.57 176.902C332.581 176.683 332.545 176.499 332.462 176.352C332.38 176.205 332.266 176.096 332.123 176.024C331.979 175.952 331.823 175.916 331.654 175.916C331.385 175.916 331.159 176 330.976 176.169C330.793 176.334 330.694 176.578 330.68 176.902H332.57ZM335.042 175.518C335.419 175.518 335.731 175.618 335.979 175.819C336.226 176.02 336.379 176.289 336.436 176.627H335.919C335.884 176.415 335.785 176.25 335.623 176.132C335.465 176.009 335.268 175.948 335.031 175.948C334.859 175.948 334.701 175.988 334.557 176.067C334.417 176.146 334.304 176.268 334.218 176.433C334.132 176.595 334.089 176.796 334.089 177.036C334.089 177.277 334.132 177.48 334.218 177.645C334.304 177.806 334.417 177.927 334.557 178.006C334.701 178.085 334.859 178.124 335.031 178.124C335.268 178.124 335.465 178.063 335.623 177.941C335.785 177.819 335.884 177.652 335.919 177.44H336.436C336.379 177.781 336.226 178.052 335.979 178.253C335.731 178.451 335.419 178.549 335.042 178.549C334.758 178.549 334.507 178.488 334.288 178.366C334.069 178.244 333.896 178.07 333.771 177.844C333.649 177.614 333.588 177.345 333.588 177.036C333.588 176.727 333.649 176.458 333.771 176.228C333.896 175.999 334.069 175.823 334.288 175.701C334.507 175.579 334.758 175.518 335.042 175.518Z" fill="#86878A"/>
<g clip-path="url(#clip2_6516_2560)">
<path d="M342.602 107.405H343.275V108.078V166.332V167.005H342.602H51.8062H51.133V166.332V130.51V129.836H51.8062C53.7683 129.836 55.2926 130.755 56.6431 131.568L56.6971 131.601C58.1025 132.447 59.3331 133.172 60.8935 133.172C61.1384 133.172 61.4131 133.072 61.735 132.813C62.0614 132.55 62.4001 132.151 62.752 131.625C63.4587 130.568 64.1285 129.144 64.8277 127.652L64.8433 127.619C65.524 126.167 66.2339 124.653 67.0034 123.503C67.3925 122.921 67.8192 122.398 68.2947 122.015C68.7747 121.628 69.3385 121.358 69.9809 121.358C71.6151 121.358 72.8921 120.87 74.282 120.334L74.3134 120.321C75.684 119.792 77.1681 119.219 79.0682 119.219C79.2926 119.219 79.5595 119.119 79.8858 118.83C80.2149 118.539 80.5567 118.095 80.9112 117.513C81.6217 116.346 82.2943 114.773 82.9927 113.135L83.007 113.101C83.6888 111.503 84.3963 109.844 85.1626 108.585C85.5491 107.95 85.9727 107.379 86.4455 106.96C86.9212 106.539 87.4928 106.233 88.1556 106.233C89.9408 106.233 91.3344 106.278 92.7185 106.323L92.7209 106.323C94.1053 106.367 95.4804 106.412 97.2429 106.412C97.8838 106.412 98.516 106.083 99.2031 105.446C99.8921 104.807 100.548 103.942 101.249 103.013L101.271 102.984C101.948 102.088 102.67 101.132 103.454 100.404C104.249 99.6671 105.197 99.0791 106.33 99.0791C108.268 99.0791 109.778 99.8565 111.138 100.557L111.182 100.58C112.58 101.299 113.828 101.931 115.418 101.931C117.422 101.931 118.968 103.118 120.299 104.14L120.371 104.196C121.793 105.288 122.997 106.183 124.505 106.183C124.736 106.183 125.005 106.083 125.33 105.803C125.658 105.521 125.999 105.091 126.352 104.526C127.062 103.392 127.734 101.865 128.432 100.272L128.447 100.238C129.128 98.6845 129.837 97.0695 130.604 95.8438C130.991 95.2251 131.416 94.6683 131.889 94.2603C132.366 93.8494 132.936 93.5546 133.592 93.5546C133.837 93.5546 134.112 93.4553 134.434 93.1959C134.76 92.933 135.099 92.5335 135.451 92.0075C136.158 90.9513 136.827 89.5265 137.527 88.0352L137.542 88.0018C138.223 86.5498 138.933 85.0357 139.702 83.8856C140.091 83.3041 140.518 82.7806 140.994 82.3975C141.474 82.0108 142.037 81.7409 142.68 81.7409C143.445 81.7409 144.038 82.2535 144.478 82.8275C144.932 83.4209 145.342 84.2329 145.72 85.1488C146.475 86.9781 147.176 89.3996 147.862 91.7713L147.87 91.8002C148.566 94.2058 149.247 96.5587 149.971 98.3119C150.334 99.1909 150.69 99.8748 151.038 100.328C151.4 100.802 151.645 100.887 151.767 100.887C153.726 100.887 155.248 101.783 156.6 102.579L156.652 102.61C158.056 103.436 159.289 104.146 160.854 104.146C162.419 104.146 163.652 103.436 165.057 102.61L165.109 102.579C166.461 101.783 167.983 100.887 169.942 100.887C171.557 100.887 172.821 100.337 174.214 99.7224L174.251 99.7061C175.617 99.1031 177.112 98.443 179.029 98.443C180.215 98.443 181.175 99.1906 181.952 100.071C182.731 100.954 183.448 102.115 184.126 103.212L184.145 103.243C184.846 104.378 185.508 105.444 186.203 106.233C186.909 107.032 187.528 107.405 188.116 107.405C188.34 107.405 188.607 107.305 188.933 107.015C189.262 106.722 189.604 106.277 189.959 105.692C190.67 104.52 191.342 102.941 192.041 101.297L192.055 101.264C192.736 99.6593 193.444 97.9939 194.21 96.7303C194.597 96.093 195.02 95.5197 195.493 95.0995C195.968 94.6768 196.54 94.3693 197.204 94.3693C197.886 94.3693 198.533 94.0787 199.21 93.5551C199.895 93.0256 200.547 92.3096 201.249 91.5351L201.271 91.5105C201.947 90.7643 202.673 89.9636 203.462 89.3542C204.266 88.732 205.199 88.2588 206.291 88.2588C208.288 88.2588 209.83 89.3935 211.165 90.3758L211.234 90.4265C212.652 91.4699 213.861 92.3325 215.379 92.3325C217.273 92.3325 218.753 92.8768 220.125 93.3814L220.155 93.3923C221.544 93.9031 222.825 94.3693 224.466 94.3693C225.961 94.3693 227.16 93.4326 228.586 92.2786L228.663 92.2162C229.989 91.1428 231.539 89.8883 233.553 89.8883C234.293 89.8883 234.883 90.3441 235.333 90.882C235.793 91.4307 236.205 92.1801 236.585 93.0216C237.342 94.7 238.044 96.9196 238.729 99.0867L238.739 99.1169C239.435 101.32 240.115 103.466 240.836 105.064C241.198 105.865 241.55 106.484 241.893 106.893C242.245 107.314 242.493 107.405 242.641 107.405C244.535 107.405 246.015 107.949 247.387 108.454L247.417 108.465C248.806 108.976 250.087 109.442 251.728 109.442C252.396 109.442 253.038 109.138 253.718 108.577C254.404 108.012 255.057 107.246 255.759 106.42L255.781 106.394C256.457 105.598 257.182 104.745 257.969 104.096C258.771 103.435 259.709 102.924 260.815 102.924C262.755 102.924 264.265 103.709 265.624 104.415L265.669 104.439C267.068 105.165 268.315 105.802 269.903 105.802C271.022 105.802 271.964 106.348 272.763 107.046C273.55 107.732 274.273 108.633 274.949 109.476L274.971 109.503C275.673 110.377 276.327 111.189 277.015 111.789C277.698 112.385 278.335 112.701 278.99 112.701C279.518 112.701 280.131 112.279 280.861 111.263C281.565 110.283 282.233 108.961 282.933 107.572L282.949 107.538C283.629 106.188 284.341 104.775 285.113 103.701C285.864 102.655 286.831 101.702 288.077 101.702C288.783 101.702 289.367 102.089 289.83 102.577C290.296 103.069 290.713 103.739 291.095 104.488C291.856 105.978 292.56 107.945 293.243 109.856L293.255 109.888C293.952 111.837 294.629 113.726 295.346 115.13C295.705 115.833 296.053 116.372 296.39 116.727C296.729 117.085 296.983 117.182 297.165 117.182C298.73 117.182 299.963 116.472 301.367 115.645L301.42 115.615C302.771 114.819 304.294 113.923 306.252 113.923C307.358 113.923 308.296 114.434 309.098 115.095C309.886 115.744 310.61 116.597 311.287 117.393L311.309 117.419C312.011 118.245 312.664 119.01 313.35 119.576C314.03 120.137 314.671 120.441 315.339 120.441C315.903 120.441 316.519 120.048 317.234 119.163C317.933 118.299 318.597 117.13 319.297 115.894L319.316 115.861C319.995 114.663 320.709 113.402 321.485 112.442C322.252 111.493 323.216 110.664 324.427 110.664C326.275 110.664 327.719 110.983 329.099 111.287L329.116 111.291C330.5 111.596 331.821 111.886 333.514 111.886C335.01 111.886 336.208 110.949 337.634 109.795C337.66 109.775 337.686 109.754 337.712 109.733C339.038 108.66 340.587 107.405 342.602 107.405Z" stroke="#D0D0D1" stroke-width="1.34627"/>
<path d="M51.8047 107.405H51.1316V108.078V166.332V167.005H51.8047H342.6H343.273V166.332V130.51V129.836H342.6C340.638 129.836 339.114 130.755 337.763 131.568L337.709 131.601C336.304 132.447 335.073 133.172 333.513 133.172C333.268 133.172 332.993 133.072 332.671 132.813C332.345 132.55 332.006 132.151 331.654 131.625C330.948 130.568 330.278 129.144 329.579 127.652L329.563 127.619C328.882 126.167 328.172 124.653 327.403 123.503C327.014 122.921 326.587 122.398 326.112 122.015C325.632 121.628 325.068 121.358 324.425 121.358C322.791 121.358 321.514 120.87 320.124 120.334L320.093 120.321C318.722 119.792 317.238 119.219 315.338 119.219C315.114 119.219 314.847 119.119 314.52 118.83C314.191 118.539 313.85 118.095 313.495 117.513C312.785 116.346 312.112 114.773 311.414 113.135L311.399 113.101C310.717 111.503 310.01 109.844 309.244 108.585C308.857 107.95 308.434 107.379 307.961 106.96C307.485 106.539 306.913 106.233 306.251 106.233C304.465 106.233 303.072 106.278 301.688 106.323L301.685 106.323C300.301 106.367 298.926 106.412 297.163 106.412C296.522 106.412 295.89 106.083 295.203 105.446C294.514 104.807 293.859 103.942 293.157 103.013L293.135 102.984C292.459 102.088 291.737 101.132 290.952 100.404C290.157 99.6671 289.21 99.0791 288.076 99.0791C286.138 99.0791 284.628 99.8565 283.269 100.557L283.224 100.58C281.826 101.299 280.578 101.931 278.989 101.931C276.984 101.931 275.439 103.118 274.108 104.14L274.035 104.196C272.613 105.288 271.409 106.183 269.901 106.183C269.671 106.183 269.401 106.083 269.077 105.803C268.749 105.521 268.408 105.091 268.054 104.526C267.344 103.392 266.673 101.865 265.974 100.272L265.959 100.238C265.278 98.6845 264.57 97.0695 263.803 95.8438C263.415 95.2251 262.991 94.6683 262.517 94.2603C262.04 93.8494 261.471 93.5546 260.814 93.5546C260.569 93.5546 260.294 93.4553 259.972 93.1959C259.646 92.933 259.307 92.5335 258.955 92.0075C258.249 90.9513 257.579 89.5265 256.88 88.0352L256.864 88.0018C256.183 86.5498 255.474 85.0357 254.704 83.8856C254.315 83.3041 253.888 82.7806 253.413 82.3975C252.933 82.0108 252.369 81.7409 251.727 81.7409C250.961 81.7409 250.368 82.2535 249.928 82.8275C249.474 83.4209 249.064 84.2329 248.686 85.1488C247.931 86.9781 247.231 89.3996 246.545 91.7713L246.536 91.8002C245.84 94.2058 245.159 96.5587 244.435 98.3119C244.072 99.1909 243.716 99.8748 243.369 100.328C243.006 100.802 242.761 100.887 242.639 100.887C240.681 100.887 239.159 101.783 237.807 102.579L237.754 102.61C236.35 103.436 235.117 104.146 233.552 104.146C231.987 104.146 230.754 103.436 229.35 102.61L229.297 102.579C227.945 101.783 226.423 100.887 224.464 100.887C222.85 100.887 221.586 100.337 220.193 99.7224L220.156 99.7061C218.789 99.1031 217.294 98.443 215.377 98.443C214.191 98.443 213.231 99.1906 212.454 100.071C211.675 100.954 210.958 102.115 210.28 103.212L210.261 103.243C209.56 104.378 208.899 105.444 208.203 106.233C207.498 107.032 206.878 107.405 206.29 107.405C206.066 107.405 205.8 107.305 205.473 107.015C205.144 106.722 204.802 106.277 204.447 105.692C203.737 104.52 203.064 102.941 202.366 101.297L202.352 101.264C201.67 99.6593 200.962 97.9939 200.196 96.7303C199.81 96.093 199.386 95.5197 198.913 95.0995C198.438 94.6768 197.866 94.3693 197.202 94.3693C196.521 94.3693 195.873 94.0787 195.196 93.5551C194.511 93.0256 193.859 92.3096 193.157 91.5351L193.135 91.5105C192.459 90.7643 191.733 89.9636 190.945 89.3542C190.14 88.732 189.208 88.2588 188.115 88.2588C186.118 88.2588 184.576 89.3935 183.241 90.3758L183.173 90.4265C181.754 91.4699 180.545 92.3325 179.028 92.3325C177.133 92.3325 175.653 92.8768 174.281 93.3814L174.252 93.3923C172.863 93.9031 171.581 94.3693 169.94 94.3693C168.445 94.3693 167.246 93.4326 165.82 92.2786L165.743 92.2162C164.417 91.1428 162.867 89.8883 160.853 89.8883C160.114 89.8883 159.523 90.3441 159.073 90.882C158.614 91.4307 158.201 92.1801 157.821 93.0216C157.064 94.7 156.362 96.9196 155.677 99.0867L155.667 99.1169C154.971 101.32 154.291 103.466 153.57 105.064C153.209 105.865 152.856 106.484 152.513 106.893C152.162 107.314 151.914 107.405 151.766 107.405C149.871 107.405 148.391 107.949 147.019 108.454L146.99 108.465C145.601 108.976 144.319 109.442 142.678 109.442C142.01 109.442 141.369 109.138 140.688 108.577C140.002 108.012 139.35 107.246 138.648 106.42L138.625 106.394C137.949 105.598 137.224 104.745 136.437 104.096C135.635 103.435 134.697 102.924 133.591 102.924C131.652 102.924 130.141 103.709 128.782 104.415L128.737 104.439C127.338 105.165 126.092 105.802 124.504 105.802C123.384 105.802 122.442 106.348 121.643 107.046C120.857 107.732 120.133 108.633 119.457 109.476L119.435 109.503C118.733 110.377 118.079 111.189 117.392 111.789C116.708 112.385 116.071 112.701 115.416 112.701C114.888 112.701 114.275 112.279 113.545 111.263C112.841 110.283 112.173 108.961 111.474 107.572L111.457 107.538C110.777 106.188 110.065 104.775 109.293 103.701C108.542 102.655 107.575 101.702 106.329 101.702C105.623 101.702 105.039 102.089 104.576 102.577C104.111 103.069 103.694 103.739 103.311 104.488C102.551 105.978 101.847 107.945 101.163 109.856L101.151 109.888C100.454 111.837 99.7771 113.726 99.06 115.13C98.7012 115.833 98.3529 116.372 98.0166 116.727C97.6776 117.085 97.4231 117.182 97.2415 117.182C95.6765 117.182 94.4434 116.472 93.0392 115.645L92.9867 115.615C91.6348 114.819 90.1126 113.923 88.1541 113.923C87.0478 113.923 86.1099 114.434 85.3079 115.095C84.5206 115.744 83.796 116.597 83.1197 117.393L83.0975 117.419C82.3955 118.245 81.7427 119.01 81.0565 119.576C80.3765 120.137 79.7349 120.441 79.0668 120.441C78.503 120.441 77.8876 120.048 77.1722 119.163C76.4732 118.299 75.8092 117.13 75.1088 115.894L75.0903 115.861C74.4116 114.663 73.6969 113.402 72.9209 112.442C72.1542 111.493 71.1901 110.664 69.9794 110.664C68.1315 110.664 66.687 110.983 65.3074 111.287L65.2907 111.291C63.9061 111.596 62.5856 111.886 60.892 111.886C59.3967 111.886 58.198 110.949 56.7718 109.795C56.7461 109.775 56.7204 109.754 56.6946 109.733C55.3687 108.66 53.819 107.405 51.8047 107.405Z" fill="url(#paint0_linear_6516_2560)" fill-opacity="0.5" stroke="url(#paint1_linear_6516_2560)" stroke-width="1.34627"/>
</g>
<rect x="156.727" y="56.8398" width="63.6429" height="25.8478" rx="3.59007" fill="#003366"/>
<path d="M164.477 61.6278V64.385C164.477 64.726 164.382 64.9917 164.192 65.182C164.002 65.3722 163.738 65.4674 163.4 65.4674C163.034 65.4674 162.747 65.3615 162.539 65.1497C162.33 64.9378 162.226 64.6381 162.226 64.2504H162.835C162.835 64.4586 162.878 64.6201 162.964 64.735C163.054 64.8499 163.19 64.9073 163.373 64.9073C163.542 64.9073 163.666 64.8589 163.745 64.7619C163.824 64.665 163.863 64.5394 163.863 64.385V61.6278H164.477ZM167.956 62.4625V65.4297H167.336V64.7835C167.261 65.0025 167.13 65.173 166.943 65.2951C166.757 65.4135 166.539 65.4728 166.292 65.4728C165.947 65.4728 165.671 65.3615 165.462 65.1389C165.254 64.9163 165.15 64.5986 165.15 64.1857V62.4625H165.764V64.1211C165.764 64.3904 165.832 64.5986 165.969 64.7458C166.105 64.8894 166.292 64.9612 166.529 64.9612C166.773 64.9612 166.968 64.8822 167.116 64.7242C167.263 64.5663 167.336 64.3365 167.336 64.0349V62.4625H167.956ZM170.377 62.414C170.721 62.414 170.998 62.5253 171.206 62.7479C171.414 62.9705 171.518 63.2882 171.518 63.7011V65.4297H170.904V63.7657C170.904 63.5 170.836 63.2954 170.7 63.1518C170.563 63.0046 170.377 62.931 170.14 62.931C169.895 62.931 169.7 63.01 169.553 63.1679C169.405 63.3223 169.332 63.5503 169.332 63.8519V65.4297H168.718V62.4625H169.332V63.1141C169.411 62.8915 169.544 62.7192 169.73 62.5971C169.917 62.4751 170.132 62.414 170.377 62.414ZM173.396 64.9504C173.977 64.5519 174.442 64.1624 174.791 63.7818C175.142 63.3977 175.318 63.0423 175.318 62.7156C175.318 62.5217 175.27 62.3674 175.173 62.2525C175.08 62.1376 174.927 62.0802 174.715 62.0802C174.496 62.0802 174.331 62.152 174.22 62.2956C174.109 62.4356 174.046 62.6366 174.031 62.8987H173.434C173.459 62.4643 173.592 62.1322 173.832 61.9024C174.076 61.6727 174.387 61.5578 174.764 61.5578C175.133 61.5578 175.422 61.6565 175.631 61.854C175.843 62.0478 175.948 62.3171 175.948 62.6617C175.948 62.9382 175.862 63.2182 175.69 63.5018C175.521 63.7854 175.306 64.0475 175.044 64.288C174.782 64.525 174.511 64.7296 174.231 64.9019H176.035V65.4028H173.396V64.9504ZM176.866 64.9289C176.651 64.5842 176.543 64.1085 176.543 63.5018C176.543 62.8987 176.651 62.4266 176.866 62.0855C177.081 61.7445 177.44 61.574 177.943 61.574C178.446 61.574 178.805 61.7463 179.02 62.0909C179.235 62.432 179.343 62.9023 179.343 63.5018C179.343 64.105 179.235 64.5788 179.02 64.9235C178.805 65.2681 178.446 65.4405 177.943 65.4405C177.44 65.4405 177.081 65.2699 176.866 64.9289ZM178.568 64.5088C178.675 64.2755 178.729 63.9398 178.729 63.5018C178.729 63.071 178.675 62.7407 178.568 62.511C178.46 62.2776 178.252 62.1609 177.943 62.1609C177.631 62.1609 177.421 62.2758 177.313 62.5056C177.205 62.7353 177.151 63.0674 177.151 63.5018C177.151 63.9398 177.205 64.2755 177.313 64.5088C177.421 64.7422 177.631 64.8589 177.943 64.8589C178.252 64.8589 178.46 64.7422 178.568 64.5088ZM179.86 64.9504C180.442 64.5519 180.907 64.1624 181.255 63.7818C181.607 63.3977 181.783 63.0423 181.783 62.7156C181.783 62.5217 181.734 62.3674 181.637 62.2525C181.544 62.1376 181.392 62.0802 181.18 62.0802C180.961 62.0802 180.796 62.152 180.684 62.2956C180.573 62.4356 180.51 62.6366 180.496 62.8987H179.898C179.923 62.4643 180.056 62.1322 180.297 61.9024C180.541 61.6727 180.851 61.5578 181.228 61.5578C181.598 61.5578 181.887 61.6565 182.095 61.854C182.307 62.0478 182.413 62.3171 182.413 62.6617C182.413 62.9382 182.327 63.2182 182.154 63.5018C181.986 63.7854 181.77 64.0475 181.508 64.288C181.246 64.525 180.975 64.7296 180.695 64.9019H182.499V65.4028H179.86V64.9504ZM184.343 61.5093C184.594 61.5093 184.81 61.5542 184.989 61.644C185.169 61.7301 185.303 61.8504 185.393 62.0048C185.486 62.1591 185.533 62.3315 185.533 62.5217C185.533 62.7623 185.465 62.9633 185.328 63.1249C185.195 63.2828 185.007 63.378 184.763 63.4103V63.4372C185.025 63.5126 185.23 63.6257 185.377 63.7765C185.528 63.9237 185.603 64.1283 185.603 64.3904C185.603 64.7099 185.497 64.9702 185.285 65.1712C185.073 65.3687 184.77 65.4674 184.375 65.4674C183.969 65.4674 183.643 65.3651 183.395 65.1604C183.147 64.9522 183.006 64.6453 182.97 64.2396H183.578C183.6 64.455 183.677 64.6273 183.81 64.7566C183.943 64.8822 184.122 64.945 184.348 64.945C184.56 64.945 184.722 64.8894 184.833 64.7781C184.948 64.6668 185.005 64.5232 185.005 64.3473C185.005 64.1355 184.923 63.9739 184.757 63.8626C184.596 63.7513 184.361 63.6957 184.052 63.6957H183.907V63.1895H184.052C184.637 63.1967 184.93 62.9974 184.93 62.5917C184.93 62.4158 184.876 62.2776 184.768 62.1771C184.661 62.0766 184.513 62.0263 184.327 62.0263C184.14 62.0263 183.984 62.0837 183.858 62.1986C183.732 62.3099 183.657 62.4733 183.632 62.6887H183.029C183.054 62.3153 183.18 62.0263 183.406 61.8217C183.632 61.6134 183.944 61.5093 184.343 61.5093Z" fill="white"/>
<rect x="162.113" y="72.3652" width="3.59007" height="3.59007" rx="1.79503" fill="url(#paint2_linear_6516_2560)"/>
<path d="M169.278 71.8637V75.6602H168.788V71.8637H169.278ZM171.304 72.666C171.591 72.666 171.834 72.7378 172.031 72.8814C172.232 73.025 172.372 73.2171 172.451 73.4577V71.6752H172.941V75.6602H172.451V74.9062C172.372 75.1468 172.232 75.3388 172.031 75.4824C171.834 75.6261 171.591 75.6979 171.304 75.6979C171.042 75.6979 170.809 75.6368 170.604 75.5148C170.399 75.3927 170.238 75.2186 170.119 74.9924C170.005 74.7626 169.947 74.4934 169.947 74.1846C169.947 73.8759 170.005 73.6066 170.119 73.3769C170.238 73.1471 170.399 72.9712 170.604 72.8491C170.809 72.7271 171.042 72.666 171.304 72.666ZM171.444 73.1022C171.143 73.1022 170.9 73.1992 170.717 73.393C170.538 73.5833 170.448 73.8472 170.448 74.1846C170.448 74.5221 170.538 74.7878 170.717 74.9816C170.9 75.1719 171.143 75.267 171.444 75.267C171.638 75.267 171.81 75.2222 171.961 75.1324C172.115 75.0427 172.236 74.917 172.322 74.7555C172.408 74.5903 172.451 74.4 172.451 74.1846C172.451 73.9692 172.408 73.779 172.322 73.6138C172.236 73.4487 172.115 73.323 171.961 73.2369C171.81 73.1471 171.638 73.1022 171.444 73.1022ZM174.238 71.6752V75.6602H173.748V71.6752H174.238ZM177.772 74.0177C177.772 74.1218 177.765 74.2116 177.751 74.287H175.387C175.398 74.6244 175.493 74.8775 175.672 75.0463C175.855 75.215 176.078 75.2994 176.34 75.2994C176.577 75.2994 176.774 75.2401 176.932 75.1216C177.094 74.9996 177.193 74.838 177.228 74.637H177.751C177.715 74.8416 177.634 75.0247 177.508 75.1863C177.386 75.3478 177.227 75.4735 177.029 75.5632C176.832 75.653 176.609 75.6979 176.361 75.6979C176.078 75.6979 175.827 75.6368 175.608 75.5148C175.389 75.3927 175.216 75.2186 175.091 74.9924C174.969 74.7626 174.907 74.4934 174.907 74.1846C174.907 73.8759 174.969 73.6066 175.091 73.3769C175.216 73.1471 175.389 72.9712 175.608 72.8491C175.827 72.7271 176.078 72.666 176.361 72.666C176.649 72.666 176.898 72.7271 177.11 72.8491C177.325 72.9712 177.489 73.1345 177.6 73.3392C177.715 73.5438 177.772 73.77 177.772 74.0177ZM177.277 74.05C177.288 73.831 177.252 73.6479 177.169 73.5007C177.087 73.3535 176.974 73.244 176.83 73.1722C176.686 73.1004 176.53 73.0645 176.361 73.0645C176.092 73.0645 175.866 73.1489 175.683 73.3176C175.5 73.4828 175.401 73.7269 175.387 74.05H177.277ZM182.711 71.8637V75.6602H182.216V73.9046H180.288V75.6602H179.798V71.8637H180.288V73.5061H182.216V71.8637H182.711ZM184.862 72.666C185.146 72.666 185.399 72.7271 185.622 72.8491C185.848 72.9712 186.024 73.1471 186.149 73.3769C186.279 73.6066 186.343 73.8759 186.343 74.1846C186.343 74.4934 186.279 74.7626 186.149 74.9924C186.024 75.2186 185.848 75.3927 185.622 75.5148C185.399 75.6368 185.146 75.6979 184.862 75.6979C184.579 75.6979 184.324 75.6368 184.098 75.5148C183.875 75.3927 183.699 75.2186 183.57 74.9924C183.441 74.7626 183.376 74.4934 183.376 74.1846C183.376 73.8759 183.441 73.6066 183.57 73.3769C183.699 73.1471 183.875 72.9712 184.098 72.8491C184.324 72.7271 184.579 72.666 184.862 72.666ZM184.862 73.0968C184.687 73.0968 184.523 73.1363 184.372 73.2153C184.225 73.2943 184.105 73.4164 184.012 73.5815C183.922 73.7431 183.877 73.9441 183.877 74.1846C183.877 74.4216 183.922 74.6226 184.012 74.7878C184.105 74.9493 184.225 75.0696 184.372 75.1486C184.523 75.2276 184.687 75.267 184.862 75.267C185.038 75.267 185.2 75.2276 185.347 75.1486C185.498 75.0696 185.618 74.9493 185.708 74.7878C185.801 74.6226 185.848 74.4216 185.848 74.1846C185.848 73.9441 185.801 73.7431 185.708 73.5815C185.618 73.4164 185.498 73.2943 185.347 73.2153C185.2 73.1363 185.038 73.0968 184.862 73.0968ZM189.637 72.7037V75.6602H189.147V74.9655C189.071 75.206 188.937 75.3909 188.743 75.5201C188.553 75.6458 188.33 75.7086 188.075 75.7086C187.734 75.7086 187.458 75.5991 187.246 75.3801C187.034 75.1575 186.928 74.8398 186.928 74.427V72.7037H187.418V74.3785C187.418 74.6729 187.494 74.9009 187.644 75.0624C187.795 75.2204 188 75.2994 188.258 75.2994C188.527 75.2994 188.743 75.2132 188.904 75.0409C189.066 74.865 189.147 74.6101 189.147 74.2762V72.7037H189.637ZM190.939 73.3015C191.036 73.0968 191.178 72.9389 191.364 72.8276C191.551 72.7127 191.774 72.6553 192.032 72.6553V73.1884H191.881C191.605 73.1884 191.379 73.2602 191.203 73.4038C191.027 73.5438 190.939 73.7772 190.939 74.1039V75.6602H190.449V72.7037H190.939V73.3015ZM193.469 72.666C193.803 72.666 194.07 72.754 194.271 72.9299C194.476 73.1022 194.6 73.3356 194.643 73.63H194.174C194.153 73.4541 194.079 73.3105 193.953 73.1992C193.831 73.0843 193.666 73.0268 193.458 73.0268C193.282 73.0268 193.144 73.0699 193.043 73.1561C192.946 73.2387 192.898 73.3517 192.898 73.4953C192.898 73.603 192.93 73.691 192.995 73.7592C193.063 73.8238 193.146 73.8741 193.243 73.91C193.343 73.9423 193.479 73.9782 193.652 74.0177C193.871 74.068 194.047 74.12 194.18 74.1739C194.316 74.2241 194.431 74.3067 194.524 74.4216C194.621 74.5365 194.67 74.6908 194.67 74.8847C194.67 75.1252 194.578 75.3209 194.395 75.4717C194.215 75.6225 193.975 75.6979 193.673 75.6979C193.321 75.6979 193.034 75.6135 192.812 75.4448C192.589 75.276 192.458 75.0409 192.419 74.7393H192.892C192.91 74.9188 192.988 75.0642 193.124 75.1755C193.264 75.2868 193.447 75.3424 193.673 75.3424C193.842 75.3424 193.973 75.2994 194.066 75.2132C194.163 75.127 194.212 75.0139 194.212 74.8739C194.212 74.759 194.178 74.6675 194.11 74.5993C194.041 74.5311 193.957 74.479 193.856 74.4431C193.756 74.4072 193.618 74.3695 193.442 74.33C193.223 74.2798 193.047 74.2295 192.914 74.1793C192.785 74.129 192.673 74.05 192.58 73.9423C192.49 73.831 192.446 73.682 192.446 73.4953C192.446 73.2476 192.537 73.0484 192.72 72.8976C192.903 72.7432 193.153 72.666 193.469 72.666Z" fill="white"/>
<path d="M198.01 72.7576V73.3338H197.418V72.7576H198.01ZM198.01 75.084V75.6602H197.418V75.084H198.01Z" fill="white"/>
<path d="M201.445 74.8416V74.3247L203.335 71.826H203.992V74.3031H204.526V74.8416H203.992V75.6602H203.373V74.8416H201.445ZM203.416 72.5583L202.081 74.3031H203.416V72.5583ZM205.305 75.1593C205.09 74.8147 204.982 74.339 204.982 73.7323C204.982 73.1292 205.09 72.6571 205.305 72.316C205.521 71.975 205.88 71.8044 206.382 71.8044C206.885 71.8044 207.244 71.9767 207.459 72.3214C207.675 72.6625 207.782 73.1327 207.782 73.7323C207.782 74.3354 207.675 74.8093 207.459 75.154C207.244 75.4986 206.885 75.6709 206.382 75.6709C205.88 75.6709 205.521 75.5004 205.305 75.1593ZM207.007 74.7393C207.115 74.5059 207.168 74.1703 207.168 73.7323C207.168 73.3015 207.115 72.9712 207.007 72.7414C206.899 72.5081 206.691 72.3914 206.382 72.3914C206.07 72.3914 205.86 72.5063 205.752 72.736C205.644 72.9658 205.591 73.2979 205.591 73.7323C205.591 74.1703 205.644 74.5059 205.752 74.7393C205.86 74.9727 206.07 75.0893 206.382 75.0893C206.691 75.0893 206.899 74.9727 207.007 74.7393ZM208.687 75.1593C208.472 74.8147 208.364 74.339 208.364 73.7323C208.364 73.1292 208.472 72.6571 208.687 72.316C208.903 71.975 209.262 71.8044 209.764 71.8044C210.267 71.8044 210.626 71.9767 210.841 72.3214C211.057 72.6625 211.164 73.1327 211.164 73.7323C211.164 74.3354 211.057 74.8093 210.841 75.154C210.626 75.4986 210.267 75.6709 209.764 75.6709C209.262 75.6709 208.903 75.5004 208.687 75.1593ZM210.389 74.7393C210.497 74.5059 210.55 74.1703 210.55 73.7323C210.55 73.3015 210.497 72.9712 210.389 72.7414C210.281 72.5081 210.073 72.3914 209.764 72.3914C209.452 72.3914 209.242 72.5063 209.134 72.736C209.026 72.9658 208.973 73.2979 208.973 73.7323C208.973 74.1703 209.026 74.5059 209.134 74.7393C209.242 74.9727 209.452 75.0893 209.764 75.0893C210.073 75.0893 210.281 74.9727 210.389 74.7393ZM213.496 72.6445C213.841 72.6445 214.117 72.7558 214.326 72.9784C214.534 73.201 214.638 73.5187 214.638 73.9315V75.6602H214.024V73.9962C214.024 73.7305 213.956 73.5259 213.819 73.3823C213.683 73.2351 213.496 73.1615 213.259 73.1615C213.015 73.1615 212.82 73.2405 212.672 73.3984C212.525 73.5528 212.452 73.7808 212.452 74.0823V75.6602H211.838V71.6752H212.452V73.3446C212.531 73.122 212.663 72.9497 212.85 72.8276C213.037 72.7055 213.252 72.6445 213.496 72.6445Z" fill="white"/>
<circle cx="188.55" cy="88.7451" r="3.36569" fill="url(#paint3_linear_6516_2560)" stroke="white" stroke-width="0.897517"/>
<path d="M188.551 92.5586V166.335" stroke="url(#paint4_linear_6516_2560)" stroke-width="0.448758" stroke-dasharray="1.8 1.8"/>
</g>
</g>
<defs>
<filter id="filter0_d_6516_2560" x="0.970402" y="0.951171" width="370.911" height="211.268" filterUnits="userSpaceOnUse" color-interpolation-filters="sRGB">
<feFlood flood-opacity="0" result="BackgroundImageFix"/>
<feColorMatrix in="SourceAlpha" type="matrix" values="0 0 0 0 0 0 0 0 0 0 0 0 0 0 0 0 0 0 127 0" result="hardAlpha"/>
<feOffset dy="2.46905"/>
<feGaussianBlur stdDeviation="9.25894"/>
<feComposite in2="hardAlpha" operator="out"/>
<feColorMatrix type="matrix" values="0 0 0 0 0.101961 0 0 0 0 0.109804 0 0 0 0 0.129412 0 0 0 0.07 0"/>
<feBlend mode="normal" in2="BackgroundImageFix" result="effect1_dropShadow_6516_2560"/>
<feBlend mode="normal" in="SourceGraphic" in2="effect1_dropShadow_6516_2560" result="shape"/>
</filter>
<linearGradient id="paint0_linear_6516_2560" x1="197.202" y1="58.4962" x2="197.202" y2="162.735" gradientUnits="userSpaceOnUse">
<stop stop-color="#2ABA00"/>
<stop offset="0.998794" stop-color="white" stop-opacity="0"/>
</linearGradient>
<linearGradient id="paint1_linear_6516_2560" x1="58.7786" y1="118.44" x2="338.827" y2="118.44" gradientUnits="userSpaceOnUse">
<stop stop-color="#92D65E"/>
<stop offset="1" stop-color="#5DB14C"/>
</linearGradient>
<linearGradient id="paint2_linear_6516_2560" x1="162.199" y1="73.9065" x2="165.657" y2="73.9065" gradientUnits="userSpaceOnUse">
<stop stop-color="#92D65E"/>
<stop offset="1" stop-color="#5DB14C"/>
</linearGradient>
<linearGradient id="paint3_linear_6516_2560" x1="185.773" y1="88.3326" x2="191.391" y2="88.3326" gradientUnits="userSpaceOnUse">
<stop stop-color="#92D65E"/>
<stop offset="1" stop-color="#5DB14C"/>
</linearGradient>
<linearGradient id="paint4_linear_6516_2560" x1="188.575" y1="124.231" x2="189.538" y2="124.231" gradientUnits="userSpaceOnUse">
<stop stop-color="#92D65E"/>
<stop offset="1" stop-color="#5DB14C"/>
</linearGradient>
<clipPath id="clip0_6516_2560">
<rect width="5.11367" height="5.11367" fill="white" transform="translate(326.422 30.7695)"/>
</clipPath>
<clipPath id="clip1_6516_2560">
<rect width="312.336" height="131.037" fill="white" transform="translate(30.2578 49.6543)"/>
</clipPath>
<clipPath id="clip2_6516_2560">
<rect width="290.795" height="114.882" fill="white" transform="translate(51.8047 51.4512)"/>
</clipPath>
</defs>
</svg>
