<svg width="80" height="80" viewBox="0 0 80 80" fill="none" xmlns="http://www.w3.org/2000/svg">
<rect width="80" height="80" rx="6" fill="#F1FFEB"/>
<path opacity="0.3" d="M30.6654 38.834C28.19 38.834 25.816 39.8173 24.0657 41.5677C22.3154 43.318 21.332 45.692 21.332 48.1673C21.332 50.6427 22.3154 53.0166 24.0657 54.767C25.816 56.5173 28.19 57.5007 30.6654 57.5007C33.1407 57.5007 35.5147 56.5173 37.265 54.767C39.0154 53.0166 39.9987 50.6427 39.9987 48.1673C39.9987 45.692 39.0154 43.318 37.265 41.5677C35.5147 39.8173 33.1407 38.834 30.6654 38.834Z" fill="#53A42A"/>
<path fill-rule="evenodd" clip-rule="evenodd" d="M42.3333 48.1667C42.3333 54.609 37.109 59.8333 30.6667 59.8333C24.2243 59.8333 19 54.609 19 48.1667C19 41.7243 24.2243 36.5 30.6667 36.5C37.109 36.5 42.3333 41.7243 42.3333 48.1667ZM24.0657 41.5677C25.816 39.8173 28.19 38.834 30.6654 38.834C33.1407 38.834 35.5147 39.8173 37.265 41.5677C39.0154 43.318 39.9987 45.692 39.9987 48.1673C39.9987 50.6427 39.0154 53.0166 37.265 54.767C35.5147 56.5173 33.1407 57.5007 30.6654 57.5007C28.19 57.5007 25.816 56.5173 24.0657 54.767C22.3154 53.0166 21.332 50.6427 21.332 48.1673C21.332 45.692 22.3154 43.318 24.0657 41.5677Z" fill="#53A42A"/>
<path d="M30.6654 45.834C31.9534 45.834 32.9987 46.8793 32.9987 48.1673C32.9987 49.4553 31.9534 50.5007 30.6654 50.5007C29.3774 50.5007 28.332 49.4553 28.332 48.1673C28.332 46.8793 29.3774 45.834 30.6654 45.834Z" fill="#53A42A"/>
<path d="M27.4131 58.666H33.9184L33.4377 62.81C33.4027 63.1087 33.1507 63.3327 32.8497 63.3327H28.4817C28.1807 63.3327 27.9287 63.1087 27.8937 62.81L27.4131 58.666ZM48.4131 35.3327H54.9184L54.4377 39.4767C54.4027 39.7754 54.1507 39.9994 53.8497 39.9994H49.4817C49.1807 39.9994 48.9287 39.7754 48.8937 39.4767L48.4131 35.3327ZM54.9184 21.3327H48.4131L48.8937 17.1887C48.9287 16.89 49.1807 16.666 49.4817 16.666H53.8497C54.1507 16.666 54.4027 16.89 54.4377 17.1887L54.9184 21.3327ZM59.3541 27.649L56.1014 22.014L59.9304 20.3597C60.2057 20.2407 60.5277 20.3457 60.6771 20.607L62.8611 24.3893C63.0104 24.6507 62.9427 24.982 62.7024 25.1593L59.3541 27.649ZM43.9774 29.0164L47.2301 34.6514L43.4011 36.3057C43.1257 36.4247 42.8037 36.3197 42.6544 36.0583L40.4704 32.276C40.3211 32.0147 40.3887 31.6833 40.6291 31.506L43.9774 29.0164ZM47.2301 22.0163L43.9774 27.6514L40.6291 25.1617C40.3887 24.982 40.3187 24.6507 40.4704 24.3917L42.6544 20.6093C42.8037 20.348 43.1257 20.243 43.4011 20.362L47.2301 22.0163ZM56.1014 34.649L59.3541 29.014L62.7024 31.5013C62.9427 31.681 63.0127 32.0123 62.8611 32.2713L60.6771 36.0537C60.5277 36.315 60.2057 36.42 59.9304 36.301L56.1014 34.649ZM33.9184 37.666H27.4131L27.8937 33.522C27.9287 33.2234 28.1807 32.9993 28.4817 32.9993H32.8497C33.1507 32.9993 33.4027 33.2234 33.4377 33.522L33.9184 37.666ZM41.3851 45.7324L38.1324 40.0997L41.9614 38.4453C42.2367 38.3263 42.5587 38.4313 42.7081 38.6927L44.8921 42.475C45.0414 42.7364 44.9737 43.0677 44.7334 43.245L41.3851 45.7324ZM19.9464 50.5997L23.1991 56.2324L19.3701 57.8867C19.0947 58.0057 18.7727 57.9007 18.6234 57.6394L16.4394 53.857C16.2901 53.5957 16.3577 53.2644 16.5981 53.087L19.9464 50.5997ZM23.1991 40.0997L19.9464 45.7347L16.5981 43.2474C16.3577 43.0677 16.2877 42.7364 16.4394 42.4774L18.6234 38.695C18.7727 38.4337 19.0947 38.3287 19.3701 38.4477L23.1991 40.0997ZM38.1324 56.2324L41.3851 50.5974L44.7334 53.0847C44.9737 53.2644 45.0437 53.5957 44.8921 53.8547L42.7081 57.637C42.5587 57.8984 42.2367 58.0034 41.9614 57.8844L38.1324 56.2324Z" fill="#53A42A"/>
<path fill-rule="evenodd" clip-rule="evenodd" d="M60.9987 28.3333C60.9987 33.4877 56.8197 37.6667 51.6654 37.6667C46.511 37.6667 42.332 33.4877 42.332 28.3333C42.332 23.179 46.511 19 51.6654 19C56.8197 19 60.9987 23.179 60.9987 28.3333ZM58 28.5C58 32.0896 55.0896 35 51.5 35C47.9104 35 45 32.0896 45 28.5C45 24.9104 47.9104 22 51.5 22C55.0896 22 58 24.9104 58 28.5Z" fill="#53A42A"/>
</svg>
