<svg width="21" height="21" viewBox="0 0 21 21" fill="none" xmlns="http://www.w3.org/2000/svg">
<g clip-path="url(#clip0_6536_3094)">
<path d="M3.27693 7.05273C2.93233 7.05273 2.63995 7.1729 2.39961 7.41325C2.15927 7.65359 2.03906 7.94199 2.03906 8.2786V13.4468C2.03906 13.7919 2.15923 14.084 2.39961 14.3244C2.63995 14.5647 2.93233 14.6849 3.27693 14.6849C3.62128 14.6849 3.91188 14.5647 4.1485 14.3244C4.38465 14.084 4.50304 13.7919 4.50304 13.4468V8.2786C4.50304 7.94195 4.38287 7.65359 4.1425 7.41325C3.90212 7.1729 3.61354 7.05273 3.27693 7.05273Z" fill="white"/>
<path d="M13.2305 2.413L14.0839 0.838745C14.1399 0.734522 14.12 0.654602 14.0239 0.598404C13.9197 0.549945 13.8395 0.5745 13.7836 0.670333L12.9183 2.25717C12.1568 1.92053 11.3515 1.7519 10.5023 1.7519C9.6529 1.7519 8.8475 1.92057 8.08638 2.25717L7.22103 0.670333C7.16479 0.5745 7.08469 0.550162 6.98069 0.598404C6.88442 0.654855 6.86449 0.734522 6.92073 0.838745L7.77414 2.413C6.90879 2.8543 6.21959 3.4689 5.7068 4.25812C5.19401 5.04778 4.9375 5.91071 4.9375 6.84842H16.055C16.055 5.91093 15.7985 5.04796 15.2857 4.25812C14.7729 3.4689 14.0877 2.8543 13.2305 2.413ZM8.29663 4.70279C8.20434 4.79529 8.09412 4.84133 7.96599 4.84133C7.83761 4.84133 7.72963 4.79529 7.64153 4.70279C7.55344 4.61071 7.50939 4.50092 7.50939 4.37236C7.50939 4.24424 7.55344 4.13423 7.64153 4.04194C7.72963 3.94987 7.83786 3.90383 7.96599 3.90383C8.09412 3.90383 8.20434 3.94987 8.29663 4.04194C8.3887 4.13444 8.43495 4.24424 8.43495 4.37236C8.4347 4.50071 8.38848 4.61071 8.29663 4.70279ZM13.3626 4.70279C13.2743 4.79529 13.1661 4.84133 13.0382 4.84133C12.9098 4.84133 12.7996 4.79529 12.7075 4.70279C12.6152 4.61071 12.5692 4.50092 12.5692 4.37236C12.5692 4.24424 12.6152 4.13423 12.7075 4.04194C12.7996 3.94987 12.9098 3.90383 13.0382 3.90383C13.1663 3.90383 13.2743 3.94987 13.3626 4.04194C13.4508 4.13444 13.4947 4.24424 13.4947 4.37236C13.4947 4.50071 13.4507 4.61071 13.3626 4.70279Z" fill="white"/>
<path d="M4.98438 15.2861C4.98438 15.6551 5.1125 15.9674 5.36879 16.2237C5.6253 16.4799 5.9376 16.6081 6.30629 16.6081H7.19576L7.20794 19.3367C7.20794 19.6813 7.32811 19.9739 7.56845 20.2143C7.8088 20.4546 8.09741 20.5748 8.4338 20.5748C8.77819 20.5748 9.07075 20.4546 9.31112 20.2143C9.5515 19.9739 9.67167 19.6813 9.67167 19.3367V16.6083H11.3303V19.3367C11.3303 19.6813 11.4504 19.9739 11.6908 20.2143C11.9311 20.4546 12.2235 20.5748 12.5681 20.5748C12.9125 20.5748 13.205 20.4546 13.4454 20.2143C13.6858 19.9739 13.8059 19.6813 13.8059 19.3367V16.6083H14.7074C15.0679 16.6083 15.3762 16.4802 15.633 16.2239C15.8892 15.9676 16.0174 15.6553 16.0174 15.2864V7.28125H4.98438V15.2861Z" fill="white"/>
<path d="M17.7259 7.05273C17.3893 7.05273 17.1009 7.17113 16.8605 7.40728C16.6202 7.64386 16.5 7.93447 16.5 8.2786V13.4468C16.5 13.7919 16.6201 14.084 16.8605 14.3244C17.1009 14.5647 17.3895 14.6849 17.7259 14.6849C18.0703 14.6849 18.3628 14.5647 18.6032 14.3244C18.8436 14.084 18.9637 13.7919 18.9637 13.4468V8.2786C18.9637 7.93443 18.8436 7.64386 18.6032 7.40728C18.3628 7.17113 18.0703 7.05273 17.7259 7.05273Z" fill="white"/>
</g>
<defs>
<clipPath id="clip0_6536_3094">
<rect width="20" height="20" fill="white" transform="translate(0.5 0.574219)"/>
</clipPath>
</defs>
</svg>
