<svg width="21" height="21" viewBox="0 0 21 21" fill="none" xmlns="http://www.w3.org/2000/svg">
<g clip-path="url(#clip0_6536_3103)">
<path d="M14.3471 0.574219C14.3936 0.574219 14.4401 0.574219 14.4893 0.574219C14.6035 1.98466 14.0651 3.03854 13.4109 3.80172C12.7689 4.55964 11.8898 5.29472 10.4679 5.18319C10.3731 3.79294 10.9123 2.81723 11.5657 2.0558C12.1717 1.34619 13.2826 0.714736 14.3471 0.574219Z" fill="white"/>
<path d="M18.6529 15.2542C18.6529 15.2683 18.6529 15.2806 18.6529 15.2937C18.2533 16.5039 17.6834 17.5411 16.9878 18.5037C16.3528 19.3775 15.5747 20.5535 14.1854 20.5535C12.9848 20.5535 12.1874 19.7815 10.957 19.7604C9.65543 19.7393 8.93967 20.4059 7.74967 20.5737C7.61354 20.5737 7.47742 20.5737 7.34392 20.5737C6.47008 20.4472 5.76486 19.7552 5.25109 19.1316C3.73614 17.2891 2.56546 14.9091 2.34766 11.8634C2.34766 11.5648 2.34766 11.267 2.34766 10.9684C2.43987 8.78866 3.49902 7.01639 4.90683 6.15748C5.64981 5.70079 6.6712 5.31174 7.80851 5.48563C8.29593 5.56116 8.79389 5.72802 9.23037 5.89313C9.64402 6.05209 10.1613 6.334 10.6513 6.31907C10.9833 6.30941 11.3135 6.1364 11.6481 6.01432C12.6283 5.6604 13.589 5.25465 14.8555 5.44523C16.3774 5.67533 17.4577 6.35156 18.1251 7.39491C16.8376 8.2143 15.8197 9.44909 15.9936 11.5577C16.1482 13.4732 17.2618 14.5938 18.6529 15.2542Z" fill="white"/>
</g>
<defs>
<clipPath id="clip0_6536_3103">
<rect width="20" height="20" fill="white" transform="translate(0.5 0.574219)"/>
</clipPath>
</defs>
</svg>
