<svg width="18" height="18" viewBox="0 0 18 18" fill="none" xmlns="http://www.w3.org/2000/svg">
<path d="M6.1875 1.875C3.80963 1.875 1.875 3.80963 1.875 6.1875V11.8125C1.875 14.1904 3.80963 16.125 6.1875 16.125H11.8125C14.1904 16.125 16.125 14.1904 16.125 11.8125V6.1875C16.125 3.80963 14.1904 1.875 11.8125 1.875H6.1875ZM12.75 4.5C13.1644 4.5 13.5 4.83563 13.5 5.25C13.5 5.664 13.1644 6 12.75 6C12.3356 6 12 5.664 12 5.25C12 4.83563 12.3356 4.5 12.75 4.5ZM9 5.25C11.0678 5.25 12.75 6.93225 12.75 9C12.75 11.0678 11.0678 12.75 9 12.75C6.93225 12.75 5.25 11.0678 5.25 9C5.25 6.93225 6.93225 5.25 9 5.25ZM9 6.375C8.65528 6.375 8.31394 6.4429 7.99546 6.57482C7.67698 6.70674 7.3876 6.90009 7.14385 7.14385C6.90009 7.3876 6.70674 7.67698 6.57482 7.99546C6.4429 8.31394 6.375 8.65528 6.375 9C6.375 9.34472 6.4429 9.68606 6.57482 10.0045C6.70674 10.323 6.90009 10.6124 7.14385 10.8562C7.3876 11.0999 7.67698 11.2933 7.99546 11.4252C8.31394 11.5571 8.65528 11.625 9 11.625C9.34472 11.625 9.68606 11.5571 10.0045 11.4252C10.323 11.2933 10.6124 11.0999 10.8562 10.8562C11.0999 10.6124 11.2933 10.323 11.4252 10.0045C11.5571 9.68606 11.625 9.34472 11.625 9C11.625 8.65528 11.5571 8.31394 11.4252 7.99546C11.2933 7.67698 11.0999 7.3876 10.8562 7.14385C10.6124 6.90009 10.323 6.70674 10.0045 6.57482C9.68606 6.4429 9.34472 6.375 9 6.375Z" fill="#003366"/>
</svg>
