<svg width="120" height="121" viewBox="0 0 120 121" fill="none" xmlns="http://www.w3.org/2000/svg">
<rect y="0.953125" width="120" height="120" rx="6" fill="#F1FFEB"/>
<g clip-path="url(#clip0_6554_7071)">
<path d="M57.255 44.9538C57.1811 44.5307 57.2206 44.0956 57.3693 43.6927C57.518 43.2898 57.7708 42.9334 58.1019 42.6598C58.5802 42.2024 59.2187 41.9509 59.8804 41.9592C60.5422 41.9675 61.1742 42.2349 61.641 42.704C61.9758 43.0084 62.2229 43.3971 62.3563 43.8295C62.4897 44.2619 62.5045 44.7223 62.3993 45.1624C61.9253 47.1847 60.8004 48.9543 59.8272 50.7744C58.8666 48.9037 57.7037 47.052 57.255 44.9538ZM59.309 43.1085C58.045 43.494 57.8491 45.7249 59.309 46.0408C60.396 46.4896 61.8369 45.4089 61.4071 44.2587C61.2175 43.2159 60.2443 42.9062 59.309 43.1085Z" fill="url(#paint0_linear_6554_7071)"/>
<path d="M56.157 47.2988L57.244 48.765C47.1324 49.5613 37.2545 53.5301 29.9299 60.6083L28.2109 60.0774C35.3207 53.0182 46.1654 48.1962 56.157 47.2988Z" fill="#1D3760"/>
<path d="M62.25 48.8409L63.3623 47.2988C73.6509 48.3416 83.6804 52.6517 91.0176 60.0205L89.4503 60.6525C82.0241 53.6855 72.4107 49.5109 62.25 48.8409Z" fill="#1D3760"/>
<path d="M41.43 62.3145H44.4699C44.4699 66.89 44.4067 71.4655 44.4699 76.0347L41.3984 76.0789C41.4553 71.4971 41.4111 66.9089 41.43 62.3145Z" fill="#1D3760"/>
<path d="M15.0316 62.8965H24.6629V65.4244H18.3432C18.3432 66.404 18.3432 67.3898 18.3432 68.3694H24.6629V70.9479H18.3432C18.3432 72.6542 18.3432 74.3669 18.3432 76.0732H15C15 71.6557 15 67.2824 15.0316 62.8965Z" fill="#1D3760"/>
<path d="M52.6668 62.3203H55.6814L55.5297 75.535C54.4806 76.3818 52.4204 76.2302 51.346 76.167C49.1088 75.9142 46.7642 75.9015 46.208 73.5569C45.9046 72.0362 45.9046 70.4705 46.208 68.9498C46.3958 68.1852 46.8212 67.4998 47.4231 66.9922C48.0249 66.4847 48.7722 66.181 49.5575 66.1248C50.6139 66.1154 51.6697 66.1788 52.7174 66.3144L52.6668 62.3203ZM49.3553 69.6197V72.4762C49.3558 72.7652 49.4611 73.0443 49.6517 73.2616C49.8423 73.4789 50.1052 73.6198 50.3917 73.658C50.6445 73.658 50.9036 73.7212 51.1627 73.7402C51.3557 73.7574 51.5502 73.7359 51.7348 73.6769C51.9194 73.6179 52.0903 73.5226 52.2375 73.3966C52.3847 73.2706 52.5052 73.1165 52.592 72.9432C52.6787 72.7699 52.73 72.5811 52.7427 72.3877C52.8723 71.3143 52.8596 70.2284 52.7047 69.1583C52.4456 68.4631 51.4408 68.3241 50.5813 68.3367C50.2494 68.3467 49.9347 68.4868 49.7053 68.7269C49.4759 68.9669 49.3501 69.2876 49.3553 69.6197Z" fill="#1D3760"/>
<path d="M57.6406 62.9082H60.7563C60.7563 66.4283 60.7563 69.9484 60.7563 73.4749C62.8481 73.4749 67.0761 73.4749 67.0761 73.4749V76.0786C67.0761 76.0786 60.6172 76.0786 57.6596 76.0786C57.6343 71.6927 57.6533 67.3005 57.6406 62.9082Z" fill="#1D3760"/>
<path d="M26.208 66.3516H29.2098C29.2098 69.5936 29.2098 72.8357 29.2098 76.0777H26.1953C26.2206 72.8293 26.2016 69.5873 26.208 66.3516Z" fill="#1D3760"/>
<path d="M30.8027 69.0367C31.264 66.0285 35.4793 65.7062 37.8429 66.4393C39.8842 66.9765 40.1812 69.201 39.802 71.0717C39.7474 71.3397 39.61 71.5839 39.4094 71.7698C39.2087 71.9557 38.9548 72.074 38.6834 72.1081C36.9329 72.3357 35.1507 72.2093 33.4001 72.342C33.2611 73.9978 37.0845 73.745 39.3723 73.7955L39.3407 76.077C39.3407 76.077 35.334 76.3234 33.6529 75.9253C33.0403 75.7939 32.4746 75.4998 32.0152 75.0738C31.5558 74.6478 31.2199 74.1057 31.0428 73.5048C30.7176 72.0388 30.6364 70.5292 30.8027 69.0367ZM33.457 70.1364H37.1793L37.1224 69.0367C37.1105 68.8211 37.0228 68.6167 36.8748 68.4594C36.7268 68.3022 36.528 68.2022 36.3135 68.1772C35.6404 68.1077 34.9613 68.1205 34.2912 68.2152C34.0596 68.254 33.8493 68.3738 33.6977 68.5532C33.5461 68.7326 33.463 68.9599 33.4633 69.1947L33.457 70.1364Z" fill="#1D3760"/>
<path d="M70.0606 66.484C72.0041 65.8498 74.1084 65.9168 76.0076 66.6736C77.7013 67.59 77.6886 69.7829 77.7076 71.4577C77.7076 72.8164 77.6191 74.4216 76.5384 75.4644C76.0926 75.8701 75.54 76.1398 74.9458 76.2417C73.2397 76.575 71.478 76.4861 69.8142 75.9826C67.6275 74.9904 67.8234 72.1908 67.9562 70.1684C68.032 68.8034 68.5755 67.0465 70.0606 66.484ZM70.9897 70.4465C70.9212 71.1164 70.9446 71.7926 71.0592 72.4562C71.1429 72.9298 71.407 73.3524 71.796 73.6353C72.1849 73.9181 72.6684 74.0392 73.1447 73.9729C73.9726 73.8592 74.8447 73.341 74.87 72.4941C74.9218 71.4688 74.8816 70.4409 74.7499 69.4227C74.6678 68.9108 74.0168 68.5126 73.486 68.4242L73.309 68.3926C73.0199 68.3657 72.7283 68.3983 72.4524 68.4886C72.1764 68.5788 71.9218 68.7247 71.7045 68.9172C71.4871 69.1097 71.3115 69.3447 71.1886 69.6077C71.0656 69.8708 70.9979 70.1563 70.9897 70.4465Z" fill="#1D3760"/>
<path d="M79.5962 73.7906C78.6988 71.2626 78.6103 66.9842 81.9282 66.3016C84.2855 65.7455 88.1848 65.9161 88.5829 68.9812C88.6777 71.427 89.1454 74.0939 88.7346 76.5649C88.6523 77.0954 88.4345 77.5957 88.1024 78.0175C87.7703 78.4393 87.335 78.7683 86.8387 78.9728C84.1907 80.0282 80.0702 79.5605 80.0702 79.5605V76.9884C81.9661 76.9884 84.7089 77.3928 86.1941 75.8129V75.5411C84.0074 75.4843 80.7274 76.3058 79.5962 73.7906ZM82.1873 69.8281C82.1115 70.3534 82.0987 70.8859 82.1494 71.4143C82.1812 71.8666 82.3739 72.2925 82.6928 72.6148C83.0116 72.9372 83.4354 73.1346 83.8873 73.1712H84.058C84.4378 73.1986 84.8137 73.0796 85.1086 72.8388C85.4036 72.5979 85.5952 72.2533 85.6442 71.8757C85.7491 71.2066 85.7661 70.5268 85.6948 69.8533C85.6429 69.4924 85.4714 69.1593 85.208 68.9073C84.9445 68.6553 84.6041 68.4988 84.2412 68.463C84.0581 68.4535 83.8746 68.4535 83.6914 68.463C83.3206 68.4786 82.9671 68.6238 82.6922 68.8732C82.4174 69.1226 82.2387 69.4605 82.1873 69.8281Z" fill="#1D3760"/>
<path d="M90.5219 66.3281L93.5112 66.3471L93.5175 76.0669H90.5156L90.5219 66.3281Z" fill="#1D3760"/>
<path d="M94.8971 66.3281H98.1707L99.7886 68.9824L101.609 66.3281H104.604L101.406 70.9732L105.002 76.0669L101.64 76.0606L99.6938 73.0334L97.7789 76.0669H94.5938L98.1012 71.03L94.8971 66.3281Z" fill="#1D3760"/>
<circle cx="27.6381" cy="62.808" r="1.89593" fill="#61B93F"/>
<circle cx="91.4702" cy="62.808" r="1.89593" fill="#61B93F"/>
</g>
<defs>
<linearGradient id="paint0_linear_6554_7071" x1="57.3447" y1="45.7434" x2="62.4005" y2="45.7434" gradientUnits="userSpaceOnUse">
<stop stop-color="#92D65E"/>
<stop offset="1" stop-color="#5DB14C"/>
</linearGradient>
<clipPath id="clip0_6554_7071">
<rect width="90" height="37.6975" fill="white" transform="translate(15 41.9531)"/>
</clipPath>
</defs>
</svg>
