<svg width="81" height="80" viewBox="0 0 81 80" fill="none" xmlns="http://www.w3.org/2000/svg">
<rect x="0.5" width="80" height="80" rx="6" fill="#E7FFDB"/>
<path opacity="0.2" d="M40.4987 56.3333C43.2987 58.4333 44.4654 58.6667 45.8654 58.6667C53.332 58.4333 59.3987 52.1333 59.1654 40.9333C59.1654 34.8667 56.5987 26 50.532 19C50.532 19 30.932 22.9667 23.6987 33.9333C22.0654 36.7333 21.832 39.0667 21.832 41.4C21.832 48.6333 28.832 54 33.4987 54L47.4987 33C47.4987 51.6667 40.4987 56.3333 40.4987 56.3333Z" fill="#53A42A"/>
<path fill-rule="evenodd" clip-rule="evenodd" d="M38.6333 58.2003C41.2 60.7669 44 61.0003 45.8667 61.0003C53.8 60.7669 61.7333 54.2336 61.5 40.7003C61.2667 34.4003 58.9333 25.0669 52.1667 17.3669L51.2333 16.4336L49.8333 16.6669C49.783 16.6837 49.6338 16.721 49.3973 16.7801C46.3443 17.5428 28.7464 21.939 21.6 32.7669C19.7333 36.0336 19.5 39.0669 19.5 41.4003C19.5 50.2669 27.9 56.3336 33.5 56.3336V53.9981L33.4987 54C28.832 54 21.832 48.6333 21.832 41.4C21.832 39.0667 22.0654 36.7333 23.6987 33.9333C30.932 22.9667 50.532 19 50.532 19C56.5987 26 59.1654 34.8667 59.1654 40.9333C59.3987 52.1333 53.332 58.4333 45.8654 58.6667C44.4654 58.6667 43.2987 58.4333 40.4987 56.3333C40.4987 56.3333 41.1317 55.9113 42.017 54.8135C41.9778 54.7767 41.9388 54.739 41.9 54.7003L38.6333 58.2003Z" fill="#53A42A"/>
<path d="M22.7661 63.1L21.1328 58.6667C31.6328 54.4667 42.8328 43.7333 42.8328 33H47.4995C47.4995 46.0667 34.6661 58.4333 22.7661 63.1Z" fill="#53A42A"/>
</svg>
