<svg width="284" height="384" viewBox="0 0 284 384" fill="none" xmlns="http://www.w3.org/2000/svg">
<g filter="url(#filter0_d_6522_3640)">
<rect x="150" y="150" width="84" height="84" rx="16" fill="white" shape-rendering="crispEdges"/>
<path d="M182.79 171.416C180.304 171.416 178.118 172.715 176.866 174.666H202.29C206.771 174.666 210.415 178.31 210.415 182.791V200.632C212.366 199.379 213.665 197.194 213.665 194.708V182.791C213.665 176.519 208.563 171.416 202.29 171.416H182.79ZM177.374 176.833C173.491 176.833 170.332 179.992 170.332 183.874V199.001C170.332 202.883 173.491 206.042 177.374 206.042H177.915V210.956C177.915 211.979 178.482 212.905 179.394 213.37C179.785 213.569 180.205 213.666 180.626 213.666C181.186 213.666 181.742 213.49 182.217 213.146L191.986 206.042H201.207C205.09 206.042 208.249 202.883 208.249 199.001V183.874C208.249 179.992 205.09 176.833 201.207 176.833H177.374ZM182.79 189.792C183.687 189.792 184.415 190.52 184.415 191.417C184.415 192.314 183.687 193.042 182.79 193.042C181.893 193.042 181.165 192.314 181.165 191.417C181.165 190.52 181.893 189.792 182.79 189.792ZM189.29 189.792C190.187 189.792 190.915 190.52 190.915 191.417C190.915 192.314 190.187 193.042 189.29 193.042C188.393 193.042 187.665 192.314 187.665 191.417C187.665 190.52 188.393 189.792 189.29 189.792ZM195.79 189.792C196.687 189.792 197.415 190.52 197.415 191.417C197.415 192.314 196.687 193.042 195.79 193.042C194.893 193.042 194.165 192.314 194.165 191.417C194.165 190.52 194.893 189.792 195.79 189.792Z" fill="#53A42A"/>
</g>
<defs>
<filter id="filter0_d_6522_3640" x="0" y="0" width="384" height="384" filterUnits="userSpaceOnUse" color-interpolation-filters="sRGB">
<feFlood flood-opacity="0" result="BackgroundImageFix"/>
<feColorMatrix in="SourceAlpha" type="matrix" values="0 0 0 0 0 0 0 0 0 0 0 0 0 0 0 0 0 0 127 0" result="hardAlpha"/>
<feOffset/>
<feGaussianBlur stdDeviation="75"/>
<feComposite in2="hardAlpha" operator="out"/>
<feColorMatrix type="matrix" values="0 0 0 0 0.137083 0 0 0 0 0.159662 0 0 0 0 0.195833 0 0 0 0.36 0"/>
<feBlend mode="normal" in2="BackgroundImageFix" result="effect1_dropShadow_6522_3640"/>
<feBlend mode="normal" in="SourceGraphic" in2="effect1_dropShadow_6522_3640" result="shape"/>
</filter>
</defs>
</svg>
