<svg width="18" height="18" viewBox="0 0 18 18" fill="none" xmlns="http://www.w3.org/2000/svg">
<path d="M5.07359 1.12035C5.21968 1.12461 5.35837 1.18555 5.46031 1.29027L12.7728 8.60277C12.8783 8.70827 12.9375 8.85132 12.9375 9.00048C12.9375 9.14964 12.8783 9.29269 12.7728 9.39818L5.46031 16.7107C5.40848 16.7647 5.3464 16.8078 5.2777 16.8375C5.209 16.8671 5.13507 16.8828 5.06024 16.8836C4.9854 16.8844 4.91117 16.8702 4.84188 16.8419C4.7726 16.8136 4.70965 16.7718 4.65673 16.7189C4.60381 16.6659 4.56199 16.603 4.5337 16.5337C4.50541 16.4644 4.49123 16.3902 4.49199 16.3153C4.49275 16.2405 4.50844 16.1666 4.53813 16.0979C4.56782 16.0292 4.61092 15.9671 4.6649 15.9153L11.5797 9.00048L4.6649 2.08568C4.58375 2.00665 4.52835 1.90496 4.50595 1.79392C4.48355 1.68288 4.49519 1.56766 4.53936 1.46335C4.58352 1.35904 4.65814 1.27049 4.75347 1.20929C4.84879 1.14809 4.96036 1.11709 5.07359 1.12035Z" fill="white" stroke="white" stroke-width="1.5"/>
</svg>
