<svg width="214" height="170" viewBox="0 0 214 170" fill="none" xmlns="http://www.w3.org/2000/svg">
<g filter="url(#filter0_d_6396_12561)">
<rect x="18" y="15" width="178" height="135.38" rx="9.20232" fill="white"/>
</g>
<path d="M18 24.2023C18 19.12 22.12 15 27.2023 15H186.798C191.88 15 196 19.12 196 24.2023V40.0704H18V24.2023Z" fill="#003366"/>
<path d="M30.0577 28.9082H29.0911L26.9248 25.6177V28.9082H25.9583V24.0684H26.9248L29.0911 27.3864V24.0684H30.0577V28.9082ZM32.6872 25.0624C33.0574 25.0624 33.3887 25.1401 33.6812 25.2955C33.9783 25.4509 34.2114 25.6771 34.3805 25.9742C34.5496 26.2667 34.6341 26.6117 34.6341 27.0093C34.6341 27.4069 34.5496 27.752 34.3805 28.0444C34.2114 28.3369 33.9783 28.5632 33.6812 28.7231C33.3887 28.8785 33.0574 28.9562 32.6872 28.9562C32.317 28.9562 31.9834 28.8785 31.6864 28.7231C31.3939 28.5632 31.1631 28.3369 30.994 28.0444C30.8249 27.752 30.7404 27.4069 30.7404 27.0093C30.7404 26.6117 30.8249 26.2667 30.994 25.9742C31.1631 25.6771 31.3939 25.4509 31.6864 25.2955C31.9834 25.1401 32.317 25.0624 32.6872 25.0624ZM32.6872 25.8988C32.4176 25.8988 32.1891 25.9947 32.0017 26.1867C31.8143 26.3741 31.7206 26.6483 31.7206 27.0093C31.7206 27.3704 31.8143 27.6468 32.0017 27.8388C32.1891 28.0262 32.4176 28.1199 32.6872 28.1199C32.9569 28.1199 33.1854 28.0262 33.3727 27.8388C33.5601 27.6468 33.6538 27.3704 33.6538 27.0093C33.6538 26.6483 33.5601 26.3741 33.3727 26.1867C33.1854 25.9947 32.9569 25.8988 32.6872 25.8988ZM37.3463 28.0787V28.9082H36.8391C36.414 28.9082 36.0873 28.8054 35.8588 28.5997C35.6348 28.3941 35.5229 28.0513 35.5229 27.5714V25.9262H34.995V25.1104H35.5229V24.1713H36.4894V25.1104H37.3395V25.9262H36.4894V27.5852C36.4894 27.768 36.526 27.8959 36.5991 27.969C36.6723 28.0422 36.7956 28.0787 36.9693 28.0787H37.3463ZM37.9322 24.0204C37.9322 23.8651 37.987 23.7394 38.0967 23.6434C38.2064 23.5429 38.3504 23.4926 38.5286 23.4926C38.7068 23.4926 38.8508 23.5429 38.9605 23.6434C39.0702 23.7394 39.125 23.8651 39.125 24.0204C39.125 24.1713 39.0702 24.2969 38.9605 24.3975C38.8508 24.4935 38.7068 24.5414 38.5286 24.5414C38.3504 24.5414 38.2064 24.4935 38.0967 24.3975C37.987 24.2969 37.9322 24.1713 37.9322 24.0204ZM39.0085 25.1104V28.9082H38.0419V25.1104H39.0085ZM41.7612 24.4523C41.4779 24.434 41.2791 24.4752 41.1648 24.5757C41.0505 24.6763 40.9934 24.8522 40.9934 25.1036V25.1104H41.7612V25.9262H40.9934V28.9082H40.0268V25.9262H39.5401V25.1104H40.0268V25.0213C40.0268 24.5689 40.1548 24.2215 40.4107 23.9793C40.6712 23.7325 41.0551 23.6091 41.5624 23.6091C41.6492 23.6091 41.7155 23.6114 41.7612 23.616V24.4523ZM42.2301 24.0204C42.2301 23.8651 42.2849 23.7394 42.3946 23.6434C42.5043 23.5429 42.6482 23.4926 42.8265 23.4926C43.0047 23.4926 43.1487 23.5429 43.2584 23.6434C43.368 23.7394 43.4229 23.8651 43.4229 24.0204C43.4229 24.1713 43.368 24.2969 43.2584 24.3975C43.1487 24.4935 43.0047 24.5414 42.8265 24.5414C42.6482 24.5414 42.5043 24.4935 42.3946 24.3975C42.2849 24.2969 42.2301 24.1713 42.2301 24.0204ZM43.3063 25.1104V28.9082H42.3398V25.1104H43.3063ZM45.8877 25.0624C46.3767 25.0624 46.7834 25.195 47.1079 25.46C47.437 25.7251 47.6426 26.0861 47.7249 26.5432H46.7035C46.6623 26.3421 46.5687 26.1844 46.4224 26.0702C46.2762 25.9513 46.0911 25.8919 45.8671 25.8919C45.6112 25.8919 45.3964 25.9879 45.2227 26.1798C45.0537 26.3672 44.9691 26.6437 44.9691 27.0093C44.9691 27.3749 45.0537 27.6537 45.2227 27.8456C45.3964 28.033 45.6112 28.1267 45.8671 28.1267C46.0911 28.1267 46.2762 28.0696 46.4224 27.9553C46.5687 27.8365 46.6623 27.6766 46.7035 27.4755H47.7249C47.6426 27.9325 47.437 28.2935 47.1079 28.5586C46.7834 28.8237 46.3767 28.9562 45.8877 28.9562C45.5175 28.9562 45.1885 28.8785 44.9006 28.7231C44.6126 28.5632 44.3887 28.3369 44.2287 28.0444C44.0688 27.752 43.9888 27.4069 43.9888 27.0093C43.9888 26.6117 44.0688 26.2667 44.2287 25.9742C44.3887 25.6771 44.6126 25.4509 44.9006 25.2955C45.1885 25.1401 45.5175 25.0624 45.8877 25.0624ZM49.8993 25.0624C50.2192 25.0624 50.4934 25.1378 50.7219 25.2887C50.9504 25.4395 51.1126 25.6428 51.2086 25.8988V25.1104H52.1683V28.9082H51.2086V28.113C51.1126 28.3689 50.9504 28.5746 50.7219 28.73C50.4934 28.8808 50.2192 28.9562 49.8993 28.9562C49.5794 28.9562 49.2914 28.8785 49.0355 28.7231C48.7796 28.5677 48.5785 28.3438 48.4323 28.0513C48.2906 27.7542 48.2198 27.4069 48.2198 27.0093C48.2198 26.6117 48.2906 26.2667 48.4323 25.9742C48.5785 25.6771 48.7796 25.4509 49.0355 25.2955C49.2914 25.1401 49.5794 25.0624 49.8993 25.0624ZM50.2009 25.9056C49.8993 25.9056 49.6571 26.0039 49.4743 26.2004C49.2914 26.3969 49.2 26.6666 49.2 27.0093C49.2 27.3521 49.2914 27.6217 49.4743 27.8182C49.6571 28.0102 49.8993 28.1061 50.2009 28.1061C50.4934 28.1061 50.7333 28.0079 50.9207 27.8114C51.1126 27.6103 51.2086 27.3429 51.2086 27.0093C51.2086 26.6711 51.1126 26.4038 50.9207 26.2073C50.7333 26.0062 50.4934 25.9056 50.2009 25.9056ZM55.0734 28.0787V28.9082H54.5662C54.1411 28.9082 53.8144 28.8054 53.5859 28.5997C53.3619 28.3941 53.25 28.0513 53.25 27.5714V25.9262H52.7221V25.1104H53.25V24.1713H54.2165V25.1104H55.0666V25.9262H54.2165V27.5852C54.2165 27.768 54.2531 27.8959 54.3262 27.969C54.3994 28.0422 54.5227 28.0787 54.6964 28.0787H55.0734ZM55.6593 24.0204C55.6593 23.8651 55.7141 23.7394 55.8238 23.6434C55.9335 23.5429 56.0775 23.4926 56.2557 23.4926C56.4339 23.4926 56.5779 23.5429 56.6876 23.6434C56.7973 23.7394 56.8521 23.8651 56.8521 24.0204C56.8521 24.1713 56.7973 24.2969 56.6876 24.3975C56.5779 24.4935 56.4339 24.5414 56.2557 24.5414C56.0775 24.5414 55.9335 24.4935 55.8238 24.3975C55.7141 24.2969 55.6593 24.1713 55.6593 24.0204ZM56.7356 25.1104V28.9082H55.769V25.1104H56.7356ZM59.3649 25.0624C59.7351 25.0624 60.0664 25.1401 60.3589 25.2955C60.656 25.4509 60.889 25.6771 61.0581 25.9742C61.2272 26.2667 61.3118 26.6117 61.3118 27.0093C61.3118 27.4069 61.2272 27.752 61.0581 28.0444C60.889 28.3369 60.656 28.5632 60.3589 28.7231C60.0664 28.8785 59.7351 28.9562 59.3649 28.9562C58.9947 28.9562 58.6611 28.8785 58.364 28.7231C58.0716 28.5632 57.8408 28.3369 57.6717 28.0444C57.5026 27.752 57.418 27.4069 57.418 27.0093C57.418 26.6117 57.5026 26.2667 57.6717 25.9742C57.8408 25.6771 58.0716 25.4509 58.364 25.2955C58.6611 25.1401 58.9947 25.0624 59.3649 25.0624ZM59.3649 25.8988C59.0953 25.8988 58.8668 25.9947 58.6794 26.1867C58.492 26.3741 58.3983 26.6483 58.3983 27.0093C58.3983 27.3704 58.492 27.6468 58.6794 27.8388C58.8668 28.0262 59.0953 28.1199 59.3649 28.1199C59.6345 28.1199 59.8631 28.0262 60.0504 27.8388C60.2378 27.6468 60.3315 27.3704 60.3315 27.0093C60.3315 26.6483 60.2378 26.3741 60.0504 26.1867C59.8631 25.9947 59.6345 25.8988 59.3649 25.8988ZM64.2571 25.0556C64.6958 25.0556 65.0455 25.1995 65.306 25.4875C65.5664 25.7754 65.6967 26.1798 65.6967 26.7008V28.9082H64.737V26.8105C64.737 26.5089 64.6593 26.2758 64.5039 26.1113C64.3485 25.9422 64.136 25.8576 63.8664 25.8576C63.5922 25.8576 63.3728 25.9468 63.2083 26.125C63.0437 26.3032 62.9615 26.5592 62.9615 26.8928V28.9082H61.9949V25.1104H62.9615V25.8714C63.062 25.6154 63.2265 25.4166 63.455 25.275C63.6881 25.1287 63.9555 25.0556 64.2571 25.0556ZM67.8565 25.0624C68.3181 25.0624 68.6883 25.179 68.9671 25.4121C69.2458 25.6451 69.4195 25.9559 69.488 26.3444H68.5832C68.5466 26.1616 68.4643 26.0153 68.3364 25.9056C68.2084 25.7959 68.0416 25.7411 67.8359 25.7411C67.6714 25.7411 67.5435 25.7799 67.4521 25.8576C67.3607 25.9353 67.315 26.0404 67.315 26.173C67.315 26.2781 67.3515 26.3626 67.4246 26.4266C67.4978 26.4906 67.5892 26.5409 67.6988 26.5774C67.8085 26.614 67.9662 26.6574 68.1719 26.7077C68.4598 26.7717 68.6928 26.8402 68.8711 26.9133C69.0539 26.9819 69.2093 27.0939 69.3372 27.2492C69.4698 27.4001 69.536 27.6057 69.536 27.8662C69.536 28.1907 69.4081 28.4535 69.1521 28.6546C68.9008 28.8556 68.5603 28.9562 68.1307 28.9562C67.6371 28.9562 67.2418 28.8465 66.9448 28.6271C66.6477 28.4032 66.4672 28.0856 66.4032 27.6743H67.3287C67.3515 27.8616 67.4338 28.0102 67.5754 28.1199C67.7171 28.225 67.9022 28.2775 68.1307 28.2775C68.2952 28.2775 68.4209 28.2387 68.5078 28.161C68.5946 28.0787 68.638 27.9736 68.638 27.8456C68.638 27.736 68.5992 27.6468 68.5215 27.5783C68.4483 27.5097 68.3547 27.4572 68.2404 27.4206C68.1307 27.3841 67.973 27.3406 67.7674 27.2904C67.484 27.2264 67.2533 27.1624 67.075 27.0984C66.9014 27.0299 66.7505 26.9225 66.6226 26.7762C66.4992 26.63 66.4375 26.4289 66.4375 26.173C66.4375 25.8439 66.5632 25.5766 66.8145 25.3709C67.0659 25.1653 67.4132 25.0624 67.8565 25.0624Z" fill="white"/>
<path d="M185.201 24.944C185.201 25.3058 184.907 25.599 184.546 25.599C184.184 25.599 183.891 25.3058 183.891 24.944C183.891 24.5823 184.184 24.2891 184.546 24.2891C184.907 24.2891 185.201 24.5823 185.201 24.944Z" fill="white"/>
<path d="M185.201 26.9089C185.201 27.2706 184.907 27.5639 184.546 27.5639C184.184 27.5639 183.891 27.2706 183.891 26.9089C183.891 26.5472 184.184 26.254 184.546 26.254C184.907 26.254 185.201 26.5472 185.201 26.9089Z" fill="white"/>
<path d="M184.546 29.5288C184.907 29.5288 185.201 29.2355 185.201 28.8738C185.201 28.5121 184.907 28.2189 184.546 28.2189C184.184 28.2189 183.891 28.5121 183.891 28.8738C183.891 29.2355 184.184 29.5288 184.546 29.5288Z" fill="white"/>
<circle cx="36.8016" cy="62.6336" r="10.0282" fill="#AEAEB2"/>
<path d="M41.752 58.7112C41.6163 58.7152 41.4875 58.7719 41.3929 58.8693L34.9723 65.2899L32.2077 62.5254C32.1596 62.4753 32.102 62.4352 32.0382 62.4077C31.9744 62.3801 31.9057 62.3655 31.8363 62.3648C31.7668 62.3641 31.6978 62.3773 31.6335 62.4036C31.5692 62.4298 31.5107 62.4687 31.4616 62.5178C31.4125 62.5669 31.3736 62.6254 31.3473 62.6897C31.3211 62.7541 31.3079 62.823 31.3086 62.8925C31.3093 62.962 31.3239 63.0306 31.3515 63.0944C31.379 63.1582 31.4191 63.2158 31.4692 63.264L34.603 66.3978C34.7009 66.4957 34.8338 66.5507 34.9723 66.5507C35.1108 66.5507 35.2436 66.4957 35.3415 66.3978L42.1315 59.6078C42.2069 59.5345 42.2585 59.44 42.2793 59.3369C42.3002 59.2337 42.2894 59.1266 42.2484 59.0297C42.2074 58.9328 42.138 58.8505 42.0495 58.7937C41.9609 58.7368 41.8572 58.7081 41.752 58.7112Z" fill="white"/>
<rect x="51.8438" y="53.8594" width="125.352" height="7.52113" rx="3.76056" fill="url(#paint0_linear_6396_12561)"/>
<rect x="51.8438" y="66.3945" width="110.31" height="5.01408" rx="2.50704" fill="url(#paint1_linear_6396_12561)"/>
<circle cx="36.8016" cy="92.7176" r="10.0282" fill="#53A42A"/>
<path d="M31.577 93.3299H40.7622L39.0422 95.0498C38.8383 95.2538 38.8383 95.5844 39.0422 95.7883C39.1443 95.8904 39.2778 95.9414 39.4115 95.9414C39.5452 95.9414 39.6787 95.8904 39.7808 95.7883L42.3923 93.1768C42.4902 93.0792 42.5453 92.9462 42.5453 92.8076C42.5453 92.6689 42.4902 92.5362 42.3923 92.4383L39.7808 89.8268C39.5768 89.6228 39.2462 89.6228 39.0422 89.8268C38.8383 90.0308 38.8383 90.3614 39.0422 90.5653L40.7622 92.2853H31.577C31.2887 92.2853 31.0547 92.5193 31.0547 92.8076C31.0547 93.0959 31.2887 93.3299 31.577 93.3299Z" fill="white"/>
<rect x="51.8438" y="83.9434" width="125.352" height="7.52113" rx="3.76056" fill="url(#paint2_linear_6396_12561)"/>
<rect x="51.8438" y="96.4785" width="110.31" height="5.01408" rx="2.50704" fill="url(#paint3_linear_6396_12561)"/>
<circle cx="36.8016" cy="122.804" r="10.0282" fill="#003366"/>
<path d="M32.8382 124.437V123.148L36.5596 118.139H38.2221V123.093H39.235V124.437H38.2221V126H36.6587V124.437H32.8382ZM36.7798 119.956L34.4237 123.093H36.7798V119.956Z" fill="white"/>
<rect x="51.8438" y="114.029" width="125.352" height="7.52113" rx="3.76056" fill="url(#paint4_linear_6396_12561)"/>
<rect x="51.8438" y="126.564" width="110.31" height="5.01408" rx="2.50704" fill="url(#paint5_linear_6396_12561)"/>
<defs>
<filter id="filter0_d_6396_12561" x="0.745651" y="0.046231" width="212.509" height="169.89" filterUnits="userSpaceOnUse" color-interpolation-filters="sRGB">
<feFlood flood-opacity="0" result="BackgroundImageFix"/>
<feColorMatrix in="SourceAlpha" type="matrix" values="0 0 0 0 0 0 0 0 0 0 0 0 0 0 0 0 0 0 127 0" result="hardAlpha"/>
<feOffset dy="2.30058"/>
<feGaussianBlur stdDeviation="8.62717"/>
<feComposite in2="hardAlpha" operator="out"/>
<feColorMatrix type="matrix" values="0 0 0 0 0.101961 0 0 0 0 0.109804 0 0 0 0 0.129412 0 0 0 0.07 0"/>
<feBlend mode="normal" in2="BackgroundImageFix" result="effect1_dropShadow_6396_12561"/>
<feBlend mode="normal" in="SourceGraphic" in2="effect1_dropShadow_6396_12561" result="shape"/>
</filter>
<linearGradient id="paint0_linear_6396_12561" x1="52.3638" y1="54.9112" x2="57.9891" y2="83.7879" gradientUnits="userSpaceOnUse">
<stop stop-color="#F8F8F8"/>
<stop offset="1" stop-color="#EEECEC"/>
</linearGradient>
<linearGradient id="paint1_linear_6396_12561" x1="52.3014" y1="67.0958" x2="55.1874" y2="86.6515" gradientUnits="userSpaceOnUse">
<stop stop-color="#F8F8F8"/>
<stop offset="1" stop-color="#EEECEC"/>
</linearGradient>
<linearGradient id="paint2_linear_6396_12561" x1="52.3638" y1="84.9952" x2="57.9891" y2="113.872" gradientUnits="userSpaceOnUse">
<stop stop-color="#F8F8F8"/>
<stop offset="1" stop-color="#EEECEC"/>
</linearGradient>
<linearGradient id="paint3_linear_6396_12561" x1="52.3014" y1="97.1798" x2="55.1874" y2="116.736" gradientUnits="userSpaceOnUse">
<stop stop-color="#F8F8F8"/>
<stop offset="1" stop-color="#EEECEC"/>
</linearGradient>
<linearGradient id="paint4_linear_6396_12561" x1="52.3638" y1="115.081" x2="57.9891" y2="143.958" gradientUnits="userSpaceOnUse">
<stop stop-color="#F8F8F8"/>
<stop offset="1" stop-color="#EEECEC"/>
</linearGradient>
<linearGradient id="paint5_linear_6396_12561" x1="52.3014" y1="127.266" x2="55.1874" y2="146.821" gradientUnits="userSpaceOnUse">
<stop stop-color="#F8F8F8"/>
<stop offset="1" stop-color="#EEECEC"/>
</linearGradient>
</defs>
</svg>
