<svg width="80" height="80" viewBox="0 0 80 80" fill="none" xmlns="http://www.w3.org/2000/svg">
<rect width="80" height="80" rx="6" fill="#F1FFEB"/>
<path opacity="0.3" d="M33.8 26C34.9667 27.6333 35.6667 29.7333 35.6667 31.8333C35.6667 37.6667 31 42.3333 25.1667 42.3333C21.9 42.3333 18.8667 40.7 17 38.3667V51.6667H22.3667C23.0667 50.2667 24.7 49.3333 26.3333 49.3333C27.9667 49.3333 29.6 50.2667 30.3 51.6667H47.3333V26H33.8ZM57.6 30.6667H47.3333V51.6667H50.3667C51.0667 50.2667 52.7 49.3333 54.3333 49.3333C55.9667 49.3333 57.6 50.2667 58.3 51.6667H63.6667V42.8L57.6 30.6667Z" fill="#53A42A"/>
<path fill-rule="evenodd" clip-rule="evenodd" d="M57.0333 54C57.0333 52.3667 55.6333 50.9667 54 50.9667C52.3667 50.9667 50.9667 52.3667 50.9667 54C50.9667 55.6333 52.3667 57.0333 54 57.0333C55.6333 57.0333 57.0333 55.6333 57.0333 54ZM58.6667 28.333H49.334V23.667H34.675C32.3062 20.8287 28.7527 19 24.8333 19C17.8333 19 12 24.8333 12 31.8333C12 34.5322 12.8672 37.0577 14.334 39.1423V54.0003H19C19.0002 57.9668 22.0334 61 26 61C29.9666 61 32.9998 57.9668 33 54.0003H47C47.0002 57.9668 50.0334 61 54 61C57.9667 61 61 57.9667 61 54V53.9997H65.6667V42.333L58.6667 28.333ZM24.8333 40.7C22.5993 40.7 20.5592 39.8754 19.0007 38.5138V38.367H18.8368C17.0721 36.7467 15.9667 34.4201 15.9667 31.8333C15.9667 26.9333 19.9333 22.9667 24.8333 22.9667C29.7333 22.9667 33.7 26.9333 33.7 31.8333C33.7 36.7333 29.7333 40.7 24.8333 40.7ZM29.0333 54C29.0333 52.3667 27.6333 50.9667 26 50.9667C24.3667 50.9667 23.2 52.3667 23.2 54C23.2 55.6333 24.3667 56.8 26 56.8C27.6333 56.8 29.0333 55.6333 29.0333 54ZM25.5 36.5L22 32L24 26.5L26 27.5L24.5 31.5L27.5 35L25.5 36.5ZM36.8333 33C36.8333 30.9 36.6667 27.6333 35.5 26H47.3333V30.6667H57.6L63.6667 42.8V51.6667H58.3C57.6 50.2667 55.9667 49.3333 54.3333 49.3333C52.7 49.3333 51.0667 50.2667 50.3667 51.6667H47.3333H30.3C29.6 50.2667 27.9667 49.3333 26.3333 49.3333C24.7 49.3333 23.0667 50.2667 22.3667 51.6667H17V40C18.8667 42.3333 23.0667 43.5 26.3333 43.5C32.1667 43.5 36.8333 38.8333 36.8333 33Z" fill="#53A42A"/>
</svg>
