<svg width="80" height="80" viewBox="0 0 80 80" fill="none" xmlns="http://www.w3.org/2000/svg">
<rect width="80" height="80" rx="6" fill="#E8F4FF"/>
<path opacity="0.2" d="M61.934 56.333L41.4006 22.033C40.7006 21.0997 39.3006 21.0997 38.6006 22.033L18.0673 56.333C17.3673 57.4997 18.3006 58.6663 19.4673 58.6663H60.534C61.7006 58.6663 62.634 57.2663 61.934 56.333Z" fill="#003366"/>
<path fill-rule="evenodd" clip-rule="evenodd" d="M15.9664 58.9C16.6664 60.3 18.0664 61 19.4664 61H60.5331C61.9331 61 63.0997 60.0667 63.7997 58.9C64.4997 57.7333 64.4997 56.1 63.7997 54.9333L43.2664 20.8667C42.5664 19.7 41.3997 19 39.9997 19C38.5997 19 37.4331 19.7 36.4997 20.8667L15.9664 54.9333C15.2664 56.1 15.2664 57.5 15.9664 58.9ZM41.4006 22.033L61.934 56.333C62.634 57.2663 61.7006 58.6663 60.534 58.6663H19.4673C18.3006 58.6663 17.3673 57.4997 18.0673 56.333L38.6006 22.033C39.3006 21.0997 40.7006 21.0997 41.4006 22.033Z" fill="#003366"/>
<path d="M42.3327 54H37.666V49.3333H42.3327V54ZM42.3327 44.6667H37.666V33H42.3327V44.6667Z" fill="#003366"/>
</svg>
