<svg width="20" height="20" viewBox="0 0 20 20" fill="none" xmlns="http://www.w3.org/2000/svg">
<path fill-rule="evenodd" clip-rule="evenodd" d="M3.23223 1.98223C3.70107 1.51339 4.33696 1.25 5 1.25C5.66304 1.25 6.29893 1.51339 6.76777 1.98223C7.23661 2.45107 7.5 3.08696 7.5 3.75C7.5 4.41304 7.23661 5.04893 6.76777 5.51777C6.29893 5.98661 5.66304 6.25 5 6.25C4.33696 6.25 3.70107 5.98661 3.23223 5.51777C2.76339 5.04893 2.5 4.41304 2.5 3.75C2.5 3.08696 2.76339 2.45107 3.23223 1.98223ZM9.06557 1.98223C9.53441 1.51339 10.1703 1.25 10.8333 1.25C11.4964 1.25 12.1323 1.51339 12.6011 1.98223C13.0699 2.45107 13.3333 3.08696 13.3333 3.75C13.3333 4.41304 13.0699 5.04893 12.6011 5.51777C12.1323 5.98661 11.4964 6.25 10.8333 6.25C10.1703 6.25 9.53441 5.98661 9.06557 5.51777C8.59673 5.04893 8.33333 4.41304 8.33333 3.75C8.33333 3.08696 8.59673 2.45107 9.06557 1.98223ZM1.25 8.54167C1.25 7.7375 1.90417 7.08333 2.70833 7.08333H6.77572C6.4478 7.48 6.25 7.98833 6.25 8.54167V12.5C6.25 13.6183 6.65346 14.6428 7.32096 15.4395C6.6818 15.9453 5.87667 16.25 5 16.25C2.93208 16.25 1.25 14.5679 1.25 12.5V8.54167ZM7.08333 8.54167C7.08333 7.7375 7.7375 7.08333 8.54167 7.08333H13.125C13.9292 7.08333 14.5833 7.7375 14.5833 8.54167V9.16667C11.5917 9.16667 9.16667 11.5917 9.16667 14.5833C9.16667 15.0529 9.23239 15.5062 9.34489 15.9408C8.01572 15.3637 7.08333 14.0392 7.08333 12.5V8.54167ZM10 14.5833C10 12.0521 12.0521 10 14.5833 10C17.1146 10 19.1667 12.0521 19.1667 14.5833C19.1667 17.1146 17.1146 19.1667 14.5833 19.1667C12.0521 19.1667 10 17.1146 10 14.5833ZM15.489 16.2685C15.695 16.0587 15.798 15.7955 15.798 15.4789C15.8171 15.1661 15.6988 14.901 15.4433 14.6836C15.3403 14.5882 15.1743 14.4948 14.9454 14.4032C14.9073 14.3879 14.8158 14.3517 14.6708 14.2945V13.1615C14.9111 13.215 15.0809 13.3656 15.18 13.6136L15.7351 13.2932C15.5329 12.8392 15.1781 12.5779 14.6708 12.5092V12H14.2989V12.5035C13.9784 12.534 13.7133 12.6485 13.5035 12.8468C13.2899 13.049 13.1831 13.3084 13.1831 13.625C13.1831 13.9722 13.3014 14.2373 13.5379 14.4204C13.7171 14.5539 13.9708 14.6836 14.2989 14.8095V15.9996C13.9403 15.9577 13.6962 15.7707 13.5665 15.4389L13 15.765C13.0992 16.0282 13.2613 16.2361 13.4864 16.3887C13.7114 16.5413 13.9823 16.6271 14.2989 16.6462V17.1497H14.6708V16.6405C15.0103 16.5985 15.283 16.4745 15.489 16.2685ZM13.9441 13.9111C13.8755 13.8348 13.8411 13.7395 13.8411 13.625C13.8411 13.4991 13.8812 13.3942 13.9613 13.3103C14.0452 13.2264 14.1577 13.173 14.2989 13.1501V14.1457C14.131 14.0656 14.0128 13.9874 13.9441 13.9111ZM14.6708 15.9939V14.9525C14.8386 15.025 14.9588 15.1013 15.0313 15.1814C15.1038 15.2615 15.14 15.3626 15.14 15.4846C15.14 15.6105 15.098 15.7192 15.0141 15.8108C14.934 15.9023 14.8196 15.9634 14.6708 15.9939Z" fill="#FD4343"/>
</svg>
