<svg width="180" height="180" viewBox="0 0 180 180" fill="none" xmlns="http://www.w3.org/2000/svg">
<circle cx="90" cy="90" r="89" fill="white" stroke="url(#paint0_linear_6782_22435)" stroke-width="2"/>
<g clip-path="url(#clip0_6782_22435)">
<path d="M85.6467 66.3802C85.5389 65.7629 85.5964 65.1281 85.8134 64.5402C86.0304 63.9523 86.3992 63.4324 86.8822 63.0332C87.58 62.3659 88.5117 61.999 89.4771 62.011C90.4425 62.0231 91.3647 62.4133 92.0457 63.0977C92.5343 63.5418 92.8947 64.1089 93.0893 64.7398C93.2839 65.3707 93.3056 66.0423 93.1521 66.6845C92.4606 69.635 90.8193 72.2167 89.3994 74.8722C87.9979 72.143 86.3013 69.4414 85.6467 66.3802ZM88.6433 63.6878C86.7992 64.2503 86.5134 67.5051 88.6433 67.9661C90.2292 68.6208 92.3315 67.0441 91.7045 65.3659C91.4279 63.8446 90.0079 63.3928 88.6433 63.6878Z" fill="url(#paint1_linear_6782_22435)"/>
<path d="M84.0424 69.8018L85.6283 71.9409C70.8756 73.1027 56.464 78.8931 45.7775 89.22L43.2695 88.4455C53.6425 78.1463 69.4648 71.1111 84.0424 69.8018Z" fill="#1D3760"/>
<path d="M92.9336 72.0515L94.5564 69.8018C109.567 71.3231 124.2 77.6115 134.905 88.3625L132.618 89.2846C121.784 79.1199 107.758 73.0292 92.9336 72.0515Z" fill="#1D3760"/>
<path d="M62.5598 91.709H66.9948C66.9948 98.3846 66.9026 105.06 66.9948 111.727L62.5137 111.791C62.5967 105.106 62.5321 98.4123 62.5598 91.709Z" fill="#1D3760"/>
<path d="M24.0461 92.5576H38.0981V96.2458H28.8776C28.8776 97.675 28.8776 99.1134 28.8776 100.543H38.0981V104.304H28.8776C28.8776 106.794 28.8776 109.293 28.8776 111.782H24C24 105.337 24 98.9566 24.0461 92.5576Z" fill="#1D3760"/>
<path d="M78.9526 91.7178H83.3507L83.1294 110.998C81.5988 112.233 78.593 112.012 77.0255 111.92C73.7614 111.551 70.3407 111.533 69.5293 108.112C69.0866 105.893 69.0866 103.609 69.5293 101.39C69.8033 100.275 70.4239 99.2746 71.302 98.534C72.1801 97.7935 73.2703 97.3504 74.4161 97.2685C75.9574 97.2547 77.4977 97.3472 79.0263 97.5451L78.9526 91.7178ZM74.121 102.367V106.535C74.1218 106.957 74.2755 107.364 74.5535 107.681C74.8316 107.998 75.2152 108.203 75.6332 108.259C76.002 108.259 76.38 108.351 76.7581 108.379C77.0397 108.404 77.3234 108.373 77.5927 108.287C77.862 108.201 78.1114 108.062 78.3261 107.878C78.5409 107.694 78.7167 107.469 78.8433 107.216C78.9699 106.964 79.0447 106.688 79.0632 106.406C79.2524 104.84 79.2338 103.256 79.0079 101.694C78.6298 100.68 77.1638 100.477 75.9098 100.496C75.4255 100.51 74.9664 100.715 74.6317 101.065C74.297 101.415 74.1136 101.883 74.121 102.367Z" fill="#1D3760"/>
<path d="M86.209 92.5752H90.7547C90.7547 97.711 90.7547 102.847 90.7547 107.992C93.8066 107.992 99.9751 107.992 99.9751 107.992V111.791C99.9751 111.791 90.5518 111.791 86.2366 111.791C86.1998 105.392 86.2274 98.9834 86.209 92.5752Z" fill="#1D3760"/>
<path d="M40.3485 97.5996H44.7282C44.7282 102.33 44.7282 107.06 44.7282 111.79H40.3301C40.367 107.051 40.3393 102.32 40.3485 97.5996Z" fill="#1D3760"/>
<path d="M47.0502 101.519C47.7233 97.13 53.8733 96.6597 57.3218 97.7293C60.3 98.5131 60.7333 101.759 60.1801 104.488C60.1003 104.879 59.9 105.235 59.6072 105.506C59.3145 105.778 58.944 105.95 58.5481 106C55.994 106.332 53.3938 106.148 50.8398 106.341C50.6369 108.757 56.2153 108.388 59.5531 108.462L59.507 111.791C59.507 111.791 53.6612 112.15 51.2086 111.569C50.3149 111.378 49.4894 110.948 48.8192 110.327C48.149 109.705 47.6589 108.915 47.4005 108.038C46.926 105.899 46.8076 103.696 47.0502 101.519ZM50.9228 103.123H56.3536L56.2706 101.519C56.2532 101.204 56.1252 100.906 55.9093 100.677C55.6934 100.447 55.4033 100.301 55.0904 100.265C54.1083 100.164 53.1175 100.182 52.1399 100.32C51.802 100.377 51.4951 100.552 51.274 100.813C51.0528 101.075 50.9316 101.407 50.932 101.749L50.9228 103.123Z" fill="#1D3760"/>
<path d="M104.33 97.7933C107.165 96.8679 110.235 96.9658 113.006 98.0699C115.477 99.4068 115.459 102.606 115.487 105.05C115.487 107.032 115.357 109.374 113.781 110.896C113.13 111.487 112.324 111.881 111.457 112.03C108.968 112.516 106.398 112.386 103.97 111.652C100.78 110.204 101.066 106.119 101.259 103.169C101.37 101.177 102.163 98.6139 104.33 97.7933ZM105.685 103.574C105.585 104.552 105.619 105.538 105.787 106.507C105.909 107.198 106.294 107.814 106.862 108.227C107.429 108.64 108.134 108.816 108.829 108.72C110.037 108.554 111.31 107.797 111.347 106.562C111.422 105.066 111.363 103.566 111.171 102.081C111.051 101.334 110.102 100.753 109.327 100.624L109.069 100.578C108.647 100.539 108.222 100.586 107.819 100.718C107.417 100.85 107.045 101.062 106.728 101.343C106.411 101.624 106.155 101.967 105.975 102.351C105.796 102.735 105.697 103.151 105.685 103.574Z" fill="#1D3760"/>
<path d="M118.244 108.453C116.934 104.765 116.805 98.523 121.646 97.5272C125.085 96.7158 130.774 96.9647 131.355 101.437C131.493 105.005 132.176 108.896 131.576 112.501C131.456 113.275 131.138 114.005 130.654 114.62C130.169 115.236 129.534 115.716 128.81 116.014C124.947 117.554 118.935 116.872 118.935 116.872V113.119C121.701 113.119 125.703 113.709 127.87 111.404V111.007C124.679 110.924 119.894 112.123 118.244 108.453ZM122.024 102.672C121.913 103.439 121.895 104.216 121.969 104.987C122.015 105.646 122.296 106.268 122.761 106.738C123.227 107.208 123.845 107.496 124.504 107.55H124.753C125.307 107.59 125.856 107.416 126.286 107.065C126.716 106.713 126.996 106.211 127.067 105.66C127.22 104.684 127.245 103.692 127.141 102.709C127.065 102.183 126.815 101.697 126.431 101.329C126.047 100.961 125.55 100.733 125.021 100.681C124.753 100.667 124.486 100.667 124.218 100.681C123.677 100.703 123.162 100.915 122.761 101.279C122.36 101.643 122.099 102.136 122.024 102.672Z" fill="#1D3760"/>
<path d="M134.183 97.5635L138.544 97.5911L138.554 111.772H134.174L134.183 97.5635Z" fill="#1D3760"/>
<path d="M140.566 97.5635H145.342L147.702 101.436L150.358 97.5635H154.728L150.063 104.341L155.309 111.772L150.404 111.763L147.564 107.346L144.77 111.772H140.123L145.24 104.423L140.566 97.5635Z" fill="#1D3760"/>
<circle cx="42.44" cy="92.4273" r="2.76614" fill="#61B93F"/>
<circle cx="135.567" cy="92.4273" r="2.76614" fill="#61B93F"/>
</g>
<defs>
<linearGradient id="paint0_linear_6782_22435" x1="4.31677" y1="77.2744" x2="177.665" y2="77.2744" gradientUnits="userSpaceOnUse">
<stop stop-color="#92D65E"/>
<stop offset="1" stop-color="#5DB14C"/>
</linearGradient>
<linearGradient id="paint1_linear_6782_22435" x1="85.7774" y1="67.5322" x2="93.1538" y2="67.5322" gradientUnits="userSpaceOnUse">
<stop stop-color="#92D65E"/>
<stop offset="1" stop-color="#5DB14C"/>
</linearGradient>
<clipPath id="clip0_6782_22435">
<rect width="131.308" height="55" fill="white" transform="translate(24 62)"/>
</clipPath>
</defs>
</svg>
