<svg width="80" height="80" viewBox="0 0 80 80" fill="none" xmlns="http://www.w3.org/2000/svg">
<rect width="80" height="80" rx="6" fill="#E8F4FF"/>
<path opacity="0.2" d="M50.734 58.667H30.6673C29.2673 58.667 28.334 57.7337 28.334 56.3337V34.167C28.334 33.467 28.5673 32.767 29.2673 32.3003L38.3673 24.6003L40.0007 16.667C40.0007 16.667 47.0007 16.9003 47.0007 23.4337C47.0007 27.4003 44.6673 33.0003 44.6673 33.0003H58.6673C60.0673 33.0003 61.0007 33.9337 61.0007 35.3337V40.9337C61.0007 41.167 61.0007 41.4003 60.7673 41.4003L52.834 57.267C52.6007 58.2003 51.6673 58.667 50.734 58.667Z" fill="#003366"/>
<path fill-rule="evenodd" clip-rule="evenodd" d="M30.6667 60.9997H50.7333C52.6 60.9997 54.2333 60.0663 54.9333 58.433L62.8667 42.5663C63.1 42.0997 63.3333 41.3997 63.3333 40.933V35.333C63.3333 32.7663 61.2333 30.6663 58.6667 30.6663H47.9333C48.6333 28.5663 49.3333 25.7663 49.3333 23.433C49.3333 16.433 43.2667 14.5663 40 14.333H38.1333L36.0333 23.433L27.6333 30.6663C26.7 31.5997 26 32.7663 26 34.1663V56.333C26 58.8997 28.1 60.9997 30.6667 60.9997ZM30.6673 58.667H50.734C51.6673 58.667 52.6007 58.2003 52.834 57.267L60.7673 41.4003C61.0007 41.4003 61.0007 41.167 61.0007 40.9337V35.3337C61.0007 33.9337 60.0673 33.0003 58.6673 33.0003H44.6673C44.6673 33.0003 47.0007 27.4003 47.0007 23.4337C47.0007 16.9003 40.0007 16.667 40.0007 16.667L38.3673 24.6003L29.2673 32.3003C28.5673 32.767 28.334 33.467 28.334 34.167V56.3337C28.334 57.7337 29.2673 58.667 30.6673 58.667Z" fill="#003366"/>
<path d="M16.666 30.667H21.3327V61.0003H16.666V30.667Z" fill="#003366"/>
</svg>
