<svg width="80" height="80" viewBox="0 0 80 80" fill="none" xmlns="http://www.w3.org/2000/svg">
<rect width="80" height="80" rx="6" fill="#FFF2E2"/>
<path d="M37.6673 50.2989L27.9023 40.5339L31.2017 37.2345L37.6673 43.7002L51.182 30.1855L54.4813 33.4849L37.6673 50.2989Z" fill="#FDA743"/>
<path opacity="0.2" d="M58.6673 37.667C58.6673 51.9797 45.9086 61.74 40.0007 63.3337C34.0927 61.74 21.334 51.9797 21.334 37.667V26.7003L40.0007 16.667L58.6673 26.7003V37.667Z" fill="#FDA743"/>
<path fill-rule="evenodd" clip-rule="evenodd" d="M19 23.6663L40 14.333L61 23.6663V37.6663C61 55.9363 45.9757 64.467 40 65.6663C34.0243 64.467 19 55.9363 19 37.6663V23.6663ZM40.0007 63.3337C45.9086 61.74 58.6673 51.9797 58.6673 37.667V26.7003L40.0007 16.667L21.334 26.7003V37.667C21.334 51.9797 34.0927 61.74 40.0007 63.3337Z" fill="#FDA743"/>
</svg>
