<svg width="80" height="80" viewBox="0 0 80 80" fill="none" xmlns="http://www.w3.org/2000/svg">
<rect width="80" height="80" rx="6" fill="#F1FFEB"/>
<path opacity="0.3" d="M46 34C46 32.8954 46.8954 32 48 32H55.5C56.6046 32 57.5 32.8954 57.5 34V44C57.5 45.1046 56.6046 46 55.5 46H48C46.8954 46 46 45.1046 46 44V34Z" fill="#53A42A"/>
<path d="M19 53.9994H26V63.3327H19V53.9994ZM30.6667 44.666H37.6667V63.3327H30.6667V44.666ZM37.6667 35.3327V23.666H26L37.6667 35.3327Z" fill="#53A42A"/>
<path d="M19 39.0332L31.8328 26.1999L35.1327 29.4997L22.2999 42.333L19 39.0332Z" fill="#53A42A"/>
<path d="M51.668 16.666C50.4303 16.666 49.2433 17.1577 48.3681 18.0329C47.493 18.908 47.0013 20.095 47.0013 21.3327C47.0013 22.5704 47.493 23.7573 48.3681 24.6325C49.2433 25.5077 50.4303 25.9993 51.668 25.9993C52.9056 25.9993 54.0926 25.5077 54.9678 24.6325C55.843 23.7573 56.3346 22.5704 56.3346 21.3327C56.3346 20.095 55.843 18.908 54.9678 18.0329C54.0926 17.1577 52.9056 16.666 51.668 16.666ZM54.0013 46.9994H58.668V63.3327H54.0013V46.9994ZM44.668 46.9994H49.3346V63.3327H44.668V46.9994Z" fill="#53A42A"/>
<path fill-rule="evenodd" clip-rule="evenodd" d="M46.9987 28.334H56.332C58.9104 28.334 60.9987 30.4223 60.9987 33.0007V49.334H42.332V33.0007C42.332 30.4223 44.4204 28.334 46.9987 28.334ZM46.668 30.666C45.5634 30.666 44.668 31.5614 44.668 32.666V44.9993C44.668 46.1039 45.5634 46.9993 46.668 46.9993H56.668C57.7725 46.9993 58.668 46.1039 58.668 44.9994V32.666C58.668 31.5614 57.7725 30.666 56.668 30.666H46.668Z" fill="#53A42A"/>
</svg>
