<svg width="214" height="90" viewBox="0 0 214 90" fill="none" xmlns="http://www.w3.org/2000/svg">
<g clip-path="url(#clip0_7414_15590)">
<path d="M100.483 7.12588C100.307 6.12164 100.401 5.08887 100.754 4.13252C101.107 3.17616 101.707 2.3303 102.493 1.68088C103.628 0.595424 105.143 -0.0015845 106.714 0.0180474C108.285 0.0376793 109.785 0.672386 110.893 1.78588C111.687 2.50832 112.274 3.43089 112.59 4.45727C112.907 5.48365 112.942 6.5762 112.693 7.62088C111.568 12.4209 108.898 16.6209 106.588 20.9409C104.308 16.5009 101.548 12.1059 100.483 7.12588ZM105.358 2.74588C102.358 3.66088 101.893 8.95588 105.358 9.70588C107.938 10.7709 111.358 8.20588 110.338 5.47588C109.888 3.00088 107.578 2.26588 105.358 2.74588Z" fill="url(#paint0_linear_7414_15590)"/>
<path d="M97.871 12.6914L100.451 16.1714C76.451 18.0614 53.006 27.4814 35.621 44.2814L31.541 43.0214C48.416 26.2664 74.156 14.8214 97.871 12.6914Z" fill="#1D3760"/>
<path d="M112.338 16.3514L114.978 12.6914C139.398 15.1664 163.203 25.3964 180.618 42.8864L176.898 44.3864C159.272 27.8503 136.454 17.9418 112.338 16.3514Z" fill="#1D3760"/>
<path d="M62.9246 48.3311H70.1396C70.1396 59.1911 69.9896 70.0511 70.1396 80.8961L62.8496 81.0011C62.9846 70.1261 62.8796 59.2361 62.9246 48.3311Z" fill="#1D3760"/>
<path d="M0.268359 49.7109H23.1284V55.7109H8.12836C8.12836 58.0359 8.12836 60.3759 8.12836 62.7009H23.1284V68.8209H8.12836C8.12836 72.8709 8.12836 76.9359 8.12836 80.9859H0.193359C0.193359 70.5009 0.193359 60.1209 0.268359 49.7109Z" fill="#1D3760"/>
<path d="M89.5947 48.3457H96.7497L96.3897 79.7107C93.8997 81.7207 89.0097 81.3607 86.4597 81.2107C81.1497 80.6107 75.5847 80.5807 74.2647 75.0157C73.5446 71.4063 73.5446 67.6901 74.2647 64.0807C74.7105 62.266 75.7201 60.6393 77.1486 59.4345C78.5771 58.2298 80.3508 57.5089 82.2147 57.3757C84.7221 57.3534 87.228 57.5037 89.7147 57.8257L89.5947 48.3457ZM81.7347 65.6707V72.4507C81.7359 73.1368 81.9859 73.7991 82.4383 74.3149C82.8906 74.8307 83.5147 75.165 84.1947 75.2557C84.7947 75.2557 85.4097 75.4057 86.0247 75.4507C86.4828 75.4917 86.9444 75.4407 87.3825 75.3006C87.8206 75.1606 88.2262 74.9344 88.5756 74.6353C88.925 74.3363 89.2111 73.9704 89.417 73.5591C89.6229 73.1479 89.7445 72.6996 89.7747 72.2407C90.0825 69.6929 90.0522 67.1156 89.6847 64.5757C89.0697 62.9257 86.6847 62.5957 84.6447 62.6257C83.8569 62.6493 83.11 62.9819 82.5655 63.5517C82.021 64.1215 81.7225 64.8826 81.7347 65.6707Z" fill="#1D3760"/>
<path d="M101.396 49.7402H108.791C108.791 58.0952 108.791 66.4502 108.791 74.8202C113.756 74.8202 123.791 74.8202 123.791 74.8202V81.0002C123.791 81.0002 108.461 81.0002 101.441 81.0002C101.381 70.5902 101.426 60.1652 101.396 49.7402Z" fill="#1D3760"/>
<path d="M26.7898 57.9141H33.9148C33.9148 65.6091 33.9148 73.3041 33.9148 80.9991H26.7598C26.8198 73.2891 26.7748 65.5941 26.7898 57.9141Z" fill="#1D3760"/>
<path d="M37.6933 64.2896C38.7883 57.1496 48.7933 56.3846 54.4033 58.1246C59.2483 59.3996 59.9533 64.6796 59.0533 69.1196C58.9235 69.7558 58.5976 70.3352 58.1213 70.7765C57.6451 71.2178 57.0425 71.4986 56.3983 71.5796C52.2433 72.1196 48.0133 71.8196 43.8583 72.1346C43.5283 76.0646 52.6033 75.4646 58.0333 75.5846L57.9583 80.9996C57.9583 80.9996 48.4483 81.5846 44.4583 80.6396C43.0044 80.3278 41.6615 79.6296 40.5713 78.6185C39.481 77.6074 38.6836 76.3209 38.2633 74.8946C37.4913 71.415 37.2987 67.8319 37.6933 64.2896ZM43.9933 66.8996H52.8283L52.6933 64.2896C52.665 63.7779 52.4568 63.2926 52.1055 62.9193C51.7542 62.5461 51.2824 62.3089 50.7733 62.2496C49.1756 62.0847 47.5637 62.1149 45.9733 62.3396C45.4236 62.4319 44.9245 62.7162 44.5647 63.142C44.2049 63.5677 44.0077 64.1072 44.0083 64.6646L43.9933 66.8996Z" fill="#1D3760"/>
<path d="M130.878 58.2287C135.491 56.7233 140.485 56.8825 144.993 58.6787C149.013 60.8537 148.983 66.0587 149.028 70.0337C149.028 73.2587 148.818 77.0687 146.253 79.5437C145.195 80.5066 143.883 81.1468 142.473 81.3887C138.424 82.1797 134.242 81.9686 130.293 80.7737C125.103 78.4187 125.568 71.7737 125.883 66.9737C126.063 63.7337 127.353 59.5637 130.878 58.2287ZM133.083 67.6337C132.921 69.2238 132.976 70.8286 133.248 72.4037C133.447 73.5277 134.074 74.5309 134.997 75.2022C135.92 75.8736 137.067 76.1609 138.198 76.0037C140.163 75.7337 142.233 74.5037 142.293 72.4937C142.416 70.06 142.321 67.6203 142.008 65.2037C141.813 63.9887 140.268 63.0437 139.008 62.8337L138.588 62.7587C137.902 62.6948 137.21 62.7724 136.555 62.9865C135.9 63.2007 135.296 63.5469 134.78 64.0038C134.264 64.4607 133.847 65.0186 133.555 65.6429C133.263 66.2672 133.103 66.9448 133.083 67.6337Z" fill="#1D3760"/>
<path d="M153.511 75.5708C151.381 69.5708 151.171 59.4158 159.046 57.7958C164.641 56.4758 173.896 56.8808 174.841 64.1558C175.066 69.9608 176.176 76.2908 175.201 82.1558C175.005 83.4149 174.489 84.6024 173.7 85.6035C172.912 86.6046 171.879 87.3855 170.701 87.8708C164.416 90.3758 154.636 89.2658 154.636 89.2658V83.1608C159.136 83.1608 165.646 84.1208 169.171 80.3708V79.7258C163.981 79.5908 156.196 81.5408 153.511 75.5708ZM159.661 66.1658C159.481 67.4127 159.451 68.6767 159.571 69.9308C159.646 71.0043 160.104 72.0152 160.861 72.7802C161.617 73.5452 162.623 74.0138 163.696 74.1008H164.101C165.002 74.1658 165.895 73.8835 166.595 73.3117C167.295 72.74 167.75 71.9221 167.866 71.0258C168.115 69.4379 168.155 67.8242 167.986 66.2258C167.863 65.3692 167.456 64.5786 166.83 63.9804C166.205 63.3822 165.397 63.0109 164.536 62.9258C164.101 62.9033 163.666 62.9033 163.231 62.9258C162.351 62.9629 161.512 63.3075 160.859 63.8995C160.207 64.4914 159.783 65.2934 159.661 66.1658Z" fill="#1D3760"/>
<path d="M179.443 57.8555L186.538 57.9005L186.553 80.9705H179.428L179.443 57.8555Z" fill="#1D3760"/>
<path d="M189.827 57.8555H197.597L201.437 64.1555L205.757 57.8555H212.867L205.277 68.8805L213.812 80.9705L205.832 80.9555L201.212 73.7705L196.667 80.9705H189.107L197.432 69.0155L189.827 57.8555Z" fill="#1D3760"/>
<circle cx="30.1934" cy="49.5" r="4.5" fill="#61B93F"/>
<circle cx="181.693" cy="49.5" r="4.5" fill="#61B93F"/>
</g>
<defs>
<linearGradient id="paint0_linear_7414_15590" x1="100.695" y1="9" x2="112.695" y2="9" gradientUnits="userSpaceOnUse">
<stop stop-color="#92D65E"/>
<stop offset="1" stop-color="#5DB14C"/>
</linearGradient>
<clipPath id="clip0_7414_15590">
<rect width="213.615" height="89.475" fill="white" transform="translate(0.193359)"/>
</clipPath>
</defs>
</svg>
