<svg width="36" height="36" viewBox="0 0 36 36" fill="none" xmlns="http://www.w3.org/2000/svg">
<path d="M29.6154 5.23371C29.3183 5.24073 29.036 5.36501 28.8303 5.57942L18.0007 16.409L7.17107 5.57942C7.06621 5.47143 6.94074 5.38558 6.8021 5.32695C6.66346 5.26832 6.51447 5.23811 6.36394 5.23811C6.14005 5.23816 5.92127 5.30501 5.73559 5.43011C5.5499 5.5552 5.40576 5.73285 5.32161 5.94033C5.23745 6.1478 5.21711 6.37566 5.26319 6.59476C5.30927 6.81386 5.41966 7.01423 5.58025 7.17024L16.4098 17.9998L5.58025 28.8294C5.47229 28.9331 5.38609 29.0572 5.32671 29.1946C5.26732 29.332 5.23595 29.4799 5.23443 29.6296C5.23291 29.7792 5.26127 29.9277 5.31784 30.0663C5.37442 30.2048 5.45808 30.3307 5.56391 30.4366C5.66975 30.5424 5.79564 30.6261 5.93422 30.6826C6.07279 30.7392 6.22126 30.7676 6.37093 30.7661C6.5206 30.7645 6.66846 30.7332 6.80585 30.6738C6.94325 30.6144 7.06741 30.5282 7.17107 30.4202L18.0007 19.5906L28.8303 30.4202C28.9339 30.5282 29.0581 30.6144 29.1955 30.6738C29.3329 30.7332 29.4807 30.7645 29.6304 30.7661C29.7801 30.7676 29.9285 30.7392 30.0671 30.6826C30.2057 30.6261 30.3316 30.5424 30.4374 30.4366C30.5432 30.3307 30.6269 30.2048 30.6835 30.0663C30.7401 29.9277 30.7684 29.7792 30.7669 29.6296C30.7654 29.4799 30.734 29.332 30.6746 29.1946C30.6152 29.0572 30.529 28.9331 30.4211 28.8294L19.5915 17.9998L30.4211 7.17024C30.5847 7.01322 30.697 6.81043 30.7433 6.58846C30.7897 6.36649 30.7679 6.13569 30.6808 5.92633C30.5937 5.71697 30.4453 5.53882 30.2552 5.41522C30.0651 5.29162 29.8421 5.22836 29.6154 5.23371Z" fill="#53A42A"/>
</svg>
