<svg width="18" height="18" viewBox="0 0 18 18" fill="none" xmlns="http://www.w3.org/2000/svg">
<path d="M3.59091 2C3.16897 2 2.76432 2.16761 2.46597 2.46597C2.16761 2.76432 2 3.16897 2 3.59091C2 4.01284 2.16761 4.4175 2.46597 4.71585C2.76432 5.0142 3.16897 5.18182 3.59091 5.18182C4.01284 5.18182 4.4175 5.0142 4.71585 4.71585C5.0142 4.4175 5.18182 4.01284 5.18182 3.59091C5.18182 3.16897 5.0142 2.76432 4.71585 2.46597C4.4175 2.16761 4.01284 2 3.59091 2ZM2.63636 6.45455C2.28445 6.45455 2 6.739 2 7.09091V15.3636C2 15.7155 2.28445 16 2.63636 16H4.54545C4.89736 16 5.18182 15.7155 5.18182 15.3636V7.09091C5.18182 6.739 4.89736 6.45455 4.54545 6.45455H2.63636ZM7.09091 6.45455C6.739 6.45455 6.45455 6.739 6.45455 7.09091V15.3636C6.45455 15.7155 6.739 16 7.09091 16H9C9.35191 16 9.63636 15.7155 9.63636 15.3636V10.5909C9.63636 9.71336 10.3497 9 11.2273 9C12.1048 9 12.8182 9.71336 12.8182 10.5909V15.3636C12.8182 15.7155 13.1026 16 13.4545 16H15.3636C15.7155 16 16 15.7155 16 15.3636V10.2727C16 8.167 14.2875 6.45455 12.1818 6.45455C11.2031 6.45455 10.3128 6.82746 9.63636 7.43519V7.09091C9.63636 6.739 9.35191 6.45455 9 6.45455H7.09091Z" fill="#003366"/>
</svg>
