<svg width="18" height="19" viewBox="0 0 18 19" fill="none" xmlns="http://www.w3.org/2000/svg">
<path d="M4.6875 2C3.76219 2 3 2.76219 3 3.6875V15.3125C3 16.2378 3.76219 17 4.6875 17H13.3125C14.2378 17 15 16.2378 15 15.3125V3.6875C15 2.76219 14.2378 2 13.3125 2H4.6875ZM4.6875 3.125H13.3125C13.6299 3.125 13.875 3.37006 13.875 3.6875V15.3125C13.875 15.6299 13.6299 15.875 13.3125 15.875H4.6875C4.37006 15.875 4.125 15.6299 4.125 15.3125V3.6875C4.125 3.37006 4.37006 3.125 4.6875 3.125ZM6.5625 5C6.48796 4.99895 6.41396 5.01272 6.34479 5.04051C6.27562 5.06831 6.21266 5.10957 6.15958 5.16191C6.1065 5.21425 6.06435 5.27661 6.03557 5.34538C6.0068 5.41415 5.99199 5.48795 5.99199 5.5625C5.99199 5.63705 6.0068 5.71085 6.03557 5.77962C6.06435 5.84839 6.1065 5.91075 6.15958 5.96309C6.21266 6.01543 6.27562 6.05669 6.34479 6.08449C6.41396 6.11228 6.48796 6.12605 6.5625 6.125H8.4375C8.51204 6.12605 8.58604 6.11228 8.65521 6.08449C8.72438 6.05669 8.78734 6.01543 8.84042 5.96309C8.8935 5.91075 8.93566 5.84839 8.96443 5.77962C8.9932 5.71085 9.00801 5.63705 9.00801 5.5625C9.00801 5.48795 8.9932 5.41415 8.96443 5.34538C8.93566 5.27661 8.8935 5.21425 8.84042 5.16191C8.78734 5.10957 8.72438 5.06831 8.65521 5.04051C8.58604 5.01272 8.51204 4.99895 8.4375 5H6.5625ZM6.5625 8.375C6.48796 8.37395 6.41396 8.38772 6.34479 8.41551C6.27562 8.44331 6.21266 8.48457 6.15958 8.53691C6.1065 8.58925 6.06435 8.65161 6.03557 8.72038C6.0068 8.78915 5.99199 8.86295 5.99199 8.9375C5.99199 9.01204 6.0068 9.08585 6.03557 9.15462C6.06435 9.22339 6.1065 9.28575 6.15958 9.33809C6.21266 9.39043 6.27562 9.43169 6.34479 9.45949C6.41396 9.48728 6.48796 9.50105 6.5625 9.5H11.4375C11.512 9.50105 11.586 9.48728 11.6552 9.45949C11.7244 9.43169 11.7873 9.39043 11.8404 9.33809C11.8935 9.28575 11.9357 9.22339 11.9644 9.15462C11.9932 9.08585 12.008 9.01204 12.008 8.9375C12.008 8.86295 11.9932 8.78915 11.9644 8.72038C11.9357 8.65161 11.8935 8.58925 11.8404 8.53691C11.7873 8.48457 11.7244 8.44331 11.6552 8.41551C11.586 8.38772 11.512 8.37395 11.4375 8.375H6.5625ZM6.5625 10.625C6.48796 10.6239 6.41396 10.6377 6.34479 10.6655C6.27562 10.6933 6.21266 10.7346 6.15958 10.7869C6.1065 10.8392 6.06435 10.9016 6.03557 10.9704C6.0068 11.0392 5.99199 11.113 5.99199 11.1875C5.99199 11.262 6.0068 11.3358 6.03557 11.4046C6.06435 11.4734 6.1065 11.5358 6.15958 11.5881C6.21266 11.6404 6.27562 11.6817 6.34479 11.7095C6.41396 11.7373 6.48796 11.7511 6.5625 11.75H11.4375C11.512 11.7511 11.586 11.7373 11.6552 11.7095C11.7244 11.6817 11.7873 11.6404 11.8404 11.5881C11.8935 11.5358 11.9357 11.4734 11.9644 11.4046C11.9932 11.3358 12.008 11.262 12.008 11.1875C12.008 11.113 11.9932 11.0392 11.9644 10.9704C11.9357 10.9016 11.8935 10.8392 11.8404 10.7869C11.7873 10.7346 11.7244 10.6933 11.6552 10.6655C11.586 10.6377 11.512 10.6239 11.4375 10.625H6.5625ZM6.5625 12.875C6.48796 12.8739 6.41396 12.8877 6.34479 12.9155C6.27562 12.9433 6.21266 12.9846 6.15958 13.0369C6.1065 13.0892 6.06435 13.1516 6.03557 13.2204C6.0068 13.2892 5.99199 13.363 5.99199 13.4375C5.99199 13.512 6.0068 13.5858 6.03557 13.6546C6.06435 13.7234 6.1065 13.7858 6.15958 13.8381C6.21266 13.8904 6.27562 13.9317 6.34479 13.9595C6.41396 13.9873 6.48796 14.0011 6.5625 14H9.9375C10.012 14.0011 10.086 13.9873 10.1552 13.9595C10.2244 13.9317 10.2873 13.8904 10.3404 13.8381C10.3935 13.7858 10.4357 13.7234 10.4644 13.6546C10.4932 13.5858 10.508 13.512 10.508 13.4375C10.508 13.363 10.4932 13.2892 10.4644 13.2204C10.4357 13.1516 10.3935 13.0892 10.3404 13.0369C10.2873 12.9846 10.2244 12.9433 10.1552 12.9155C10.086 12.8877 10.012 12.8739 9.9375 12.875H6.5625Z" fill="white"/>
</svg>
