<svg width="79" height="79" viewBox="0 0 79 79" fill="none" xmlns="http://www.w3.org/2000/svg">
<g opacity="0.2">
<path d="M22.2201 16.459C18.5098 16.459 14.9515 17.9329 12.3279 20.5564C9.70437 23.18 8.23047 26.7383 8.23047 30.4486C8.23047 34.1588 9.70437 37.7171 12.3279 40.3407C14.9515 42.9643 18.5098 44.4382 22.2201 44.4382C25.0337 44.4374 27.7817 43.5882 30.1053 42.0015C28.6755 48.0966 26.1336 52.3437 23.6312 55.2839C19.8639 59.7105 16.3664 61.0733 16.3664 61.0733C16.0578 61.188 15.7752 61.3634 15.5353 61.589C15.2955 61.8146 15.1032 62.0858 14.9697 62.3869C14.8363 62.6879 14.7644 63.0126 14.7583 63.3418C14.7522 63.671 14.812 63.9981 14.9342 64.3039C15.0565 64.6097 15.2386 64.8879 15.47 65.1222C15.7013 65.3565 15.9772 65.5422 16.2814 65.6683C16.5855 65.7944 16.9119 65.8584 17.2411 65.8564C17.5704 65.8545 17.896 65.7868 18.1987 65.6572C18.1987 65.6572 22.9304 63.7283 27.3922 58.4856C31.8541 53.2429 36.2096 44.5576 36.2096 31.2715C36.2099 31.151 36.2013 31.0307 36.1839 30.9115C36.2459 29.0379 35.9308 27.171 35.2572 25.4216C34.5836 23.6722 33.5653 22.0761 32.2627 20.728C30.9602 19.3798 29.4 18.3072 27.6748 17.5739C25.9496 16.8405 24.0946 16.4614 22.2201 16.459ZM56.7826 16.459C53.0723 16.459 49.514 17.9329 46.8904 20.5564C44.2669 23.18 42.793 26.7383 42.793 30.4486C42.793 34.1588 44.2669 37.7171 46.8904 40.3407C49.514 42.9643 53.0723 44.4382 56.7826 44.4382C59.5962 44.4374 62.3442 43.5882 64.6678 42.0015C63.238 48.0966 60.6961 52.3437 58.1937 55.2839C54.4264 59.7105 50.9289 61.0733 50.9289 61.0733C50.6203 61.188 50.3377 61.3634 50.0979 61.589C49.858 61.8146 49.6657 62.0858 49.5322 62.3869C49.3988 62.6879 49.3269 63.0126 49.3208 63.3418C49.3147 63.671 49.3745 63.9981 49.4967 64.3039C49.619 64.6097 49.8011 64.8879 50.0325 65.1222C50.2638 65.3565 50.5397 65.5422 50.8439 65.6683C51.148 65.7944 51.4744 65.8584 51.8036 65.8564C52.1329 65.8545 52.4585 65.7868 52.7612 65.6572C52.7612 65.6572 57.4929 63.7283 61.9547 58.4856C66.4165 53.2429 70.7721 44.5576 70.7721 31.2715C70.7724 31.151 70.7638 31.0307 70.7464 30.9115C70.8084 29.0379 70.4933 27.171 69.8197 25.4216C69.1461 23.6722 68.1278 22.0761 66.8252 20.728C65.5227 19.3798 63.9625 18.3072 62.2373 17.5739C60.5121 16.8405 58.6571 16.4614 56.7826 16.459Z" fill="#99B98C"/>
</g>
</svg>
