<svg width="148" height="148" viewBox="0 0 148 148" fill="none" xmlns="http://www.w3.org/2000/svg">
<circle cx="74" cy="74" r="73" fill="white" stroke="url(#paint0_linear_6709_12969)" stroke-width="2"/>
<path d="M66.3131 42.3364C65.2883 42.3423 64.2492 42.408 63.2012 42.5382C51.8272 43.9502 42.6229 52.9455 40.9518 64.2862C40.1352 69.8307 41.2627 75.0584 43.5234 79.5922L40.737 90.9008C40.6338 91.3186 40.6402 91.7559 40.7556 92.1704C40.8709 92.585 41.0913 92.9627 41.3954 93.2672C41.6995 93.5716 42.077 93.7924 42.4915 93.9082C42.9059 94.024 43.3432 94.0309 43.7611 93.9282L55.0794 91.145C59.6137 93.4039 64.8429 94.5283 70.3854 93.7101C81.7225 92.0371 90.7149 82.8362 92.1269 71.464C93.951 56.7924 83.2749 44.0554 69.3437 42.4959C68.3486 42.3845 67.338 42.3305 66.3131 42.3364ZM95.6491 58.1827C97.1657 62.5827 97.6647 67.3325 97.0814 72.0825C95.398 85.7158 84.7146 96.6482 71.1146 98.6482C69.5812 98.8815 68.032 98.9998 66.4987 98.9998C65.682 98.9998 64.8479 98.9659 64.0312 98.8826C67.7146 102.283 72.4319 104.6 77.6152 105.383C83.0152 106.167 88.382 105.317 93.1653 102.867L104.233 105.601C104.433 105.651 104.632 105.666 104.832 105.666C105.482 105.666 106.133 105.417 106.6 104.934C107.216 104.317 107.467 103.417 107.267 102.567L104.533 91.4998C106.983 86.7164 107.849 81.3663 107.049 75.9496C105.949 68.5163 101.666 62.1327 95.6491 58.1827Z" fill="url(#paint1_linear_6709_12969)"/>
<defs>
<linearGradient id="paint0_linear_6709_12969" x1="3.54934" y1="63.5367" x2="146.08" y2="63.5368" gradientUnits="userSpaceOnUse">
<stop stop-color="#92D65E"/>
<stop offset="1" stop-color="#5DB14C"/>
</linearGradient>
<linearGradient id="paint1_linear_6709_12969" x1="42.263" y1="69.5239" x2="106.473" y2="69.5239" gradientUnits="userSpaceOnUse">
<stop stop-color="#92D65E"/>
<stop offset="1" stop-color="#5DB14C"/>
</linearGradient>
</defs>
</svg>
