<svg width="148" height="148" viewBox="0 0 148 148" fill="none" xmlns="http://www.w3.org/2000/svg">
<circle cx="74" cy="74" r="73" fill="white" stroke="url(#paint0_linear_6720_13244)" stroke-width="2"/>
<path d="M99.8346 37.333C94.2838 37.333 89.0013 41.8888 89.0013 48.1663C88.9966 48.4976 89.0578 48.8265 89.1814 49.1339C89.3049 49.4414 89.4883 49.7212 89.7209 49.9571C89.9535 50.193 90.2307 50.3804 90.5363 50.5082C90.842 50.6361 91.17 50.7019 91.5013 50.7019C91.8326 50.7019 92.1606 50.6361 92.4663 50.5082C92.7719 50.3804 93.0491 50.193 93.2817 49.9571C93.5143 49.7212 93.6977 49.4414 93.8212 49.1339C93.9448 48.8265 94.006 48.4976 94.0013 48.1663C94.0013 44.7806 97.1021 42.333 99.8346 42.333C102.567 42.333 105.668 44.7806 105.668 48.1663C105.668 49.6192 105.285 50.5089 104.587 51.4639C103.889 52.4189 102.801 53.3682 101.544 54.4424C99.0284 56.5908 95.668 59.6663 95.668 64.833C95.6633 65.1643 95.7245 65.4932 95.848 65.8006C95.9716 66.108 96.155 66.3878 96.3876 66.6238C96.6202 66.8597 96.8974 67.047 97.203 67.1749C97.5086 67.3028 97.8367 67.3686 98.168 67.3686C98.4993 67.3686 98.8273 67.3028 99.1329 67.1749C99.4386 67.047 99.7158 66.8597 99.9484 66.6238C100.181 66.3878 100.364 66.108 100.488 65.8006C100.611 65.4932 100.673 65.1643 100.668 64.833C100.668 61.6663 102.308 60.3668 104.792 58.2445C106.035 57.1833 107.447 56.0232 108.624 54.4131C109.801 52.803 110.668 50.6718 110.668 48.1663C110.668 41.8888 105.385 37.333 99.8346 37.333ZM67.3346 40.6663C62.9144 40.6663 58.6751 42.4223 55.5495 45.5479C52.4239 48.6735 50.668 52.9127 50.668 57.333C50.668 61.7533 52.4239 65.9925 55.5495 69.1181C58.6751 72.2437 62.9144 73.9997 67.3346 73.9997C71.7549 73.9997 75.9941 72.2437 79.1197 69.1181C82.2454 65.9925 84.0013 61.7533 84.0013 57.333C84.0013 52.9127 82.2454 48.6735 79.1197 45.5479C75.9941 42.4223 71.7549 40.6663 67.3346 40.6663ZM98.168 70.6663C97.0629 70.6663 96.0031 71.1053 95.2217 71.8867C94.4403 72.6681 94.0013 73.7279 94.0013 74.833C94.0013 75.9381 94.4403 76.9979 95.2217 77.7793C96.0031 78.5607 97.0629 78.9997 98.168 78.9997C99.273 78.9997 100.333 78.5607 101.114 77.7793C101.896 76.9979 102.335 75.9381 102.335 74.833C102.335 73.7279 101.896 72.6681 101.114 71.8867C100.333 71.1053 99.273 70.6663 98.168 70.6663ZM47.2988 80.6663C43.6422 80.6663 40.668 83.6405 40.668 87.2972V89.833C40.668 95.353 43.809 100.126 49.5124 103.271C54.2574 105.891 60.588 107.333 67.3346 107.333C80.178 107.333 94.0013 101.856 94.0013 89.833V87.2972C94.0013 83.6405 91.0271 80.6663 87.3704 80.6663H47.2988Z" fill="url(#paint1_linear_6720_13244)"/>
<defs>
<linearGradient id="paint0_linear_6720_13244" x1="3.54934" y1="63.5367" x2="146.08" y2="63.5368" gradientUnits="userSpaceOnUse">
<stop stop-color="#92D65E"/>
<stop offset="1" stop-color="#5DB14C"/>
</linearGradient>
<linearGradient id="paint1_linear_6720_13244" x1="42.3467" y1="67.3842" x2="109.76" y2="67.3842" gradientUnits="userSpaceOnUse">
<stop stop-color="#92D65E"/>
<stop offset="1" stop-color="#5DB14C"/>
</linearGradient>
</defs>
</svg>
