<svg width="148" height="148" viewBox="0 0 148 148" fill="none" xmlns="http://www.w3.org/2000/svg">
<circle cx="74" cy="74" r="73" fill="white" stroke="url(#paint0_linear_6709_12991)" stroke-width="2"/>
<path d="M106.383 92.823L80.5798 46.213C79.2348 43.7847 76.7748 42.333 73.9981 42.333C71.2215 42.333 68.7615 43.7847 67.4165 46.213L41.6131 92.823C40.3081 95.1813 40.3448 97.973 41.7148 100.295C43.0815 102.615 45.5048 104 48.1965 104H99.8014C102.491 104 104.915 102.615 106.283 100.295C107.65 97.9747 107.688 95.1813 106.383 92.823ZM71.4981 63.1663C71.4981 61.7847 72.6181 60.6663 73.9981 60.6663C75.3781 60.6663 76.4981 61.7847 76.4981 63.1663V79.833C76.4981 81.2147 75.3781 82.333 73.9981 82.333C72.6181 82.333 71.4981 81.2147 71.4981 79.833V63.1663ZM73.9981 93.9997C72.1565 93.9997 70.6648 92.508 70.6648 90.6663C70.6648 88.8247 72.1565 87.333 73.9981 87.333C75.8398 87.333 77.3315 88.8247 77.3315 90.6663C77.3315 92.508 75.8398 93.9997 73.9981 93.9997Z" fill="url(#paint1_linear_6709_12991)"/>
<defs>
<linearGradient id="paint0_linear_6709_12991" x1="3.54934" y1="63.5367" x2="146.08" y2="63.5368" gradientUnits="userSpaceOnUse">
<stop stop-color="#92D65E"/>
<stop offset="1" stop-color="#5DB14C"/>
</linearGradient>
<linearGradient id="paint1_linear_6709_12991" x1="42.2592" y1="68.8067" x2="106.471" y2="68.8067" gradientUnits="userSpaceOnUse">
<stop stop-color="#92D65E"/>
<stop offset="1" stop-color="#5DB14C"/>
</linearGradient>
</defs>
</svg>
