<svg width="148" height="148" viewBox="0 0 148 148" fill="none" xmlns="http://www.w3.org/2000/svg">
<circle cx="74" cy="74" r="73" fill="white" stroke="url(#paint0_linear_6720_13413)" stroke-width="2"/>
<path d="M60.7348 42.3009C59.8681 42.2923 59.0321 42.6216 58.404 43.2189L49.7517 51.2072L46.1677 48.1375C45.8385 47.8331 45.4513 47.5981 45.0292 47.4467C44.6072 47.2954 44.1589 47.2307 43.7112 47.2567C43.2636 47.2826 42.8258 47.3986 42.424 47.5976C42.0222 47.7967 41.6647 48.0748 41.3729 48.4152C41.0811 48.7557 40.8609 49.1515 40.7256 49.579C40.5904 50.0065 40.5427 50.4569 40.5856 50.9033C40.6284 51.3496 40.7609 51.7827 40.975 52.1767C41.1891 52.5707 41.4805 52.9174 41.8318 53.1961L47.6651 58.1961C48.2853 58.7277 49.0791 59.013 49.8957 58.998C50.7124 58.983 51.4952 58.6687 52.0954 58.1147L62.9288 48.1147C63.4285 47.6659 63.7811 47.0766 63.9402 46.424C64.0993 45.7713 64.0575 45.0859 63.8203 44.4574C63.5831 43.8289 63.1616 43.2868 62.611 42.902C62.0604 42.5172 61.4065 42.3077 60.7348 42.3009ZM70.6664 47.3335C70.2247 47.3273 69.7861 47.4089 69.3763 47.5736C68.9664 47.7383 68.5933 47.9828 68.2787 48.293C67.9642 48.6031 67.7144 48.9727 67.5439 49.3802C67.3734 49.7877 67.2856 50.2251 67.2856 50.6668C67.2856 51.1086 67.3734 51.5459 67.5439 51.9535C67.7144 52.361 67.9642 52.7306 68.2787 53.0407C68.5933 53.3508 68.9664 53.5954 69.3763 53.7601C69.7861 53.9248 70.2247 54.0064 70.6664 54.0002H104C104.441 54.0064 104.88 53.9248 105.29 53.7601C105.7 53.5954 106.073 53.3508 106.387 53.0407C106.702 52.7306 106.952 52.361 107.122 51.9535C107.293 51.5459 107.381 51.1086 107.381 50.6668C107.381 50.2251 107.293 49.7877 107.122 49.3802C106.952 48.9727 106.702 48.6031 106.387 48.293C106.073 47.9828 105.7 47.7383 105.29 47.5736C104.88 47.4089 104.441 47.3273 104 47.3335H70.6664ZM60.7348 64.8009C59.8681 64.7923 59.0321 65.1216 58.404 65.7189L49.7517 73.7072L46.1677 70.6375C45.8385 70.3331 45.4513 70.0981 45.0292 69.9468C44.6072 69.7954 44.1589 69.7307 43.7112 69.7567C43.2636 69.7826 42.8258 69.8986 42.424 70.0976C42.0222 70.2967 41.6647 70.5748 41.3729 70.9152C41.0811 71.2557 40.8609 71.6515 40.7256 72.079C40.5904 72.5065 40.5427 72.9569 40.5856 73.4033C40.6284 73.8496 40.7609 74.2827 40.975 74.6767C41.1891 75.0707 41.4805 75.4174 41.8318 75.6961L47.6651 80.6961C48.2853 81.2277 49.0791 81.513 49.8957 81.498C50.7124 81.483 51.4952 81.1687 52.0954 80.6147L62.9288 70.6148C63.4285 70.1659 63.7811 69.5766 63.9402 68.924C64.0993 68.2713 64.0575 67.5859 63.8203 66.9574C63.5831 66.3289 63.1616 65.7868 62.611 65.402C62.0604 65.0172 61.4065 64.8077 60.7348 64.8009ZM70.6664 70.6668C70.2247 70.6606 69.7861 70.7422 69.3763 70.9069C68.9664 71.0716 68.5933 71.3162 68.2787 71.6263C67.9642 71.9364 67.7144 72.306 67.5439 72.7135C67.3734 73.1211 67.2856 73.5584 67.2856 74.0002C67.2856 74.4419 67.3734 74.8793 67.5439 75.2868C67.7144 75.6943 67.9642 76.0639 68.2787 76.374C68.5933 76.6842 68.9664 76.9287 69.3763 77.0934C69.7861 77.2581 70.2247 77.3397 70.6664 77.3335H104C104.441 77.3397 104.88 77.2581 105.29 77.0934C105.7 76.9287 106.073 76.6842 106.387 76.374C106.702 76.0639 106.952 75.6943 107.122 75.2868C107.293 74.8793 107.381 74.4419 107.381 74.0002C107.381 73.5584 107.293 73.1211 107.122 72.7135C106.952 72.306 106.702 71.9364 106.387 71.6263C106.073 71.3162 105.7 71.0716 105.29 70.9069C104.88 70.7422 104.441 70.6606 104 70.6668H70.6664ZM60.7348 87.3009C59.8681 87.2923 59.0321 87.6216 58.404 88.2189L49.7517 96.2072L46.1677 93.1375C45.8385 92.8331 45.4513 92.5981 45.0292 92.4468C44.6072 92.2954 44.1589 92.2307 43.7112 92.2567C43.2636 92.2826 42.8258 92.3986 42.424 92.5976C42.0222 92.7967 41.6647 93.0748 41.3729 93.4152C41.0811 93.7557 40.8609 94.1515 40.7256 94.579C40.5904 95.0065 40.5427 95.4569 40.5856 95.9033C40.6284 96.3496 40.7609 96.7827 40.975 97.1767C41.1891 97.5707 41.4805 97.9174 41.8318 98.1961L47.6651 103.196C48.2853 103.728 49.0791 104.013 49.8957 103.998C50.7124 103.983 51.4952 103.669 52.0954 103.115L62.9288 93.1148C63.4285 92.6659 63.7811 92.0766 63.9402 91.424C64.0993 90.7713 64.0575 90.0859 63.8203 89.4574C63.5831 88.8289 63.1616 88.2868 62.611 87.902C62.0604 87.5172 61.4065 87.3077 60.7348 87.3009ZM70.6664 94.0002C70.2247 93.9939 69.7861 94.0755 69.3763 94.2402C68.9664 94.405 68.5933 94.6495 68.2787 94.9596C67.9642 95.2698 67.7144 95.6394 67.5439 96.0469C67.3734 96.4544 67.2856 96.8918 67.2856 97.3335C67.2856 97.7753 67.3734 98.2126 67.5439 98.6201C67.7144 99.0276 67.9642 99.3972 68.2787 99.7074C68.5933 100.018 68.9664 100.262 69.3763 100.427C69.7861 100.591 70.2247 100.673 70.6664 100.667H104C104.441 100.673 104.88 100.591 105.29 100.427C105.7 100.262 106.073 100.018 106.387 99.7074C106.702 99.3972 106.952 99.0276 107.122 98.6201C107.293 98.2126 107.381 97.7753 107.381 97.3335C107.381 96.8918 107.293 96.4544 107.122 96.0469C106.952 95.6394 106.702 95.2698 106.387 94.9596C106.073 94.6495 105.7 94.405 105.29 94.2402C104.88 94.0755 104.441 93.9939 104 94.0002H70.6664Z" fill="url(#paint1_linear_6720_13413)"/>
<defs>
<linearGradient id="paint0_linear_6720_13413" x1="3.54934" y1="63.5367" x2="146.08" y2="63.5368" gradientUnits="userSpaceOnUse">
<stop stop-color="#92D65E"/>
<stop offset="1" stop-color="#5DB14C"/>
</linearGradient>
<linearGradient id="paint1_linear_6720_13413" x1="42.1726" y1="68.7878" x2="106.514" y2="68.7878" gradientUnits="userSpaceOnUse">
<stop stop-color="#92D65E"/>
<stop offset="1" stop-color="#5DB14C"/>
</linearGradient>
</defs>
</svg>
