<svg width="148" height="148" viewBox="0 0 148 148" fill="none" xmlns="http://www.w3.org/2000/svg">
<circle cx="74" cy="74" r="73" fill="white" stroke="url(#paint0_linear_6720_13166)" stroke-width="2"/>
<path d="M104.835 72.3333H88.168C87.7096 72.3333 87.3346 71.9583 87.3346 71.5V51.5C87.3346 50.1217 86.213 49 84.8346 49H63.168C61.7896 49 60.668 50.1217 60.668 51.5V61.5C60.668 61.9583 60.293 62.3333 59.8346 62.3333H43.168C41.7896 62.3333 40.668 63.455 40.668 64.8333V98.1667C40.668 99.545 41.7896 100.667 43.168 100.667H104.835C106.213 100.667 107.335 99.545 107.335 98.1667V74.8333C107.335 73.455 106.213 72.3333 104.835 72.3333ZM59.0013 80.6667C59.9213 80.6667 60.668 81.4133 60.668 82.3333C60.668 83.2533 59.9213 84 59.0013 84H52.3346C51.4146 84 50.668 83.2533 50.668 82.3333C50.668 80.195 52.703 79.06 54.498 78.0583C55.7613 77.3517 57.3346 76.475 57.3346 75.6667C57.3346 74.7483 56.5863 74 55.668 74C54.3263 74 53.838 74.7333 53.788 74.8167C53.3163 75.5817 52.3096 75.8617 51.5296 75.4233C50.748 74.98 50.443 74.0233 50.8596 73.2267C51.3563 72.2767 52.928 70.6667 55.668 70.6667C58.4246 70.6667 60.668 72.91 60.668 75.6667C60.668 78.1917 58.5663 79.5833 56.6596 80.6667H59.0013ZM77.3346 69C77.3346 69.92 76.588 70.6667 75.668 70.6667C74.748 70.6667 74.0013 69.92 74.0013 69V61.135L72.7396 61.45C71.8496 61.6733 70.9413 61.13 70.718 60.2367C70.4946 59.3433 71.038 58.4383 71.9313 58.215L75.2646 57.3817C75.7596 57.255 76.2896 57.3683 76.6946 57.685C77.098 58.0017 77.3346 58.4867 77.3346 59V69ZM94.0013 94C91.4863 94 89.9146 93 89.743 92.8867C88.978 92.3767 88.7713 91.3417 89.2813 90.575C89.788 89.815 90.8096 89.605 91.5746 90.1C91.6396 90.1417 92.5263 90.6667 94.0013 90.6667C94.2796 90.6667 95.668 90.6267 95.668 89.8333C95.668 89.04 94.2796 89 94.0013 89C93.0813 89 92.3346 88.2533 92.3346 87.3333C92.3346 86.4133 93.0813 85.6667 94.0013 85.6667C95.2513 85.6667 95.2513 85.165 95.2513 84.8333C95.2513 84.1083 94.338 84 93.793 84C92.623 84 91.8963 84.7117 91.8663 84.7417C91.2213 85.3833 90.1713 85.4017 89.518 84.7683C88.8646 84.135 88.8296 83.1067 89.4513 82.4417C89.623 82.2617 91.193 80.6667 93.793 80.6667C96.6146 80.6667 98.5846 82.38 98.5846 84.8333C98.5846 85.7067 98.358 86.48 97.9463 87.1167C98.6213 87.82 99.0013 88.75 99.0013 89.8333C99.0013 92.325 96.9913 94 94.0013 94Z" fill="url(#paint1_linear_6720_13166)"/>
<defs>
<linearGradient id="paint0_linear_6720_13166" x1="3.54934" y1="63.5367" x2="146.08" y2="63.5368" gradientUnits="userSpaceOnUse">
<stop stop-color="#92D65E"/>
<stop offset="1" stop-color="#5DB14C"/>
</linearGradient>
<linearGradient id="paint1_linear_6720_13166" x1="42.2668" y1="71.1806" x2="106.47" y2="71.1806" gradientUnits="userSpaceOnUse">
<stop stop-color="#92D65E"/>
<stop offset="1" stop-color="#5DB14C"/>
</linearGradient>
</defs>
</svg>
