<svg width="148" height="148" viewBox="0 0 148 148" fill="none" xmlns="http://www.w3.org/2000/svg">
<circle cx="74" cy="74" r="73" fill="white" stroke="url(#paint0_linear_6720_13177)" stroke-width="2"/>
<path d="M52.0618 37.0473C51.5836 37.0527 51.1171 37.195 50.7174 37.4575C45.3889 40.86 40.8582 45.3907 37.4556 50.7192C37.0987 51.2782 36.9783 51.9561 37.1212 52.6038C37.264 53.2515 37.6583 53.816 38.2174 54.173C38.7764 54.5299 39.4543 54.6502 40.102 54.5074C40.7497 54.3645 41.3141 53.9702 41.6711 53.4112C44.6819 48.6964 48.6945 44.6837 53.4094 41.673C53.874 41.3852 54.2315 40.9532 54.4272 40.4431C54.623 39.9329 54.6462 39.3726 54.4934 38.848C54.3405 38.3234 54.02 37.8633 53.5809 37.5381C53.1417 37.2129 52.6082 37.0405 52.0618 37.0473ZM95.8606 37.0473C95.3206 37.0567 94.7981 37.2407 94.3714 37.5717C93.9447 37.9028 93.6366 38.3631 93.4933 38.8839C93.35 39.4046 93.3792 39.9577 93.5765 40.4605C93.7738 40.9633 94.1286 41.3886 94.5878 41.673C99.3027 44.6837 103.315 48.6964 106.326 53.4112C106.503 53.688 106.732 53.9273 107.002 54.1154C107.271 54.3035 107.575 54.4367 107.895 54.5074C108.216 54.5781 108.547 54.585 108.871 54.5276C109.194 54.4702 109.503 54.3497 109.78 54.173C110.057 53.9962 110.296 53.7666 110.484 53.4974C110.672 53.2282 110.805 52.9245 110.876 52.6038C110.947 52.2831 110.954 51.9516 110.896 51.6282C110.839 51.3049 110.718 50.996 110.542 50.7192C107.139 45.3907 102.608 40.86 97.2799 37.4575C96.8589 37.1809 96.3642 37.0379 95.8606 37.0473ZM73.9986 40.6671C55.5886 40.6671 40.6653 55.5904 40.6653 74.0004C40.6653 84.0029 45.092 92.9526 52.0683 99.0623L48.0644 103.066C47.8244 103.297 47.6329 103.572 47.5009 103.878C47.369 104.183 47.2993 104.512 47.2959 104.844C47.2925 105.177 47.3555 105.507 47.4812 105.815C47.607 106.123 47.7929 106.402 48.0281 106.638C48.2632 106.873 48.543 107.059 48.8509 107.184C49.1589 107.31 49.4888 107.373 49.8214 107.37C50.154 107.366 50.4826 107.297 50.7879 107.165C51.0932 107.033 51.3692 106.841 51.5995 106.601L56.108 102.093C61.2807 105.394 67.4069 107.334 73.9986 107.334C80.5903 107.334 86.7165 105.394 91.8892 102.093L96.3977 106.601C96.6281 106.841 96.904 107.033 97.2093 107.165C97.5146 107.297 97.8432 107.366 98.1758 107.37C98.5084 107.373 98.8383 107.31 99.1463 107.184C99.4542 107.059 99.734 106.873 99.9692 106.638C100.204 106.402 100.39 106.123 100.516 105.815C100.642 105.507 100.705 105.177 100.701 104.844C100.698 104.512 100.628 104.183 100.496 103.878C100.364 103.572 100.173 103.297 99.9329 103.066L95.9289 99.0623C102.905 92.9526 107.332 84.0029 107.332 74.0004C107.332 55.5904 92.4086 40.6671 73.9986 40.6671ZM71.4986 54.0004C72.8786 54.0004 73.9986 55.1188 73.9986 56.5004V74.0004H84.8319C86.2119 74.0004 87.3319 75.1188 87.3319 76.5004C87.3319 77.8821 86.2119 79.0004 84.8319 79.0004H71.4986C70.1186 79.0004 68.9986 77.8821 68.9986 76.5004V56.5004C68.9986 55.1188 70.1186 54.0004 71.4986 54.0004Z" fill="url(#paint1_linear_6720_13177)"/>
<defs>
<linearGradient id="paint0_linear_6720_13177" x1="3.54934" y1="63.5367" x2="146.08" y2="63.5368" gradientUnits="userSpaceOnUse">
<stop stop-color="#92D65E"/>
<stop offset="1" stop-color="#5DB14C"/>
</linearGradient>
<linearGradient id="paint1_linear_6720_13177" x1="38.8341" y1="67.2367" x2="109.976" y2="67.2367" gradientUnits="userSpaceOnUse">
<stop stop-color="#92D65E"/>
<stop offset="1" stop-color="#5DB14C"/>
</linearGradient>
</defs>
</svg>
