<svg width="148" height="148" viewBox="0 0 148 148" fill="none" xmlns="http://www.w3.org/2000/svg">
<circle cx="74" cy="74" r="73" fill="white" stroke="url(#paint0_linear_6709_12980)" stroke-width="2"/>
<path d="M48.1667 45.667C43.1117 45.667 39 49.7803 39 54.8337V84.8337C39 89.887 43.1117 94.0003 48.1667 94.0003H99.8333C104.888 94.0003 109 89.887 109 84.8337V54.8337C109 49.7803 104.888 45.667 99.8333 45.667H48.1667ZM74.0033 59.6253C76.9949 59.6253 79.4199 62.0503 79.4199 65.042C79.4199 65.7337 79.2855 66.395 79.0488 67.0016C80.5538 68.3716 81.5033 70.3406 81.5033 72.529C81.5016 76.6706 78.1286 80.0387 73.987 80.0387C69.8586 80.0387 66.5 76.6706 66.5 72.529C66.5 70.3406 67.4494 68.3716 68.9544 67.0016C68.7161 66.395 68.5866 65.7337 68.5866 65.042C68.5866 62.0503 71.0116 59.6253 74.0033 59.6253ZM74.0033 63.792C73.3133 63.792 72.7533 64.352 72.7533 65.042C72.7516 65.7187 73.2844 66.2687 73.9544 66.292H74.0456C74.7139 66.2687 75.2533 65.717 75.2533 65.042C75.2533 64.352 74.6933 63.792 74.0033 63.792ZM73.8698 69.2119C72.0915 69.2802 70.6667 70.7406 70.6667 72.529C70.6667 74.374 72.1553 75.8721 73.987 75.8721C75.832 75.8721 77.3333 74.374 77.3333 72.529C77.3333 70.7406 75.9085 69.2802 74.1302 69.2119H73.8698ZM59.8333 99.0003C59.5021 98.9956 59.1731 99.0568 58.8657 99.1804C58.5583 99.3039 58.2785 99.4873 58.0426 99.7199C57.8067 99.9525 57.6193 100.23 57.4914 100.535C57.3636 100.841 57.2977 101.169 57.2977 101.5C57.2977 101.832 57.3636 102.16 57.4914 102.465C57.6193 102.771 57.8067 103.048 58.0426 103.281C58.2785 103.513 58.5583 103.697 58.8657 103.82C59.1731 103.944 59.5021 104.005 59.8333 104H88.1667C88.4979 104.005 88.8269 103.944 89.1343 103.82C89.4417 103.697 89.7215 103.513 89.9574 103.281C90.1933 103.048 90.3807 102.771 90.5086 102.465C90.6364 102.16 90.7023 101.832 90.7023 101.5C90.7023 101.169 90.6364 100.841 90.5086 100.535C90.3807 100.23 90.1933 99.9525 89.9574 99.7199C89.7215 99.4873 89.4417 99.3039 89.1343 99.1804C88.8269 99.0568 88.4979 98.9956 88.1667 99.0003H59.8333Z" fill="url(#paint1_linear_6709_12980)"/>
<defs>
<linearGradient id="paint0_linear_6709_12980" x1="3.54934" y1="63.5367" x2="146.08" y2="63.5368" gradientUnits="userSpaceOnUse">
<stop stop-color="#92D65E"/>
<stop offset="1" stop-color="#5DB14C"/>
</linearGradient>
<linearGradient id="paint1_linear_6709_12980" x1="40.6787" y1="70.7097" x2="108.092" y2="70.7097" gradientUnits="userSpaceOnUse">
<stop stop-color="#92D65E"/>
<stop offset="1" stop-color="#5DB14C"/>
</linearGradient>
</defs>
</svg>
