<svg width="148" height="148" viewBox="0 0 148 148" fill="none" xmlns="http://www.w3.org/2000/svg">
<circle cx="74" cy="74" r="73" fill="white" stroke="url(#paint0_linear_6720_13295)" stroke-width="2"/>
<path d="M75.9987 43C74.2306 43 72.5349 43.7024 71.2847 44.9526C70.0344 46.2029 69.332 47.8986 69.332 49.6667C69.332 51.4348 70.0344 53.1305 71.2847 54.3807C72.5349 55.631 74.2306 56.3333 75.9987 56.3333C77.7668 56.3333 79.4625 55.631 80.7127 54.3807C81.963 53.1305 82.6654 51.4348 82.6654 49.6667C82.6654 47.8986 81.963 46.2029 80.7127 44.9526C79.4625 43.7024 77.7668 43 75.9987 43ZM54.2376 49.6374C53.5456 49.6487 52.8742 49.8751 52.3166 50.2852C51.7591 50.6954 51.343 51.2689 51.1262 51.9262C50.9093 52.5835 50.9025 53.2921 51.1065 53.9534C51.3106 54.6148 51.7155 55.1963 52.265 55.6172L66.2656 66.6719C66.0964 67.3666 65.9987 68.0876 65.9987 68.8333V78.0488C68.832 76.9488 72.232 76.3333 75.9987 76.3333C79.7654 76.3333 83.1654 76.9488 85.9987 78.0488V68.8333C85.9987 68.0876 85.901 67.3666 85.7318 66.6719L99.7324 55.6172C100.288 55.1912 100.696 54.6009 100.898 53.9301C101.099 53.2593 101.085 52.542 100.855 51.8801C100.626 51.2182 100.194 50.6453 99.6212 50.2427C99.048 49.8401 98.3625 49.6283 97.6621 49.6374C96.9098 49.6458 96.1824 49.9086 95.5983 50.3828L81.8939 61.1999C80.4418 60.2333 78.7013 59.6667 76.832 59.6667H75.1654C73.2961 59.6667 71.5556 60.2333 70.1035 61.1999L56.3991 50.3828C55.789 49.8873 55.0235 49.6233 54.2376 49.6374ZM75.9987 81.3333C72.4625 81.3333 69.0711 82.0357 66.5706 83.286C64.0701 84.5362 62.6654 86.2319 62.6654 88C62.6654 89.7681 64.0701 91.4638 66.5706 92.714C69.0711 93.9643 72.4625 94.6667 75.9987 94.6667C79.5349 94.6667 82.9263 93.9643 85.4268 92.714C87.9273 91.4638 89.332 89.7681 89.332 88C89.332 86.2319 87.9273 84.5362 85.4268 83.286C82.9263 82.0357 79.5349 81.3333 75.9987 81.3333ZM52.6654 86.3333C45.2987 86.3333 39.332 89.3167 39.332 93C39.332 96.6833 45.2987 99.6667 52.6654 99.6667C54.432 99.6667 56.1154 99.4987 57.6654 99.1654V86.8346C56.1154 86.5013 54.432 86.3333 52.6654 86.3333ZM99.332 86.3333C97.5654 86.3333 95.882 86.5013 94.332 86.8346V99.1654C95.882 99.4987 97.5654 99.6667 99.332 99.6667C106.699 99.6667 112.665 96.6833 112.665 93C112.665 89.3167 106.699 86.3333 99.332 86.3333ZM62.6654 93V98C62.6654 101.683 68.632 104.667 75.9987 104.667C83.3654 104.667 89.332 101.683 89.332 98V93C89.332 96.6833 83.3654 99.6667 75.9987 99.6667C68.632 99.6667 62.6654 96.6833 62.6654 93ZM39.332 98V103C39.332 106.683 45.2987 109.667 52.6654 109.667C54.432 109.667 56.1154 109.499 57.6654 109.165V104.165C56.1154 104.499 54.432 104.667 52.6654 104.667C45.2987 104.667 39.332 101.683 39.332 98ZM112.665 98C112.665 101.683 106.699 104.667 99.332 104.667C97.5654 104.667 95.882 104.499 94.332 104.165V109.165C95.882 109.499 97.5654 109.667 99.332 109.667C106.699 109.667 112.665 106.683 112.665 103V98ZM62.6654 103V108C62.6654 111.683 68.632 114.667 75.9987 114.667C83.3654 114.667 89.332 111.683 89.332 108V103C89.332 106.683 83.3654 109.667 75.9987 109.667C68.632 109.667 62.6654 106.683 62.6654 103Z" fill="url(#paint1_linear_6720_13295)"/>
<defs>
<linearGradient id="paint0_linear_6720_13295" x1="3.54934" y1="63.5367" x2="146.08" y2="63.5368" gradientUnits="userSpaceOnUse">
<stop stop-color="#92D65E"/>
<stop offset="1" stop-color="#5DB14C"/>
</linearGradient>
<linearGradient id="paint1_linear_6720_13295" x1="41.0907" y1="73.7667" x2="111.714" y2="73.7667" gradientUnits="userSpaceOnUse">
<stop stop-color="#92D65E"/>
<stop offset="1" stop-color="#5DB14C"/>
</linearGradient>
</defs>
</svg>
