<svg width="148" height="148" viewBox="0 0 148 148" fill="none" xmlns="http://www.w3.org/2000/svg">
<circle cx="74" cy="74" r="73" fill="white" stroke="url(#paint0_linear_6709_12918)" stroke-width="2"/>
<path d="M91.4987 40.667H56.4987C51.4454 40.667 47.332 44.7787 47.332 49.8337V98.167C47.332 103.222 51.4454 107.334 56.4987 107.334H91.4987C96.552 107.334 100.665 103.222 100.665 98.167V49.8337C100.665 44.7787 96.552 40.667 91.4987 40.667ZM61.4987 95.667C59.197 95.667 57.332 93.802 57.332 91.5003C57.332 89.1987 59.197 87.3337 61.4987 87.3337C63.8004 87.3337 65.6654 89.1987 65.6654 91.5003C65.6654 93.802 63.8004 95.667 61.4987 95.667ZM61.4987 84.0003C59.197 84.0003 57.332 82.1353 57.332 79.8337C57.332 77.532 59.197 75.667 61.4987 75.667C63.8004 75.667 65.6654 77.532 65.6654 79.8337C65.6654 82.1353 63.8004 84.0003 61.4987 84.0003ZM73.9987 95.667C71.697 95.667 69.832 93.802 69.832 91.5003C69.832 89.1987 71.697 87.3337 73.9987 87.3337C76.3004 87.3337 78.1654 89.1987 78.1654 91.5003C78.1654 93.802 76.3004 95.667 73.9987 95.667ZM73.9987 84.0003C71.697 84.0003 69.832 82.1353 69.832 79.8337C69.832 77.532 71.697 75.667 73.9987 75.667C76.3004 75.667 78.1654 77.532 78.1654 79.8337C78.1654 82.1353 76.3004 84.0003 73.9987 84.0003ZM90.6654 91.5003C90.6654 93.802 88.8004 95.667 86.4987 95.667C84.197 95.667 82.332 93.802 82.332 91.5003C82.332 89.912 82.332 81.4253 82.332 79.8337C82.332 77.532 84.197 75.667 86.4987 75.667C88.8004 75.667 90.6654 77.532 90.6654 79.8337C90.6654 81.4253 90.6654 89.912 90.6654 91.5003ZM90.6654 64.9003C90.6654 67.162 88.8254 69.0003 86.5637 69.0003H61.4337C59.172 69.0003 57.332 67.1603 57.332 64.9003V56.4337C57.332 54.172 59.172 52.3337 61.4337 52.3337H86.5637C88.8254 52.3337 90.6654 54.1737 90.6654 56.4337V64.9003Z" fill="url(#paint1_linear_6709_12918)"/>
<defs>
<linearGradient id="paint0_linear_6709_12918" x1="3.54934" y1="63.5367" x2="146.08" y2="63.5368" gradientUnits="userSpaceOnUse">
<stop stop-color="#92D65E"/>
<stop offset="1" stop-color="#5DB14C"/>
</linearGradient>
<linearGradient id="paint1_linear_6709_12918" x1="48.6111" y1="69.2871" x2="99.9734" y2="69.2871" gradientUnits="userSpaceOnUse">
<stop stop-color="#92D65E"/>
<stop offset="1" stop-color="#5DB14C"/>
</linearGradient>
</defs>
</svg>
