<svg width="148" height="148" viewBox="0 0 148 148" fill="none" xmlns="http://www.w3.org/2000/svg">
<circle cx="74" cy="74" r="73" fill="white" stroke="url(#paint0_linear_6720_13306)" stroke-width="2"/>
<path d="M43.1654 49C39.9487 49 37.332 51.6167 37.332 54.8333V83.1667C37.332 86.3833 39.9487 89 43.1654 89H43.9987H75.1152C75.8486 87.1333 76.9326 85.4333 78.2826 84H50.4473C50.7015 83.0154 50.7271 81.9856 50.5221 80.9896C50.3172 79.9936 49.8871 79.0576 49.2647 78.2534C48.6424 77.4491 47.8443 76.7979 46.9316 76.3496C46.0188 75.9012 45.0156 75.6676 43.9987 75.6667C43.436 75.6698 42.876 75.7442 42.332 75.888V62.1185C42.8763 62.2601 43.4363 62.3323 43.9987 62.3333C45.0156 62.3324 46.0188 62.0988 46.9316 61.6504C47.8443 61.2021 48.6424 60.5509 49.2647 59.7466C49.8871 58.9424 50.3172 58.0064 50.5221 57.0104C50.7271 56.0143 50.7015 54.9846 50.4473 54H97.5501C97.2959 54.9846 97.2703 56.0143 97.4753 57.0104C97.6802 58.0064 98.1103 58.9424 98.7327 59.7466C99.355 60.5509 100.153 61.2021 101.066 61.6504C101.979 62.0988 102.982 62.3324 103.999 62.3333C104.561 62.3302 105.121 62.2558 105.665 62.112V73.3001C107.599 74.0835 109.315 75.3016 110.665 76.8516V54.8333C110.665 51.6167 108.049 49 104.832 49H103.999H43.9987H43.1654ZM73.9987 59C71.7886 59 69.6689 60.0536 68.1061 61.9289C66.5433 63.8043 65.6654 66.3478 65.6654 69C65.6654 71.6522 66.5433 74.1957 68.1061 76.0711C69.6689 77.9464 71.7886 79 73.9987 79C76.2088 79 78.3285 77.9464 79.8913 76.0711C81.4541 74.1957 82.332 71.6522 82.332 69C82.332 66.3478 81.4541 63.8043 79.8913 61.9289C78.3285 60.0536 76.2088 59 73.9987 59ZM55.6654 65.6667C54.7813 65.6667 53.9335 66.0179 53.3083 66.643C52.6832 67.2681 52.332 68.1159 52.332 69C52.332 69.8841 52.6832 70.7319 53.3083 71.357C53.9335 71.9821 54.7813 72.3333 55.6654 72.3333C56.5494 72.3333 57.3973 71.9821 58.0224 71.357C58.6475 70.7319 58.9987 69.8841 58.9987 69C58.9987 68.1159 58.6475 67.2681 58.0224 66.643C57.3973 66.0179 56.5494 65.6667 55.6654 65.6667ZM92.332 65.6667C91.448 65.6667 90.6001 66.0179 89.975 66.643C89.3499 67.2681 88.9987 68.1159 88.9987 69C88.9987 69.8841 89.3499 70.7319 89.975 71.357C90.6001 71.9821 91.448 72.3333 92.332 72.3333C93.2161 72.3333 94.0639 71.9821 94.6891 71.357C95.3142 70.7319 95.6654 69.8841 95.6654 69C95.6654 68.1159 95.3142 67.2681 94.6891 66.643C94.0639 66.0179 93.2161 65.6667 92.332 65.6667ZM100.665 75.6667C97.5654 75.6667 94.7806 77.0828 92.9473 79.2995C100.047 80.7328 105.432 86.882 105.649 94.332C108.649 92.5987 110.665 89.3667 110.665 85.6667C110.665 80.15 106.182 75.6667 100.665 75.6667ZM89.832 82.3333C86.5168 82.3333 83.3374 83.6503 80.9932 85.9945C78.649 88.3387 77.332 91.5181 77.332 94.8333C77.332 98.1485 78.649 101.328 80.9932 103.672C83.3374 106.016 86.5168 107.333 89.832 107.333C93.1472 107.333 96.3267 106.016 98.6709 103.672C101.015 101.328 102.332 98.1485 102.332 94.8333C102.332 91.5181 101.015 88.3387 98.6709 85.9945C96.3267 83.6503 93.1472 82.3333 89.832 82.3333Z" fill="url(#paint1_linear_6720_13306)"/>
<defs>
<linearGradient id="paint0_linear_6720_13306" x1="3.54934" y1="63.5367" x2="146.08" y2="63.5368" gradientUnits="userSpaceOnUse">
<stop stop-color="#92D65E"/>
<stop offset="1" stop-color="#5DB14C"/>
</linearGradient>
<linearGradient id="paint1_linear_6720_13306" x1="39.0907" y1="74.0426" x2="109.714" y2="74.0426" gradientUnits="userSpaceOnUse">
<stop stop-color="#92D65E"/>
<stop offset="1" stop-color="#5DB14C"/>
</linearGradient>
</defs>
</svg>
