<svg width="148" height="148" viewBox="0 0 148 148" fill="none" xmlns="http://www.w3.org/2000/svg">
<circle cx="74" cy="74" r="73" fill="white" stroke="url(#paint0_linear_6720_13255)" stroke-width="2"/>
<path d="M74.8346 40.667C58.658 40.667 49.0013 49.7003 49.0013 64.8337V70.7028C46.913 72.2511 45.668 74.6703 45.668 77.3337C45.668 81.262 48.3995 84.5625 52.0645 85.4391C55.3861 98.6108 64.0446 107.334 74.0013 107.334C75.3813 107.334 76.5013 106.215 76.5013 104.834C76.5013 103.452 75.3813 102.334 74.0013 102.334C66.158 102.334 58.9802 94.2362 56.5469 82.6429C56.3035 81.4862 55.2855 80.6572 54.1022 80.6572C54.0455 80.6572 53.9736 80.6587 53.9036 80.6637C52.1103 80.6137 50.668 79.1387 50.668 77.3337C50.668 76.0587 51.3989 74.9232 52.5755 74.3649C53.4472 73.9499 54.0013 73.0708 54.0013 72.1058V67.6234C60.4263 65.9367 64.449 62.507 66.5957 60.1104C69.3307 61.7787 74.7196 64.0003 84.0013 64.0003C87.5792 64.0003 90.6838 63.6785 93.1615 63.2744C93.5537 64.4489 94.0013 66.1701 94.0013 68.167V84.8337C94.0013 89.0062 90.6738 92.3337 86.5013 92.3337H83.4349C82.9621 91.3368 82.2162 90.4945 81.284 89.9045C80.3517 89.3145 79.2712 89.001 78.168 89.0003C77.4019 89.0003 76.6434 89.1512 75.9356 89.4444C75.2279 89.7375 74.5849 90.1672 74.0432 90.7089C73.5015 91.2505 73.0718 91.8936 72.7787 92.6013C72.4855 93.3091 72.3346 94.0676 72.3346 94.8337C72.3346 95.5997 72.4855 96.3582 72.7787 97.066C73.0718 97.7737 73.5015 98.4168 74.0432 98.9584C74.5849 99.5001 75.2279 99.9298 75.9356 100.223C76.6434 100.516 77.4019 100.667 78.168 100.667C79.2707 100.666 80.3505 100.352 81.2821 99.7619C82.2137 99.1719 82.959 98.33 83.4316 97.3337H86.5013C93.0942 97.3337 98.5244 92.1549 98.959 85.667H99.0013C102.683 85.667 105.668 82.682 105.668 79.0003V75.667C105.668 71.9853 102.683 69.0003 99.0013 69.0003V68.167C99.0013 65.7375 98.5164 63.5794 98.0312 62.0277C99.002 61.4871 99.779 60.6458 100.235 59.6123C100.832 58.2573 100.81 56.7154 100.173 55.387C95.6998 46.0304 86.463 40.667 74.8346 40.667ZM65.668 74.0003C64.7839 74.0003 63.9361 74.3515 63.3109 74.9766C62.6858 75.6018 62.3346 76.4496 62.3346 77.3337C62.3346 78.2177 62.6858 79.0656 63.3109 79.6907C63.9361 80.3158 64.7839 80.667 65.668 80.667C66.552 80.667 67.3999 80.3158 68.025 79.6907C68.6501 79.0656 69.0013 78.2177 69.0013 77.3337C69.0013 76.4496 68.6501 75.6018 68.025 74.9766C67.3999 74.3515 66.552 74.0003 65.668 74.0003ZM82.3346 74.0003C81.4639 74.0022 80.6285 74.3447 80.0071 74.9545C79.3856 75.5643 79.0275 76.3931 79.0092 77.2636C78.9909 78.1342 79.3139 78.9773 79.9092 79.6127C80.5045 80.2481 81.3248 80.6253 82.1947 80.6637C82.2413 80.6658 82.288 80.6669 82.3346 80.667C83.2187 80.667 84.0665 80.3158 84.6917 79.6907C85.3168 79.0656 85.668 78.2177 85.668 77.3337C85.668 76.4496 85.3168 75.6018 84.6917 74.9766C84.0665 74.3515 83.2187 74.0003 82.3346 74.0003Z" fill="url(#paint1_linear_6720_13255)"/>
<defs>
<linearGradient id="paint0_linear_6720_13255" x1="3.54934" y1="63.5367" x2="146.08" y2="63.5368" gradientUnits="userSpaceOnUse">
<stop stop-color="#92D65E"/>
<stop offset="1" stop-color="#5DB14C"/>
</linearGradient>
<linearGradient id="paint1_linear_6720_13255" x1="47.1069" y1="69.2871" x2="104.889" y2="69.2871" gradientUnits="userSpaceOnUse">
<stop stop-color="#92D65E"/>
<stop offset="1" stop-color="#5DB14C"/>
</linearGradient>
</defs>
</svg>
