<svg width="148" height="148" viewBox="0 0 148 148" fill="none" xmlns="http://www.w3.org/2000/svg">
<circle cx="74" cy="74" r="73" fill="white" stroke="url(#paint0_linear_6720_13322)" stroke-width="2"/>
<path d="M46.5 44C42.3583 44 39 47.3583 39 51.5V89.8333C39 93.975 42.3583 97.3333 46.5 97.3333H47.6914C48.7904 101.164 52.3338 104 56.5 104C60.6662 104 64.2096 101.164 65.3086 97.3333H76.5C77.88 97.3333 79 96.2133 79 94.8333V65.6667H64.8333C60.6983 65.6667 57.3333 62.3017 57.3333 58.1667V44H46.5ZM62.3333 44.127V58.1667C62.3333 59.545 63.455 60.6667 64.8333 60.6667H78.873L62.3333 44.127ZM82.3333 60.6667V94.8333C82.3333 99.866 86.4673 104 91.5 104C95.6662 104 99.2096 101.164 100.309 97.3333H101.5C105.642 97.3333 109 93.975 109 89.8333V79.2279C109 78.1779 108.779 77.1393 108.352 76.181L103.437 65.123C102.234 62.413 99.548 60.6667 96.5846 60.6667H82.3333ZM89 65.6667H96.5846C97.573 65.6667 98.4665 66.2477 98.8665 67.151L101.607 73.3229C102.097 74.4246 101.292 75.6667 100.087 75.6667H89C88.08 75.6667 87.3333 74.92 87.3333 74V67.3333C87.3333 66.4133 88.08 65.6667 89 65.6667ZM56.5 90.6667C58.8273 90.6667 60.6667 92.506 60.6667 94.8333C60.6667 97.1607 58.8273 99 56.5 99C54.1727 99 52.3333 97.1607 52.3333 94.8333C52.3333 92.506 54.1727 90.6667 56.5 90.6667ZM91.5 90.6667C93.8273 90.6667 95.6667 92.506 95.6667 94.8333C95.6667 97.1607 93.8273 99 91.5 99C89.1727 99 87.3333 97.1607 87.3333 94.8333C87.3333 92.506 89.1727 90.6667 91.5 90.6667Z" fill="url(#paint1_linear_6720_13322)"/>
<defs>
<linearGradient id="paint0_linear_6720_13322" x1="3.54934" y1="63.5367" x2="146.08" y2="63.5368" gradientUnits="userSpaceOnUse">
<stop stop-color="#92D65E"/>
<stop offset="1" stop-color="#5DB14C"/>
</linearGradient>
<linearGradient id="paint1_linear_6720_13322" x1="40.6787" y1="69.7581" x2="108.092" y2="69.7581" gradientUnits="userSpaceOnUse">
<stop stop-color="#92D65E"/>
<stop offset="1" stop-color="#5DB14C"/>
</linearGradient>
</defs>
</svg>
