<svg width="148" height="148" viewBox="0 0 148 148" fill="none" xmlns="http://www.w3.org/2000/svg">
<circle cx="74" cy="74" r="73" fill="white" stroke="url(#paint0_linear_6709_12802)" stroke-width="2"/>
<g clip-path="url(#clip0_6709_12802)">
<path d="M81.5005 42.333C80.8374 42.333 80.2015 42.5964 79.7327 43.0652C79.2638 43.5341 79.0005 44.17 79.0005 44.833V47.0335C79.0094 47.1332 79.0094 47.2334 79.0005 47.333V55.6663C79.0005 56.1084 78.8249 56.5323 78.5123 56.8449C78.1997 57.1574 77.7758 57.333 77.3338 57.333C76.8918 57.333 76.4678 57.1574 76.1553 56.8449C75.8427 56.5323 75.6671 56.1084 75.6671 55.6663V48.2673C71.8708 49.719 68.4857 52.0744 65.805 55.1294C63.1243 58.1844 61.2289 61.847 60.283 65.7998C60.683 65.7124 61.0911 65.6676 61.5005 65.6663H66.5005C68.0053 65.6733 69.45 66.2583 70.5357 67.3004C71.6214 68.3425 72.2651 69.762 72.3338 71.2653L72.949 71.5843L73.6163 71.8512C77.5869 73.4571 81.1676 75.8946 84.1176 78.9997H111.5C112.163 78.9997 112.799 78.7363 113.268 78.2674C113.737 77.7986 114 77.1627 114 76.4997C114 75.8366 113.737 75.2007 113.268 74.7319C112.799 74.2631 112.163 73.9997 111.5 73.9997H109C108.384 61.133 102.917 52.6673 92.3338 48.2673V55.6663C92.3338 56.1084 92.1582 56.5323 91.8456 56.8449C91.5331 57.1574 91.1091 57.333 90.6671 57.333C90.2251 57.333 89.8012 57.1574 89.4886 56.8449C89.176 56.5323 89.0005 56.1084 89.0005 55.6663V47.333C88.9924 47.2388 88.9924 47.144 89.0005 47.0498V44.833C89.0005 44.17 88.7371 43.5341 88.2682 43.0652C87.7994 42.5964 87.1635 42.333 86.5005 42.333H81.5005ZM61.5005 68.9997C60.8374 68.9997 60.2015 69.2631 59.7327 69.7319C59.2638 70.2007 59.0005 70.8366 59.0005 71.4997V82.333C59.0005 82.775 58.8249 83.199 58.5123 83.5115C58.1997 83.8241 57.7758 83.9997 57.3338 83.9997C56.8918 83.9997 56.4678 83.8241 56.1553 83.5115C55.8427 83.199 55.6671 82.775 55.6671 82.333V74.9339C45.1514 79.3377 39.6787 87.8096 39.0623 100.666H36.5005C36.1692 100.662 35.8403 100.723 35.5328 100.846C35.2254 100.97 34.9456 101.153 34.7097 101.386C34.4738 101.619 34.2864 101.896 34.1586 102.201C34.0307 102.507 33.9648 102.835 33.9648 103.166C33.9648 103.498 34.0307 103.826 34.1586 104.131C34.2864 104.437 34.4738 104.714 34.7097 104.947C34.9456 105.179 35.2254 105.363 35.5328 105.486C35.8403 105.61 36.1692 105.671 36.5005 105.666H91.5005C91.8317 105.671 92.1606 105.61 92.4681 105.486C92.7755 105.363 93.0553 105.179 93.2912 104.947C93.5271 104.714 93.7145 104.437 93.8423 104.131C93.9702 103.826 94.0361 103.498 94.0361 103.166C94.0361 102.835 93.9702 102.507 93.8423 102.201C93.7145 101.896 93.5271 101.619 93.2912 101.386C93.0553 101.153 92.7755 100.97 92.4681 100.846C92.1606 100.723 91.8317 100.662 91.5005 100.666H88.9386C88.3222 87.8096 82.8495 79.3377 72.3338 74.9339V82.333C72.3338 82.775 72.1582 83.199 71.8456 83.5115C71.5331 83.8241 71.1091 83.9997 70.6671 83.9997C70.2251 83.9997 69.8012 83.8241 69.4886 83.5115C69.176 83.199 69.0005 82.775 69.0005 82.333V71.4997C69.0005 70.8366 68.7371 70.2007 68.2682 69.7319C67.7994 69.2631 67.1635 68.9997 66.5005 68.9997H61.5005Z" fill="url(#paint1_linear_6709_12802)"/>
</g>
<defs>
<linearGradient id="paint0_linear_6709_12802" x1="3.54934" y1="63.5367" x2="146.08" y2="63.5368" gradientUnits="userSpaceOnUse">
<stop stop-color="#92D65E"/>
<stop offset="1" stop-color="#5DB14C"/>
</linearGradient>
<linearGradient id="paint1_linear_6709_12802" x1="35.8843" y1="69.5223" x2="112.962" y2="69.5223" gradientUnits="userSpaceOnUse">
<stop stop-color="#92D65E"/>
<stop offset="1" stop-color="#5DB14C"/>
</linearGradient>
<clipPath id="clip0_6709_12802">
<rect width="80" height="80" fill="white" transform="translate(34 34)"/>
</clipPath>
</defs>
</svg>
