<svg width="148" height="148" viewBox="0 0 148 148" fill="none" xmlns="http://www.w3.org/2000/svg">
<circle cx="74" cy="74" r="73" fill="white" stroke="url(#paint0_linear_6709_12801)" stroke-width="2"/>
<path d="M56.4987 40.667C51.4437 40.667 47.332 44.7787 47.332 49.8337V94.0003V96.5003V98.167C47.332 103.2 51.4657 107.334 56.4987 107.334H99.832C100.163 107.338 100.492 107.277 100.8 107.154C101.107 107.03 101.387 106.847 101.623 106.614C101.859 106.381 102.046 106.104 102.174 105.799C102.302 105.493 102.368 105.165 102.368 104.834C102.368 104.502 102.302 104.174 102.174 103.869C102.046 103.563 101.859 103.286 101.623 103.053C101.387 102.821 101.107 102.637 100.8 102.514C100.492 102.39 100.163 102.329 99.832 102.334H56.4987C54.4541 102.334 52.7941 100.921 52.4167 99.0003H99.832C101.214 99.0003 102.332 97.882 102.332 96.5003V49.8337C102.332 44.7787 98.2204 40.667 93.1654 40.667H92.332V68.167C92.332 69.0487 91.8664 69.8654 91.1081 70.3154C90.7147 70.5488 90.2737 70.667 89.832 70.667C89.4204 70.667 89.0074 70.5643 88.6341 70.361L80.6654 66.012L72.6966 70.361C71.9233 70.7843 70.9843 70.7671 70.2227 70.3154C69.4643 69.8671 68.9987 69.0487 68.9987 68.167V40.667H56.4987ZM73.9987 40.667V63.9548L79.4674 60.973C79.8391 60.7696 80.2537 60.667 80.6654 60.667C81.077 60.667 81.4916 60.7696 81.8633 60.973L87.332 63.9548V40.667H73.9987Z" fill="url(#paint1_linear_6709_12801)"/>
<defs>
<linearGradient id="paint0_linear_6709_12801" x1="3.54934" y1="63.5367" x2="146.08" y2="63.5368" gradientUnits="userSpaceOnUse">
<stop stop-color="#92D65E"/>
<stop offset="1" stop-color="#5DB14C"/>
</linearGradient>
<linearGradient id="paint1_linear_6709_12801" x1="48.6519" y1="69.2873" x2="101.654" y2="69.2873" gradientUnits="userSpaceOnUse">
<stop stop-color="#92D65E"/>
<stop offset="1" stop-color="#5DB14C"/>
</linearGradient>
</defs>
</svg>
