<svg width="148" height="148" viewBox="0 0 148 148" fill="none" xmlns="http://www.w3.org/2000/svg">
<circle cx="74" cy="74" r="73" fill="white" stroke="url(#paint0_linear_6720_13466)" stroke-width="2"/>
<path d="M76.7028 43.977C76.0536 43.996 75.4371 44.2668 74.9841 44.7323L73.8057 45.9106L62.0218 57.6945L60.8402 58.8729C60.4234 59.2903 60.1675 59.8416 60.1178 60.4294C60.0682 61.0171 60.2278 61.6036 60.5687 62.085C60.9095 62.5665 61.4095 62.9119 61.9804 63.0604C62.5513 63.2088 63.1563 63.1507 63.6885 62.8963L85.1045 84.3156C84.852 84.8476 84.7953 85.4517 84.9444 86.0214C85.0936 86.5912 85.439 87.09 85.9199 87.43C86.4007 87.77 86.9861 87.9294 87.573 87.8802C88.1599 87.8309 88.7105 87.5761 89.1279 87.1606L90.3063 85.979L102.093 74.1919L103.269 73.0168C103.63 72.6657 103.878 72.2135 103.978 71.7194C104.078 71.2253 104.027 70.7124 103.83 70.2481C103.634 69.7838 103.302 69.3897 102.877 69.1176C102.453 68.8454 101.956 68.7079 101.452 68.7231C101.092 68.7354 100.739 68.8254 100.417 68.9868L79.014 47.5838C79.205 47.1973 79.2927 46.7681 79.2688 46.3376C79.2449 45.9072 79.1101 45.4903 78.8776 45.1274C78.645 44.7644 78.3225 44.4678 77.9415 44.2662C77.5604 44.0647 77.1337 43.965 76.7028 43.977ZM75.5733 51.2134L77.93 53.5701L69.6813 61.8188L67.3246 59.4621L75.5733 51.2134ZM94.4307 70.0675L96.7875 72.4243L88.5388 80.6763L86.182 78.3195L94.4307 70.0675ZM68.695 73.7882C56.9767 83.7182 49.288 90.4859 45.863 93.8859C44.893 94.8476 44.2066 96.0856 44.0433 97.4406C43.825 99.2639 44.44 101.021 45.71 102.291C46.9816 103.563 48.7369 104.176 50.5602 103.958C51.9152 103.796 53.1517 103.109 54.1117 102.141C57.315 98.9144 64.8893 89.8509 74.001 79.0942L68.695 73.7882ZM74.8343 98.9998C74.503 98.9951 74.1741 99.0563 73.8667 99.1799C73.5593 99.3034 73.2795 99.4868 73.0436 99.7194C72.8076 99.952 72.6203 100.229 72.4924 100.535C72.3646 100.841 72.2987 101.169 72.2987 101.5C72.2987 101.831 72.3646 102.159 72.4924 102.465C72.6203 102.77 72.8076 103.048 73.0436 103.28C73.2795 103.513 73.5593 103.696 73.8667 103.82C74.1741 103.943 74.503 104.005 74.8343 104H101.501C101.832 104.005 102.161 103.943 102.469 103.82C102.776 103.696 103.056 103.513 103.292 103.28C103.528 103.048 103.715 102.77 103.843 102.465C103.971 102.159 104.037 101.831 104.037 101.5C104.037 101.169 103.971 100.841 103.843 100.535C103.715 100.229 103.528 99.952 103.292 99.7194C103.056 99.4868 102.776 99.3034 102.469 99.1799C102.161 99.0563 101.832 98.9951 101.501 98.9998H74.8343Z" fill="url(#paint1_linear_6720_13466)"/>
<defs>
<linearGradient id="paint0_linear_6720_13466" x1="3.54934" y1="63.5367" x2="146.08" y2="63.5368" gradientUnits="userSpaceOnUse">
<stop stop-color="#92D65E"/>
<stop offset="1" stop-color="#5DB14C"/>
</linearGradient>
<linearGradient id="paint1_linear_6720_13466" x1="45.4398" y1="69.7449" x2="103.258" y2="69.7449" gradientUnits="userSpaceOnUse">
<stop stop-color="#92D65E"/>
<stop offset="1" stop-color="#5DB14C"/>
</linearGradient>
</defs>
</svg>
