<svg width="148" height="148" viewBox="0 0 148 148" fill="none" xmlns="http://www.w3.org/2000/svg">
<circle cx="74" cy="74" r="73" fill="white" stroke="url(#paint0_linear_6709_12868)" stroke-width="2"/>
<path fill-rule="evenodd" clip-rule="evenodd" d="M110.668 53.167C110.668 49.032 107.303 45.667 103.168 45.667H74.8346C70.6996 45.667 67.3346 49.032 67.3346 53.167V94.8337C67.3346 96.2153 68.4546 97.3337 69.8346 97.3337H84.3594C85.4584 101.164 89.0017 104 93.168 104C97.3342 104 100.878 101.164 101.977 97.3337H103.168C107.303 97.3337 110.668 93.9687 110.668 89.8337V53.167ZM64.0013 94.8337V60.667H49.75C46.7867 60.667 44.1011 62.4134 42.8978 65.1234L37.9824 76.1813C37.5558 77.1396 37.3346 78.1782 37.3346 79.2282V89.8337C37.3346 93.9753 40.693 97.3337 44.8346 97.3337H46.026C47.125 101.164 50.6684 104 54.8346 104C59.8673 104 64.0013 99.8663 64.0013 94.8337ZM49.75 65.667H57.3346C58.2546 65.667 59.0013 66.4137 59.0013 67.3337V74.0003C59.0013 74.9203 58.2546 75.667 57.3346 75.667H46.2474C45.0424 75.667 44.2372 74.4249 44.7272 73.3232L47.4681 67.1514C47.8681 66.248 48.7617 65.667 49.75 65.667ZM89.0013 94.8337C89.0013 92.5063 90.8406 90.667 93.168 90.667C95.4953 90.667 97.3346 92.5063 97.3346 94.8337C97.3346 97.161 95.4953 99.0003 93.168 99.0003C90.8406 99.0003 89.0013 97.161 89.0013 94.8337ZM50.668 94.8337C50.668 92.5063 52.5073 90.667 54.8346 90.667C57.162 90.667 59.0013 92.5063 59.0013 94.8337C59.0013 97.161 57.162 99.0003 54.8346 99.0003C52.5073 99.0003 50.668 97.161 50.668 94.8337ZM92.2397 61.0881C93.1119 60.8318 94.062 61.1472 94.6077 61.8715C97.0586 65.1237 97.9648 69.11 97.999 71.5343C98.0526 75.7473 96.05 80.0786 91.4508 80.2604H91.3972C90.5592 80.2604 89.2485 80.2357 87.8111 79.1221C87.7185 79.0532 87.6454 78.9645 87.5967 78.8659V78.861C90.3789 76.2938 92.2791 72.7903 93.1123 68.5773C93.1903 68.1782 92.9369 67.7889 92.5374 67.7101C92.1427 67.6263 91.7578 67.8875 91.6798 68.2915C90.9801 71.8295 89.457 74.8185 87.2576 77.1142C85.617 78.9221 83.6329 80.25 81.4106 80.965C81.337 80.9887 81.2625 81 81.1889 81C80.879 81 80.591 80.7995 80.4921 80.4851C80.3698 80.0963 80.5823 79.6804 80.9672 79.5567C82.1707 79.1694 83.2943 78.5727 84.3238 77.8031C82.2296 77.0073 80 74.7815 80 71.7363C80 70.6966 80.1072 69.45 80.916 68.09C83.6251 64.0002 89.7352 61.8321 92.2397 61.0881Z" fill="url(#paint1_linear_6709_12868)"/>
<defs>
<linearGradient id="paint0_linear_6709_12868" x1="3.54934" y1="63.5367" x2="146.08" y2="63.5368" gradientUnits="userSpaceOnUse">
<stop stop-color="#92D65E"/>
<stop offset="1" stop-color="#5DB14C"/>
</linearGradient>
<linearGradient id="paint1_linear_6709_12868" x1="108.909" y1="70.7096" x2="38.2861" y2="70.7096" gradientUnits="userSpaceOnUse">
<stop stop-color="#92D65E"/>
<stop offset="1" stop-color="#5DB14C"/>
</linearGradient>
</defs>
</svg>
