<svg width="148" height="148" viewBox="0 0 148 148" fill="none" xmlns="http://www.w3.org/2000/svg">
<circle cx="74" cy="74" r="73" fill="white" stroke="url(#paint0_linear_6709_12803)" stroke-width="2"/>
<path d="M49.5571 44.0167C49.0069 44.0773 48.4795 44.3195 48.0662 44.7328L44.7329 48.0662C43.9045 48.8962 43.7611 50.1866 44.3911 51.1749L50.8168 61.2563C51.7635 62.7746 53.324 63.7597 55.1007 63.9613C55.324 63.9863 55.5496 64.0004 55.7713 64.0004C57.0427 64.0004 58.2541 63.568 59.2641 62.7992L71.5037 75.0388C69.6801 78.287 70.1263 82.4833 72.8709 85.2569L89.3553 101.65C90.9669 103.273 93.1151 104.171 95.4034 104.179H95.436C97.7127 104.179 99.8545 103.296 101.471 101.692C103.093 100.081 103.992 97.9326 104 95.6443C104.009 93.356 103.128 91.2014 101.52 89.5831L85.0519 73.2094C83.4402 71.5811 81.2921 70.6771 79.0004 70.6671H78.9614C77.6069 70.6671 76.3166 71.0134 75.1398 71.6046L62.7928 59.2576C63.6938 58.0697 64.1324 56.6013 63.9614 55.0942C63.758 53.3192 62.7725 51.76 61.2758 50.8233L51.1749 44.391C50.6791 44.0769 50.1073 43.9561 49.5571 44.0167ZM87.5323 44.0297C85.9734 43.9372 84.3573 44.0516 82.7081 44.4041C75.7931 45.8824 70.3598 51.6086 69.2348 58.5903C69.1165 59.3253 69.045 60.0497 69.0167 60.768L75.9796 67.7309C76.9579 67.4675 77.953 67.3337 78.9614 67.3337C82.1964 67.3487 85.1833 68.6024 87.4217 70.8624L93.9256 77.3272C99.1106 74.8689 102.975 69.9192 103.818 64.0492C104.223 61.2292 103.941 58.5243 103.128 56.061C102.555 54.3276 100.302 53.866 99.0102 55.156L91.5753 62.5877C89.8503 64.3127 86.8817 64.4617 85.1984 62.6951C84.43 61.8884 84.0069 60.8316 84.0069 59.7133C84.0069 58.5583 84.4566 57.475 85.2732 56.6567L92.9132 49.0167C94.2015 47.7284 93.7414 45.4788 92.0148 44.8988C90.5931 44.4213 89.0913 44.1222 87.5323 44.0297ZM63.8051 72.0538L46.4711 89.4757C44.8695 91.089 43.9921 93.2342 44.0004 95.5108C44.0088 97.7875 44.9034 99.9248 46.5167 101.526C48.1234 103.123 50.2527 104 52.5193 104H52.5519C54.8285 103.992 56.9642 103.098 58.5675 101.481L71.4484 88.5414L70.5206 87.6202C67.4323 84.5019 66.3808 79.9444 67.5974 75.8461L63.8051 72.0538Z" fill="url(#paint1_linear_6709_12803)"/>
<defs>
<linearGradient id="paint0_linear_6709_12803" x1="3.54934" y1="63.5367" x2="146.08" y2="63.5368" gradientUnits="userSpaceOnUse">
<stop stop-color="#92D65E"/>
<stop offset="1" stop-color="#5DB14C"/>
</linearGradient>
<linearGradient id="paint1_linear_6709_12803" x1="45.439" y1="69.8346" x2="103.223" y2="69.8346" gradientUnits="userSpaceOnUse">
<stop stop-color="#92D65E"/>
<stop offset="1" stop-color="#5DB14C"/>
</linearGradient>
</defs>
</svg>
