<svg width="148" height="148" viewBox="0 0 148 148" fill="none" xmlns="http://www.w3.org/2000/svg">
<circle cx="74" cy="74" r="73" fill="white" stroke="url(#paint0_linear_6720_13266)" stroke-width="2"/>
<path d="M74.0013 40.667C55.6213 40.667 40.668 55.6203 40.668 74.0003C40.668 92.3803 55.6213 107.334 74.0013 107.334C92.3813 107.334 107.335 92.3803 107.335 74.0003C107.335 55.6203 92.3813 40.667 74.0013 40.667ZM81.603 84.9353C81.1146 85.4237 80.4746 85.667 79.8346 85.667C79.1946 85.667 78.5546 85.4237 78.0663 84.9353L69.733 76.602C69.2646 76.132 69.0013 75.497 69.0013 74.8337V56.5003C69.0013 55.1187 70.1196 54.0003 71.5013 54.0003C72.883 54.0003 74.0013 55.1187 74.0013 56.5003V73.7987L81.603 81.4003C82.578 82.3753 82.578 83.9587 81.603 84.9353Z" fill="url(#paint1_linear_6720_13266)"/>
<defs>
<linearGradient id="paint0_linear_6720_13266" x1="3.54934" y1="63.5367" x2="146.08" y2="63.5368" gradientUnits="userSpaceOnUse">
<stop stop-color="#92D65E"/>
<stop offset="1" stop-color="#5DB14C"/>
</linearGradient>
<linearGradient id="paint1_linear_6720_13266" x1="42.2668" y1="69.2871" x2="106.47" y2="69.2872" gradientUnits="userSpaceOnUse">
<stop stop-color="#92D65E"/>
<stop offset="1" stop-color="#5DB14C"/>
</linearGradient>
</defs>
</svg>
