<svg width="148" height="148" viewBox="0 0 148 148" fill="none" xmlns="http://www.w3.org/2000/svg">
<circle cx="74" cy="74" r="73" fill="white" stroke="url(#paint0_linear_6709_13065)" stroke-width="2"/>
<path d="M48.1628 45.667C43.1094 45.667 38.9961 49.7787 38.9961 54.8337V84.8337C38.9961 89.8887 43.1094 94.0003 48.1628 94.0003H99.8294C104.883 94.0003 108.996 89.8887 108.996 84.8337V54.8337C108.996 49.7787 104.883 45.667 99.8294 45.667H48.1628ZM70.6628 59.8337H78.5794C79.7294 59.8337 80.6628 60.767 80.6628 61.917C80.6628 63.067 79.7294 64.0003 78.5794 64.0003H72.3913L71.9225 66.5003H74.8294C78.5061 66.5003 81.4961 69.4903 81.4961 73.167C81.4961 77.0303 78.3411 79.8337 73.9961 79.8337C70.1961 79.8337 67.7718 78.4458 67.5085 78.2874C66.5218 77.6958 66.2007 76.416 66.7923 75.4294C67.3823 74.4477 68.654 74.1284 69.6374 74.7067C69.7074 74.745 71.3878 75.667 73.9961 75.667C75.6078 75.667 77.3294 75.0103 77.3294 73.167C77.3294 71.7887 76.2078 70.667 74.8294 70.667H69.4128C68.7928 70.667 68.2029 70.3917 67.8079 69.915C67.4129 69.4384 67.2519 68.8079 67.3652 68.1995L68.6152 61.5329C68.8002 60.5462 69.6594 59.8337 70.6628 59.8337ZM59.8294 99.0003C59.4981 98.9956 59.1692 99.0568 58.8618 99.1804C58.5544 99.3039 58.2746 99.4873 58.0387 99.7199C57.8027 99.9525 57.6154 100.23 57.4875 100.535C57.3597 100.841 57.2938 101.169 57.2938 101.5C57.2938 101.832 57.3597 102.16 57.4875 102.465C57.6154 102.771 57.8027 103.048 58.0387 103.281C58.2746 103.513 58.5544 103.697 58.8618 103.82C59.1692 103.944 59.4981 104.005 59.8294 104H88.1628C88.494 104.005 88.8229 103.944 89.1304 103.82C89.4378 103.697 89.7176 103.513 89.9535 103.281C90.1894 103.048 90.3768 102.771 90.5046 102.465C90.6325 102.16 90.6984 101.832 90.6984 101.5C90.6984 101.169 90.6325 100.841 90.5046 100.535C90.3768 100.23 90.1894 99.9525 89.9535 99.7199C89.7176 99.4873 89.4378 99.3039 89.1304 99.1804C88.8229 99.0568 88.494 98.9956 88.1628 99.0003H59.8294Z" fill="url(#paint1_linear_6709_13065)"/>
<defs>
<linearGradient id="paint0_linear_6709_13065" x1="3.54934" y1="63.5367" x2="146.08" y2="63.5368" gradientUnits="userSpaceOnUse">
<stop stop-color="#92D65E"/>
<stop offset="1" stop-color="#5DB14C"/>
</linearGradient>
<linearGradient id="paint1_linear_6709_13065" x1="40.6748" y1="70.7097" x2="108.088" y2="70.7097" gradientUnits="userSpaceOnUse">
<stop stop-color="#92D65E"/>
<stop offset="1" stop-color="#5DB14C"/>
</linearGradient>
</defs>
</svg>
