<svg width="148" height="148" viewBox="0 0 148 148" fill="none" xmlns="http://www.w3.org/2000/svg">
<circle cx="74" cy="74" r="73" fill="white" stroke="url(#paint0_linear_6709_12973)" stroke-width="2"/>
<path d="M98.9987 76.5297V51.4997C98.9987 46.4463 94.887 42.333 89.832 42.333H58.1654C53.1104 42.333 48.9987 46.4463 48.9987 51.4997V76.5297C45.302 76.653 42.332 79.6997 42.332 83.4263C42.332 85.653 43.4137 87.7547 45.2254 89.043L68.4954 105.646C70.142 106.82 72.0704 107.406 73.9987 107.406C75.927 107.406 77.857 106.818 79.5037 105.645L102.772 89.0447C104.584 87.753 105.665 85.6513 105.665 83.4247C105.665 79.6997 102.695 76.653 98.9987 76.5297ZM76.2904 86.083V88.3747C76.2904 89.6397 75.2654 90.6663 73.9987 90.6663C72.732 90.6663 71.707 89.6397 71.707 88.3747V86.0747C68.857 86.053 66.2487 85.0113 64.357 83.1197C63.462 82.2247 63.462 80.7747 64.357 79.8797C65.252 78.9847 66.702 78.9847 67.597 79.8797C68.3354 80.618 69.6654 81.4997 71.7937 81.4997H76.2904C78.1854 81.4997 79.727 79.958 79.727 78.063C79.727 76.168 78.1854 74.6263 76.2904 74.6263H72.2804C67.8587 74.6263 64.2604 71.028 64.2604 66.6063C64.2604 62.3797 67.557 58.943 71.7087 58.643V56.293C71.707 55.0263 72.732 53.9997 73.9987 53.9997C75.2654 53.9997 76.2904 55.0263 76.2904 56.2913V58.6163C79.827 58.7963 82.0854 60.8197 82.7987 61.923C83.4854 62.9863 83.1787 64.4047 82.1154 65.0913C81.0504 65.773 79.632 65.4713 78.9487 64.408C78.942 64.408 77.957 63.1663 75.8037 63.1663H72.2787C70.3837 63.1663 68.842 64.708 68.842 66.603C68.842 68.498 70.3837 70.0397 72.2787 70.0397H76.2887C80.7104 70.0397 84.3087 73.638 84.3087 78.0597C84.3087 82.4813 80.712 86.083 76.2904 86.083Z" fill="url(#paint1_linear_6709_12973)"/>
<defs>
<linearGradient id="paint0_linear_6709_12973" x1="3.54934" y1="63.5367" x2="146.08" y2="63.5368" gradientUnits="userSpaceOnUse">
<stop stop-color="#92D65E"/>
<stop offset="1" stop-color="#5DB14C"/>
</linearGradient>
<linearGradient id="paint1_linear_6709_12973" x1="43.8509" y1="70.2691" x2="104.844" y2="70.2691" gradientUnits="userSpaceOnUse">
<stop stop-color="#92D65E"/>
<stop offset="1" stop-color="#5DB14C"/>
</linearGradient>
</defs>
</svg>
