<svg width="148" height="148" viewBox="0 0 148 148" fill="none" xmlns="http://www.w3.org/2000/svg">
<circle cx="74" cy="74" r="73" fill="white" stroke="url(#paint0_linear_6709_12965)" stroke-width="2"/>
<path d="M74.0013 40.667C62.0546 40.667 52.3346 50.387 52.3346 62.3337C52.3346 73.4397 60.7373 82.6102 71.5176 83.8473L71.5762 92.4997C70.0794 91.0899 68.1616 89.9604 65.7754 89.4007C64.3558 86.7945 61.1275 84.0003 54.9974 84.0003C46.1641 84.0003 39.1641 91.667 39.1641 101.5C39.1641 102.834 40.3307 104 41.6641 104H44.9974C46.9974 104 48.4974 104.668 49.9974 105.501C51.6641 106.334 53.666 107.334 56.166 107.334C61.166 107.334 64.3327 104.502 65.3327 102.835C65.9993 101.668 66.498 99.8337 66.498 99.8337V99.3324C65.8314 98.1657 64.4974 97.3337 62.4974 97.3337C56.6641 97.3337 53.1647 98.8343 53.1647 98.8343C52.3314 99.1676 51.3301 98.8343 50.9967 98.001C50.6634 97.1676 50.9967 96.1663 51.8301 95.833C51.9967 95.833 55.9974 94.0003 62.4974 94.0003C63.6641 94.0003 64.8314 94.1683 65.6647 94.5016C65.6936 94.492 65.7096 94.4734 65.7363 94.4626C68.2822 95.2867 69.5219 97.1229 70.4173 99.1696C71.5745 101.815 71.6555 104.495 71.6608 104.743L71.6641 105.351H71.7129C71.7437 105.508 71.7895 105.662 71.8496 105.81C71.9438 106.042 72.0722 106.258 72.2305 106.451C72.3888 106.645 72.5753 106.814 72.7839 106.953C72.8533 106.999 72.925 107.041 72.9987 107.08C73.1461 107.158 73.3009 107.221 73.4609 107.269C73.6213 107.315 73.786 107.346 73.9525 107.36C74.202 107.381 74.4533 107.364 74.6979 107.311C74.9433 107.258 75.1792 107.168 75.3978 107.044C75.4694 107.003 75.5389 106.958 75.6061 106.91C75.6748 106.863 75.7411 106.812 75.8047 106.757C75.994 106.593 76.1575 106.401 76.2897 106.188C76.3335 106.117 76.3737 106.044 76.4102 105.97C76.4466 105.894 76.4791 105.817 76.5078 105.739C76.5367 105.661 76.5617 105.581 76.5827 105.501C76.598 105.44 76.6111 105.378 76.6217 105.315H76.6641L76.6608 105.009C76.664 104.951 76.665 104.892 76.6641 104.834C76.6641 104.834 76.701 101.942 77.9141 99.1696C78.8095 97.1229 80.0469 95.2867 82.5918 94.4626C82.6185 94.4734 82.6345 94.492 82.6634 94.5016C83.6634 94.1683 84.6641 94.0003 85.8307 94.0003C92.3307 94.0003 96.3314 95.6663 96.498 95.833C97.3314 96.1663 97.6647 97.1676 97.3314 98.001C96.998 98.8343 95.9967 99.1676 95.1634 98.8343C95.1634 98.8343 91.6641 97.3337 85.8307 97.3337C83.8307 97.3337 82.4974 98.1657 81.6641 99.3324V99.8337C81.6641 99.8337 82.166 101.668 82.8327 102.835C83.8327 104.502 86.9993 107.334 91.9993 107.334C94.4993 107.334 96.498 106.334 98.1647 105.501C99.8314 104.668 101.165 104 103.165 104H106.498C107.831 104 108.998 102.834 108.998 101.5C109.165 91.667 102.164 84.0003 93.3307 84.0003C87.216 84.0003 84.0806 86.7806 82.6374 89.3812C80.1156 89.9553 78.1154 91.1678 76.5762 92.6722L76.5176 83.8441C87.2821 82.5922 95.668 73.4285 95.668 62.3337C95.668 50.387 85.948 40.667 74.0013 40.667ZM74.0046 47.3337C75.3846 47.3337 76.5046 48.452 76.5046 49.8337V50.8558C78.5962 51.3025 80.2492 52.5655 81.2409 54.5472C81.8576 55.7839 81.3561 57.285 80.1211 57.9033C78.8844 58.52 77.3833 58.0235 76.765 56.7868C76.475 56.2051 76.0361 55.667 74.7728 55.667H73.36C72.165 55.667 71.1172 56.6403 71.1172 57.7503C71.1172 58.8987 72.0522 59.8337 73.2005 59.8337H75.2513C79.158 59.8337 82.3346 63.012 82.3346 66.917C82.3346 70.3953 79.8113 73.28 76.5013 73.8734V74.8337C76.5013 76.2153 75.3813 77.3337 74.0013 77.3337C72.6213 77.3337 71.5013 76.2153 71.5013 74.8337V73.9352C68.6713 73.6102 66.7833 71.8201 65.9316 70.1201C65.315 68.8835 65.8132 67.3823 67.0482 66.764C68.2865 66.1507 69.7876 66.6455 70.4043 67.8805C70.496 68.0672 71.0331 69.0003 72.3997 69.0003H75.2513C76.4013 69.0003 77.3379 68.0653 77.3379 66.917C77.3379 65.7687 76.4029 64.8337 75.2546 64.8337H73.2038C69.2971 64.8337 66.1204 61.6553 66.1204 57.7503C66.1204 54.5403 68.4496 51.7769 71.5046 50.9469V49.8337C71.5046 48.452 72.6246 47.3337 74.0046 47.3337Z" fill="url(#paint1_linear_6709_12965)"/>
<defs>
<linearGradient id="paint0_linear_6709_12965" x1="3.54934" y1="63.5367" x2="146.08" y2="63.5368" gradientUnits="userSpaceOnUse">
<stop stop-color="#92D65E"/>
<stop offset="1" stop-color="#5DB14C"/>
</linearGradient>
<linearGradient id="paint1_linear_6709_12965" x1="40.8389" y1="69.3022" x2="108.095" y2="69.3022" gradientUnits="userSpaceOnUse">
<stop stop-color="#92D65E"/>
<stop offset="1" stop-color="#5DB14C"/>
</linearGradient>
</defs>
</svg>
