<svg width="148" height="148" viewBox="0 0 148 148" fill="none" xmlns="http://www.w3.org/2000/svg">
<circle cx="74" cy="74" r="73" fill="white" stroke="url(#paint0_linear_6709_12908)" stroke-width="2"/>
<path fill-rule="evenodd" clip-rule="evenodd" d="M41 50.1667C41 45.1122 45.1122 41 50.1667 41C55.2212 41 59.3333 45.1122 59.3333 50.1667C59.3333 51.691 58.9238 53.108 58.2627 54.374L62.0977 58.209C64.4476 56.6075 67.2815 55.6667 70.3333 55.6667C74.2174 55.6667 77.7434 57.1963 80.3701 59.6699L87.4564 54.5387C87.0609 53.4592 86.8333 52.2983 86.8333 51.0833C86.8333 45.5228 91.3562 41 96.9167 41C102.477 41 107 45.5228 107 51.0833C107 56.6438 102.477 61.1667 96.9167 61.1667C94.5627 61.1667 92.4002 60.3498 90.6826 58.9932L83.5999 64.1208C84.4885 66.0102 85 68.1109 85 70.3333C85 71.1089 84.9232 71.8637 84.8066 72.6071L90.5179 74.0358C92.1913 71.8023 94.8341 70.3333 97.8333 70.3333C102.888 70.3333 107 74.4455 107 79.5C107 84.5545 102.888 88.6667 97.8333 88.6667C92.7788 88.6667 88.6667 84.5545 88.6667 79.5C88.6667 79.4515 88.6704 79.404 88.674 79.3565V79.3564V79.3564V79.3564V79.3563L88.6741 79.3562C88.677 79.3183 88.6799 79.2805 88.681 79.2422L82.9303 77.8063C81.7317 79.8189 80.0689 81.5164 78.0856 82.7585L80.6852 88.6989L80.7504 88.6943L80.7505 88.6942C80.9438 88.6804 81.1364 88.6667 81.3333 88.6667C86.3878 88.6667 90.5 92.7788 90.5 97.8333C90.5 102.888 86.3878 107 81.3333 107C76.2788 107 72.1667 102.888 72.1667 97.8333C72.1667 94.9692 73.5151 92.4401 75.5791 90.7578L72.9508 84.7529C72.0995 84.9073 71.2285 85 70.3333 85C67.5 85 64.862 84.1771 62.6169 82.7799L58.0801 87.7894C58.8557 89.1344 59.3333 90.6723 59.3333 92.3333C59.3333 97.3878 55.2212 101.5 50.1667 101.5C45.1122 101.5 41 97.3878 41 92.3333C41 87.2788 45.1122 83.1667 50.1667 83.1667C51.5555 83.1667 52.8602 83.4995 54.041 84.0547L58.5706 79.0524C56.7565 76.6115 55.6667 73.6012 55.6667 70.3333C55.6667 67.2815 56.6075 64.4476 58.209 62.0977L54.374 58.2627C53.108 58.9238 51.691 59.3333 50.1667 59.3333C45.1122 59.3333 41 55.2212 41 50.1667ZM51.4516 55.1107V45.4004H50.0244L47.6016 46.984V48.3875L49.9248 46.8702H49.9817V55.1107H51.4516ZM50.0154 96.8254C49.5645 96.8254 49.1592 96.7396 48.7995 96.5679C48.4421 96.3938 48.1568 96.1554 47.9433 95.8526C47.7299 95.5497 47.616 95.204 47.6016 94.8153H48.6808C48.7071 95.1301 48.8474 95.3888 49.1017 95.5915C49.3559 95.7941 49.6604 95.8955 50.0154 95.8955C50.2984 95.8955 50.549 95.8311 50.7672 95.7023C50.9879 95.5712 51.1605 95.3912 51.2853 95.1623C51.4124 94.9334 51.4759 94.6723 51.4759 94.379C51.4759 94.081 51.4112 93.8151 51.2817 93.5814C51.1522 93.3478 50.9735 93.1642 50.7456 93.0306C50.5202 92.8971 50.2612 92.8291 49.9686 92.8268C49.7456 92.8268 49.5213 92.8649 49.2959 92.9412C49.0705 93.0175 48.8882 93.1177 48.7491 93.2416L47.7311 93.0914L48.1448 89.4004H52.1954V90.3482H49.0693L48.8355 92.3976H48.8786C49.0225 92.2593 49.2132 92.1436 49.4506 92.0506C49.6904 91.9577 49.947 91.9112 50.2204 91.9112C50.6689 91.9112 51.0682 92.0173 51.4184 92.2295C51.7709 92.4417 52.0479 92.7314 52.2493 93.0986C52.4532 93.4634 52.5539 93.883 52.5515 94.3575C52.5539 94.832 52.446 95.2553 52.2278 95.6272C52.0119 95.9992 51.7121 96.2925 51.3284 96.5071C50.9471 96.7193 50.5094 96.8254 50.0154 96.8254ZM94.9058 53.2907V54.112H99.8484V53.1403H96.4678V53.0853L97.9601 51.5233C98.4172 51.0589 98.7741 50.6641 99.0308 50.339C99.2874 50.0114 99.4671 49.7144 99.5698 49.448C99.6749 49.1816 99.7274 48.909 99.7274 48.6303C99.7274 48.227 99.626 47.8652 99.4231 47.545C99.2202 47.2223 98.9379 46.9681 98.5761 46.7823C98.2168 46.5941 97.8012 46.5 97.3294 46.5C96.8625 46.5 96.4458 46.5953 96.0791 46.786C95.7124 46.9742 95.424 47.2394 95.2138 47.5817C95.0035 47.9239 94.8984 48.3236 94.8984 48.7807H95.9801C95.9801 48.5118 96.0339 48.2771 96.1414 48.0767C96.249 47.8762 96.403 47.721 96.6034 47.611C96.8039 47.501 97.0385 47.446 97.3074 47.446C97.5617 47.446 97.7902 47.4961 97.9931 47.5963C98.196 47.6941 98.3561 47.8347 98.4734 48.018C98.5908 48.1989 98.6494 48.414 98.6494 48.6633C98.6494 48.8833 98.6054 49.0911 98.5174 49.2867C98.4294 49.4822 98.2962 49.6888 98.1178 49.9063C97.9418 50.1214 97.7181 50.372 97.4468 50.658L94.9058 53.2907ZM78.3984 100.477V99.6309L81.2486 94.9004H81.532H81.8831H82.4757V99.5903H83.3484V100.477H82.4757V101.83H81.5256V100.477H78.3984ZM81.4805 96.1456H81.532V99.5903H79.4419V99.5362L81.4805 96.1456ZM96.1128 82.8963C96.4823 83.0522 96.9019 83.1302 97.3717 83.1302C97.8506 83.1302 98.276 83.0468 98.6477 82.8799C99.0194 82.7108 99.3125 82.4791 99.5268 82.1849C99.7435 81.8907 99.8507 81.558 99.8484 81.1869C99.8507 80.7609 99.723 80.4041 99.4653 80.1164C99.2098 79.8288 98.8495 79.6509 98.3843 79.5829V79.5302C98.7492 79.4401 99.0411 79.2634 99.26 78.9999C99.4812 78.7364 99.5907 78.4158 99.5884 78.0381C99.5907 77.7065 99.5018 77.4013 99.3216 77.1224C99.1437 76.8436 98.8906 76.6207 98.5622 76.4538C98.236 76.2847 97.8483 76.2002 97.3991 76.2002C96.9703 76.2002 96.5804 76.2781 96.2291 76.4341C95.8779 76.59 95.5951 76.8062 95.3808 77.0829C95.1687 77.3596 95.0569 77.6802 95.0455 78.0447H96.0684C96.0775 77.8383 96.1436 77.6615 96.2668 77.5144C96.3899 77.3651 96.5496 77.2509 96.7457 77.1718C96.9441 77.0906 97.1573 77.05 97.3854 77.05C97.6249 77.05 97.8324 77.0939 98.008 77.1817C98.1859 77.2696 98.3227 77.3914 98.4185 77.5473C98.5166 77.701 98.5656 77.8822 98.5656 78.0908C98.5656 78.3082 98.5097 78.4981 98.398 78.6606C98.2862 78.8209 98.1311 78.9461 97.9327 79.0361C97.7366 79.1261 97.5085 79.1711 97.2486 79.1711H96.6568V80.0012H97.2486C97.5724 80.0012 97.8483 80.0506 98.0764 80.1494C98.3067 80.2482 98.4812 80.3843 98.5998 80.5578C98.7207 80.7291 98.7811 80.9278 98.7811 81.154C98.7811 81.3713 98.7207 81.5635 98.5998 81.7304C98.4789 81.8951 98.3113 82.0235 98.0969 82.1157C97.8848 82.208 97.6408 82.2541 97.3649 82.2541C97.114 82.2541 96.8859 82.2145 96.6807 82.1355C96.4754 82.0564 96.309 81.9445 96.1813 81.7995C96.0558 81.6524 95.9863 81.4789 95.9726 81.2791H94.8984C94.9144 81.6458 95.0284 81.9686 95.2405 82.2475C95.4549 82.5242 95.7457 82.7404 96.1128 82.8963Z" fill="url(#paint1_linear_6709_12908)"/>
<defs>
<linearGradient id="paint0_linear_6709_12908" x1="3.54934" y1="63.5367" x2="146.08" y2="63.5368" gradientUnits="userSpaceOnUse">
<stop stop-color="#92D65E"/>
<stop offset="1" stop-color="#5DB14C"/>
</linearGradient>
<linearGradient id="paint1_linear_6709_12908" x1="42.5828" y1="69.334" x2="106.144" y2="69.334" gradientUnits="userSpaceOnUse">
<stop stop-color="#92D65E"/>
<stop offset="1" stop-color="#5DB14C"/>
</linearGradient>
</defs>
</svg>
