<svg width="148" height="148" viewBox="0 0 148 148" fill="none" xmlns="http://www.w3.org/2000/svg">
<circle cx="74" cy="74" r="73" fill="white" stroke="url(#paint0_linear_6720_13146)" stroke-width="2"/>
<path d="M73.9614 38.9642C73.2989 38.9745 72.6676 39.2474 72.2062 39.7229C71.7448 40.1983 71.4909 40.8375 71.5005 41.5V44H41.5004C41.1692 43.9953 40.8403 44.0565 40.5328 44.18C40.2254 44.3036 39.9456 44.487 39.7097 44.7196C39.4738 44.9522 39.2864 45.2294 39.1586 45.535C39.0307 45.8407 38.9648 46.1687 38.9648 46.5C38.9648 46.8313 39.0307 47.1593 39.1586 47.4649C39.2864 47.7706 39.4738 48.0478 39.7097 48.2804C39.9456 48.513 40.2254 48.6964 40.5328 48.8199C40.8403 48.9435 41.1692 49.0047 41.5004 49H42.3338V84.8333C42.3338 89.8883 46.4471 94 51.5005 94H61.6241L55.9308 105.383C55.775 105.678 55.6796 106.001 55.6504 106.333C55.6211 106.665 55.6585 106.999 55.7603 107.317C55.8622 107.634 56.0265 107.928 56.2435 108.181C56.4605 108.433 56.7259 108.64 57.0241 108.789C57.3223 108.938 57.6472 109.026 57.9798 109.047C58.3123 109.069 58.6459 109.024 58.9607 108.914C59.2756 108.805 59.5654 108.634 59.8131 108.411C60.0609 108.188 60.2616 107.918 60.4034 107.617L67.2101 94H80.7908L87.5975 107.617C87.7393 107.918 87.94 108.188 88.1878 108.411C88.4355 108.634 88.7253 108.805 89.0402 108.914C89.355 109.024 89.6885 109.069 90.0211 109.047C90.3537 109.026 90.6786 108.938 90.9768 108.789C91.275 108.64 91.5404 108.433 91.7574 108.181C91.9744 107.928 92.1387 107.634 92.2406 107.317C92.3424 106.999 92.3798 106.665 92.3505 106.333C92.3213 106.001 92.2259 105.678 92.0701 105.383L86.3768 94H96.5004C101.554 94 105.667 89.8883 105.667 84.8333V49H106.5C106.832 49.0047 107.161 48.9435 107.468 48.8199C107.775 48.6964 108.055 48.513 108.291 48.2804C108.527 48.0478 108.714 47.7706 108.842 47.4649C108.97 47.1593 109.036 46.8313 109.036 46.5C109.036 46.1687 108.97 45.8407 108.842 45.535C108.714 45.2294 108.527 44.9522 108.291 44.7196C108.055 44.487 107.775 44.3036 107.468 44.18C107.161 44.0565 106.832 43.9953 106.5 44H76.5005V41.5C76.5052 41.1654 76.4428 40.8332 76.3169 40.5232C76.1909 40.2131 76.004 39.9315 75.7673 39.695C75.5305 39.4586 75.2486 39.272 74.9384 39.1465C74.6282 39.0209 74.296 38.9589 73.9614 38.9642ZM91.5005 57.3333C92.14 57.3333 92.7797 57.5774 93.268 58.0657C94.2447 59.0424 94.243 60.6242 93.268 61.6009L74.9347 79.9342C74.4464 80.4226 73.8071 80.6666 73.1671 80.6666C72.5271 80.6666 71.8879 80.4226 71.3995 79.9342L64.8338 73.3685L58.268 79.9342C57.2914 80.9109 55.7095 80.9109 54.7329 79.9342C53.7562 78.9592 53.7562 77.3741 54.7329 76.3991L63.0662 68.0657C64.0429 67.0891 65.6247 67.0891 66.6014 68.0657L73.1671 74.6315L89.7329 58.0657C90.2212 57.5774 90.8609 57.3333 91.5005 57.3333Z" fill="url(#paint1_linear_6720_13146)"/>
<defs>
<linearGradient id="paint0_linear_6720_13146" x1="3.54934" y1="63.5367" x2="146.08" y2="63.5368" gradientUnits="userSpaceOnUse">
<stop stop-color="#92D65E"/>
<stop offset="1" stop-color="#5DB14C"/>
</linearGradient>
<linearGradient id="paint1_linear_6720_13146" x1="40.6453" y1="69.0531" x2="108.127" y2="69.0531" gradientUnits="userSpaceOnUse">
<stop stop-color="#92D65E"/>
<stop offset="1" stop-color="#5DB14C"/>
</linearGradient>
</defs>
</svg>
