<svg width="148" height="148" viewBox="0 0 148 148" fill="none" xmlns="http://www.w3.org/2000/svg">
<circle cx="74" cy="74" r="73" fill="white" stroke="url(#paint0_linear_6720_13228)" stroke-width="2"/>
<path d="M71.0855 40.667C69.3793 40.667 67.6737 41.3185 66.372 42.6201L60.9521 48.04C58.3487 50.6434 58.3487 54.8638 60.9521 57.4671L63.9697 60.4945L78.8199 45.6442L75.7991 42.6201C74.4974 41.3185 72.7918 40.667 71.0855 40.667ZM82.3518 49.1826L67.5048 64.0296L73.9697 70.4945L88.8199 55.6475L82.3518 49.1826ZM88.8199 55.6475L92.3551 59.1826L94.9332 56.6012C95.9099 55.6262 95.9099 54.0411 94.9332 53.0661C93.9565 52.0894 92.3747 52.0894 91.398 53.0661L88.8199 55.6475ZM92.3551 59.1826L77.5048 74.0296L83.7646 80.2861L98.6116 65.4391L92.3551 59.1826ZM102.179 69.0003L87.3323 83.8473L90.3596 86.8682C92.963 89.4715 97.1834 89.4715 99.7867 86.8682L105.207 81.4482C107.81 78.8449 107.81 74.6212 105.207 72.0179L102.179 69.0003ZM67.7131 69.0036C64.8229 69.0036 61.9322 70.1035 59.7314 72.3044C59.263 72.7744 58.999 73.4119 58.999 74.0752C58.999 74.7385 59.263 75.3728 59.7314 75.8428L64.1747 80.2894L63.0647 81.3994C62.8248 81.6298 62.6332 81.9057 62.5013 82.211C62.3693 82.5163 62.2996 82.8449 62.2962 83.1775C62.2928 83.5101 62.3559 83.84 62.4816 84.148C62.6073 84.4559 62.7932 84.7357 63.0284 84.9709C63.2636 85.2061 63.5434 85.392 63.8513 85.5177C64.1592 85.6434 64.4892 85.7064 64.8218 85.7031C65.1544 85.6997 65.4829 85.63 65.7883 85.498C66.0936 85.3661 66.3695 85.1745 66.5999 84.9346L67.7099 83.8245L72.1565 88.2679C72.6265 88.7362 73.2608 89.0003 73.9241 89.0003C74.5874 89.0003 75.2233 88.7379 75.6917 88.2679C80.0917 83.8679 80.0917 76.706 75.6917 72.3044C73.4917 70.1035 70.6034 69.0036 67.7131 69.0036ZM44.7932 82.2979C44.1308 82.3082 43.4995 82.5811 43.038 83.0565C42.5766 83.532 42.3228 84.1712 42.3323 84.8337C42.3323 96.3098 51.6895 105.667 63.1656 105.667C63.4969 105.672 63.8258 105.61 64.1332 105.487C64.4406 105.363 64.7205 105.18 64.9564 104.947C65.1923 104.715 65.3796 104.438 65.5075 104.132C65.6354 103.826 65.7012 103.498 65.7012 103.167C65.7012 102.836 65.6354 102.508 65.5075 102.202C65.3796 101.896 65.1923 101.619 64.9564 101.387C64.7205 101.154 64.4406 100.971 64.1332 100.847C63.8258 100.724 63.4969 100.662 63.1656 100.667C54.3918 100.667 47.3323 93.6075 47.3323 84.8337C47.3371 84.4991 47.2747 84.1669 47.1487 83.8568C47.0228 83.5468 46.8359 83.2652 46.5991 83.0287C46.3623 82.7922 46.0805 82.6057 45.7703 82.4802C45.4601 82.3546 45.1278 82.2926 44.7932 82.2979ZM54.7932 82.2979C54.1308 82.3082 53.4995 82.5811 53.038 83.0565C52.5766 83.532 52.3228 84.1712 52.3323 84.8337C52.3323 90.7869 57.2124 95.667 63.1656 95.667C63.4969 95.6717 63.8258 95.6105 64.1332 95.4869C64.4406 95.3634 64.7205 95.18 64.9564 94.9474C65.1923 94.7148 65.3796 94.4376 65.5075 94.132C65.6354 93.8263 65.7012 93.4983 65.7012 93.167C65.7012 92.8357 65.6354 92.5077 65.5075 92.202C65.3796 91.8964 65.1923 91.6192 64.9564 91.3866C64.7205 91.154 64.4406 90.9706 64.1332 90.847C63.8258 90.7235 63.4969 90.6623 63.1656 90.667C59.9155 90.667 57.3323 88.0838 57.3323 84.8337C57.3371 84.4991 57.2747 84.1669 57.1487 83.8568C57.0228 83.5468 56.8359 83.2652 56.5991 83.0287C56.3623 82.7922 56.0805 82.6057 55.7703 82.4802C55.4601 82.3546 55.1278 82.2926 54.7932 82.2979Z" fill="url(#paint1_linear_6720_13228)"/>
<defs>
<linearGradient id="paint0_linear_6720_13228" x1="3.54934" y1="63.5367" x2="146.08" y2="63.5368" gradientUnits="userSpaceOnUse">
<stop stop-color="#92D65E"/>
<stop offset="1" stop-color="#5DB14C"/>
</linearGradient>
<linearGradient id="paint1_linear_6720_13228" x1="43.8867" y1="68.5718" x2="106.318" y2="68.5718" gradientUnits="userSpaceOnUse">
<stop stop-color="#92D65E"/>
<stop offset="1" stop-color="#5DB14C"/>
</linearGradient>
</defs>
</svg>
