<svg width="148" height="148" viewBox="0 0 148 148" fill="none" xmlns="http://www.w3.org/2000/svg">
<circle cx="74" cy="74" r="73" fill="white" stroke="url(#paint0_linear_6743_14254)" stroke-width="2"/>
<path d="M99.832 44H91.4987C88.282 44 85.6654 46.6167 85.6654 49.8333V98.1667C85.6654 101.383 88.282 104 91.4987 104H99.832C103.049 104 105.665 101.383 105.665 98.1667V49.8333C105.665 46.6167 103.049 44 99.832 44ZM93.1654 54.8333C93.1654 53.4517 94.2854 52.3333 95.6654 52.3333C97.0454 52.3333 98.1654 53.4517 98.1654 54.8333V79.8333C98.1654 81.215 97.0454 82.3333 95.6654 82.3333C94.2854 82.3333 93.1654 81.215 93.1654 79.8333V54.8333ZM98.1654 95.6667H93.1654C91.7854 95.6667 90.6654 94.5483 90.6654 93.1667C90.6654 91.785 91.7854 90.6667 93.1654 90.6667H98.1654C99.5454 90.6667 100.665 91.785 100.665 93.1667C100.665 94.5483 99.5454 95.6667 98.1654 95.6667ZM56.4987 44H48.1654C44.9487 44 42.332 46.6167 42.332 49.8333V98.1667C42.332 101.383 44.9487 104 48.1654 104H56.4987C59.7154 104 62.332 101.383 62.332 98.1667V49.8333C62.332 46.6167 59.7154 44 56.4987 44ZM49.832 54.8333C49.832 53.4517 50.952 52.3333 52.332 52.3333C53.712 52.3333 54.832 53.4517 54.832 54.8333V79.8333C54.832 81.215 53.712 82.3333 52.332 82.3333C50.952 82.3333 49.832 81.215 49.832 79.8333V54.8333ZM54.832 95.6667H49.832C48.452 95.6667 47.332 94.5483 47.332 93.1667C47.332 91.785 48.452 90.6667 49.832 90.6667H54.832C56.212 90.6667 57.332 91.785 57.332 93.1667C57.332 94.5483 56.212 95.6667 54.832 95.6667ZM76.4987 54H71.4987C68.282 54 65.6654 56.6167 65.6654 59.8333V98.1667C65.6654 101.383 68.282 104 71.4987 104H76.4987C79.7154 104 82.332 101.383 82.332 98.1667V59.8333C82.332 56.6167 79.7154 54 76.4987 54ZM74.832 95.6667H73.1654C71.7854 95.6667 70.6654 94.5483 70.6654 93.1667C70.6654 91.785 71.7854 90.6667 73.1654 90.6667H74.832C76.212 90.6667 77.332 91.785 77.332 93.1667C77.332 94.5483 76.212 95.6667 74.832 95.6667ZM74.832 67.3333H73.1654C71.7854 67.3333 70.6654 66.215 70.6654 64.8333C70.6654 63.4517 71.7854 62.3333 73.1654 62.3333H74.832C76.212 62.3333 77.332 63.4517 77.332 64.8333C77.332 66.215 76.212 67.3333 74.832 67.3333Z" fill="url(#paint1_linear_6743_14254)"/>
<defs>
<linearGradient id="paint0_linear_6743_14254" x1="3.54934" y1="63.5367" x2="146.08" y2="63.5368" gradientUnits="userSpaceOnUse">
<stop stop-color="#92D65E"/>
<stop offset="1" stop-color="#5DB14C"/>
</linearGradient>
<linearGradient id="paint1_linear_6743_14254" x1="43.8509" y1="69.7581" x2="104.844" y2="69.7581" gradientUnits="userSpaceOnUse">
<stop stop-color="#92D65E"/>
<stop offset="1" stop-color="#5DB14C"/>
</linearGradient>
</defs>
</svg>
