<svg width="148" height="148" viewBox="0 0 148 148" fill="none" xmlns="http://www.w3.org/2000/svg">
<circle cx="74" cy="74" r="73" fill="white" stroke="url(#paint0_linear_6743_14270)" stroke-width="2"/>
<path d="M64.832 34C61.6404 34 58.9987 36.6417 58.9987 39.8333V58.1667C58.9987 61.3583 61.6404 64 64.832 64H66.4987V71.3568C66.4987 72.8362 67.5903 74.1466 68.8294 74.5371C70.0685 74.9276 71.7098 74.4809 72.5599 73.2708L72.5632 73.2676L79.0508 64H91.4987C94.6903 64 97.332 61.3583 97.332 58.1667V39.8333C97.332 36.6417 94.6903 34 91.4987 34H64.832ZM78.5332 41.5C78.6734 41.5 78.8148 41.5738 78.8815 41.7246L80.9648 46.4023L86.056 46.9395C86.3827 46.9745 86.5142 47.3803 86.2708 47.6003L82.4688 51.028L83.5299 56.0378C83.5983 56.3594 83.2518 56.6112 82.9668 56.4479L78.5332 53.8893L74.0964 56.4479C73.8114 56.6129 73.4681 56.3594 73.5365 56.0378L74.5977 51.028L70.7923 47.6003C70.5473 47.3803 70.6788 46.9745 71.0072 46.9395L76.1016 46.4023L78.1849 41.7246C78.2524 41.5738 78.393 41.5 78.5332 41.5ZM53.1654 67.3333C49.7626 67.3333 46.8939 68.6994 45.0469 70.7773C43.1998 72.8553 42.332 75.5278 42.332 78.1667C42.332 80.8056 43.1998 83.478 45.0469 85.556C46.8939 87.6339 49.7626 89 53.1654 89C59.1188 89 63.9987 84.1201 63.9987 78.1667C63.9987 72.2132 59.1188 67.3333 53.1654 67.3333ZM94.832 67.3333C91.4293 67.3333 88.5606 68.6994 86.7135 70.7773C84.8665 72.8553 83.9987 75.5278 83.9987 78.1667C83.9987 80.8056 84.8665 83.478 86.7135 85.556C88.5606 87.6339 91.4293 89 94.832 89C100.786 89 105.665 84.1201 105.665 78.1667C105.665 72.2132 100.786 67.3333 94.832 67.3333ZM68.4746 70.3932L68.4681 70.403V70.3965L68.4746 70.3932ZM41.4987 92.3333C39.226 92.3333 37.332 94.2273 37.332 96.5V99.8333C37.3322 100.221 37.4225 100.603 37.5957 100.95C37.5957 100.95 38.722 103.148 41.1862 105.12C43.6504 107.091 47.6098 109 53.1654 109C58.7209 109 62.6803 107.091 65.1445 105.12C67.6088 103.148 68.735 100.95 68.735 100.95C68.9083 100.603 68.9985 100.221 68.9987 99.8333V96.5C68.9987 94.2273 67.1047 92.3333 64.832 92.3333H41.4987ZM83.1654 92.3333C80.8927 92.3333 78.9987 94.2273 78.9987 96.5V99.8333C78.9989 100.221 79.0891 100.603 79.2624 100.95C79.2624 100.95 80.3886 103.148 82.8529 105.12C85.3171 107.091 89.2765 109 94.832 109C100.388 109 104.347 107.091 106.811 105.12C109.275 103.148 110.402 100.95 110.402 100.95C110.575 100.603 110.665 100.221 110.665 99.8333V96.5C110.665 94.2273 108.771 92.3333 106.499 92.3333H83.1654Z" fill="url(#paint1_linear_6743_14270)"/>
<defs>
<linearGradient id="paint0_linear_6743_14270" x1="3.54934" y1="63.5367" x2="146.08" y2="63.5368" gradientUnits="userSpaceOnUse">
<stop stop-color="#92D65E"/>
<stop offset="1" stop-color="#5DB14C"/>
</linearGradient>
<linearGradient id="paint1_linear_6743_14270" x1="39.0907" y1="66.1977" x2="109.714" y2="66.1977" gradientUnits="userSpaceOnUse">
<stop stop-color="#92D65E"/>
<stop offset="1" stop-color="#5DB14C"/>
</linearGradient>
</defs>
</svg>
