<svg width="148" height="148" viewBox="0 0 148 148" fill="none" xmlns="http://www.w3.org/2000/svg">
<circle cx="74" cy="74" r="73" fill="white" stroke="url(#paint0_linear_6743_14262)" stroke-width="2"/>
<path d="M51.4987 44C46.4437 44 42.332 48.1117 42.332 53.1667V94.8333C42.332 99.8883 46.4437 104 51.4987 104H96.4987C101.554 104 105.665 99.8883 105.665 94.8333V53.1667C105.665 48.1117 101.554 44 96.4987 44H51.4987ZM51.4987 49C52.8787 49 53.9987 50.12 53.9987 51.5C53.9987 52.88 52.8787 54 51.4987 54C50.1187 54 48.9987 52.88 48.9987 51.5C48.9987 50.12 50.1187 49 51.4987 49ZM59.832 49C61.212 49 62.332 50.12 62.332 51.5C62.332 52.88 61.212 54 59.832 54C58.452 54 57.332 52.88 57.332 51.5C57.332 50.12 58.452 49 59.832 49ZM69.832 49H96.4987C97.8787 49 98.9987 50.12 98.9987 51.5C98.9987 52.88 97.8787 54 96.4987 54H69.832C68.452 54 67.332 52.88 67.332 51.5C67.332 50.12 68.452 49 69.832 49ZM48.9987 59H98.9987V94.8333C98.9987 96.2117 97.877 97.3333 96.4987 97.3333H51.4987C50.1204 97.3333 48.9987 96.2117 48.9987 94.8333V59ZM56.4987 64C55.1187 64 53.9987 65.1183 53.9987 66.5V91.5C53.9987 92.8817 55.1187 94 56.4987 94H68.1654C69.5454 94 70.6654 92.8817 70.6654 91.5V66.5C70.6654 65.1183 69.5454 64 68.1654 64H56.4987ZM78.1654 64C77.8341 63.9953 77.5052 64.0565 77.1978 64.1801C76.8903 64.3036 76.6105 64.487 76.3746 64.7196C76.1387 64.9522 75.9513 65.2294 75.8235 65.535C75.6956 65.8407 75.6298 66.1687 75.6298 66.5C75.6298 66.8313 75.6956 67.1593 75.8235 67.465C75.9513 67.7706 76.1387 68.0478 76.3746 68.2804C76.6105 68.513 76.8903 68.6964 77.1978 68.8199C77.5052 68.9435 77.8341 69.0047 78.1654 69H91.4987C91.83 69.0047 92.1589 68.9435 92.4663 68.8199C92.7737 68.6964 93.0535 68.513 93.2894 68.2804C93.5254 68.0478 93.7127 67.7706 93.8406 67.465C93.9685 67.1593 94.0343 66.8313 94.0343 66.5C94.0343 66.1687 93.9685 65.8407 93.8406 65.535C93.7127 65.2294 93.5254 64.9522 93.2894 64.7196C93.0535 64.487 92.7737 64.3036 92.4663 64.1801C92.1589 64.0565 91.83 63.9953 91.4987 64H78.1654ZM78.1654 72.3333C77.8341 72.3286 77.5052 72.3899 77.1978 72.5134C76.8903 72.6369 76.6105 72.8203 76.3746 73.0529C76.1387 73.2855 75.9513 73.5627 75.8235 73.8684C75.6956 74.174 75.6298 74.502 75.6298 74.8333C75.6298 75.1646 75.6956 75.4927 75.8235 75.7983C75.9513 76.1039 76.1387 76.3811 76.3746 76.6137C76.6105 76.8463 76.8903 77.0297 77.1978 77.1533C77.5052 77.2768 77.8341 77.338 78.1654 77.3333H91.4987C91.83 77.338 92.1589 77.2768 92.4663 77.1533C92.7737 77.0297 93.0535 76.8463 93.2894 76.6137C93.5254 76.3811 93.7127 76.1039 93.8406 75.7983C93.9685 75.4927 94.0343 75.1646 94.0343 74.8333C94.0343 74.502 93.9685 74.174 93.8406 73.8684C93.7127 73.5627 93.5254 73.2855 93.2894 73.0529C93.0535 72.8203 92.7737 72.6369 92.4663 72.5134C92.1589 72.3899 91.83 72.3286 91.4987 72.3333H78.1654ZM78.1654 80.6667C77.8341 80.662 77.5052 80.7232 77.1978 80.8467C76.8903 80.9703 76.6105 81.1537 76.3746 81.3863C76.1387 81.6189 75.9513 81.8961 75.8235 82.2017C75.6956 82.5073 75.6298 82.8354 75.6298 83.1667C75.6298 83.498 75.6956 83.826 75.8235 84.1316C75.9513 84.4373 76.1387 84.7145 76.3746 84.9471C76.6105 85.1797 76.8903 85.3631 77.1978 85.4866C77.5052 85.6101 77.8341 85.6714 78.1654 85.6667H91.4987C91.83 85.6714 92.1589 85.6101 92.4663 85.4866C92.7737 85.3631 93.0535 85.1797 93.2894 84.9471C93.5254 84.7145 93.7127 84.4373 93.8406 84.1316C93.9685 83.826 94.0343 83.498 94.0343 83.1667C94.0343 82.8354 93.9685 82.5073 93.8406 82.2017C93.7127 81.8961 93.5254 81.6189 93.2894 81.3863C93.0535 81.1537 92.7737 80.9703 92.4663 80.8467C92.1589 80.7232 91.83 80.662 91.4987 80.6667H78.1654ZM78.1654 89C77.8341 88.9953 77.5052 89.0565 77.1978 89.1801C76.8903 89.3036 76.6105 89.487 76.3746 89.7196C76.1387 89.9522 75.9513 90.2294 75.8235 90.535C75.6956 90.8407 75.6298 91.1687 75.6298 91.5C75.6298 91.8313 75.6956 92.1593 75.8235 92.465C75.9513 92.7706 76.1387 93.0478 76.3746 93.2804C76.6105 93.513 76.8903 93.6964 77.1978 93.8199C77.5052 93.9435 77.8341 94.0047 78.1654 94H84.832C85.1633 94.0047 85.4922 93.9435 85.7996 93.8199C86.1071 93.6964 86.3869 93.513 86.6228 93.2804C86.8587 93.0478 87.0461 92.7706 87.1739 92.465C87.3018 92.1593 87.3676 91.8313 87.3676 91.5C87.3676 91.1687 87.3018 90.8407 87.1739 90.535C87.0461 90.2294 86.8587 89.9522 86.6228 89.7196C86.3869 89.487 86.1071 89.3036 85.7996 89.1801C85.4922 89.0565 85.1633 88.9953 84.832 89H78.1654Z" fill="url(#paint1_linear_6743_14262)"/>
<defs>
<linearGradient id="paint0_linear_6743_14262" x1="3.54934" y1="63.5367" x2="146.08" y2="63.5368" gradientUnits="userSpaceOnUse">
<stop stop-color="#92D65E"/>
<stop offset="1" stop-color="#5DB14C"/>
</linearGradient>
<linearGradient id="paint1_linear_6743_14262" x1="43.8509" y1="69.7581" x2="104.844" y2="69.7581" gradientUnits="userSpaceOnUse">
<stop stop-color="#92D65E"/>
<stop offset="1" stop-color="#5DB14C"/>
</linearGradient>
</defs>
</svg>
