<svg width="240" height="192" viewBox="0 0 240 192" fill="none" xmlns="http://www.w3.org/2000/svg">
<g filter="url(#filter0_d_6396_12624)">
<rect x="20" y="17.5" width="199.852" height="152" rx="10.332" fill="white"/>
</g>
<path d="M20 27.832C20 22.1258 24.6258 17.5 30.332 17.5H209.52C215.226 17.5 219.852 22.1258 219.852 27.832V45.6481H20V27.832Z" fill="#003366"/>
<path d="M32.2475 33.6864H30.0693L29.6845 34.7793H28.5377L30.5388 29.407H31.778L33.7715 34.7793H32.6247L32.2475 33.6864ZM31.955 32.8628L31.1546 30.5692L30.3541 32.8628H31.955ZM36.2737 30.4614C36.8227 30.4614 37.2794 30.6102 37.6437 30.9078C38.0132 31.2054 38.2441 31.6108 38.3364 32.1239H37.1896C37.1434 31.8981 37.0382 31.7211 36.874 31.5928C36.7098 31.4594 36.502 31.3927 36.2506 31.3927C35.9633 31.3927 35.7221 31.5005 35.5271 31.716C35.3373 31.9264 35.2423 32.2368 35.2423 32.6473C35.2423 33.0578 35.3373 33.3708 35.5271 33.5863C35.7221 33.7967 35.9633 33.9019 36.2506 33.9019C36.502 33.9019 36.7098 33.8377 36.874 33.7094C37.0382 33.576 37.1434 33.3964 37.1896 33.1707H38.3364C38.2441 33.6838 38.0132 34.0892 37.6437 34.3868C37.2794 34.6844 36.8227 34.8332 36.2737 34.8332C35.8581 34.8332 35.4886 34.7459 35.1654 34.5715C34.8421 34.3919 34.5907 34.1379 34.4111 33.8095C34.2315 33.4811 34.1417 33.0937 34.1417 32.6473C34.1417 32.2009 34.2315 31.8135 34.4111 31.4851C34.5907 31.1516 34.8421 30.8976 35.1654 30.7231C35.4886 30.5486 35.8581 30.4614 36.2737 30.4614ZM41.3858 33.848V34.7793H40.8162C40.339 34.7793 39.9722 34.6638 39.7156 34.4329C39.4642 34.202 39.3385 33.8172 39.3385 33.2784V31.4312H38.7458V30.5153H39.3385V29.4608H40.4237V30.5153H41.3781V31.4312H40.4237V33.2938C40.4237 33.4991 40.4647 33.6427 40.5468 33.7248C40.6289 33.8069 40.7675 33.848 40.9625 33.848H41.3858ZM42.0436 29.2915C42.0436 29.117 42.1051 28.9759 42.2283 28.8682C42.3514 28.7553 42.5131 28.6989 42.7132 28.6989C42.9133 28.6989 43.0749 28.7553 43.1981 28.8682C43.3212 28.9759 43.3828 29.117 43.3828 29.2915C43.3828 29.4608 43.3212 29.6019 43.1981 29.7148C43.0749 29.8226 42.9133 29.8765 42.7132 29.8765C42.5131 29.8765 42.3514 29.8226 42.2283 29.7148C42.1051 29.6019 42.0436 29.4608 42.0436 29.2915ZM43.252 30.5153V34.7793H42.1667V30.5153H43.252ZM46.0886 33.6941L47.1662 30.5153H48.3207L46.7429 34.7793H45.419L43.8412 30.5153H45.0034L46.0886 33.6941ZM52.9339 32.4857C52.9339 32.5934 52.9211 32.7166 52.8955 32.8551H49.7706C49.786 33.2348 49.8886 33.5145 50.0784 33.6941C50.2683 33.8736 50.5043 33.9634 50.7865 33.9634C51.038 33.9634 51.2458 33.9019 51.41 33.7787C51.5793 33.6556 51.6871 33.4888 51.7332 33.2784H52.8801C52.8236 33.576 52.703 33.8429 52.5183 34.0789C52.3336 34.3149 52.095 34.4996 51.8025 34.6331C51.5152 34.7665 51.1945 34.8332 50.8404 34.8332C50.4248 34.8332 50.0553 34.7459 49.7321 34.5715C49.4088 34.3919 49.1574 34.1379 48.9778 33.8095C48.7982 33.4811 48.7084 33.0937 48.7084 32.6473C48.7084 32.2009 48.7982 31.8135 48.9778 31.4851C49.1574 31.1516 49.4088 30.8976 49.7321 30.7231C50.0553 30.5486 50.4248 30.4614 50.8404 30.4614C51.2612 30.4614 51.6281 30.5486 51.9411 30.7231C52.2592 30.8976 52.5029 31.1387 52.6722 31.4466C52.8467 31.7493 52.9339 32.0957 52.9339 32.4857ZM51.841 32.3779C51.8564 32.029 51.764 31.7647 51.5639 31.5851C51.3689 31.4056 51.1278 31.3158 50.8404 31.3158C50.5479 31.3158 50.3016 31.4056 50.1015 31.5851C49.9014 31.7647 49.7911 32.029 49.7706 32.3779H51.841ZM58.2129 34.7793L56.9429 32.6627H56.4657V34.7793H55.3805V29.3454H57.4509C58.082 29.3454 58.5618 29.4993 58.8902 29.8072C59.2237 30.1151 59.3905 30.5204 59.3905 31.0233C59.3905 31.4338 59.275 31.7776 59.0441 32.0546C58.8184 32.3317 58.49 32.5164 58.059 32.6088L59.4136 34.7793H58.2129ZM56.4657 31.9161H57.3586C57.9794 31.9161 58.2899 31.6416 58.2899 31.0925C58.2899 30.8309 58.2129 30.6282 58.059 30.4845C57.9102 30.3357 57.6767 30.2613 57.3586 30.2613H56.4657V31.9161ZM62.0937 30.4614C62.5093 30.4614 62.8813 30.5486 63.2097 30.7231C63.5432 30.8976 63.8049 31.1516 63.9948 31.4851C64.1846 31.8135 64.2796 32.2009 64.2796 32.6473C64.2796 33.0937 64.1846 33.4811 63.9948 33.8095C63.8049 34.1379 63.5432 34.3919 63.2097 34.5715C62.8813 34.7459 62.5093 34.8332 62.0937 34.8332C61.6781 34.8332 61.3035 34.7459 60.97 34.5715C60.6416 34.3919 60.3824 34.1379 60.1926 33.8095C60.0027 33.4811 59.9078 33.0937 59.9078 32.6473C59.9078 32.2009 60.0027 31.8135 60.1926 31.4851C60.3824 31.1516 60.6416 30.8976 60.97 30.7231C61.3035 30.5486 61.6781 30.4614 62.0937 30.4614ZM62.0937 31.4004C61.7909 31.4004 61.5344 31.5082 61.324 31.7237C61.1136 31.9341 61.0084 32.2419 61.0084 32.6473C61.0084 33.0527 61.1136 33.3631 61.324 33.5786C61.5344 33.789 61.7909 33.8942 62.0937 33.8942C62.3964 33.8942 62.653 33.789 62.8634 33.5786C63.0737 33.3631 63.1789 33.0527 63.1789 32.6473C63.1789 32.2419 63.0737 31.9341 62.8634 31.7237C62.653 31.5082 62.3964 31.4004 62.0937 31.4004ZM69.1258 30.5153V34.7793H68.0406V33.9173C67.9277 34.2046 67.7404 34.4304 67.4787 34.5946C67.2221 34.7536 66.9245 34.8332 66.5859 34.8332C66.0933 34.8332 65.7008 34.6715 65.4083 34.3483C65.1158 34.025 64.9696 33.5735 64.9696 32.9936V30.5153H66.0471V32.8705C66.0471 33.2092 66.1343 33.4734 66.3088 33.6633C66.4833 33.848 66.7193 33.9404 67.0169 33.9404C67.3299 33.9404 67.5788 33.8403 67.7635 33.6402C67.9482 33.4401 68.0406 33.1527 68.0406 32.7781V30.5153H69.1258ZM72.3908 33.848V34.7793H71.8212C71.344 34.7793 70.9772 34.6638 70.7206 34.4329C70.4692 34.202 70.3435 33.8172 70.3435 33.2784V31.4312H69.7508V30.5153H70.3435V29.4608H71.4287V30.5153H72.3831V31.4312H71.4287V33.2938C71.4287 33.4991 71.4698 33.6427 71.5519 33.7248C71.634 33.8069 71.7725 33.848 71.9675 33.848H72.3908ZM77.1817 32.4857C77.1817 32.5934 77.1689 32.7166 77.1433 32.8551H74.0184C74.0338 33.2348 74.1364 33.5145 74.3262 33.6941C74.5161 33.8736 74.7521 33.9634 75.0343 33.9634C75.2858 33.9634 75.4936 33.9019 75.6578 33.7787C75.8271 33.6556 75.9349 33.4888 75.981 33.2784H77.1279C77.0714 33.576 76.9508 33.8429 76.7661 34.0789C76.5814 34.3149 76.3428 34.4996 76.0503 34.6331C75.763 34.7665 75.4423 34.8332 75.0882 34.8332C74.6726 34.8332 74.3031 34.7459 73.9799 34.5715C73.6566 34.3919 73.4052 34.1379 73.2256 33.8095C73.046 33.4811 72.9562 33.0937 72.9562 32.6473C72.9562 32.2009 73.046 31.8135 73.2256 31.4851C73.4052 31.1516 73.6566 30.8976 73.9799 30.7231C74.3031 30.5486 74.6726 30.4614 75.0882 30.4614C75.509 30.4614 75.8759 30.5486 76.1889 30.7231C76.507 30.8976 76.7507 31.1387 76.92 31.4466C77.0945 31.7493 77.1817 32.0957 77.1817 32.4857ZM76.0888 32.3779C76.1042 32.029 76.0118 31.7647 75.8117 31.5851C75.6167 31.4056 75.3756 31.3158 75.0882 31.3158C74.7957 31.3158 74.5494 31.4056 74.3493 31.5851C74.1492 31.7647 74.0389 32.029 74.0184 32.3779H76.0888ZM79.4222 30.4614C79.9405 30.4614 80.3561 30.5923 80.6691 30.8539C80.9821 31.1156 81.1771 31.4646 81.254 31.9007H80.2381C80.197 31.6955 80.1047 31.5313 79.961 31.4081C79.8173 31.285 79.63 31.2234 79.3991 31.2234C79.2144 31.2234 79.0707 31.267 78.9681 31.3542C78.8655 31.4415 78.8142 31.5595 78.8142 31.7083C78.8142 31.8263 78.8552 31.9212 78.9373 31.9931C79.0194 32.0649 79.122 32.1213 79.2452 32.1624C79.3683 32.2034 79.5454 32.2522 79.7763 32.3086C80.0995 32.3805 80.3612 32.4574 80.5613 32.5395C80.7666 32.6165 80.941 32.7422 81.0847 32.9167C81.2335 33.086 81.3079 33.3169 81.3079 33.6094C81.3079 33.9737 81.1642 34.2687 80.8769 34.4945C80.5947 34.7203 80.2124 34.8332 79.7301 34.8332C79.1759 34.8332 78.7321 34.71 78.3985 34.4637C78.065 34.2123 77.8623 33.8557 77.7905 33.3939H78.8296C78.8552 33.6043 78.9476 33.771 79.1066 33.8942C79.2657 34.0122 79.4735 34.0712 79.7301 34.0712C79.9148 34.0712 80.0559 34.0276 80.1534 33.9404C80.2509 33.848 80.2996 33.73 80.2996 33.5863C80.2996 33.4632 80.256 33.3631 80.1688 33.2861C80.0867 33.2092 79.9815 33.1501 79.8532 33.1091C79.7301 33.0681 79.5531 33.0193 79.3222 32.9629C79.004 32.891 78.7449 32.8192 78.5448 32.7474C78.3498 32.6704 78.1805 32.5498 78.0368 32.3856C77.8983 32.2214 77.829 31.9956 77.829 31.7083C77.829 31.3388 77.9701 31.0387 78.2523 30.8078C78.5345 30.5769 78.9245 30.4614 79.4222 30.4614Z" fill="white"/>
<path d="M200.178 30.0795V31.5433H201.956V32.1452H200.178V33.6432H202.161V34.2793H199.398V29.4503H202.161V30.0795H200.178ZM204.43 30.4626C204.772 30.4626 205.063 30.5469 205.305 30.7157C205.547 30.8844 205.716 31.1078 205.811 31.386V29.2177H206.598V34.2793H205.811V33.4038C205.716 33.6819 205.547 33.9054 205.305 34.0741C205.063 34.2428 204.772 34.3272 204.43 34.3272C204.101 34.3272 203.807 34.2497 203.547 34.0946C203.292 33.9396 203.091 33.7161 202.945 33.4243C202.799 33.1325 202.726 32.7882 202.726 32.3915C202.726 31.9993 202.799 31.6573 202.945 31.3655C203.091 31.0736 203.292 30.8502 203.547 30.6951C203.807 30.5401 204.101 30.4626 204.43 30.4626ZM204.669 31.1466C204.322 31.1466 204.044 31.2583 203.835 31.4817C203.629 31.7006 203.527 32.0039 203.527 32.3915C203.527 32.7791 203.629 33.0846 203.835 33.308C204.044 33.5269 204.322 33.6363 204.669 33.6363C204.888 33.6363 205.084 33.5862 205.257 33.4859C205.431 33.381 205.567 33.2351 205.668 33.0481C205.768 32.8611 205.818 32.6423 205.818 32.3915C205.818 32.1452 205.768 31.9286 205.668 31.7417C205.567 31.5501 205.431 31.4042 205.257 31.3039C205.084 31.199 204.888 31.1466 204.669 31.1466ZM207.424 29.4161C207.424 29.2838 207.47 29.1744 207.561 29.0877C207.652 29.0011 207.773 28.9578 207.924 28.9578C208.074 28.9578 208.195 29.0011 208.286 29.0877C208.382 29.1744 208.43 29.2838 208.43 29.4161C208.43 29.5483 208.382 29.6555 208.286 29.7375C208.195 29.8196 208.074 29.8607 207.924 29.8607C207.773 29.8607 207.652 29.8196 207.561 29.7375C207.47 29.6555 207.424 29.5483 207.424 29.4161ZM208.313 30.5105V34.2793H207.534V30.5105H208.313ZM211.152 33.6021V34.2793H210.673C210.272 34.2793 209.966 34.1835 209.756 33.992C209.551 33.7959 209.449 33.4722 209.449 33.0207V31.1739H208.908V30.5105H209.449V29.5734H210.235V30.5105H211.145V31.1739H210.235V33.0344C210.235 33.2487 210.274 33.3969 210.351 33.479C210.433 33.5611 210.575 33.6021 210.775 33.6021H211.152Z" fill="white"/>
<circle cx="41.1108" cy="70.9819" r="11.2593" fill="#AEAEB2"/>
<g clip-path="url(#clip0_6396_12624)">
<path d="M46.6708 66.5764C46.5184 66.581 46.3738 66.6446 46.2676 66.754L39.0587 73.9628L35.9548 70.8589C35.9008 70.8026 35.8361 70.7577 35.7645 70.7267C35.6928 70.6958 35.6158 70.6794 35.5378 70.6786C35.4597 70.6778 35.3823 70.6926 35.3101 70.7221C35.2379 70.7516 35.1723 70.7952 35.1171 70.8504C35.0619 70.9055 35.0183 70.9712 34.9888 71.0434C34.9593 71.1156 34.9445 71.193 34.9453 71.271C34.9461 71.3491 34.9625 71.4261 34.9934 71.4978C35.0244 71.5694 35.0693 71.6341 35.1256 71.6881L38.6441 75.2066C38.7541 75.3166 38.9032 75.3783 39.0587 75.3783C39.2142 75.3783 39.3634 75.3166 39.4734 75.2066L47.0968 67.5832C47.1816 67.5008 47.2394 67.3948 47.2629 67.2789C47.2863 67.1631 47.2742 67.0429 47.2281 66.9341C47.1821 66.8252 47.1042 66.7329 47.0048 66.669C46.9053 66.6052 46.7889 66.5729 46.6708 66.5764Z" fill="white"/>
</g>
<path d="M63.4869 66.6469C63.4869 67.2076 63.3694 67.7015 63.1344 68.1287C62.8995 68.5559 62.5577 68.8897 62.1091 69.13C61.6659 69.3649 61.1373 69.4824 60.5232 69.4824H58.5126V63.8274H60.5232C61.1373 63.8274 61.6659 63.9448 62.1091 64.1798C62.5577 64.4094 62.8995 64.7378 63.1344 65.165C63.3694 65.5869 63.4869 66.0808 63.4869 66.6469ZM60.427 68.4732C61.0358 68.4732 61.5057 68.313 61.8368 67.9926C62.1732 67.6722 62.3414 67.2236 62.3414 66.6469C62.3414 66.0648 62.1732 65.6136 61.8368 65.2932C61.5057 64.9728 61.0358 64.8126 60.427 64.8126H59.6421V68.4732H60.427ZM66.0706 64.9888C66.4444 64.9888 66.7648 65.0769 67.0318 65.2531C67.2988 65.4294 67.4883 65.667 67.6005 65.966V65.0449H68.7219V69.4824H67.6005V68.5533C67.4883 68.8523 67.2988 69.0926 67.0318 69.2742C66.7648 69.4504 66.4444 69.5385 66.0706 69.5385C65.6968 69.5385 65.3604 69.4477 65.0613 69.2662C64.7623 69.0846 64.5273 68.8229 64.3564 68.4812C64.1909 68.1341 64.1081 67.7282 64.1081 67.2637C64.1081 66.7991 64.1909 66.3959 64.3564 66.0541C64.5273 65.707 64.7623 65.4427 65.0613 65.2612C65.3604 65.0796 65.6968 64.9888 66.0706 64.9888ZM66.423 65.974C66.0706 65.974 65.7876 66.0889 65.574 66.3185C65.3604 66.5481 65.2536 66.8632 65.2536 67.2637C65.2536 67.6642 65.3604 67.9792 65.574 68.2088C65.7876 68.4331 66.0706 68.5453 66.423 68.5453C66.7648 68.5453 67.0451 68.4304 67.2641 68.2008C67.4883 67.9659 67.6005 67.6535 67.6005 67.2637C67.6005 66.8685 67.4883 66.5561 67.2641 66.3265C67.0451 66.0915 66.7648 65.974 66.423 65.974ZM71.6758 68.353L72.7972 65.0449H73.9987L72.3567 69.4824H70.979L69.3369 65.0449H70.5464L71.6758 68.353ZM74.4983 63.7713C74.4983 63.5897 74.5624 63.4429 74.6906 63.3307C74.8187 63.2133 74.987 63.1545 75.1952 63.1545C75.4035 63.1545 75.5717 63.2133 75.6998 63.3307C75.828 63.4429 75.8921 63.5897 75.8921 63.7713C75.8921 63.9475 75.828 64.0944 75.6998 64.2118C75.5717 64.324 75.4035 64.3801 75.1952 64.3801C74.987 64.3801 74.8187 64.324 74.6906 64.2118C74.5624 64.0944 74.4983 63.9475 74.4983 63.7713ZM75.7559 65.0449V69.4824H74.6265V65.0449H75.7559ZM78.5158 64.9888C78.8896 64.9888 79.2073 65.0769 79.469 65.2531C79.736 65.4294 79.9282 65.667 80.0457 65.966V63.555H81.1671V69.4824H80.0457V68.5533C79.9282 68.8523 79.736 69.0926 79.469 69.2742C79.2073 69.4504 78.8896 69.5385 78.5158 69.5385C78.142 69.5385 77.8056 69.4477 77.5065 69.2662C77.2075 69.0846 76.9725 68.8229 76.8017 68.4812C76.6361 68.1341 76.5533 67.7282 76.5533 67.2637C76.5533 66.7991 76.6361 66.3959 76.8017 66.0541C76.9725 65.707 77.2075 65.4427 77.5065 65.2612C77.8056 65.0796 78.142 64.9888 78.5158 64.9888ZM78.8682 65.974C78.5158 65.974 78.2328 66.0889 78.0192 66.3185C77.8056 66.5481 77.6988 66.8632 77.6988 67.2637C77.6988 67.6642 77.8056 67.9792 78.0192 68.2088C78.2328 68.4331 78.5158 68.5453 78.8682 68.5453C79.21 68.5453 79.4904 68.4304 79.7093 68.2008C79.9336 67.9659 80.0457 67.6535 80.0457 67.2637C80.0457 66.8685 79.9336 66.5561 79.7093 66.3265C79.4904 66.0915 79.21 65.974 78.8682 65.974ZM85.0644 67.3838V69.4824H83.935V63.8274H85.9936C86.6611 63.8274 87.163 63.9876 87.4995 64.308C87.8412 64.6284 88.0121 65.0636 88.0121 65.6136C88.0121 66.1529 87.8359 66.5828 87.4834 66.9032C87.1363 67.2236 86.6397 67.3838 85.9936 67.3838H85.0644ZM85.8734 66.4787C86.5356 66.4787 86.8667 66.1903 86.8667 65.6136C86.8667 65.3306 86.7892 65.1143 86.6344 64.9648C86.4795 64.8153 86.2259 64.7405 85.8734 64.7405H85.0644V66.4787H85.8734ZM90.4839 64.9888C90.8577 64.9888 91.1781 65.0769 91.4451 65.2531C91.7121 65.4294 91.9016 65.667 92.0138 65.966V65.0449H93.1352V69.4824H92.0138V68.5533C91.9016 68.8523 91.7121 69.0926 91.4451 69.2742C91.1781 69.4504 90.8577 69.5385 90.4839 69.5385C90.1101 69.5385 89.7736 69.4477 89.4746 69.2662C89.1756 69.0846 88.9406 68.8229 88.7697 68.4812C88.6042 68.1341 88.5214 67.7282 88.5214 67.2637C88.5214 66.7991 88.6042 66.3959 88.7697 66.0541C88.9406 65.707 89.1756 65.4427 89.4746 65.2612C89.7736 65.0796 90.1101 64.9888 90.4839 64.9888ZM90.8363 65.974C90.4839 65.974 90.2008 66.0889 89.9872 66.3185C89.7736 66.5481 89.6668 66.8632 89.6668 67.2637C89.6668 67.6642 89.7736 67.9792 89.9872 68.2088C90.2008 68.4331 90.4839 68.5453 90.8363 68.5453C91.1781 68.5453 91.4584 68.4304 91.6774 68.2008C91.9016 67.9659 92.0138 67.6535 92.0138 67.2637C92.0138 66.8685 91.9016 66.5561 91.6774 66.3265C91.4584 66.0915 91.1781 65.974 90.8363 65.974ZM95.2881 65.8939C95.4537 65.6109 95.6726 65.3893 95.9449 65.2291C96.2173 65.0636 96.5217 64.9808 96.8581 64.9808V66.1903H96.5297C95.702 66.1903 95.2881 66.5748 95.2881 67.3438V69.4824H94.1587V65.0449H95.2881V65.8939ZM100.078 69.4824L98.6126 67.544V69.4824H97.4832V63.555H98.6126V66.8872L100.07 65.0449H101.408L99.5417 67.2556L101.456 69.4824H100.078ZM106.178 67.0954C106.178 67.2076 106.164 67.3357 106.138 67.4799H102.886C102.902 67.8751 103.008 68.1661 103.206 68.353C103.404 68.5399 103.649 68.6334 103.943 68.6334C104.205 68.6334 104.421 68.5693 104.592 68.4411C104.768 68.313 104.88 68.1394 104.928 67.9205H106.122C106.063 68.2302 105.937 68.5079 105.745 68.7535C105.553 68.9992 105.305 69.1914 105 69.3302C104.701 69.4691 104.367 69.5385 103.999 69.5385C103.566 69.5385 103.182 69.4477 102.845 69.2662C102.509 69.0793 102.247 68.8149 102.061 68.4732C101.874 68.1314 101.78 67.7282 101.78 67.2637C101.78 66.7991 101.874 66.3959 102.061 66.0541C102.247 65.707 102.509 65.4427 102.845 65.2612C103.182 65.0796 103.566 64.9888 103.999 64.9888C104.437 64.9888 104.819 65.0796 105.144 65.2612C105.475 65.4427 105.729 65.6937 105.905 66.0141C106.087 66.3292 106.178 66.6896 106.178 67.0954ZM105.04 66.9833C105.056 66.6202 104.96 66.3452 104.752 66.1583C104.549 65.9714 104.298 65.8779 103.999 65.8779C103.695 65.8779 103.438 65.9714 103.23 66.1583C103.022 66.3452 102.907 66.6202 102.886 66.9833H105.04ZM108.109 65.8939C108.274 65.6109 108.493 65.3893 108.766 65.2291C109.038 65.0636 109.342 64.9808 109.679 64.9808V66.1903H109.35C108.523 66.1903 108.109 66.5748 108.109 67.3438V69.4824H106.979V65.0449H108.109V65.8939Z" fill="#003366"/>
<path d="M58.168 77.6044V77.1925L60.1301 74.6342H60.6612V77.1762H61.2249V77.6044H60.6612V78.4824H60.1626V77.6044H58.168ZM60.1951 75.2358L58.6883 77.1762H60.1951V75.2358ZM64.3529 75.0516H62.3908V76.3307C62.4812 76.2078 62.6112 76.1103 62.7811 76.038C62.9509 75.9657 63.137 75.9296 63.3393 75.9296C63.6103 75.9296 63.8344 75.9874 64.0114 76.103C64.1921 76.2151 64.324 76.365 64.4071 76.5529C64.4938 76.7372 64.5372 76.9431 64.5372 77.1708C64.5372 77.5646 64.4269 77.8862 64.2065 78.1355C63.9861 78.3849 63.6627 78.5095 63.2364 78.5095C62.8533 78.5095 62.5408 78.4065 62.2987 78.2006C62.0566 77.991 61.9211 77.711 61.8922 77.3605H62.38C62.4197 77.5845 62.5119 77.7598 62.6564 77.8862C62.8046 78.0091 62.9906 78.0705 63.2147 78.0705C63.4929 78.0705 63.7025 77.9874 63.8434 77.8212C63.9843 77.655 64.0548 77.4364 64.0548 77.1654C64.0548 76.9016 63.9825 76.6956 63.838 76.5475C63.6934 76.3993 63.4893 76.3253 63.2255 76.3253C63.0376 76.3253 62.8732 76.3668 62.7323 76.4499C62.5914 76.5294 62.4848 76.6378 62.4125 76.7751H61.9356V74.6125H64.3529V75.0516ZM65.3025 75.561C65.3025 75.3731 65.3531 75.2015 65.4543 75.0461C65.5555 74.8908 65.7054 74.7679 65.9041 74.6776C66.1029 74.5872 66.3395 74.5421 66.6142 74.5421C66.8888 74.5421 67.1236 74.5872 67.3188 74.6776C67.5175 74.7679 67.6674 74.8908 67.7686 75.0461C67.8698 75.2015 67.9204 75.3731 67.9204 75.561C67.9204 75.7742 67.8626 75.9585 67.7469 76.1139C67.6313 76.2693 67.4561 76.3795 67.2212 76.4445C67.4741 76.5132 67.6711 76.6324 67.812 76.8022C67.9529 76.972 68.0234 77.1816 68.0234 77.4309C68.0234 77.7923 67.8951 78.0759 67.6385 78.2819C67.382 78.4878 67.0405 78.5908 66.6142 78.5908C66.1878 78.5908 65.8463 78.4878 65.5898 78.2819C65.3332 78.0759 65.205 77.7923 65.205 77.4309C65.205 77.1816 65.2736 76.972 65.4109 76.8022C65.5518 76.6324 65.7488 76.5132 66.0017 76.4445C65.7668 76.3795 65.5916 76.2693 65.476 76.1139C65.3603 75.9585 65.3025 75.7742 65.3025 75.561ZM65.7903 75.6315C65.7903 75.8483 65.8644 76.0163 66.0125 76.1356C66.1607 76.2512 66.3612 76.309 66.6142 76.309C66.8671 76.309 67.0658 76.2512 67.2104 76.1356C67.3585 76.0163 67.4326 75.8483 67.4326 75.6315C67.4326 75.4147 67.3585 75.2485 67.2104 75.1329C67.0622 75.0136 66.8635 74.954 66.6142 74.954C66.3648 74.954 66.1643 75.0136 66.0125 75.1329C65.8644 75.2485 65.7903 75.4147 65.7903 75.6315ZM65.6873 77.4038C65.6873 77.6495 65.7704 77.8411 65.9367 77.9784C66.1029 78.1121 66.3287 78.1789 66.6142 78.1789C66.896 78.1789 67.12 78.1102 67.2862 77.9729C67.4525 77.8356 67.5356 77.6459 67.5356 77.4038C67.5356 77.1581 67.4488 76.972 67.2754 76.8456C67.102 76.7191 66.8815 76.6559 66.6142 76.6559C66.3432 76.6559 66.1209 76.7191 65.9475 76.8456C65.7741 76.972 65.6873 77.1581 65.6873 77.4038ZM72.1158 74.6613V77.5014C72.1158 77.8158 72.0255 78.0651 71.8448 78.2494C71.6678 78.43 71.4185 78.5204 71.0969 78.5204C70.75 78.5204 70.4772 78.4192 70.2785 78.2168C70.0833 78.0109 69.9858 77.7236 69.9858 77.3551H70.479C70.479 77.5755 70.5278 77.7507 70.6253 77.8808C70.7229 78.0073 70.8729 78.0705 71.0752 78.0705C71.2667 78.0705 71.4058 78.0163 71.4925 77.9079C71.5793 77.7995 71.6226 77.664 71.6226 77.5014V74.6613H72.1158ZM75.7276 76.8293C75.7276 76.9341 75.7204 77.0244 75.7059 77.1003H73.3265C73.3374 77.44 73.4331 77.6947 73.6138 77.8645C73.7981 78.0344 74.0221 78.1193 74.2859 78.1193C74.5244 78.1193 74.7231 78.0597 74.8821 77.9404C75.0447 77.8176 75.144 77.655 75.1802 77.4526H75.7059C75.6698 77.6586 75.5885 77.8429 75.462 78.0055C75.3392 78.1681 75.1784 78.2945 74.9796 78.3849C74.7809 78.4752 74.5569 78.5204 74.3076 78.5204C74.0221 78.5204 73.7692 78.4589 73.5488 78.3361C73.3283 78.2132 73.1549 78.038 73.0284 77.8103C72.9056 77.5791 72.8442 77.3081 72.8442 76.9973C72.8442 76.6866 72.9056 76.4156 73.0284 76.1843C73.1549 75.9531 73.3283 75.776 73.5488 75.6532C73.7692 75.5303 74.0221 75.4689 74.3076 75.4689C74.5966 75.4689 74.8477 75.5303 75.0609 75.6532C75.2777 75.776 75.4421 75.9404 75.5542 76.1464C75.6698 76.3524 75.7276 76.58 75.7276 76.8293ZM75.229 76.8618C75.2398 76.6414 75.2037 76.4571 75.1206 76.309C75.0374 76.1609 74.9236 76.0506 74.7791 75.9784C74.6346 75.9061 74.4774 75.87 74.3076 75.87C74.0366 75.87 73.8089 75.9549 73.6246 76.1247C73.4404 76.2909 73.341 76.5366 73.3265 76.8618H75.229ZM77.4133 75.4689C77.7494 75.4689 78.0186 75.5574 78.2209 75.7345C78.4269 75.9079 78.5515 76.1428 78.5949 76.4391H78.1234C78.1017 76.262 78.0276 76.1175 77.9011 76.0055C77.7783 75.8899 77.6121 75.832 77.4025 75.832C77.2254 75.832 77.0863 75.8754 76.9852 75.9621C76.8876 76.0452 76.8388 76.159 76.8388 76.3036C76.8388 76.412 76.8713 76.5005 76.9364 76.5692C77.005 76.6342 77.0881 76.6848 77.1857 76.7209C77.2869 76.7534 77.4242 76.7896 77.5976 76.8293C77.818 76.8799 77.9951 76.9323 78.1288 76.9865C78.2661 77.0371 78.3817 77.1202 78.4757 77.2358C78.5732 77.3514 78.622 77.5068 78.622 77.7019C78.622 77.944 78.5299 78.141 78.3456 78.2927C78.1649 78.4445 77.9228 78.5204 77.6193 78.5204C77.2652 78.5204 76.9761 78.4354 76.7521 78.2656C76.5281 78.0958 76.3962 77.8591 76.3564 77.5556H76.8334C76.8515 77.7363 76.9292 77.8826 77.0665 77.9946C77.2074 78.1066 77.3917 78.1626 77.6193 78.1626C77.7891 78.1626 77.921 78.1193 78.015 78.0326C78.1125 77.9458 78.1613 77.832 78.1613 77.6911C78.1613 77.5755 78.127 77.4833 78.0583 77.4147C77.9897 77.346 77.9048 77.2936 77.8036 77.2575C77.7024 77.2214 77.5633 77.1834 77.3862 77.1437C77.1658 77.0931 76.9888 77.0425 76.8551 76.9919C76.725 76.9413 76.613 76.8618 76.519 76.7534C76.4287 76.6414 76.3835 76.4915 76.3835 76.3036C76.3835 76.0543 76.4757 75.8537 76.66 75.702C76.8442 75.5466 77.0954 75.4689 77.4133 75.4689ZM80.3217 75.4689C80.6578 75.4689 80.927 75.5574 81.1293 75.7345C81.3353 75.9079 81.4599 76.1428 81.5033 76.4391H81.0317C81.0101 76.262 80.936 76.1175 80.8095 76.0055C80.6867 75.8899 80.5205 75.832 80.3109 75.832C80.1338 75.832 79.9947 75.8754 79.8935 75.9621C79.796 76.0452 79.7472 76.159 79.7472 76.3036C79.7472 76.412 79.7797 76.5005 79.8448 76.5692C79.9134 76.6342 79.9965 76.6848 80.0941 76.7209C80.1953 76.7534 80.3326 76.7896 80.506 76.8293C80.7264 76.8799 80.9035 76.9323 81.0372 76.9865C81.1745 77.0371 81.2901 77.1202 81.384 77.2358C81.4816 77.3514 81.5304 77.5068 81.5304 77.7019C81.5304 77.944 81.4382 78.141 81.254 78.2927C81.0733 78.4445 80.8312 78.5204 80.5277 78.5204C80.1736 78.5204 79.8845 78.4354 79.6605 78.2656C79.4365 78.0958 79.3046 77.8591 79.2648 77.5556H79.7418C79.7598 77.7363 79.8375 77.8826 79.9748 77.9946C80.1158 78.1066 80.3 78.1626 80.5277 78.1626C80.6975 78.1626 80.8294 78.1193 80.9233 78.0326C81.0209 77.9458 81.0697 77.832 81.0697 77.6911C81.0697 77.5755 81.0354 77.4833 80.9667 77.4147C80.898 77.346 80.8131 77.2936 80.712 77.2575C80.6108 77.2214 80.4717 77.1834 80.2946 77.1437C80.0742 77.0931 79.8972 77.0425 79.7635 76.9919C79.6334 76.9413 79.5214 76.8618 79.4274 76.7534C79.3371 76.6414 79.2919 76.4915 79.2919 76.3036C79.2919 76.0543 79.3841 75.8537 79.5683 75.702C79.7526 75.5466 80.0037 75.4689 80.3217 75.4689ZM82.2111 74.6342C82.2111 74.5439 82.2419 74.4716 82.3033 74.4174C82.3647 74.3596 82.446 74.3307 82.5472 74.3307C82.6484 74.3307 82.7297 74.3596 82.7911 74.4174C82.8525 74.4716 82.8832 74.5439 82.8832 74.6342C82.8832 74.7246 82.8525 74.7986 82.7911 74.8564C82.7297 74.9106 82.6484 74.9377 82.5472 74.9377C82.446 74.9377 82.3647 74.9106 82.3033 74.8564C82.2419 74.7986 82.2111 74.7246 82.2111 74.6342ZM82.7911 75.5068V78.4824H82.2979V75.5068H82.7911ZM86.4296 76.8293C86.4296 76.9341 86.4223 77.0244 86.4079 77.1003H84.0285C84.0393 77.44 84.1351 77.6947 84.3158 77.8645C84.5 78.0344 84.7241 78.1193 84.9878 78.1193C85.2263 78.1193 85.425 78.0597 85.584 77.9404C85.7466 77.8176 85.846 77.655 85.8821 77.4526H86.4079C86.3717 77.6586 86.2904 77.8429 86.164 78.0055C86.0411 78.1681 85.8803 78.2945 85.6816 78.3849C85.4829 78.4752 85.2588 78.5204 85.0095 78.5204C84.7241 78.5204 84.4711 78.4589 84.2507 78.3361C84.0303 78.2132 83.8569 78.038 83.7304 77.8103C83.6075 77.5791 83.5461 77.3081 83.5461 76.9973C83.5461 76.6866 83.6075 76.4156 83.7304 76.1843C83.8569 75.9531 84.0303 75.776 84.2507 75.6532C84.4711 75.5303 84.7241 75.4689 85.0095 75.4689C85.2986 75.4689 85.5497 75.5303 85.7629 75.6532C85.9797 75.776 86.1441 75.9404 86.2561 76.1464C86.3717 76.3524 86.4296 76.58 86.4296 76.8293ZM85.9309 76.8618C85.9418 76.6414 85.9056 76.4571 85.8225 76.309C85.7394 76.1609 85.6256 76.0506 85.4811 75.9784C85.3365 75.9061 85.1793 75.87 85.0095 75.87C84.7385 75.87 84.5109 75.9549 84.3266 76.1247C84.1423 76.2909 84.0429 76.5366 84.0285 76.8618H85.9309ZM91.0479 77.4906C91.0479 77.6712 91.0045 77.8392 90.9178 77.9946C90.8311 78.15 90.6992 78.2765 90.5222 78.374C90.3451 78.4716 90.1265 78.5204 89.8663 78.5204C89.6134 78.5204 89.3876 78.4752 89.1888 78.3849C88.9937 78.2909 88.8365 78.1644 88.7173 78.0055C88.6017 77.8429 88.5348 77.6586 88.5168 77.4526H89.0425C89.0533 77.561 89.0895 77.6676 89.1509 77.7724C89.2159 77.8736 89.3063 77.9585 89.4219 78.0271C89.5411 78.0922 89.6839 78.1247 89.8501 78.1247C90.0669 78.1247 90.2331 78.0669 90.3487 77.9513C90.4643 77.8356 90.5222 77.6875 90.5222 77.5068C90.5222 77.3514 90.4806 77.225 90.3975 77.1274C90.318 77.0299 90.2186 76.954 90.0994 76.8998C89.9802 76.842 89.8176 76.7805 89.6116 76.7155C89.3695 76.636 89.1744 76.5619 89.0262 76.4933C88.8817 76.421 88.757 76.3144 88.6523 76.1735C88.5511 76.0326 88.5005 75.8465 88.5005 75.6152C88.5005 75.4165 88.5475 75.2413 88.6414 75.0895C88.739 74.9377 88.8763 74.8203 89.0533 74.7372C89.234 74.6541 89.4454 74.6125 89.6875 74.6125C90.0633 74.6125 90.3614 74.7047 90.5818 74.889C90.8022 75.0696 90.9305 75.3009 90.9666 75.5827H90.4354C90.4065 75.431 90.3288 75.2973 90.2024 75.1816C90.0759 75.066 89.9043 75.0082 89.6875 75.0082C89.4887 75.0082 89.3298 75.0606 89.2105 75.1654C89.0913 75.2666 89.0317 75.4111 89.0317 75.599C89.0317 75.7471 89.0696 75.8682 89.1455 75.9621C89.225 76.0525 89.3225 76.1247 89.4382 76.1789C89.5538 76.2295 89.7128 76.2873 89.9151 76.3524C90.1608 76.4319 90.3578 76.5077 90.5059 76.58C90.6577 76.6523 90.7859 76.7625 90.8907 76.9106C90.9955 77.0552 91.0479 77.2485 91.0479 77.4906ZM93.2395 78.0488V78.4824H92.871C92.5674 78.4824 92.3398 78.4102 92.188 78.2656C92.0399 78.1211 91.9658 77.879 91.9658 77.5393V75.935H91.5214V75.5068H91.9658V74.7643H92.4645V75.5068H93.2341V75.935H92.4645V77.5502C92.4645 77.7417 92.4988 77.8736 92.5674 77.9458C92.6397 78.0145 92.7626 78.0488 92.936 78.0488H93.2395ZM94.443 76.1085C94.5406 75.9025 94.6833 75.7435 94.8712 75.6315C95.0591 75.5159 95.2831 75.4581 95.5433 75.4581V75.9946H95.3915C95.1133 75.9946 94.8857 76.0669 94.7086 76.2114C94.5315 76.3524 94.443 76.5872 94.443 76.916V78.4824H93.9498V75.5068H94.443V76.1085ZM98.8754 76.8293C98.8754 76.9341 98.8682 77.0244 98.8538 77.1003H96.4744C96.4852 77.44 96.581 77.6947 96.7616 77.8645C96.9459 78.0344 97.1699 78.1193 97.4337 78.1193C97.6722 78.1193 97.8709 78.0597 98.0299 77.9404C98.1925 77.8176 98.2919 77.655 98.328 77.4526H98.8538C98.8176 77.6586 98.7363 77.8429 98.6099 78.0055C98.487 78.1681 98.3262 78.2945 98.1275 78.3849C97.9287 78.4752 97.7047 78.5204 97.4554 78.5204C97.1699 78.5204 96.917 78.4589 96.6966 78.3361C96.4762 78.2132 96.3027 78.038 96.1763 77.8103C96.0534 77.5791 95.992 77.3081 95.992 76.9973C95.992 76.6866 96.0534 76.4156 96.1763 76.1843C96.3027 75.9531 96.4762 75.776 96.6966 75.6532C96.917 75.5303 97.1699 75.4689 97.4554 75.4689C97.7445 75.4689 97.9956 75.5303 98.2088 75.6532C98.4256 75.776 98.59 75.9404 98.702 76.1464C98.8176 76.3524 98.8754 76.58 98.8754 76.8293ZM98.3768 76.8618C98.3876 76.6414 98.3515 76.4571 98.2684 76.309C98.1853 76.1609 98.0715 76.0506 97.9269 75.9784C97.7824 75.9061 97.6252 75.87 97.4554 75.87C97.1844 75.87 96.9568 75.9549 96.7725 76.1247C96.5882 76.2909 96.4888 76.5366 96.4744 76.8618H98.3768ZM102.366 76.8293C102.366 76.9341 102.359 77.0244 102.344 77.1003H99.965C99.9758 77.44 100.072 77.6947 100.252 77.8645C100.437 78.0344 100.661 78.1193 100.924 78.1193C101.163 78.1193 101.362 78.0597 101.521 77.9404C101.683 77.8176 101.782 77.655 101.819 77.4526H102.344C102.308 77.6586 102.227 77.8429 102.1 78.0055C101.978 78.1681 101.817 78.2945 101.618 78.3849C101.419 78.4752 101.195 78.5204 100.946 78.5204C100.661 78.5204 100.408 78.4589 100.187 78.3361C99.9668 78.2132 99.7934 78.038 99.6669 77.8103C99.544 77.5791 99.4826 77.3081 99.4826 76.9973C99.4826 76.6866 99.544 76.4156 99.6669 76.1843C99.7934 75.9531 99.9668 75.776 100.187 75.6532C100.408 75.5303 100.661 75.4689 100.946 75.4689C101.235 75.4689 101.486 75.5303 101.699 75.6532C101.916 75.776 102.081 75.9404 102.193 76.1464C102.308 76.3524 102.366 76.58 102.366 76.8293ZM101.867 76.8618C101.878 76.6414 101.842 76.4571 101.759 76.309C101.676 76.1609 101.562 76.0506 101.418 75.9784C101.273 75.9061 101.116 75.87 100.946 75.87C100.675 75.87 100.447 75.9549 100.263 76.1247C100.079 76.2909 99.9794 76.5366 99.965 76.8618H101.867ZM104.54 78.0488V78.4824H104.171C103.868 78.4824 103.64 78.4102 103.488 78.2656C103.34 78.1211 103.266 77.879 103.266 77.5393V75.935H102.821V75.5068H103.266V74.7643H103.765V75.5068H104.534V75.935H103.765V77.5502C103.765 77.7417 103.799 77.8736 103.868 77.9458C103.94 78.0145 104.063 78.0488 104.236 78.0488H104.54ZM105.537 78.1193C105.588 78.2783 105.613 78.4264 105.613 78.5637C105.613 78.7516 105.566 78.9016 105.472 79.0136C105.378 79.1292 105.237 79.187 105.049 79.187V78.9756C105.14 78.9756 105.205 78.9503 105.244 78.8998C105.288 78.8528 105.309 78.7769 105.309 78.6721V78.6233H105.033V78.1193H105.537ZM109.444 74.6234C109.91 74.6234 110.295 74.739 110.599 74.9703C110.902 75.1979 111.112 75.5105 111.227 75.9079H110.707C110.61 75.655 110.452 75.4544 110.236 75.3063C110.019 75.1545 109.753 75.0787 109.439 75.0787C109.19 75.0787 108.966 75.1401 108.767 75.2629C108.572 75.3822 108.416 75.5556 108.301 75.7833C108.189 76.0073 108.133 76.2711 108.133 76.5746C108.133 76.8745 108.189 77.1365 108.301 77.3605C108.416 77.5845 108.572 77.7579 108.767 77.8808C108.966 78 109.19 78.0597 109.439 78.0597C109.753 78.0597 110.019 77.9856 110.236 77.8374C110.452 77.6857 110.61 77.4833 110.707 77.2304H111.227C111.112 77.6279 110.902 77.9422 110.599 78.1735C110.295 78.4011 109.91 78.5149 109.444 78.5149C109.087 78.5149 108.77 78.4336 108.496 78.271C108.221 78.1048 108.006 77.8754 107.851 77.5827C107.699 77.2864 107.623 76.9504 107.623 76.5746C107.623 76.1952 107.699 75.8573 107.851 75.561C108.006 75.2647 108.221 75.0353 108.496 74.8727C108.77 74.7065 109.087 74.6234 109.444 74.6234ZM113.345 75.4689C113.63 75.4689 113.885 75.5303 114.109 75.6532C114.337 75.776 114.514 75.9531 114.64 76.1843C114.77 76.4156 114.836 76.6866 114.836 76.9973C114.836 77.3081 114.77 77.5791 114.64 77.8103C114.514 78.038 114.337 78.2132 114.109 78.3361C113.885 78.4589 113.63 78.5204 113.345 78.5204C113.06 78.5204 112.803 78.4589 112.575 78.3361C112.351 78.2132 112.174 78.038 112.044 77.8103C111.914 77.5791 111.849 77.3081 111.849 76.9973C111.849 76.6866 111.914 76.4156 112.044 76.1843C112.174 75.9531 112.351 75.776 112.575 75.6532C112.803 75.5303 113.06 75.4689 113.345 75.4689ZM113.345 75.9025C113.168 75.9025 113.004 75.9422 112.852 76.0217C112.704 76.1012 112.583 76.2241 112.489 76.3903C112.398 76.5529 112.353 76.7552 112.353 76.9973C112.353 77.2358 112.398 77.4382 112.489 77.6044C112.583 77.767 112.704 77.888 112.852 77.9675C113.004 78.047 113.168 78.0868 113.345 78.0868C113.522 78.0868 113.685 78.047 113.833 77.9675C113.985 77.888 114.106 77.767 114.196 77.6044C114.29 77.4382 114.337 77.2358 114.337 76.9973C114.337 76.7552 114.29 76.5529 114.196 76.3903C114.106 76.2241 113.985 76.1012 113.833 76.0217C113.685 75.9422 113.522 75.9025 113.345 75.9025ZM116.08 74.4716V78.4824H115.587V74.4716H116.08ZM119.626 75.5068V78.4824H119.133V77.7832C119.057 78.0253 118.922 78.2114 118.726 78.3415C118.535 78.468 118.311 78.5312 118.054 78.5312C117.711 78.5312 117.433 78.421 117.22 78.2006C117.006 77.9766 116.9 77.6568 116.9 77.2412V75.5068H117.393V77.1925C117.393 77.4888 117.469 77.7182 117.621 77.8808C117.773 78.0398 117.978 78.1193 118.239 78.1193C118.51 78.1193 118.726 78.0326 118.889 77.8591C119.052 77.6821 119.133 77.4255 119.133 77.0895V75.5068H119.626ZM124.183 75.4581C124.53 75.4581 124.808 75.5701 125.018 75.7941C125.231 76.0145 125.338 76.3343 125.338 76.7534V78.4824H124.844V76.7968C124.844 76.5041 124.772 76.2801 124.628 76.1247C124.487 75.9693 124.292 75.8917 124.042 75.8917C123.782 75.8917 123.573 75.9784 123.414 76.1518C123.258 76.3216 123.181 76.5728 123.181 76.9052V78.4824H122.687V76.7968C122.687 76.5041 122.615 76.2801 122.471 76.1247C122.326 75.9693 122.131 75.8917 121.885 75.8917C121.621 75.8917 121.41 75.9784 121.251 76.1518C121.096 76.3216 121.018 76.5728 121.018 76.9052V78.4824H120.525V75.5068H121.018V76.1843C121.09 75.9495 121.218 75.7706 121.403 75.6478C121.591 75.5213 121.806 75.4581 122.048 75.4581C122.301 75.4581 122.519 75.5231 122.704 75.6532C122.891 75.7796 123.025 75.9675 123.105 76.2169C123.188 75.9748 123.327 75.7887 123.522 75.6586C123.717 75.5249 123.938 75.4581 124.183 75.4581ZM127.854 75.4689C128.118 75.4689 128.353 75.5303 128.559 75.6532C128.765 75.776 128.926 75.9531 129.041 76.1843C129.16 76.4156 129.22 76.6866 129.22 76.9973C129.22 77.3081 129.16 77.5791 129.041 77.8103C128.926 78.038 128.765 78.2132 128.559 78.3361C128.353 78.4589 128.118 78.5204 127.854 78.5204C127.565 78.5204 127.319 78.4481 127.117 78.3036C126.918 78.1554 126.781 77.9621 126.705 77.7236V78.4824H126.212V74.4716H126.705V76.2656C126.781 76.0272 126.918 75.8357 127.117 75.6911C127.319 75.543 127.565 75.4689 127.854 75.4689ZM127.713 75.9079C127.522 75.9079 127.348 75.9531 127.193 76.0434C127.038 76.1301 126.917 76.2566 126.83 76.4228C126.743 76.589 126.7 76.7805 126.7 76.9973C126.7 77.2141 126.743 77.4056 126.83 77.5719C126.917 77.7345 127.038 77.8609 127.193 77.9513C127.348 78.0416 127.522 78.0868 127.713 78.0868C128.02 78.0868 128.264 77.991 128.445 77.7995C128.629 77.6044 128.721 77.337 128.721 76.9973C128.721 76.6577 128.629 76.3921 128.445 76.2006C128.264 76.0055 128.02 75.9079 127.713 75.9079ZM132.617 75.5068V78.4824H132.124V77.7832C132.048 78.0253 131.913 78.2114 131.718 78.3415C131.526 78.468 131.302 78.5312 131.046 78.5312C130.702 78.5312 130.424 78.421 130.211 78.2006C129.998 77.9766 129.891 77.6568 129.891 77.2412V75.5068H130.384V77.1925C130.384 77.4888 130.46 77.7182 130.612 77.8808C130.764 78.0398 130.97 78.1193 131.23 78.1193C131.501 78.1193 131.718 78.0326 131.88 77.8591C132.043 77.6821 132.124 77.4255 132.124 77.0895V75.5068H132.617ZM134.448 75.4689C134.784 75.4689 135.053 75.5574 135.256 75.7345C135.462 75.9079 135.586 76.1428 135.63 76.4391H135.158C135.137 76.262 135.063 76.1175 134.936 76.0055C134.813 75.8899 134.647 75.832 134.437 75.832C134.26 75.832 134.121 75.8754 134.02 75.9621C133.923 76.0452 133.874 76.159 133.874 76.3036C133.874 76.412 133.906 76.5005 133.971 76.5692C134.04 76.6342 134.123 76.6848 134.221 76.7209C134.322 76.7534 134.459 76.7896 134.633 76.8293C134.853 76.8799 135.03 76.9323 135.164 76.9865C135.301 77.0371 135.417 77.1202 135.511 77.2358C135.608 77.3514 135.657 77.5068 135.657 77.7019C135.657 77.944 135.565 78.141 135.38 78.2927C135.2 78.4445 134.958 78.5204 134.654 78.5204C134.3 78.5204 134.011 78.4354 133.787 78.2656C133.563 78.0958 133.431 77.8591 133.391 77.5556H133.868C133.886 77.7363 133.964 77.8826 134.101 77.9946C134.242 78.1066 134.427 78.1626 134.654 78.1626C134.824 78.1626 134.956 78.1193 135.05 78.0326C135.147 77.9458 135.196 77.832 135.196 77.6911C135.196 77.5755 135.162 77.4833 135.093 77.4147C135.025 77.346 134.94 77.2936 134.838 77.2575C134.737 77.2214 134.598 77.1834 134.421 77.1437C134.201 77.0931 134.024 77.0425 133.89 76.9919C133.76 76.9413 133.648 76.8618 133.554 76.7534C133.464 76.6414 133.418 76.4915 133.418 76.3036C133.418 76.0543 133.511 75.8537 133.695 75.702C133.879 75.5466 134.13 75.4689 134.448 75.4689ZM137.644 77.6044V77.1925L139.606 74.6342H140.137V77.1762H140.701V77.6044H140.137V78.4824H139.639V77.6044H137.644ZM139.671 75.2358L138.165 77.1762H139.671V75.2358ZM142.566 74.5583C142.812 74.5583 143.023 74.6017 143.2 74.6884C143.377 74.7751 143.511 74.8944 143.601 75.0461C143.692 75.1979 143.737 75.3695 143.737 75.561C143.737 75.7995 143.667 76.0001 143.526 76.1627C143.388 76.3253 143.186 76.4228 142.919 76.4553V76.4879C143.197 76.5601 143.414 76.6721 143.569 76.8239C143.728 76.9757 143.807 77.1852 143.807 77.4526C143.807 77.767 143.703 78.0235 143.493 78.2223C143.284 78.421 142.982 78.5204 142.588 78.5204C142.194 78.5204 141.874 78.4192 141.629 78.2168C141.387 78.0109 141.244 77.711 141.2 77.3171H141.688C141.721 77.5556 141.811 77.7453 141.959 77.8862C142.111 78.0271 142.315 78.0976 142.572 78.0976C142.814 78.0976 143 78.0362 143.13 77.9133C143.26 77.7869 143.325 77.6243 143.325 77.4255C143.325 77.187 143.231 77.0064 143.043 76.8835C142.859 76.7571 142.595 76.6938 142.252 76.6938H142.122V76.2819H142.252C142.917 76.2819 143.249 76.0597 143.249 75.6152C143.249 75.4201 143.188 75.2647 143.065 75.1491C142.942 75.0335 142.772 74.9757 142.555 74.9757C142.339 74.9757 142.156 75.0389 142.008 75.1654C141.86 75.2882 141.773 75.4707 141.748 75.7128H141.265C141.291 75.3515 141.415 75.0696 141.639 74.8673C141.867 74.6613 142.176 74.5583 142.566 74.5583ZM144.473 78.103C145.088 77.6911 145.579 77.2828 145.948 76.8781C146.316 76.4698 146.5 76.0904 146.5 75.7399C146.5 75.5231 146.444 75.3497 146.332 75.2196C146.224 75.0859 146.047 75.019 145.801 75.019C145.548 75.019 145.357 75.1003 145.227 75.2629C145.097 75.4219 145.024 75.6423 145.01 75.9242H144.522C144.547 75.4978 144.679 75.1708 144.918 74.9432C145.156 74.7119 145.463 74.5963 145.839 74.5963C146.197 74.5963 146.481 74.692 146.69 74.8835C146.9 75.075 147.005 75.346 147.005 75.6965C147.005 75.9856 146.911 76.2801 146.723 76.58C146.538 76.8763 146.305 77.1527 146.024 77.4093C145.745 77.6622 145.458 77.8772 145.162 78.0542H147.102V78.4607H144.473V78.103ZM148.042 77.9838C147.839 77.6405 147.738 77.1617 147.738 76.5475C147.738 75.9368 147.839 75.4617 148.042 75.122C148.244 74.7788 148.595 74.6071 149.093 74.6071C149.592 74.6071 149.942 74.7788 150.145 75.122C150.351 75.4653 150.454 75.9404 150.454 76.5475C150.454 77.1617 150.351 77.6405 150.145 77.9838C149.942 78.327 149.592 78.4987 149.093 78.4987C148.595 78.4987 148.244 78.327 148.042 77.9838ZM149.895 77.3388C149.942 77.1256 149.966 76.8618 149.966 76.5475C149.966 76.2367 149.942 75.9766 149.895 75.767C149.852 75.5574 149.767 75.3912 149.641 75.2684C149.514 75.1419 149.332 75.0787 149.093 75.0787C148.858 75.0787 148.678 75.1419 148.551 75.2684C148.425 75.3912 148.338 75.5574 148.291 75.767C148.248 75.9766 148.226 76.2367 148.226 76.5475C148.226 76.8618 148.248 77.1256 148.291 77.3388C148.338 77.5484 148.425 77.7164 148.551 77.8429C148.678 77.9693 148.858 78.0326 149.093 78.0326C149.332 78.0326 149.514 77.9693 149.641 77.8429C149.767 77.7164 149.852 77.5484 149.895 77.3388ZM150.938 75.122V74.6613H152.032V78.4824H151.512V75.122H150.938Z" fill="#1D1D1F"/>
<circle cx="41.1108" cy="106.761" r="11.2593" fill="#53A42A"/>
<g clip-path="url(#clip1_6396_12624)">
<path d="M35.2388 107.443H45.5515L43.6205 109.374C43.3915 109.603 43.3915 109.974 43.6205 110.203C43.7351 110.318 43.8849 110.375 44.0351 110.375C44.1852 110.375 44.335 110.318 44.4497 110.203L47.3818 107.271C47.4917 107.161 47.5536 107.012 47.5536 106.856C47.5536 106.701 47.4917 106.552 47.3818 106.442L44.4497 103.51C44.2207 103.281 43.8495 103.281 43.6205 103.51C43.3915 103.739 43.3915 104.11 43.6205 104.339L45.5515 106.27H35.2388C34.9151 106.27 34.6523 106.533 34.6523 106.856C34.6523 107.18 34.9151 107.443 35.2388 107.443Z" fill="white"/>
</g>
<path d="M62.3975 103.716C62.3975 104.004 62.3254 104.271 62.1812 104.517C62.037 104.757 61.8234 104.952 61.5404 105.102C61.2574 105.246 60.913 105.318 60.5071 105.318C60.1066 105.318 59.7489 105.251 59.4338 105.118C59.1187 104.979 58.8651 104.781 58.6728 104.525C58.4859 104.268 58.3791 103.969 58.3524 103.628H59.5539C59.5806 103.857 59.6714 104.05 59.8263 104.204C59.9865 104.354 60.1974 104.429 60.4591 104.429C60.694 104.429 60.8729 104.367 60.9957 104.244C61.1239 104.116 61.188 103.953 61.188 103.756C61.188 103.58 61.1373 103.435 61.0358 103.323C60.9343 103.206 60.8062 103.112 60.6513 103.043C60.4965 102.974 60.2829 102.893 60.0105 102.803C59.6581 102.685 59.3697 102.57 59.1454 102.458C58.9212 102.341 58.7289 102.173 58.5687 101.954C58.4139 101.735 58.3364 101.449 58.3364 101.097C58.3364 100.611 58.51 100.229 58.8571 99.9511C59.2095 99.6681 59.6741 99.5266 60.2508 99.5266C60.8489 99.5266 61.3242 99.6707 61.6766 99.9591C62.0344 100.247 62.2373 100.632 62.2854 101.113H61.0678C61.0358 100.91 60.9504 100.744 60.8115 100.616C60.6727 100.482 60.4831 100.416 60.2428 100.416C60.0345 100.416 59.8663 100.472 59.7382 100.584C59.61 100.691 59.5459 100.848 59.5459 101.056C59.5459 101.222 59.594 101.361 59.6901 101.473C59.7916 101.58 59.9171 101.668 60.0666 101.737C60.2214 101.807 60.4297 101.884 60.6914 101.97C61.0545 102.098 61.3482 102.218 61.5725 102.33C61.8021 102.442 61.997 102.61 62.1572 102.835C62.3174 103.059 62.3975 103.353 62.3975 103.716ZM64.9676 100.768C65.3414 100.768 65.6618 100.856 65.9288 101.032C66.1958 101.209 66.3854 101.446 66.4975 101.745V100.824H67.6189V105.262H66.4975V104.333C66.3854 104.632 66.1958 104.872 65.9288 105.053C65.6618 105.23 65.3414 105.318 64.9676 105.318C64.5938 105.318 64.2574 105.227 63.9584 105.045C63.6593 104.864 63.4244 104.602 63.2535 104.26C63.088 103.913 63.0052 103.508 63.0052 103.043C63.0052 102.578 63.088 102.175 63.2535 101.833C63.4244 101.486 63.6593 101.222 63.9584 101.04C64.2574 100.859 64.5938 100.768 64.9676 100.768ZM65.3201 101.753C64.9676 101.753 64.6846 101.868 64.471 102.098C64.2574 102.327 64.1506 102.642 64.1506 103.043C64.1506 103.443 64.2574 103.759 64.471 103.988C64.6846 104.212 64.9676 104.325 65.3201 104.325C65.6618 104.325 65.9422 104.21 66.1611 103.98C66.3854 103.745 66.4975 103.433 66.4975 103.043C66.4975 102.648 66.3854 102.335 66.1611 102.106C65.9422 101.871 65.6618 101.753 65.3201 101.753ZM69.7719 101.673C69.9374 101.39 70.1564 101.169 70.4287 101.008C70.701 100.843 71.0054 100.76 71.3418 100.76V101.97H71.0134C70.1857 101.97 69.7719 102.354 69.7719 103.123V105.262H68.6425V100.824H69.7719V101.673ZM73.7051 100.768C74.0789 100.768 74.3993 100.856 74.6663 101.032C74.9333 101.209 75.1229 101.446 75.235 101.745V100.824H76.3564V105.262H75.235V104.333C75.1229 104.632 74.9333 104.872 74.6663 105.053C74.3993 105.23 74.0789 105.318 73.7051 105.318C73.3313 105.318 72.9949 105.227 72.6958 105.045C72.3968 104.864 72.1618 104.602 71.991 104.26C71.8254 103.913 71.7427 103.508 71.7427 103.043C71.7427 102.578 71.8254 102.175 71.991 101.833C72.1618 101.486 72.3968 101.222 72.6958 101.04C72.9949 100.859 73.3313 100.768 73.7051 100.768ZM74.0575 101.753C73.7051 101.753 73.4221 101.868 73.2085 102.098C72.9949 102.327 72.8881 102.642 72.8881 103.043C72.8881 103.443 72.9949 103.759 73.2085 103.988C73.4221 104.212 73.7051 104.325 74.0575 104.325C74.3993 104.325 74.6797 104.21 74.8986 103.98C75.1229 103.745 75.235 103.433 75.235 103.043C75.235 102.648 75.1229 102.335 74.8986 102.106C74.6797 101.871 74.3993 101.753 74.0575 101.753ZM80.0232 100.76C80.5359 100.76 80.9444 100.928 81.2488 101.265C81.5532 101.601 81.7053 102.074 81.7053 102.682V105.262H80.5839V102.811C80.5839 102.458 80.4932 102.186 80.3116 101.994C80.13 101.796 79.8817 101.697 79.5667 101.697C79.2463 101.697 78.99 101.801 78.7977 102.01C78.6055 102.218 78.5094 102.517 78.5094 102.907V105.262H77.3799V99.3343H78.5094V101.713C78.6268 101.414 78.8191 101.182 79.0861 101.016C79.3584 100.846 79.6708 100.76 80.0232 100.76ZM87.3911 105.262L86.0695 103.059H85.5729V105.262H84.4435V99.6067H86.5981C87.255 99.6067 87.7543 99.7669 88.096 100.087C88.4431 100.408 88.6167 100.83 88.6167 101.353C88.6167 101.78 88.4965 102.138 88.2562 102.426C88.0213 102.715 87.6795 102.907 87.2309 103.003L88.6407 105.262H87.3911ZM85.5729 102.282H86.502C87.1482 102.282 87.4712 101.996 87.4712 101.425C87.4712 101.153 87.3911 100.942 87.2309 100.792C87.0761 100.637 86.8331 100.56 86.502 100.56H85.5729V102.282ZM91.4299 100.768C91.8624 100.768 92.2496 100.859 92.5913 101.04C92.9384 101.222 93.2108 101.486 93.4083 101.833C93.6059 102.175 93.7047 102.578 93.7047 103.043C93.7047 103.508 93.6059 103.911 93.4083 104.252C93.2108 104.594 92.9384 104.859 92.5913 105.045C92.2496 105.227 91.8624 105.318 91.4299 105.318C90.9973 105.318 90.6075 105.227 90.2604 105.045C89.9186 104.859 89.649 104.594 89.4514 104.252C89.2538 103.911 89.155 103.508 89.155 103.043C89.155 102.578 89.2538 102.175 89.4514 101.833C89.649 101.486 89.9186 101.222 90.2604 101.04C90.6075 100.859 90.9973 100.768 91.4299 100.768ZM91.4299 101.745C91.1148 101.745 90.8478 101.857 90.6289 102.082C90.4099 102.301 90.3005 102.621 90.3005 103.043C90.3005 103.465 90.4099 103.788 90.6289 104.012C90.8478 104.231 91.1148 104.341 91.4299 104.341C91.7449 104.341 92.0119 104.231 92.2309 104.012C92.4498 103.788 92.5593 103.465 92.5593 103.043C92.5593 102.621 92.4498 102.301 92.2309 102.082C92.0119 101.857 91.7449 101.745 91.4299 101.745ZM96.2411 100.768C96.6149 100.768 96.9326 100.856 97.1942 101.032C97.4612 101.209 97.6535 101.446 97.771 101.745V99.3343H98.8924V105.262H97.771V104.333C97.6535 104.632 97.4612 104.872 97.1942 105.053C96.9326 105.23 96.6149 105.318 96.2411 105.318C95.8673 105.318 95.5308 105.227 95.2318 105.045C94.9328 104.864 94.6978 104.602 94.5269 104.26C94.3614 103.913 94.2786 103.508 94.2786 103.043C94.2786 102.578 94.3614 102.175 94.5269 101.833C94.6978 101.486 94.9328 101.222 95.2318 101.04C95.5308 100.859 95.8673 100.768 96.2411 100.768ZM96.5935 101.753C96.2411 101.753 95.958 101.868 95.7444 102.098C95.5308 102.327 95.424 102.642 95.424 103.043C95.424 103.443 95.5308 103.759 95.7444 103.988C95.958 104.212 96.2411 104.325 96.5935 104.325C96.9353 104.325 97.2156 104.21 97.4345 103.98C97.6588 103.745 97.771 103.433 97.771 103.043C97.771 102.648 97.6588 102.335 97.4345 102.106C97.2156 101.871 96.9353 101.753 96.5935 101.753ZM101.045 101.673C101.211 101.39 101.43 101.169 101.702 101.008C101.974 100.843 102.279 100.76 102.615 100.76V101.97H102.287C101.459 101.97 101.045 102.354 101.045 103.123V105.262H99.9159V100.824H101.045V101.673ZM103.112 99.5506C103.112 99.369 103.176 99.2222 103.304 99.11C103.433 98.9926 103.601 98.9338 103.809 98.9338C104.017 98.9338 104.186 98.9926 104.314 99.11C104.442 99.2222 104.506 99.369 104.506 99.5506C104.506 99.7268 104.442 99.8737 104.314 99.9911C104.186 100.103 104.017 100.159 103.809 100.159C103.601 100.159 103.433 100.103 103.304 99.9911C103.176 99.8737 103.112 99.7268 103.112 99.5506ZM104.37 100.824V105.262H103.24V100.824H104.37ZM107.13 100.768C107.503 100.768 107.824 100.856 108.091 101.032C108.358 101.209 108.547 101.446 108.66 101.745V100.824H109.781V105.278C109.781 105.689 109.698 106.057 109.533 106.383C109.372 106.714 109.129 106.973 108.804 107.16C108.483 107.347 108.094 107.44 107.634 107.44C106.993 107.44 106.475 107.288 106.08 106.984C105.685 106.679 105.445 106.266 105.359 105.742H106.473C106.537 105.967 106.66 106.14 106.841 106.263C107.028 106.391 107.266 106.455 107.554 106.455C107.885 106.455 108.152 106.356 108.355 106.159C108.558 105.967 108.66 105.673 108.66 105.278V104.333C108.547 104.632 108.358 104.872 108.091 105.053C107.824 105.23 107.503 105.318 107.13 105.318C106.756 105.318 106.419 105.227 106.12 105.045C105.821 104.864 105.586 104.602 105.416 104.26C105.25 103.913 105.167 103.508 105.167 103.043C105.167 102.578 105.25 102.175 105.416 101.833C105.586 101.486 105.821 101.222 106.12 101.04C106.419 100.859 106.756 100.768 107.13 100.768ZM107.482 101.753C107.13 101.753 106.847 101.868 106.633 102.098C106.419 102.327 106.313 102.642 106.313 103.043C106.313 103.443 106.419 103.759 106.633 103.988C106.847 104.212 107.13 104.325 107.482 104.325C107.824 104.325 108.104 104.21 108.323 103.98C108.547 103.745 108.66 103.433 108.66 103.043C108.66 102.648 108.547 102.335 108.323 102.106C108.104 101.871 107.824 101.753 107.482 101.753ZM115.05 100.824V105.262H113.92V104.365C113.803 104.664 113.608 104.899 113.336 105.069C113.069 105.235 112.759 105.318 112.406 105.318C111.894 105.318 111.485 105.15 111.181 104.813C110.877 104.477 110.724 104.007 110.724 103.403V100.824H111.846V103.275C111.846 103.628 111.937 103.903 112.118 104.1C112.3 104.293 112.545 104.389 112.855 104.389C113.181 104.389 113.44 104.284 113.632 104.076C113.824 103.868 113.92 103.569 113.92 103.179V100.824H115.05ZM120.25 102.875C120.25 102.987 120.237 103.115 120.21 103.259H116.958C116.974 103.654 117.081 103.945 117.278 104.132C117.476 104.319 117.721 104.413 118.015 104.413C118.277 104.413 118.493 104.349 118.664 104.22C118.84 104.092 118.952 103.919 119 103.7H120.194C120.135 104.009 120.01 104.287 119.817 104.533C119.625 104.778 119.377 104.971 119.072 105.11C118.773 105.248 118.44 105.318 118.071 105.318C117.639 105.318 117.254 105.227 116.918 105.045C116.581 104.859 116.32 104.594 116.133 104.252C115.946 103.911 115.852 103.508 115.852 103.043C115.852 102.578 115.946 102.175 116.133 101.833C116.32 101.486 116.581 101.222 116.918 101.04C117.254 100.859 117.639 100.768 118.071 100.768C118.509 100.768 118.891 100.859 119.217 101.04C119.548 101.222 119.801 101.473 119.978 101.793C120.159 102.108 120.25 102.469 120.25 102.875ZM119.112 102.763C119.129 102.399 119.032 102.124 118.824 101.938C118.621 101.751 118.37 101.657 118.071 101.657C117.767 101.657 117.51 101.751 117.302 101.938C117.094 102.124 116.979 102.399 116.958 102.763H119.112ZM121.965 104.317H124.144V105.262H120.731V104.365L122.774 101.761H120.779V100.824H124.063V101.713L121.965 104.317Z" fill="#003366"/>
<path d="M59.6206 110.338C59.8663 110.338 60.0777 110.381 60.2547 110.468C60.4318 110.554 60.5655 110.674 60.6558 110.825C60.7461 110.977 60.7913 111.149 60.7913 111.34C60.7913 111.579 60.7208 111.779 60.5799 111.942C60.4426 112.105 60.2403 112.202 59.9729 112.235V112.267C60.2511 112.339 60.4679 112.451 60.6233 112.603C60.7823 112.755 60.8618 112.965 60.8618 113.232C60.8618 113.546 60.757 113.803 60.5474 114.002C60.3378 114.2 60.0361 114.3 59.6423 114.3C59.2484 114.3 58.9286 114.198 58.6829 113.996C58.4408 113.79 58.2981 113.49 58.2547 113.096H58.7425C58.7751 113.335 58.8654 113.525 59.0135 113.666C59.1653 113.806 59.3695 113.877 59.626 113.877C59.8681 113.877 60.0542 113.815 60.1843 113.693C60.3143 113.566 60.3794 113.404 60.3794 113.205C60.3794 112.966 60.2854 112.786 60.0975 112.663C59.9133 112.536 59.6495 112.473 59.3062 112.473H59.1761V112.061H59.3062C59.9711 112.061 60.3035 111.839 60.3035 111.395C60.3035 111.199 60.2421 111.044 60.1192 110.928C59.9964 110.813 59.8265 110.755 59.6097 110.755C59.3929 110.755 59.2105 110.818 59.0623 110.945C58.9142 111.068 58.8275 111.25 58.8022 111.492H58.3198C58.3451 111.131 58.4697 110.849 58.6938 110.647C58.9214 110.441 59.2303 110.338 59.6206 110.338ZM61.9125 113.763C61.7102 113.42 61.609 112.941 61.609 112.327C61.609 111.716 61.7102 111.241 61.9125 110.901C62.1149 110.558 62.4654 110.386 62.964 110.386C63.4626 110.386 63.8131 110.558 64.0155 110.901C64.2214 111.245 64.3244 111.72 64.3244 112.327C64.3244 112.941 64.2214 113.42 64.0155 113.763C63.8131 114.106 63.4626 114.278 62.964 114.278C62.4654 114.278 62.1149 114.106 61.9125 113.763ZM63.7662 113.118C63.8131 112.905 63.8366 112.641 63.8366 112.327C63.8366 112.016 63.8131 111.756 63.7662 111.546C63.7228 111.337 63.6379 111.171 63.5114 111.048C63.385 110.921 63.2025 110.858 62.964 110.858C62.7291 110.858 62.5485 110.921 62.422 111.048C62.2955 111.171 62.2088 111.337 62.1618 111.546C62.1185 111.756 62.0968 112.016 62.0968 112.327C62.0968 112.641 62.1185 112.905 62.1618 113.118C62.2088 113.328 62.2955 113.496 62.422 113.622C62.5485 113.749 62.7291 113.812 62.964 113.812C63.2025 113.812 63.385 113.749 63.5114 113.622C63.6379 113.496 63.7228 113.328 63.7662 113.118ZM64.9058 113.384V112.972L66.8678 110.414H67.399V112.955H67.9626V113.384H67.399V114.262H66.9003V113.384H64.9058ZM66.9328 111.015L65.4261 112.955H66.9328V111.015ZM68.4348 113.882C69.0491 113.47 69.5405 113.062 69.9091 112.657C70.2776 112.249 70.4619 111.87 70.4619 111.519C70.4619 111.302 70.4059 111.129 70.2939 110.999C70.1855 110.865 70.0084 110.798 69.7627 110.798C69.5098 110.798 69.3183 110.88 69.1882 111.042C69.0581 111.201 68.9858 111.422 68.9714 111.703H68.4836C68.5089 111.277 68.6408 110.95 68.8793 110.722C69.1177 110.491 69.4249 110.376 69.8007 110.376C70.1584 110.376 70.442 110.471 70.6516 110.663C70.8612 110.854 70.966 111.125 70.966 111.476C70.966 111.765 70.872 112.059 70.6841 112.359C70.4998 112.656 70.2668 112.932 69.9849 113.189C69.7067 113.441 69.4194 113.656 69.1232 113.834H71.0635V114.24H68.4348V113.882ZM75.0984 112.283C75.3333 112.334 75.523 112.446 75.6675 112.619C75.8157 112.793 75.8898 112.997 75.8898 113.232C75.8898 113.543 75.7832 113.792 75.57 113.98C75.3604 114.168 75.0551 114.262 74.654 114.262H73.234V110.441H74.6323C75.0153 110.441 75.3062 110.526 75.5049 110.695C75.7037 110.865 75.803 111.098 75.803 111.395C75.803 111.64 75.7362 111.839 75.6025 111.991C75.4724 112.142 75.3044 112.24 75.0984 112.283ZM73.7272 112.115H74.551C74.7931 112.115 74.9774 112.059 75.1039 111.947C75.2339 111.835 75.299 111.678 75.299 111.476C75.299 111.281 75.2358 111.127 75.1093 111.015C74.9828 110.903 74.7895 110.847 74.5293 110.847H73.7272V112.115ZM74.5619 113.85C74.822 113.85 75.0226 113.79 75.1635 113.671C75.308 113.552 75.3803 113.384 75.3803 113.167C75.3803 112.954 75.3062 112.787 75.1581 112.668C75.0135 112.545 74.8112 112.484 74.551 112.484H73.7272V113.85H74.5619ZM77.1066 111.888C77.2042 111.682 77.3469 111.523 77.5348 111.411C77.7227 111.295 77.9467 111.237 78.2069 111.237V111.774H78.0551C77.7769 111.774 77.5493 111.846 77.3722 111.991C77.1952 112.132 77.1066 112.367 77.1066 112.695V114.262H76.6134V111.286H77.1066V111.888ZM80.0215 111.248C80.3105 111.248 80.5544 111.32 80.7532 111.465C80.9555 111.61 81.0964 111.803 81.1759 112.045V111.286H81.6691V114.262H81.1759V113.503C81.0964 113.745 80.9555 113.938 80.7532 114.083C80.5544 114.227 80.3105 114.3 80.0215 114.3C79.7577 114.3 79.5228 114.238 79.3169 114.115C79.1109 113.993 78.9483 113.817 78.8291 113.59C78.7134 113.358 78.6556 113.087 78.6556 112.777C78.6556 112.466 78.7134 112.195 78.8291 111.964C78.9483 111.732 79.1109 111.555 79.3169 111.432C79.5228 111.31 79.7577 111.248 80.0215 111.248ZM80.1624 111.687C79.8589 111.687 79.615 111.785 79.4307 111.98C79.25 112.171 79.1597 112.437 79.1597 112.777C79.1597 113.116 79.25 113.384 79.4307 113.579C79.615 113.77 79.8589 113.866 80.1624 113.866C80.3575 113.866 80.5309 113.821 80.6827 113.731C80.8381 113.64 80.9591 113.514 81.0458 113.351C81.1326 113.185 81.1759 112.993 81.1759 112.777C81.1759 112.56 81.1326 112.368 81.0458 112.202C80.9591 112.036 80.8381 111.909 80.6827 111.823C80.5309 111.732 80.3575 111.687 80.1624 111.687ZM84.1289 111.237C84.4758 111.237 84.7558 111.349 84.969 111.573C85.1822 111.794 85.2888 112.114 85.2888 112.533V114.262H84.7955V112.576C84.7955 112.28 84.7197 112.052 84.5679 111.893C84.4161 111.734 84.2102 111.655 83.95 111.655C83.679 111.655 83.4622 111.743 83.2996 111.92C83.137 112.094 83.0557 112.348 83.0557 112.684V114.262H82.5625V111.286H83.0557V111.991C83.1316 111.749 83.2653 111.563 83.4568 111.432C83.6519 111.302 83.876 111.237 84.1289 111.237ZM87.7201 111.237C88.0669 111.237 88.347 111.349 88.5602 111.573C88.7733 111.794 88.8799 112.114 88.8799 112.533V114.262H88.3867V112.576C88.3867 112.28 88.3108 112.052 88.1591 111.893C88.0073 111.734 87.8014 111.655 87.5412 111.655C87.2702 111.655 87.0534 111.743 86.8908 111.92C86.7282 112.094 86.6469 112.348 86.6469 112.684V114.262H86.1537V111.286H86.6469V111.991C86.7228 111.749 86.8565 111.563 87.048 111.432C87.2431 111.302 87.4671 111.237 87.7201 111.237ZM91.0944 111.248C91.3799 111.248 91.6346 111.31 91.8587 111.432C92.0863 111.555 92.2633 111.732 92.3898 111.964C92.5199 112.195 92.5849 112.466 92.5849 112.777C92.5849 113.087 92.5199 113.358 92.3898 113.59C92.2633 113.817 92.0863 113.993 91.8587 114.115C91.6346 114.238 91.3799 114.3 91.0944 114.3C90.809 114.3 90.5524 114.238 90.3248 114.115C90.1008 113.993 89.9237 113.817 89.7936 113.59C89.6636 113.358 89.5985 113.087 89.5985 112.777C89.5985 112.466 89.6636 112.195 89.7936 111.964C89.9237 111.732 90.1008 111.555 90.3248 111.432C90.5524 111.31 90.809 111.248 91.0944 111.248ZM91.0944 111.682C90.9174 111.682 90.753 111.722 90.6012 111.801C90.4531 111.881 90.332 112.003 90.2381 112.17C90.1477 112.332 90.1026 112.535 90.1026 112.777C90.1026 113.015 90.1477 113.217 90.2381 113.384C90.332 113.546 90.4531 113.667 90.6012 113.747C90.753 113.826 90.9174 113.866 91.0944 113.866C91.2715 113.866 91.4341 113.826 91.5822 113.747C91.734 113.667 91.855 113.546 91.9454 113.384C92.0393 113.217 92.0863 113.015 92.0863 112.777C92.0863 112.535 92.0393 112.332 91.9454 112.17C91.855 112.003 91.734 111.881 91.5822 111.801C91.4341 111.722 91.2715 111.682 91.0944 111.682ZM94.9024 111.237C95.2493 111.237 95.5293 111.349 95.7425 111.573C95.9557 111.794 96.0623 112.114 96.0623 112.533V114.262H95.5691V112.576C95.5691 112.28 95.4932 112.052 95.3414 111.893C95.1897 111.734 94.9837 111.655 94.7235 111.655C94.4525 111.655 94.2357 111.743 94.0731 111.92C93.9105 112.094 93.8292 112.348 93.8292 112.684V114.262H93.336V111.286H93.8292V111.991C93.9051 111.749 94.0388 111.563 94.2303 111.432C94.4254 111.302 94.6495 111.237 94.9024 111.237ZM100.613 113.378H98.933L98.6132 114.262H98.082L99.4967 110.511H100.055L101.464 114.262H100.933L100.613 113.378ZM100.472 112.993L99.7731 111.064L99.0739 112.993H100.472ZM103.226 113.736L104.148 111.286H104.679L103.513 114.262H102.928L101.763 111.286H102.294L103.226 113.736ZM108.008 112.609C108.008 112.713 108.001 112.804 107.987 112.88H105.607C105.618 113.219 105.714 113.474 105.895 113.644C106.079 113.814 106.303 113.899 106.567 113.899C106.805 113.899 107.004 113.839 107.163 113.72C107.325 113.597 107.425 113.434 107.461 113.232H107.987C107.951 113.438 107.869 113.622 107.743 113.785C107.62 113.947 107.459 114.074 107.26 114.164C107.062 114.254 106.838 114.3 106.588 114.3C106.303 114.3 106.05 114.238 105.83 114.115C105.609 113.993 105.436 113.817 105.309 113.59C105.186 113.358 105.125 113.087 105.125 112.777C105.125 112.466 105.186 112.195 105.309 111.964C105.436 111.732 105.609 111.555 105.83 111.432C106.05 111.31 106.303 111.248 106.588 111.248C106.877 111.248 107.129 111.31 107.342 111.432C107.558 111.555 107.723 111.72 107.835 111.926C107.951 112.132 108.008 112.359 108.008 112.609ZM107.51 112.641C107.521 112.421 107.484 112.236 107.401 112.088C107.318 111.94 107.204 111.83 107.06 111.758C106.915 111.685 106.758 111.649 106.588 111.649C106.317 111.649 106.09 111.734 105.905 111.904C105.721 112.07 105.622 112.316 105.607 112.641H107.51ZM110.328 111.237C110.675 111.237 110.955 111.349 111.168 111.573C111.382 111.794 111.488 112.114 111.488 112.533V114.262H110.995V112.576C110.995 112.28 110.919 112.052 110.767 111.893C110.615 111.734 110.41 111.655 110.149 111.655C109.878 111.655 109.662 111.743 109.499 111.92C109.336 112.094 109.255 112.348 109.255 112.684V114.262H108.762V111.286H109.255V111.991C109.331 111.749 109.465 111.563 109.656 111.432C109.851 111.302 110.075 111.237 110.328 111.237ZM114.998 111.286V114.262H114.505V113.563C114.429 113.805 114.293 113.991 114.098 114.121C113.907 114.247 113.683 114.31 113.426 114.31C113.083 114.31 112.805 114.2 112.592 113.98C112.378 113.756 112.272 113.436 112.272 113.021V111.286H112.765V112.972C112.765 113.268 112.841 113.497 112.993 113.66C113.144 113.819 113.35 113.899 113.61 113.899C113.881 113.899 114.098 113.812 114.261 113.638C114.423 113.461 114.505 113.205 114.505 112.869V111.286H114.998ZM118.634 112.609C118.634 112.713 118.626 112.804 118.612 112.88H116.233C116.243 113.219 116.339 113.474 116.52 113.644C116.704 113.814 116.928 113.899 117.192 113.899C117.43 113.899 117.629 113.839 117.788 113.72C117.951 113.597 118.05 113.434 118.086 113.232H118.612C118.576 113.438 118.495 113.622 118.368 113.785C118.245 113.947 118.084 114.074 117.886 114.164C117.687 114.254 117.463 114.3 117.214 114.3C116.928 114.3 116.675 114.238 116.455 114.115C116.234 113.993 116.061 113.817 115.935 113.59C115.812 113.358 115.75 113.087 115.75 112.777C115.75 112.466 115.812 112.195 115.935 111.964C116.061 111.732 116.234 111.555 116.455 111.432C116.675 111.31 116.928 111.248 117.214 111.248C117.503 111.248 117.754 111.31 117.967 111.432C118.184 111.555 118.348 111.72 118.46 111.926C118.576 112.132 118.634 112.359 118.634 112.609ZM118.135 112.641C118.146 112.421 118.11 112.236 118.027 112.088C117.944 111.94 117.83 111.83 117.685 111.758C117.541 111.685 117.383 111.649 117.214 111.649C116.943 111.649 116.715 111.734 116.531 111.904C116.346 112.07 116.247 112.316 116.233 112.641H118.135ZM119.674 113.899C119.725 114.058 119.75 114.206 119.75 114.343C119.75 114.531 119.703 114.681 119.609 114.793C119.515 114.909 119.375 114.966 119.187 114.966V114.755C119.277 114.755 119.342 114.73 119.382 114.679C119.425 114.632 119.447 114.556 119.447 114.451V114.403H119.17V113.899H119.674ZM123.75 110.441V113.281C123.75 113.595 123.659 113.844 123.479 114.029C123.302 114.209 123.052 114.3 122.731 114.3C122.384 114.3 122.111 114.198 121.912 113.996C121.717 113.79 121.62 113.503 121.62 113.134H122.113C122.113 113.355 122.162 113.53 122.259 113.66C122.357 113.787 122.507 113.85 122.709 113.85C122.9 113.85 123.04 113.796 123.126 113.687C123.213 113.579 123.256 113.443 123.256 113.281V110.441H123.75ZM125.844 111.248C126.133 111.248 126.377 111.32 126.575 111.465C126.778 111.61 126.919 111.803 126.998 112.045V111.286H127.491V114.262H126.998V113.503C126.919 113.745 126.778 113.938 126.575 114.083C126.377 114.227 126.133 114.3 125.844 114.3C125.58 114.3 125.345 114.238 125.139 114.115C124.933 113.993 124.771 113.817 124.651 113.59C124.536 113.358 124.478 113.087 124.478 112.777C124.478 112.466 124.536 112.195 124.651 111.964C124.771 111.732 124.933 111.555 125.139 111.432C125.345 111.31 125.58 111.248 125.844 111.248ZM125.985 111.687C125.681 111.687 125.437 111.785 125.253 111.98C125.072 112.171 124.982 112.437 124.982 112.777C124.982 113.116 125.072 113.384 125.253 113.579C125.437 113.77 125.681 113.866 125.985 113.866C126.18 113.866 126.353 113.821 126.505 113.731C126.66 113.64 126.781 113.514 126.868 113.351C126.955 113.185 126.998 112.993 126.998 112.777C126.998 112.56 126.955 112.368 126.868 112.202C126.781 112.036 126.66 111.909 126.505 111.823C126.353 111.732 126.18 111.687 125.985 111.687ZM129.702 111.248C130.081 111.248 130.396 111.349 130.645 111.552C130.894 111.754 131.048 112.025 131.106 112.365H130.585C130.549 112.152 130.45 111.985 130.287 111.866C130.128 111.743 129.929 111.682 129.691 111.682C129.518 111.682 129.359 111.722 129.214 111.801C129.073 111.881 128.959 112.003 128.873 112.17C128.786 112.332 128.743 112.535 128.743 112.777C128.743 113.019 128.786 113.223 128.873 113.389C128.959 113.552 129.073 113.673 129.214 113.752C129.359 113.832 129.518 113.871 129.691 113.871C129.929 113.871 130.128 113.81 130.287 113.687C130.45 113.564 130.549 113.396 130.585 113.183H131.106C131.048 113.526 130.894 113.799 130.645 114.002C130.396 114.2 130.081 114.3 129.702 114.3C129.416 114.3 129.163 114.238 128.943 114.115C128.723 113.993 128.549 113.817 128.423 113.59C128.3 113.358 128.238 113.087 128.238 112.777C128.238 112.466 128.3 112.195 128.423 111.964C128.549 111.732 128.723 111.555 128.943 111.432C129.163 111.31 129.416 111.248 129.702 111.248ZM133.491 114.262L132.353 112.923V114.262H131.86V110.251H132.353V112.582L133.475 111.286H134.076L132.743 112.766L134.109 114.262H133.491ZM135.584 111.248C135.92 111.248 136.189 111.337 136.391 111.514C136.597 111.687 136.722 111.922 136.765 112.218H136.294C136.272 112.041 136.198 111.897 136.071 111.785C135.949 111.669 135.782 111.611 135.573 111.611C135.396 111.611 135.257 111.655 135.156 111.741C135.058 111.825 135.009 111.938 135.009 112.083C135.009 112.191 135.042 112.28 135.107 112.348C135.175 112.413 135.258 112.464 135.356 112.5C135.457 112.533 135.595 112.569 135.768 112.609C135.988 112.659 136.165 112.712 136.299 112.766C136.436 112.816 136.552 112.899 136.646 113.015C136.744 113.131 136.792 113.286 136.792 113.481C136.792 113.723 136.7 113.92 136.516 114.072C136.335 114.224 136.093 114.3 135.79 114.3C135.436 114.3 135.146 114.215 134.922 114.045C134.698 113.875 134.567 113.638 134.527 113.335H135.004C135.022 113.516 135.1 113.662 135.237 113.774C135.378 113.886 135.562 113.942 135.79 113.942C135.959 113.942 136.091 113.899 136.185 113.812C136.283 113.725 136.332 113.611 136.332 113.47C136.332 113.355 136.297 113.263 136.229 113.194C136.16 113.125 136.075 113.073 135.974 113.037C135.873 113.001 135.734 112.963 135.557 112.923C135.336 112.872 135.159 112.822 135.025 112.771C134.895 112.721 134.783 112.641 134.689 112.533C134.599 112.421 134.554 112.271 134.554 112.083C134.554 111.834 134.646 111.633 134.83 111.481C135.015 111.326 135.266 111.248 135.584 111.248ZM138.909 111.248C139.195 111.248 139.45 111.31 139.674 111.432C139.901 111.555 140.078 111.732 140.205 111.964C140.335 112.195 140.4 112.466 140.4 112.777C140.4 113.087 140.335 113.358 140.205 113.59C140.078 113.817 139.901 113.993 139.674 114.115C139.45 114.238 139.195 114.3 138.909 114.3C138.624 114.3 138.367 114.238 138.14 114.115C137.916 113.993 137.739 113.817 137.609 113.59C137.479 113.358 137.414 113.087 137.414 112.777C137.414 112.466 137.479 112.195 137.609 111.964C137.739 111.732 137.916 111.555 138.14 111.432C138.367 111.31 138.624 111.248 138.909 111.248ZM138.909 111.682C138.732 111.682 138.568 111.722 138.416 111.801C138.268 111.881 138.147 112.003 138.053 112.17C137.963 112.332 137.918 112.535 137.918 112.777C137.918 113.015 137.963 113.217 138.053 113.384C138.147 113.546 138.268 113.667 138.416 113.747C138.568 113.826 138.732 113.866 138.909 113.866C139.086 113.866 139.249 113.826 139.397 113.747C139.549 113.667 139.67 113.546 139.76 113.384C139.854 113.217 139.901 113.015 139.901 112.777C139.901 112.535 139.854 112.332 139.76 112.17C139.67 112.003 139.549 111.881 139.397 111.801C139.249 111.722 139.086 111.682 138.909 111.682ZM142.717 111.237C143.064 111.237 143.344 111.349 143.557 111.573C143.771 111.794 143.877 112.114 143.877 112.533V114.262H143.384V112.576C143.384 112.28 143.308 112.052 143.156 111.893C143.005 111.734 142.799 111.655 142.539 111.655C142.268 111.655 142.051 111.743 141.888 111.92C141.726 112.094 141.644 112.348 141.644 112.684V114.262H141.151V111.286H141.644V111.991C141.72 111.749 141.854 111.563 142.045 111.432C142.24 111.302 142.464 111.237 142.717 111.237ZM145.897 113.736L146.818 111.286H147.349L146.184 114.262H145.599L144.433 111.286H144.964L145.897 113.736ZM147.855 110.414C147.855 110.323 147.886 110.251 147.947 110.197C148.009 110.139 148.09 110.11 148.191 110.11C148.292 110.11 148.373 110.139 148.435 110.197C148.496 110.251 148.527 110.323 148.527 110.414C148.527 110.504 148.496 110.578 148.435 110.636C148.373 110.69 148.292 110.717 148.191 110.717C148.09 110.717 148.009 110.69 147.947 110.636C147.886 110.578 147.855 110.504 147.855 110.414ZM148.435 111.286V114.262H147.942V111.286H148.435ZM149.829 110.251V114.262H149.336V110.251H149.829ZM151.224 110.251V114.262H150.731V110.251H151.224ZM154.863 112.609C154.863 112.713 154.855 112.804 154.841 112.88H152.461C152.472 113.219 152.568 113.474 152.749 113.644C152.933 113.814 153.157 113.899 153.421 113.899C153.659 113.899 153.858 113.839 154.017 113.72C154.18 113.597 154.279 113.434 154.315 113.232H154.841C154.805 113.438 154.723 113.622 154.597 113.785C154.474 113.947 154.313 114.074 154.115 114.164C153.916 114.254 153.692 114.3 153.443 114.3C153.157 114.3 152.904 114.238 152.684 114.115C152.463 113.993 152.29 113.817 152.163 113.59C152.041 113.358 151.979 113.087 151.979 112.777C151.979 112.466 152.041 112.195 152.163 111.964C152.29 111.732 152.463 111.555 152.684 111.432C152.904 111.31 153.157 111.248 153.443 111.248C153.732 111.248 153.983 111.31 154.196 111.432C154.413 111.555 154.577 111.72 154.689 111.926C154.805 112.132 154.863 112.359 154.863 112.609ZM154.364 112.641C154.375 112.421 154.339 112.236 154.256 112.088C154.172 111.94 154.059 111.83 153.914 111.758C153.77 111.685 153.612 111.649 153.443 111.649C153.172 111.649 152.944 111.734 152.76 111.904C152.575 112.07 152.476 112.316 152.461 112.641H154.364ZM158.289 110.338C158.534 110.338 158.746 110.381 158.923 110.468C159.1 110.554 159.233 110.674 159.324 110.825C159.414 110.977 159.459 111.149 159.459 111.34C159.459 111.579 159.389 111.779 159.248 111.942C159.111 112.105 158.908 112.202 158.641 112.235V112.267C158.919 112.339 159.136 112.451 159.291 112.603C159.45 112.755 159.53 112.965 159.53 113.232C159.53 113.546 159.425 113.803 159.215 114.002C159.006 114.2 158.704 114.3 158.31 114.3C157.916 114.3 157.597 114.198 157.351 113.996C157.109 113.79 156.966 113.49 156.923 113.096H157.41C157.443 113.335 157.533 113.525 157.681 113.666C157.833 113.806 158.037 113.877 158.294 113.877C158.536 113.877 158.722 113.815 158.852 113.693C158.982 113.566 159.047 113.404 159.047 113.205C159.047 112.966 158.953 112.786 158.765 112.663C158.581 112.536 158.317 112.473 157.974 112.473H157.844V112.061H157.974C158.639 112.061 158.971 111.839 158.971 111.395C158.971 111.199 158.91 111.044 158.787 110.928C158.664 110.813 158.494 110.755 158.278 110.755C158.061 110.755 157.878 110.818 157.73 110.945C157.582 111.068 157.495 111.25 157.47 111.492H156.988C157.013 111.131 157.138 110.849 157.362 110.647C157.589 110.441 157.898 110.338 158.289 110.338ZM160.196 113.882C160.81 113.47 161.301 113.062 161.67 112.657C162.038 112.249 162.223 111.87 162.223 111.519C162.223 111.302 162.167 111.129 162.055 110.999C161.946 110.865 161.769 110.798 161.524 110.798C161.271 110.798 161.079 110.88 160.949 111.042C160.819 111.201 160.747 111.422 160.732 111.703H160.244C160.27 111.277 160.402 110.95 160.64 110.722C160.879 110.491 161.186 110.376 161.561 110.376C161.919 110.376 162.203 110.471 162.412 110.663C162.622 110.854 162.727 111.125 162.727 111.476C162.727 111.765 162.633 112.059 162.445 112.359C162.261 112.656 162.028 112.932 161.746 113.189C161.468 113.441 161.18 113.656 160.884 113.834H162.824V114.24H160.196V113.882ZM163.379 113.882C163.994 113.47 164.485 113.062 164.853 112.657C165.222 112.249 165.406 111.87 165.406 111.519C165.406 111.302 165.35 111.129 165.238 110.999C165.13 110.865 164.953 110.798 164.707 110.798C164.454 110.798 164.263 110.88 164.133 111.042C164.003 111.201 163.93 111.422 163.916 111.703H163.428C163.453 111.277 163.585 110.95 163.824 110.722C164.062 110.491 164.369 110.376 164.745 110.376C165.103 110.376 165.386 110.471 165.596 110.663C165.806 110.854 165.91 111.125 165.91 111.476C165.91 111.765 165.816 112.059 165.629 112.359C165.444 112.656 165.211 112.932 164.929 113.189C164.651 113.441 164.364 113.656 164.068 113.834H166.008V114.24H163.379V113.882ZM168.915 110.798L167.468 114.262H166.948L168.416 110.847H166.411V110.419H168.915V110.798ZM171.765 110.798L170.318 114.262H169.798L171.267 110.847H169.261V110.419H171.765V110.798Z" fill="#1D1D1F"/>
<circle cx="41.1108" cy="142.539" r="11.2593" fill="#003366"/>
<path d="M37.8382 144.437V143.148L41.5596 138.139H43.2221V143.093H44.235V144.437H43.2221V146H41.6587V144.437H37.8382ZM41.7798 139.956L39.4237 143.093H41.7798V139.956Z" fill="white"/>
<path d="M59.6421 136.281V137.747H61.6446V138.612H59.6421V140.134H61.8849V141.039H58.5126V135.384H61.8849V136.281H59.6421ZM68.3681 136.537C68.9074 136.537 69.3319 136.706 69.6417 137.042C69.9567 137.373 70.1142 137.846 70.1142 138.46V141.039H68.9928V138.588C68.9928 138.246 68.9047 137.985 68.7285 137.803C68.5576 137.616 68.32 137.523 68.0156 137.523C67.7006 137.523 67.4496 137.621 67.2627 137.819C67.0758 138.017 66.9823 138.305 66.9823 138.684V141.039H65.8609V138.588C65.8609 138.246 65.7728 137.985 65.5966 137.803C65.4257 137.616 65.1881 137.523 64.8837 137.523C64.5687 137.523 64.3177 137.621 64.1308 137.819C63.9439 138.017 63.8504 138.305 63.8504 138.684V141.039H62.721V136.602H63.8504V137.443C63.9679 137.154 64.1521 136.933 64.4031 136.778C64.6594 136.618 64.9558 136.537 65.2922 136.537C65.65 136.537 65.9597 136.623 66.2214 136.794C66.4884 136.965 66.6886 137.21 66.8221 137.531C66.961 137.226 67.1666 136.986 67.4389 136.81C67.7166 136.628 68.0263 136.537 68.3681 136.537ZM70.9783 135.328C70.9783 135.146 71.0424 135 71.1706 134.887C71.2987 134.77 71.4669 134.711 71.6752 134.711C71.8835 134.711 72.0517 134.77 72.1798 134.887C72.308 135 72.3721 135.146 72.3721 135.328C72.3721 135.504 72.308 135.651 72.1798 135.768C72.0517 135.881 71.8835 135.937 71.6752 135.937C71.4669 135.937 71.2987 135.881 71.1706 135.768C71.0424 135.651 70.9783 135.504 70.9783 135.328ZM72.2359 136.602V141.039H71.1065V136.602H72.2359ZM74.387 135.112V141.039H73.2576V135.112H74.387ZM76.1697 136.602L77.3792 139.613L78.5006 136.602H79.7421L77.0268 143.154H75.7772L76.7784 140.911L74.9121 136.602H76.1697ZM89.4358 135.384L88.0501 141.039H86.6563L85.599 136.938L84.5337 141.039H83.148L81.7622 135.384H82.9878L83.8528 139.765L84.9742 135.384H86.2158L87.3452 139.765L88.2103 135.384H89.4358ZM92.8518 136.537C93.3644 136.537 93.7729 136.706 94.0773 137.042C94.3817 137.378 94.5339 137.851 94.5339 138.46V141.039H93.4125V138.588C93.4125 138.236 93.3217 137.963 93.1401 137.771C92.9586 137.573 92.7103 137.475 92.3952 137.475C92.0748 137.475 91.8185 137.579 91.6262 137.787C91.434 137.995 91.3379 138.294 91.3379 138.684V141.039H90.2085V135.112H91.3379V137.491C91.4554 137.192 91.6476 136.959 91.9146 136.794C92.1869 136.623 92.4993 136.537 92.8518 136.537ZM95.3994 135.328C95.3994 135.146 95.4635 135 95.5917 134.887C95.7198 134.77 95.8881 134.711 96.0963 134.711C96.3046 134.711 96.4728 134.77 96.6009 134.887C96.7291 135 96.7932 135.146 96.7932 135.328C96.7932 135.504 96.7291 135.651 96.6009 135.768C96.4728 135.881 96.3046 135.937 96.0963 135.937C95.8881 135.937 95.7198 135.881 95.5917 135.768C95.4635 135.651 95.3994 135.504 95.3994 135.328ZM96.657 136.602V141.039H95.5276V136.602H96.657ZM100.05 140.07V141.039H99.4569C98.9603 141.039 98.5785 140.919 98.3115 140.679C98.0499 140.438 97.919 140.038 97.919 139.477V137.555H97.3023V136.602H97.919V135.504H99.0484V136.602H100.042V137.555H99.0484V139.493C99.0484 139.707 99.0912 139.856 99.1766 139.942C99.262 140.027 99.4062 140.07 99.6091 140.07H100.05ZM105.036 138.652C105.036 138.764 105.022 138.892 104.996 139.037H101.743C101.76 139.432 101.866 139.723 102.064 139.91C102.261 140.097 102.507 140.19 102.801 140.19C103.062 140.19 103.279 140.126 103.45 139.998C103.626 139.87 103.738 139.696 103.786 139.477H104.98C104.921 139.787 104.795 140.065 104.603 140.31C104.411 140.556 104.163 140.748 103.858 140.887C103.559 141.026 103.225 141.095 102.857 141.095C102.424 141.095 102.04 141.004 101.703 140.823C101.367 140.636 101.105 140.372 100.918 140.03C100.732 139.688 100.638 139.285 100.638 138.82C100.638 138.356 100.732 137.953 100.918 137.611C101.105 137.264 101.367 136.999 101.703 136.818C102.04 136.636 102.424 136.545 102.857 136.545C103.295 136.545 103.677 136.636 104.002 136.818C104.333 136.999 104.587 137.25 104.763 137.571C104.945 137.886 105.036 138.246 105.036 138.652ZM103.898 138.54C103.914 138.177 103.818 137.902 103.61 137.715C103.407 137.528 103.156 137.435 102.857 137.435C102.552 137.435 102.296 137.528 102.088 137.715C101.88 137.902 101.765 138.177 101.743 138.54H103.898Z" fill="#003366"/>
<path d="M58.2276 149.66C58.8419 149.248 59.3333 148.839 59.7019 148.435C60.0704 148.026 60.2547 147.647 60.2547 147.297C60.2547 147.08 60.1987 146.906 60.0867 146.776C59.9783 146.643 59.8012 146.576 59.5555 146.576C59.3026 146.576 59.1111 146.657 58.981 146.82C58.8509 146.979 58.7787 147.199 58.7642 147.481H58.2764C58.3017 147.054 58.4336 146.727 58.6721 146.5C58.9106 146.269 59.2177 146.153 59.5935 146.153C59.9512 146.153 60.2348 146.249 60.4444 146.44C60.654 146.632 60.7588 146.903 60.7588 147.253C60.7588 147.542 60.6648 147.837 60.4769 148.137C60.2927 148.433 60.0596 148.709 59.7778 148.966C59.4995 149.219 59.2123 149.434 58.916 149.611H60.8563V150.017H58.2276V149.66ZM62.0508 148.966C62.0833 149.194 62.1628 149.369 62.2893 149.492C62.4158 149.614 62.5892 149.676 62.8096 149.676C63.1131 149.676 63.3426 149.558 63.498 149.324C63.6533 149.089 63.731 148.717 63.731 148.207C63.731 148.11 63.7292 148.035 63.7256 147.985C63.675 148.202 63.5522 148.375 63.357 148.505C63.1619 148.635 62.9325 148.7 62.6687 148.7C62.2893 148.7 61.9912 148.587 61.7744 148.359C61.5576 148.131 61.4492 147.813 61.4492 147.405C61.4492 147.166 61.4962 146.95 61.5901 146.755C61.6841 146.559 61.8268 146.406 62.0183 146.294C62.2134 146.178 62.4537 146.12 62.7392 146.12C63.2884 146.12 63.6642 146.29 63.8665 146.63C64.0725 146.966 64.1755 147.428 64.1755 148.017C64.1755 148.689 64.0707 149.203 63.8611 149.557C63.6515 149.907 63.301 150.082 62.8096 150.082C62.4447 150.082 62.1574 149.979 61.9478 149.773C61.7419 149.564 61.6208 149.295 61.5847 148.966H62.0508ZM63.6768 147.481C63.6768 147.221 63.5991 147 63.4438 146.82C63.292 146.639 63.0625 146.549 62.7554 146.549C62.5025 146.549 62.3001 146.624 62.1484 146.776C61.9966 146.928 61.9207 147.139 61.9207 147.41C61.9207 147.699 61.9966 147.922 62.1484 148.077C62.3001 148.232 62.5079 148.31 62.7717 148.31C62.9234 148.31 63.068 148.279 63.2053 148.218C63.3462 148.157 63.46 148.063 63.5467 147.936C63.6335 147.81 63.6768 147.658 63.6768 147.481ZM64.9744 147.118C64.9744 146.93 65.0249 146.758 65.1261 146.603C65.2273 146.447 65.3772 146.325 65.576 146.234C65.7747 146.144 66.0114 146.099 66.286 146.099C66.5606 146.099 66.7955 146.144 66.9906 146.234C67.1893 146.325 67.3393 146.447 67.4405 146.603C67.5416 146.758 67.5922 146.93 67.5922 147.118C67.5922 147.331 67.5344 147.515 67.4188 147.671C67.3031 147.826 67.1279 147.936 66.893 148.001C67.146 148.07 67.3429 148.189 67.4838 148.359C67.6247 148.529 67.6952 148.738 67.6952 148.988C67.6952 149.349 67.5669 149.633 67.3104 149.839C67.0538 150.044 66.7124 150.147 66.286 150.147C65.8596 150.147 65.5182 150.044 65.2616 149.839C65.0051 149.633 64.8768 149.349 64.8768 148.988C64.8768 148.738 64.9454 148.529 65.0828 148.359C65.2237 148.189 65.4206 148.07 65.6735 148.001C65.4387 147.936 65.2634 147.826 65.1478 147.671C65.0322 147.515 64.9744 147.331 64.9744 147.118ZM65.4622 147.188C65.4622 147.405 65.5362 147.573 65.6844 147.692C65.8325 147.808 66.0331 147.866 66.286 147.866C66.5389 147.866 66.7377 147.808 66.8822 147.692C67.0303 147.573 67.1044 147.405 67.1044 147.188C67.1044 146.971 67.0303 146.805 66.8822 146.69C66.734 146.57 66.5353 146.511 66.286 146.511C66.0367 146.511 65.8361 146.57 65.6844 146.69C65.5362 146.805 65.4622 146.971 65.4622 147.188ZM65.3592 148.96C65.3592 149.206 65.4423 149.398 65.6085 149.535C65.7747 149.669 66.0005 149.736 66.286 149.736C66.5678 149.736 66.7919 149.667 66.9581 149.53C67.1243 149.392 67.2074 149.203 67.2074 148.96C67.2074 148.715 67.1207 148.529 66.9472 148.402C66.7738 148.276 66.5534 148.213 66.286 148.213C66.015 148.213 65.7928 148.276 65.6193 148.402C65.4459 148.529 65.3592 148.715 65.3592 148.96ZM70.4218 149.654H71.7768V150.039H69.9286V146.218H70.4218V149.654ZM73.6066 147.026C73.8957 147.026 74.1396 147.098 74.3383 147.242C74.5406 147.387 74.6816 147.58 74.7611 147.822V147.063H75.2543V150.039H74.7611V149.28C74.6816 149.522 74.5406 149.716 74.3383 149.86C74.1396 150.005 73.8957 150.077 73.6066 150.077C73.3428 150.077 73.108 150.016 72.902 149.893C72.696 149.77 72.5334 149.595 72.4142 149.367C72.2986 149.136 72.2408 148.865 72.2408 148.554C72.2408 148.243 72.2986 147.972 72.4142 147.741C72.5334 147.51 72.696 147.333 72.902 147.21C73.108 147.087 73.3428 147.026 73.6066 147.026ZM73.7475 147.465C73.444 147.465 73.2001 147.562 73.0158 147.757C72.8351 147.949 72.7448 148.214 72.7448 148.554C72.7448 148.894 72.8351 149.161 73.0158 149.356C73.2001 149.548 73.444 149.643 73.7475 149.643C73.9426 149.643 74.1161 149.598 74.2678 149.508C74.4232 149.418 74.5443 149.291 74.631 149.129C74.7177 148.962 74.7611 148.771 74.7611 148.554C74.7611 148.337 74.7177 148.146 74.631 147.979C74.5443 147.813 74.4232 147.687 74.2678 147.6C74.1161 147.51 73.9426 147.465 73.7475 147.465ZM77.5677 149.605V150.039H77.1991C76.8956 150.039 76.668 149.967 76.5162 149.822C76.3681 149.678 76.294 149.436 76.294 149.096V147.492H75.8495V147.063H76.294V146.321H76.7926V147.063H77.5623V147.492H76.7926V149.107C76.7926 149.298 76.8269 149.43 76.8956 149.502C76.9679 149.571 77.0907 149.605 77.2642 149.605H77.5677ZM81.0151 148.386C81.0151 148.491 81.0078 148.581 80.9934 148.657H78.614C78.6248 148.997 78.7206 149.251 78.9013 149.421C79.0855 149.591 79.3096 149.676 79.5733 149.676C79.8118 149.676 80.0105 149.616 80.1695 149.497C80.3321 149.374 80.4315 149.212 80.4676 149.009H80.9934C80.9572 149.215 80.8759 149.4 80.7495 149.562C80.6266 149.725 80.4658 149.851 80.2671 149.942C80.0684 150.032 79.8443 150.077 79.595 150.077C79.3096 150.077 79.0566 150.016 78.8362 149.893C78.6158 149.77 78.4424 149.595 78.3159 149.367C78.193 149.136 78.1316 148.865 78.1316 148.554C78.1316 148.243 78.193 147.972 78.3159 147.741C78.4424 147.51 78.6158 147.333 78.8362 147.21C79.0566 147.087 79.3096 147.026 79.595 147.026C79.8841 147.026 80.1352 147.087 80.3484 147.21C80.5652 147.333 80.7296 147.497 80.8416 147.703C80.9572 147.909 81.0151 148.137 81.0151 148.386ZM80.5164 148.418C80.5273 148.198 80.4911 148.014 80.408 147.866C80.3249 147.717 80.2111 147.607 80.0666 147.535C79.922 147.463 79.7648 147.427 79.595 147.427C79.324 147.427 79.0964 147.512 78.9121 147.681C78.7278 147.848 78.6284 148.093 78.614 148.418H80.5164ZM85.4545 149.156H83.7743L83.4546 150.039H82.9234L84.338 146.288H84.8963L86.3055 150.039H85.7743L85.4545 149.156ZM85.3136 148.771L84.6144 146.841L83.9153 148.771H85.3136ZM88.0676 149.513L88.989 147.063H89.5201L88.3548 150.039H87.7695L86.6042 147.063H87.1353L88.0676 149.513ZM92.8497 148.386C92.8497 148.491 92.8425 148.581 92.828 148.657H90.4487C90.4595 148.997 90.5552 149.251 90.7359 149.421C90.9202 149.591 91.1442 149.676 91.408 149.676C91.6465 149.676 91.8452 149.616 92.0042 149.497C92.1668 149.374 92.2662 149.212 92.3023 149.009H92.828C92.7919 149.215 92.7106 149.4 92.5841 149.562C92.4613 149.725 92.3005 149.851 92.1018 149.942C91.903 150.032 91.679 150.077 91.4297 150.077C91.1442 150.077 90.8913 150.016 90.6709 149.893C90.4505 149.77 90.277 149.595 90.1506 149.367C90.0277 149.136 89.9663 148.865 89.9663 148.554C89.9663 148.243 90.0277 147.972 90.1506 147.741C90.277 147.51 90.4505 147.333 90.6709 147.21C90.8913 147.087 91.1442 147.026 91.4297 147.026C91.7187 147.026 91.9699 147.087 92.1831 147.21C92.3999 147.333 92.5643 147.497 92.6763 147.703C92.7919 147.909 92.8497 148.137 92.8497 148.386ZM92.3511 148.418C92.3619 148.198 92.3258 148.014 92.2427 147.866C92.1596 147.717 92.0457 147.607 91.9012 147.535C91.7567 147.463 91.5995 147.427 91.4297 147.427C91.1587 147.427 90.931 147.512 90.7468 147.681C90.5625 147.848 90.4631 148.093 90.4487 148.418H92.3511ZM95.1696 147.015C95.5165 147.015 95.7965 147.127 96.0097 147.351C96.2229 147.571 96.3295 147.891 96.3295 148.31V150.039H95.8363V148.353C95.8363 148.057 95.7604 147.83 95.6086 147.671C95.4569 147.512 95.2509 147.432 94.9907 147.432C94.7197 147.432 94.5029 147.521 94.3403 147.698C94.1777 147.871 94.0964 148.126 94.0964 148.462V150.039H93.6032V147.063H94.0964V147.768C94.1723 147.526 94.306 147.34 94.4975 147.21C94.6926 147.08 94.9167 147.015 95.1696 147.015ZM99.8394 147.063V150.039H99.3461V149.34C99.2703 149.582 99.1348 149.768 98.9396 149.898C98.7481 150.025 98.5241 150.088 98.2676 150.088C97.9243 150.088 97.6461 149.978 97.4329 149.757C97.2197 149.533 97.1131 149.213 97.1131 148.798V147.063H97.6063V148.749C97.6063 149.045 97.6822 149.275 97.834 149.437C97.9857 149.596 98.1917 149.676 98.4518 149.676C98.7228 149.676 98.9396 149.589 99.1022 149.416C99.2648 149.239 99.3461 148.982 99.3461 148.646V147.063H99.8394ZM103.475 148.386C103.475 148.491 103.468 148.581 103.453 148.657H101.074C101.085 148.997 101.181 149.251 101.361 149.421C101.546 149.591 101.77 149.676 102.033 149.676C102.272 149.676 102.471 149.616 102.63 149.497C102.792 149.374 102.891 149.212 102.928 149.009H103.453C103.417 149.215 103.336 149.4 103.209 149.562C103.087 149.725 102.926 149.851 102.727 149.942C102.528 150.032 102.304 150.077 102.055 150.077C101.77 150.077 101.517 150.016 101.296 149.893C101.076 149.77 100.902 149.595 100.776 149.367C100.653 149.136 100.592 148.865 100.592 148.554C100.592 148.243 100.653 147.972 100.776 147.741C100.902 147.51 101.076 147.333 101.296 147.21C101.517 147.087 101.77 147.026 102.055 147.026C102.344 147.026 102.595 147.087 102.808 147.21C103.025 147.333 103.19 147.497 103.302 147.703C103.417 147.909 103.475 148.137 103.475 148.386ZM102.976 148.418C102.987 148.198 102.951 148.014 102.868 147.866C102.785 147.717 102.671 147.607 102.527 147.535C102.382 147.463 102.225 147.427 102.055 147.427C101.784 147.427 101.556 147.512 101.372 147.681C101.188 147.848 101.088 148.093 101.074 148.418H102.976ZM104.516 149.676C104.566 149.835 104.592 149.983 104.592 150.12C104.592 150.308 104.545 150.458 104.451 150.57C104.357 150.686 104.216 150.744 104.028 150.744V150.532C104.118 150.532 104.183 150.507 104.223 150.456C104.266 150.409 104.288 150.334 104.288 150.229V150.18H104.012V149.676H104.516ZM107.225 146.619V147.925H108.678V148.305H107.225V149.638H108.84V150.039H106.732V146.218H108.84V146.619H107.225ZM110.075 146.028V150.039H109.582V146.028H110.075ZM112.608 150.039L111.47 148.7V150.039H110.977V146.028H111.47V148.359L112.592 147.063H113.193L111.86 148.543L113.226 150.039H112.608ZM115.335 147.015C115.682 147.015 115.962 147.127 116.175 147.351C116.388 147.571 116.495 147.891 116.495 148.31V150.039H116.002V148.353C116.002 148.057 115.926 147.83 115.774 147.671C115.622 147.512 115.416 147.432 115.156 147.432C114.885 147.432 114.668 147.521 114.506 147.698C114.343 147.871 114.262 148.126 114.262 148.462V150.039H113.769V146.028H114.262V147.768C114.338 147.526 114.471 147.34 114.663 147.21C114.858 147.08 115.082 147.015 115.335 147.015ZM118.579 147.026C118.868 147.026 119.112 147.098 119.311 147.242C119.513 147.387 119.654 147.58 119.734 147.822V147.063H120.227V150.039H119.734V149.28C119.654 149.522 119.513 149.716 119.311 149.86C119.112 150.005 118.868 150.077 118.579 150.077C118.315 150.077 118.081 150.016 117.875 149.893C117.669 149.77 117.506 149.595 117.387 149.367C117.271 149.136 117.213 148.865 117.213 148.554C117.213 148.243 117.271 147.972 117.387 147.741C117.506 147.51 117.669 147.333 117.875 147.21C118.081 147.087 118.315 147.026 118.579 147.026ZM118.72 147.465C118.417 147.465 118.173 147.562 117.988 147.757C117.808 147.949 117.717 148.214 117.717 148.554C117.717 148.894 117.808 149.161 117.988 149.356C118.173 149.548 118.417 149.643 118.72 149.643C118.915 149.643 119.089 149.598 119.24 149.508C119.396 149.418 119.517 149.291 119.604 149.129C119.69 148.962 119.734 148.771 119.734 148.554C119.734 148.337 119.69 148.146 119.604 147.979C119.517 147.813 119.396 147.687 119.24 147.6C119.089 147.51 118.915 147.465 118.72 147.465ZM121.614 147.665C121.711 147.459 121.854 147.3 122.042 147.188C122.23 147.073 122.454 147.015 122.714 147.015V147.551H122.562C122.284 147.551 122.056 147.624 121.879 147.768C121.702 147.909 121.614 148.144 121.614 148.473V150.039H121.12V147.063H121.614V147.665ZM124.729 149.605V150.039H124.36C124.057 150.039 123.829 149.967 123.677 149.822C123.529 149.678 123.455 149.436 123.455 149.096V147.492H123.011V147.063H123.455V146.321H123.954V147.063H124.723V147.492H123.954V149.107C123.954 149.298 123.988 149.43 124.057 149.502C124.129 149.571 124.252 149.605 124.425 149.605H124.729ZM128.957 147.237C128.928 147.009 128.851 146.834 128.724 146.711C128.601 146.585 128.43 146.521 128.209 146.521C127.902 146.521 127.669 146.641 127.51 146.879C127.355 147.118 127.277 147.495 127.277 148.012L127.282 148.213C127.337 147.996 127.461 147.824 127.656 147.698C127.851 147.568 128.081 147.503 128.345 147.503C128.724 147.503 129.02 147.616 129.234 147.844C129.45 148.072 129.559 148.39 129.559 148.798C129.559 149.036 129.512 149.253 129.418 149.448C129.324 149.64 129.179 149.793 128.984 149.909C128.793 150.021 128.554 150.077 128.269 150.077C127.723 150.077 127.347 149.905 127.141 149.562C126.939 149.219 126.838 148.753 126.838 148.164C126.838 147.484 126.946 146.975 127.163 146.635C127.384 146.292 127.741 146.12 128.236 146.12C128.601 146.12 128.881 146.223 129.076 146.429C129.275 146.635 129.393 146.904 129.429 147.237H128.957ZM127.337 148.717C127.337 148.98 127.412 149.203 127.564 149.383C127.72 149.56 127.951 149.649 128.258 149.649C128.511 149.649 128.713 149.575 128.865 149.427C129.017 149.275 129.093 149.063 129.093 148.792C129.093 148.5 129.017 148.278 128.865 148.126C128.713 147.97 128.504 147.893 128.236 147.893C128.085 147.893 127.94 147.923 127.803 147.985C127.665 148.046 127.553 148.14 127.467 148.267C127.38 148.39 127.337 148.54 127.337 148.717ZM132.546 146.576L131.099 150.039H130.578L132.047 146.624H130.042V146.196H132.546V146.576ZM133.683 148.966C133.716 149.194 133.795 149.369 133.922 149.492C134.048 149.614 134.221 149.676 134.442 149.676C134.745 149.676 134.975 149.558 135.13 149.324C135.286 149.089 135.363 148.717 135.363 148.207C135.363 148.11 135.361 148.035 135.358 147.985C135.307 148.202 135.184 148.375 134.989 148.505C134.794 148.635 134.565 148.7 134.301 148.7C133.922 148.7 133.623 148.587 133.407 148.359C133.19 148.131 133.081 147.813 133.081 147.405C133.081 147.166 133.128 146.95 133.222 146.755C133.316 146.559 133.459 146.406 133.651 146.294C133.846 146.178 134.086 146.12 134.371 146.12C134.921 146.12 135.296 146.29 135.499 146.63C135.705 146.966 135.808 147.428 135.808 148.017C135.808 148.689 135.703 149.203 135.493 149.557C135.284 149.907 134.933 150.082 134.442 150.082C134.077 150.082 133.79 149.979 133.58 149.773C133.374 149.564 133.253 149.295 133.217 148.966H133.683ZM135.309 147.481C135.309 147.221 135.231 147 135.076 146.82C134.924 146.639 134.695 146.549 134.388 146.549C134.135 146.549 133.932 146.624 133.781 146.776C133.629 146.928 133.553 147.139 133.553 147.41C133.553 147.699 133.629 147.922 133.781 148.077C133.932 148.232 134.14 148.31 134.404 148.31C134.556 148.31 134.7 148.279 134.838 148.218C134.978 148.157 135.092 148.063 135.179 147.936C135.266 147.81 135.309 147.658 135.309 147.481ZM139.105 146.608H137.143V147.887C137.234 147.764 137.364 147.667 137.533 147.595C137.703 147.522 137.889 147.486 138.092 147.486C138.363 147.486 138.587 147.544 138.764 147.66C138.944 147.772 139.076 147.922 139.159 148.11C139.246 148.294 139.29 148.5 139.29 148.727C139.29 149.121 139.179 149.443 138.959 149.692C138.739 149.942 138.415 150.066 137.989 150.066C137.606 150.066 137.293 149.963 137.051 149.757C136.809 149.548 136.673 149.268 136.645 148.917H137.132C137.172 149.141 137.264 149.316 137.409 149.443C137.557 149.566 137.743 149.627 137.967 149.627C138.245 149.627 138.455 149.544 138.596 149.378C138.737 149.212 138.807 148.993 138.807 148.722C138.807 148.458 138.735 148.252 138.59 148.104C138.446 147.956 138.242 147.882 137.978 147.882C137.79 147.882 137.626 147.923 137.485 148.007C137.344 148.086 137.237 148.194 137.165 148.332H136.688V146.169H139.105V146.608ZM140.283 149.54C140.08 149.197 139.979 148.718 139.979 148.104C139.979 147.493 140.08 147.018 140.283 146.679C140.485 146.335 140.835 146.164 141.334 146.164C141.833 146.164 142.183 146.335 142.386 146.679C142.591 147.022 142.694 147.497 142.694 148.104C142.694 148.718 142.591 149.197 142.386 149.54C142.183 149.884 141.833 150.055 141.334 150.055C140.835 150.055 140.485 149.884 140.283 149.54ZM142.136 148.895C142.183 148.682 142.207 148.418 142.207 148.104C142.207 147.793 142.183 147.533 142.136 147.324C142.093 147.114 142.008 146.948 141.881 146.825C141.755 146.699 141.573 146.635 141.334 146.635C141.099 146.635 140.918 146.699 140.792 146.825C140.666 146.948 140.579 147.114 140.532 147.324C140.489 147.533 140.467 147.793 140.467 148.104C140.467 148.418 140.489 148.682 140.532 148.895C140.579 149.105 140.666 149.273 140.792 149.4C140.918 149.526 141.099 149.589 141.334 149.589C141.573 149.589 141.755 149.526 141.881 149.4C142.008 149.273 142.093 149.105 142.136 148.895Z" fill="#1D1D1F"/>
<defs>
<filter id="filter0_d_6396_12624" x="0.627451" y="0.710458" width="238.597" height="190.745" filterUnits="userSpaceOnUse" color-interpolation-filters="sRGB">
<feFlood flood-opacity="0" result="BackgroundImageFix"/>
<feColorMatrix in="SourceAlpha" type="matrix" values="0 0 0 0 0 0 0 0 0 0 0 0 0 0 0 0 0 0 127 0" result="hardAlpha"/>
<feOffset dy="2.58301"/>
<feGaussianBlur stdDeviation="9.68627"/>
<feComposite in2="hardAlpha" operator="out"/>
<feColorMatrix type="matrix" values="0 0 0 0 0.101961 0 0 0 0 0.109804 0 0 0 0 0.129412 0 0 0 0.07 0"/>
<feBlend mode="normal" in2="BackgroundImageFix" result="effect1_dropShadow_6396_12624"/>
<feBlend mode="normal" in="SourceGraphic" in2="effect1_dropShadow_6396_12624" result="shape"/>
</filter>
<clipPath id="clip0_6396_12624">
<rect width="14.0741" height="14.0741" fill="white" transform="translate(34.0742 63.9453)"/>
</clipPath>
<clipPath id="clip1_6396_12624">
<rect width="14.0741" height="14.0741" fill="white" transform="translate(34.0664 99.8242)"/>
</clipPath>
</defs>
</svg>
