<svg width="80" height="80" viewBox="0 0 80 80" fill="none" xmlns="http://www.w3.org/2000/svg">
<rect width="80" height="80" rx="6" fill="#E7FFDB"/>
<g clip-path="url(#clip0_7417_16562)">
<path opacity="0.2" fill-rule="evenodd" clip-rule="evenodd" d="M48.5528 43.5187C45.5755 42.3914 42.038 41.7227 38.5004 41.7227C29.6115 41.7227 20.7227 45.9449 20.7227 51.056V55.056L28.5004 57.056C30.2782 53.2782 34.056 50.6115 38.5004 50.6115C40.4239 50.6115 42.2225 51.111 43.7881 51.9838L48.5528 43.5187Z" fill="#53A42A"/>
<path fill-rule="evenodd" clip-rule="evenodd" d="M29.6111 26.1662C29.6111 31.0551 33.6111 35.0551 38.5 35.0551C43.3889 35.0551 47.3889 31.0551 47.3889 26.1662C47.3889 21.2773 43.3889 17.2773 38.5 17.2773C33.6111 17.2773 29.6111 21.2773 29.6111 26.1662ZM34.0556 26.1662C34.0556 23.7218 36.0556 21.7218 38.5 21.7218C40.9444 21.7218 42.9444 23.7218 42.9444 26.1662C42.9444 28.6107 40.9444 30.6107 38.5 30.6107C36.0556 30.6107 34.0556 28.6107 34.0556 26.1662ZM49.6469 41.5748C46.2702 40.2431 42.3143 39.4996 38.5 39.4996C28.9444 39.4996 18.5 44.1662 18.5 51.0551V56.8329L25.5412 58.5932C25.2973 59.5975 25.168 60.6454 25.168 61.722H29.6124C29.6124 56.8331 33.6124 52.8331 38.5013 52.8331C40.0212 52.8331 41.4552 53.2197 42.7098 53.8995L43.7881 51.9838C42.2225 51.111 40.4239 50.6115 38.5004 50.6115C34.056 50.6115 30.2782 53.2782 28.5004 57.056L20.7227 55.056V51.056C20.7227 45.9449 29.6115 41.7227 38.5004 41.7227C42.038 41.7227 45.5755 42.3914 48.5528 43.5187L49.6469 41.5748Z" fill="#53A42A"/>
<path d="M51.5683 43.4907L39.8083 64.4954C38.938 66.0494 40.0137 68.0001 41.7403 68.0001H65.2603C66.987 68.0001 68.0627 66.0494 67.1923 64.4954L55.4323 43.4907C54.569 41.9484 52.4317 41.9484 51.5683 43.4907ZM55.8453 65.6691H51.1553L51.167 61.0001H55.8337L55.8453 65.6691ZM51.167 58.6807V49.3334H55.8337V58.6784L51.167 58.6807Z" fill="#53A42A"/>
</g>
<defs>
<clipPath id="clip0_7417_16562">
<rect width="56" height="56" fill="white" transform="translate(11.5 12)"/>
</clipPath>
</defs>
</svg>
