<svg width="148" height="148" viewBox="0 0 148 148" fill="none" xmlns="http://www.w3.org/2000/svg">
<circle cx="74" cy="74" r="73" fill="white" stroke="url(#paint0_linear_6750_16165)" stroke-width="2"/>
<path d="M74.8346 40.668C58.658 40.668 49.0013 49.7013 49.0013 64.8346V70.7038C46.913 72.2521 45.668 74.6713 45.668 77.3346C45.668 81.263 48.3995 84.5634 52.0645 85.4401C55.3861 98.6118 64.0446 107.335 74.0013 107.335C75.3813 107.335 76.5013 106.216 76.5013 104.835C76.5013 103.453 75.3813 102.335 74.0013 102.335C66.158 102.335 58.9802 94.2372 56.5469 82.6439C56.3035 81.4872 55.2855 80.6582 54.1022 80.6582C54.0455 80.6582 53.9736 80.6597 53.9036 80.6647C52.1103 80.6147 50.668 79.1396 50.668 77.3346C50.668 76.0596 51.3989 74.9242 52.5755 74.3659C53.4472 73.9509 54.0013 73.0718 54.0013 72.1068V67.6243C60.4263 65.9377 64.449 62.508 66.5957 60.1113C69.3307 61.7797 74.7196 64.0013 84.0013 64.0013C87.5792 64.0013 90.6838 63.6795 93.1615 63.2754C93.5537 64.4499 94.0013 66.1711 94.0013 68.168V84.8346C94.0013 89.0071 90.6738 92.3346 86.5013 92.3346H83.4349C82.9621 91.3378 82.2162 90.4955 81.284 89.9055C80.3517 89.3155 79.2712 89.002 78.168 89.0013C77.4019 89.0013 76.6434 89.1522 75.9356 89.4453C75.2279 89.7385 74.5849 90.1682 74.0432 90.7098C73.5015 91.2515 73.0718 91.8946 72.7787 92.6023C72.4855 93.31 72.3346 94.0686 72.3346 94.8346C72.3346 95.6007 72.4855 96.3592 72.7787 97.067C73.0718 97.7747 73.5015 98.4177 74.0432 98.9594C74.5849 99.5011 75.2279 99.9308 75.9356 100.224C76.6434 100.517 77.4019 100.668 78.168 100.668C79.2707 100.667 80.3505 100.353 81.2821 99.7629C82.2137 99.1729 82.959 98.331 83.4316 97.3346H86.5013C93.0942 97.3346 98.5244 92.1558 98.959 85.668H99.0013C102.683 85.668 105.668 82.683 105.668 79.0013V75.668C105.668 71.9863 102.683 69.0013 99.0013 69.0013V68.168C99.0013 65.7385 98.5164 63.5804 98.0312 62.0286C99.002 61.4881 99.779 60.6468 100.235 59.6133C100.832 58.2583 100.81 56.7164 100.173 55.388C95.6998 46.0314 86.463 40.668 74.8346 40.668ZM65.668 74.0013C64.7839 74.0013 63.9361 74.3525 63.3109 74.9776C62.6858 75.6027 62.3346 76.4506 62.3346 77.3346C62.3346 78.2187 62.6858 79.0665 63.3109 79.6917C63.9361 80.3168 64.7839 80.668 65.668 80.668C66.552 80.668 67.3999 80.3168 68.025 79.6917C68.6501 79.0665 69.0013 78.2187 69.0013 77.3346C69.0013 76.4506 68.6501 75.6027 68.025 74.9776C67.3999 74.3525 66.552 74.0013 65.668 74.0013ZM82.3346 74.0013C81.4639 74.0032 80.6285 74.3456 80.0071 74.9555C79.3856 75.5653 79.0275 76.3941 79.0092 77.2646C78.9909 78.1351 79.3139 78.9782 79.9092 79.6136C80.5045 80.249 81.3248 80.6263 82.1947 80.6647C82.2413 80.6668 82.288 80.6679 82.3346 80.668C83.2187 80.668 84.0665 80.3168 84.6917 79.6917C85.3168 79.0665 85.668 78.2187 85.668 77.3346C85.668 76.4506 85.3168 75.6027 84.6917 74.9776C84.0665 74.3525 83.2187 74.0013 82.3346 74.0013Z" fill="url(#paint1_linear_6750_16165)"/>
<defs>
<linearGradient id="paint0_linear_6750_16165" x1="3.54934" y1="63.5367" x2="146.08" y2="63.5368" gradientUnits="userSpaceOnUse">
<stop stop-color="#92D65E"/>
<stop offset="1" stop-color="#5DB14C"/>
</linearGradient>
<linearGradient id="paint1_linear_6750_16165" x1="47.1069" y1="69.2881" x2="104.889" y2="69.2881" gradientUnits="userSpaceOnUse">
<stop stop-color="#92D65E"/>
<stop offset="1" stop-color="#5DB14C"/>
</linearGradient>
</defs>
</svg>
