<svg width="148" height="148" viewBox="0 0 148 148" fill="none" xmlns="http://www.w3.org/2000/svg">
<circle cx="74" cy="74" r="73" fill="white" stroke="url(#paint0_linear_6750_16314)" stroke-width="2"/>
<path fill-rule="evenodd" clip-rule="evenodd" d="M110.668 53.168C110.668 49.033 107.303 45.668 103.168 45.668H74.8346C70.6996 45.668 67.3346 49.033 67.3346 53.168V94.8346C67.3346 96.2163 68.4546 97.3346 69.8346 97.3346H84.3594C85.4584 101.165 89.0017 104.001 93.168 104.001C97.3342 104.001 100.878 101.165 101.977 97.3346H103.168C107.303 97.3346 110.668 93.9696 110.668 89.8346V53.168ZM64.0013 94.8346V60.668H49.75C46.7867 60.668 44.1011 62.4143 42.8978 65.1243L37.9824 76.1823C37.5558 77.1406 37.3346 78.1792 37.3346 79.2292V89.8346C37.3346 93.9763 40.693 97.3346 44.8346 97.3346H46.026C47.125 101.165 50.6684 104.001 54.8346 104.001C59.8673 104.001 64.0013 99.8673 64.0013 94.8346ZM49.75 65.668H57.3346C58.2546 65.668 59.0013 66.4146 59.0013 67.3346V74.0013C59.0013 74.9213 58.2546 75.668 57.3346 75.668H46.2474C45.0424 75.668 44.2372 74.4259 44.7272 73.3242L47.4681 67.1523C47.8681 66.249 48.7617 65.668 49.75 65.668ZM89.0013 94.8346C89.0013 92.5073 90.8406 90.668 93.168 90.668C95.4953 90.668 97.3346 92.5073 97.3346 94.8346C97.3346 97.162 95.4953 99.0013 93.168 99.0013C90.8406 99.0013 89.0013 97.162 89.0013 94.8346ZM50.668 94.8346C50.668 92.5073 52.5073 90.668 54.8346 90.668C57.162 90.668 59.0013 92.5073 59.0013 94.8346C59.0013 97.162 57.162 99.0013 54.8346 99.0013C52.5073 99.0013 50.668 97.162 50.668 94.8346ZM92.2397 61.089C93.1119 60.8328 94.062 61.1482 94.6077 61.8725C97.0586 65.1246 97.9648 69.111 97.999 71.5353C98.0526 75.7483 96.05 80.0795 91.4508 80.2614H91.3972C90.5592 80.2614 89.2485 80.2367 87.8111 79.1231C87.7185 79.0541 87.6454 78.9654 87.5967 78.8669V78.862C90.3789 76.2947 92.2791 72.7913 93.1123 68.5783C93.1903 68.1792 92.9369 67.7899 92.5374 67.7111C92.1427 67.6273 91.7578 67.8885 91.6798 68.2925C90.9801 71.8305 89.457 74.8195 87.2576 77.1152C85.617 78.9231 83.6329 80.251 81.4106 80.966C81.337 80.9896 81.2625 81.001 81.1889 81.001C80.879 81.001 80.591 80.8004 80.4921 80.4861C80.3698 80.0973 80.5823 79.6814 80.9672 79.5577C82.1707 79.1704 83.2943 78.5737 84.3238 77.804C82.2296 77.0082 80 74.7825 80 71.7373C80 70.6976 80.1072 69.451 80.916 68.091C83.6251 64.0012 89.7352 61.8331 92.2397 61.089Z" fill="url(#paint1_linear_6750_16314)"/>
<defs>
<linearGradient id="paint0_linear_6750_16314" x1="3.54934" y1="63.5367" x2="146.08" y2="63.5368" gradientUnits="userSpaceOnUse">
<stop stop-color="#92D65E"/>
<stop offset="1" stop-color="#5DB14C"/>
</linearGradient>
<linearGradient id="paint1_linear_6750_16314" x1="108.909" y1="70.7106" x2="38.2861" y2="70.7106" gradientUnits="userSpaceOnUse">
<stop stop-color="#92D65E"/>
<stop offset="1" stop-color="#5DB14C"/>
</linearGradient>
</defs>
</svg>
