<svg width="148" height="148" viewBox="0 0 148 148" fill="none" xmlns="http://www.w3.org/2000/svg">
<circle cx="74" cy="74" r="73" fill="white" stroke="url(#paint0_linear_6750_16323)" stroke-width="2"/>
<path d="M74.0013 40.668C55.6213 40.668 40.668 55.6213 40.668 74.0013C40.668 92.3813 55.6213 107.335 74.0013 107.335C92.3813 107.335 107.335 92.3813 107.335 74.0013C107.335 55.6213 92.3813 40.668 74.0013 40.668ZM81.603 84.9363C81.1146 85.4246 80.4746 85.668 79.8346 85.668C79.1946 85.668 78.5546 85.4246 78.0663 84.9363L69.733 76.603C69.2646 76.133 69.0013 75.498 69.0013 74.8346V56.5013C69.0013 55.1196 70.1196 54.0013 71.5013 54.0013C72.883 54.0013 74.0013 55.1196 74.0013 56.5013V73.7996L81.603 81.4013C82.578 82.3763 82.578 83.9596 81.603 84.9363Z" fill="url(#paint1_linear_6750_16323)"/>
<defs>
<linearGradient id="paint0_linear_6750_16323" x1="3.54934" y1="63.5367" x2="146.08" y2="63.5368" gradientUnits="userSpaceOnUse">
<stop stop-color="#92D65E"/>
<stop offset="1" stop-color="#5DB14C"/>
</linearGradient>
<linearGradient id="paint1_linear_6750_16323" x1="42.2668" y1="69.2881" x2="106.47" y2="69.2881" gradientUnits="userSpaceOnUse">
<stop stop-color="#92D65E"/>
<stop offset="1" stop-color="#5DB14C"/>
</linearGradient>
</defs>
</svg>
