<svg width="148" height="148" viewBox="0 0 148 148" fill="none" xmlns="http://www.w3.org/2000/svg">
<circle cx="74" cy="74" r="73" fill="white" stroke="url(#paint0_linear_6750_16249)" stroke-width="2"/>
<path fill-rule="evenodd" clip-rule="evenodd" d="M48.1667 45.668C43.1117 45.668 39 49.7813 39 54.8346V84.8346C39 89.888 43.1117 94.0013 48.1667 94.0013H99.8333C104.888 94.0013 109 89.888 109 84.8346V54.8346C109 49.7813 104.888 45.668 99.8333 45.668H48.1667ZM59.8333 99.0013C59.5021 98.9966 59.1731 99.0578 58.8657 99.1814C58.5583 99.3049 58.2785 99.4883 58.0426 99.7209C57.8067 99.9535 57.6193 100.231 57.4914 100.536C57.3636 100.842 57.2977 101.17 57.2977 101.501C57.2977 101.833 57.3636 102.161 57.4914 102.466C57.6193 102.772 57.8067 103.049 58.0426 103.282C58.2785 103.514 58.5583 103.698 58.8657 103.821C59.1731 103.945 59.5021 104.006 59.8333 104.001H88.1667C88.4979 104.006 88.8269 103.945 89.1343 103.821C89.4417 103.698 89.7215 103.514 89.9574 103.282C90.1933 103.049 90.3807 102.772 90.5086 102.466C90.6364 102.161 90.7023 101.833 90.7023 101.501C90.7023 101.17 90.6364 100.842 90.5086 100.536C90.3807 100.231 90.1933 99.9535 89.9574 99.7209C89.7215 99.4883 89.4417 99.3049 89.1343 99.1814C88.8269 99.0578 88.4979 98.9966 88.1667 99.0013H59.8333ZM86.7711 72.7876C86.9237 71.8961 87 70.8308 87 69.5916C87 67.3099 86.71 65.5456 86.1301 64.299C85.7943 63.5812 85.3822 62.9805 84.8938 62.497C84.4131 62.0059 83.8522 61.6356 83.2112 61.3863C82.5701 61.1294 81.8566 61.001 81.0706 61.001C79.8802 61.001 78.8538 61.2881 77.9915 61.8623C77.1368 62.429 76.4843 63.2563 76.0341 64.3443C75.7746 65.0016 75.5838 65.7874 75.4618 66.7016C75.3397 67.6159 75.2786 68.6434 75.2786 69.7843C75.2786 70.6683 75.332 71.4919 75.4389 72.255C75.5533 73.0105 75.7288 73.7019 75.9654 74.329C76.4309 75.4774 77.1215 76.3765 78.0373 77.0263C78.9606 77.6761 80.0023 78.001 81.1622 78.001C82.1695 78.001 83.0852 77.7592 83.9094 77.2756C84.7336 76.7921 85.4051 76.1045 85.924 75.213C86.3361 74.4876 86.6184 73.6792 86.7711 72.7876ZM83.6118 65.9763C83.7797 66.8528 83.8636 67.9823 83.8636 69.365C83.8636 70.8232 83.7835 72.0019 83.6232 72.901C83.463 73.8001 83.1844 74.4914 82.7876 74.975C82.3908 75.4585 81.8414 75.7003 81.1393 75.7003C80.4601 75.7003 79.9221 75.4699 79.5253 75.009C79.1285 74.5405 78.8461 73.853 78.6783 72.9463C78.5104 72.0396 78.4264 70.8761 78.4264 69.4556C78.4264 67.3628 78.621 65.8139 79.0102 64.809C79.407 63.8041 80.1091 63.3016 81.1164 63.3016C81.8185 63.3016 82.3679 63.5283 82.7647 63.9816C83.1615 64.4274 83.4439 65.0923 83.6118 65.9763ZM71.9128 75.0656H65.9377C66.1284 74.7785 66.3154 74.533 66.4985 74.329C66.9259 73.8152 67.7119 73.0936 68.8566 72.1643C70.0089 71.235 70.8292 70.555 71.3176 70.1243C71.806 69.6861 72.2829 69.0854 72.7484 68.3223C73.2216 67.5516 73.4581 66.6979 73.4581 65.761C73.4581 65.1641 73.3437 64.5899 73.1147 64.0383C72.8934 63.4792 72.5805 62.9881 72.1761 62.565C71.7716 62.1419 71.3023 61.8094 70.7682 61.5676C69.944 61.205 68.9481 61.0236 67.7806 61.0236C66.8114 61.0236 65.9644 61.1672 65.2394 61.4543C64.5221 61.7339 63.9269 62.1041 63.4537 62.565C62.9882 63.0259 62.6372 63.5396 62.4006 64.1063C62.1641 64.673 62.0458 65.217 62.0458 65.7383C62.0458 66.169 62.1717 66.509 62.4235 66.7583C62.6754 67.0076 62.992 67.1323 63.3736 67.1323C63.8086 67.1323 64.1367 66.9963 64.358 66.7243C64.5869 66.4523 64.7892 66.0632 64.9647 65.557C65.1478 65.0508 65.2776 64.741 65.3539 64.6276C65.9262 63.7588 66.7122 63.3243 67.7119 63.3243C68.185 63.3243 68.62 63.4301 69.0168 63.6416C69.4213 63.8532 69.738 64.1516 69.9669 64.537C70.2035 64.9148 70.3217 65.3454 70.3217 65.829C70.3217 66.2748 70.2111 66.7319 69.9898 67.2003C69.7761 67.6612 69.4594 68.1145 69.0397 68.5603C68.6276 68.9985 68.1087 69.4368 67.483 69.875C67.1319 70.1092 66.5481 70.6003 65.7316 71.3483C64.9151 72.0888 63.9994 72.9803 62.9844 74.023C62.7402 74.2799 62.5151 74.635 62.3091 75.0883C62.103 75.5341 62 75.893 62 76.165C62 76.5881 62.1603 76.9583 62.4808 77.2756C62.8013 77.5854 63.2477 77.7403 63.82 77.7403H72.2448C72.7484 77.7403 73.1224 77.6119 73.3666 77.355C73.6184 77.0981 73.7443 76.7845 73.7443 76.4143C73.7443 75.9988 73.5879 75.6701 73.275 75.4283C72.9621 75.1865 72.508 75.0656 71.9128 75.0656Z" fill="url(#paint1_linear_6750_16249)"/>
<defs>
<linearGradient id="paint0_linear_6750_16249" x1="3.54934" y1="63.5367" x2="146.08" y2="63.5368" gradientUnits="userSpaceOnUse">
<stop stop-color="#92D65E"/>
<stop offset="1" stop-color="#5DB14C"/>
</linearGradient>
<linearGradient id="paint1_linear_6750_16249" x1="40.6787" y1="70.7107" x2="108.092" y2="70.7107" gradientUnits="userSpaceOnUse">
<stop stop-color="#92D65E"/>
<stop offset="1" stop-color="#5DB14C"/>
</linearGradient>
</defs>
</svg>
