<svg width="148" height="148" viewBox="0 0 148 148" fill="none" xmlns="http://www.w3.org/2000/svg">
<circle cx="74" cy="74" r="73" fill="white" stroke="url(#paint0_linear_6750_16231)" stroke-width="2"/>
<path d="M48.1667 45.668C43.1117 45.668 39 49.7813 39 54.8346V84.8346C39 89.888 43.1117 94.0013 48.1667 94.0013H99.8333C104.888 94.0013 109 89.888 109 84.8346V54.8346C109 49.7813 104.888 45.668 99.8333 45.668H48.1667ZM74.0033 59.6263C76.9949 59.6263 79.4199 62.0513 79.4199 65.043C79.4199 65.7346 79.2855 66.3959 79.0488 67.0026C80.5538 68.3726 81.5033 70.3416 81.5033 72.5299C81.5016 76.6716 78.1286 80.0397 73.987 80.0397C69.8586 80.0397 66.5 76.6716 66.5 72.5299C66.5 70.3416 67.4494 68.3726 68.9544 67.0026C68.7161 66.3959 68.5866 65.7346 68.5866 65.043C68.5866 62.0513 71.0116 59.6263 74.0033 59.6263ZM74.0033 63.793C73.3133 63.793 72.7533 64.353 72.7533 65.043C72.7516 65.7196 73.2844 66.2696 73.9544 66.293H74.0456C74.7139 66.2696 75.2533 65.718 75.2533 65.043C75.2533 64.353 74.6933 63.793 74.0033 63.793ZM73.8698 69.2129C72.0915 69.2812 70.6667 70.7416 70.6667 72.5299C70.6667 74.3749 72.1553 75.873 73.987 75.873C75.832 75.873 77.3333 74.3749 77.3333 72.5299C77.3333 70.7416 75.9085 69.2812 74.1302 69.2129H73.8698ZM59.8333 99.0013C59.5021 98.9966 59.1731 99.0578 58.8657 99.1814C58.5583 99.3049 58.2785 99.4883 58.0426 99.7209C57.8067 99.9535 57.6193 100.231 57.4914 100.536C57.3636 100.842 57.2977 101.17 57.2977 101.501C57.2977 101.833 57.3636 102.161 57.4914 102.466C57.6193 102.772 57.8067 103.049 58.0426 103.282C58.2785 103.514 58.5583 103.698 58.8657 103.821C59.1731 103.945 59.5021 104.006 59.8333 104.001H88.1667C88.4979 104.006 88.8269 103.945 89.1343 103.821C89.4417 103.698 89.7215 103.514 89.9574 103.282C90.1933 103.049 90.3807 102.772 90.5086 102.466C90.6364 102.161 90.7023 101.833 90.7023 101.501C90.7023 101.17 90.6364 100.842 90.5086 100.536C90.3807 100.231 90.1933 99.9535 89.9574 99.7209C89.7215 99.4883 89.4417 99.3049 89.1343 99.1814C88.8269 99.0578 88.4979 98.9966 88.1667 99.0013H59.8333Z" fill="url(#paint1_linear_6750_16231)"/>
<defs>
<linearGradient id="paint0_linear_6750_16231" x1="3.54934" y1="63.5367" x2="146.08" y2="63.5368" gradientUnits="userSpaceOnUse">
<stop stop-color="#92D65E"/>
<stop offset="1" stop-color="#5DB14C"/>
</linearGradient>
<linearGradient id="paint1_linear_6750_16231" x1="40.6787" y1="70.7107" x2="108.092" y2="70.7107" gradientUnits="userSpaceOnUse">
<stop stop-color="#92D65E"/>
<stop offset="1" stop-color="#5DB14C"/>
</linearGradient>
</defs>
</svg>
