<svg width="148" height="148" viewBox="0 0 148 148" fill="none" xmlns="http://www.w3.org/2000/svg">
<circle cx="74" cy="74" r="73" fill="white" stroke="url(#paint0_linear_6750_16154)" stroke-width="2"/>
<path d="M106.277 70.675C104.567 70.675 102.69 71.8 98.7004 73.87C95.3954 75.5867 92.3388 77.2183 90.3971 78.4083C90.5654 79.1383 90.6654 79.895 90.6654 80.675C90.6654 86.19 86.1788 90.675 80.6654 90.675H68.1654C66.7854 90.675 65.6654 89.5567 65.6654 88.175C65.6654 86.7933 66.7854 85.675 68.1654 85.675H80.6654C83.4221 85.675 85.6654 83.4317 85.6654 80.675C85.6654 79.18 84.9921 77.8517 83.9488 76.9333C82.7638 76.15 81.3571 75.675 79.8321 75.675H72.5104H71.4988C71.4504 75.675 71.4054 75.6633 71.3571 75.66C66.9638 75.5917 64.8538 75.1383 62.9988 74.73C61.3121 74.3583 59.7188 74.0083 57.0438 74.0083C44.8238 74.0083 37.8471 89.01 37.5571 89.6483C37.1804 90.475 37.2821 91.4383 37.8204 92.1683L49.4871 107.992C49.9621 108.637 50.7104 109 51.4938 109C51.6521 109 51.8088 108.985 51.9671 108.955C52.9104 108.775 53.6738 108.062 53.9188 107.133C54.0504 106.642 55.3238 102.342 59.8321 102.342C63.0854 102.342 66.4504 102.762 69.7054 103.167C73.0204 103.582 76.4504 104.008 79.8321 104.008C84.4371 104.008 87.7521 100.477 97.3321 90.675C109.502 78.2233 110.665 77.135 110.665 74.6667C110.665 72.53 108.79 70.675 106.277 70.675ZM92.3321 54C92.3321 62.285 85.6171 69 77.3321 69C69.0471 69 62.3321 62.285 62.3321 54C62.3321 45.715 69.0471 39 77.3321 39C85.6171 39 92.3321 45.715 92.3321 54ZM82.9288 56.9533C82.9288 54.4667 80.8704 52.445 78.3421 52.445H76.6321C75.8171 52.445 75.1554 51.8167 75.1554 51.045C75.1554 50.2733 75.8171 49.645 76.6321 49.645H78.2638C79.0438 49.645 79.4154 50.1367 79.4338 50.1583C79.8888 50.8883 80.8488 51.11 81.5754 50.6533C82.3038 50.1983 82.5254 49.2383 82.0704 48.51C81.9554 48.325 80.9538 46.8533 78.8871 46.59V45.6667C78.8871 44.8083 78.1904 44.1117 77.3321 44.1117C76.4738 44.1117 75.7771 44.8083 75.7771 45.6667V46.6217C73.6571 47.0167 72.0454 48.8467 72.0454 51.045C72.0454 53.5317 74.1021 55.5533 76.6321 55.5533H78.3421C79.1571 55.5533 79.8188 56.1817 79.8188 56.9533C79.8188 57.725 79.1571 58.3533 78.3421 58.3533H76.1354C75.3188 58.3533 74.7104 57.9417 74.5704 57.7817C74.0888 57.085 73.1354 56.9 72.4271 57.37C71.7121 57.8467 71.5204 58.8117 71.9954 59.5267C72.5938 60.425 74.0638 61.3017 75.7771 61.4183V62.3333C75.7771 63.1917 76.4738 63.8883 77.3321 63.8883C78.1904 63.8883 78.8871 63.1917 78.8871 62.3333V61.4083C81.1571 61.14 82.9288 59.2567 82.9288 56.9533Z" fill="url(#paint1_linear_6750_16154)"/>
<defs>
<linearGradient id="paint0_linear_6750_16154" x1="3.54934" y1="63.5367" x2="146.08" y2="63.5368" gradientUnits="userSpaceOnUse">
<stop stop-color="#92D65E"/>
<stop offset="1" stop-color="#5DB14C"/>
</linearGradient>
<linearGradient id="paint1_linear_6750_16154" x1="39.0907" y1="69.0512" x2="109.714" y2="69.0512" gradientUnits="userSpaceOnUse">
<stop stop-color="#92D65E"/>
<stop offset="1" stop-color="#5DB14C"/>
</linearGradient>
</defs>
</svg>
