<svg width="148" height="148" viewBox="0 0 148 148" fill="none" xmlns="http://www.w3.org/2000/svg">
<circle cx="74" cy="74" r="73" fill="white" stroke="url(#paint0_linear_6750_16381)" stroke-width="2"/>
<path d="M71.0855 40.668C69.3793 40.668 67.6737 41.3194 66.372 42.6211L60.9521 48.041C58.3487 50.6443 58.3487 54.8648 60.9521 57.4681L63.9697 60.4954L78.8199 45.6452L75.7991 42.6211C74.4974 41.3194 72.7918 40.668 71.0855 40.668ZM82.3518 49.1836L67.5048 64.0306L73.9697 70.4954L88.8199 55.6484L82.3518 49.1836ZM88.8199 55.6484L92.3551 59.1836L94.9332 56.6022C95.9099 55.6272 95.9099 54.0421 94.9332 53.0671C93.9565 52.0904 92.3747 52.0904 91.398 53.0671L88.8199 55.6484ZM92.3551 59.1836L77.5048 74.0306L83.7646 80.2871L98.6116 65.4401L92.3551 59.1836ZM102.179 69.0013L87.3323 83.8483L90.3596 86.8691C92.963 89.4725 97.1834 89.4725 99.7867 86.8691L105.207 81.4492C107.81 78.8459 107.81 74.6222 105.207 72.0189L102.179 69.0013ZM67.7131 69.0046C64.8229 69.0046 61.9322 70.1045 59.7314 72.3053C59.263 72.7753 58.999 73.4128 58.999 74.0762C58.999 74.7395 59.263 75.3737 59.7314 75.8438L64.1747 80.2904L63.0647 81.4004C62.8248 81.6308 62.6332 81.9067 62.5013 82.212C62.3693 82.5173 62.2996 82.8459 62.2962 83.1785C62.2928 83.5111 62.3559 83.841 62.4816 84.149C62.6073 84.4569 62.7932 84.7367 63.0284 84.9719C63.2636 85.2071 63.5434 85.393 63.8513 85.5187C64.1592 85.6444 64.4892 85.7074 64.8218 85.704C65.1544 85.7007 65.4829 85.6309 65.7883 85.499C66.0936 85.367 66.3695 85.1755 66.5999 84.9355L67.7099 83.8255L72.1565 88.2689C72.6265 88.7372 73.2608 89.0013 73.9241 89.0013C74.5874 89.0013 75.2233 88.7389 75.6917 88.2689C80.0917 83.8689 80.0917 76.707 75.6917 72.3053C73.4917 70.1045 70.6034 69.0046 67.7131 69.0046ZM44.7932 82.2988C44.1308 82.3092 43.4995 82.5821 43.038 83.0575C42.5766 83.533 42.3228 84.1721 42.3323 84.8346C42.3323 96.3108 51.6895 105.668 63.1656 105.668C63.4969 105.673 63.8258 105.611 64.1332 105.488C64.4406 105.364 64.7205 105.181 64.9564 104.948C65.1923 104.716 65.3796 104.439 65.5075 104.133C65.6354 103.827 65.7012 103.499 65.7012 103.168C65.7012 102.837 65.6354 102.509 65.5075 102.203C65.3796 101.897 65.1923 101.62 64.9564 101.388C64.7205 101.155 64.4406 100.972 64.1332 100.848C63.8258 100.724 63.4969 100.663 63.1656 100.668C54.3918 100.668 47.3323 93.6085 47.3323 84.8346C47.3371 84.5 47.2747 84.1679 47.1487 83.8578C47.0228 83.5478 46.8359 83.2662 46.5991 83.0297C46.3623 82.7932 46.0805 82.6067 45.7703 82.4811C45.4601 82.3556 45.1278 82.2936 44.7932 82.2988ZM54.7932 82.2988C54.1308 82.3092 53.4995 82.5821 53.038 83.0575C52.5766 83.533 52.3228 84.1721 52.3323 84.8346C52.3323 90.7879 57.2124 95.668 63.1656 95.668C63.4969 95.6727 63.8258 95.6114 64.1332 95.4879C64.4406 95.3644 64.7205 95.181 64.9564 94.9484C65.1923 94.7158 65.3796 94.4386 65.5075 94.1329C65.6354 93.8273 65.7012 93.4993 65.7012 93.168C65.7012 92.8367 65.6354 92.5086 65.5075 92.203C65.3796 91.8974 65.1923 91.6202 64.9564 91.3876C64.7205 91.155 64.4406 90.9716 64.1332 90.848C63.8258 90.7245 63.4969 90.6633 63.1656 90.668C59.9155 90.668 57.3323 88.0847 57.3323 84.8346C57.3371 84.5 57.2747 84.1679 57.1487 83.8578C57.0228 83.5478 56.8359 83.2662 56.5991 83.0297C56.3623 82.7932 56.0805 82.6067 55.7703 82.4811C55.4601 82.3556 55.1278 82.2936 54.7932 82.2988Z" fill="url(#paint1_linear_6750_16381)"/>
<defs>
<linearGradient id="paint0_linear_6750_16381" x1="3.54934" y1="63.5367" x2="146.08" y2="63.5368" gradientUnits="userSpaceOnUse">
<stop stop-color="#92D65E"/>
<stop offset="1" stop-color="#5DB14C"/>
</linearGradient>
<linearGradient id="paint1_linear_6750_16381" x1="43.8867" y1="68.5727" x2="106.318" y2="68.5727" gradientUnits="userSpaceOnUse">
<stop stop-color="#92D65E"/>
<stop offset="1" stop-color="#5DB14C"/>
</linearGradient>
</defs>
</svg>
