<svg width="148" height="148" viewBox="0 0 148 148" fill="none" xmlns="http://www.w3.org/2000/svg">
<circle cx="74" cy="74" r="73" fill="white" stroke="url(#paint0_linear_6750_16240)" stroke-width="2"/>
<path fill-rule="evenodd" clip-rule="evenodd" d="M48.1667 45.668C43.1117 45.668 39 49.7813 39 54.8346V84.8346C39 89.888 43.1117 94.0013 48.1667 94.0013H99.8333C104.888 94.0013 109 89.888 109 84.8346V54.8346C109 49.7813 104.888 45.668 99.8333 45.668H48.1667ZM59.8333 99.0013C59.5021 98.9966 59.1731 99.0578 58.8657 99.1814C58.5583 99.3049 58.2785 99.4883 58.0426 99.7209C57.8067 99.9535 57.6193 100.231 57.4914 100.536C57.3636 100.842 57.2977 101.17 57.2977 101.501C57.2977 101.833 57.3636 102.161 57.4914 102.466C57.6193 102.772 57.8067 103.049 58.0426 103.282C58.2785 103.514 58.5583 103.698 58.8657 103.821C59.1731 103.945 59.5021 104.006 59.8333 104.001H88.1667C88.4979 104.006 88.8269 103.945 89.1343 103.821C89.4417 103.698 89.7215 103.514 89.9574 103.282C90.1933 103.049 90.3807 102.772 90.5086 102.466C90.6364 102.161 90.7023 101.833 90.7023 101.501C90.7023 101.17 90.6364 100.842 90.5086 100.536C90.3807 100.231 90.1933 99.9535 89.9574 99.7209C89.7215 99.4883 89.4417 99.3049 89.1343 99.1814C88.8269 99.0578 88.4979 98.9966 88.1667 99.0013H59.8333ZM83.6091 69.0671C84.1848 68.4238 84.4726 67.4415 84.4726 66.1203C84.4726 65.4562 84.4041 64.8786 84.267 64.3875C84.1299 63.8964 83.9209 63.4813 83.6399 63.1424C83.3589 62.7965 83.0162 62.5405 82.6118 62.3745C82.2075 62.2085 81.738 62.1255 81.2034 62.1255C80.4632 62.1255 79.8532 62.2811 79.3734 62.5924C78.9005 62.9037 78.5578 63.3603 78.3454 63.9621C78.1329 64.5639 78.0267 65.3144 78.0267 66.2137C78.0267 67.0507 78.1637 67.7597 78.4379 68.3408C78.712 68.9219 79.0924 69.3507 79.579 69.6274C80.0725 69.8972 80.6277 70.0321 81.2445 70.0321C82.2452 70.0321 83.0333 69.7104 83.6091 69.0671ZM82.2623 64.0451C82.4542 64.4532 82.5502 65.1104 82.5502 66.0165C82.5502 66.9573 82.4576 67.6456 82.2726 68.0814C82.0944 68.5172 81.7517 68.7351 81.2445 68.7351C80.9087 68.7351 80.6448 68.6382 80.4529 68.4446C80.261 68.244 80.1273 67.95 80.052 67.5626C79.9834 67.1752 79.9492 66.6737 79.9492 66.058C79.9492 65.4631 79.9834 64.9755 80.052 64.595C80.1273 64.2076 80.261 63.9171 80.4529 63.7234C80.6517 63.5228 80.9155 63.4225 81.2445 63.4225C81.7311 63.4225 82.0704 63.63 82.2623 64.0451ZM94.1364 76.5691C94.7121 75.9257 95 74.9435 95 73.6222C95 72.9582 94.9315 72.3806 94.7944 71.8894C94.6573 71.3914 94.4448 70.9763 94.157 70.6443C93.876 70.3123 93.5333 70.0632 93.1289 69.8972C92.7314 69.7312 92.2654 69.6482 91.7308 69.6482C90.6204 69.6482 89.8083 69.9906 89.2942 70.6754C88.7871 71.3533 88.5335 72.3667 88.5335 73.7156C88.5335 74.5596 88.6706 75.2686 88.9447 75.8427C89.2257 76.4169 89.6095 76.8423 90.0961 77.119C90.5896 77.3957 91.1482 77.534 91.7719 77.534C92.7725 77.534 93.5607 77.2124 94.1364 76.5691ZM92.7897 71.5678C92.9816 71.9759 93.0775 72.6261 93.0775 73.5185C93.0775 74.4523 92.985 75.1406 92.7999 75.5833C92.6149 76.0191 92.2722 76.237 91.7719 76.237C91.2784 76.237 90.9323 76.0226 90.7335 75.5937C90.5416 75.1648 90.4457 74.4869 90.4457 73.56C90.4457 72.9582 90.4834 72.4705 90.5588 72.097C90.641 71.7165 90.7781 71.4294 90.97 71.2357C91.1619 71.042 91.4292 70.9452 91.7719 70.9452C92.2585 70.9452 92.5978 71.1527 92.7897 71.5678ZM82.766 77.4303L91.3298 63.4951C91.5834 63.087 91.7102 62.8103 91.7102 62.665C91.7102 62.4644 91.6451 62.3053 91.5149 62.1877C91.3915 62.0632 91.227 62.001 91.0214 62.001C90.8089 62.001 90.6444 62.0667 90.5279 62.1981C90.4183 62.3226 90.288 62.5129 90.1373 62.7688L81.5221 76.8181C81.385 77.0256 81.3165 77.202 81.3165 77.3473C81.3165 77.541 81.3953 77.6966 81.5529 77.8142C81.7106 77.9387 81.8682 78.001 82.0258 78.001C82.3 78.001 82.5467 77.8107 82.766 77.4303ZM61.8955 70.6132C61.4432 71.1527 60.936 71.5609 60.374 71.8376C59.8188 72.1073 59.202 72.2422 58.5235 72.2422C57.8792 72.2422 57.2761 72.1177 56.7141 71.8687C56.1589 71.6127 55.6757 71.2599 55.2645 70.8103C54.8601 70.3538 54.5483 69.8246 54.329 69.2228C54.1097 68.614 54 67.9776 54 67.3136C54 66.6011 54.1234 65.9266 54.3701 65.2902C54.6168 64.6469 54.9698 64.09 55.429 63.6197C55.8882 63.1493 56.4331 62.7826 57.0636 62.5198C57.701 62.2569 58.4035 62.1255 59.1712 62.1255C60.0553 62.1255 60.8435 62.288 61.5357 62.6132C62.2279 62.9383 62.8105 63.4121 63.2834 64.0347C63.7563 64.6504 64.1196 65.4286 64.3732 66.3693C64.6267 67.3101 64.7535 68.3754 64.7535 69.5652C64.7535 70.8933 64.6199 72.0658 64.3526 73.0827C64.0853 74.0926 63.6946 74.9435 63.1806 75.6352C62.6734 76.32 62.0634 76.8319 61.3507 77.1709C60.6379 77.5029 59.8291 77.6689 58.9244 77.6689C58.0334 77.6689 57.259 77.4995 56.601 77.1605C55.943 76.8146 55.4427 76.3892 55.1 75.8842C54.7573 75.3724 54.586 74.8812 54.586 74.4108C54.586 74.1203 54.6922 73.8609 54.9047 73.6326C55.1172 73.4043 55.3879 73.2902 55.7169 73.2902C56.0184 73.2902 56.2892 73.3767 56.529 73.5496C56.7689 73.7156 56.9505 73.9681 57.0739 74.3071C57.2247 74.7221 57.4749 75.0576 57.8244 75.3136C58.1739 75.5626 58.568 75.6871 59.0067 75.6871C59.3973 75.6871 59.7674 75.5868 60.117 75.3862C60.4665 75.1856 60.7647 74.902 61.0114 74.5353C61.5049 73.7952 61.7996 72.4878 61.8955 70.6132ZM61.6591 67.4381C61.6591 66.9677 61.594 66.5353 61.4637 66.1411C61.3404 65.7398 61.1622 65.394 60.9291 65.1034C60.703 64.8129 60.4288 64.5846 60.1067 64.4186C59.7914 64.2526 59.4453 64.1696 59.0684 64.1696C58.4172 64.1696 57.8655 64.4532 57.4132 65.0204C56.9608 65.5807 56.7346 66.3244 56.7346 67.2513C56.7346 68.1713 56.9608 68.9046 57.4132 69.451C57.8655 69.9975 58.4378 70.2708 59.13 70.2708C59.555 70.2708 59.9593 70.1601 60.3432 69.9387C60.7338 69.7104 61.0491 69.3819 61.289 68.953C61.5357 68.5241 61.6591 68.0191 61.6591 67.4381ZM68.7017 62.3641H75.5486C76.2066 62.3641 76.6829 62.4679 76.9776 62.6754C77.2723 62.8829 77.4197 63.2254 77.4197 63.7027C77.4197 63.9932 77.2449 64.3771 76.8954 64.8544C76.5527 65.3317 76.1586 65.8609 75.7131 66.442C75.2745 67.0161 74.8187 67.7321 74.3458 68.5898C73.8797 69.4476 73.4514 70.4956 73.0607 71.7338C72.8962 72.2803 72.7797 72.7334 72.7112 73.0931C72.6426 73.4528 72.5672 73.9197 72.485 74.4938C72.4027 75.068 72.3308 75.5072 72.2691 75.8116C72.1252 76.5172 71.9196 77.0083 71.6523 77.285C71.3918 77.5548 71.0423 77.6897 70.6036 77.6897C70.1856 77.6897 69.8497 77.5444 69.5961 77.2539C69.3425 76.9564 69.2158 76.5206 69.2158 75.9465C69.2158 75.5038 69.3083 74.902 69.4933 74.1411C69.6784 73.3801 69.9799 72.4705 70.398 71.4121C70.8161 70.3468 71.337 69.2574 71.9607 68.1436C72.5912 67.023 73.3383 65.9093 74.2019 64.8025H68.7017C68.126 64.8025 67.6942 64.6988 67.4064 64.4912C67.1254 64.2768 66.9849 63.9448 66.9849 63.4951C66.9849 63.0178 67.1356 62.71 67.4372 62.5717C67.7388 62.4333 68.1603 62.3641 68.7017 62.3641Z" fill="url(#paint1_linear_6750_16240)"/>
<defs>
<linearGradient id="paint0_linear_6750_16240" x1="3.54934" y1="63.5367" x2="146.08" y2="63.5368" gradientUnits="userSpaceOnUse">
<stop stop-color="#92D65E"/>
<stop offset="1" stop-color="#5DB14C"/>
</linearGradient>
<linearGradient id="paint1_linear_6750_16240" x1="40.6787" y1="70.7107" x2="108.092" y2="70.7107" gradientUnits="userSpaceOnUse">
<stop stop-color="#92D65E"/>
<stop offset="1" stop-color="#5DB14C"/>
</linearGradient>
</defs>
</svg>
