<svg width="148" height="148" viewBox="0 0 148 148" fill="none" xmlns="http://www.w3.org/2000/svg">
<circle cx="74" cy="74" r="73" fill="white" stroke="url(#paint0_linear_6750_16176)" stroke-width="2"/>
<path d="M99.0001 74.0001C99.0001 72.6201 100.118 71.5001 101.5 71.5001H107.207C106.903 67.4468 105.875 63.6018 104.247 60.0801L98.1185 63.6418C97.7235 63.8718 97.2901 63.9801 96.8651 63.9801C96.0035 63.9801 95.1651 63.5334 94.7018 62.7368C94.0068 61.5418 94.4135 60.0118 95.6068 59.3184L101.83 55.7018C99.5501 52.2468 96.6418 49.2534 93.2751 46.8551L89.9418 52.3484C89.4718 53.1234 88.6468 53.5518 87.8018 53.5518C87.3601 53.5518 86.9118 53.4351 86.5068 53.1884C85.3268 52.4718 84.9501 50.9334 85.6668 49.7534L88.9951 44.2701C85.1851 42.3418 80.9668 41.1134 76.5001 40.7734V46.5001C76.5001 47.8801 75.3818 49.0001 74.0001 49.0001C72.6185 49.0001 71.5001 47.8801 71.5001 46.5001V40.7734C67.0335 41.1134 62.8151 42.3418 59.0051 44.2718L62.3335 49.7534C63.0501 50.9334 62.6735 52.4718 61.4935 53.1884C61.0885 53.4334 60.6401 53.5518 60.1985 53.5518C59.3535 53.5518 58.5301 53.1234 58.0585 52.3484L54.7251 46.8551C51.3585 49.2534 48.4485 52.2468 46.1701 55.7018L52.3935 59.3184C53.5868 60.0118 53.9918 61.5418 53.2985 62.7368C52.8351 63.5351 51.9968 63.9801 51.1351 63.9801C50.7085 63.9801 50.2768 63.8718 49.8818 63.6418L43.7535 60.0801C42.1251 63.6034 41.0968 67.4484 40.7935 71.5001H46.5001C47.8818 71.5001 49.0001 72.6201 49.0001 74.0001C49.0001 75.3801 47.8818 76.5001 46.5001 76.5001H40.7935C42.0801 93.7134 56.4635 107.333 74.0001 107.333C91.5368 107.333 105.92 93.7134 107.207 76.5001H101.5C100.118 76.5001 99.0001 75.3801 99.0001 74.0001ZM74.0001 79.0001C71.2385 79.0001 69.0001 76.7618 69.0001 74.0001C69.0001 73.5551 69.0768 73.1318 69.1868 72.7218L61.4001 64.9351C60.4235 63.9584 60.4235 62.3768 61.4001 61.4001C62.3768 60.4234 63.9585 60.4234 64.9351 61.4001L72.7218 69.1868C73.1318 69.0768 73.5551 69.0001 74.0001 69.0001C76.7618 69.0001 79.0001 71.2384 79.0001 74.0001C79.0001 76.7618 76.7618 79.0001 74.0001 79.0001Z" fill="url(#paint1_linear_6750_16176)"/>
<defs>
<linearGradient id="paint0_linear_6750_16176" x1="3.54934" y1="63.5367" x2="146.08" y2="63.5368" gradientUnits="userSpaceOnUse">
<stop stop-color="#92D65E"/>
<stop offset="1" stop-color="#5DB14C"/>
</linearGradient>
<linearGradient id="paint1_linear_6750_16176" x1="42.3862" y1="69.3478" x2="106.345" y2="69.3478" gradientUnits="userSpaceOnUse">
<stop stop-color="#92D65E"/>
<stop offset="1" stop-color="#5DB14C"/>
</linearGradient>
</defs>
</svg>
