<svg width="148" height="148" viewBox="0 0 148 148" fill="none" xmlns="http://www.w3.org/2000/svg">
<circle cx="74" cy="74" r="73" fill="white" stroke="url(#paint0_linear_6750_16363)" stroke-width="2"/>
<path d="M106.383 92.822L80.5798 46.212C79.2348 43.7837 76.7748 42.332 73.9981 42.332C71.2215 42.332 68.7615 43.7837 67.4165 46.212L41.6131 92.822C40.3081 95.1804 40.3448 97.972 41.7148 100.294C43.0815 102.614 45.5048 103.999 48.1965 103.999H99.8014C102.491 103.999 104.915 102.614 106.283 100.294C107.65 97.9737 107.688 95.1804 106.383 92.822ZM71.4981 63.1654C71.4981 61.7837 72.6181 60.6654 73.9981 60.6654C75.3781 60.6654 76.4981 61.7837 76.4981 63.1654V79.832C76.4981 81.2137 75.3781 82.332 73.9981 82.332C72.6181 82.332 71.4981 81.2137 71.4981 79.832V63.1654ZM73.9981 93.9987C72.1565 93.9987 70.6648 92.507 70.6648 90.6654C70.6648 88.8237 72.1565 87.332 73.9981 87.332C75.8398 87.332 77.3315 88.8237 77.3315 90.6654C77.3315 92.507 75.8398 93.9987 73.9981 93.9987Z" fill="url(#paint1_linear_6750_16363)"/>
<defs>
<linearGradient id="paint0_linear_6750_16363" x1="3.54934" y1="63.5367" x2="146.08" y2="63.5368" gradientUnits="userSpaceOnUse">
<stop stop-color="#92D65E"/>
<stop offset="1" stop-color="#5DB14C"/>
</linearGradient>
<linearGradient id="paint1_linear_6750_16363" x1="42.2592" y1="68.8057" x2="106.471" y2="68.8057" gradientUnits="userSpaceOnUse">
<stop stop-color="#92D65E"/>
<stop offset="1" stop-color="#5DB14C"/>
</linearGradient>
</defs>
</svg>
