<svg width="148" height="148" viewBox="0 0 148 148" fill="none" xmlns="http://www.w3.org/2000/svg">
<circle cx="74" cy="74" r="73" fill="white" stroke="url(#paint0_linear_6750_16372)" stroke-width="2"/>
<path d="M99 69.0007H98.0333C96.7833 56.8507 86.4833 47.334 74 47.334C61.5167 47.334 51.2167 56.8507 49.9667 69.0007H49C40.7333 69.0007 34 75.734 34 84.0007C34 92.2673 40.7333 99.0007 49 99.0007H99C107.267 99.0007 114 92.2673 114 84.0007C114 75.734 107.267 69.0007 99 69.0007ZM67.3333 66.4173C67.3333 72.7173 65.9 78.9673 63.2 84.6507C63.7 85.434 64 86.3507 64 87.334C64 90.1007 61.7667 92.334 59 92.334C56.2333 92.334 54 90.1007 54 87.334C54 84.6507 56.1167 82.484 58.7667 82.3507C61.1 77.384 62.3333 71.9173 62.3333 66.4173V63.1673C62.3333 61.784 63.45 60.6673 64.8333 60.6673C66.2167 60.6673 67.3333 61.784 67.3333 63.1673V66.4173ZM74 92.334C71.2333 92.334 69 90.1007 69 87.334C69 85.484 70.0167 83.9007 71.5 83.034V63.1673C71.5 61.784 72.6167 60.6673 74 60.6673C75.3833 60.6673 76.5 61.784 76.5 63.1673V83.034C77.9833 83.9007 79 85.484 79 87.334C79 90.1007 76.7667 92.334 74 92.334ZM89 92.334C86.2333 92.334 84 90.1007 84 87.334C84 86.3507 84.3 85.434 84.8 84.6507C82.1 78.9673 80.6667 72.7173 80.6667 66.4173V63.1673C80.6667 61.784 81.7833 60.6673 83.1667 60.6673C84.55 60.6673 85.6667 61.784 85.6667 63.1673V66.4173C85.6667 71.9173 86.9 77.384 89.2333 82.3507C91.8833 82.484 94 84.6507 94 87.334C94 90.1007 91.7667 92.334 89 92.334Z" fill="url(#paint1_linear_6750_16372)"/>
<defs>
<linearGradient id="paint0_linear_6750_16372" x1="3.54934" y1="63.5367" x2="146.08" y2="63.5368" gradientUnits="userSpaceOnUse">
<stop stop-color="#92D65E"/>
<stop offset="1" stop-color="#5DB14C"/>
</linearGradient>
<linearGradient id="paint1_linear_6750_16372" x1="35.9186" y1="69.5146" x2="112.962" y2="69.5146" gradientUnits="userSpaceOnUse">
<stop stop-color="#92D65E"/>
<stop offset="1" stop-color="#5DB14C"/>
</linearGradient>
</defs>
</svg>
