<svg width="52" height="52" viewBox="0 0 52 52" fill="none" xmlns="http://www.w3.org/2000/svg">
<path d="M16.7904 5.41602C14.3041 5.41602 12.1182 6.71493 10.8659 8.66602H36.2904C40.771 8.66602 44.4154 12.3103 44.4154 16.791V34.6322C46.3664 33.3787 47.6654 31.1939 47.6654 28.7077V16.791C47.6654 10.5185 42.5629 5.41602 36.2904 5.41602H16.7904ZM11.3737 10.8327C7.49103 10.8327 4.33203 13.9917 4.33203 17.8743V33.0008C4.33203 36.8835 7.49103 40.0425 11.3737 40.0425H11.9154V44.9556C11.9154 45.9793 12.4822 46.905 13.3944 47.3698C13.7855 47.5691 14.2055 47.666 14.6258 47.666C15.1859 47.666 15.7425 47.49 16.217 47.1455L25.986 40.0425H35.207C39.0897 40.0425 42.2487 36.8835 42.2487 33.0008V17.8743C42.2487 13.9917 39.0897 10.8327 35.207 10.8327H11.3737ZM16.7904 23.7925C17.6874 23.7925 18.4154 24.5205 18.4154 25.4175C18.4154 26.3145 17.6874 27.0425 16.7904 27.0425C15.8934 27.0425 15.1654 26.3145 15.1654 25.4175C15.1654 24.5205 15.8934 23.7925 16.7904 23.7925ZM23.2904 23.7925C24.1874 23.7925 24.9154 24.5205 24.9154 25.4175C24.9154 26.3145 24.1874 27.0425 23.2904 27.0425C22.3934 27.0425 21.6654 26.3145 21.6654 25.4175C21.6654 24.5205 22.3934 23.7925 23.2904 23.7925ZM29.7904 23.7925C30.6874 23.7925 31.4154 24.5205 31.4154 25.4175C31.4154 26.3145 30.6874 27.0425 29.7904 27.0425C28.8934 27.0425 28.1654 26.3145 28.1654 25.4175C28.1654 24.5205 28.8934 23.7925 29.7904 23.7925Z" fill="#53A42A"/>
</svg>
