<svg width="20" height="20" viewBox="0 0 20 20" fill="none" xmlns="http://www.w3.org/2000/svg">
<path d="M3.54276 3.33398C2.28452 3.33398 1.25109 4.36741 1.25109 5.62565V9.79232C1.25109 11.0506 2.28452 12.084 3.54276 12.084H6.27225C6.35323 12.8061 6.83815 13.4002 7.50109 13.6359V16.0423C7.50109 16.6249 7.04202 17.084 6.45942 17.084H1.87609C1.79327 17.0828 1.71104 17.0981 1.63419 17.129C1.55733 17.1599 1.48738 17.2057 1.4284 17.2639C1.36942 17.322 1.32258 17.3913 1.29062 17.4677C1.25865 17.5442 1.24219 17.6262 1.24219 17.709C1.24219 17.7918 1.25865 17.8738 1.29062 17.9502C1.32258 18.0266 1.36942 18.0959 1.4284 18.1541C1.48738 18.2122 1.55733 18.2581 1.63419 18.289C1.71104 18.3199 1.79327 18.3352 1.87609 18.334H6.45942C7.71766 18.334 8.75109 17.3006 8.75109 16.0423V13.6359C9.41403 13.4002 9.89895 12.8061 9.97993 12.084H12.2928C13.551 12.084 14.5844 11.0506 14.5844 9.79232V9.43262L17.7794 11.5623C17.8735 11.6251 17.9829 11.6611 18.0959 11.6665C18.2089 11.672 18.3212 11.6467 18.421 11.5933C18.5207 11.5399 18.6041 11.4605 18.6622 11.3634C18.7203 11.2664 18.7511 11.1554 18.7511 11.0423V4.37565C18.7511 4.29198 18.7343 4.20915 18.7018 4.13208C18.6692 4.05501 18.6215 3.98526 18.5614 3.92698C18.5014 3.86869 18.4303 3.82305 18.3523 3.79276C18.2743 3.76247 18.191 3.74815 18.1074 3.75065C17.9904 3.75425 17.8767 3.79062 17.7794 3.85563L14.5844 5.98535V5.62565C14.5844 4.36741 13.551 3.33398 12.2928 3.33398H3.54276ZM8.95942 5.83398H11.4594C11.8053 5.83398 12.0844 6.11315 12.0844 6.45898C12.0844 6.80482 11.8053 7.08398 11.4594 7.08398H8.95942C8.61359 7.08398 8.33442 6.80482 8.33442 6.45898C8.33442 6.11315 8.61359 5.83398 8.95942 5.83398Z" fill="#53A42A"/>
</svg>
