<svg width="738" height="520" viewBox="0 0 738 520" fill="none" xmlns="http://www.w3.org/2000/svg">
<path d="M28.6967 338.131C15.4691 364.449 106.8 480.632 183.697 480.632C244.697 480.632 403.489 393.412 436.808 385.283C470.128 377.154 507.475 369.175 524.681 457.011C527.687 513.525 553.599 513.076 566.18 505.787C571.915 502.878 586.69 490.987 599.908 466.705C616.106 436.95 642.595 407.935 723.267 424.16C726.516 424.813 729.871 425.36 733.184 425.296C770.927 424.556 771.305 387.535 766.483 368.343C753.951 333.267 742.286 241.952 817.475 225.767C898.375 208.353 938.694 225.767 938.694 225.767" stroke="#B5CEE4" stroke-width="4" stroke-dasharray="24 24"/>
<path d="M19.3473 315.041C19.0377 313.217 19.2029 311.341 19.8262 309.604C20.4495 307.867 21.5087 306.331 22.8961 305.152C24.9005 303.18 27.5765 302.096 30.3494 302.132C33.1224 302.167 35.7711 303.32 37.727 305.342C39.1304 306.654 40.1656 308.33 40.7246 310.194C41.2836 312.058 41.3459 314.042 40.905 315.94C38.9188 324.657 34.2047 332.285 30.1262 340.131C26.1007 332.067 21.2277 324.085 19.3473 315.041ZM27.9545 307.086C22.6578 308.748 21.8368 318.364 27.9545 319.726C32.5097 321.661 38.548 317.002 36.7471 312.044C35.9526 307.549 31.8741 306.214 27.9545 307.086Z" fill="url(#paint0_linear_29_3121)"/>
<defs>
<linearGradient id="paint0_linear_29_3121" x1="19.7229" y1="318.444" x2="40.9099" y2="318.444" gradientUnits="userSpaceOnUse">
<stop stop-color="#92D65E"/>
<stop offset="1" stop-color="#5DB14C"/>
</linearGradient>
</defs>
</svg>
