<svg width="20" height="20" viewBox="0 0 20 20" fill="none" xmlns="http://www.w3.org/2000/svg">
<path d="M6.66819 2.08398C6.22616 2.08398 5.80224 2.25958 5.48968 2.57214C5.17712 2.8847 5.00153 3.30862 5.00153 3.75065C5.00153 4.19268 5.17712 4.6166 5.48968 4.92916C5.80224 5.24172 6.22616 5.41732 6.66819 5.41732C7.11022 5.41732 7.53414 5.24172 7.8467 4.92916C8.15926 4.6166 8.33486 4.19268 8.33486 3.75065C8.33486 3.30862 8.15926 2.8847 7.8467 2.57214C7.53414 2.25958 7.11022 2.08398 6.66819 2.08398ZM2.2525 4.58561C2.05157 4.5992 1.86057 4.70752 1.7512 4.89242C1.58037 5.19242 1.68079 5.57598 1.97662 5.75098L4.41396 7.17188C4.58063 6.77604 4.8346 6.42972 5.15126 6.15055L2.60976 4.66699C2.49726 4.60293 2.37306 4.57746 2.2525 4.58561ZM15.2066 5.40918C15.084 5.41045 14.9644 5.44778 14.8628 5.51652C14.7612 5.58526 14.6821 5.68236 14.6353 5.79574L14.108 7.02539C14.0388 6.87908 13.9157 6.76529 13.7643 6.70792C13.613 6.65055 13.4454 6.65408 13.2966 6.71777L10.6111 7.8693L7.51292 6.70719C7.43498 6.67655 7.35168 6.66189 7.26796 6.66406C7.23489 6.66525 7.20196 6.66906 7.16949 6.67546C6.92814 6.66298 6.68171 6.69749 6.44358 6.79671C5.59358 7.15088 5.19342 8.12526 5.54759 8.97526L7.63092 13.9753C7.68092 14.1003 7.74697 14.2129 7.8303 14.3171L9.87213 10.6883L9.23736 9.16732H10.6257C10.626 9.16732 10.6263 9.16732 10.6265 9.16732C10.7113 9.16739 10.7952 9.15023 10.8731 9.11686L13.7385 7.88884L13.3853 8.7124C13.3529 8.78786 13.3357 8.86896 13.3346 8.95107C13.3336 9.03318 13.3487 9.1147 13.3791 9.19096C13.4096 9.26722 13.4548 9.33674 13.5121 9.39555C13.5694 9.45435 13.6378 9.50129 13.7132 9.53367C13.7887 9.56606 13.8698 9.58326 13.9519 9.5843C14.034 9.58534 14.1155 9.57019 14.1918 9.53972C14.268 9.50925 14.3375 9.46406 14.3963 9.40673C14.4551 9.34939 14.502 9.28104 14.5344 9.20557L15.7844 6.2889C15.8271 6.19319 15.8451 6.08827 15.8366 5.9838C15.8282 5.87933 15.7936 5.77866 15.736 5.69106C15.6785 5.60345 15.5999 5.53172 15.5073 5.48247C15.4148 5.43321 15.3114 5.40801 15.2066 5.40918ZM7.8303 14.3171L6.33046 16.9839C6.1638 17.2881 6.26809 17.6675 6.56809 17.8384C6.66809 17.8925 6.77236 17.9173 6.87652 17.9173C7.09319 17.9173 7.30592 17.8008 7.42259 17.6008L8.8972 14.9795C8.4722 14.9087 8.08447 14.6754 7.8303 14.3171ZM8.8972 14.9795C8.9847 14.992 9.07652 15.0007 9.16819 15.0007C9.38069 15.0007 9.60113 14.9588 9.80947 14.8713C9.84155 14.8579 9.86897 14.8378 9.8998 14.8224L13.3601 13.111L16.7097 16.7088L16.6714 16.6331L16.7536 16.7739C16.7935 16.8476 16.8478 16.9125 16.9133 16.9647C16.9788 17.017 17.0541 17.0556 17.1347 17.0782C17.2154 17.1008 17.2998 17.1069 17.3828 17.0962C17.4659 17.0856 17.546 17.0583 17.6184 17.0161C17.6907 16.9739 17.7538 16.9175 17.804 16.8504C17.8541 16.7833 17.8903 16.7068 17.9103 16.6255C17.9303 16.5441 17.9337 16.4596 17.9204 16.3769C17.9071 16.2942 17.8773 16.215 17.8327 16.144L14.9161 11.144C14.8594 11.0436 14.776 10.9608 14.6752 10.9047C14.5744 10.8487 14.46 10.8217 14.3448 10.8267C14.296 10.8291 14.2476 10.8373 14.2007 10.8511L11.0513 11.1506L8.8972 14.9795Z" fill="#FD4343"/>
</svg>
