<svg width="20" height="20" viewBox="0 0 20 20" fill="none" xmlns="http://www.w3.org/2000/svg">
<g clip-path="url(#clip0_6345_1253)">
<path fill-rule="evenodd" clip-rule="evenodd" d="M8.38488 1.88151C8.47738 1.51068 8.81048 1.25 9.19298 1.25H11.225C11.6075 1.25 11.9411 1.51068 12.034 1.88151L12.1886 2.5H13.1944C14.4418 2.5 15.5342 3.35945 15.8271 4.57194L16.1323 5.83333H16.8761C16.9589 5.83216 17.0411 5.84746 17.118 5.87835C17.1948 5.90923 17.2648 5.95508 17.3238 6.01323C17.3828 6.07139 17.4296 6.14068 17.4616 6.21709C17.4935 6.2935 17.51 6.3755 17.51 6.45833C17.51 6.54116 17.4935 6.62316 17.4616 6.69957C17.4296 6.77599 17.3828 6.84528 17.3238 6.90343C17.2648 6.96159 17.1948 7.00744 17.118 7.03832C17.0411 7.0692 16.9589 7.0845 16.8761 7.08333H16.4342L16.6035 7.78239C17.1396 8.11276 17.5011 8.70046 17.5011 9.375V10.4183C17.1065 10.2529 16.6865 10.1387 16.2511 10.0708V9.375C16.2511 9.03042 15.9707 8.75 15.6261 8.75H4.37609C4.03151 8.75 3.75109 9.03042 3.75109 9.375V14.1667H10.1525C10.057 14.5687 10.0011 14.9858 10.0011 15.4167H5.00109V16.25C5.00109 16.7104 4.62817 17.0833 4.16776 17.0833H3.33442C2.87401 17.0833 2.50109 16.7104 2.50109 16.25V14.7917V9.375C2.50109 8.70046 2.86259 8.11276 3.39871 7.78239L3.56798 7.08333H3.12609C3.04327 7.0845 2.96104 7.0692 2.88419 7.03832C2.80733 7.00744 2.73738 6.96159 2.6784 6.90343C2.61942 6.84528 2.57258 6.77599 2.54062 6.69957C2.50865 6.62316 2.49219 6.54116 2.49219 6.45833C2.49219 6.3755 2.50865 6.2935 2.54062 6.21709C2.57258 6.14068 2.61942 6.07139 2.6784 6.01323C2.73738 5.95508 2.80733 5.90923 2.88419 5.87835C2.96104 5.84746 3.04327 5.83216 3.12609 5.83333H3.8699L4.17508 4.57194C4.46794 3.35945 5.56035 2.5 6.80773 2.5H8.23026L8.38488 1.88151ZM13.1944 3.75H6.80773C6.13094 3.75 5.5489 4.20822 5.39009 4.86572L4.75369 7.5H15.2485L14.6121 4.86572C14.4533 4.20822 13.8712 3.75 13.1944 3.75ZM5.24517 10.2441C5.40145 10.0878 5.61341 10 5.83442 10C6.05544 10 6.2674 10.0878 6.42368 10.2441C6.57996 10.4004 6.66776 10.6123 6.66776 10.8333C6.66776 11.0543 6.57996 11.2663 6.42368 11.4226C6.2674 11.5789 6.05544 11.6667 5.83442 11.6667C5.61341 11.6667 5.40145 11.5789 5.24517 11.4226C5.08889 11.2663 5.00109 11.0543 5.00109 10.8333C5.00109 10.6123 5.08889 10.4004 5.24517 10.2441ZM10.8344 15.4167C10.8344 12.8858 12.8869 10.8333 15.4178 10.8333C17.9486 10.8333 20.0011 12.8858 20.0011 15.4167C20.0011 17.9475 17.9486 20 15.4178 20C12.8869 20 10.8344 17.9475 10.8344 15.4167ZM7.91776 12.2917C7.91776 11.9467 8.19776 11.6667 8.54276 11.6667H11.4594C11.47 11.6667 11.4799 11.668 11.4899 11.6693C11.4965 11.6702 11.5031 11.6711 11.5099 11.6715C11.1557 12.0407 10.8543 12.4592 10.6155 12.9167H8.54276C8.19776 12.9167 7.91776 12.6367 7.91776 12.2917ZM18.3182 14.3857C18.5312 14.21 18.5614 13.8948 18.3857 13.6818C18.21 13.4688 17.8948 13.4386 17.6818 13.6143L14.3857 16.3336L13.343 15.3505C13.1421 15.1611 12.8256 15.1704 12.6362 15.3713C12.4468 15.5722 12.4561 15.8886 12.657 16.0781L14.0206 17.3638L14.3416 17.6664L14.6818 17.3857L18.3182 14.3857Z" fill="#FDA743"/>
</g>
<defs>
<clipPath id="clip0_6345_1253">
<rect width="20" height="20" fill="white"/>
</clipPath>
</defs>
</svg>
