<svg width="9" height="14" viewBox="0 0 9 14" fill="none" xmlns="http://www.w3.org/2000/svg">
<path fill-rule="evenodd" clip-rule="evenodd" d="M8.91626 5.54315C9.0092 5.66518 9.02536 5.82978 8.95721 5.96744C8.88906 6.10537 8.74844 6.19238 8.59489 6.19238H0.782863C0.629316 6.19238 0.488699 6.10537 0.420815 5.96744C0.352662 5.82978 0.368556 5.66518 0.461761 5.54315L4.36778 0.424734C4.52105 0.224307 4.85724 0.224307 5.01025 0.424734L8.91626 5.54315ZM8.91626 8.45685C9.0092 8.33482 9.02536 8.17022 8.95721 8.03256C8.88906 7.89463 8.74844 7.80762 8.59489 7.80762H0.782863C0.629316 7.80762 0.488699 7.89463 0.420815 8.03256C0.352662 8.17022 0.368556 8.33482 0.461761 8.45685L4.36778 13.5753C4.52105 13.7757 4.85724 13.7757 5.01025 13.5753L8.91626 8.45685Z" fill="#AEAEB2"/>
</svg>
