<svg width="148" height="148" viewBox="0 0 148 148" fill="none" xmlns="http://www.w3.org/2000/svg">
<circle cx="74" cy="74" r="73" fill="white" stroke="url(#paint0_linear_6720_13748)" stroke-width="2"/>
<path d="M74.0801 37.3332C73.4355 37.3131 72.808 37.5429 72.3288 37.9745C72.3288 37.9745 59.8156 48.9999 44.832 48.9999C44.169 49 43.5332 49.2634 43.0643 49.7322C42.5955 50.201 42.3321 50.8369 42.332 51.4999V71.9329C42.332 83.0629 47.4811 101.377 73.0286 112.138C73.3357 112.267 73.6655 112.334 73.9987 112.334C74.3319 112.334 74.6617 112.267 74.9688 112.138C100.516 101.377 105.665 83.0629 105.665 71.9329V51.4999C105.665 50.8369 105.402 50.201 104.933 49.7322C104.464 49.2634 103.828 49 103.165 48.9999C88.1818 48.9999 75.6686 37.9745 75.6686 37.9745C75.2311 37.5804 74.6686 37.3533 74.0801 37.3332ZM86.4954 63.9999C87.135 63.9999 87.7747 64.244 88.263 64.7323C89.2397 65.7073 89.2397 67.2925 88.263 68.2675L71.5964 84.9342C71.1114 85.4225 70.472 85.6666 69.832 85.6666C69.192 85.6666 68.5528 85.4225 68.0645 84.9342L59.7311 76.6008C58.7545 75.6258 58.7545 74.0407 59.7311 73.0657C60.7078 72.089 62.2896 72.089 63.2663 73.0657L69.8288 79.6314L84.7279 64.7323C85.2162 64.244 85.8559 63.9999 86.4954 63.9999Z" fill="url(#paint1_linear_6720_13748)"/>
<defs>
<linearGradient id="paint0_linear_6720_13748" x1="3.54934" y1="63.5367" x2="146.08" y2="63.5368" gradientUnits="userSpaceOnUse">
<stop stop-color="#92D65E"/>
<stop offset="1" stop-color="#5DB14C"/>
</linearGradient>
<linearGradient id="paint1_linear_6720_13748" x1="43.8509" y1="69.5305" x2="104.844" y2="69.5305" gradientUnits="userSpaceOnUse">
<stop stop-color="#92D65E"/>
<stop offset="1" stop-color="#5DB14C"/>
</linearGradient>
</defs>
</svg>
