<svg width="148" height="148" viewBox="0 0 148 148" fill="none" xmlns="http://www.w3.org/2000/svg">
<circle cx="74" cy="74" r="73" fill="white" stroke="url(#paint0_linear_6720_13740)" stroke-width="2"/>
<g clip-path="url(#clip0_6720_13740)">
<path d="M73.9991 40.6826C65.4632 40.6826 56.9266 43.9302 50.4282 50.4287C43.99 56.8669 40.7411 65.3073 40.6788 73.762L38.2504 71.3825C38.0149 71.1443 37.7339 70.9558 37.4241 70.8283C37.1143 70.7008 36.782 70.6369 36.447 70.6403C35.9497 70.6454 35.4651 70.7988 35.0554 71.0808C34.6457 71.3628 34.3293 71.7606 34.1469 72.2234C33.9645 72.6861 33.9242 73.1927 34.0312 73.6785C34.1383 74.1642 34.3878 74.607 34.7478 74.9502L41.6065 81.6787C42.0641 82.1277 42.6766 82.3837 43.3175 82.394C43.9584 82.4043 44.5788 82.1681 45.0505 81.734L52.3585 75.0055C52.6088 74.7856 52.8127 74.5179 52.9581 74.2181C53.1035 73.9183 53.1875 73.5924 53.2051 73.2597C53.2228 72.9269 53.1738 72.594 53.0609 72.2805C52.9481 71.9669 52.7738 71.6791 52.5481 71.4339C52.3224 71.1888 52.0501 70.9912 51.747 70.8528C51.4438 70.7143 51.1161 70.6379 50.7831 70.628C50.45 70.618 50.1183 70.6747 49.8075 70.7948C49.4967 70.9149 49.213 71.0959 48.9731 71.3271L45.6755 74.3643C45.579 66.994 48.3312 59.6025 53.9666 53.9671C65.0529 42.8807 82.9485 42.8807 94.0349 53.9671C94.2673 54.1992 94.543 54.3833 94.8465 54.5089C95.15 54.6344 95.4752 54.699 95.8037 54.6988C96.1321 54.6986 96.4573 54.6338 96.7606 54.508C97.064 54.3822 97.3396 54.1978 97.5717 53.9655C97.8038 53.7332 97.9879 53.4574 98.1135 53.1539C98.239 52.8504 98.3035 52.5252 98.3034 52.1968C98.3032 51.8683 98.2384 51.5432 98.1126 51.2398C97.9868 50.9364 97.8024 50.6608 97.5701 50.4287C91.0716 43.9302 82.535 40.6826 73.9991 40.6826ZM73.9991 53.9997C68.4841 53.9997 63.9991 58.4847 63.9991 63.9997C63.9991 69.5147 68.4841 73.9997 73.9991 73.9997C80.6541 73.9997 87.5846 66.5278 88.3546 65.6761C89.2129 64.7244 89.2129 63.2782 88.3546 62.3265C87.5846 61.4732 80.6541 53.9997 73.9991 53.9997ZM104.579 65.6077C103.973 65.6222 103.394 65.8559 102.948 66.2653L102.762 66.4346C102.665 66.5123 102.573 66.5971 102.489 66.6885L95.6397 72.9938C95.3894 73.2137 95.1855 73.4815 95.0401 73.7813C94.8948 74.0811 94.8108 74.4069 94.7931 74.7397C94.7754 75.0724 94.8245 75.4054 94.9373 75.7189C95.0501 76.0324 95.2245 76.3202 95.4501 76.5654C95.6758 76.8106 95.9482 77.0082 96.2513 77.1466C96.5544 77.285 96.8821 77.3614 97.2152 77.3714C97.5482 77.3813 97.8799 77.3246 98.1908 77.2045C98.5016 77.0845 98.7853 76.9035 99.0252 76.6722L102.323 73.6351C102.419 81.0054 99.6671 88.3968 94.0317 94.0322C82.9453 105.119 65.0497 105.119 53.9633 94.0322C53.731 93.8001 53.4552 93.616 53.1517 93.4905C52.8482 93.3649 52.523 93.3004 52.1946 93.3005C51.8662 93.3007 51.541 93.3655 51.2376 93.4914C50.9343 93.6172 50.6586 93.8015 50.4265 94.0339C50.1944 94.2662 50.0103 94.542 49.8848 94.8454C49.7592 95.1489 49.6947 95.4742 49.6948 95.8026C49.6952 96.4659 49.9589 97.1018 50.4282 97.5706C63.4251 110.568 84.5731 110.568 97.5701 97.5706C104.008 91.1325 107.257 82.692 107.319 74.2373L109.748 76.6169C109.981 76.8538 110.258 77.042 110.565 77.1705C110.871 77.299 111.2 77.3651 111.532 77.3651C111.864 77.365 112.193 77.2988 112.499 77.1702C112.805 77.0417 113.083 76.8534 113.316 76.6164C113.548 76.3794 113.731 76.0984 113.854 75.7898C113.977 75.4812 114.037 75.1512 114.031 74.8191C114.025 74.487 113.953 74.1594 113.819 73.8555C113.685 73.5516 113.492 73.2775 113.25 73.0492L106.392 66.3206C106.153 66.0865 105.869 65.9028 105.557 65.7803C105.246 65.6579 104.913 65.5992 104.579 65.6077ZM62.7654 77.333C59.7704 77.333 57.3324 79.771 57.3324 82.7659V84.5693C57.3324 90.896 64.4974 95.6696 73.9991 95.6696C83.5008 95.6696 90.6658 90.896 90.6658 84.5693V82.7659C90.6658 79.771 88.2278 77.333 85.2328 77.333H62.7654Z" fill="url(#paint1_linear_6720_13740)"/>
</g>
<defs>
<linearGradient id="paint0_linear_6720_13740" x1="3.54934" y1="63.5367" x2="146.08" y2="63.5368" gradientUnits="userSpaceOnUse">
<stop stop-color="#92D65E"/>
<stop offset="1" stop-color="#5DB14C"/>
</linearGradient>
<linearGradient id="paint1_linear_6720_13740" x1="35.8926" y1="69.2895" x2="112.993" y2="69.2895" gradientUnits="userSpaceOnUse">
<stop stop-color="#92D65E"/>
<stop offset="1" stop-color="#5DB14C"/>
</linearGradient>
<clipPath id="clip0_6720_13740">
<rect width="80" height="80" fill="white" transform="translate(34 34)"/>
</clipPath>
</defs>
</svg>
