<svg width="148" height="148" viewBox="0 0 148 148" fill="none" xmlns="http://www.w3.org/2000/svg">
<circle cx="74" cy="74" r="73" fill="white" stroke="url(#paint0_linear_6720_13496)" stroke-width="2"/>
<path fill-rule="evenodd" clip-rule="evenodd" d="M49.0013 64.8337C49.0013 49.7003 58.658 40.667 74.8346 40.667C86.463 40.667 95.6998 46.0304 100.173 55.387C100.81 56.7154 100.832 58.2573 100.235 59.6123C99.779 60.6458 99.002 61.4871 98.0312 62.0277C98.5164 63.5794 99.0013 65.7375 99.0013 68.167V69.0003C102.683 69.0003 105.668 71.9853 105.668 75.667V78.5709C104.512 78.2002 103.279 78 102 78C98.9272 78 96.1242 79.1549 94.0013 81.0544V68.167C94.0013 66.1701 93.5537 64.4489 93.1615 63.2744C90.6838 63.6785 87.5792 64.0003 84.0013 64.0003C74.7196 64.0003 69.3307 61.7787 66.5957 60.1104C64.449 62.507 60.4263 65.9367 54.0013 67.6234V72.1058C54.0013 73.0708 53.4472 73.9499 52.5755 74.3649C51.3989 74.9232 50.668 76.0587 50.668 77.3337C50.668 79.1387 52.1103 80.6137 53.9036 80.6637C53.9736 80.6587 54.0455 80.6572 54.1022 80.6572C55.2855 80.6572 56.3035 81.4862 56.5469 82.6429C58.9802 94.2362 66.158 102.334 74.0013 102.334C75.3813 102.334 76.5013 103.452 76.5013 104.834C76.5013 106.215 75.3813 107.334 74.0013 107.334C64.0446 107.334 55.3861 98.6108 52.0645 85.4391C48.3995 84.5625 45.668 81.262 45.668 77.3337C45.668 74.6703 46.913 72.2511 49.0013 70.7028V64.8337ZM90.0852 91.437C89.0231 92.0096 87.8033 92.3337 86.5013 92.3337H83.4349C82.9621 91.3368 82.2162 90.4945 81.284 89.9045C80.3517 89.3145 79.2712 89.001 78.168 89.0003C77.4019 89.0003 76.6434 89.1512 75.9356 89.4444C75.2279 89.7375 74.5849 90.1672 74.0432 90.7089C73.5015 91.2505 73.0718 91.8936 72.7787 92.6013C72.4855 93.3091 72.3346 94.0676 72.3346 94.8337C72.3346 95.5997 72.4855 96.3582 72.7787 97.066C73.0718 97.7737 73.5015 98.4168 74.0432 98.9584C74.5849 99.5001 75.2279 99.9298 75.9356 100.223C76.6434 100.516 77.4019 100.667 78.168 100.667C79.2707 100.666 80.3505 100.352 81.2821 99.7619C82.2137 99.1719 82.959 98.33 83.4316 97.3337H86.5013C88.3602 97.3337 90.1267 96.9219 91.7148 96.1853C90.8602 94.7672 90.2905 93.1581 90.0852 91.437ZM63.3109 74.9766C63.9361 74.3515 64.7839 74.0003 65.668 74.0003C66.552 74.0003 67.3999 74.3515 68.025 74.9766C68.6501 75.6018 69.0013 76.4496 69.0013 77.3337C69.0013 78.2177 68.6501 79.0656 68.025 79.6907C67.3999 80.3158 66.552 80.667 65.668 80.667C64.7839 80.667 63.9361 80.3158 63.3109 79.6907C62.6858 79.0656 62.3346 78.2177 62.3346 77.3337C62.3346 76.4496 62.6858 75.6018 63.3109 74.9766ZM80.0071 74.9545C80.6285 74.3447 81.4639 74.0022 82.3346 74.0003C83.2187 74.0003 84.0665 74.3515 84.6917 74.9766C85.3168 75.6018 85.668 76.4496 85.668 77.3337C85.668 78.2177 85.3168 79.0656 84.6917 79.6907C84.0665 80.3158 83.2187 80.667 82.3346 80.667C82.288 80.6669 82.2413 80.6658 82.1947 80.6637C81.3248 80.6253 80.5045 80.2481 79.9092 79.6127C79.3139 78.9773 78.9909 78.1342 79.0092 77.2636C79.0275 76.3931 79.3856 75.5643 80.0071 74.9545Z" fill="url(#paint1_linear_6720_13496)"/>
<circle cx="102" cy="90" r="10" fill="url(#paint2_linear_6720_13496)"/>
<path d="M102.687 95.21C101.657 95.21 100.787 94.98 100.077 94.52C99.3674 94.06 98.8624 93.425 98.5624 92.615L100.332 91.58C100.742 92.65 101.547 93.185 102.747 93.185C103.307 93.185 103.727 93.085 104.007 92.885C104.287 92.685 104.427 92.415 104.427 92.075C104.427 91.705 104.262 91.42 103.932 91.22C103.602 91.01 103.012 90.785 102.162 90.545C101.242 90.265 100.517 89.94 99.9874 89.57C99.3274 89.08 98.9974 88.36 98.9974 87.41C98.9974 86.45 99.3324 85.695 100.002 85.145C100.672 84.575 101.487 84.29 102.447 84.29C103.287 84.29 104.032 84.495 104.682 84.905C105.332 85.315 105.837 85.895 106.197 86.645L104.457 87.65C104.037 86.75 103.367 86.3 102.447 86.3C102.027 86.3 101.692 86.4 101.442 86.6C101.192 86.79 101.067 87.04 101.067 87.35C101.067 87.68 101.202 87.95 101.472 88.16C101.772 88.37 102.302 88.59 103.062 88.82L103.782 89.06C103.912 89.1 104.137 89.185 104.457 89.315C104.757 89.425 104.977 89.53 105.117 89.63C105.607 89.93 105.937 90.24 106.107 90.56C106.367 90.98 106.497 91.475 106.497 92.045C106.497 93.015 106.142 93.785 105.432 94.355C104.722 94.925 103.807 95.21 102.687 95.21Z" fill="white"/>
<defs>
<linearGradient id="paint0_linear_6720_13496" x1="3.54934" y1="63.5367" x2="146.08" y2="63.5368" gradientUnits="userSpaceOnUse">
<stop stop-color="#92D65E"/>
<stop offset="1" stop-color="#5DB14C"/>
</linearGradient>
<linearGradient id="paint1_linear_6720_13496" x1="47.1069" y1="69.2871" x2="104.889" y2="69.2871" gradientUnits="userSpaceOnUse">
<stop stop-color="#92D65E"/>
<stop offset="1" stop-color="#5DB14C"/>
</linearGradient>
<linearGradient id="paint2_linear_6720_13496" x1="92.4796" y1="88.586" x2="111.741" y2="88.586" gradientUnits="userSpaceOnUse">
<stop stop-color="#92D65E"/>
<stop offset="1" stop-color="#5DB14C"/>
</linearGradient>
</defs>
</svg>
