<svg width="148" height="148" viewBox="0 0 148 148" fill="none" xmlns="http://www.w3.org/2000/svg">
<circle cx="74" cy="74" r="73" fill="white" stroke="url(#paint0_linear_6720_13515)" stroke-width="2"/>
<path d="M102.335 50.667H75.668V97.3337H102.335C103.256 97.3337 104.001 96.5887 104.001 95.667V52.3337C104.001 51.412 103.256 50.667 102.335 50.667Z" fill="#4CAF50"/>
<path d="M87.3346 59H99.0013V64H87.3346V59ZM87.3346 75.6667H99.0013V80.6667H87.3346V75.6667ZM87.3346 84H99.0013V89H87.3346V84ZM87.3346 67.3333H99.0013V72.3333H87.3346V67.3333ZM75.668 59H84.0013V64H75.668V59ZM75.668 75.6667H84.0013V80.6667H75.668V75.6667ZM75.668 84H84.0013V89H75.668V84ZM75.668 67.3333H84.0013V72.3333H75.668V67.3333Z" fill="white"/>
<path d="M79 104L44 97.3333V50.6667L79 44V104Z" fill="#2E7D32"/>
<path d="M65.8822 85.6663L61.8639 78.0647C61.7105 77.7797 61.5539 77.2597 61.3905 76.5013H61.3289C61.2522 76.8597 61.0722 77.403 60.7889 78.133L56.7539 85.6663H50.4922L57.9289 73.998L51.1239 62.333H57.5189L60.8539 69.3263C61.1139 69.878 61.3472 70.5347 61.5539 71.2913H61.6205C61.7505 70.8397 61.9939 70.158 62.3522 69.258L66.0622 62.333H71.9205L64.9222 73.898L72.1155 85.663H65.8822V85.6663Z" fill="white"/>
<defs>
<linearGradient id="paint0_linear_6720_13515" x1="3.54934" y1="63.5367" x2="146.08" y2="63.5368" gradientUnits="userSpaceOnUse">
<stop stop-color="#92D65E"/>
<stop offset="1" stop-color="#5DB14C"/>
</linearGradient>
</defs>
</svg>
