<svg width="148" height="148" viewBox="0 0 148 148" fill="none" xmlns="http://www.w3.org/2000/svg">
<circle cx="74" cy="74" r="73" fill="white" stroke="url(#paint0_linear_6720_13517)" stroke-width="2"/>
<path d="M97.3333 104H50.6667C46.985 104 44 101.015 44 97.3333V50.6667C44 46.985 46.985 44 50.6667 44H97.3333C101.015 44 104 46.985 104 50.6667V97.3333C104 101.015 101.015 104 97.3333 104Z" fill="#E53935"/>
<path d="M92.0686 78.6653C89.2486 75.737 81.5453 76.9303 79.702 77.147C76.9903 74.5437 75.1453 71.397 74.4953 70.312C75.472 67.3837 76.122 64.4537 76.2303 61.3087C76.2303 58.597 75.1453 55.667 72.1086 55.667C71.0236 55.667 70.047 56.3187 69.5053 57.1853C68.2036 59.4637 68.7453 64.0203 70.807 68.6837C69.6136 72.047 68.5286 75.3003 65.492 81.0503C62.3453 82.352 55.7286 85.3903 55.187 88.6437C54.9703 89.6203 55.2953 90.597 56.0553 91.3553C56.8136 92.0087 57.7886 92.3337 58.7653 92.3337C62.7786 92.3337 66.6836 86.8003 69.397 82.137C71.6753 81.377 75.2553 80.292 78.8353 79.642C83.0653 83.3303 86.7536 83.872 88.707 83.872C91.3103 83.872 92.287 82.787 92.612 81.8103C93.1536 80.727 92.8286 79.5337 92.0686 78.6653ZM89.357 80.5087C89.2486 81.2687 88.272 82.027 86.537 81.5937C84.4753 81.052 82.632 80.0753 81.0036 78.7737C82.4136 78.557 85.5603 78.232 87.8386 78.6653C88.707 78.882 89.5736 79.4237 89.357 80.5087ZM71.2403 58.162C71.457 57.837 71.782 57.6203 72.1086 57.6203C73.0853 57.6203 73.302 58.8137 73.302 59.7903C73.1936 62.0687 72.7603 64.347 72.0003 66.517C70.3736 62.1753 70.6986 59.1387 71.2403 58.162ZM71.0236 79.207C71.892 77.472 73.0853 74.4337 73.5186 73.132C74.4953 74.7587 76.122 76.712 76.9903 77.5803C76.9903 77.6887 73.627 78.3403 71.0236 79.207ZM64.6236 83.547C62.1286 87.6687 59.5253 90.2737 58.1153 90.2737C57.8986 90.2737 57.682 90.1653 57.4636 90.057C57.1386 89.8403 57.0303 89.5153 57.1386 89.0803C57.4636 87.5603 60.2836 85.4987 64.6236 83.547Z" fill="white"/>
<defs>
<linearGradient id="paint0_linear_6720_13517" x1="3.54934" y1="63.5367" x2="146.08" y2="63.5368" gradientUnits="userSpaceOnUse">
<stop stop-color="#92D65E"/>
<stop offset="1" stop-color="#5DB14C"/>
</linearGradient>
</defs>
</svg>
