<svg width="148" height="149" viewBox="0 0 148 149" fill="none" xmlns="http://www.w3.org/2000/svg">
<circle cx="74" cy="74.5" r="73" fill="white" stroke="url(#paint0_linear_6720_13664)" stroke-width="2"/>
<path d="M97.3333 105H50.6667C46.985 105 44 102.015 44 98.3333V51.6667C44 47.985 46.985 45 50.6667 45H97.3333C101.015 45 104 47.985 104 51.6667V98.3333C104 102.015 101.015 105 97.3333 105Z" fill="#E53935"/>
<path d="M92.0686 79.6653C89.2486 76.737 81.5453 77.9303 79.702 78.147C76.9903 75.5437 75.1453 72.397 74.4953 71.312C75.472 68.3837 76.122 65.4537 76.2303 62.3087C76.2303 59.597 75.1453 56.667 72.1086 56.667C71.0236 56.667 70.047 57.3187 69.5053 58.1853C68.2036 60.4637 68.7453 65.0203 70.807 69.6837C69.6136 73.047 68.5286 76.3003 65.492 82.0503C62.3453 83.352 55.7286 86.3903 55.187 89.6437C54.9703 90.6203 55.2953 91.597 56.0553 92.3553C56.8136 93.0087 57.7886 93.3337 58.7653 93.3337C62.7786 93.3337 66.6836 87.8003 69.397 83.137C71.6753 82.377 75.2553 81.292 78.8353 80.642C83.0653 84.3303 86.7536 84.872 88.707 84.872C91.3103 84.872 92.287 83.787 92.612 82.8103C93.1536 81.727 92.8286 80.5337 92.0686 79.6653ZM89.357 81.5087C89.2486 82.2687 88.272 83.027 86.537 82.5937C84.4753 82.052 82.632 81.0753 81.0036 79.7737C82.4136 79.557 85.5603 79.232 87.8386 79.6653C88.707 79.882 89.5736 80.4237 89.357 81.5087ZM71.2403 59.162C71.457 58.837 71.782 58.6203 72.1086 58.6203C73.0853 58.6203 73.302 59.8137 73.302 60.7903C73.1936 63.0687 72.7603 65.347 72.0003 67.517C70.3736 63.1753 70.6986 60.1387 71.2403 59.162ZM71.0236 80.207C71.892 78.472 73.0853 75.4337 73.5186 74.132C74.4953 75.7587 76.122 77.712 76.9903 78.5803C76.9903 78.6887 73.627 79.3403 71.0236 80.207ZM64.6236 84.547C62.1286 88.6687 59.5253 91.2737 58.1153 91.2737C57.8986 91.2737 57.682 91.1653 57.4636 91.057C57.1386 90.8403 57.0303 90.5153 57.1386 90.0803C57.4636 88.5603 60.2836 86.4987 64.6236 84.547Z" fill="white"/>
<defs>
<linearGradient id="paint0_linear_6720_13664" x1="3.54934" y1="64.0367" x2="146.08" y2="64.0368" gradientUnits="userSpaceOnUse">
<stop stop-color="#92D65E"/>
<stop offset="1" stop-color="#5DB14C"/>
</linearGradient>
</defs>
</svg>
