<svg width="148" height="148" viewBox="0 0 148 148" fill="none" xmlns="http://www.w3.org/2000/svg">
<circle cx="74" cy="74" r="73" fill="white" stroke="url(#paint0_linear_6720_13705)" stroke-width="2"/>
<path d="M48.1667 45.167C43.1117 45.167 39 49.2787 39 54.3337V84.3337C39 89.3887 43.1117 93.5003 48.1667 93.5003H99.8333C104.888 93.5003 109 89.3887 109 84.3337V54.3337C109 49.2787 104.888 45.167 99.8333 45.167H48.1667ZM68.9251 60.1605C69.2062 60.1476 69.5005 60.2067 69.778 60.3525L84.0423 67.859C85.229 68.4824 85.2274 70.1833 84.0391 70.8083L69.7747 78.318C68.6664 78.9014 67.3333 78.0968 67.3333 76.8434V61.8271C67.3333 60.8859 68.0818 60.1992 68.9251 60.1605ZM59.8333 98.5003C59.5021 98.4956 59.1731 98.5568 58.8657 98.6804C58.5583 98.8039 58.2785 98.9873 58.0426 99.2199C57.8067 99.4525 57.6193 99.7297 57.4914 100.035C57.3636 100.341 57.2977 100.669 57.2977 101C57.2977 101.332 57.3636 101.66 57.4914 101.965C57.6193 102.271 57.8067 102.548 58.0426 102.781C58.2785 103.013 58.5583 103.197 58.8657 103.32C59.1731 103.444 59.5021 103.505 59.8333 103.5H88.1667C88.4979 103.505 88.8269 103.444 89.1343 103.32C89.4417 103.197 89.7215 103.013 89.9574 102.781C90.1933 102.548 90.3807 102.271 90.5086 101.965C90.6364 101.66 90.7023 101.332 90.7023 101C90.7023 100.669 90.6364 100.341 90.5086 100.035C90.3807 99.7297 90.1933 99.4525 89.9574 99.2199C89.7215 98.9873 89.4417 98.8039 89.1343 98.6804C88.8269 98.5568 88.4979 98.4956 88.1667 98.5003H59.8333Z" fill="url(#paint1_linear_6720_13705)"/>
<defs>
<linearGradient id="paint0_linear_6720_13705" x1="3.54934" y1="63.5367" x2="146.08" y2="63.5368" gradientUnits="userSpaceOnUse">
<stop stop-color="#92D65E"/>
<stop offset="1" stop-color="#5DB14C"/>
</linearGradient>
<linearGradient id="paint1_linear_6720_13705" x1="40.6787" y1="70.2097" x2="108.092" y2="70.2097" gradientUnits="userSpaceOnUse">
<stop stop-color="#92D65E"/>
<stop offset="1" stop-color="#5DB14C"/>
</linearGradient>
</defs>
</svg>
