<svg width="24" height="25" viewBox="0 0 24 25" fill="none" xmlns="http://www.w3.org/2000/svg">
<path d="M5.25 4.5C3.46403 4.5 2 5.96403 2 7.75V17.25C2 19.036 3.46403 20.5 5.25 20.5H18.75C20.536 20.5 22 19.036 22 17.25V7.75C22 5.96403 20.536 4.5 18.75 4.5H5.25ZM5.25 6H18.75C19.725 6 20.5 6.77497 20.5 7.75V8.30273L12 12.8975L3.5 8.30273V7.75C3.5 6.77497 4.27497 6 5.25 6ZM3.5 10.0078L11.6436 14.4102C11.7531 14.4693 11.8755 14.5003 12 14.5003C12.1245 14.5003 12.2469 14.4693 12.3564 14.4102L20.5 10.0078V17.25C20.5 18.225 19.725 19 18.75 19H5.25C4.27497 19 3.5 18.225 3.5 17.25V10.0078Z" fill="#53A42A"/>
</svg>
