<svg width="80" height="80" viewBox="0 0 80 80" fill="none" xmlns="http://www.w3.org/2000/svg">
<rect width="80" height="80" rx="6" fill="#E8F4FF"/>
<path opacity="0.2" d="M39.9987 19C25.7654 19 14.332 30.4333 14.332 44.6667C14.332 49.1 15.4987 53.5333 17.832 57.5L18.532 58.6667H61.6987L62.3987 57.5C64.732 53.5333 65.8987 49.1 65.8987 44.6667C65.6654 30.4333 54.232 19 39.9987 19Z" fill="#003366"/>
<path d="M45.1654 31.0333L36.2333 42L35.5 43.0168C34.1654 44 34.5 46 35 47C36.1478 49.2957 37.1987 49.3333 39.7654 49.3333C40.932 49.3333 42.0987 48.8667 42.7987 48.1667L45.1654 31.0333ZM56.332 42.3333C55.7132 42.3333 55.1197 42.5792 54.6821 43.0168C54.2445 43.4543 53.9987 44.0478 53.9987 44.6667C53.9987 45.2855 54.2445 45.879 54.6821 46.3166C55.1197 46.7542 55.7132 47 56.332 47C56.9509 47 57.5444 46.7542 57.9819 46.3166C58.4195 45.879 58.6654 45.2855 58.6654 44.6667C58.6654 44.0478 58.4195 43.4543 57.9819 43.0168C57.5444 42.5792 56.9509 42.3333 56.332 42.3333ZM23.6654 42.3333C23.0465 42.3333 22.453 42.5792 22.0154 43.0168C21.5779 43.4543 21.332 44.0478 21.332 44.6667C21.332 45.2855 21.5779 45.879 22.0154 46.3166C22.453 46.7542 23.0465 47 23.6654 47C24.2842 47 24.8777 46.7542 25.3153 46.3166C25.7529 45.879 25.9987 45.2855 25.9987 44.6667C25.9987 44.0478 25.7529 43.4543 25.3153 43.0168C24.8777 42.5792 24.2842 42.3333 23.6654 42.3333ZM25.9987 34.1667C25.3799 34.1667 24.7864 34.4125 24.3488 34.8501C23.9112 35.2877 23.6654 35.8812 23.6654 36.5C23.6654 37.1188 23.9112 37.7123 24.3488 38.1499C24.7864 38.5875 25.3799 38.8333 25.9987 38.8333C26.6175 38.8333 27.211 38.5875 27.6486 38.1499C28.0862 37.7123 28.332 37.1188 28.332 36.5C28.332 35.8812 28.0862 35.2877 27.6486 34.8501C27.211 34.4125 26.6175 34.1667 25.9987 34.1667ZM31.832 28.3333C31.2132 28.3333 30.6197 28.5792 30.1821 29.0168C29.7445 29.4543 29.4987 30.0478 29.4987 30.6667C29.4987 31.2855 29.7445 31.879 30.1821 32.3166C30.6197 32.7542 31.2132 33 31.832 33C32.4509 33 33.0444 32.7542 33.4819 32.3166C33.9195 31.879 34.1654 31.2855 34.1654 30.6667C34.1654 30.0478 33.9195 29.4543 33.4819 29.0168C33.0444 28.5792 32.4509 28.3333 31.832 28.3333ZM39.9987 26C39.3799 26 38.7864 26.2458 38.3488 26.6834C37.9112 27.121 37.6654 27.7145 37.6654 28.3333C37.6654 28.9522 37.9112 29.5457 38.3488 29.9832C38.7864 30.4208 39.3799 30.6667 39.9987 30.6667C40.6175 30.6667 41.211 30.4208 41.6486 29.9832C42.0862 29.5457 42.332 28.9522 42.332 28.3333C42.332 27.7145 42.0862 27.121 41.6486 26.6834C41.211 26.2458 40.6175 26 39.9987 26ZM51.932 33.3333C51.3132 33.3333 50.7197 33.5792 50.2821 34.0168C49.8445 34.4543 49.5987 35.0478 49.5987 35.6667C49.5987 36.2855 49.8445 36.879 50.2821 37.3166C50.7197 37.7542 51.3132 38 51.932 38C52.5509 38 53.1444 37.7542 53.5819 37.3166C54.0195 36.879 54.2654 36.2855 54.2654 35.6667C54.2654 35.0478 54.0195 34.4543 53.5819 34.0168C53.1444 33.5792 52.5509 33.3333 51.932 33.3333ZM32.9987 54H46.9987V58.6667H32.9987V54Z" fill="#003366"/>
<path fill-rule="evenodd" clip-rule="evenodd" d="M14.332 44.6667C14.332 30.4333 25.7654 19 39.9987 19C54.232 19 65.6654 30.4333 65.6654 44.6667C65.6654 49.1 64.4987 53.5333 62.1654 57.5L61.4654 58.6667H58.6654V56H59.2534L59.8778 55C61.9593 51.6 63 47.8 63 44C62.7919 31.8 52.5928 22 39.8959 22C27.1991 22 17 31.8 17 44C17 47.8 18.0407 51.6 20.1222 55L20.7466 56H21.332V58.6667H18.532L17.832 57.5C15.4987 53.5333 14.332 49.1 14.332 44.6667Z" fill="#003366"/>
<path d="M19 54H26V58.6667H19V54ZM54 54H61V58.6667H54V54Z" fill="#003366"/>
</svg>
