<svg width="136" height="25" viewBox="0 0 136 25" fill="none" xmlns="http://www.w3.org/2000/svg">
<path d="M12.0008 2.99806C11.8606 2.99719 11.723 3.03561 11.6035 3.10897C11.4841 3.18232 11.3876 3.28769 11.325 3.4131L8.74881 8.56544L2.63163 9.50685C2.4947 9.52801 2.36631 9.58668 2.2607 9.67635C2.15508 9.76602 2.07637 9.8832 2.03328 10.0149C1.9902 10.1466 1.98443 10.2876 2.01661 10.4224C2.04879 10.5571 2.11767 10.6803 2.21561 10.7783L6.44705 15.0098L5.50467 21.1338C5.48359 21.2708 5.50089 21.411 5.55465 21.5388C5.60841 21.6665 5.69653 21.7769 5.80922 21.8576C5.92191 21.9384 6.05477 21.9863 6.19305 21.9961C6.33133 22.0059 6.46962 21.9771 6.59256 21.9131L11.9959 19.0938L17.3992 21.9131C17.5221 21.9771 17.6604 22.0059 17.7987 21.9961C17.937 21.9863 18.0698 21.9384 18.1825 21.8576C18.2952 21.7769 18.3834 21.6665 18.4371 21.5388C18.4909 21.411 18.5082 21.2708 18.4871 21.1338L17.5447 15.0098L21.7762 10.7783C21.8741 10.6803 21.943 10.5571 21.9752 10.4224C22.0073 10.2876 22.0016 10.1466 21.9585 10.0149C21.9154 9.8832 21.8367 9.76602 21.7311 9.67635C21.6255 9.58668 21.4971 9.52801 21.3601 9.50685L15.2429 8.56544L12.6668 3.4131C12.6049 3.28917 12.5099 3.18479 12.3924 3.11153C12.2748 3.03828 12.1393 2.999 12.0008 2.99806Z" fill="url(#paint0_linear_6360_1963)"/>
<path d="M40.0008 2.99806C39.8606 2.99719 39.723 3.03561 39.6035 3.10897C39.4841 3.18232 39.3876 3.28769 39.325 3.4131L36.7488 8.56544L30.6316 9.50685C30.4947 9.52801 30.3663 9.58668 30.2607 9.67635C30.1551 9.76602 30.0764 9.8832 30.0333 10.0149C29.9902 10.1466 29.9844 10.2876 30.0166 10.4224C30.0488 10.5571 30.1177 10.6803 30.2156 10.7783L34.4471 15.0098L33.5047 21.1338C33.4836 21.2708 33.5009 21.411 33.5546 21.5388C33.6084 21.6665 33.6965 21.7769 33.8092 21.8576C33.9219 21.9384 34.0548 21.9863 34.1931 21.9961C34.3313 22.0059 34.4696 21.9771 34.5926 21.9131L39.9959 19.0938L45.3992 21.9131C45.5221 21.9771 45.6604 22.0059 45.7987 21.9961C45.937 21.9863 46.0698 21.9384 46.1825 21.8576C46.2952 21.7769 46.3834 21.6665 46.4371 21.5388C46.4909 21.411 46.5082 21.2708 46.4871 21.1338L45.5447 15.0098L49.7762 10.7783C49.8741 10.6803 49.943 10.5571 49.9752 10.4224C50.0073 10.2876 50.0016 10.1466 49.9585 10.0149C49.9154 9.8832 49.8367 9.76602 49.7311 9.67635C49.6255 9.58668 49.4971 9.52801 49.3601 9.50685L43.2429 8.56544L40.6668 3.4131C40.6049 3.28917 40.5099 3.18479 40.3924 3.11153C40.2748 3.03828 40.1393 2.999 40.0008 2.99806Z" fill="url(#paint1_linear_6360_1963)"/>
<path d="M68.0008 2.99806C67.8606 2.99719 67.723 3.03561 67.6035 3.10897C67.4841 3.18232 67.3876 3.28769 67.325 3.4131L64.7488 8.56544L58.6316 9.50685C58.4947 9.52801 58.3663 9.58668 58.2607 9.67635C58.1551 9.76602 58.0764 9.8832 58.0333 10.0149C57.9902 10.1466 57.9844 10.2876 58.0166 10.4224C58.0488 10.5571 58.1177 10.6803 58.2156 10.7783L62.4471 15.0098L61.5047 21.1338C61.4836 21.2708 61.5009 21.411 61.5546 21.5388C61.6084 21.6665 61.6965 21.7769 61.8092 21.8576C61.9219 21.9384 62.0548 21.9863 62.1931 21.9961C62.3313 22.0059 62.4696 21.9771 62.5926 21.9131L67.9959 19.0938L73.3992 21.9131C73.5221 21.9771 73.6604 22.0059 73.7987 21.9961C73.937 21.9863 74.0698 21.9384 74.1825 21.8576C74.2952 21.7769 74.3834 21.6665 74.4371 21.5388C74.4909 21.411 74.5082 21.2708 74.4871 21.1338L73.5447 15.0098L77.7762 10.7783C77.8741 10.6803 77.943 10.5571 77.9752 10.4224C78.0073 10.2876 78.0016 10.1466 77.9585 10.0149C77.9154 9.8832 77.8367 9.76602 77.7311 9.67635C77.6255 9.58668 77.4971 9.52801 77.3601 9.50685L71.2429 8.56544L68.6668 3.4131C68.6049 3.28917 68.5099 3.18479 68.3924 3.11153C68.2748 3.03828 68.1393 2.999 68.0008 2.99806Z" fill="url(#paint2_linear_6360_1963)"/>
<path d="M96.0008 2.99806C95.8606 2.99719 95.723 3.03561 95.6035 3.10897C95.4841 3.18232 95.3876 3.28769 95.325 3.4131L92.7488 8.56544L86.6316 9.50685C86.4947 9.52801 86.3663 9.58668 86.2607 9.67635C86.1551 9.76602 86.0764 9.8832 86.0333 10.0149C85.9902 10.1466 85.9844 10.2876 86.0166 10.4224C86.0488 10.5571 86.1177 10.6803 86.2156 10.7783L90.4471 15.0098L89.5047 21.1338C89.4836 21.2708 89.5009 21.411 89.5546 21.5388C89.6084 21.6665 89.6965 21.7769 89.8092 21.8576C89.9219 21.9384 90.0548 21.9863 90.1931 21.9961C90.3313 22.0059 90.4696 21.9771 90.5926 21.9131L95.9959 19.0938L101.399 21.9131C101.522 21.9771 101.66 22.0059 101.799 21.9961C101.937 21.9863 102.07 21.9384 102.183 21.8576C102.295 21.7769 102.383 21.6665 102.437 21.5388C102.491 21.411 102.508 21.2708 102.487 21.1338L101.545 15.0098L105.776 10.7783C105.874 10.6803 105.943 10.5571 105.975 10.4224C106.007 10.2876 106.002 10.1466 105.958 10.0149C105.915 9.8832 105.837 9.76602 105.731 9.67635C105.625 9.58668 105.497 9.52801 105.36 9.50685L99.2429 8.56544L96.6668 3.4131C96.6049 3.28917 96.5099 3.18479 96.3924 3.11153C96.2748 3.03828 96.1393 2.999 96.0008 2.99806Z" fill="url(#paint3_linear_6360_1963)"/>
<path d="M124.001 2.99806C123.861 2.99719 123.723 3.03561 123.604 3.10897C123.484 3.18232 123.388 3.28769 123.325 3.4131L120.749 8.56544L114.632 9.50685C114.495 9.52801 114.366 9.58668 114.261 9.67635C114.155 9.76602 114.076 9.8832 114.033 10.0149C113.99 10.1466 113.984 10.2876 114.017 10.4224C114.049 10.5571 114.118 10.6803 114.216 10.7783L118.447 15.0098L117.505 21.1338C117.484 21.2708 117.501 21.411 117.555 21.5388C117.608 21.6665 117.697 21.7769 117.809 21.8576C117.922 21.9384 118.055 21.9863 118.193 21.9961C118.331 22.0059 118.47 21.9771 118.593 21.9131L123.996 19.0938L129.399 21.9131C129.522 21.9771 129.66 22.0059 129.799 21.9961C129.937 21.9863 130.07 21.9384 130.183 21.8576C130.295 21.7769 130.383 21.6665 130.437 21.5388C130.491 21.411 130.508 21.2708 130.487 21.1338L129.545 15.0098L133.776 10.7783C133.874 10.6803 133.943 10.5571 133.975 10.4224C134.007 10.2876 134.002 10.1466 133.958 10.0149C133.915 9.8832 133.837 9.76602 133.731 9.67635C133.625 9.58668 133.497 9.52801 133.36 9.50685L127.243 8.56544L124.667 3.4131C124.605 3.28917 124.51 3.18479 124.392 3.11153C124.275 3.03828 124.139 2.999 124.001 2.99806ZM123.996 5.42482L126.075 9.58302C126.129 9.6903 126.207 9.78317 126.304 9.85386C126.401 9.92454 126.513 9.97098 126.632 9.98927L131.669 10.7647L128.216 14.2178C128.132 14.3011 128.07 14.4029 128.033 14.5149C127.996 14.6268 127.987 14.7459 128.005 14.8623L128.779 19.8975L124.343 17.583C124.236 17.5272 124.117 17.4981 123.996 17.4981C123.875 17.4981 123.756 17.5272 123.649 17.583L119.213 19.8975L119.987 14.8623C120.005 14.7459 119.995 14.6268 119.959 14.5149C119.922 14.4029 119.859 14.3011 119.776 14.2178L116.323 10.7647L121.36 9.98927C121.479 9.97098 121.591 9.92454 121.688 9.85386C121.785 9.78317 121.863 9.6903 121.917 9.58302L123.996 5.42482Z" fill="url(#paint4_linear_6360_1963)"/>
<defs>
<linearGradient id="paint0_linear_6360_1963" x1="2.47572" y1="11.1547" x2="21.7362" y2="11.1548" gradientUnits="userSpaceOnUse">
<stop stop-color="#92D65E"/>
<stop offset="1" stop-color="#5DB14C"/>
</linearGradient>
<linearGradient id="paint1_linear_6360_1963" x1="30.4757" y1="11.1547" x2="49.7362" y2="11.1548" gradientUnits="userSpaceOnUse">
<stop stop-color="#92D65E"/>
<stop offset="1" stop-color="#5DB14C"/>
</linearGradient>
<linearGradient id="paint2_linear_6360_1963" x1="58.4757" y1="11.1547" x2="77.7362" y2="11.1548" gradientUnits="userSpaceOnUse">
<stop stop-color="#92D65E"/>
<stop offset="1" stop-color="#5DB14C"/>
</linearGradient>
<linearGradient id="paint3_linear_6360_1963" x1="86.4757" y1="11.1547" x2="105.736" y2="11.1548" gradientUnits="userSpaceOnUse">
<stop stop-color="#92D65E"/>
<stop offset="1" stop-color="#5DB14C"/>
</linearGradient>
<linearGradient id="paint4_linear_6360_1963" x1="114.476" y1="11.1547" x2="133.736" y2="11.1548" gradientUnits="userSpaceOnUse">
<stop stop-color="#92D65E"/>
<stop offset="1" stop-color="#5DB14C"/>
</linearGradient>
</defs>
</svg>
