<svg width="263" height="190" viewBox="0 0 263 190" fill="none" xmlns="http://www.w3.org/2000/svg">
<g filter="url(#filter0_d_6388_12262)">
<rect x="19" y="16.5" width="224.569" height="152" rx="9.8762" fill="white"/>
</g>
<circle opacity="0.1" cx="80" cy="68.9062" r="13" fill="#003366"/>
<path d="M78.9725 62.959C78.5073 62.959 78.0731 63.2085 77.8389 63.6101L77.198 64.709H76.0638C75.0185 64.709 74.168 65.5595 74.168 66.6048V72.1465C74.168 73.1918 75.0185 74.0423 76.0638 74.0423H83.9388C84.9841 74.0423 85.8346 73.1918 85.8346 72.1465V66.6048C85.8346 65.5595 84.9841 64.709 83.9388 64.709H82.8046L82.1637 63.6101C81.9295 63.2085 81.4953 62.959 81.0301 62.959H78.9725ZM80.0013 66.459C81.4486 66.459 82.6263 67.6364 82.6263 69.084C82.6263 70.5315 81.4486 71.709 80.0013 71.709C78.5541 71.709 77.3763 70.5315 77.3763 69.084C77.3763 67.6364 78.5541 66.459 80.0013 66.459ZM80.0013 67.334C79.8832 67.334 79.7762 67.4052 79.7313 67.5146L79.4698 68.1509C79.3954 68.3314 79.249 68.4781 79.0682 68.5525L78.4319 68.814C78.3228 68.8589 78.2513 68.9659 78.2513 69.084C78.2513 69.2021 78.3228 69.3091 78.4319 69.354L79.0682 69.6155C79.249 69.6899 79.3954 69.8365 79.4698 70.0171L79.7313 70.6534C79.7762 70.7628 79.8832 70.834 80.0013 70.834C80.1194 70.834 80.2264 70.7628 80.2713 70.6534L80.5328 70.0171C80.6072 69.8365 80.7536 69.6899 80.9344 69.6155L81.5707 69.354C81.6798 69.3091 81.7513 69.2021 81.7513 69.084C81.7513 68.9659 81.6798 68.8589 81.5707 68.814L80.9344 68.5525C80.7536 68.4781 80.6072 68.3314 80.5328 68.1509L80.2713 67.5146C80.2264 67.4052 80.1194 67.334 80.0013 67.334Z" fill="#003366"/>
<path d="M55.5941 90.9642V93.8972C55.5941 94.3359 55.6898 94.6626 55.8811 94.8773C56.0771 95.0919 56.3501 95.1992 56.7001 95.1992C57.0455 95.1992 57.3138 95.0919 57.5051 94.8773C57.7011 94.6626 57.7991 94.3359 57.7991 93.8972V90.9642H58.5971V93.8972C58.5971 94.5739 58.4221 95.0872 58.0721 95.4372C57.7221 95.7826 57.2601 95.9553 56.6861 95.9553C56.1168 95.9553 55.6595 95.7826 55.3141 95.4372C54.9688 95.0872 54.7961 94.5739 54.7961 93.8972V90.9642H55.5941ZM61.7394 92.0002C62.0754 92.0002 62.3741 92.0796 62.6354 92.2382C62.9014 92.3969 63.1091 92.6256 63.2584 92.9242C63.4078 93.2229 63.4824 93.5729 63.4824 93.9742C63.4824 94.3802 63.4078 94.7326 63.2584 95.0312C63.1091 95.3299 62.9014 95.5586 62.6354 95.7172C62.3741 95.8759 62.0754 95.9553 61.7394 95.9553C61.3894 95.9553 61.0908 95.8689 60.8434 95.6962C60.5961 95.5236 60.4234 95.2949 60.3254 95.0102V97.7403H59.5274V92.0493H60.3254V92.9452C60.4234 92.6606 60.5961 92.4319 60.8434 92.2592C61.0908 92.0866 61.3894 92.0002 61.7394 92.0002ZM61.4944 92.7002C61.2704 92.7002 61.0698 92.7539 60.8924 92.8612C60.7151 92.9639 60.5751 93.1132 60.4724 93.3092C60.3698 93.5006 60.3184 93.7222 60.3184 93.9742C60.3184 94.2309 60.3698 94.4549 60.4724 94.6462C60.5751 94.8376 60.7151 94.9869 60.8924 95.0942C61.0698 95.1969 61.2704 95.2482 61.4944 95.2482C61.8491 95.2482 62.1338 95.1362 62.3484 94.9122C62.5631 94.6836 62.6704 94.3709 62.6704 93.9742C62.6704 93.5822 62.5631 93.2719 62.3484 93.0432C62.1338 92.8146 61.8491 92.7002 61.4944 92.7002ZM65.0491 90.7262V95.9062H64.2511V90.7262H65.0491ZM67.7787 92.0002C68.1521 92.0002 68.4881 92.0796 68.7867 92.2382C69.0854 92.3969 69.3187 92.6256 69.4867 92.9242C69.6547 93.2229 69.7387 93.5729 69.7387 93.9742C69.7387 94.3802 69.6547 94.7326 69.4867 95.0312C69.3187 95.3299 69.0854 95.5586 68.7867 95.7172C68.4881 95.8759 68.1521 95.9553 67.7787 95.9553C67.4054 95.9553 67.0694 95.8759 66.7707 95.7172C66.4767 95.5586 66.2434 95.3299 66.0707 95.0312C65.9027 94.7279 65.8187 94.3756 65.8187 93.9742C65.8187 93.5729 65.9027 93.2229 66.0707 92.9242C66.2434 92.6256 66.4767 92.3969 66.7707 92.2382C67.0694 92.0796 67.4054 92.0002 67.7787 92.0002ZM67.7787 92.6932C67.5734 92.6932 67.3844 92.7399 67.2117 92.8332C67.0391 92.9266 66.8991 93.0712 66.7917 93.2672C66.6891 93.4586 66.6377 93.6942 66.6377 93.9742C66.6377 94.2589 66.6891 94.4969 66.7917 94.6882C66.8991 94.8796 67.0391 95.0219 67.2117 95.1152C67.3844 95.2086 67.5734 95.2552 67.7787 95.2552C67.9841 95.2552 68.1731 95.2086 68.3457 95.1152C68.5184 95.0219 68.6561 94.8796 68.7587 94.6882C68.8661 94.4969 68.9197 94.2589 68.9197 93.9742C68.9197 93.6942 68.8661 93.4586 68.7587 93.2672C68.6561 93.0712 68.5184 92.9266 68.3457 92.8332C68.1731 92.7399 67.9841 92.6932 67.7787 92.6932ZM72.0529 92.0002C72.4029 92.0002 72.7016 92.0866 72.9489 92.2592C73.1963 92.4319 73.3713 92.6606 73.4739 92.9452V92.0493H74.2719V95.9062H73.4739V95.0102C73.3713 95.2949 73.1963 95.5236 72.9489 95.6962C72.7016 95.8689 72.4029 95.9553 72.0529 95.9553C71.7169 95.9553 71.4159 95.8759 71.1499 95.7172C70.8886 95.5586 70.6833 95.3299 70.5339 95.0312C70.3846 94.7326 70.3099 94.3802 70.3099 93.9742C70.3099 93.5729 70.3846 93.2229 70.5339 92.9242C70.6833 92.6256 70.8886 92.3969 71.1499 92.2382C71.4159 92.0796 71.7169 92.0002 72.0529 92.0002ZM72.2979 92.7002C71.9433 92.7002 71.6586 92.8146 71.4439 93.0432C71.2339 93.2672 71.1289 93.5776 71.1289 93.9742C71.1289 94.3709 71.2339 94.6836 71.4439 94.9122C71.6586 95.1362 71.9433 95.2482 72.2979 95.2482C72.5219 95.2482 72.7226 95.1969 72.8999 95.0942C73.0773 94.9869 73.2173 94.8376 73.3199 94.6462C73.4226 94.4549 73.4739 94.2309 73.4739 93.9742C73.4739 93.7222 73.4226 93.5006 73.3199 93.3092C73.2173 93.1132 73.0773 92.9639 72.8999 92.8612C72.7226 92.7539 72.5219 92.7002 72.2979 92.7002ZM76.7766 92.0002C77.1266 92.0002 77.4252 92.0866 77.6726 92.2592C77.9199 92.4319 78.0926 92.6606 78.1906 92.9452V90.7262H78.9956V95.9062H78.1906V95.0102C78.0926 95.2949 77.9199 95.5236 77.6726 95.6962C77.4252 95.8689 77.1266 95.9553 76.7766 95.9553C76.4406 95.9553 76.1396 95.8759 75.8736 95.7172C75.6122 95.5586 75.4069 95.3299 75.2576 95.0312C75.1082 94.7326 75.0336 94.3802 75.0336 93.9742C75.0336 93.5729 75.1082 93.2229 75.2576 92.9242C75.4069 92.6256 75.6122 92.3969 75.8736 92.2382C76.1396 92.0796 76.4406 92.0002 76.7766 92.0002ZM77.0216 92.7002C76.6669 92.7002 76.3822 92.8146 76.1676 93.0432C75.9576 93.2672 75.8526 93.5776 75.8526 93.9742C75.8526 94.3709 75.9576 94.6836 76.1676 94.9122C76.3822 95.1362 76.6669 95.2482 77.0216 95.2482C77.2456 95.2482 77.4462 95.1969 77.6236 95.0942C77.8009 94.9869 77.9409 94.8376 78.0436 94.6462C78.1462 94.4549 78.1976 94.2309 78.1976 93.9742C78.1976 93.7222 78.1462 93.5006 78.0436 93.3092C77.9409 93.1132 77.8009 92.9639 77.6236 92.8612C77.4462 92.7539 77.2456 92.7002 77.0216 92.7002ZM82.3918 93.9882V95.9062H81.5938V90.9642H83.2738C83.8432 90.9642 84.2702 91.0996 84.5548 91.3702C84.8442 91.6409 84.9888 92.0119 84.9888 92.4832C84.9888 92.9499 84.8418 93.3186 84.5478 93.5892C84.2538 93.8552 83.8292 93.9882 83.2738 93.9882H82.3918ZM83.1898 93.3372C83.8478 93.3372 84.1768 93.0526 84.1768 92.4832C84.1768 92.2032 84.0975 91.9909 83.9388 91.8462C83.7848 91.6969 83.5352 91.6222 83.1898 91.6222H82.3918V93.3372H83.1898ZM85.5766 90.9292C85.5766 90.7939 85.6232 90.6819 85.7166 90.5932C85.8099 90.5046 85.9336 90.4602 86.0876 90.4602C86.2416 90.4602 86.3652 90.5046 86.4586 90.5932C86.5566 90.6819 86.6056 90.7939 86.6056 90.9292C86.6056 91.0646 86.5566 91.1742 86.4586 91.2582C86.3652 91.3422 86.2416 91.3842 86.0876 91.3842C85.9336 91.3842 85.8099 91.3422 85.7166 91.2582C85.6232 91.1742 85.5766 91.0646 85.5766 90.9292ZM86.4866 92.0493V95.9062H85.6886V92.0493H86.4866ZM89.1672 92.0002C89.6666 92.0002 90.0796 92.1332 90.4062 92.3992C90.7329 92.6606 90.9359 93.0176 91.0152 93.4702H90.1682C90.1216 93.2276 90.0072 93.0386 89.8252 92.9032C89.6479 92.7632 89.4239 92.6932 89.1532 92.6932C88.8452 92.6932 88.5886 92.8029 88.3832 93.0222C88.1779 93.2369 88.0752 93.5542 88.0752 93.9742C88.0752 94.3942 88.1779 94.7139 88.3832 94.9332C88.5886 95.1526 88.8452 95.2622 89.1532 95.2622C89.4239 95.2622 89.6479 95.1922 89.8252 95.0522C90.0072 94.9122 90.1216 94.7209 90.1682 94.4782H91.0152C90.9359 94.9309 90.7329 95.2902 90.4062 95.5562C90.0796 95.8222 89.6666 95.9553 89.1672 95.9553C88.7939 95.9553 88.4626 95.8759 88.1732 95.7172C87.8886 95.5586 87.6646 95.3299 87.5012 95.0312C87.3379 94.7326 87.2562 94.3802 87.2562 93.9742C87.2562 93.5729 87.3379 93.2229 87.5012 92.9242C87.6646 92.6256 87.8886 92.3969 88.1732 92.2382C88.4626 92.0796 88.7939 92.0002 89.1672 92.0002ZM93.7252 95.2132V95.9062H93.2352C92.8246 95.9062 92.5119 95.8082 92.2972 95.6122C92.0872 95.4116 91.9822 95.0802 91.9822 94.6182V92.7282H91.4292V92.0493H91.9822V91.0902H92.7872V92.0493H93.7182V92.7282H92.7872V94.6322C92.7872 94.8516 92.8269 95.0032 92.9062 95.0872C92.9902 95.1712 93.1349 95.2132 93.3402 95.2132H93.7252ZM98.0287 92.0493V95.9062H97.2237V95.0662C97.1257 95.3509 96.9554 95.5726 96.7127 95.7312C96.4701 95.8853 96.1877 95.9623 95.8657 95.9623C95.4177 95.9623 95.0584 95.8176 94.7877 95.5282C94.5171 95.2389 94.3817 94.8259 94.3817 94.2892V92.0493H95.1797V94.2052C95.1797 94.5552 95.2684 94.8259 95.4457 95.0172C95.6231 95.2039 95.8657 95.2972 96.1737 95.2972C96.4911 95.2972 96.7454 95.1946 96.9367 94.9892C97.1281 94.7839 97.2237 94.4852 97.2237 94.0932V92.0493H98.0287ZM99.7825 92.8052C99.9131 92.5532 100.1 92.3549 100.342 92.2103C100.585 92.0609 100.865 91.9862 101.182 91.9862V92.8542H100.944C100.594 92.8542 100.312 92.9406 100.097 93.1132C99.8875 93.2812 99.7825 93.5612 99.7825 93.9532V95.9062H98.9845V92.0493H99.7825V92.8052ZM105.364 93.7922C105.364 93.9229 105.355 94.0372 105.336 94.1352H102.368C102.382 94.5319 102.492 94.8259 102.697 95.0172C102.903 95.2086 103.157 95.3042 103.46 95.3042C103.726 95.3042 103.95 95.2366 104.132 95.1012C104.319 94.9659 104.433 94.7862 104.475 94.5622H105.329C105.278 94.8329 105.171 95.0732 105.007 95.2832C104.844 95.4932 104.632 95.6589 104.37 95.7802C104.109 95.8969 103.817 95.9553 103.495 95.9553C103.122 95.9553 102.791 95.8759 102.501 95.7172C102.217 95.5586 101.993 95.3299 101.829 95.0312C101.666 94.7326 101.584 94.3802 101.584 93.9742C101.584 93.5729 101.666 93.2229 101.829 92.9242C101.993 92.6256 102.217 92.3969 102.501 92.2382C102.791 92.0796 103.122 92.0002 103.495 92.0002C103.873 92.0002 104.202 92.0796 104.482 92.2382C104.767 92.3922 104.984 92.6069 105.133 92.8822C105.287 93.1529 105.364 93.4562 105.364 93.7922ZM104.559 93.7712C104.569 93.5192 104.524 93.3092 104.426 93.1412C104.333 92.9686 104.202 92.8426 104.034 92.7632C103.871 92.6792 103.691 92.6372 103.495 92.6372C103.183 92.6372 102.921 92.7329 102.711 92.9242C102.501 93.1156 102.387 93.3979 102.368 93.7712H104.559Z" fill="#003366"/>
<circle opacity="0.1" cx="182" cy="68.9062" r="13" fill="#003366"/>
<path d="M178.061 63.25C177.175 63.25 176.457 63.9681 176.457 64.8542V72C176.457 72.9666 177.24 73.75 178.207 73.75H185.79C186.757 73.75 187.54 72.9666 187.54 72V70.2603L186.374 71.4269V72C186.374 72.3223 186.113 72.5833 185.79 72.5833H178.207C177.885 72.5833 177.624 72.3223 177.624 72V65.875H186.374V66.7751C186.577 66.6284 186.803 66.5283 187.04 66.4857C187.139 66.4676 187.24 66.4586 187.34 66.4583H187.343C187.41 66.4583 187.475 66.4698 187.54 66.4777V64.8542C187.54 63.9681 186.822 63.25 185.936 63.25H178.061ZM178.061 64.125C178.303 64.125 178.499 64.321 178.499 64.5625C178.499 64.804 178.303 65 178.061 65C177.82 65 177.624 64.804 177.624 64.5625C177.624 64.321 177.82 64.125 178.061 64.125ZM179.52 64.125C179.761 64.125 179.957 64.321 179.957 64.5625C179.957 64.804 179.761 65 179.52 65C179.278 65 179.082 64.804 179.082 64.5625C179.082 64.321 179.278 64.125 179.52 64.125ZM187.341 67.0417C187.276 67.0417 187.209 67.0479 187.143 67.0599C186.932 67.0978 186.73 67.2074 186.56 67.3778L184.036 69.9019C183.951 69.9871 183.888 70.0932 183.855 70.2084L183.48 71.5164C183.463 71.5616 183.455 71.6098 183.456 71.6576C183.459 71.7443 183.494 71.8301 183.56 71.8963C183.626 71.9622 183.712 71.9962 183.798 71.9994C183.846 72.0012 183.895 71.9939 183.94 71.9766L185.248 71.6018C185.363 71.5686 185.469 71.5061 185.555 71.4207L188.079 68.8965C188.249 68.7264 188.359 68.5246 188.397 68.3137C188.409 68.2475 188.415 68.1814 188.415 68.116C188.416 67.8311 188.306 67.5617 188.1 67.3567C187.895 67.1514 187.626 67.0414 187.341 67.0417ZM178.638 68.2021C178.522 68.2039 178.411 68.2516 178.331 68.3348C178.25 68.418 178.205 68.5299 178.207 68.6458V70.8333C178.207 71.4725 178.735 72 179.374 72C180.013 72 180.54 71.4725 180.54 70.8333V70.25C180.54 70.0835 180.666 69.9583 180.832 69.9583C180.998 69.9583 181.124 70.0835 181.124 70.25V70.8333C181.124 71.4725 181.651 72 182.29 72H182.436C182.494 72.0008 182.552 71.9901 182.606 71.9685C182.659 71.9469 182.708 71.9148 182.75 71.8741C182.791 71.8334 182.824 71.7849 182.846 71.7314C182.868 71.6779 182.88 71.6205 182.88 71.5625C182.88 71.5045 182.868 71.4471 182.846 71.3936C182.824 71.3401 182.791 71.2916 182.75 71.2509C182.708 71.2102 182.659 71.1781 182.606 71.1565C182.552 71.1349 182.494 71.1242 182.436 71.125H182.29C182.124 71.125 181.999 70.9998 181.999 70.8333V70.25C181.999 69.6109 181.471 69.0833 180.832 69.0833C180.193 69.0833 179.665 69.6109 179.665 70.25V70.8333C179.665 70.9998 179.54 71.125 179.374 71.125C179.207 71.125 179.082 70.9998 179.082 70.8333V68.6458C179.083 68.5873 179.072 68.5291 179.05 68.4749C179.028 68.4206 178.995 68.3714 178.954 68.33C178.912 68.2886 178.863 68.2559 178.809 68.234C178.754 68.212 178.696 68.2012 178.638 68.2021Z" fill="#003366"/>
<path d="M152.775 90.9642V93.8972C152.775 94.3359 152.87 94.6626 153.062 94.8773C153.258 95.0919 153.531 95.1992 153.881 95.1992C154.226 95.1992 154.494 95.0919 154.686 94.8773C154.882 94.6626 154.98 94.3359 154.98 93.8972V90.9642H155.778V93.8972C155.778 94.5739 155.603 95.0872 155.253 95.4372C154.903 95.7826 154.441 95.9553 153.867 95.9553C153.297 95.9553 152.84 95.7826 152.495 95.4372C152.149 95.0872 151.977 94.5739 151.977 93.8972V90.9642H152.775ZM158.92 92.0002C159.256 92.0002 159.555 92.0796 159.816 92.2382C160.082 92.3969 160.29 92.6256 160.439 92.9242C160.588 93.2229 160.663 93.5729 160.663 93.9742C160.663 94.3802 160.588 94.7326 160.439 95.0312C160.29 95.3299 160.082 95.5586 159.816 95.7172C159.555 95.8759 159.256 95.9553 158.92 95.9553C158.57 95.9553 158.271 95.8689 158.024 95.6962C157.777 95.5236 157.604 95.2949 157.506 95.0102V97.7403H156.708V92.0493H157.506V92.9452C157.604 92.6606 157.777 92.4319 158.024 92.2592C158.271 92.0866 158.57 92.0002 158.92 92.0002ZM158.675 92.7002C158.451 92.7002 158.25 92.7539 158.073 92.8612C157.896 92.9639 157.756 93.1132 157.653 93.3092C157.55 93.5006 157.499 93.7222 157.499 93.9742C157.499 94.2309 157.55 94.4549 157.653 94.6462C157.756 94.8376 157.896 94.9869 158.073 95.0942C158.25 95.1969 158.451 95.2482 158.675 95.2482C159.03 95.2482 159.314 95.1362 159.529 94.9122C159.744 94.6836 159.851 94.3709 159.851 93.9742C159.851 93.5822 159.744 93.2719 159.529 93.0432C159.314 92.8146 159.03 92.7002 158.675 92.7002ZM162.23 90.7262V95.9062H161.432V90.7262H162.23ZM164.959 92.0002C165.333 92.0002 165.669 92.0796 165.967 92.2382C166.266 92.3969 166.499 92.6256 166.667 92.9242C166.835 93.2229 166.919 93.5729 166.919 93.9742C166.919 94.3802 166.835 94.7326 166.667 95.0312C166.499 95.3299 166.266 95.5586 165.967 95.7172C165.669 95.8759 165.333 95.9553 164.959 95.9553C164.586 95.9553 164.25 95.8759 163.951 95.7172C163.657 95.5586 163.424 95.3299 163.251 95.0312C163.083 94.7279 162.999 94.3756 162.999 93.9742C162.999 93.5729 163.083 93.2229 163.251 92.9242C163.424 92.6256 163.657 92.3969 163.951 92.2382C164.25 92.0796 164.586 92.0002 164.959 92.0002ZM164.959 92.6932C164.754 92.6932 164.565 92.7399 164.392 92.8332C164.22 92.9266 164.08 93.0712 163.972 93.2672C163.87 93.4586 163.818 93.6942 163.818 93.9742C163.818 94.2589 163.87 94.4969 163.972 94.6882C164.08 94.8796 164.22 95.0219 164.392 95.1152C164.565 95.2086 164.754 95.2552 164.959 95.2552C165.165 95.2552 165.354 95.2086 165.526 95.1152C165.699 95.0219 165.837 94.8796 165.939 94.6882C166.047 94.4969 166.1 94.2589 166.1 93.9742C166.1 93.6942 166.047 93.4586 165.939 93.2672C165.837 93.0712 165.699 92.9266 165.526 92.8332C165.354 92.7399 165.165 92.6932 164.959 92.6932ZM169.234 92.0002C169.584 92.0002 169.882 92.0866 170.13 92.2592C170.377 92.4319 170.552 92.6606 170.655 92.9452V92.0493H171.453V95.9062H170.655V95.0102C170.552 95.2949 170.377 95.5236 170.13 95.6962C169.882 95.8689 169.584 95.9553 169.234 95.9553C168.898 95.9553 168.597 95.8759 168.331 95.7172C168.069 95.5586 167.864 95.3299 167.715 95.0312C167.565 94.7326 167.491 94.3802 167.491 93.9742C167.491 93.5729 167.565 93.2229 167.715 92.9242C167.864 92.6256 168.069 92.3969 168.331 92.2382C168.597 92.0796 168.898 92.0002 169.234 92.0002ZM169.479 92.7002C169.124 92.7002 168.839 92.8146 168.625 93.0432C168.415 93.2672 168.31 93.5776 168.31 93.9742C168.31 94.3709 168.415 94.6836 168.625 94.9122C168.839 95.1362 169.124 95.2482 169.479 95.2482C169.703 95.2482 169.903 95.1969 170.081 95.0942C170.258 94.9869 170.398 94.8376 170.501 94.6462C170.603 94.4549 170.655 94.2309 170.655 93.9742C170.655 93.7222 170.603 93.5006 170.501 93.3092C170.398 93.1132 170.258 92.9639 170.081 92.8612C169.903 92.7539 169.703 92.7002 169.479 92.7002ZM173.957 92.0002C174.307 92.0002 174.606 92.0866 174.853 92.2592C175.101 92.4319 175.273 92.6606 175.371 92.9452V90.7262H176.176V95.9062H175.371V95.0102C175.273 95.2949 175.101 95.5236 174.853 95.6962C174.606 95.8689 174.307 95.9553 173.957 95.9553C173.621 95.9553 173.32 95.8759 173.054 95.7172C172.793 95.5586 172.588 95.3299 172.438 95.0312C172.289 94.7326 172.214 94.3802 172.214 93.9742C172.214 93.5729 172.289 93.2229 172.438 92.9242C172.588 92.6256 172.793 92.3969 173.054 92.2382C173.32 92.0796 173.621 92.0002 173.957 92.0002ZM174.202 92.7002C173.848 92.7002 173.563 92.8146 173.348 93.0432C173.138 93.2672 173.033 93.5776 173.033 93.9742C173.033 94.3709 173.138 94.6836 173.348 94.9122C173.563 95.1362 173.848 95.2482 174.202 95.2482C174.426 95.2482 174.627 95.1969 174.804 95.0942C174.982 94.9869 175.122 94.8376 175.224 94.6462C175.327 94.4549 175.378 94.2309 175.378 93.9742C175.378 93.7222 175.327 93.5006 175.224 93.3092C175.122 93.1132 174.982 92.9639 174.804 92.8612C174.627 92.7539 174.426 92.7002 174.202 92.7002ZM182.023 94.5902C182.023 94.8329 181.964 95.0592 181.848 95.2692C181.731 95.4746 181.554 95.6402 181.316 95.7662C181.078 95.8922 180.786 95.9553 180.441 95.9553C180.105 95.9553 179.804 95.8969 179.538 95.7802C179.272 95.6589 179.059 95.4909 178.901 95.2762C178.742 95.0616 178.651 94.8142 178.628 94.5342H179.482C179.505 94.7489 179.596 94.9332 179.755 95.0872C179.918 95.2412 180.135 95.3182 180.406 95.3182C180.648 95.3182 180.835 95.2529 180.966 95.1222C181.101 94.9916 181.169 94.8236 181.169 94.6182C181.169 94.4409 181.12 94.2962 181.022 94.1842C180.924 94.0676 180.802 93.9766 180.658 93.9112C180.513 93.8459 180.315 93.7712 180.063 93.6872C179.755 93.5892 179.503 93.4912 179.307 93.3932C179.115 93.2952 178.952 93.1529 178.817 92.9662C178.681 92.7796 178.614 92.5346 178.614 92.2312C178.614 91.9652 178.679 91.7319 178.81 91.5312C178.94 91.3306 179.127 91.1766 179.37 91.0692C179.612 90.9572 179.892 90.9012 180.21 90.9012C180.714 90.9012 181.113 91.0226 181.407 91.2652C181.705 91.5079 181.876 91.8252 181.918 92.2172H181.057C181.024 92.0306 180.935 91.8719 180.791 91.7412C180.651 91.6059 180.457 91.5382 180.21 91.5382C179.986 91.5382 179.806 91.5966 179.671 91.7132C179.535 91.8252 179.468 91.9886 179.468 92.2032C179.468 92.3712 179.514 92.5112 179.608 92.6232C179.701 92.7306 179.818 92.8169 179.958 92.8822C180.102 92.9429 180.298 93.0152 180.546 93.0992C180.858 93.1972 181.113 93.2976 181.309 93.4002C181.509 93.4982 181.677 93.6429 181.813 93.8342C181.953 94.0256 182.023 94.2776 182.023 94.5902ZM182.709 90.9292C182.709 90.7939 182.756 90.6819 182.849 90.5932C182.943 90.5046 183.066 90.4602 183.22 90.4602C183.374 90.4602 183.498 90.5046 183.591 90.5932C183.689 90.6819 183.738 90.7939 183.738 90.9292C183.738 91.0646 183.689 91.1742 183.591 91.2582C183.498 91.3422 183.374 91.3842 183.22 91.3842C183.066 91.3842 182.943 91.3422 182.849 91.2582C182.756 91.1742 182.709 91.0646 182.709 90.9292ZM183.619 92.0493V95.9062H182.821V92.0493H183.619ZM186.132 92.0002C186.482 92.0002 186.781 92.0866 187.028 92.2592C187.275 92.4319 187.45 92.6606 187.553 92.9452V92.0493H188.351V95.9483C188.351 96.3076 188.276 96.6249 188.127 96.9003C187.982 97.1803 187.772 97.3996 187.497 97.5583C187.222 97.7169 186.895 97.7963 186.517 97.7963C185.976 97.7963 185.537 97.6679 185.201 97.4113C184.87 97.1546 184.662 96.8069 184.578 96.3682H185.369C185.434 96.5969 185.56 96.7743 185.747 96.9003C185.934 97.0309 186.172 97.0963 186.461 97.0963C186.778 97.0963 187.04 96.9983 187.245 96.8023C187.45 96.6063 187.553 96.3216 187.553 95.9483V95.0102C187.45 95.2949 187.275 95.5236 187.028 95.6962C186.781 95.8689 186.482 95.9553 186.132 95.9553C185.796 95.9553 185.495 95.8759 185.229 95.7172C184.968 95.5586 184.762 95.3299 184.613 95.0312C184.464 94.7326 184.389 94.3802 184.389 93.9742C184.389 93.5729 184.464 93.2229 184.613 92.9242C184.762 92.6256 184.968 92.3969 185.229 92.2382C185.495 92.0796 185.796 92.0002 186.132 92.0002ZM186.377 92.7002C186.022 92.7002 185.738 92.8146 185.523 93.0432C185.313 93.2672 185.208 93.5776 185.208 93.9742C185.208 94.3709 185.313 94.6836 185.523 94.9122C185.738 95.1362 186.022 95.2482 186.377 95.2482C186.601 95.2482 186.802 95.1969 186.979 95.0942C187.156 94.9869 187.296 94.8376 187.399 94.6462C187.502 94.4549 187.553 94.2309 187.553 93.9742C187.553 93.7222 187.502 93.5006 187.399 93.3092C187.296 93.1132 187.156 92.9639 186.979 92.8612C186.802 92.7539 186.601 92.7002 186.377 92.7002ZM191.465 91.9862C191.913 91.9862 192.272 92.1309 192.543 92.4202C192.813 92.7096 192.949 93.1226 192.949 93.6592V95.9062H192.151V93.7432C192.151 93.3979 192.062 93.1319 191.885 92.9452C191.707 92.7539 191.465 92.6582 191.157 92.6582C190.839 92.6582 190.585 92.7609 190.394 92.9662C190.202 93.1669 190.107 93.4632 190.107 93.8552V95.9062H189.309V92.0493H190.107V92.8962C190.209 92.6069 190.382 92.3829 190.625 92.2242C190.867 92.0656 191.147 91.9862 191.465 91.9862ZM195.429 92.0002C195.779 92.0002 196.078 92.0866 196.325 92.2592C196.572 92.4319 196.747 92.6606 196.85 92.9452V92.0493H197.648V95.9062H196.85V95.0102C196.747 95.2949 196.572 95.5236 196.325 95.6962C196.078 95.8689 195.779 95.9553 195.429 95.9553C195.093 95.9553 194.792 95.8759 194.526 95.7172C194.265 95.5586 194.059 95.3299 193.91 95.0312C193.761 94.7326 193.686 94.3802 193.686 93.9742C193.686 93.5729 193.761 93.2229 193.91 92.9242C194.059 92.6256 194.265 92.3969 194.526 92.2382C194.792 92.0796 195.093 92.0002 195.429 92.0002ZM195.674 92.7002C195.319 92.7002 195.035 92.8146 194.82 93.0432C194.61 93.2672 194.505 93.5776 194.505 93.9742C194.505 94.3709 194.61 94.6836 194.82 94.9122C195.035 95.1362 195.319 95.2482 195.674 95.2482C195.898 95.2482 196.099 95.1969 196.276 95.0942C196.453 94.9869 196.593 94.8376 196.696 94.6462C196.799 94.4549 196.85 94.2309 196.85 93.9742C196.85 93.7222 196.799 93.5006 196.696 93.3092C196.593 93.1132 196.453 92.9639 196.276 92.8612C196.099 92.7539 195.898 92.7002 195.674 92.7002ZM200.545 95.2132V95.9062H200.055C199.644 95.9062 199.331 95.8082 199.117 95.6122C198.907 95.4116 198.802 95.0802 198.802 94.6182V92.7282H198.249V92.0493H198.802V91.0902H199.607V92.0493H200.538V92.7282H199.607V94.6322C199.607 94.8516 199.646 95.0032 199.726 95.0872C199.81 95.1712 199.954 95.2132 200.16 95.2132H200.545ZM204.848 92.0493V95.9062H204.043V95.0662C203.945 95.3509 203.775 95.5726 203.532 95.7312C203.289 95.8853 203.007 95.9623 202.685 95.9623C202.237 95.9623 201.878 95.8176 201.607 95.5282C201.336 95.2389 201.201 94.8259 201.201 94.2892V92.0493H201.999V94.2052C201.999 94.5552 202.088 94.8259 202.265 95.0172C202.442 95.2039 202.685 95.2972 202.993 95.2972C203.31 95.2972 203.565 95.1946 203.756 94.9892C203.947 94.7839 204.043 94.4852 204.043 94.0932V92.0493H204.848ZM206.602 92.8052C206.732 92.5532 206.919 92.3549 207.162 92.2103C207.404 92.0609 207.684 91.9862 208.002 91.9862V92.8542H207.764C207.414 92.8542 207.131 92.9406 206.917 93.1132C206.707 93.2812 206.602 93.5612 206.602 93.9532V95.9062H205.804V92.0493H206.602V92.8052ZM212.184 93.7922C212.184 93.9229 212.174 94.0372 212.156 94.1352H209.188C209.202 94.5319 209.311 94.8259 209.517 95.0172C209.722 95.2086 209.976 95.3042 210.28 95.3042C210.546 95.3042 210.77 95.2366 210.952 95.1012C211.138 94.9659 211.253 94.7862 211.295 94.5622H212.149C212.097 94.8329 211.99 95.0732 211.827 95.2832C211.663 95.4932 211.451 95.6589 211.19 95.7802C210.928 95.8969 210.637 95.9553 210.315 95.9553C209.941 95.9553 209.61 95.8759 209.321 95.7172C209.036 95.5586 208.812 95.3299 208.649 95.0312C208.485 94.7326 208.404 94.3802 208.404 93.9742C208.404 93.5729 208.485 93.2229 208.649 92.9242C208.812 92.6256 209.036 92.3969 209.321 92.2382C209.61 92.0796 209.941 92.0002 210.315 92.0002C210.693 92.0002 211.022 92.0796 211.302 92.2382C211.586 92.3922 211.803 92.6069 211.953 92.8822C212.107 93.1529 212.184 93.4562 212.184 93.7922ZM211.379 93.7712C211.388 93.5192 211.344 93.3092 211.246 93.1412C211.152 92.9686 211.022 92.8426 210.854 92.7632C210.69 92.6792 210.511 92.6372 210.315 92.6372C210.002 92.6372 209.741 92.7329 209.531 92.9242C209.321 93.1156 209.206 93.3979 209.188 93.7712H211.379Z" fill="#003366"/>
<circle opacity="0.1" cx="80" cy="123.906" r="13" fill="#003366"/>
<path d="M76.3282 120.5C76.2398 120.501 76.1557 120.533 76.0941 120.588C76.0326 120.644 75.9988 120.718 76 120.796V127.205C75.9994 127.243 76.0076 127.281 76.024 127.317C76.0405 127.353 76.065 127.386 76.096 127.413C76.127 127.441 76.164 127.463 76.2047 127.477C76.2455 127.492 76.2892 127.5 76.3334 127.5C76.3775 127.5 76.4213 127.492 76.462 127.477C76.5028 127.463 76.5397 127.441 76.5707 127.413C76.6018 127.386 76.6262 127.353 76.6427 127.317C76.6592 127.281 76.6673 127.243 76.6667 127.205V120.796C76.6673 120.757 76.659 120.718 76.6422 120.682C76.6254 120.646 76.6005 120.613 76.5689 120.585C76.5374 120.558 76.4998 120.536 76.4584 120.521C76.4171 120.507 76.3728 120.499 76.3282 120.5ZM78.5504 120.5C78.462 120.501 78.3779 120.533 78.3163 120.588C78.2548 120.644 78.221 120.718 78.2222 120.796V127.205C78.2216 127.243 78.2298 127.281 78.2462 127.317C78.2627 127.353 78.2872 127.386 78.3182 127.413C78.3492 127.441 78.3862 127.463 78.4269 127.477C78.4677 127.492 78.5114 127.5 78.5556 127.5C78.5997 127.5 78.6435 127.492 78.6842 127.477C78.725 127.463 78.7619 127.441 78.793 127.413C78.824 127.386 78.8484 127.353 78.8649 127.317C78.8814 127.281 78.8895 127.243 78.8889 127.205V120.796C78.8895 120.757 78.8812 120.718 78.8644 120.682C78.8476 120.646 78.8227 120.613 78.7911 120.585C78.7596 120.558 78.722 120.536 78.6806 120.521C78.6393 120.507 78.595 120.499 78.5504 120.5ZM82.3281 120.5C82.2398 120.501 82.1556 120.533 82.0941 120.588C82.0326 120.644 81.9987 120.718 82 120.796V127.205C81.9994 127.243 82.0075 127.281 82.024 127.317C82.0405 127.353 82.0649 127.386 82.0959 127.413C82.1269 127.441 82.1639 127.463 82.2047 127.477C82.2454 127.492 82.2891 127.5 82.3333 127.5C82.3775 127.5 82.4212 127.492 82.462 127.477C82.5027 127.463 82.5397 127.441 82.5707 127.413C82.6017 127.386 82.6262 127.353 82.6426 127.317C82.6591 127.281 82.6673 127.243 82.6666 127.205V120.796C82.6673 120.757 82.659 120.718 82.6422 120.682C82.6254 120.646 82.6005 120.613 82.5689 120.585C82.5373 120.558 82.4997 120.536 82.4584 120.521C82.417 120.507 82.3727 120.499 82.3281 120.5ZM83.6614 120.5C83.5731 120.501 83.4889 120.533 83.4274 120.588C83.3659 120.644 83.332 120.718 83.3333 120.796V127.205C83.3327 127.243 83.3408 127.281 83.3573 127.317C83.3738 127.353 83.3982 127.386 83.4293 127.413C83.4603 127.441 83.4972 127.463 83.538 127.477C83.5787 127.492 83.6225 127.5 83.6666 127.5C83.7108 127.5 83.7545 127.492 83.7953 127.477C83.836 127.463 83.873 127.441 83.904 127.413C83.935 127.386 83.9595 127.353 83.976 127.317C83.9924 127.281 84.0006 127.243 84 127.205V120.796C84.0006 120.757 83.9923 120.718 83.9755 120.682C83.9587 120.646 83.9338 120.613 83.9022 120.585C83.8706 120.558 83.8331 120.536 83.7917 120.521C83.7503 120.507 83.706 120.499 83.6614 120.5ZM77.3299 120.502C77.271 120.502 77.2149 120.524 77.1739 120.56C77.1329 120.597 77.1103 120.647 77.1111 120.698V127.302C77.1107 127.327 77.1162 127.353 77.1271 127.377C77.1381 127.401 77.1544 127.422 77.1751 127.441C77.1958 127.459 77.2204 127.474 77.2476 127.484C77.2748 127.494 77.3039 127.499 77.3334 127.499C77.3628 127.499 77.392 127.494 77.4191 127.484C77.4463 127.474 77.4709 127.459 77.4916 127.441C77.5123 127.422 77.5286 127.401 77.5396 127.377C77.5506 127.353 77.556 127.327 77.5556 127.302V120.698C77.556 120.672 77.5504 120.647 77.5392 120.623C77.528 120.599 77.5114 120.577 77.4904 120.558C77.4693 120.54 77.4443 120.525 77.4167 120.516C77.3891 120.506 77.3596 120.501 77.3299 120.502ZM79.7778 120.504C79.6551 120.504 79.5556 120.591 79.5556 120.698V127.302C79.5556 127.409 79.6551 127.496 79.7778 127.496H81.1111C81.2338 127.496 81.3333 127.409 81.3333 127.302V120.698C81.3333 120.591 81.2338 120.504 81.1111 120.504H79.7778Z" fill="#003366"/>
<path d="M75.65 117.906C74.7441 117.906 74 118.65 74 119.556V121.656C73.9992 121.716 74.0102 121.775 74.0325 121.83C74.0547 121.886 74.0877 121.936 74.1296 121.979C74.1714 122.021 74.2213 122.055 74.2764 122.078C74.3314 122.101 74.3904 122.113 74.45 122.113C74.5097 122.113 74.5687 122.101 74.6237 122.078C74.6788 122.055 74.7286 122.021 74.7705 121.979C74.8124 121.936 74.8454 121.886 74.8676 121.83C74.8899 121.775 74.9009 121.716 74.9 121.656V119.556C74.9 119.137 75.2306 118.806 75.65 118.806H77.75C77.8096 118.807 77.8689 118.796 77.9242 118.774C77.9795 118.752 78.0299 118.719 78.0724 118.677C78.1148 118.635 78.1485 118.585 78.1716 118.53C78.1946 118.475 78.2064 118.416 78.2064 118.356C78.2064 118.297 78.1946 118.238 78.1716 118.183C78.1485 118.128 78.1148 118.078 78.0724 118.036C78.0299 117.994 77.9795 117.961 77.9242 117.939C77.8689 117.916 77.8096 117.905 77.75 117.906H75.65ZM82.25 117.906C82.1904 117.905 82.1312 117.916 82.0758 117.939C82.0205 117.961 81.9701 117.994 81.9277 118.036C81.8852 118.078 81.8515 118.128 81.8284 118.183C81.8054 118.238 81.7936 118.297 81.7936 118.356C81.7936 118.416 81.8054 118.475 81.8284 118.53C81.8515 118.585 81.8852 118.635 81.9277 118.677C81.9701 118.719 82.0205 118.752 82.0758 118.774C82.1312 118.796 82.1904 118.807 82.25 118.806H84.35C84.7694 118.806 85.1 119.137 85.1 119.556V121.656C85.0991 121.716 85.1101 121.775 85.1324 121.83C85.1546 121.886 85.1876 121.936 85.2295 121.979C85.2714 122.021 85.3213 122.055 85.3763 122.078C85.4313 122.101 85.4903 122.113 85.55 122.113C85.6096 122.113 85.6686 122.101 85.7237 122.078C85.7787 122.055 85.8286 122.021 85.8704 121.979C85.9123 121.936 85.9453 121.886 85.9675 121.83C85.9898 121.775 86.0008 121.716 86 121.656V119.556C86 118.65 85.2559 117.906 84.35 117.906H82.25ZM74.443 125.7C74.3238 125.702 74.2101 125.751 74.1271 125.836C74.044 125.922 73.9983 126.037 74 126.156V128.256C74 129.162 74.7441 129.906 75.65 129.906H77.75C77.8096 129.907 77.8689 129.896 77.9242 129.874C77.9795 129.852 78.0299 129.819 78.0724 129.777C78.1148 129.735 78.1485 129.685 78.1716 129.63C78.1946 129.575 78.2064 129.516 78.2064 129.456C78.2064 129.397 78.1946 129.338 78.1716 129.283C78.1485 129.227 78.1148 129.178 78.0724 129.136C78.0299 129.094 77.9795 129.061 77.9242 129.039C77.8689 129.016 77.8096 129.005 77.75 129.006H75.65C75.2306 129.006 74.9 128.676 74.9 128.256V126.156C74.9009 126.096 74.8897 126.036 74.867 125.98C74.8443 125.925 74.8107 125.874 74.7681 125.831C74.7254 125.789 74.6747 125.755 74.6189 125.733C74.563 125.71 74.5032 125.699 74.443 125.7ZM85.5429 125.7C85.4237 125.702 85.3101 125.751 85.227 125.836C85.1439 125.922 85.0983 126.037 85.1 126.156V128.256C85.1 128.676 84.7694 129.006 84.35 129.006H82.25C82.1904 129.005 82.1312 129.016 82.0758 129.039C82.0205 129.061 81.9701 129.094 81.9277 129.136C81.8852 129.178 81.8515 129.227 81.8284 129.283C81.8054 129.338 81.7936 129.397 81.7936 129.456C81.7936 129.516 81.8054 129.575 81.8284 129.63C81.8515 129.685 81.8852 129.735 81.9277 129.777C81.9701 129.819 82.0205 129.852 82.0758 129.874C82.1312 129.896 82.1904 129.907 82.25 129.906H84.35C85.2559 129.906 86 129.162 86 128.256V126.156C86.0008 126.096 85.9896 126.036 85.9669 125.98C85.9442 125.925 85.9106 125.874 85.868 125.831C85.8254 125.789 85.7746 125.755 85.7188 125.733C85.663 125.71 85.6032 125.699 85.5429 125.7Z" fill="#003366"/>
<path d="M64.6246 149.59C64.6246 149.833 64.5662 150.059 64.4496 150.269C64.3329 150.475 64.1556 150.64 63.9176 150.766C63.6796 150.892 63.3879 150.955 63.0426 150.955C62.7066 150.955 62.4056 150.897 62.1396 150.78C61.8736 150.659 61.6612 150.491 61.5026 150.276C61.3439 150.062 61.2529 149.814 61.2296 149.534H62.0836C62.1069 149.749 62.1979 149.933 62.3566 150.087C62.5199 150.241 62.7369 150.318 63.0076 150.318C63.2502 150.318 63.4369 150.253 63.5676 150.122C63.7029 149.992 63.7706 149.824 63.7706 149.618C63.7706 149.441 63.7216 149.296 63.6236 149.184C63.5256 149.068 63.4042 148.977 63.2596 148.911C63.1149 148.846 62.9166 148.771 62.6646 148.687C62.3566 148.589 62.1046 148.491 61.9086 148.393C61.7172 148.295 61.5539 148.153 61.4186 147.966C61.2832 147.78 61.2156 147.535 61.2156 147.231C61.2156 146.965 61.2809 146.732 61.4116 146.531C61.5422 146.331 61.7289 146.177 61.9716 146.069C62.2142 145.957 62.4942 145.901 62.8116 145.901C63.3156 145.901 63.7146 146.023 64.0086 146.265C64.3072 146.508 64.4776 146.825 64.5196 147.217H63.6586C63.6259 147.031 63.5372 146.872 63.3926 146.741C63.2526 146.606 63.0589 146.538 62.8116 146.538C62.5876 146.538 62.4079 146.597 62.2726 146.713C62.1372 146.825 62.0696 146.989 62.0696 147.203C62.0696 147.371 62.1162 147.511 62.2096 147.623C62.3029 147.731 62.4196 147.817 62.5596 147.882C62.7042 147.943 62.9002 148.015 63.1476 148.099C63.4602 148.197 63.7146 148.298 63.9106 148.4C64.1112 148.498 64.2792 148.643 64.4146 148.834C64.5546 149.026 64.6246 149.278 64.6246 149.59ZM67.1384 147C67.6378 147 68.0508 147.133 68.3774 147.399C68.7041 147.661 68.9071 148.018 68.9864 148.47H68.1394C68.0928 148.228 67.9784 148.039 67.7964 147.903C67.6191 147.763 67.3951 147.693 67.1244 147.693C66.8164 147.693 66.5598 147.803 66.3544 148.022C66.1491 148.237 66.0464 148.554 66.0464 148.974C66.0464 149.394 66.1491 149.714 66.3544 149.933C66.5598 150.153 66.8164 150.262 67.1244 150.262C67.3951 150.262 67.6191 150.192 67.7964 150.052C67.9784 149.912 68.0928 149.721 68.1394 149.478H68.9864C68.9071 149.931 68.7041 150.29 68.3774 150.556C68.0508 150.822 67.6378 150.955 67.1384 150.955C66.7651 150.955 66.4338 150.876 66.1444 150.717C65.8598 150.559 65.6358 150.33 65.4724 150.031C65.3091 149.733 65.2274 149.38 65.2274 148.974C65.2274 148.573 65.3091 148.223 65.4724 147.924C65.6358 147.626 65.8598 147.397 66.1444 147.238C66.4338 147.08 66.7651 147 67.1384 147ZM71.3044 147C71.6544 147 71.9531 147.087 72.2004 147.259C72.4477 147.432 72.6227 147.661 72.7254 147.945V147.049H73.5234V150.906H72.7254V150.01C72.6227 150.295 72.4477 150.524 72.2004 150.696C71.9531 150.869 71.6544 150.955 71.3044 150.955C70.9684 150.955 70.6674 150.876 70.4014 150.717C70.1401 150.559 69.9347 150.33 69.7854 150.031C69.6361 149.733 69.5614 149.38 69.5614 148.974C69.5614 148.573 69.6361 148.223 69.7854 147.924C69.9347 147.626 70.1401 147.397 70.4014 147.238C70.6674 147.08 70.9684 147 71.3044 147ZM71.5494 147.7C71.1947 147.7 70.9101 147.815 70.6954 148.043C70.4854 148.267 70.3804 148.578 70.3804 148.974C70.3804 149.371 70.4854 149.684 70.6954 149.912C70.9101 150.136 71.1947 150.248 71.5494 150.248C71.7734 150.248 71.9741 150.197 72.1514 150.094C72.3287 149.987 72.4687 149.838 72.5714 149.646C72.6741 149.455 72.7254 149.231 72.7254 148.974C72.7254 148.722 72.6741 148.501 72.5714 148.309C72.4687 148.113 72.3287 147.964 72.1514 147.861C71.9741 147.754 71.7734 147.7 71.5494 147.7ZM76.637 146.986C77.085 146.986 77.4444 147.131 77.715 147.42C77.9857 147.71 78.121 148.123 78.121 148.659V150.906H77.323V148.743C77.323 148.398 77.2344 148.132 77.057 147.945C76.8797 147.754 76.637 147.658 76.329 147.658C76.0117 147.658 75.7574 147.761 75.566 147.966C75.3747 148.167 75.279 148.463 75.279 148.855V150.906H74.481V147.049H75.279V147.896C75.3817 147.607 75.5544 147.383 75.797 147.224C76.0397 147.066 76.3197 146.986 76.637 146.986ZM82.8999 145.915C83.5066 145.915 84.0106 146.069 84.4119 146.377C84.8132 146.685 85.0839 147.103 85.2239 147.63H84.3769C84.2602 147.332 84.0736 147.096 83.8169 146.923C83.5649 146.746 83.2546 146.657 82.8859 146.657C82.5919 146.657 82.3282 146.73 82.0949 146.874C81.8662 147.019 81.6842 147.227 81.5489 147.497C81.4182 147.763 81.3529 148.076 81.3529 148.435C81.3529 148.79 81.4182 149.103 81.5489 149.373C81.6842 149.639 81.8662 149.845 82.0949 149.989C82.3282 150.134 82.5919 150.206 82.8859 150.206C83.2546 150.206 83.5649 150.12 83.8169 149.947C84.0736 149.77 84.2602 149.534 84.3769 149.24H85.2239C85.0839 149.768 84.8132 150.185 84.4119 150.493C84.0106 150.797 83.5066 150.948 82.8999 150.948C82.4332 150.948 82.0202 150.843 81.6609 150.633C81.3016 150.419 81.0239 150.122 80.8279 149.744C80.6319 149.362 80.5339 148.925 80.5339 148.435C80.5339 147.945 80.6319 147.511 80.8279 147.133C81.0239 146.751 81.3016 146.452 81.6609 146.237C82.0202 146.023 82.4332 145.915 82.8999 145.915ZM87.7841 147C88.1574 147 88.4934 147.08 88.7921 147.238C89.0908 147.397 89.3241 147.626 89.4921 147.924C89.6601 148.223 89.7441 148.573 89.7441 148.974C89.7441 149.38 89.6601 149.733 89.4921 150.031C89.3241 150.33 89.0908 150.559 88.7921 150.717C88.4934 150.876 88.1574 150.955 87.7841 150.955C87.4108 150.955 87.0748 150.876 86.7761 150.717C86.4821 150.559 86.2488 150.33 86.0761 150.031C85.9081 149.728 85.8241 149.376 85.8241 148.974C85.8241 148.573 85.9081 148.223 86.0761 147.924C86.2488 147.626 86.4821 147.397 86.7761 147.238C87.0748 147.08 87.4108 147 87.7841 147ZM87.7841 147.693C87.5788 147.693 87.3898 147.74 87.2171 147.833C87.0444 147.927 86.9044 148.071 86.7971 148.267C86.6944 148.459 86.6431 148.694 86.6431 148.974C86.6431 149.259 86.6944 149.497 86.7971 149.688C86.9044 149.88 87.0444 150.022 87.2171 150.115C87.3898 150.209 87.5788 150.255 87.7841 150.255C87.9894 150.255 88.1784 150.209 88.3511 150.115C88.5238 150.022 88.6614 149.88 88.7641 149.688C88.8714 149.497 88.9251 149.259 88.9251 148.974C88.9251 148.694 88.8714 148.459 88.7641 148.267C88.6614 148.071 88.5238 147.927 88.3511 147.833C88.1784 147.74 87.9894 147.693 87.7841 147.693ZM92.0583 147C92.4083 147 92.707 147.087 92.9543 147.259C93.2017 147.432 93.3743 147.661 93.4723 147.945V145.726H94.2773V150.906H93.4723V150.01C93.3743 150.295 93.2017 150.524 92.9543 150.696C92.707 150.869 92.4083 150.955 92.0583 150.955C91.7223 150.955 91.4213 150.876 91.1553 150.717C90.894 150.559 90.6887 150.33 90.5393 150.031C90.39 149.733 90.3153 149.38 90.3153 148.974C90.3153 148.573 90.39 148.223 90.5393 147.924C90.6887 147.626 90.894 147.397 91.1553 147.238C91.4213 147.08 91.7223 147 92.0583 147ZM92.3033 147.7C91.9487 147.7 91.664 147.815 91.4493 148.043C91.2393 148.267 91.1343 148.578 91.1343 148.974C91.1343 149.371 91.2393 149.684 91.4493 149.912C91.664 150.136 91.9487 150.248 92.3033 150.248C92.5273 150.248 92.728 150.197 92.9053 150.094C93.0827 149.987 93.2227 149.838 93.3253 149.646C93.428 149.455 93.4793 149.231 93.4793 148.974C93.4793 148.722 93.428 148.501 93.3253 148.309C93.2227 148.113 93.0827 147.964 92.9053 147.861C92.728 147.754 92.5273 147.7 92.3033 147.7ZM98.819 148.792C98.819 148.923 98.8096 149.037 98.791 149.135H95.823C95.837 149.532 95.9466 149.826 96.152 150.017C96.3573 150.209 96.6116 150.304 96.915 150.304C97.181 150.304 97.405 150.237 97.587 150.101C97.7736 149.966 97.888 149.786 97.93 149.562H98.784C98.7326 149.833 98.6253 150.073 98.462 150.283C98.2986 150.493 98.0863 150.659 97.825 150.78C97.5636 150.897 97.272 150.955 96.95 150.955C96.5766 150.955 96.2453 150.876 95.956 150.717C95.6713 150.559 95.4473 150.33 95.284 150.031C95.1206 149.733 95.039 149.38 95.039 148.974C95.039 148.573 95.1206 148.223 95.284 147.924C95.4473 147.626 95.6713 147.397 95.956 147.238C96.2453 147.08 96.5766 147 96.95 147C97.328 147 97.657 147.08 97.937 147.238C98.2216 147.392 98.4386 147.607 98.588 147.882C98.742 148.153 98.819 148.456 98.819 148.792ZM98.014 148.771C98.0233 148.519 97.979 148.309 97.881 148.141C97.7876 147.969 97.657 147.843 97.489 147.763C97.3256 147.679 97.146 147.637 96.95 147.637C96.6373 147.637 96.376 147.733 96.166 147.924C95.956 148.116 95.8416 148.398 95.823 148.771H98.014Z" fill="#003366"/>
<circle opacity="0.1" cx="182" cy="123.906" r="13" fill="#003366"/>
<path d="M178.645 117.666C177.921 117.666 177.332 118.255 177.332 118.979V128.02C177.332 128.744 177.921 129.333 178.645 129.333H181.428C181.438 129.26 181.456 129.188 181.482 129.118L181.483 129.119C181.498 129.054 181.518 128.985 181.538 128.915L181.695 128.365L181.924 127.564C181.992 127.329 182.12 127.113 182.294 126.94L185.735 123.498C186.003 123.229 186.324 123.052 186.665 122.971V122.333H183.311C182.588 122.333 181.999 121.744 181.999 121.02V117.666H178.645ZM182.874 117.922V121.02C182.874 121.261 183.07 121.458 183.311 121.458H186.409L182.874 117.922ZM187.102 123.499C187.022 123.5 186.942 123.507 186.86 123.522C186.602 123.568 186.356 123.702 186.148 123.911L182.707 127.352C182.603 127.456 182.526 127.586 182.485 127.727L182.027 129.325C182.006 129.381 181.997 129.439 181.999 129.498C182.002 129.604 182.044 129.708 182.125 129.79C182.206 129.87 182.31 129.912 182.416 129.916C182.474 129.918 182.534 129.909 182.589 129.888L184.188 129.43C184.329 129.389 184.458 129.312 184.562 129.208L188.004 125.767C188.212 125.559 188.347 125.312 188.393 125.055C188.408 124.973 188.415 124.892 188.415 124.812C188.416 124.464 188.281 124.135 188.03 123.884C187.78 123.634 187.451 123.499 187.102 123.499Z" fill="#003366"/>
<path d="M167.404 149.835H165.318L164.94 150.906H164.086L165.906 146.041H166.823L168.636 150.906H167.782L167.404 149.835ZM167.18 149.219L166.361 146.909L165.542 149.219H167.18ZM170.775 147C171.125 147 171.424 147.087 171.671 147.259C171.918 147.432 172.091 147.661 172.189 147.945V145.726H172.994V150.906H172.189V150.01C172.091 150.295 171.918 150.524 171.671 150.696C171.424 150.869 171.125 150.955 170.775 150.955C170.439 150.955 170.138 150.876 169.872 150.717C169.611 150.559 169.405 150.33 169.256 150.031C169.107 149.733 169.032 149.38 169.032 148.974C169.032 148.573 169.107 148.223 169.256 147.924C169.405 147.626 169.611 147.397 169.872 147.238C170.138 147.08 170.439 147 170.775 147ZM171.02 147.7C170.665 147.7 170.381 147.815 170.166 148.043C169.956 148.267 169.851 148.578 169.851 148.974C169.851 149.371 169.956 149.684 170.166 149.912C170.381 150.136 170.665 150.248 171.02 150.248C171.244 150.248 171.445 150.197 171.622 150.094C171.799 149.987 171.939 149.838 172.042 149.646C172.145 149.455 172.196 149.231 172.196 148.974C172.196 148.722 172.145 148.501 172.042 148.309C171.939 148.113 171.799 147.964 171.622 147.861C171.445 147.754 171.244 147.7 171.02 147.7ZM175.499 147C175.849 147 176.147 147.087 176.395 147.259C176.642 147.432 176.815 147.661 176.913 147.945V145.726H177.718V150.906H176.913V150.01C176.815 150.295 176.642 150.524 176.395 150.696C176.147 150.869 175.849 150.955 175.499 150.955C175.163 150.955 174.862 150.876 174.596 150.717C174.334 150.559 174.129 150.33 173.98 150.031C173.83 149.733 173.756 149.38 173.756 148.974C173.756 148.573 173.83 148.223 173.98 147.924C174.129 147.626 174.334 147.397 174.596 147.238C174.862 147.08 175.163 147 175.499 147ZM175.744 147.7C175.389 147.7 175.104 147.815 174.89 148.043C174.68 148.267 174.575 148.578 174.575 148.974C174.575 149.371 174.68 149.684 174.89 149.912C175.104 150.136 175.389 150.248 175.744 150.248C175.968 150.248 176.168 150.197 176.346 150.094C176.523 149.987 176.663 149.838 176.766 149.646C176.868 149.455 176.92 149.231 176.92 148.974C176.92 148.722 176.868 148.501 176.766 148.309C176.663 148.113 176.523 147.964 176.346 147.861C176.168 147.754 175.968 147.7 175.744 147.7ZM184.313 150.906H183.515L181.114 147.259V150.906H180.316V145.971H181.114L183.515 149.632V145.971H184.313V150.906ZM187.043 147C187.416 147 187.752 147.08 188.051 147.238C188.35 147.397 188.583 147.626 188.751 147.924C188.919 148.223 189.003 148.573 189.003 148.974C189.003 149.38 188.919 149.733 188.751 150.031C188.583 150.33 188.35 150.559 188.051 150.717C187.752 150.876 187.416 150.955 187.043 150.955C186.67 150.955 186.334 150.876 186.035 150.717C185.741 150.559 185.508 150.33 185.335 150.031C185.167 149.728 185.083 149.376 185.083 148.974C185.083 148.573 185.167 148.223 185.335 147.924C185.508 147.626 185.741 147.397 186.035 147.238C186.334 147.08 186.67 147 187.043 147ZM187.043 147.693C186.838 147.693 186.649 147.74 186.476 147.833C186.303 147.927 186.163 148.071 186.056 148.267C185.953 148.459 185.902 148.694 185.902 148.974C185.902 149.259 185.953 149.497 186.056 149.688C186.163 149.88 186.303 150.022 186.476 150.115C186.649 150.209 186.838 150.255 187.043 150.255C187.248 150.255 187.437 150.209 187.61 150.115C187.783 150.022 187.92 149.88 188.023 149.688C188.13 149.497 188.184 149.259 188.184 148.974C188.184 148.694 188.13 148.459 188.023 148.267C187.92 148.071 187.783 147.927 187.61 147.833C187.437 147.74 187.248 147.693 187.043 147.693ZM191.709 150.213V150.906H191.219C190.808 150.906 190.496 150.808 190.281 150.612C190.071 150.412 189.966 150.08 189.966 149.618V147.728H189.413V147.049H189.966V146.09H190.771V147.049H191.702V147.728H190.771V149.632C190.771 149.852 190.811 150.003 190.89 150.087C190.974 150.171 191.119 150.213 191.324 150.213H191.709ZM196.041 148.792C196.041 148.923 196.031 149.037 196.013 149.135H193.045C193.059 149.532 193.168 149.826 193.374 150.017C193.579 150.209 193.833 150.304 194.137 150.304C194.403 150.304 194.627 150.237 194.809 150.101C194.995 149.966 195.11 149.786 195.152 149.562H196.006C195.954 149.833 195.847 150.073 195.684 150.283C195.52 150.493 195.308 150.659 195.047 150.78C194.785 150.897 194.494 150.955 194.172 150.955C193.798 150.955 193.467 150.876 193.178 150.717C192.893 150.559 192.669 150.33 192.506 150.031C192.342 149.733 192.261 149.38 192.261 148.974C192.261 148.573 192.342 148.223 192.506 147.924C192.669 147.626 192.893 147.397 193.178 147.238C193.467 147.08 193.798 147 194.172 147C194.55 147 194.879 147.08 195.159 147.238C195.443 147.392 195.66 147.607 195.81 147.882C195.964 148.153 196.041 148.456 196.041 148.792ZM195.236 148.771C195.245 148.519 195.201 148.309 195.103 148.141C195.009 147.969 194.879 147.843 194.711 147.763C194.547 147.679 194.368 147.637 194.172 147.637C193.859 147.637 193.598 147.733 193.388 147.924C193.178 148.116 193.063 148.398 193.045 148.771H195.236ZM198.078 147C198.531 147 198.892 147.117 199.163 147.35C199.438 147.579 199.606 147.887 199.667 148.274H198.911C198.878 148.064 198.787 147.896 198.638 147.77C198.493 147.64 198.3 147.574 198.057 147.574C197.856 147.574 197.7 147.623 197.588 147.721C197.481 147.815 197.427 147.943 197.427 148.106C197.427 148.228 197.467 148.326 197.546 148.4C197.625 148.475 197.723 148.533 197.84 148.575C197.961 148.617 198.132 148.664 198.351 148.715C198.64 148.781 198.874 148.848 199.051 148.918C199.233 148.988 199.387 149.1 199.513 149.254C199.644 149.404 199.709 149.609 199.709 149.87C199.709 150.192 199.585 150.454 199.338 150.654C199.095 150.855 198.766 150.955 198.351 150.955C197.87 150.955 197.481 150.843 197.182 150.619C196.888 150.395 196.711 150.083 196.65 149.681H197.427C197.45 149.891 197.544 150.062 197.707 150.192C197.87 150.323 198.085 150.388 198.351 150.388C198.542 150.388 198.692 150.339 198.799 150.241C198.911 150.139 198.967 150.01 198.967 149.856C198.967 149.721 198.925 149.614 198.841 149.534C198.757 149.455 198.652 149.394 198.526 149.352C198.4 149.306 198.227 149.259 198.008 149.212C197.728 149.147 197.499 149.082 197.322 149.016C197.149 148.951 197 148.846 196.874 148.701C196.753 148.552 196.692 148.351 196.692 148.099C196.692 147.773 196.813 147.509 197.056 147.308C197.303 147.103 197.644 147 198.078 147Z" fill="#003366"/>
<path d="M19.1836 26.8762C19.1836 21.4217 23.6053 17 29.0598 17H233.876C239.331 17 243.752 21.4217 243.752 26.8762V43.9063H19.1836V26.8762Z" fill="#003366"/>
<path d="M31.7864 31.5252C31.7864 31.8385 31.7081 32.1287 31.5514 32.3956C31.3947 32.6567 31.1626 32.8685 30.8551 33.031C30.5475 33.1877 30.1732 33.266 29.7322 33.266C29.297 33.266 28.9082 33.1935 28.5659 33.0484C28.2235 32.8975 27.9479 32.6828 27.739 32.4043C27.5359 32.1258 27.4198 31.8008 27.3908 31.4294H28.6964C28.7254 31.6789 28.8241 31.8878 28.9924 32.0561C29.1665 32.2186 29.3957 32.2998 29.68 32.2998C29.9353 32.2998 30.1297 32.2331 30.2632 32.0996C30.4024 31.9604 30.4721 31.7834 30.4721 31.5687C30.4721 31.3772 30.417 31.2205 30.3067 31.0987C30.1964 30.971 30.0572 30.8695 29.8889 30.794C29.7206 30.7186 29.4885 30.6315 29.1926 30.5329C28.8096 30.4052 28.4962 30.2805 28.2525 30.1586C28.0088 30.0309 27.7999 29.8482 27.6258 29.6102C27.4575 29.3723 27.3734 29.0619 27.3734 28.6789C27.3734 28.1508 27.562 27.7359 27.9392 27.4342C28.3221 27.1266 28.827 26.9729 29.4537 26.9729C30.1036 26.9729 30.6201 27.1296 31.003 27.4429C31.3918 27.7563 31.6123 28.1741 31.6646 28.6963H30.3415C30.3067 28.4758 30.2139 28.2959 30.063 28.1566C29.9121 28.0116 29.7061 27.939 29.445 27.939C29.2187 27.939 29.0359 28 28.8966 28.1218C28.7574 28.2379 28.6877 28.4091 28.6877 28.6354C28.6877 28.8153 28.7399 28.9661 28.8444 29.088C28.9547 29.2041 29.091 29.2998 29.2535 29.3752C29.4218 29.4507 29.6481 29.5348 29.9324 29.6277C30.327 29.7669 30.6462 29.8975 30.8899 30.0193C31.1394 30.1412 31.3512 30.324 31.5253 30.5677C31.6994 30.8114 31.7864 31.1306 31.7864 31.5252ZM35.2669 32.1519V33.2051H34.6228C34.0832 33.2051 33.6683 33.0745 33.3781 32.8134C33.0938 32.5523 32.9516 32.1171 32.9516 31.5078V29.4188H32.2814V28.383H32.9516V27.1905H34.1789V28.383H35.2582V29.4188H34.1789V31.5252C34.1789 31.7573 34.2253 31.9198 34.3182 32.0126C34.411 32.1054 34.5677 32.1519 34.7882 32.1519H35.2669ZM38.3783 28.322C38.8484 28.322 39.2691 28.4207 39.6405 28.618C40.0176 28.8153 40.3136 29.1025 40.5283 29.4797C40.743 29.8511 40.8503 30.2892 40.8503 30.794C40.8503 31.2989 40.743 31.737 40.5283 32.1083C40.3136 32.4797 40.0176 32.767 39.6405 32.9701C39.2691 33.1674 38.8484 33.266 38.3783 33.266C37.9083 33.266 37.4847 33.1674 37.1075 32.9701C36.7362 32.767 36.4431 32.4797 36.2284 32.1083C36.0137 31.737 35.9064 31.2989 35.9064 30.794C35.9064 30.2892 36.0137 29.8511 36.2284 29.4797C36.4431 29.1025 36.7362 28.8153 37.1075 28.618C37.4847 28.4207 37.9083 28.322 38.3783 28.322ZM38.3783 29.3839C38.036 29.3839 37.7458 29.5058 37.5079 29.7495C37.27 29.9874 37.1511 30.3356 37.1511 30.794C37.1511 31.2524 37.27 31.6035 37.5079 31.8472C37.7458 32.0851 38.036 32.2041 38.3783 32.2041C38.7207 32.2041 39.0109 32.0851 39.2488 31.8472C39.4867 31.6035 39.6056 31.2524 39.6056 30.794C39.6056 30.3356 39.4867 29.9874 39.2488 29.7495C39.0109 29.5058 38.7207 29.3839 38.3783 29.3839ZM44.5988 28.322C45.005 28.322 45.3706 28.4207 45.6955 28.618C46.0205 28.8153 46.2729 29.1025 46.4528 29.4797C46.6385 29.8511 46.7313 30.2892 46.7313 30.794C46.7313 31.2989 46.6385 31.7399 46.4528 32.1171C46.2729 32.4884 46.0205 32.7728 45.6955 32.9701C45.3706 33.1674 45.005 33.266 44.5988 33.266C44.1926 33.266 43.8444 33.1703 43.5543 32.9788C43.2699 32.7815 43.0668 32.5203 42.945 32.1954V35.503H41.7177V28.383H42.945V29.3839C43.0668 29.059 43.2699 28.8008 43.5543 28.6093C43.8444 28.4178 44.1926 28.322 44.5988 28.322ZM44.2158 29.3926C43.8444 29.3926 43.5369 29.5203 43.2932 29.7756C43.0552 30.0251 42.9363 30.3646 42.9363 30.794C42.9363 31.2176 43.0552 31.5571 43.2932 31.8124C43.5369 32.0619 43.8444 32.1867 44.2158 32.1867C44.5988 32.1867 44.9063 32.0648 45.1384 31.8211C45.3706 31.5716 45.4866 31.2292 45.4866 30.794C45.4866 30.3588 45.3706 30.0164 45.1384 29.7669C44.9063 29.5174 44.5988 29.3926 44.2158 29.3926ZM52.272 26.999C53.038 26.999 53.6734 27.1963 54.1782 27.5909C54.6831 27.9855 55.0167 28.5222 55.1792 29.2011H53.891C53.7575 28.8704 53.5486 28.6093 53.2643 28.4178C52.9858 28.2263 52.6492 28.1305 52.2546 28.1305C51.9296 28.1305 51.6366 28.2118 51.3755 28.3743C51.1143 28.5367 50.9113 28.7688 50.7662 29.0706C50.6211 29.3723 50.5486 29.7263 50.5486 30.1325C50.5486 30.5329 50.6211 30.884 50.7662 31.1857C50.9113 31.4875 51.1143 31.7196 51.3755 31.882C51.6366 32.0445 51.9296 32.1258 52.2546 32.1258C52.6492 32.1258 52.9858 32.03 53.2643 31.8385C53.5486 31.647 53.7575 31.3859 53.891 31.0551H55.1792C55.0167 31.7341 54.6831 32.2708 54.1782 32.6654C53.6734 33.06 53.038 33.2573 52.272 33.2573C51.6859 33.2573 51.1666 33.1267 50.714 32.8656C50.2671 32.5987 49.919 32.2273 49.6695 31.7515C49.4257 31.2756 49.3039 30.736 49.3039 30.1325C49.3039 29.5232 49.4257 28.9806 49.6695 28.5048C49.919 28.029 50.2671 27.6605 50.714 27.3994C51.1608 27.1325 51.6801 26.999 52.272 26.999ZM58.3283 28.322C58.7983 28.322 59.219 28.4207 59.5904 28.618C59.9676 28.8153 60.2635 29.1025 60.4782 29.4797C60.6929 29.8511 60.8003 30.2892 60.8003 30.794C60.8003 31.2989 60.6929 31.737 60.4782 32.1083C60.2635 32.4797 59.9676 32.767 59.5904 32.9701C59.219 33.1674 58.7983 33.266 58.3283 33.266C57.8583 33.266 57.4347 33.1674 57.0575 32.9701C56.6861 32.767 56.3931 32.4797 56.1784 32.1083C55.9637 31.737 55.8563 31.2989 55.8563 30.794C55.8563 30.2892 55.9637 29.8511 56.1784 29.4797C56.3931 29.1025 56.6861 28.8153 57.0575 28.618C57.4347 28.4207 57.8583 28.322 58.3283 28.322ZM58.3283 29.3839C57.9859 29.3839 57.6958 29.5058 57.4579 29.7495C57.22 29.9874 57.101 30.3356 57.101 30.794C57.101 31.2524 57.22 31.6035 57.4579 31.8472C57.6958 32.0851 57.9859 32.2041 58.3283 32.2041C58.6707 32.2041 58.9608 32.0851 59.1987 31.8472C59.4366 31.6035 59.5556 31.2524 59.5556 30.794C59.5556 30.3356 59.4366 29.9874 59.1987 29.7495C58.9608 29.5058 58.6707 29.3839 58.3283 29.3839ZM67.8041 28.3133C68.3902 28.3133 68.8515 28.4961 69.1881 28.8617C69.5304 29.2215 69.7016 29.735 69.7016 30.4023V33.2051H68.483V30.5416C68.483 30.1702 68.3873 29.8859 68.1958 29.6886C68.0101 29.4855 67.7519 29.3839 67.4211 29.3839C67.0787 29.3839 66.806 29.4913 66.6029 29.706C66.3998 29.9207 66.2983 30.234 66.2983 30.646V33.2051H65.0797V30.5416C65.0797 30.1702 64.9839 29.8859 64.7924 29.6886C64.6068 29.4855 64.3485 29.3839 64.0178 29.3839C63.6754 29.3839 63.4027 29.4913 63.1996 29.706C62.9965 29.9207 62.8949 30.234 62.8949 30.646V33.2051H61.6676V28.383H62.8949V29.2969C63.0226 28.9835 63.2228 28.7427 63.4955 28.5744C63.7741 28.4004 64.0961 28.3133 64.4617 28.3133C64.8505 28.3133 65.187 28.4062 65.4714 28.5919C65.7615 28.7775 65.9791 29.0445 66.1242 29.3926C66.2751 29.0619 66.4985 28.8008 66.7944 28.6093C67.0962 28.412 67.4327 28.3133 67.8041 28.3133ZM73.6609 28.322C74.0671 28.322 74.4327 28.4207 74.7577 28.618C75.0826 28.8153 75.335 29.1025 75.5149 29.4797C75.7006 29.8511 75.7935 30.2892 75.7935 30.794C75.7935 31.2989 75.7006 31.7399 75.5149 32.1171C75.335 32.4884 75.0826 32.7728 74.7577 32.9701C74.4327 33.1674 74.0671 33.266 73.6609 33.266C73.2547 33.266 72.9066 33.1703 72.6164 32.9788C72.3321 32.7815 72.129 32.5203 72.0071 32.1954V35.503H70.7798V28.383H72.0071V29.3839C72.129 29.059 72.3321 28.8008 72.6164 28.6093C72.9066 28.4178 73.2547 28.322 73.6609 28.322ZM73.2779 29.3926C72.9066 29.3926 72.599 29.5203 72.3553 29.7756C72.1174 30.0251 71.9984 30.3646 71.9984 30.794C71.9984 31.2176 72.1174 31.5571 72.3553 31.8124C72.599 32.0619 72.9066 32.1867 73.2779 32.1867C73.6609 32.1867 73.9685 32.0648 74.2006 31.8211C74.4327 31.5716 74.5488 31.2292 74.5488 30.794C74.5488 30.3588 74.4327 30.0164 74.2006 29.7669C73.9685 29.5174 73.6609 29.3926 73.2779 29.3926ZM77.8893 26.764V33.2051H76.662V26.764H77.8893ZM83.5344 30.6112C83.5344 30.7331 83.5199 30.8724 83.4909 31.029H79.957C79.9744 31.4584 80.0905 31.7747 80.3052 31.9778C80.5199 32.1809 80.7868 32.2824 81.1059 32.2824C81.3903 32.2824 81.6253 32.2128 81.811 32.0735C82.0025 31.9343 82.1243 31.7457 82.1766 31.5078H83.4735C83.4097 31.8443 83.2733 32.1461 83.0644 32.413C82.8555 32.6799 82.5857 32.8888 82.2549 33.0397C81.9299 33.1906 81.5673 33.266 81.1669 33.266C80.6968 33.266 80.279 33.1674 79.9135 32.9701C79.5479 32.767 79.2636 32.4797 79.0605 32.1083C78.8574 31.737 78.7558 31.2989 78.7558 30.794C78.7558 30.2892 78.8574 29.8511 79.0605 29.4797C79.2636 29.1025 79.5479 28.8153 79.9135 28.618C80.279 28.4207 80.6968 28.322 81.1669 28.322C81.6427 28.322 82.0576 28.4207 82.4116 28.618C82.7713 28.8153 83.047 29.088 83.2385 29.4362C83.4358 29.7785 83.5344 30.1702 83.5344 30.6112ZM82.2984 30.4894C82.3158 30.0948 82.2114 29.7959 81.9851 29.5928C81.7646 29.3897 81.4918 29.2882 81.1669 29.2882C80.8361 29.2882 80.5576 29.3897 80.3313 29.5928C80.105 29.7959 79.9802 30.0948 79.957 30.4894H82.2984ZM86.9821 32.1519V33.2051H86.338C85.7983 33.2051 85.3834 33.0745 85.0933 32.8134C84.8089 32.5523 84.6668 32.1171 84.6668 31.5078V29.4188H83.9966V28.383H84.6668V27.1905H85.8941V28.383H86.9734V29.4188H85.8941V31.5252C85.8941 31.7573 85.9405 31.9198 86.0333 32.0126C86.1262 32.1054 86.2829 32.1519 86.5034 32.1519H86.9821ZM92.4001 30.6112C92.4001 30.7331 92.3856 30.8724 92.3566 31.029H88.8227C88.8401 31.4584 88.9561 31.7747 89.1709 31.9778C89.3856 32.1809 89.6525 32.2824 89.9716 32.2824C90.256 32.2824 90.491 32.2128 90.6767 32.0735C90.8682 31.9343 90.99 31.7457 91.0423 31.5078H92.3392C92.2753 31.8443 92.139 32.1461 91.9301 32.413C91.7212 32.6799 91.4514 32.8888 91.1206 33.0397C90.7956 33.1906 90.433 33.266 90.0326 33.266C89.5625 33.266 89.1447 33.1674 88.7792 32.9701C88.4136 32.767 88.1293 32.4797 87.9262 32.1083C87.7231 31.737 87.6215 31.2989 87.6215 30.794C87.6215 30.2892 87.7231 29.8511 87.9262 29.4797C88.1293 29.1025 88.4136 28.8153 88.7792 28.618C89.1447 28.4207 89.5625 28.322 90.0326 28.322C90.5084 28.322 90.9233 28.4207 91.2773 28.618C91.637 28.8153 91.9127 29.088 92.1042 29.4362C92.3015 29.7785 92.4001 30.1702 92.4001 30.6112ZM91.1641 30.4894C91.1815 30.0948 91.0771 29.7959 90.8508 29.5928C90.6303 29.3897 90.3575 29.2882 90.0326 29.2882C89.7018 29.2882 89.4233 29.3897 89.197 29.5928C88.9707 29.7959 88.8459 30.0948 88.8227 30.4894H91.1641ZM95.1602 28.322C95.5664 28.322 95.9116 28.4178 96.196 28.6093C96.4861 28.8008 96.695 29.059 96.8227 29.3839V26.764H98.0412V33.2051H96.8227V32.1954C96.695 32.5203 96.4861 32.7815 96.196 32.9788C95.9116 33.1703 95.5664 33.266 95.1602 33.266C94.754 33.266 94.3884 33.1674 94.0634 32.9701C93.7385 32.7728 93.4831 32.4884 93.2975 32.1171C93.1176 31.7399 93.0276 31.2989 93.0276 30.794C93.0276 30.2892 93.1176 29.8511 93.2975 29.4797C93.4831 29.1025 93.7385 28.8153 94.0634 28.618C94.3884 28.4207 94.754 28.322 95.1602 28.322ZM95.5431 29.3926C95.1602 29.3926 94.8526 29.5174 94.6205 29.7669C94.3884 30.0164 94.2723 30.3588 94.2723 30.794C94.2723 31.2292 94.3884 31.5716 94.6205 31.8211C94.8526 32.0648 95.1602 32.1867 95.5431 32.1867C95.9145 32.1867 96.2192 32.0619 96.4571 31.8124C96.7008 31.5571 96.8227 31.2176 96.8227 30.794C96.8227 30.3646 96.7008 30.0251 96.4571 29.7756C96.2192 29.5203 95.9145 29.3926 95.5431 29.3926Z" fill="white"/>
<path d="M232.146 27.8894C232.146 28.3159 231.8 28.6616 231.374 28.6616C230.947 28.6616 230.602 28.3159 230.602 27.8894C230.602 27.4629 230.947 27.1172 231.374 27.1172C231.8 27.1172 232.146 27.4629 232.146 27.8894Z" fill="white"/>
<path d="M232.146 30.2061C232.146 30.6325 231.8 30.9783 231.374 30.9783C230.947 30.9783 230.602 30.6325 230.602 30.2061C230.602 29.7796 230.947 29.4338 231.374 29.4338C231.8 29.4338 232.146 29.7796 232.146 30.2061Z" fill="white"/>
<path d="M231.374 33.2949C231.8 33.2949 232.146 32.9492 232.146 32.5227C232.146 32.0962 231.8 31.7505 231.374 31.7505C230.947 31.7505 230.602 32.0962 230.602 32.5227C230.602 32.9492 230.947 33.2949 231.374 33.2949Z" fill="white"/>
<defs>
<filter id="filter0_d_6388_12262" x="0.482121" y="0.451171" width="261.606" height="189.036" filterUnits="userSpaceOnUse" color-interpolation-filters="sRGB">
<feFlood flood-opacity="0" result="BackgroundImageFix"/>
<feColorMatrix in="SourceAlpha" type="matrix" values="0 0 0 0 0 0 0 0 0 0 0 0 0 0 0 0 0 0 127 0" result="hardAlpha"/>
<feOffset dy="2.46905"/>
<feGaussianBlur stdDeviation="9.25894"/>
<feComposite in2="hardAlpha" operator="out"/>
<feColorMatrix type="matrix" values="0 0 0 0 0.101961 0 0 0 0 0.109804 0 0 0 0 0.129412 0 0 0 0.07 0"/>
<feBlend mode="normal" in2="BackgroundImageFix" result="effect1_dropShadow_6388_12262"/>
<feBlend mode="normal" in="SourceGraphic" in2="effect1_dropShadow_6388_12262" result="shape"/>
</filter>
</defs>
</svg>
