<svg width="48" height="49" viewBox="0 0 48 49" fill="none" xmlns="http://www.w3.org/2000/svg">
<path d="M16.4824 9.49265C16.2972 9.49743 16.1144 9.5365 15.9434 9.60788C15.9434 9.60788 13.0684 10.7799 10.3574 13.9653C7.64643 17.1507 5 22.4279 5 30.5005C4.99987 30.5737 5.00509 30.6468 5.01563 30.7192C4.97794 31.8576 5.16942 32.9919 5.5787 34.0548C5.98798 35.1177 6.6067 36.0875 7.39812 36.9067C8.18954 37.7258 9.13752 38.3775 10.1857 38.823C11.2339 39.2686 12.361 39.499 13.5 39.5005C15.7543 39.5005 17.9164 38.6049 19.5104 37.0109C21.1045 35.4168 22 33.2548 22 31.0005C22 28.7461 21.1045 26.5841 19.5104 24.9901C17.9164 23.396 15.7543 22.5005 13.5 22.5005C11.7905 22.5009 10.1208 23.0169 8.70899 23.9809C9.57773 20.2776 11.1222 17.6971 12.6426 15.9106C14.9316 13.221 17.0566 12.393 17.0566 12.393C17.3869 12.2664 17.6617 12.0272 17.8327 11.7176C18.0037 11.408 18.0598 11.0479 17.9911 10.701C17.9224 10.3541 17.7334 10.0425 17.4573 9.82145C17.1813 9.60035 16.836 9.4839 16.4824 9.49265ZM37.4824 9.49265C37.2972 9.49743 37.1144 9.5365 36.9434 9.60788C36.9434 9.60788 34.0684 10.7799 31.3574 13.9653C28.6464 17.1507 26 22.4279 26 30.5005C25.9999 30.5737 26.0051 30.6468 26.0156 30.7192C25.9779 31.8576 26.1694 32.9919 26.5787 34.0548C26.988 35.1177 27.6067 36.0875 28.3981 36.9067C29.1895 37.7258 30.1375 38.3775 31.1857 38.823C32.2339 39.2686 33.361 39.499 34.5 39.5005C36.7543 39.5005 38.9164 38.6049 40.5104 37.0109C42.1045 35.4168 43 33.2548 43 31.0005C43 28.7461 42.1045 26.5841 40.5104 24.9901C38.9164 23.396 36.7543 22.5005 34.5 22.5005C32.7905 22.5009 31.1208 23.0169 29.709 23.9809C30.5777 20.2776 32.1222 17.6971 33.6426 15.9106C35.9316 13.221 38.0566 12.393 38.0566 12.393C38.3869 12.2664 38.6617 12.0272 38.8327 11.7176C39.0037 11.408 39.0598 11.0479 38.9911 10.701C38.9224 10.3541 38.7334 10.0425 38.4573 9.82145C38.1813 9.60035 37.836 9.4839 37.4824 9.49265Z" fill="url(#paint0_linear_6526_16269)"/>
<defs>
<linearGradient id="paint0_linear_6526_16269" x1="5.91132" y1="22.3748" x2="42.507" y2="22.3748" gradientUnits="userSpaceOnUse">
<stop stop-color="#92D65E"/>
<stop offset="1" stop-color="#5DB14C"/>
</linearGradient>
</defs>
</svg>
