<svg width="96" height="41" viewBox="0 0 96 41" fill="none" xmlns="http://www.w3.org/2000/svg">
<g clip-path="url(#clip0_6479_1701)">
<path d="M44.8315 4.05083C44.7531 3.60188 44.7949 3.14018 44.9527 2.71264C45.1105 2.2851 45.3787 1.90695 45.73 1.61663C46.2375 1.13137 46.9151 0.86448 47.6172 0.873257C48.3194 0.882033 48.99 1.16578 49.4853 1.66357C49.8406 1.98654 50.1027 2.39897 50.2443 2.85782C50.3858 3.31667 50.4016 3.8051 50.29 4.27212C49.787 6.41797 48.5934 8.29559 47.5607 10.2269C46.5414 8.24194 45.3076 6.27715 44.8315 4.05083ZM47.0108 2.09274C45.6697 2.50179 45.4618 4.86893 47.0108 5.20422C48.1642 5.68033 49.6932 4.53364 49.2372 3.31319C49.036 2.20674 48.0033 1.87815 47.0108 2.09274Z" fill="url(#paint0_linear_6479_1701)"/>
<path d="M43.6647 6.53906L44.8181 8.0948C34.0888 8.93973 23.6077 13.151 15.8357 20.6614L14.0117 20.0982C21.5557 12.6078 33.0629 7.49128 43.6647 6.53906Z" fill="white"/>
<path d="M50.1289 8.17527L51.3091 6.53906C62.2261 7.64552 72.8682 12.2189 80.6536 20.0378L78.9906 20.7084C71.1108 13.3159 60.9102 8.88628 50.1289 8.17527Z" fill="white"/>
<path d="M28.0413 22.4727H31.2668C31.2668 27.3276 31.1998 32.1826 31.2668 37.0309L28.0078 37.0779C28.0682 32.2162 28.0212 27.3478 28.0413 22.4727Z" fill="white"/>
<path d="M0.0296227 23.0898H10.2492V25.7722H3.54345C3.54345 26.8116 3.54345 27.8577 3.54345 28.8971H10.2492V31.633H3.54345C3.54345 33.4436 3.54345 35.2608 3.54345 37.0714H-0.00390625C-0.00390625 32.3841 -0.00390625 27.7437 0.0296227 23.0898Z" fill="white"/>
<path d="M39.9619 22.4785H43.1606L42.9997 36.5003C41.8865 37.3989 39.7004 37.2379 38.5604 37.1709C36.1866 36.9027 33.6987 36.8892 33.1086 34.4014C32.7867 32.7878 32.7867 31.1265 33.1086 29.5129C33.3079 28.7016 33.7593 27.9744 34.3979 27.4358C35.0365 26.8972 35.8294 26.575 36.6627 26.5154C37.7836 26.5054 38.9039 26.5726 40.0156 26.7166L39.9619 22.4785ZM36.4481 30.2237V33.2547C36.4487 33.5614 36.5604 33.8575 36.7626 34.0881C36.9649 34.3187 37.2439 34.4681 37.5479 34.5087C37.8161 34.5087 38.091 34.5757 38.366 34.5959C38.5708 34.6142 38.7771 34.5914 38.973 34.5288C39.1688 34.4662 39.3502 34.3651 39.5064 34.2314C39.6626 34.0977 39.7904 33.9341 39.8825 33.7502C39.9746 33.5664 40.0289 33.366 40.0424 33.1608C40.18 32.0218 40.1665 30.8696 40.0022 29.7342C39.7272 28.9965 38.661 28.849 37.749 28.8624C37.3968 28.873 37.063 29.0216 36.8195 29.2764C36.5761 29.5311 36.4427 29.8714 36.4481 30.2237Z" fill="white"/>
<path d="M45.2383 23.1016H48.5442C48.5442 26.8367 48.5442 30.5718 48.5442 34.3136C50.7638 34.3136 55.25 34.3136 55.25 34.3136V37.0764C55.25 37.0764 48.3967 37.0764 45.2584 37.0764C45.2316 32.4226 45.2517 27.7621 45.2383 23.1016Z" fill="white"/>
<path d="M11.8884 26.7559H15.0737C15.0737 30.1959 15.0737 33.636 15.0737 37.0761H11.875C11.9018 33.6293 11.8817 30.1892 11.8884 26.7559Z" fill="white"/>
<path d="M16.7609 29.6063C17.2504 26.4143 21.7232 26.0723 24.2312 26.8502C26.3971 27.4202 26.7123 29.7806 26.31 31.7655C26.2519 32.0499 26.1062 32.309 25.8933 32.5062C25.6804 32.7035 25.411 32.8291 25.123 32.8653C23.2655 33.1067 21.3745 32.9726 19.517 33.1134C19.3695 34.8703 23.4265 34.6021 25.854 34.6557L25.8204 37.0765C25.8204 37.0765 21.569 37.338 19.7852 36.9156C19.1353 36.7762 18.5349 36.4641 18.0475 36.012C17.5601 35.56 17.2036 34.9849 17.0157 34.3473C16.6706 32.7917 16.5845 31.1899 16.7609 29.6063ZM19.5773 30.7731H23.5271L23.4667 29.6063C23.454 29.3775 23.3609 29.1605 23.2039 28.9937C23.0469 28.8268 22.836 28.7208 22.6084 28.6943C21.8941 28.6205 21.1735 28.6341 20.4625 28.7345C20.2168 28.7758 19.9936 28.9029 19.8328 29.0932C19.6719 29.2835 19.5838 29.5247 19.5841 29.7739L19.5773 30.7731Z" fill="white"/>
<path d="M58.4202 26.8971C60.4824 26.2241 62.7152 26.2953 64.7304 27.0982C66.5275 28.0706 66.5141 30.3975 66.5342 32.1745C66.5342 33.6163 66.4403 35.3195 65.2937 36.426C64.8206 36.8565 64.2342 37.1427 63.6038 37.2508C61.7935 37.6044 59.9242 37.51 58.1587 36.9758C55.8385 35.923 56.0464 32.9524 56.1872 30.8065C56.2677 29.3581 56.8444 27.4939 58.4202 26.8971ZM59.406 31.1016C59.3333 31.8124 59.3582 32.5299 59.4797 33.234C59.5686 33.7365 59.8488 34.185 60.2615 34.4851C60.6742 34.7853 61.1872 34.9137 61.6927 34.8434C62.5711 34.7227 63.4965 34.1728 63.5233 33.2743C63.5783 32.1863 63.5357 31.0956 63.3959 30.0152C63.3087 29.4721 62.618 29.0496 62.0548 28.9557L61.867 28.9222C61.5602 28.8937 61.2509 28.9283 60.958 29.0241C60.6652 29.1198 60.3951 29.2746 60.1644 29.4788C59.9338 29.6831 59.7475 29.9325 59.617 30.2116C59.4866 30.4907 59.4147 30.7936 59.406 31.1016Z" fill="white"/>
<path d="M68.539 34.6499C67.5867 31.9676 67.4929 27.4278 71.0134 26.7035C73.5147 26.1134 77.6521 26.2945 78.0746 29.5468C78.1752 32.1419 78.6714 34.9718 78.2355 37.5937C78.1482 38.1566 77.9171 38.6875 77.5647 39.135C77.2123 39.5826 76.7505 39.9317 76.2238 40.1486C73.4141 41.2685 69.0419 40.7723 69.0419 40.7723V38.043C71.0536 38.043 73.9639 38.4722 75.5398 36.7957V36.5074C73.2196 36.447 69.7393 37.3188 68.539 34.6499ZM71.2883 30.4454C71.2078 31.0028 71.1943 31.5679 71.2481 32.1285C71.2818 32.6084 71.4864 33.0603 71.8247 33.4023C72.163 33.7444 72.6127 33.9538 73.0922 33.9927H73.2732C73.6763 34.0218 74.0751 33.8956 74.3881 33.64C74.701 33.3844 74.9044 33.0187 74.9564 32.618C75.0677 31.9081 75.0857 31.1868 75.01 30.4722C74.9549 30.0892 74.7731 29.7358 74.4935 29.4684C74.2139 29.201 73.8527 29.035 73.4677 28.9969C73.2734 28.9869 73.0786 28.9869 72.8843 28.9969C72.4909 29.0135 72.1157 29.1675 71.8241 29.4322C71.5325 29.6968 71.3429 30.0554 71.2883 30.4454Z" fill="white"/>
<path d="M80.1317 26.7305L83.3035 26.7506L83.3102 37.0641H80.125L80.1317 26.7305Z" fill="white"/>
<path d="M84.7711 26.7305H88.2447L89.9614 29.5469L91.8926 26.7305H95.0712L91.6781 31.6592L95.4936 37.0641L91.9262 37.0574L89.8608 33.8453L87.8289 37.0641H84.4492L88.1709 31.7196L84.7711 26.7305Z" fill="white"/>
<circle cx="13.4102" cy="22.9942" r="2.01173" fill="#61B93F"/>
<circle cx="81.1367" cy="22.9942" r="2.01173" fill="#61B93F"/>
</g>
<defs>
<linearGradient id="paint0_linear_6479_1701" x1="44.9266" y1="4.88866" x2="50.2912" y2="4.88866" gradientUnits="userSpaceOnUse">
<stop stop-color="#92D65E"/>
<stop offset="1" stop-color="#5DB14C"/>
</linearGradient>
<clipPath id="clip0_6479_1701">
<rect width="95.4971" height="40" fill="white" transform="translate(0 0.865234)"/>
</clipPath>
</defs>
</svg>
