<svg width="80" height="80" viewBox="0 0 80 80" fill="none" xmlns="http://www.w3.org/2000/svg">
<rect width="80" height="80" rx="6" fill="#E8F4FF"/>
<path fill-rule="evenodd" clip-rule="evenodd" d="M28.3333 44.6673C31.3667 44.6673 33.9333 46.534 34.8667 49.334H42.3333V54.0007H34.8667C33.9333 56.8007 31.3667 58.6673 28.3333 58.6673C25.3 58.6673 22.7333 56.8007 21.8 54.0007H14.3333C12.9333 54.0007 12 52.834 12 51.6673V43.734C12 40.4673 14.3333 37.6673 17.6 36.9673L24.8333 35.5673L32.3 28.1007C33.2333 27.1673 34.4 26.4673 35.5667 26.234C35.3333 26.934 35.3333 27.634 35.3333 28.334C35.3333 29.2673 35.3333 30.434 35.5667 31.3673L27.6333 39.3007C27.4 39.7673 26.9333 40.0007 26.4667 40.0007L18.5333 41.4007C17.3667 41.634 16.6667 42.5673 16.6667 43.734V49.334H21.8C22.7333 46.534 25.3 44.6673 28.3333 44.6673ZM26 51.6673C26 52.834 26.9333 54.0007 28.3333 54.0007C29.7333 54.0007 30.6667 53.0673 30.6667 51.6673C30.6667 50.2673 29.7333 49.334 28.3333 49.334C26.9333 49.334 26 50.5007 26 51.6673ZM47 54.0007C47 57.9673 50.0333 61.0007 54 61.0007C57.9667 61.0007 61 57.9673 61 54.0007V40.4673C65.2 37.9007 68 33.4673 68 28.334C68 20.634 61.7 14.334 54 14.334C52.3667 14.334 50.9667 14.5673 49.3333 15.2673L46.5333 16.2007L51.6667 24.3673V26.0007H50.0333L41.8667 20.8673L40.9333 23.6673C40.2333 25.3007 40 26.7007 40 28.334C40 33.4673 42.8 37.9007 47 40.4673V54.0007ZM50.032 17.366C51.1987 16.8993 52.5987 16.666 53.9987 16.666C60.532 16.666 65.6654 21.7993 65.6654 28.3327C65.6654 33.2327 62.8654 37.1993 58.6654 39.066V53.9993C58.6654 56.566 56.5654 58.666 53.9987 58.666C51.432 58.666 49.332 56.566 49.332 53.9993V39.066C45.132 37.1993 42.332 32.9993 42.332 28.3327C42.332 26.9327 42.5654 25.5327 43.032 24.366L49.332 28.3327H53.9987V23.666L50.032 17.366Z" fill="#003366"/>
<path opacity="0.3" d="M53.9987 16.666C52.5987 16.666 51.1987 16.8993 50.032 17.366L53.9987 23.666V28.3327H49.332L43.032 24.366C42.5654 25.5327 42.332 26.9327 42.332 28.3327C42.332 32.9993 45.132 37.1993 49.332 39.066V53.9993C49.332 56.566 51.432 58.666 53.9987 58.666C56.5654 58.666 58.6654 56.566 58.6654 53.9993V39.066C62.8654 37.1993 65.6654 33.2327 65.6654 28.3327C65.6654 21.7993 60.532 16.666 53.9987 16.666Z" fill="#003366"/>
</svg>
