<svg width="18" height="18" viewBox="0 0 18 18" fill="none" xmlns="http://www.w3.org/2000/svg">
<path d="M16.7698 3.86438C16.6592 3.75 16.489 3.71737 16.3438 3.78412L16.2823 3.81225C16.2302 3.83625 16.1781 3.86025 16.1256 3.88388C16.2782 3.6405 16.3993 3.38025 16.483 3.111C16.5295 2.9625 16.4788 2.80013 16.3558 2.70412C16.2328 2.60812 16.0633 2.598 15.9302 2.67937C15.5023 2.93925 15.0913 3.12638 14.6665 3.25688C14.0252 2.63475 13.1518 2.25 12.1877 2.25C10.2201 2.25 8.62521 3.84487 8.62521 5.8125C8.62521 5.81437 8.62521 5.88862 8.62521 6L8.25059 5.97C4.60446 5.53875 3.56646 3.08625 3.52334 2.9805C3.45359 2.80425 3.29984 2.67563 3.11421 2.637C2.92896 2.59763 2.73659 2.65575 2.60234 2.78963C2.52809 2.86425 1.87521 3.555 1.87521 4.875C1.87521 5.8155 2.29446 6.57825 2.83709 7.1715C2.58434 7.01737 2.43696 6.8925 2.43321 6.88912C2.26034 6.73838 2.01284 6.70687 1.80734 6.81112C1.60259 6.91575 1.48184 7.13438 1.50246 7.3635C1.50959 7.44263 1.66934 8.94338 3.40296 10.0766L3.08684 10.134C2.89521 10.1689 2.73509 10.3005 2.66384 10.482C2.59296 10.6639 2.62071 10.869 2.73771 11.025C2.77709 11.0779 3.50946 12.03 5.09984 12.5775C4.25046 12.8606 3.08346 13.125 1.68771 13.125C1.46721 13.125 1.26659 13.254 1.17546 13.455C1.08396 13.656 1.11884 13.8919 1.26434 14.0576C1.32471 14.127 2.78834 15.75 6.56271 15.75C12.8301 15.75 15.7502 9.93187 15.7502 6V5.8125C15.7502 5.757 15.7442 5.70263 15.742 5.64787C16.5265 4.88962 16.8216 4.32075 16.8358 4.29262C16.9067 4.15012 16.8805 3.97838 16.7698 3.86438Z" fill="#003366"/>
</svg>
