<svg width="148" height="148" viewBox="0 0 148 148" fill="none" xmlns="http://www.w3.org/2000/svg">
<circle cx="74" cy="74" r="73" fill="white" stroke="url(#paint0_linear_6770_20049)" stroke-width="2"/>
<path d="M106.277 70.6665C104.567 70.6665 102.69 71.7915 98.7004 73.8615C95.3954 75.5782 92.3388 77.2098 90.3971 78.3998C90.5654 79.1298 90.6654 79.8865 90.6654 80.6665C90.6654 86.1815 86.1788 90.6665 80.6654 90.6665H68.1654C66.7854 90.6665 65.6654 89.5482 65.6654 88.1665C65.6654 86.7848 66.7854 85.6665 68.1654 85.6665H80.6654C83.4221 85.6665 85.6654 83.4232 85.6654 80.6665C85.6654 79.1715 84.9921 77.8432 83.9488 76.9248C82.7638 76.1415 81.3571 75.6665 79.8321 75.6665H72.5104H71.4988C71.4504 75.6665 71.4054 75.6548 71.3571 75.6515C66.9638 75.5832 64.8538 75.1298 62.9988 74.7215C61.3121 74.3498 59.7188 73.9998 57.0438 73.9998C44.8238 73.9998 37.8471 89.0015 37.5571 89.6398C37.1804 90.4665 37.2821 91.4298 37.8204 92.1598L49.4871 107.983C49.9621 108.628 50.7104 108.991 51.4938 108.991C51.6521 108.991 51.8088 108.976 51.9671 108.946C52.9104 108.766 53.6738 108.053 53.9188 107.125C54.0504 106.633 55.3238 102.333 59.8321 102.333C63.0854 102.333 66.4504 102.753 69.7054 103.158C73.0204 103.573 76.4504 104 79.8321 104C84.4371 104 87.7521 100.468 97.3321 90.6665C109.502 78.2148 110.665 77.1265 110.665 74.6582C110.665 72.5215 108.79 70.6665 106.277 70.6665ZM93.2238 56.5548L80.8271 69.8648C80.3538 70.3732 79.6904 70.6615 78.9971 70.6615C78.3038 70.6615 77.6421 70.3732 77.1671 69.8648L64.7088 56.4898C63.2004 54.9815 62.3321 52.8882 62.3321 50.6615C62.3321 48.4348 63.2004 46.3415 64.7738 44.7682C68.0221 41.5232 73.3088 41.5215 76.5571 44.7698L78.9988 47.2115L81.4404 44.7698C84.6888 41.5215 89.9754 41.5232 93.2238 44.7682C94.7971 46.3415 95.6654 48.4348 95.6654 50.6615C95.6654 52.8882 94.7971 54.9815 93.2238 56.5548Z" fill="url(#paint1_linear_6770_20049)"/>
<defs>
<linearGradient id="paint0_linear_6770_20049" x1="3.54934" y1="63.5367" x2="146.08" y2="63.5368" gradientUnits="userSpaceOnUse">
<stop stop-color="#92D65E"/>
<stop offset="1" stop-color="#5DB14C"/>
</linearGradient>
<linearGradient id="paint1_linear_6770_20049" x1="39.0907" y1="70.9502" x2="109.714" y2="70.9502" gradientUnits="userSpaceOnUse">
<stop stop-color="#92D65E"/>
<stop offset="1" stop-color="#5DB14C"/>
</linearGradient>
</defs>
</svg>
