<svg width="148" height="148" viewBox="0 0 148 148" fill="none" xmlns="http://www.w3.org/2000/svg">
<circle cx="74" cy="74" r="73" fill="white" stroke="url(#paint0_linear_6770_20060)" stroke-width="2"/>
<path d="M74.0013 40.667C66.6496 40.667 60.6679 46.6487 60.6679 54.0003C60.6679 61.352 66.6496 67.3337 74.0013 67.3337C81.3529 67.3337 87.3346 61.352 87.3346 54.0003C87.3346 46.6487 81.3529 40.667 74.0013 40.667ZM48.7799 45.6702C46.8924 45.7593 45.1479 46.9122 44.3854 48.7497L38.2168 63.6488C36.7168 66.9321 37.1333 70.7333 39.3333 73.5999L47.3346 84.0654V81.5003C47.3346 76.467 50.8023 72.2019 55.4856 71.0186L49.7011 65.7516L53.7832 52.0993C54.5498 49.5493 53.1842 46.8502 50.6842 45.9502C50.055 45.7294 49.4091 45.6406 48.7799 45.6702ZM99.2226 45.6702C98.5935 45.6406 97.9475 45.7294 97.3183 45.9502C94.8183 46.8502 93.4527 49.5493 94.2194 52.0993L98.3014 65.7516L92.5169 71.0186C97.2002 72.2019 100.668 76.467 100.668 81.5003V84.0654L108.669 73.5999C110.869 70.7333 111.286 66.9321 109.786 63.6488L103.617 48.7497C102.855 46.9122 101.11 45.7593 99.2226 45.6702ZM58.1679 74.0003C54.0329 74.0003 50.6679 77.3653 50.6679 81.5003V99.8337C50.6679 100.714 50.8468 101.548 51.1269 102.334H48.1679C47.8367 102.329 47.5077 102.39 47.2003 102.514C46.8929 102.637 46.6131 102.821 46.3772 103.053C46.1413 103.286 45.9539 103.563 45.826 103.869C45.6982 104.174 45.6323 104.502 45.6323 104.834C45.6323 105.165 45.6982 105.493 45.826 105.799C45.9539 106.104 46.1413 106.381 46.3772 106.614C46.6131 106.847 46.8929 107.03 47.2003 107.154C47.5077 107.277 47.8367 107.338 48.1679 107.334H58.1679H89.8346H99.8346C100.166 107.338 100.495 107.277 100.802 107.154C101.11 107.03 101.389 106.847 101.625 106.614C101.861 106.381 102.049 106.104 102.176 105.799C102.304 105.493 102.37 105.165 102.37 104.834C102.37 104.502 102.304 104.174 102.176 103.869C102.049 103.563 101.861 103.286 101.625 103.053C101.389 102.821 101.11 102.637 100.802 102.514C100.495 102.39 100.166 102.329 99.8346 102.334H96.8756C97.1557 101.548 97.3346 100.714 97.3346 99.8337V81.5003C97.3346 77.3653 93.9696 74.0003 89.8346 74.0003H58.1679ZM74.0013 87.3337C75.8429 87.3337 77.3346 88.827 77.3346 90.667C77.3346 92.507 75.8429 94.0003 74.0013 94.0003C72.1596 94.0003 70.6679 92.507 70.6679 90.667C70.6679 88.827 72.1596 87.3337 74.0013 87.3337Z" fill="url(#paint1_linear_6770_20060)"/>
<defs>
<linearGradient id="paint0_linear_6770_20060" x1="3.54934" y1="63.5367" x2="146.08" y2="63.5368" gradientUnits="userSpaceOnUse">
<stop stop-color="#92D65E"/>
<stop offset="1" stop-color="#5DB14C"/>
</linearGradient>
<linearGradient id="paint1_linear_6770_20060" x1="39.0871" y1="69.2873" x2="109.723" y2="69.2873" gradientUnits="userSpaceOnUse">
<stop stop-color="#92D65E"/>
<stop offset="1" stop-color="#5DB14C"/>
</linearGradient>
</defs>
</svg>
