<svg width="148" height="148" viewBox="0 0 148 148" fill="none" xmlns="http://www.w3.org/2000/svg">
<circle cx="74" cy="74" r="73" fill="white" stroke="url(#paint0_linear_6770_20071)" stroke-width="2"/>
<path d="M72.332 40.667C63.1654 40.667 55.6654 48.167 55.6654 57.3337C55.6654 66.5003 63.1654 74.0003 72.332 74.0003C84.1654 74.0003 97.6647 59.6663 98.3314 59.1663C99.1647 58.1663 99.1647 56.667 98.3314 55.667C97.6647 55.0003 84.1654 40.667 72.332 40.667ZM108.966 73.984C108.533 73.997 108.122 74.1779 107.82 74.4886L104.096 78.2126C100.92 75.56 96.8874 74.0003 92.332 74.0003C82.1654 74.0003 73.9987 82.167 73.9987 92.3337C73.9987 102.5 82.1654 110.667 92.332 110.667C102.499 110.667 110.665 102.5 110.665 92.3337C110.665 89.0003 109.831 85.9997 108.331 83.333L104.666 87.0016C105.333 88.6683 105.665 90.3343 105.665 92.1676C105.665 99.501 99.6654 105.501 92.332 105.501C84.9987 105.501 78.9987 99.501 78.9987 92.1676C78.9987 84.8343 84.9987 78.8343 92.332 78.8343C95.4177 78.8343 98.2619 79.9048 100.577 81.7314L98.0547 84.2542C96.564 83.0592 94.5552 82.3337 92.332 82.3337C86.832 82.3337 82.332 86.8337 82.332 92.3337C82.332 97.8337 86.832 102.334 92.332 102.334C97.832 102.334 102.332 97.8337 102.332 92.3337C102.332 91.5003 102.167 90.5003 102 89.8337L95.8314 95.999C95.1647 96.6657 94.1654 97.167 93.1654 97.3337H92.166C89.3327 97.3337 87.166 95.167 87.166 92.3337C87.166 89.5003 89.3327 87.3337 92.166 87.3337C92.9584 87.3337 93.7377 87.5306 94.4251 87.8838L91.1536 91.1553C90.9937 91.3088 90.866 91.4928 90.778 91.6963C90.69 91.8999 90.6436 92.1189 90.6413 92.3407C90.639 92.5624 90.681 92.7824 90.7649 92.9877C90.8487 93.193 90.9726 93.3795 91.1294 93.5363C91.2862 93.6931 91.4727 93.817 91.678 93.9008C91.8833 93.9846 92.1033 94.0267 92.325 94.0244C92.5467 94.0221 92.7658 93.9757 92.9693 93.8877C93.1729 93.7997 93.3568 93.672 93.5104 93.512L110.177 76.8454C110.418 76.6113 110.582 76.3099 110.649 75.9807C110.716 75.6515 110.681 75.3098 110.55 75.0005C110.419 74.6912 110.198 74.4287 109.915 74.2473C109.633 74.0659 109.302 73.9741 108.966 73.984ZM54.832 80.667C50.6654 80.667 47.332 84.0003 47.332 88.167V90.667C47.332 100 58.9987 107.334 73.9987 107.334H76.6647C72.998 103.334 70.6654 98.167 70.6654 92.3337C70.6654 88.0003 71.998 84.0003 74.1647 80.667H54.832Z" fill="url(#paint1_linear_6770_20071)"/>
<defs>
<linearGradient id="paint0_linear_6770_20071" x1="3.54934" y1="63.5367" x2="146.08" y2="63.5368" gradientUnits="userSpaceOnUse">
<stop stop-color="#92D65E"/>
<stop offset="1" stop-color="#5DB14C"/>
</linearGradient>
<linearGradient id="paint1_linear_6770_20071" x1="48.8513" y1="70.7182" x2="109.86" y2="70.7182" gradientUnits="userSpaceOnUse">
<stop stop-color="#92D65E"/>
<stop offset="1" stop-color="#5DB14C"/>
</linearGradient>
</defs>
</svg>
