<svg width="148" height="148" viewBox="0 0 148 148" fill="none" xmlns="http://www.w3.org/2000/svg">
<circle cx="74" cy="74" r="73" fill="white" stroke="url(#paint0_linear_6770_20083)" stroke-width="2"/>
<path d="M65.6323 38.9678C64.9694 38.9686 64.3219 39.167 63.7724 39.5376C63.2228 39.9082 62.7963 40.4343 62.5471 41.0485C62.298 41.6628 62.2377 42.3373 62.3738 42.986C62.5099 43.6347 62.8363 44.2281 63.3113 44.6904L65.9545 47.3337H55.6681C51.1053 47.3337 47.3347 51.1042 47.3347 55.667V62.3337C47.3285 62.7754 47.4101 63.2139 47.5748 63.6238C47.7395 64.0337 47.9841 64.4068 48.2942 64.7213C48.6044 65.0359 48.9739 65.2857 49.3815 65.4562C49.789 65.6267 50.2263 65.7145 50.6681 65.7145C51.1098 65.7145 51.5472 65.6267 51.9547 65.4562C52.3622 65.2857 52.7318 65.0359 53.0419 64.7213C53.3521 64.4068 53.5966 64.0337 53.7613 63.6238C53.9261 63.2139 54.0077 62.7754 54.0014 62.3337V55.667C54.0014 54.7064 54.7075 54.0003 55.6681 54.0003H65.9545L63.3113 56.6436C62.9914 56.9507 62.736 57.3186 62.56 57.7257C62.3841 58.1328 62.2911 58.5709 62.2866 59.0144C62.2821 59.4578 62.3661 59.8978 62.5337 60.3084C62.7014 60.7189 62.9492 61.092 63.2628 61.4056C63.5764 61.7192 63.9495 61.967 64.3601 62.1347C64.7706 62.3023 65.2106 62.3863 65.654 62.3818C66.0975 62.3773 66.5356 62.2843 66.9427 62.1084C67.3498 61.9324 67.7177 61.677 68.0249 61.3571L76.062 53.32C76.4724 53.0082 76.805 52.6055 77.0335 52.1434C77.262 51.6814 77.3803 51.1727 77.3791 50.6572C77.3778 50.1418 77.257 49.6337 77.0262 49.1728C76.7954 48.7119 76.4609 48.3108 76.0489 48.001L68.0249 39.9769C67.7138 39.6572 67.3418 39.4031 66.9309 39.2298C66.5199 39.0565 66.0783 38.9674 65.6323 38.9678ZM85.6681 47.3337C85.2264 47.3274 84.7878 47.409 84.3779 47.5737C83.968 47.7384 83.595 47.983 83.2804 48.2931C82.9658 48.6033 82.7161 48.9728 82.5456 49.3804C82.3751 49.7879 82.2873 50.2252 82.2873 50.667C82.2873 51.1087 82.3751 51.5461 82.5456 51.9536C82.7161 52.3611 82.9658 52.7307 83.2804 53.0409C83.595 53.351 83.968 53.5955 84.3779 53.7603C84.7878 53.925 85.2264 54.0066 85.6681 54.0003H92.3348C93.2953 54.0003 94.0014 54.7064 94.0014 55.667V65.9534L91.3582 63.3102C91.0472 62.9905 90.6752 62.7365 90.2642 62.5631C89.8532 62.3898 89.4116 62.3007 88.9656 62.3011C88.3028 62.3019 87.6552 62.5003 87.1057 62.871C86.5562 63.2416 86.1296 63.7676 85.8805 64.3818C85.6314 64.9961 85.571 65.6706 85.7071 66.3193C85.8432 66.9681 86.1696 67.5615 86.6446 68.0238L94.6818 76.0609C94.9936 76.4713 95.3963 76.8039 95.8583 77.0324C96.3203 77.2609 96.8291 77.3792 97.3445 77.378C97.86 77.3767 98.3681 77.2559 98.829 77.0251C99.2899 76.7943 99.691 76.4598 100.001 76.0479L108.025 68.0238C108.345 67.7166 108.6 67.3487 108.776 66.9416C108.952 66.5345 109.045 66.0964 109.05 65.6529C109.054 65.2095 108.97 64.7696 108.802 64.359C108.635 63.9484 108.387 63.5754 108.073 63.2618C107.76 62.9482 107.387 62.7003 106.976 62.5327C106.566 62.365 106.126 62.281 105.682 62.2855C105.239 62.29 104.801 62.383 104.393 62.5589C103.986 62.7349 103.618 62.9903 103.311 63.3102L100.668 65.9534V55.667C100.668 51.1042 96.8975 47.3337 92.3348 47.3337H85.6681ZM50.6193 70.6214C50.1128 70.6291 49.6148 70.7522 49.163 70.9812C48.7112 71.2102 48.3175 71.5391 48.0118 71.943L39.978 79.9769C39.6581 80.284 39.4027 80.6519 39.2267 81.059C39.0508 81.4661 38.9578 81.9042 38.9533 82.3477C38.9488 82.7912 39.0328 83.2311 39.2004 83.6417C39.3681 84.0523 39.6159 84.4253 39.9295 84.7389C40.2431 85.0525 40.6161 85.3003 41.0267 85.468C41.4373 85.6356 41.8772 85.7196 42.3207 85.7151C42.7642 85.7106 43.2023 85.6176 43.6094 85.4417C44.0165 85.2657 44.3844 85.0103 44.6915 84.6904L47.3347 82.0472V92.3337C47.3347 96.8964 51.1053 100.667 55.6681 100.667H62.3347C62.7765 100.673 63.215 100.592 63.6249 100.427C64.0348 100.262 64.4079 100.018 64.7224 99.7075C65.037 99.3974 65.2868 99.0278 65.4573 98.6203C65.6278 98.2128 65.7156 97.7754 65.7156 97.3337C65.7156 96.8919 65.6278 96.4546 65.4573 96.047C65.2868 95.6395 65.037 95.2699 64.7224 94.9598C64.4079 94.6496 64.0348 94.4051 63.6249 94.2404C63.215 94.0757 62.7765 93.9941 62.3347 94.0003H55.6681C54.7075 94.0003 54.0014 93.2942 54.0014 92.3337V82.0472L56.6446 84.6904C56.9518 85.0103 57.3197 85.2658 57.7268 85.4417C58.1339 85.6177 58.572 85.7106 59.0155 85.7151C59.4589 85.7196 59.8988 85.6356 60.3094 85.468C60.72 85.3004 61.0931 85.0525 61.4067 84.7389C61.7202 84.4253 61.9681 84.0523 62.1358 83.6417C62.3034 83.2311 62.3874 82.7912 62.3829 82.3477C62.3784 81.9042 62.2854 81.4661 62.1095 81.059C61.9335 80.6519 61.6781 80.284 61.3582 79.9769L53.3113 71.93C52.9957 71.5171 52.5878 71.1838 52.1204 70.9566C51.653 70.7294 51.1389 70.6146 50.6193 70.6214ZM97.2859 82.2881C96.4024 82.301 95.5602 82.6642 94.9444 83.2978C94.3285 83.9313 93.9893 84.7835 94.0014 85.667V92.3337C94.0014 93.2942 93.2953 94.0003 92.3348 94.0003H82.0483L84.6915 91.3571C85.1732 90.8889 85.5022 90.2861 85.6354 89.6277C85.7686 88.9693 85.6998 88.286 85.438 87.6674C85.1762 87.0488 84.7336 86.5237 84.1682 86.1609C83.6029 85.7981 82.9411 85.6146 82.2696 85.6344C81.4036 85.6602 80.5817 86.0222 79.978 86.6436L71.9409 94.6807C71.5304 94.9925 71.1979 95.3952 70.9693 95.8572C70.7408 96.3192 70.6225 96.828 70.6238 97.3434C70.625 97.8589 70.7458 98.367 70.9766 98.8279C71.2074 99.2888 71.5419 99.6899 71.9539 99.9997L79.978 108.024C80.2851 108.344 80.653 108.599 81.0601 108.775C81.4672 108.951 81.9053 109.044 82.3488 109.048C82.7923 109.053 83.2322 108.969 83.6428 108.801C84.0534 108.634 84.4264 108.386 84.74 108.072C85.0536 107.759 85.3015 107.386 85.4691 106.975C85.6367 106.564 85.7207 106.125 85.7162 105.681C85.7117 105.238 85.6188 104.799 85.4428 104.392C85.2668 103.985 85.0114 103.617 84.6915 103.31L82.0483 100.667H92.3348C96.8975 100.667 100.668 96.8964 100.668 92.3337V85.667C100.674 85.2213 100.591 84.7789 100.423 84.366C100.255 83.9531 100.006 83.578 99.6909 83.263C99.3755 82.948 99.0002 82.6994 98.5871 82.5319C98.1741 82.3645 97.7316 82.2816 97.2859 82.2881Z" fill="url(#paint1_linear_6770_20083)"/>
<defs>
<linearGradient id="paint0_linear_6770_20083" x1="3.54934" y1="63.5367" x2="146.08" y2="63.5368" gradientUnits="userSpaceOnUse">
<stop stop-color="#92D65E"/>
<stop offset="1" stop-color="#5DB14C"/>
</linearGradient>
<linearGradient id="paint1_linear_6770_20083" x1="40.6342" y1="69.0537" x2="108.14" y2="69.0537" gradientUnits="userSpaceOnUse">
<stop stop-color="#92D65E"/>
<stop offset="1" stop-color="#5DB14C"/>
</linearGradient>
</defs>
</svg>
