<svg width="148" height="148" viewBox="0 0 148 148" fill="none" xmlns="http://www.w3.org/2000/svg">
<circle cx="74" cy="74" r="73" fill="white" stroke="url(#paint0_linear_6770_20094)" stroke-width="2"/>
<path d="M72.3307 40.667C63.1407 40.667 55.6641 48.1437 55.6641 57.3337C55.6641 66.5237 63.1407 74.0003 72.3307 74.0003C81.5207 74.0003 88.9974 66.5237 88.9974 57.3337C88.9974 48.1437 81.5207 40.667 72.3307 40.667ZM95.6673 72.3337C95.1577 72.3337 94.6469 72.5452 94.3327 72.9652C89.9144 78.8552 82.404 78.9645 82.334 78.9645C81.414 78.9645 80.6673 79.7112 80.6673 80.6312V90.667C80.6673 106.782 95.1187 110.581 95.2637 110.618C95.397 110.651 95.5307 110.667 95.6673 110.667C95.804 110.667 95.9376 110.651 96.071 110.618C96.216 110.581 110.667 106.782 110.667 90.667V80.6312C110.667 79.7145 109.924 78.9695 109.007 78.9645C108.932 78.9645 101.42 78.8552 97.002 72.9652C96.6878 72.5452 96.1769 72.3337 95.6673 72.3337ZM52.2982 80.6637C48.6415 80.6637 45.6641 83.6412 45.6641 87.2979V89.8304C45.6641 95.3504 48.8084 100.124 54.5117 103.271C59.2584 105.889 65.5857 107.33 72.3307 107.33H72.3372C75.9556 107.33 79.4449 106.905 82.6432 106.116C79.6849 102.598 77.334 97.617 77.334 90.667V80.6637H52.2982Z" fill="url(#paint1_linear_6770_20094)"/>
<defs>
<linearGradient id="paint0_linear_6770_20094" x1="3.54934" y1="63.5367" x2="146.08" y2="63.5368" gradientUnits="userSpaceOnUse">
<stop stop-color="#92D65E"/>
<stop offset="1" stop-color="#5DB14C"/>
</linearGradient>
<linearGradient id="paint1_linear_6770_20094" x1="47.223" y1="70.7182" x2="109.824" y2="70.7182" gradientUnits="userSpaceOnUse">
<stop stop-color="#92D65E"/>
<stop offset="1" stop-color="#5DB14C"/>
</linearGradient>
</defs>
</svg>
