<svg width="148" height="148" viewBox="0 0 148 148" fill="none" xmlns="http://www.w3.org/2000/svg">
<circle cx="74" cy="74" r="73" fill="white" stroke="url(#paint0_linear_6770_20105)" stroke-width="2"/>
<path d="M75.2995 34.833C64.5361 34.833 55.7812 43.5912 55.7812 54.3545C55.7812 55.4962 55.9195 56.4436 56.0645 57.4469L56.1165 57.8018C56.1199 57.8301 56.1376 57.8515 56.1426 57.8799C56.1976 58.4415 56.3055 59.1098 56.4355 59.8298C57.9655 55.0514 60.0789 49.8803 62.6172 47.307C65.0989 42.8536 69.8511 39.833 75.2995 39.833C80.8511 39.833 85.7331 42.9785 88.2031 47.7301C89.8115 46.7101 91.5189 46.2381 93.0339 46.2197C89.8755 39.4014 83.0728 34.833 75.2995 34.833ZM65.8691 48.9867C63.8991 49.2283 60.4036 57.1627 57.9753 66.5811C58.4769 68.5461 59.0479 70.7044 59.6712 73.0394C62.1012 82.1661 65.1048 93.4488 65.2181 99.3838C61.1964 107.014 61.1979 108.124 61.1979 108.664C61.1979 113.263 69.9365 113.951 75.1465 113.951C80.6448 113.951 89.8698 113.263 89.8698 108.664C89.8698 107.401 89.1142 106.007 87.8809 103.837C87.5242 103.21 87.0354 102.353 86.9271 102.063C86.9071 102.008 86.83 101.836 86.8066 101.783C85.225 98.3179 84.4398 95.3448 84.1048 92.8148C82.3832 97.8281 82.334 102.258 82.334 102.336C82.3307 103.256 81.5856 104 80.6673 104H80.6641C79.7424 103.998 79.0007 103.253 79.0007 102.333C79.0007 101.816 79.0963 91.7002 85.0163 83.9085C89.7079 76.9035 95.0078 68.944 95.4395 51.9424C95.4595 51.0907 95.049 50.2869 94.3457 49.8102C94.3324 49.8019 94.32 49.799 94.3066 49.7907C94.3033 49.7774 94.297 49.765 94.2936 49.7516C94.1303 49.685 93.9533 49.6304 93.75 49.5954C92.1867 49.3254 90.0475 50.0871 88.3691 51.9554C87.8058 52.8937 87.2801 54.0407 86.7318 55.3473C88.7284 57.3207 89.9805 60.093 89.9805 63.1663C89.9805 69.1397 85.2739 73.9997 79.4889 73.9997C73.7039 73.9997 69.0007 69.1397 69.0007 63.1663C69.0007 61.048 69.6017 59.0746 70.625 57.4046C69.37 52.8813 67.1175 48.8033 65.8691 48.9867ZM79.4922 55.6663C75.5455 55.6663 72.334 59.0313 72.334 63.1663C72.334 67.3013 75.5455 70.6663 79.4922 70.6663C83.4389 70.6663 86.6471 67.3013 86.6471 63.1663C86.6471 59.0313 83.4389 55.6663 79.4922 55.6663Z" fill="url(#paint1_linear_6770_20105)"/>
<defs>
<linearGradient id="paint0_linear_6770_20105" x1="3.54934" y1="63.5367" x2="146.08" y2="63.5368" gradientUnits="userSpaceOnUse">
<stop stop-color="#92D65E"/>
<stop offset="1" stop-color="#5DB14C"/>
</linearGradient>
<linearGradient id="paint1_linear_6770_20105" x1="56.7324" y1="68.7985" x2="94.9256" y2="68.7985" gradientUnits="userSpaceOnUse">
<stop stop-color="#92D65E"/>
<stop offset="1" stop-color="#5DB14C"/>
</linearGradient>
</defs>
</svg>
