<svg width="148" height="148" viewBox="0 0 148 148" fill="none" xmlns="http://www.w3.org/2000/svg">
<circle cx="74" cy="74" r="73" fill="white" stroke="url(#paint0_linear_6770_20119)" stroke-width="2"/>
<path d="M58.1672 52.3335C55.8655 52.3335 54.0005 54.1985 54.0005 56.5002V63.1668C54.0005 64.6018 54.7266 65.8674 55.83 66.6174C57.9116 65.8957 60.0825 65.1461 62.1125 64.4461C62.2442 64.0411 62.3339 63.6168 62.3339 63.1668V56.5002C62.3339 54.1985 60.4689 52.3335 58.1672 52.3335ZM69.8339 52.3335C67.5322 52.3335 65.6672 54.1985 65.6672 56.5002V63.1668C65.6672 63.1852 65.6721 63.2022 65.6737 63.2222C68.6087 62.2122 70.6835 61.5034 70.6835 61.5034C71.1352 61.3501 71.6276 61.3938 72.0409 61.6271C72.6426 61.9654 73.3559 62.5367 73.9843 63.3101C73.9876 63.2617 74.0005 63.2152 74.0005 63.1668V56.5002C74.0005 54.1985 72.1355 52.3335 69.8339 52.3335ZM81.5005 52.3335C79.1989 52.3335 77.3339 54.1985 77.3339 56.5002V66.5002C77.3339 68.8018 79.1989 70.6668 81.5005 70.6668C83.8022 70.6668 85.6672 68.8018 85.6672 66.5002V56.5002C85.6672 54.1985 83.8022 52.3335 81.5005 52.3335ZM93.1672 54.0002C90.8655 54.0002 89.0005 55.8652 89.0005 58.1668V66.5002C89.0005 68.8018 90.8655 70.6668 93.1672 70.6668C95.4689 70.6668 97.3339 68.8018 97.3339 66.5002V58.1668C97.3339 55.8652 95.4689 54.0002 93.1672 54.0002ZM70.9504 64.9344C68.2771 65.8511 59.5753 68.8361 53.4537 70.9761C52.6003 71.4194 51.7707 71.8261 51.009 72.1545C47.9373 73.4778 46.1059 76.7754 46.5559 80.172C47.7459 89.187 49.2842 98.0075 52.4576 101.474C55.9242 105.262 60.2443 107.34 64.606 107.34C64.6993 107.34 64.7894 107.338 64.8827 107.337H78.6718C83.6234 107.313 88.2962 105.416 91.8196 101.8C95.3296 98.2013 97.2856 93.3965 97.3306 88.2515V72.786C96.8023 73.126 96.2106 73.3769 95.5956 73.5802C95.4256 73.6386 95.253 73.6898 95.078 73.7365C94.8797 73.7865 94.6841 73.8382 94.4791 73.8732C94.0507 73.9499 93.6155 74.0002 93.1672 74.0002C92.7889 74.0002 92.4221 73.9639 92.0604 73.9123C91.9921 73.9023 91.927 73.8881 91.8586 73.8765C89.962 73.5498 88.3155 72.541 87.1972 71.1193C85.8572 72.8593 83.7459 74.0002 81.3475 74.0002C78.6542 74.0002 76.3287 72.567 75.0487 70.452C74.9821 70.637 74.9188 70.8219 74.8371 71.0119C74.3638 72.1102 73.6264 73.1322 72.6464 74.0555C71.3597 75.2655 69.1914 76.9667 67.1614 78.5184C77.6164 83.5534 76.5025 93.2767 76.4875 93.3817C76.3792 94.2233 75.6621 94.8335 74.8371 94.8335C74.7655 94.8335 74.6924 94.8288 74.619 94.8205C73.7074 94.7021 73.0652 93.8653 73.1835 92.952C73.2235 92.6037 74.086 84.1631 63.2877 80.5431C62.701 80.3465 62.2744 79.8413 62.1744 79.2313C62.0744 78.6213 62.3207 78.0063 62.8124 77.633L63.0989 77.4181C65.3505 75.7165 68.7529 73.1421 70.3612 71.6271C71.0079 71.0205 71.4807 70.3718 71.7707 69.6968C72.8624 67.1551 71.7454 65.6311 70.9504 64.9344Z" fill="url(#paint1_linear_6770_20119)"/>
<defs>
<linearGradient id="paint0_linear_6770_20119" x1="3.54934" y1="63.5367" x2="146.08" y2="63.5368" gradientUnits="userSpaceOnUse">
<stop stop-color="#92D65E"/>
<stop offset="1" stop-color="#5DB14C"/>
</linearGradient>
<linearGradient id="paint1_linear_6770_20119" x1="47.7077" y1="75.9479" x2="96.6742" y2="75.9479" gradientUnits="userSpaceOnUse">
<stop stop-color="#92D65E"/>
<stop offset="1" stop-color="#5DB14C"/>
</linearGradient>
</defs>
</svg>
