<svg width="148" height="148" viewBox="0 0 148 148" fill="none" xmlns="http://www.w3.org/2000/svg">
<circle cx="74" cy="74" r="73" fill="white" stroke="url(#paint0_linear_6770_20136)" stroke-width="2"/>
<path d="M81.4102 44.9147C79.7357 44.9922 78.0674 45.4223 76.5111 46.2005C76.4659 46.223 76.4214 46.2469 76.3776 46.2721L71.6511 49.0032C71.6012 49.0006 71.5513 48.9995 71.5013 48.9999H39.8346C39.4698 48.9953 39.1083 49.0705 38.7756 49.2204C38.4429 49.3703 38.1471 49.5912 37.9088 49.8676C37.6706 50.144 37.4957 50.4692 37.3965 50.8204C37.2973 51.1715 37.2762 51.5401 37.3346 51.9003V82.7565C37.2746 83.1174 37.2946 83.4871 37.393 83.8394C37.4915 84.1918 37.6661 84.5183 37.9045 84.7958C38.1429 85.0733 38.4393 85.2952 38.7728 85.4456C39.1063 85.5961 39.4688 85.6715 39.8346 85.6666H42.0319C43.1607 85.6666 44.218 86.1107 45.0039 86.9133C48.9001 90.8912 57.4222 99.5854 59.916 102.05C62.7916 104.893 66.4994 106.073 69.8379 105.458C72.5449 104.96 74.9157 103.072 76.1009 100.38C78.9519 100.142 81.1425 98.833 82.4649 97.2714C82.4985 97.2732 82.5321 97.2743 82.5658 97.2747C82.5658 97.2747 90.089 97.4059 94.2748 97.2747C97.1866 97.1844 100.122 96.1961 102.712 93.9251C103.881 92.9013 105.286 92.33 106.716 92.33H108.168C108.499 92.3347 108.828 92.2735 109.136 92.15C109.443 92.0264 109.723 91.843 109.959 91.6104C110.195 91.3778 110.382 91.1006 110.51 90.795C110.638 90.4893 110.704 90.1613 110.704 89.83C110.704 89.4987 110.638 89.1707 110.51 88.8651C110.382 88.5594 110.195 88.2822 109.959 88.0496C109.723 87.817 109.443 87.6336 109.136 87.5101C108.828 87.3865 108.499 87.3253 108.168 87.33H106.716C103.959 87.33 101.4 88.4291 99.418 90.1653C97.5981 91.761 96.1532 92.2149 94.1218 92.2779H94.1185C92.7535 92.3208 90.8525 92.312 89.0632 92.3105C90.3385 91.2592 91.4823 89.731 92.1882 87.6881C95.0765 87.0278 97.5245 85.4058 98.4414 82.8769C99.5731 79.7556 98.6929 75.9828 95.9154 73.1406C93.8108 70.986 84.4668 60.5755 84.4668 60.5755C84.139 60.2097 83.7107 59.9485 83.2355 59.8247C82.7602 59.7008 82.2589 59.7196 81.7943 59.8788C81.7943 59.8788 72.2731 63.0494 65.2578 63.0494C64.2191 63.0494 63.3156 62.9278 62.5235 62.7304C61.5258 62.4813 61.1488 61.8353 61.0619 60.9986C60.9754 60.1668 61.2492 59.4323 62.0873 59.0065L69.9128 55.7578C70.0135 55.7154 70.1114 55.6664 70.2057 55.6113L78.7604 50.6666C80.6507 49.7257 82.659 49.6548 84.4798 50.3834L95.7461 54.8886C97.0265 55.403 98.3935 55.6629 99.7695 55.6634L108.168 55.6666C108.499 55.6713 108.828 55.6101 109.136 55.4866C109.443 55.363 109.723 55.1796 109.959 54.947C110.195 54.7144 110.382 54.4372 110.51 54.1316C110.638 53.8259 110.704 53.4979 110.704 53.1666C110.704 52.8353 110.638 52.5073 110.51 52.2016C110.382 51.896 110.195 51.6188 109.959 51.3862C109.723 51.1536 109.443 50.9702 109.136 50.8467C108.828 50.7231 108.499 50.6619 108.168 50.6666L99.7728 50.6634C99.0299 50.6634 98.2966 50.5252 97.6113 50.2499L97.6048 50.2467L86.3386 45.7415C84.7643 45.1116 83.0846 44.8371 81.4102 44.9147Z" fill="url(#paint1_linear_6770_20136)"/>
<defs>
<linearGradient id="paint0_linear_6770_20136" x1="3.54934" y1="63.5367" x2="146.08" y2="63.5368" gradientUnits="userSpaceOnUse">
<stop stop-color="#92D65E"/>
<stop offset="1" stop-color="#5DB14C"/>
</linearGradient>
<linearGradient id="paint1_linear_6770_20136" x1="39.0611" y1="70.967" x2="109.751" y2="70.967" gradientUnits="userSpaceOnUse">
<stop stop-color="#92D65E"/>
<stop offset="1" stop-color="#5DB14C"/>
</linearGradient>
</defs>
</svg>
