<svg width="80" height="80" viewBox="0 0 80 80" fill="none" xmlns="http://www.w3.org/2000/svg">
<rect width="80" height="80" rx="6" fill="#E8F4FF"/>
<path opacity="0.2" d="M61.0013 21.334H19.0013C17.7133 21.334 16.668 22.3793 16.668 23.6673V51.6673C16.668 52.9553 17.7133 54.0007 19.0013 54.0007H24.9956C28.3696 51.1563 33.7736 49.334 40.0013 49.334C46.229 49.334 51.633 51.1563 55.007 54.0007H61.0013C62.2893 54.0007 63.3346 52.9553 63.3346 51.6673V23.6673C63.3346 22.3793 62.2893 21.334 61.0013 21.334ZM40.0013 47.0007C37.423 47.0007 35.3346 44.9123 35.3346 42.334C35.3346 39.7557 37.423 37.6673 40.0013 37.6673C42.5796 37.6673 44.668 39.7557 44.668 42.334C44.668 44.9123 42.5796 47.0007 40.0013 47.0007Z" fill="#003366"/>
<path fill-rule="evenodd" clip-rule="evenodd" d="M18.9987 19H60.9987C63.577 19 65.6654 21.0883 65.6654 23.6667V51.6667C65.6654 54.245 63.577 56.3333 60.9987 56.3333H57.1417C55.8654 54.4597 53.826 52.866 51.264 51.6667H51.3045C52.7109 52.3297 53.9572 53.1157 55.007 54.0007H61.0013C62.2893 54.0007 63.3346 52.9553 63.3346 51.6673V23.6673C63.3346 22.3793 62.2893 21.334 61.0013 21.334H19.0013C17.7133 21.334 16.668 22.3793 16.668 23.6673V51.6673C16.668 52.9553 17.7133 54.0007 19.0013 54.0007H24.9956C26.0454 53.1157 27.2917 52.3297 28.6981 51.6667H28.7334C26.1714 52.866 24.132 54.4597 22.8557 56.3333H18.9987C16.4204 56.3333 14.332 54.245 14.332 51.6667V23.6667C14.332 21.0883 16.4204 19 18.9987 19Z" fill="#003366"/>
<path fill-rule="evenodd" clip-rule="evenodd" d="M26 61C26 57.3343 32.3513 54 40 54C47.6487 54 54 57.3343 54 61V63.3333H26V61Z" fill="#003366"/>
<path fill-rule="evenodd" clip-rule="evenodd" d="M34.3398 42.3333C34.3398 45.4634 36.8751 47.9987 40.0052 47.9987C43.1353 47.9987 45.6706 45.4634 45.6706 42.3333C45.6706 39.2032 43.1353 36.668 40.0052 36.668C36.8751 36.668 34.3398 39.2032 34.3398 42.3333ZM40.0046 39.5C41.6985 39.5 42.8372 40.6387 42.8372 42.3327C42.8372 44.0266 41.6985 45.1654 40.0046 45.1654C38.3106 45.1654 37.1719 44.0266 37.1719 42.3327C37.1719 40.6387 38.3106 39.5 40.0046 39.5Z" fill="#003366"/>
</svg>
