<?xml version="1.0" encoding="UTF-8"?>
<svg xmlns="http://www.w3.org/2000/svg" width="18" height="19" viewBox="0 0 18 19" fill="none">
  <path d="M7.68785 17.724C7.1711 17.724 6.75035 17.3037 6.75035 16.7865V10.224L5.0816 10.2252C4.56898 10.2252 4.14823 9.80891 4.14373 9.29666L4.13285 8.17053C4.1306 7.91816 4.2266 7.68078 4.40435 7.50191C4.58135 7.32266 4.81798 7.22403 5.07035 7.22403H6.75035V5.53653C6.75035 3.00678 8.0411 1.61328 10.3845 1.61328C11.3115 1.61328 12.1207 1.67891 12.1282 1.67966C12.4901 1.71191 12.7624 2.00966 12.7624 2.37228V4.08603C12.7624 4.46928 12.4504 4.78128 12.0671 4.78128H10.9766C10.5202 4.78128 10.1486 5.15253 10.1486 5.60928L10.1276 7.22403H11.7919C12.0592 7.22403 12.3142 7.33878 12.492 7.53828C12.6697 7.73778 12.7541 8.00441 12.723 8.26991L12.5921 9.39491C12.5374 9.86778 12.1369 10.224 11.6614 10.224H10.1254V16.7865C10.1254 17.3037 9.7046 17.724 9.18785 17.724H7.68785Z" fill="white"></path>
</svg>
