<?xml version="1.0" encoding="UTF-8"?>
<svg xmlns="http://www.w3.org/2000/svg" width="214" height="90" viewBox="0 0 214 90" fill="none">
  <g clip-path="url(#clip0_6270_1592)">
    <path d="M100.289 7.12392C100.114 6.11969 100.207 5.08692 100.56 4.13056C100.914 3.17421 101.513 2.32835 102.299 1.67892C103.434 0.593471 104.95 -0.00353763 106.521 0.0160943C108.091 0.0357262 109.591 0.670433 110.699 1.78392C111.494 2.50637 112.08 3.42893 112.397 4.45531C112.714 5.48169 112.749 6.57425 112.499 7.61892C111.374 12.4189 108.704 16.6189 106.394 20.9389C104.114 16.4989 101.354 12.1039 100.289 7.12392ZM105.164 2.74392C102.164 3.65892 101.699 8.95392 105.164 9.70392C107.744 10.7689 111.164 8.20392 110.144 5.47392C109.694 2.99892 107.384 2.26392 105.164 2.74392Z" fill="url(#paint0_linear_6270_1592)"></path>
    <path d="M97.6777 12.6895L100.258 16.1695C76.2576 18.0595 52.8127 27.4795 35.4277 44.2795L31.3477 43.0195C48.2227 26.2645 73.9627 14.8195 97.6777 12.6895Z" fill="white"></path>
    <path d="M112.141 16.3495L114.781 12.6895C139.201 15.1645 163.006 25.3945 180.421 42.8845L176.701 44.3845C159.074 27.8483 136.257 17.9399 112.141 16.3495Z" fill="white"></path>
    <path d="M62.7312 48.3301H69.9463C69.9463 59.1901 69.7963 70.0501 69.9463 80.8951L62.6562 81.0001C62.7913 70.1251 62.6862 59.2351 62.7312 48.3301Z" fill="white"></path>
    <path d="M0.075 49.709H22.935V55.709H7.935C7.935 58.034 7.935 60.374 7.935 62.699H22.935V68.819H7.935C7.935 72.869 7.935 76.934 7.935 80.984H0C0 70.499 0 60.119 0.075 49.709Z" fill="white"></path>
    <path d="M89.4013 48.3438H96.5563L96.1963 79.7087C93.7063 81.7188 88.8163 81.3587 86.2663 81.2087C80.9563 80.6087 75.3913 80.5787 74.0713 75.0137C73.3512 71.4043 73.3512 67.6882 74.0713 64.0788C74.5171 62.264 75.5268 60.6373 76.9552 59.4326C78.3837 58.2278 80.1574 57.507 82.0213 57.3738C84.5287 57.3514 87.0346 57.5018 89.5213 57.8237L89.4013 48.3438ZM81.5413 65.6687V72.4487C81.5426 73.1348 81.7925 73.7971 82.2449 74.3129C82.6973 74.8287 83.3213 75.163 84.0013 75.2537C84.6013 75.2537 85.2163 75.4037 85.8313 75.4487C86.2894 75.4897 86.7511 75.4387 87.1891 75.2987C87.6272 75.1587 88.0329 74.9325 88.3823 74.6334C88.7316 74.3343 89.0177 73.9684 89.2236 73.5572C89.4295 73.1459 89.5512 72.6977 89.5813 72.2388C89.8891 69.6909 89.8588 67.1136 89.4913 64.5737C88.8763 62.9237 86.4913 62.5938 84.4513 62.6238C83.6635 62.6473 82.9167 62.9799 82.3721 63.5497C81.8276 64.1195 81.5292 64.8807 81.5413 65.6687Z" fill="white"></path>
    <path d="M101.203 49.7383H108.598C108.598 58.0933 108.598 66.4483 108.598 74.8183C113.563 74.8183 123.598 74.8183 123.598 74.8183V80.9983C123.598 80.9983 108.268 80.9983 101.248 80.9983C101.188 70.5883 101.233 60.1633 101.203 49.7383Z" fill="white"></path>
    <path d="M26.5964 57.9121H33.7214C33.7214 65.6071 33.7214 73.3021 33.7214 80.9971H26.5664C26.6264 73.2871 26.5814 65.5921 26.5964 57.9121Z" fill="white"></path>
    <path d="M37.5 64.2886C38.595 57.1486 48.6 56.3836 54.21 58.1236C59.055 59.3986 59.76 64.6786 58.86 69.1186C58.7302 69.7548 58.4042 70.3342 57.928 70.7755C57.4517 71.2168 56.8491 71.4977 56.205 71.5786C52.05 72.1186 47.82 71.8186 43.665 72.1336C43.335 76.0636 52.41 75.4636 57.84 75.5836L57.765 80.9986C57.765 80.9986 48.255 81.5836 44.265 80.6386C42.8111 80.3269 41.4682 79.6286 40.3779 78.6176C39.2876 77.6065 38.4903 76.32 38.07 74.8936C37.2979 71.4141 37.1054 67.8309 37.5 64.2886ZM43.8 66.8986H52.635L52.5 64.2886C52.4716 63.7769 52.2634 63.2916 51.9121 62.9184C51.5609 62.5451 51.0891 62.308 50.58 62.2486C48.9822 62.0837 47.3704 62.1139 45.78 62.3386C45.2303 62.431 44.7311 62.7153 44.3713 63.141C44.0115 63.5667 43.8144 64.1062 43.815 64.6636L43.8 66.8986Z" fill="white"></path>
    <path d="M130.685 58.2267C135.298 56.7214 140.292 56.8806 144.8 58.6767C148.82 60.8517 148.79 66.0567 148.835 70.0317C148.835 73.2567 148.625 77.0667 146.06 79.5417C145.001 80.5047 143.69 81.1449 142.28 81.3867C138.23 82.1778 134.049 81.9666 130.1 80.7717C124.91 78.4167 125.375 71.7717 125.69 66.9717C125.87 63.7317 127.16 59.5617 130.685 58.2267ZM132.89 67.6317C132.727 69.2218 132.783 70.8267 133.055 72.4017C133.253 73.5257 133.88 74.5289 134.803 75.2003C135.727 75.8717 136.874 76.1589 138.005 76.0017C139.97 75.7317 142.04 74.5017 142.1 72.4917C142.223 70.0581 142.127 67.6183 141.815 65.2017C141.62 63.9867 140.075 63.0417 138.815 62.8317L138.395 62.7567C137.709 62.6929 137.017 62.7704 136.361 62.9846C135.706 63.1987 135.102 63.545 134.586 64.0019C134.07 64.4588 133.654 65.0166 133.362 65.641C133.07 66.2653 132.909 66.9428 132.89 67.6317Z" fill="white"></path>
    <path d="M153.318 75.5688C151.188 69.5688 150.978 59.4138 158.853 57.7938C164.448 56.4738 173.703 56.8788 174.648 64.1538C174.873 69.9588 175.983 76.2888 175.008 82.1538C174.812 83.413 174.295 84.6004 173.507 85.6015C172.719 86.6026 171.686 87.3835 170.508 87.8688C164.223 90.3738 154.443 89.2638 154.443 89.2638V83.1588C158.943 83.1588 165.453 84.1188 168.978 80.3688V79.7238C163.788 79.5888 156.003 81.5388 153.318 75.5688ZM159.468 66.1638C159.287 67.4108 159.257 68.6747 159.378 69.9288C159.453 71.0023 159.91 72.0132 160.667 72.7783C161.424 73.5433 162.43 74.0118 163.503 74.0988H163.908C164.809 74.1638 165.701 73.8815 166.401 73.3098C167.101 72.738 167.556 71.9202 167.673 71.0238C167.921 69.4359 167.962 67.8222 167.793 66.2238C167.669 65.3672 167.262 64.5767 166.637 63.9785C166.012 63.3803 165.204 63.0089 164.343 62.9238C163.908 62.9014 163.472 62.9014 163.038 62.9238C162.157 62.961 161.318 63.3055 160.666 63.8975C160.014 64.4895 159.59 65.2915 159.468 66.1638Z" fill="white"></path>
    <path d="M179.249 57.8535L186.344 57.8985L186.359 80.9685H179.234L179.249 57.8535Z" fill="white"></path>
    <path d="M189.634 57.8535H197.404L201.244 64.1535L205.564 57.8535H212.674L205.084 68.8785L213.619 80.9685L205.639 80.9535L201.019 73.7685L196.474 80.9685H188.914L197.239 69.0135L189.634 57.8535Z" fill="white"></path>
    <ellipse cx="30" cy="49.498" rx="4.5" ry="4.5" fill="#61B93F"></ellipse>
    <ellipse cx="181.5" cy="49.498" rx="4.5" ry="4.5" fill="#61B93F"></ellipse>
  </g>
  <defs>
    <linearGradient id="paint0_linear_6270_1592" x1="100.502" y1="8.99805" x2="112.502" y2="8.99805" gradientUnits="userSpaceOnUse">
      <stop stop-color="#92D65E"></stop>
      <stop offset="1" stop-color="#5DB14C"></stop>
    </linearGradient>
    <clipPath id="clip0_6270_1592">
      <rect width="213.615" height="89.475" fill="white"></rect>
    </clipPath>
  </defs>
</svg>
