<?xml version="1.0" encoding="UTF-8"?> <svg xmlns="http://www.w3.org/2000/svg" width="20" height="19" viewBox="0 0 20 19" fill="none"><path d="M10.0047 -0.0019385C9.8645 -0.00281366 9.72689 0.0356069 9.60744 0.108966C9.488 0.182324 9.3915 0.287686 9.32889 0.413101L6.75272 5.56544L0.635531 6.50685C0.498607 6.52801 0.370218 6.58668 0.264603 6.67635C0.158987 6.76602 0.0802726 6.8832 0.0371882 7.01488C-0.00589614 7.14656 -0.0116666 7.2876 0.0205166 7.42236C0.0526998 7.55712 0.121579 7.68033 0.219516 7.77833L4.45096 12.0098L3.50858 18.1338C3.4875 18.2708 3.50479 18.411 3.55855 18.5388C3.61231 18.6665 3.70043 18.7769 3.81313 18.8576C3.92582 18.9384 4.05868 18.9863 4.19696 18.9961C4.33524 19.0059 4.47353 18.9771 4.59647 18.9131L9.99979 16.0938L15.4031 18.9131C15.526 18.9771 15.6643 19.0059 15.8026 18.9961C15.9409 18.9863 16.0738 18.9384 16.1864 18.8576C16.2991 18.7769 16.3873 18.6665 16.441 18.5388C16.4948 18.411 16.5121 18.2708 16.491 18.1338L15.5486 12.0098L19.7801 7.77833C19.878 7.68033 19.9469 7.55712 19.9791 7.42236C20.0112 7.2876 20.0055 7.14656 19.9624 7.01488C19.9193 6.8832 19.8406 6.76602 19.735 6.67635C19.6294 6.58668 19.501 6.52801 19.364 6.50685L13.2469 5.56544L10.6707 0.413101C10.6088 0.28917 10.5138 0.184791 10.3963 0.111533C10.2787 0.0382755 10.1432 -0.000999591 10.0047 -0.0019385Z" fill="url(#paint0_linear_6360_1971)"></path><defs><linearGradient id="paint0_linear_6360_1971" x1="0.479631" y1="8.15475" x2="19.7401" y2="8.15475" gradientUnits="userSpaceOnUse"><stop stop-color="#92D65E"></stop><stop offset="1" stop-color="#5DB14C"></stop></linearGradient></defs></svg> 