<?xml version="1.0" encoding="UTF-8"?>
<svg xmlns="http://www.w3.org/2000/svg" width="18" height="19" viewBox="0 0 18 19" fill="none">
  <path d="M3.59091 2.47461C3.16897 2.47461 2.76432 2.64222 2.46597 2.94058C2.16761 3.23893 2 3.64358 2 4.06552C2 4.48745 2.16761 4.89211 2.46597 5.19046C2.76432 5.48881 3.16897 5.65643 3.59091 5.65643C4.01284 5.65643 4.4175 5.48881 4.71585 5.19046C5.0142 4.89211 5.18182 4.48745 5.18182 4.06552C5.18182 3.64358 5.0142 3.23893 4.71585 2.94058C4.4175 2.64222 4.01284 2.47461 3.59091 2.47461ZM2.63636 6.92915C2.28445 6.92915 2 7.21361 2 7.56552V15.8382C2 16.1902 2.28445 16.4746 2.63636 16.4746H4.54545C4.89736 16.4746 5.18182 16.1902 5.18182 15.8382V7.56552C5.18182 7.21361 4.89736 6.92915 4.54545 6.92915H2.63636ZM7.09091 6.92915C6.739 6.92915 6.45455 7.21361 6.45455 7.56552V15.8382C6.45455 16.1902 6.739 16.4746 7.09091 16.4746H9C9.35191 16.4746 9.63636 16.1902 9.63636 15.8382V11.0655C9.63636 10.188 10.3497 9.47461 11.2273 9.47461C12.1048 9.47461 12.8182 10.188 12.8182 11.0655V15.8382C12.8182 16.1902 13.1026 16.4746 13.4545 16.4746H15.3636C15.7155 16.4746 16 16.1902 16 15.8382V10.7473C16 8.64161 14.2875 6.92915 12.1818 6.92915C11.2031 6.92915 10.3128 7.30207 9.63636 7.9098V7.56552C9.63636 7.21361 9.35191 6.92915 9 6.92915H7.09091Z" fill="white"></path>
</svg>
