<?xml version="1.0" encoding="UTF-8"?>
<svg xmlns="http://www.w3.org/2000/svg" width="18" height="19" viewBox="0 0 18 19" fill="none">
  <path d="M6.1875 2.34961C3.80963 2.34961 1.875 4.28423 1.875 6.66211V12.2871C1.875 14.665 3.80963 16.5996 6.1875 16.5996H11.8125C14.1904 16.5996 16.125 14.665 16.125 12.2871V6.66211C16.125 4.28423 14.1904 2.34961 11.8125 2.34961H6.1875ZM12.75 4.97461C13.1644 4.97461 13.5 5.31023 13.5 5.72461C13.5 6.13861 13.1644 6.47461 12.75 6.47461C12.3356 6.47461 12 6.13861 12 5.72461C12 5.31023 12.3356 4.97461 12.75 4.97461ZM9 5.72461C11.0678 5.72461 12.75 7.40686 12.75 9.47461C12.75 11.5424 11.0678 13.2246 9 13.2246C6.93225 13.2246 5.25 11.5424 5.25 9.47461C5.25 7.40686 6.93225 5.72461 9 5.72461ZM9 6.84961C8.65528 6.84961 8.31394 6.91751 7.99546 7.04943C7.67698 7.18134 7.3876 7.3747 7.14385 7.61845C6.90009 7.86221 6.70674 8.15159 6.57482 8.47007C6.4429 8.78855 6.375 9.12989 6.375 9.47461C6.375 9.81933 6.4429 10.1607 6.57482 10.4792C6.70674 10.7976 6.90009 11.087 7.14385 11.3308C7.3876 11.5745 7.67698 11.7679 7.99546 11.8998C8.31394 12.0317 8.65528 12.0996 9 12.0996C9.34472 12.0996 9.68606 12.0317 10.0045 11.8998C10.323 11.7679 10.6124 11.5745 10.8562 11.3308C11.0999 11.087 11.2933 10.7976 11.4252 10.4792C11.5571 10.1607 11.625 9.81933 11.625 9.47461C11.625 9.12989 11.5571 8.78855 11.4252 8.47007C11.2933 8.15159 11.0999 7.86221 10.8562 7.61845C10.6124 7.3747 10.323 7.18134 10.0045 7.04943C9.68606 6.91751 9.34472 6.84961 9 6.84961Z" fill="white"></path>
</svg>
