<svg width="20" height="20" viewBox="0 0 20 20" fill="none" xmlns="http://www.w3.org/2000/svg">
<path d="M10.0016 2C7.79228 2 6.00162 3.79067 6.00162 6V6.66667C6.00162 8.876 7.79228 10.6667 10.0016 10.6667C12.2109 10.6667 14.0016 8.876 14.0016 6.66667V6C14.0016 3.79067 12.2109 2 10.0016 2ZM7.40005 13.0352C5.44339 13.5465 3.59765 14.5092 2.91698 15.3945C2.30765 16.1865 2.8877 17.3333 3.88703 17.3333H16.1149C17.1142 17.3333 17.6943 16.1859 17.0849 15.3932C16.4043 14.5079 14.5592 13.5465 12.6032 13.0352C11.9032 13.6358 10.9956 14 10.0016 14C9.00695 14 8.10005 13.6352 7.40005 13.0352Z" fill="#53A42A"/>
</svg>
