<?xml version="1.0" encoding="UTF-8"?>
<svg xmlns="http://www.w3.org/2000/svg" width="143" height="60" viewBox="0 0 143 60" fill="none">
  <g clip-path="url(#clip0_6384_7808)">
    <path d="M66.8582 4.75059C66.7413 4.08109 66.8037 3.39258 67.039 2.75501C67.2744 2.11744 67.6743 1.55353 68.1982 1.12059C68.955 0.396949 69.9654 -0.00105633 71.0125 0.0120316C72.0595 0.0251195 73.0597 0.448258 73.7982 1.19059C74.3281 1.67221 74.719 2.28726 74.93 2.97151C75.1411 3.65577 75.1647 4.38414 74.9982 5.08059C74.2482 8.28059 72.4682 11.0806 70.9282 13.9606C69.4082 11.0006 67.5682 8.07059 66.8582 4.75059ZM70.1082 1.83059C68.1082 2.44059 67.7982 5.97059 70.1082 6.47059C71.8282 7.18059 74.1082 5.47059 73.4282 3.65059C73.1282 2.00059 71.5882 1.51059 70.1082 1.83059Z" fill="url(#paint0_linear_6384_7808)"></path>
    <path d="M65.1184 8.46094L66.8384 10.7809C50.8384 12.0409 35.2084 18.3209 23.6184 29.5209L20.8984 28.6809C32.1484 17.5109 49.3084 9.88094 65.1184 8.46094Z" fill="#1D3760"></path>
    <path d="M74.7617 10.9009L76.5217 8.46094C92.8017 10.1109 108.672 16.9309 120.282 28.5909L117.802 29.5909C106.051 18.5668 90.8393 11.9612 74.7617 10.9009Z" fill="#1D3760"></path>
    <path d="M41.8195 32.2207H46.6295C46.6295 39.4607 46.5295 46.7007 46.6295 53.9307L41.7695 54.0007C41.8595 46.7507 41.7895 39.4907 41.8195 32.2207Z" fill="#1D3760"></path>
    <path d="M0.05 33.1406H15.29V37.1406H5.29C5.29 38.6906 5.29 40.2506 5.29 41.8006H15.29V45.8806H5.29C5.29 48.5806 5.29 51.2906 5.29 53.9906H0C0 47.0006 0 40.0806 0.05 33.1406Z" fill="#1D3760"></path>
    <path d="M59.5996 32.2305H64.3696L64.1296 53.1405C62.4696 54.4805 59.2096 54.2405 57.5096 54.1405C53.9696 53.7405 50.2596 53.7205 49.3796 50.0105C48.8995 47.6042 48.8995 45.1268 49.3796 42.7205C49.6768 41.5106 50.3499 40.4262 51.3022 39.623C52.2545 38.8198 53.437 38.3393 54.6796 38.2505C56.3512 38.2356 58.0218 38.3358 59.6796 38.5505L59.5996 32.2305ZM54.3596 43.7805V48.3005C54.3604 48.7578 54.5271 49.1994 54.8286 49.5433C55.1302 49.8871 55.5462 50.11 55.9996 50.1705C56.3996 50.1705 56.8096 50.2705 57.2196 50.3005C57.525 50.3278 57.8327 50.2938 58.1248 50.2004C58.4168 50.1071 58.6873 49.9563 58.9202 49.7569C59.1531 49.5575 59.3438 49.3136 59.4811 49.0394C59.6184 48.7653 59.6995 48.4664 59.7196 48.1605C59.9248 46.4619 59.9046 44.7437 59.6596 43.0505C59.2496 41.9505 57.6596 41.7305 56.2996 41.7505C55.7744 41.7662 55.2765 41.9879 54.9134 42.3678C54.5504 42.7476 54.3515 43.2551 54.3596 43.7805Z" fill="#1D3760"></path>
    <path d="M67.4688 33.1602H72.3988C72.3988 38.7302 72.3988 44.3002 72.3988 49.8802C75.7087 49.8802 82.3988 49.8802 82.3988 49.8802V54.0002C82.3988 54.0002 72.1787 54.0002 67.4987 54.0002C67.4587 47.0602 67.4887 40.1102 67.4688 33.1602Z" fill="#1D3760"></path>
    <path d="M17.7309 38.6094H22.4809C22.4809 43.7394 22.4809 48.8694 22.4809 53.9994H17.7109C17.7509 48.8594 17.7209 43.7294 17.7309 38.6094Z" fill="#1D3760"></path>
    <path d="M25 42.8597C25.73 38.0997 32.4 37.5897 36.14 38.7497C39.37 39.5997 39.84 43.1197 39.24 46.0797C39.1534 46.5038 38.9361 46.8901 38.6186 47.1843C38.3012 47.4785 37.8994 47.6658 37.47 47.7197C34.7 48.0797 31.88 47.8797 29.11 48.0897C28.89 50.7097 34.94 50.3097 38.56 50.3897L38.51 53.9997C38.51 53.9997 32.17 54.3897 29.51 53.7597C28.5407 53.5519 27.6455 53.0864 26.9186 52.4124C26.1917 51.7383 25.6602 50.8806 25.38 49.9297C24.8653 47.61 24.7369 45.2213 25 42.8597ZM29.2 44.5997H35.09L35 42.8597C34.9811 42.5186 34.8423 42.1951 34.6081 41.9462C34.3739 41.6974 34.0594 41.5393 33.72 41.4997C32.6548 41.3898 31.5803 41.4099 30.52 41.5597C30.1535 41.6213 29.8207 41.8108 29.5809 42.0946C29.341 42.3784 29.2096 42.7381 29.21 43.1097L29.2 44.5997Z" fill="#1D3760"></path>
    <path d="M87.1218 38.8191C90.1971 37.8155 93.5268 37.9217 96.5318 39.1191C99.2118 40.5691 99.1918 44.0391 99.2218 46.6891C99.2218 48.8391 99.0818 51.3791 97.3718 53.0291C96.6664 53.6711 95.792 54.0979 94.8518 54.2591C92.1522 54.7865 89.3646 54.6457 86.7318 53.8491C83.2718 52.2791 83.5818 47.8491 83.7918 44.6491C83.9118 42.4891 84.7718 39.7091 87.1218 38.8191ZM88.5918 45.0891C88.4835 46.1492 88.5205 47.2191 88.7018 48.2691C88.8344 49.0185 89.2523 49.6872 89.8677 50.1348C90.4831 50.5824 91.2481 50.7739 92.0018 50.6691C93.3118 50.4891 94.6918 49.6691 94.7318 48.3291C94.8138 46.7067 94.7502 45.0802 94.5418 43.4691C94.4118 42.6591 93.3818 42.0291 92.5418 41.8891L92.2618 41.8391C91.8044 41.7965 91.343 41.8482 90.9063 41.991C90.4696 42.1338 90.0669 42.3646 89.7229 42.6692C89.3789 42.9738 89.1011 43.3457 88.9066 43.7619C88.712 44.1782 88.6049 44.6299 88.5918 45.0891Z" fill="#1D3760"></path>
    <path d="M102.212 50.3805C100.792 46.3805 100.652 39.6105 105.902 38.5305C109.632 37.6505 115.802 37.9205 116.432 42.7705C116.582 46.6405 117.322 50.8605 116.672 54.7705C116.541 55.6099 116.197 56.4016 115.671 57.069C115.146 57.7364 114.457 58.257 113.672 58.5805C109.482 60.2505 102.962 59.5105 102.962 59.5105V55.4405C105.962 55.4405 110.302 56.0805 112.652 53.5805V53.1505C109.192 53.0605 104.002 54.3605 102.212 50.3805ZM106.312 44.1105C106.192 44.9418 106.172 45.7845 106.252 46.6205C106.302 47.3362 106.607 48.0101 107.112 48.5201C107.616 49.0302 108.287 49.3425 109.002 49.4005H109.272C109.873 49.4438 110.468 49.2556 110.934 48.8745C111.401 48.4933 111.704 47.9481 111.782 47.3505C111.948 46.2919 111.975 45.2161 111.862 44.1505C111.78 43.5795 111.508 43.0524 111.091 42.6536C110.674 42.2548 110.136 42.0073 109.562 41.9505C109.272 41.9356 108.981 41.9356 108.692 41.9505C108.105 41.9753 107.545 42.205 107.111 42.5996C106.676 42.9943 106.393 43.5289 106.312 44.1105Z" fill="#1D3760"></path>
    <path d="M119.498 38.5703L124.228 38.6003L124.238 53.9803H119.488L119.498 38.5703Z" fill="#1D3760"></path>
    <path d="M126.421 38.5703H131.601L134.161 42.7703L137.041 38.5703H141.781L136.721 45.9203L142.411 53.9803L137.091 53.9703L134.011 49.1803L130.981 53.9803H125.941L131.491 46.0103L126.421 38.5703Z" fill="#1D3760"></path>
    <circle cx="20" cy="33" r="3" fill="#61B93F"></circle>
    <circle cx="121" cy="33" r="3" fill="#61B93F"></circle>
  </g>
  <defs>
    <linearGradient id="paint0_linear_6384_7808" x1="67" y1="6" x2="75" y2="6" gradientUnits="userSpaceOnUse">
      <stop stop-color="#92D65E"></stop>
      <stop offset="1" stop-color="#5DB14C"></stop>
    </linearGradient>
    <clipPath id="clip0_6384_7808">
      <rect width="142.41" height="59.65" fill="white"></rect>
    </clipPath>
  </defs>
</svg>
