<svg width="32" height="33" viewBox="0 0 32 33" fill="none" xmlns="http://www.w3.org/2000/svg">
<path d="M13.6667 4.5C8.3437 4.5 4 8.84371 4 14.1667C4 19.4896 8.3437 23.8333 13.6667 23.8333C15.8488 23.8333 17.8593 23.0953 19.4805 21.8672L25.724 28.1094C25.8468 28.2373 25.994 28.3395 26.1568 28.4099C26.3197 28.4803 26.4949 28.5175 26.6723 28.5193C26.8497 28.5211 27.0256 28.4875 27.1899 28.4204C27.3541 28.3533 27.5033 28.2542 27.6288 28.1288C27.7542 28.0033 27.8533 27.8541 27.9204 27.6899C27.9875 27.5256 28.0211 27.3497 28.0193 27.1723C28.0175 26.9949 27.9803 26.8197 27.9099 26.6568C27.8395 26.494 27.7373 26.3468 27.6094 26.224L21.3672 19.9805C22.5953 18.3593 23.3333 16.3488 23.3333 14.1667C23.3333 8.84371 18.9896 4.5 13.6667 4.5ZM13.6667 7.16667C17.5485 7.16667 20.6667 10.2849 20.6667 14.1667C20.6667 16.0305 19.9427 17.7137 18.7656 18.9648C18.651 19.0478 18.5504 19.1484 18.4674 19.263C17.2161 20.4416 15.5318 21.1667 13.6667 21.1667C9.78488 21.1667 6.66667 18.0485 6.66667 14.1667C6.66667 10.2849 9.78488 7.16667 13.6667 7.16667Z" fill="#53A42A"/>
</svg>
