<svg width="20" height="21" viewBox="0 0 20 21" fill="none" xmlns="http://www.w3.org/2000/svg">
<path d="M8.54167 3.32422C5.21481 3.32422 2.5 6.03904 2.5 9.36589C2.5 12.6927 5.21481 15.4076 8.54167 15.4076C9.90548 15.4076 11.162 14.9463 12.1753 14.1787L16.0775 18.0801C16.1543 18.1601 16.2462 18.2239 16.348 18.2679C16.4498 18.3119 16.5593 18.3351 16.6702 18.3363C16.781 18.3374 16.891 18.3164 16.9937 18.2745C17.0963 18.2326 17.1896 18.1706 17.268 18.0922C17.3464 18.0138 17.4083 17.9205 17.4502 17.8179C17.4922 17.7152 17.5132 17.6053 17.512 17.4944C17.5109 17.3835 17.4877 17.274 17.4437 17.1722C17.3997 17.0705 17.3358 16.9785 17.2559 16.9017L13.3545 12.9995C14.1221 11.9863 14.5833 10.7297 14.5833 9.36589C14.5833 6.03904 11.8685 3.32422 8.54167 3.32422ZM8.54167 4.99089C10.9678 4.99089 12.9167 6.93977 12.9167 9.36589C12.9167 10.5308 12.4642 11.5828 11.7285 12.3647C11.6569 12.4166 11.594 12.4795 11.5422 12.5511C10.76 13.2877 9.70738 13.7409 8.54167 13.7409C6.11555 13.7409 4.16667 11.792 4.16667 9.36589C4.16667 6.93977 6.11555 4.99089 8.54167 4.99089Z" fill="#53A42A"/>
</svg>
