<svg width="20" height="21" viewBox="0 0 20 21" fill="none" xmlns="http://www.w3.org/2000/svg">
<path d="M10.6679 2.50007C10.5796 2.49882 10.4918 2.51514 10.4099 2.54808C10.3279 2.58102 10.2533 2.62993 10.1904 2.69196C10.1274 2.75399 10.0775 2.8279 10.0434 2.90941C10.0093 2.99091 9.99174 3.07838 9.99174 3.16673C9.99174 3.25508 10.0093 3.34255 10.0434 3.42406C10.0775 3.50556 10.1274 3.57948 10.1904 3.64151C10.2533 3.70354 10.3279 3.75244 10.4099 3.78539C10.4918 3.81833 10.5796 3.83465 10.6679 3.8334C13.9896 3.8334 16.6679 6.51167 16.6679 9.8334C16.6666 9.92174 16.683 10.0094 16.7159 10.0914C16.7489 10.1734 16.7978 10.248 16.8598 10.3109C16.9218 10.3738 16.9957 10.4238 17.0772 10.4579C17.1587 10.492 17.2462 10.5096 17.3346 10.5096C17.4229 10.5096 17.5104 10.492 17.5919 10.4579C17.6734 10.4238 17.7473 10.3738 17.8093 10.3109C17.8714 10.248 17.9203 10.1734 17.9532 10.0914C17.9862 10.0094 18.0025 9.92174 18.0012 9.8334C18.0012 5.79113 14.7102 2.50007 10.6679 2.50007ZM5.16008 3.836C5.07647 3.82908 4.99134 3.836 4.90618 3.85684C4.57551 3.9375 4.14654 4.1334 3.69654 4.5834C2.28788 5.99207 1.5405 8.3668 6.83717 13.6641C12.1338 18.9615 14.5086 18.2141 15.9179 16.8048C16.3692 16.3534 16.5651 15.9238 16.6458 15.5925C16.7278 15.2532 16.5812 14.9039 16.2799 14.7279C15.5279 14.2879 13.9049 13.3366 13.1523 12.8959C12.9049 12.7512 12.6014 12.7538 12.3554 12.8998L11.1106 13.642C10.8319 13.808 10.4838 13.7892 10.2278 13.5899C9.78579 13.2446 9.07499 12.663 8.45566 12.0443C7.83632 11.425 7.25475 10.7142 6.91008 10.2722C6.71075 10.0169 6.69133 9.66806 6.858 9.38939L7.60019 8.1446C7.74686 7.8986 7.74746 7.59245 7.60279 7.34512L5.77467 4.22403C5.64167 3.99802 5.41093 3.85679 5.16008 3.836ZM10.6679 5.16673C10.5796 5.16548 10.4918 5.1818 10.4099 5.21475C10.3279 5.24769 10.2533 5.2966 10.1904 5.35863C10.1274 5.42066 10.0775 5.49457 10.0434 5.57608C10.0093 5.65758 9.99174 5.74505 9.99174 5.8334C9.99174 5.92175 10.0093 6.00922 10.0434 6.09072C10.0775 6.17223 10.1274 6.24614 10.1904 6.30817C10.2533 6.3702 10.3279 6.41911 10.4099 6.45205C10.4918 6.485 10.5796 6.50132 10.6679 6.50007C12.517 6.50007 14.0012 7.98429 14.0012 9.8334C14 9.92174 14.0163 10.0094 14.0492 10.0914C14.0822 10.1734 14.1311 10.248 14.1931 10.3109C14.2552 10.3738 14.3291 10.4238 14.4106 10.4579C14.4921 10.492 14.5795 10.5096 14.6679 10.5096C14.7562 10.5096 14.8437 10.492 14.9252 10.4579C15.0067 10.4238 15.0806 10.3738 15.1427 10.3109C15.2047 10.248 15.2536 10.1734 15.2865 10.0914C15.3195 10.0094 15.3358 9.92174 15.3346 9.8334C15.3346 7.26384 13.2375 5.16673 10.6679 5.16673ZM10.6679 7.8334C10.5796 7.83215 10.4918 7.84847 10.4099 7.88141C10.3279 7.91436 10.2533 7.96326 10.1904 8.02529C10.1274 8.08732 10.0775 8.16124 10.0434 8.24274C10.0093 8.32425 9.99174 8.41172 9.99174 8.50007C9.99174 8.58842 10.0093 8.67589 10.0434 8.75739C10.0775 8.8389 10.1274 8.91281 10.1904 8.97484C10.2533 9.03687 10.3279 9.08578 10.4099 9.11872C10.4918 9.15166 10.5796 9.16798 10.6679 9.16673C11.0446 9.16673 11.3346 9.45671 11.3346 9.8334C11.3333 9.92174 11.3496 10.0094 11.3826 10.0914C11.4155 10.1734 11.4644 10.248 11.5265 10.3109C11.5885 10.3738 11.6624 10.4238 11.7439 10.4579C11.8254 10.492 11.9129 10.5096 12.0012 10.5096C12.0896 10.5096 12.177 10.492 12.2586 10.4579C12.3401 10.4238 12.414 10.3738 12.476 10.3109C12.538 10.248 12.5869 10.1734 12.6199 10.0914C12.6528 10.0094 12.6691 9.92174 12.6679 9.8334C12.6679 8.73675 11.7645 7.8334 10.6679 7.8334Z" fill="white"/>
</svg>
