<svg width="20" height="21" viewBox="0 0 20 21" fill="none" xmlns="http://www.w3.org/2000/svg">
<path d="M10.0016 2.5C7.79228 2.5 6.00162 4.29067 6.00162 6.5V7.16667C6.00162 9.376 7.79228 11.1667 10.0016 11.1667C12.2109 11.1667 14.0016 9.376 14.0016 7.16667V6.5C14.0016 4.29067 12.2109 2.5 10.0016 2.5ZM7.40005 13.5352C5.44339 14.0465 3.59765 15.0092 2.91698 15.8945C2.30765 16.6865 2.8877 17.8333 3.88703 17.8333H16.1149C17.1142 17.8333 17.6943 16.6859 17.0849 15.8932C16.4043 15.0079 14.5592 14.0465 12.6032 13.5352C11.9032 14.1358 10.9956 14.5 10.0016 14.5C9.00695 14.5 8.10005 14.1352 7.40005 13.5352Z" fill="white"/>
</svg>
