<?xml version="1.0" encoding="UTF-8"?>
<svg xmlns="http://www.w3.org/2000/svg" width="18" height="19" viewBox="0 0 18 19" fill="none">
  <path d="M16.7698 4.33898C16.6592 4.22461 16.489 4.19198 16.3438 4.25873L16.2823 4.28686C16.2302 4.31086 16.1781 4.33486 16.1256 4.35848C16.2782 4.11511 16.3993 3.85486 16.483 3.58561C16.5295 3.43711 16.4788 3.27473 16.3558 3.17873C16.2328 3.08273 16.0633 3.07261 15.9302 3.15398C15.5023 3.41386 15.0913 3.60098 14.6665 3.73148C14.0252 3.10936 13.1518 2.72461 12.1877 2.72461C10.2201 2.72461 8.62521 4.31948 8.62521 6.28711C8.62521 6.28898 8.62521 6.36323 8.62521 6.47461L8.25059 6.44461C4.60446 6.01336 3.56646 3.56086 3.52334 3.45511C3.45359 3.27886 3.29984 3.15023 3.11421 3.11161C2.92896 3.07223 2.73659 3.13036 2.60234 3.26423C2.52809 3.33886 1.87521 4.02961 1.87521 5.34961C1.87521 6.29011 2.29446 7.05286 2.83709 7.64611C2.58434 7.49198 2.43696 7.36711 2.43321 7.36373C2.26034 7.21298 2.01284 7.18148 1.80734 7.28573C1.60259 7.39036 1.48184 7.60898 1.50246 7.83811C1.50959 7.91723 1.66934 9.41798 3.40296 10.5512L3.08684 10.6086C2.89521 10.6435 2.73509 10.7751 2.66384 10.9566C2.59296 11.1385 2.62071 11.3436 2.73771 11.4996C2.77709 11.5525 3.50946 12.5046 5.09984 13.0521C4.25046 13.3352 3.08346 13.5996 1.68771 13.5996C1.46721 13.5996 1.26659 13.7286 1.17546 13.9296C1.08396 14.1306 1.11884 14.3665 1.26434 14.5322C1.32471 14.6016 2.78834 16.2246 6.56271 16.2246C12.8301 16.2246 15.7502 10.4065 15.7502 6.47461V6.28711C15.7502 6.23161 15.7442 6.17723 15.742 6.12248C16.5265 5.36423 16.8216 4.79536 16.8358 4.76723C16.9067 4.62473 16.8805 4.45298 16.7698 4.33898Z" fill="white"></path>
</svg>
