<svg width="20" height="20" viewBox="0 0 20 20" fill="none" xmlns="http://www.w3.org/2000/svg">
<path d="M10.6679 2.00007C10.5796 1.99882 10.4918 2.01514 10.4099 2.04808C10.3279 2.08102 10.2533 2.12993 10.1904 2.19196C10.1274 2.25399 10.0775 2.3279 10.0434 2.40941C10.0093 2.49091 9.99174 2.57838 9.99174 2.66673C9.99174 2.75508 10.0093 2.84255 10.0434 2.92406C10.0775 3.00556 10.1274 3.07948 10.1904 3.14151C10.2533 3.20354 10.3279 3.25244 10.4099 3.28539C10.4918 3.31833 10.5796 3.33465 10.6679 3.3334C13.9896 3.3334 16.6679 6.01167 16.6679 9.3334C16.6666 9.42174 16.683 9.50945 16.7159 9.59143C16.7489 9.67341 16.7978 9.74802 16.8598 9.81094C16.9218 9.87385 16.9957 9.92381 17.0772 9.9579C17.1587 9.992 17.2462 10.0096 17.3346 10.0096C17.4229 10.0096 17.5104 9.992 17.5919 9.9579C17.6734 9.92381 17.7473 9.87385 17.8093 9.81094C17.8714 9.74802 17.9203 9.67341 17.9532 9.59143C17.9862 9.50945 18.0025 9.42174 18.0012 9.3334C18.0012 5.29113 14.7102 2.00007 10.6679 2.00007ZM5.16008 3.336C5.07647 3.32908 4.99134 3.336 4.90618 3.35684C4.57551 3.4375 4.14654 3.6334 3.69654 4.0834C2.28788 5.49207 1.5405 7.8668 6.83717 13.1641C12.1338 18.4615 14.5086 17.7141 15.9179 16.3048C16.3692 15.8534 16.5651 15.4238 16.6458 15.0925C16.7278 14.7532 16.5812 14.4039 16.2799 14.2279C15.5279 13.7879 13.9049 12.8366 13.1523 12.3959C12.9049 12.2512 12.6014 12.2538 12.3554 12.3998L11.1106 13.142C10.8319 13.308 10.4838 13.2892 10.2278 13.0899C9.78579 12.7446 9.07499 12.163 8.45566 11.5443C7.83632 10.925 7.25475 10.2142 6.91008 9.7722C6.71075 9.51687 6.69133 9.16806 6.858 8.88939L7.60019 7.6446C7.74686 7.3986 7.74746 7.09245 7.60279 6.84512L5.77467 3.72403C5.64167 3.49802 5.41093 3.35679 5.16008 3.336ZM10.6679 4.66673C10.5796 4.66548 10.4918 4.6818 10.4099 4.71475C10.3279 4.74769 10.2533 4.7966 10.1904 4.85863C10.1274 4.92066 10.0775 4.99457 10.0434 5.07608C10.0093 5.15758 9.99174 5.24505 9.99174 5.3334C9.99174 5.42175 10.0093 5.50922 10.0434 5.59072C10.0775 5.67223 10.1274 5.74614 10.1904 5.80817C10.2533 5.8702 10.3279 5.91911 10.4099 5.95205C10.4918 5.985 10.5796 6.00132 10.6679 6.00007C12.517 6.00007 14.0012 7.48429 14.0012 9.3334C14 9.42174 14.0163 9.50945 14.0492 9.59143C14.0822 9.67341 14.1311 9.74802 14.1931 9.81094C14.2552 9.87385 14.3291 9.92381 14.4106 9.9579C14.4921 9.992 14.5795 10.0096 14.6679 10.0096C14.7562 10.0096 14.8437 9.992 14.9252 9.9579C15.0067 9.92381 15.0806 9.87385 15.1427 9.81094C15.2047 9.74802 15.2536 9.67341 15.2865 9.59143C15.3195 9.50945 15.3358 9.42174 15.3346 9.3334C15.3346 6.76384 13.2375 4.66673 10.6679 4.66673ZM10.6679 7.3334C10.5796 7.33215 10.4918 7.34847 10.4099 7.38141C10.3279 7.41436 10.2533 7.46326 10.1904 7.52529C10.1274 7.58732 10.0775 7.66124 10.0434 7.74274C10.0093 7.82425 9.99174 7.91172 9.99174 8.00007C9.99174 8.08842 10.0093 8.17589 10.0434 8.25739C10.0775 8.3389 10.1274 8.41281 10.1904 8.47484C10.2533 8.53687 10.3279 8.58578 10.4099 8.61872C10.4918 8.65166 10.5796 8.66798 10.6679 8.66673C11.0446 8.66673 11.3346 8.95671 11.3346 9.3334C11.3333 9.42174 11.3496 9.50945 11.3826 9.59143C11.4155 9.67341 11.4644 9.74802 11.5265 9.81094C11.5885 9.87385 11.6624 9.92381 11.7439 9.9579C11.8254 9.992 11.9129 10.0096 12.0012 10.0096C12.0896 10.0096 12.177 9.992 12.2586 9.9579C12.3401 9.92381 12.414 9.87385 12.476 9.81094C12.538 9.74802 12.5869 9.67341 12.6199 9.59143C12.6528 9.50945 12.6691 9.42174 12.6679 9.3334C12.6679 8.23675 11.7645 7.3334 10.6679 7.3334Z" fill="#53A42A"/>
</svg>
