<?xml version="1.0" encoding="UTF-8"?>
<svg xmlns="http://www.w3.org/2000/svg" width="18" height="19" viewBox="0 0 18 19" fill="none">
  <path d="M8.94653 3.66211C6.56427 3.66211 4.35088 3.83184 3.08789 4.0957C3.0852 4.09642 3.08251 4.09715 3.07983 4.0979C2.1283 4.31112 1.23232 4.9927 1.0437 6.06006C1.04345 6.06152 1.04321 6.06299 1.04297 6.06445C0.898064 6.92471 0.75 8.04612 0.75 9.66211C0.75 11.275 0.898571 12.3667 1.08179 13.2722C1.27503 14.3081 2.15033 15.0103 3.11646 15.2263C3.12108 15.2276 3.12572 15.2288 3.13037 15.23C4.44852 15.4897 6.59943 15.6621 8.98169 15.6621C11.364 15.6621 13.516 15.4897 14.8345 15.23C14.8391 15.2288 14.8438 15.2276 14.8484 15.2263C15.7999 15.0131 16.6959 14.3315 16.8845 13.2642C16.885 13.2615 16.8855 13.2588 16.886 13.2561C17.0287 12.3783 17.2136 11.258 17.25 9.6394C17.25 9.63525 17.25 9.6311 17.25 9.62695C17.25 8.0075 17.0646 6.87911 16.8838 5.98535C16.6921 4.94726 15.8158 4.24316 14.8484 4.02686C14.8336 4.02357 14.8187 4.02088 14.8037 4.0188C13.5174 3.83797 11.3292 3.66211 8.94653 3.66211ZM7.55859 6.85034C7.6975 6.84747 7.84107 6.88032 7.97607 6.95654L11.2024 8.77954C11.7465 9.08704 11.7465 9.86291 11.2024 10.1704L7.97607 11.9934C7.43645 12.2979 6.76392 11.9122 6.76392 11.2976V7.65161C6.76392 7.19064 7.14189 6.85896 7.55859 6.85034Z" fill="white"></path>
</svg>
